<?xml version="1.0" encoding="UTF-8"?>
<svg viewBox="0 0 517 352" xmlns="http://www.w3.org/2000/svg">
<g>
<title>background</title>
<rect x="-1" y="-1" width="519" height="354" fill="none"/>
</g>
<g>
<title>Layer 1</title>
<polygon points="166.26 197.07 351.02 197.07 351.02 153.45 166.26 153.45"/>
<path d="m176.58 186.78h164.13v-23.031h-164.13v23.031zm174.45 20.594h-184.76c-5.6923 0-10.312-4.6061-10.312-10.297v-43.624c0-5.6839 4.6198-10.297 10.312-10.297h184.76c5.6923 0 10.312 4.613 10.312 10.297v43.624c0 5.6907-4.6198 10.297-10.312 10.297z"/>
<path d="m363.2 326.78h29.836v-303.04h-29.836v303.04zm40.148 20.594h-50.461c-5.6923 0-10.312-4.613-10.312-10.297v-323.63c0-5.6839 4.6198-10.297 10.312-10.297h50.461c5.6923 0 10.312 4.613 10.312 10.297v323.63c0 5.6839-4.6198 10.297-10.312 10.297z"/>
<path d="m413.67 293.25h29.843v-235.97h-29.843v235.97zm40.155 20.594h-50.467c-5.6923 0-10.312-4.613-10.312-10.297v-256.56c0-5.6839 4.6198-10.297 10.312-10.297h50.467c5.6923 0 10.312 4.613 10.312 10.297v256.56c0 5.6839-4.6198 10.297-10.312 10.297z"/>
<path d="m464.13 249.69h29.836v-148.85h-29.836v148.85zm40.148 20.594h-50.461c-5.6923 0-10.312-4.613-10.312-10.297v-169.45c0-5.6839 4.6198-10.297 10.312-10.297h50.461c5.6923 0 10.312 4.613 10.312 10.297v169.45c0 5.6839-4.6198 10.297-10.312 10.297z"/>
<path d="m124.24 326.78h29.843v-303.04h-29.843v303.04zm40.148 20.594h-50.461c-5.6923 0-10.312-4.613-10.312-10.297v-323.63c0-5.6839 4.6198-10.297 10.312-10.297h50.461c5.6992 0 10.312 4.613 10.312 10.297v323.63c0 5.6839-4.613 10.297-10.312 10.297z"/>
<path d="m73.771 293.25h29.843v-235.97h-29.843v235.97zm40.155 20.594h-50.467c-5.6923 0-10.312-4.613-10.312-10.297v-256.56c0-5.6839 4.6198-10.297 10.312-10.297h50.467c5.6923 0 10.312 4.613 10.312 10.297v256.56c0 5.6839-4.6198 10.297-10.312 10.297z"/>
<path d="m23.311 249.69h29.836v-148.85h-29.836v148.85zm40.148 20.594h-50.461c-5.6923 0-10.312-4.613-10.312-10.297v-169.45c0-5.6839 4.6198-10.297 10.312-10.297h50.461c5.6923 0 10.312 4.613 10.312 10.297v169.45c0 5.6839-4.6198 10.297-10.312 10.297z"/>
</g>
</svg>
