<svg width="24" height="24" viewBox="0 0 24 24" fill="none" xmlns="http://www.w3.org/2000/svg">
<path d="M3 19.7362V10.4177C3 10.1545 3.10845 9.90314 3.29937 9.72383L11.1627 2.33861C11.6434 1.88717 12.3879 1.88712 12.8687 2.3385L20.7005 9.69222C20.8915 9.87154 21 10.1229 21 10.3862V19.7362C21 20.4342 20.4394 21 19.7478 21H14.3948C14.3602 21 14.3322 20.9717 14.3322 20.9368V15.4393C14.3322 15.4044 14.3041 15.3761 14.2696 15.3761H9.41739C9.38282 15.3761 9.35478 15.4044 9.35478 15.4393V20.9368C9.35478 20.9717 9.32675 21 9.29217 21H4.25217C3.56062 21 3 20.4342 3 19.7362Z" stroke="#2A343A" stroke-opacity="0.3" stroke-width="2"/>
</svg>
