<svg width="24" height="24" viewBox="0 0 24 24" fill="none" xmlns="http://www.w3.org/2000/svg">
<path d="M12.0001 17.4004C14.4854 17.4004 16.5002 15.3856 16.5002 12.9003C16.5002 10.415 14.4854 8.40021 12.0001 8.40021C9.51476 8.40021 7.5 10.415 7.5 12.9003C7.5 15.3856 9.51476 17.4004 12.0001 17.4004Z" stroke="#2A343A" stroke-width="1.5" stroke-miterlimit="10" stroke-linecap="square"/>
<path d="M3.90039 3H5.70043" stroke="#2A343A" stroke-width="1.5" stroke-miterlimit="10" stroke-linecap="square"/>
<path d="M20.1002 21.0004H3.89989C3.42249 21.0004 2.96464 20.8107 2.62707 20.4731C2.2895 20.1356 2.09985 19.6777 2.09985 19.2003V7.50009C2.09985 7.02269 2.2895 6.56484 2.62707 6.22727C2.96464 5.8897 3.42249 5.70005 3.89989 5.70005H7.49996L9.3 3H14.7001L16.5001 5.70005H20.1002C20.5776 5.70005 21.0355 5.8897 21.373 6.22727C21.7106 6.56484 21.9002 7.02269 21.9002 7.50009V19.2003C21.9002 19.6777 21.7106 20.1356 21.373 20.4731C21.0355 20.8107 20.5776 21.0004 20.1002 21.0004Z" stroke="#2A343A" stroke-width="1.5" stroke-miterlimit="10" stroke-linecap="square"/>
<path d="M4.80041 9.30004C5.29747 9.30004 5.70043 8.89708 5.70043 8.40002C5.70043 7.90295 5.29747 7.5 4.80041 7.5C4.30334 7.5 3.90039 7.90295 3.90039 8.40002C3.90039 8.89708 4.30334 9.30004 4.80041 9.30004Z" fill="#2A343A"/>
</svg>
