<svg width="24" height="24" viewBox="0 0 24 24" fill="none" xmlns="http://www.w3.org/2000/svg">
<path d="M12 7.24237L13.4046 10.0887L16.5455 10.5451L14.2728 12.7606L14.8091 15.8887L12 14.4115L9.19095 15.8887L9.72732 12.7606L7.45459 10.5451L10.5955 10.0887L12 7.24237Z" stroke="#2A343A" stroke-width="1.5" stroke-miterlimit="10" stroke-linecap="square"/>
<path d="M12 22C17.5228 22 22 17.5228 22 12C22 6.47715 17.5228 2 12 2C6.47715 2 2 6.47715 2 12C2 17.5228 6.47715 22 12 22Z" stroke="#2A343A" stroke-width="1.5" stroke-miterlimit="10"/>
<path d="M11.9999 19.2727C12.502 19.2727 12.909 18.8657 12.909 18.3636C12.909 17.8615 12.502 17.4545 11.9999 17.4545C11.4978 17.4545 11.0908 17.8615 11.0908 18.3636C11.0908 18.8657 11.4978 19.2727 11.9999 19.2727Z" fill="#2A343A"/>
<path d="M18.0519 14.8756C18.554 14.8756 18.961 14.4685 18.961 13.9665C18.961 13.4644 18.554 13.0574 18.0519 13.0574C17.5498 13.0574 17.1428 13.4644 17.1428 13.9665C17.1428 14.4685 17.5498 14.8756 18.0519 14.8756Z" fill="#2A343A"/>
<path d="M15.7401 7.76081C16.2422 7.76081 16.6492 7.35379 16.6492 6.85172C16.6492 6.34964 16.2422 5.94263 15.7401 5.94263C15.2381 5.94263 14.8311 6.34964 14.8311 6.85172C14.8311 7.35379 15.2381 7.76081 15.7401 7.76081Z" fill="#2A343A"/>
<path d="M8.25968 7.76081C8.76175 7.76081 9.16877 7.35379 9.16877 6.85172C9.16877 6.34964 8.76175 5.94263 8.25968 5.94263C7.7576 5.94263 7.35059 6.34964 7.35059 6.85172C7.35059 7.35379 7.7576 7.76081 8.25968 7.76081Z" fill="#2A343A"/>
<path d="M5.94791 14.8756C6.44999 14.8756 6.857 14.4685 6.857 13.9665C6.857 13.4644 6.44999 13.0574 5.94791 13.0574C5.44583 13.0574 5.03882 13.4644 5.03882 13.9665C5.03882 14.4685 5.44583 14.8756 5.94791 14.8756Z" fill="#2A343A"/>
</svg>
