<svg width="64" height="64" viewBox="0 0 64 64" fill="none" xmlns="http://www.w3.org/2000/svg">
<path d="M64 32C64 49.6731 49.6731 64 32 64C14.3269 64 0 49.6731 0 32C0 14.3269 14.3269 0 32 0C49.6731 0 64 14.3269 64 32Z" fill="#34966D" fill-opacity="0.1"/>
<path d="M39.5 19.5H35.75C34.0924 19.5 32.5027 20.1585 31.3306 21.3306C30.1585 22.5027 29.5 24.0924 29.5 25.75V29.5H25.75V34.5H29.5V44.5H34.5V34.5H38.25L39.5 29.5H34.5V25.75C34.5 25.4185 34.6317 25.1005 34.8661 24.8661C35.1005 24.6317 35.4185 24.5 35.75 24.5H39.5V19.5Z" fill="#34966D"/>
</svg>
