<svg width="24" height="24" viewBox="0 0 24 24" fill="none" xmlns="http://www.w3.org/2000/svg">
<path d="M12 17.25V23.2463" stroke="#2A343A" stroke-width="1.5" stroke-miterlimit="10" stroke-linecap="square"/>
<path d="M8.25 8.25C8.66421 8.25 9 7.91421 9 7.5C9 7.08579 8.66421 6.75 8.25 6.75C7.83579 6.75 7.5 7.08579 7.5 7.5C7.5 7.91421 7.83579 8.25 8.25 8.25Z" fill="#2A343A"/>
<path d="M9.75 11.25C10.1642 11.25 10.5 10.9142 10.5 10.5C10.5 10.0858 10.1642 9.75 9.75 9.75C9.33579 9.75 9 10.0858 9 10.5C9 10.9142 9.33579 11.25 9.75 11.25Z" fill="#2A343A"/>
<path d="M9.75 5.25C10.1642 5.25 10.5 4.91421 10.5 4.5C10.5 4.08579 10.1642 3.75 9.75 3.75C9.33579 3.75 9 4.08579 9 4.5C9 4.91421 9.33579 5.25 9.75 5.25Z" fill="#2A343A"/>
<path d="M12 14.25C15.7279 14.25 18.75 11.2279 18.75 7.5C18.75 3.77208 15.7279 0.75 12 0.75C8.27208 0.75 5.25 3.77208 5.25 7.5C5.25 11.2279 8.27208 14.25 12 14.25Z" stroke="#2A343A" stroke-width="1.5"/>
<path d="M9.75 17.25H14.25" stroke="#2A343A" stroke-width="1.5" stroke-miterlimit="10" stroke-linecap="square"/>
</svg>
