<svg width="24" height="24" viewBox="0 0 24 24" fill="none" xmlns="http://www.w3.org/2000/svg">
<path d="M12 4V5.90911" stroke="#2A343A" stroke-width="1.5" stroke-miterlimit="10" stroke-linecap="square"/>
<path d="M8.1814 4V5.90911" stroke="#2A343A" stroke-width="1.5" stroke-miterlimit="10" stroke-linecap="square"/>
<path d="M4.01048 9.02001L3.40911 7.81822L4.36367 4H22.5002V9.72733H11.0456L7.22733 21.182H3.83102C3.42985 21.1825 3.03872 21.0566 2.71315 20.8222C2.38759 20.5878 2.14414 20.2568 2.01737 19.8762L1.5 18.3183L4.11357 10.4776C4.19294 10.2398 4.22469 9.98865 4.207 9.73856C4.18931 9.48846 4.12254 9.24429 4.01048 9.02001Z" stroke="#2A343A" stroke-width="1.5" stroke-miterlimit="10" stroke-linecap="square"/>
<path d="M15.8181 9.72687L15.2254 12.0989C15.1221 12.5121 14.8836 12.8789 14.5479 13.1409C14.2122 13.403 13.7985 13.5452 13.3726 13.5451H9.77295" stroke="#2A343A" stroke-width="1.5" stroke-miterlimit="10"/>
</svg>
