<svg width="192" height="33" viewBox="0 0 192 33" fill="none" xmlns="http://www.w3.org/2000/svg">
<path d="M0.5 8H3.6286V21.1444H9.5V24H0.5V8Z" fill="white"/>
<path d="M13.5 8H16.5V24H13.5V8Z" fill="white"/>
<path d="M20.5 16.0116C20.5 11.5747 23.8636 8 28.1872 8C30.4595 8 32.4469 8.9716 33.7558 10.4904L31.5508 12.4601C30.6995 11.5084 29.4994 10.9215 28.1872 10.9215C25.5661 10.9215 23.5371 13.2294 23.5371 16.0116C23.5371 18.7938 25.5693 21.1946 28.1872 21.1946C30.1522 21.1946 31.7044 20.223 32.098 18.5915C32.1428 18.4788 32.162 18.3428 32.1844 18.2068H27.9216V15.6502H35.5C35.5 21.4201 32.5077 24 28.184 24C23.8604 23.9967 20.5 20.422 20.5 16.0116Z" fill="white"/>
<path d="M51.5 8V24H48.3841V17.4959H42.6191V24H39.5V8H42.6191V14.596H48.3841V8H51.5Z" fill="white"/>
<path d="M66.5 10.8556H62.472V24H59.528V10.8556H55.5V8H66.4969V10.8556H66.5Z" fill="white"/>
<path d="M126.5 8V24H123.642V17.4972H118.358V24H115.5V8H118.358V14.5946H123.642V8H126.5Z" fill="white"/>
<path d="M131.5 16.0116C131.5 11.5747 134.796 8 138.989 8C143.163 8 146.5 11.5747 146.5 16.0116C146.5 20.4253 143.163 24 138.989 24C134.796 24 131.5 20.422 131.5 16.0116ZM143.505 16.0116C143.505 13.2062 141.623 10.9646 138.989 10.9646C136.336 10.9646 134.473 13.2029 134.473 16.0116C134.473 18.817 136.336 21.0587 138.989 21.0587C141.62 21.0553 143.505 18.817 143.505 16.0116Z" fill="white"/>
<path d="M150.5 18.1549V8H153.666V17.9702C153.666 20.1033 155.03 20.9733 156.488 20.9733C157.97 20.9733 159.334 20.1033 159.334 17.9702V8H162.5V18.1549C162.5 21.7997 159.701 24 156.488 24C153.299 24.0034 150.5 21.7997 150.5 18.1549Z" fill="white"/>
<path d="M166.5 19.2063H169.59C169.613 20.3375 170.678 21.2664 172.101 21.2664C173.478 21.2664 174.39 20.5399 174.39 19.4319C174.39 18.5727 173.768 17.9623 172.456 17.5542L170.59 17.0101C167.236 16.1045 166.634 14.0444 166.634 12.6411C166.634 9.8578 168.988 8 171.922 8C174.81 8 177.031 9.7881 177.031 12.7539H173.941C173.941 11.6459 173.185 10.7833 171.853 10.7833C170.652 10.7833 169.743 11.5297 169.743 12.5714C169.743 12.9562 169.854 13.7723 171.453 14.2235L173.166 14.7211C175.475 15.378 177.5 16.622 177.5 19.2693C177.5 22.3711 174.898 24 172.013 24C168.744 24.0066 166.5 21.9664 166.5 19.2063Z" fill="white"/>
<path d="M191.5 21.145V24H181.5V8H191.297V10.855H184.654V14.6627H190.483V17.5653H184.654V21.1416H191.5V21.145Z" fill="white"/>
<path d="M104.478 5.44554C102.131 0.54334 96.472 -1.41071 91.866 1.08651C90.858 1.6331 89.982 2.34708 89.253 3.18404L89.247 3.17721L76.998 16.2133L77.014 16.2304C74.4135 19.2127 73.6849 23.7152 75.518 27.5447C76.657 29.9224 78.593 31.6817 80.978 32.505C83.36 33.3317 85.899 33.1165 88.133 31.9072C88.916 31.4802 89.625 30.9438 90.255 30.3221L90.264 30.3323L90.466 30.1171C90.483 30.1 90.499 30.0829 90.515 30.0659C90.527 30.0556 90.534 30.042 90.547 30.0317L102.513 17.2962L102.504 17.286C102.587 17.204 102.671 17.1254 102.751 17.04C105.547 14.0645 106.369 9.3946 104.478 5.44554ZM101.294 13.7468C101.294 14.126 101.008 14.4301 100.652 14.4301H97.493V10.9866H94.62V14.4301H91.593C91.24 14.4301 90.951 14.126 90.951 13.7468V8.0043C90.951 7.8129 91.028 7.6319 91.16 7.5021L95.689 3.06106C95.933 2.81851 96.312 2.81851 96.559 3.06106L101.088 7.5021C101.22 7.6319 101.294 7.8129 101.294 8.0043V13.7468Z" fill="white"/>
</svg>
