<svg width="64" height="64" viewBox="0 0 64 64" fill="none" xmlns="http://www.w3.org/2000/svg">
<path d="M64 32C64 49.6731 49.6731 64 32 64C14.3269 64 0 49.6731 0 32C0 14.3269 14.3269 0 32 0C49.6731 0 64 14.3269 64 32Z" fill="#34966D" fill-opacity="0.1"/>
<path d="M38.25 19.5H25.75C22.2982 19.5 19.5 22.2982 19.5 25.75V38.25C19.5 41.7018 22.2982 44.5 25.75 44.5H38.25C41.7018 44.5 44.5 41.7018 44.5 38.25V25.75C44.5 22.2982 41.7018 19.5 38.25 19.5Z" fill="#34966D"/>
<path d="M37.0006 31.2129C37.1549 32.2532 36.9772 33.3156 36.4928 34.2491C36.0084 35.1826 35.242 35.9396 34.3026 36.4125C33.3632 36.8853 32.2987 37.0499 31.2603 36.8828C30.222 36.7157 29.2628 36.2255 28.5192 35.4818C27.7755 34.7382 27.2853 33.779 27.1182 32.7406C26.9511 31.7023 27.1157 30.6377 27.5885 29.6983C28.0613 28.7589 28.8183 27.9926 29.7518 27.5082C30.6853 27.0238 31.7478 26.8461 32.7881 27.0004C33.8493 27.1577 34.8317 27.6522 35.5902 28.4108C36.3488 29.1693 36.8433 30.1517 37.0006 31.2129Z" stroke="#EBF4F0" stroke-width="2" stroke-linecap="round" stroke-linejoin="round"/>
<path d="M38.875 25.125H38.8875" stroke="#EBF4F0" stroke-width="2" stroke-linecap="round" stroke-linejoin="round"/>
</svg>
