<svg width="26" height="26" viewBox="0 0 26 26" fill="none" xmlns="http://www.w3.org/2000/svg">
<path fill-rule="evenodd" clip-rule="evenodd" d="M2.26312 12.3412C-0.754048 15.3481 -0.754049 20.2231 2.26312 23.23C5.28029 26.2368 10.1721 26.2368 13.1893 23.23L23.31 13.1439C26.3271 10.137 26.3271 5.26198 23.31 2.25514C20.2928 -0.751711 15.401 -0.751712 12.3838 2.25514L2.26312 12.3412ZM13.58 10.5406V6.15793C13.58 6.03414 13.6317 5.91592 13.7226 5.83158L17.468 2.35816C17.697 2.14584 18.0516 2.14581 18.2806 2.35811L22.011 5.81672C22.102 5.90105 22.1537 6.01929 22.1537 6.14311V10.5406C22.1537 10.8689 21.8866 11.135 21.5572 11.135H19.0075C18.991 11.135 18.9777 11.1217 18.9777 11.1053V8.51969C18.9777 8.50328 18.9643 8.48997 18.9479 8.48997H16.6367C16.6202 8.48997 16.6069 8.50328 16.6069 8.51969V11.1053C16.6069 11.1217 16.5935 11.135 16.5771 11.135H14.1764C13.847 11.135 13.58 10.8689 13.58 10.5406Z" fill="#2A343A"/>
</svg>
