<svg width="21" height="22" viewBox="0 0 21 22" fill="none" xmlns="http://www.w3.org/2000/svg">
<path d="M19.7451 19.965L14.2907 14.1553C16.9866 10.7497 16.5477 5.74143 13.413 2.87002C10.2783 -0.00139707 5.45094 0.466043 2.75511 3.8049C0.0592879 7.14375 0.498143 12.2188 3.63282 15.0902C6.45404 17.6278 10.5291 17.6278 13.3503 15.0902L18.8047 20.8998C18.9301 21.0334 19.1181 21.0334 19.2435 20.8998L19.6824 20.4324C19.8078 20.2988 19.8078 20.0985 19.7451 19.965ZM8.52292 15.6912C5.07478 15.6912 2.25356 12.6863 2.25356 9.01351C2.25356 5.34077 5.07478 2.3358 8.52292 2.3358C11.9711 2.3358 14.7923 5.34077 14.7923 9.01351C14.7923 12.6863 11.9711 15.6912 8.52292 15.6912Z" fill="#49454F" stroke="#49454F"/>
</svg>
