<svg width="24" height="24" viewBox="0 0 24 24" fill="none" xmlns="http://www.w3.org/2000/svg">
<path d="M20 10.0001C20 13.0981 17.9843 16.1043 15.774 18.4373C14.6894 19.5823 13.6013 20.5196 12.7833 21.1709C12.4789 21.4134 12.213 21.6153 12 21.7727C11.787 21.6153 11.5211 21.4134 11.2167 21.1709C10.3987 20.5196 9.31061 19.5823 8.22595 18.4373C6.01574 16.1043 4 13.0981 4 10.0001C4 7.87836 4.84285 5.84353 6.34315 4.34324C7.84344 2.84295 9.87827 2.00009 12 2.00009C14.1217 2.00009 16.1566 2.84295 17.6569 4.34324C19.1571 5.84353 20 7.87836 20 10.0001Z" stroke="#34966D" stroke-width="2" stroke-linecap="round" stroke-linejoin="round"/>
<path d="M15 10.0001C15 11.6569 13.6569 13.0001 12 13.0001C10.3431 13.0001 9 11.6569 9 10.0001C9 8.34324 10.3431 7.00009 12 7.00009C13.6569 7.00009 15 8.34324 15 10.0001Z" stroke="#34966D" stroke-width="2" stroke-linecap="round" stroke-linejoin="round"/>
</svg>
