<svg width="46" height="46" viewBox="0 0 46 46" fill="none" xmlns="http://www.w3.org/2000/svg">
<path d="M1.4375 35.9375V10.0625C1.43978 9.3007 1.74341 8.57076 2.28208 8.03208C2.82076 7.49341 3.5507 7.18978 4.3125 7.1875H41.6875C42.4493 7.18978 43.1792 7.49341 43.7179 8.03208C44.2566 8.57076 44.5602 9.3007 44.5625 10.0625V35.9375C44.5602 36.6993 44.2566 37.4292 43.7179 37.9679C43.1792 38.5066 42.4493 38.8102 41.6875 38.8125H4.3125C3.5507 38.8102 2.82076 38.5066 2.28208 37.9679C1.74341 37.4292 1.43978 36.6993 1.4375 35.9375V35.9375Z" stroke="#2A343A" stroke-width="2" stroke-miterlimit="10" stroke-linecap="square"/>
<path opacity="0.85" d="M17.9688 30.9062C22.3353 30.9062 25.875 27.3665 25.875 23C25.875 18.6335 22.3353 15.0938 17.9688 15.0938C13.6022 15.0938 10.0625 18.6335 10.0625 23C10.0625 27.3665 13.6022 30.9062 17.9688 30.9062Z" fill="#2A343A"/>
<path opacity="0.5" d="M28.0312 30.9062C32.3978 30.9062 35.9375 27.3665 35.9375 23C35.9375 18.6335 32.3978 15.0938 28.0312 15.0938C23.6647 15.0938 20.125 18.6335 20.125 23C20.125 27.3665 23.6647 30.9062 28.0312 30.9062Z" fill="#2A343A"/>
</svg>
