<svg width="24" height="24" viewBox="0 0 24 24" fill="none" xmlns="http://www.w3.org/2000/svg">
<path d="M18.4478 12.5927C18.9864 11.7678 19.2732 10.804 19.2732 9.81879C19.2732 8.83362 18.9864 7.86975 18.4478 7.04486" stroke="#2A343A" stroke-width="1.5" stroke-miterlimit="10" stroke-linecap="square"/>
<path d="M15.8835 11.169C16.194 10.7877 16.3635 10.3109 16.3635 9.81917C16.3635 9.32741 16.194 8.85068 15.8835 8.4693" stroke="#2A343A" stroke-width="1.5" stroke-miterlimit="10" stroke-linecap="square"/>
<path d="M1.09058 18.546V5.4546C1.09058 5.06882 1.24383 4.69884 1.51662 4.42604C1.78941 4.15325 2.1594 4 2.54518 4H21.455C21.8408 4 22.2108 4.15325 22.4836 4.42604C22.7564 4.69884 22.9096 5.06882 22.9096 5.4546V18.546C22.9096 18.9318 22.7564 19.3018 22.4836 19.5746C22.2108 19.8474 21.8408 20.0007 21.455 20.0007H2.54518C2.1594 20.0007 1.78941 19.8474 1.51662 19.5746C1.24383 19.3018 1.09058 18.9318 1.09058 18.546Z" stroke="#2A343A" stroke-width="1.5" stroke-miterlimit="10" stroke-linecap="square"/>
<path d="M4.72681 16.3638H13.4544" stroke="#2A343A" stroke-width="1.5" stroke-miterlimit="10" stroke-linecap="square"/>
<path d="M16.364 16.3638H19.2732" stroke="#2A343A" stroke-width="1.5" stroke-miterlimit="10" stroke-linecap="square"/>
<path d="M8.36332 7.63617H4.72681V10.5454H8.36332V7.63617Z" stroke="#2A343A" stroke-width="1.5" stroke-miterlimit="10" stroke-linecap="square"/>
<path d="M13.4551 10.5461C13.8568 10.5461 14.1824 10.2205 14.1824 9.81879C14.1824 9.41712 13.8568 9.09149 13.4551 9.09149C13.0534 9.09149 12.7278 9.41712 12.7278 9.81879C12.7278 10.2205 13.0534 10.5461 13.4551 10.5461Z" fill="#2A343A"/>
</svg>
