<svg width="64" height="64" viewBox="0 0 64 64" fill="none" xmlns="http://www.w3.org/2000/svg">
<path d="M64 32C64 49.6731 49.6731 64 32 64C14.3269 64 0 49.6731 0 32C0 14.3269 14.3269 0 32 0C49.6731 0 64 14.3269 64 32Z" fill="#34966D" fill-opacity="0.1"/>
<path d="M45.75 20.7499C44.553 21.5942 43.2276 22.24 41.825 22.6624C41.0722 21.7968 40.0717 21.1832 38.9588 20.9048C37.8459 20.6263 36.6744 20.6964 35.6026 21.1054C34.5308 21.5145 33.6106 22.2429 32.9662 23.192C32.3219 24.1412 31.9846 25.2653 32 26.4124V27.6624C29.8033 27.7193 27.6266 27.2321 25.6638 26.2442C23.7009 25.2562 22.0129 23.7982 20.75 21.9999C20.75 21.9999 15.75 33.2499 27 38.2499C24.4257 39.9973 21.3589 40.8735 18.25 40.7499C29.5 46.9999 43.25 40.7499 43.25 26.3749C43.2488 26.0267 43.2154 25.6794 43.15 25.3374C44.4258 24.0792 45.326 22.4908 45.75 20.7499Z" fill="#34966D"/>
</svg>
