<svg width="46" height="46" viewBox="0 0 46 46" fill="none" xmlns="http://www.w3.org/2000/svg">
<path d="M1.4375 15.8125H44.5625" stroke="#2A343A" stroke-width="2" stroke-miterlimit="10"/>
<path d="M14.375 15.8125V41.6875" stroke="#2A343A" stroke-width="2" stroke-miterlimit="10"/>
<path d="M44.5625 4.3125H1.4375V41.6875H44.5625V4.3125Z" stroke="#2A343A" stroke-width="2" stroke-miterlimit="10" stroke-linecap="square"/>
<path d="M7.54688 12.2188C8.53926 12.2188 9.34375 11.4143 9.34375 10.4219C9.34375 9.42949 8.53926 8.625 7.54688 8.625C6.55449 8.625 5.75 9.42949 5.75 10.4219C5.75 11.4143 6.55449 12.2188 7.54688 12.2188Z" fill="#2A343A"/>
<path d="M14.0156 12.2188C15.008 12.2188 15.8125 11.4143 15.8125 10.4219C15.8125 9.42949 15.008 8.625 14.0156 8.625C13.0232 8.625 12.2188 9.42949 12.2188 10.4219C12.2188 11.4143 13.0232 12.2188 14.0156 12.2188Z" fill="#2A343A"/>
</svg>
