<svg width="24" height="24" viewBox="0 0 24 24" fill="none" xmlns="http://www.w3.org/2000/svg">
<path d="M8.18678 6.40054L10.5412 3.45737V2.72869L9.08379 2H6.16904L4.71167 2.72869V3.45737L7.06606 6.40054" stroke="#2A343A" stroke-width="1.5" stroke-miterlimit="10"/>
<path d="M10.2951 10.4682C9.7299 11.847 9.64801 13.3765 10.0627 14.8077C10.4775 16.239 11.3644 17.4877 12.5792 18.3507C13.7939 19.2137 15.265 19.6402 16.753 19.5607C18.241 19.4812 19.6583 18.9004 20.7742 17.9129C21.8902 16.9254 22.639 15.5892 22.8988 14.1219C23.1587 12.6546 22.9143 11.1426 22.2054 9.83188C21.4966 8.52117 20.3649 7.48896 18.9948 6.90326C17.6246 6.31755 16.0965 6.21284 14.6592 6.60616" stroke="#2A343A" stroke-width="1.5" stroke-miterlimit="10" stroke-linecap="square"/>
<path d="M13.7024 15.3924C14.2673 14.0139 14.349 12.4848 13.9342 11.0539C13.5193 9.62307 12.6325 8.37473 11.4179 7.51207C10.2033 6.64941 8.73255 6.22321 7.24491 6.30283C5.75728 6.38245 4.34039 6.96322 3.22484 7.9506C2.10928 8.93798 1.36074 10.2739 1.10103 11.7408C0.841327 13.2078 1.08575 14.7194 1.79452 16.0298C2.50329 17.3401 3.63468 18.372 5.00456 18.9575C6.37443 19.543 7.90215 19.6477 9.33907 19.2544" stroke="#2A343A" stroke-width="1.5" stroke-miterlimit="10" stroke-linecap="square"/>
</svg>
