<?xml version="1.0" standalone="no"?>
<!DOCTYPE svg PUBLIC "-//W3C//DTD SVG 1.1//EN" "http://www.w3.org/Graphics/SVG/1.1/DTD/svg11.dtd" >
<svg xmlns="http://www.w3.org/2000/svg" xmlns:xlink="http://www.w3.org/1999/xlink" version="1.1">
<metadata>
Created by FontForge 20170731 at Fri Sep 11 15:39:28 2020
 By Aleksey,,,
Copyright (c) 2011 by Michael D. Beens. All rights reserved.
</metadata>
<defs>
<font id="P22MackinacPro-ExtraBoldItalic" horiz-adv-x="1390" >
  <font-face 
    font-family="P22 Mackinac Pro"
    font-weight="800"
    font-style="italic"
    font-stretch="normal"
    units-per-em="2048"
    panose-1="2 0 0 0 0 0 0 0 0 0"
    ascent="1632"
    descent="-416"
    x-height="1092"
    cap-height="1462"
    bbox="-453 -494 2488 1905"
    underline-thickness="40"
    underline-position="-286"
    unicode-range="U+0020-FB07"
  />
<missing-glyph horiz-adv-x="1363" 
d="M479 168h406l-203 311zM479 1098l203 -312l203 312h-406zM1153 1266v-1266h-942v1266h942zM985 944l-203 -311l203 -309v620zM379 322l203 311l-203 311v-622z" />
    <glyph glyph-name="Tcaron_h" unicode="&#x164;h" horiz-adv-x="2408" 
d="M2290 231q17 0 28 -12t11 -29q0 -53 -109 -133t-221 -80q-81 0 -128.5 47.5t-47.5 141.5q0 72 49 287t49 282q0 107 -80 107q-59 0 -129 -72t-131 -192q-100 -201 -164 -535q-9 -37 -51 -43l-190 -20q-21 -3 -29 -3q-39 0 -39 33q0 1 4 29l229 1126q7 28 7 47
q0 44 -36.5 63t-123.5 19h-189q-25 0 -39.5 -8.5t-19 -19t-8.5 -29.5l-166 -821q-27 -138 -27 -189q0 -42 18.5 -70t40 -38.5t40 -26.5t18.5 -37q0 -55 -92 -55h-500q-61 0 -61 49q-3 18 13 33.5t39.5 27t53 35t47.5 52.5q32 53 66 219l166 821q1 5 2 11.5t1.5 10t0.5 5.5
q0 30 -49 30q-138 0 -236 -110q-20 -23 -51 -74q-32 -50 -55 -70q-23 -23 -53.5 -23.5t-52 18.5t-21.5 48q0 30 37 170q19 103 34 152q12 42 36 57t79 15q36 0 174 -9q141 -6 230 -6h403q267 0 332 8q95 11 207 50q34 12 51 12q53 0 53 -53q0 -11 -2 -17l-127 -624l-2 -13
q0 -8 6 -8q5 0 8 6q174 269 400 269q118 0 185 -64.5t67 -185.5q0 -87 -52 -328q-51 -236 -51 -287q0 -49 33 -49q21 0 59 27q36 26 56 26zM846 1726l155 125q22 19 48 19h125q14 0 14 -10q0 -5 -6 -11l-224 -215q-22 -22 -49 -22h-194q-28 0 -41 22l-135 215q-2 2 -2 9
q0 12 14 12h111q17 0 36 -19l119 -127q8 -8 12 -8z" />
    <glyph glyph-name="Tcommaaccent_h" unicode="&#x162;h" horiz-adv-x="2408" 
d="M2290 231q17 0 28 -12t11 -29q0 -53 -109 -133t-221 -80q-81 0 -128.5 47.5t-47.5 141.5q0 72 49 287t49 282q0 107 -80 107q-59 0 -129 -72t-131 -192q-100 -201 -164 -535q-9 -37 -51 -43l-190 -20q-21 -3 -29 -3q-39 0 -39 33q0 1 4 29l229 1126q7 28 7 47
q0 44 -36.5 63t-123.5 19h-189q-25 0 -39.5 -8.5t-19 -19t-8.5 -29.5l-166 -821q-27 -138 -27 -189q0 -42 18.5 -70t40 -38.5t40 -26.5t18.5 -37q0 -55 -92 -55h-500q-61 0 -61 49q-3 18 13 33.5t39.5 27t53 35t47.5 52.5q32 53 66 219l166 821q1 5 2 11.5t1.5 10t0.5 5.5
q0 30 -49 30q-138 0 -236 -110q-20 -23 -51 -74q-32 -50 -55 -70q-23 -23 -53.5 -23.5t-52 18.5t-21.5 48q0 30 37 170q19 103 34 152q12 42 36 57t79 15q36 0 174 -9q141 -6 230 -6h403q267 0 332 8q95 11 207 50q34 12 51 12q53 0 53 -53q0 -11 -2 -17l-127 -624l-2 -13
q0 -8 6 -8q5 0 8 6q174 269 400 269q118 0 185 -64.5t67 -185.5q0 -87 -52 -328q-51 -236 -51 -287q0 -49 33 -49q21 0 59 27q36 26 56 26zM604 -96q33 -44 33 -92q0 -82 -139 -215q-105 -91 -152 -91q-17 0 -28 11t-11 28q0 12 9.5 20t32.5 20.5t40 25.5q64 52 64 96
q0 26 -31 68q-43 58 -43 82q0 29 49 75q51 45 82 45q42 0 94 -73z" />
    <glyph glyph-name="f_f_j" unicode="ffj" horiz-adv-x="2201" 
d="M2017 1081q37 11 49 11q56 0 56 -52q0 -12 -2 -18l-47 -252l-41 -235l-17 -91l-16 -92l-17 -82q-15 -73 -20 -88q-36 -124 -49 -155q-33 -85 -68 -138q-88 -141 -214.5 -208.5t-268.5 -67.5q-254 0 -254 186q0 103 76 103q21 0 57.5 -30.5t82 -61.5t87.5 -31
q93 -12 164 137q20 47 35 104q7 27 26 113l29 137q102 504 102 549q0 39 -24.5 50.5t-91.5 11.5h-283q-24 0 -27 -19q-12 -78 -34 -264q-37 -298 -90 -463q-53 -161 -170 -278q-79 -79 -188.5 -124.5t-215.5 -45.5q-166 0 -166 73q0 9 2 17l17 76q6 34 32 34q10 0 54 -20
q51 -23 94 -23q37 0 84 21q99 48 137 184q37 126 82 498q23 200 45 305q2 6 2 16q0 13 -20 13h-365q-24 0 -27 -19l-26 -194q-54 -386 -109 -576q-53 -181 -186 -317q-77 -79 -186.5 -124.5t-215.5 -45.5q-172 0 -172 73q0 3 1 7t2 9.5t2 10.5l14 66q9 34 33 34q2 0 24 -9.5
t56 -19t67 -9.5q147 0 215 157q59 133 111 555l12 101q9 77 41 268q2 10 2 18q0 15 -18 15h-117q-29 0 -29 24q0 9 2 15l17 84q6 30 36 30h138q21 0 24 17q49 144 103 221q181 258 444 258q252 0 252 -201q0 -131 -82 -131q-22 -2 -53 24.5t-58 59.5t-63 59.5t-66 24.5
q-130 0 -182 -303q-2 -8 -2 -16q0 -13 14 -13h394q19 0 26 17q76 229 262 354t379 125q121 0 197 -51t76 -156q0 -123 -97 -123q-21 -2 -47.5 14.5t-53.5 42t-55.5 51t-62 43t-65.5 15.5q-99 0 -158 -90q-56 -85 -78 -213q-2 -8 -2 -16q0 -13 12 -13q188 0 314 4
q214 9 317 43z" />
    <glyph glyph-name="f_j" unicode="fj" horiz-adv-x="1443" 
d="M1260 1081q37 11 49 11q55 0 55 -52q0 -12 -2 -18l-47 -252l-41 -235l-17 -91l-16 -92l-16 -82q-13 -65 -21 -88q-35 -124 -49 -155q-33 -85 -68 -138q-88 -141 -214.5 -208.5t-268.5 -67.5q-254 0 -254 186q0 103 76 103q21 0 57.5 -30.5t82 -61.5t87.5 -31
q93 -12 164 137q20 47 35 104t27 113l28 137q103 509 103 549q0 39 -25 50.5t-92 11.5h-283q-23 0 -26 -19q-16 -108 -35 -264q-37 -298 -90 -463q-53 -161 -170 -278q-79 -79 -188.5 -124.5t-215.5 -45.5q-166 0 -166 73q0 9 2 17l17 76q6 34 33 34q11 0 55 -20
q51 -23 92 -23q38 0 84 21q99 48 137 184q37 126 82 498q23 200 45 305q2 6 2 16q0 13 -20 13h-115q-31 0 -31 24q0 13 2 19l15 77q6 31 41 31h135q20 0 27 17q76 229 262 354q189 127 379 127q121 0 196.5 -51t75.5 -156q0 -123 -96 -123q-21 -2 -48 14.5t-53.5 42t-55 51
t-62.5 43t-66 15.5q-99 0 -158 -92q-56 -85 -78 -213q-2 -8 -2 -17q0 -12 13 -12q187 0 313 4q212 9 318 45z" />
    <glyph glyph-name="ff" unicode="ff" horiz-adv-x="1728" 
d="M1858 1516q157 -44 157 -193q0 -125 -94 -125q-20 -2 -46.5 15.5t-54.5 43t-58 51t-65 43t-67 15.5q-169 0 -233 -309q-2 -6 -2 -13q0 -10 14 -10q69 0 123 4q114 13 131 13q59 0 59 -33q0 -13 -22 -68q-20 -46 -39 -62t-64 -16q-1 0 -14 1t-41.5 2.5t-60.5 3.5
q-23 2 -95 2q-21 0 -24 -17q-13 -57 -29 -194q-46 -381 -102 -570q-52 -186 -191 -325q-77 -78 -187 -124t-214 -46q-35 0 -94 10q-34 6 -55 22.5t-21 38.5q0 13 2 19l16 78q9 34 33 34q2 0 26 -10t59.5 -20t64.5 -10q92 0 137 53q33 35 52 66t36 89l31 111q10 39 26 143
l25 164q2 14 11.5 81t15.5 116q15 138 36 246q2 8 3.5 16.5t2.5 12.5t1 5q0 11 -21 11h-385q-24 0 -27 -19l-26 -194q-54 -386 -109 -576q-53 -181 -186 -317q-77 -79 -186.5 -124.5t-215.5 -45.5q-172 0 -172 73q0 3 1 7t2 9.5t2 10.5l14 66q9 34 33 34q2 0 24 -9.5t56 -19
t67 -9.5q147 0 215 157q59 133 111 555l12 101q9 77 41 268q2 10 2 18q0 15 -18 15h-117q-29 0 -29 24q0 9 2 15l17 84q6 30 36 30h138q21 0 24 17q49 144 103 221q181 258 444 258q252 0 252 -201q0 -131 -82 -131q-22 -2 -53 24.5t-58 59.5t-63 59.5t-66 24.5
q-130 0 -182 -303q-2 -8 -2 -16q0 -13 14 -13h414q20 0 27 17q60 163 178 278q206 201 467 201q58 0 113 -14z" />
    <glyph glyph-name="fi" unicode="fi" horiz-adv-x="1415" 
d="M1298 231q37 0 37 -41q0 -56 -108 -135q-110 -78 -221 -78q-82 0 -129.5 46t-47.5 137q0 58 60 338q61 271 61 315q0 42 -28 55t-99 13h-186q-22 0 -25 -17q-11 -48 -28 -194q-46 -376 -103 -570q-53 -188 -190 -325q-77 -78 -187 -124t-215 -46q-38 0 -92 10
q-36 6 -57 22t-21 39q0 13 2 19l17 78q9 34 33 34q2 0 26 -10t59 -20t64 -10q92 0 137 53q33 35 52 66t36 89l31 111q12 51 27 143l24 164q2 14 11.5 81t15.5 116q14 126 37 246q6 30 6 34q0 11 -21 11h-114q-29 0 -29 24q0 9 2 15l17 84q6 30 36 30h136q19 0 26 17
q60 163 178 278q206 201 467 201q122 0 196.5 -52.5t74.5 -154.5q0 -125 -95 -125q-24 -2 -60 24.5t-69 59.5t-77.5 59.5t-83.5 24.5q-170 0 -234 -309q-2 -6 -2 -13q0 -10 14 -10h74q181 0 334 21q40 5 107 21t77 16q54 0 54 -54q0 -12 -78 -391t-78 -416q0 -51 37 -51
q21 0 57 25q36 26 55 26z" />
    <glyph glyph-name="fl" unicode="fl" horiz-adv-x="1419" 
d="M1389 1442l-209 -1030q-31 -158 -31 -181q0 -51 39 -51q22 0 57 27q33 26 51 26q14 0 25.5 -13t11.5 -30q0 -44 -73 -108q-117 -105 -254 -105q-82 0 -130.5 45.5t-48.5 133.5q0 22 11 86l186 905q16 91 16 106q0 46 -49.5 79.5t-107.5 33.5q-176 0 -234 -303
q-2 -6 -2 -14q0 -15 19 -15q62 0 127 6q6 0 46 5.5t54 5.5q53 0 53 -35q0 -14 -20 -64q-18 -45 -41.5 -62.5t-71.5 -17.5q-9 0 -74.5 4.5t-101.5 4.5q-22 0 -25 -17l-28 -192q-51 -379 -107 -574q-53 -181 -186 -317q-77 -78 -187.5 -124t-216.5 -46q-168 0 -168 74
q0 10 2 16l17 76q9 35 33 35q2 0 51 -19q44 -20 96 -20q41 0 84 16q102 47 148 207q44 151 104 594q17 138 41 262q2 8 2 16q0 13 -18 13h-115q-31 0 -31 26q0 9 2 15l17 82q6 30 38 30h136q17 0 24 17q82 219 254 350q172 129 387 129q65 0 127 -21q62 -18 70 -18
q24 0 74 18q50 21 75 21q56 0 56 -53q0 -7 -4 -35z" />
    <glyph glyph-name="ffi" unicode="ffi" horiz-adv-x="2131" 
d="M2015 231q37 0 37 -41q0 -56 -108 -135q-110 -78 -222 -78q-82 0 -129 46t-47 137q0 58 60 338q61 271 61 315q0 42 -28 55t-99 13h-186q-22 0 -25 -17q-13 -57 -29 -194q-46 -381 -102 -570q-53 -188 -190 -325q-77 -78 -187 -124t-215 -46q-35 0 -94 10q-34 6 -55 22.5
t-21 38.5q0 13 2 19l17 78q9 34 32 34q2 0 26 -10t59.5 -20t64.5 -10q92 0 137 53q33 35 52 66t36 89l31 111q12 51 27 143l24 164q2 14 11.5 81t15.5 116q14 126 37 246q6 30 6 34q0 11 -21 11h-352q-24 0 -27 -19l-26 -194q-54 -386 -109 -576q-53 -181 -186 -317
q-77 -79 -186.5 -124.5t-215.5 -45.5q-172 0 -172 73q0 3 1 7t2 9.5t2 10.5l14 66q9 34 33 34q2 0 24 -9.5t56 -19t67 -9.5q147 0 215 157q59 133 111 555l12 101q9 77 41 268q2 10 2 18q0 15 -18 15h-117q-29 0 -29 24q0 9 2 15l17 84q6 30 36 30h138q21 0 24 17
q49 144 103 221q181 258 444 258q252 0 252 -201q0 -131 -82 -131q-22 -2 -53 24.5t-58 59.5t-63 59.5t-66 24.5q-130 0 -182 -303q-2 -8 -2 -16q0 -13 14 -13h381q20 0 27 17q60 163 178 278q206 201 467 201q122 0 196 -52.5t74 -154.5q0 -125 -94 -125q-20 -2 -46.5 15.5
t-54.5 43t-58 51t-65 43t-67 15.5q-169 0 -233 -309q-2 -6 -2 -13q0 -10 14 -10h74q181 0 334 21q40 5 107 21t77 16q53 0 53 -54q0 -17 -77 -391q-78 -379 -78 -416q0 -51 37 -51q21 0 57 25q36 26 55 26z" />
    <glyph glyph-name="ffl" unicode="ffl" horiz-adv-x="2086" 
d="M2105 1442l-209 -1030q-30 -153 -30 -181q0 -51 39 -51q23 0 57 27q33 26 51 26q14 0 25.5 -13t11.5 -30q0 -43 -74 -108q-117 -105 -254 -105q-82 0 -130 45.5t-48 133.5q0 28 10 86l187 905q16 91 16 106q0 46 -50 79.5t-108 33.5q-175 0 -233 -303q-2 -6 -2 -14
q0 -15 18 -15q62 0 127 6q6 0 46.5 5.5t54.5 5.5q53 0 53 -35q0 -12 -21 -64q-18 -45 -41 -62.5t-71 -17.5q-9 0 -74.5 4.5t-101.5 4.5q-22 0 -25 -17l-29 -192q-52 -386 -106 -574q-53 -181 -186 -317q-77 -78 -187.5 -124t-216.5 -46q-168 0 -168 74q0 10 2 16l17 76
q9 35 32 35q3 0 52 -19q44 -20 96 -20q41 0 84 16q101 46 147 207q46 158 105 594q17 138 41 262q2 8 2 16q0 13 -19 13h-354q-24 0 -27 -19l-26 -194q-54 -386 -109 -576q-53 -181 -186 -317q-77 -79 -186.5 -124.5t-215.5 -45.5q-172 0 -172 73q0 3 1 7t2 9.5t2 10.5
l14 66q9 34 33 34q2 0 24 -9.5t56 -19t67 -9.5q147 0 215 157q59 133 111 555l12 101q9 77 41 268q2 10 2 18q0 15 -18 15h-117q-29 0 -29 24q0 9 2 15l17 84q6 30 36 30h138q21 0 24 17q49 144 103 221q181 258 444 258q252 0 252 -201q0 -131 -82 -131q-22 -2 -53 24.5
t-58 59.5t-63 59.5t-66 24.5q-130 0 -182 -303q-2 -8 -2 -16q0 -13 14 -13h383q18 0 25 17q82 219 254 350q173 129 387 129q66 0 127 -21q65 -18 70 -18q23 0 73 18q50 21 76 21q55 0 55 -53q0 -7 -4 -35z" />
    <glyph glyph-name="longs_i" unicode="&#x17f;i" horiz-adv-x="1476" 
d="M1108 1516q158 -44 158 -193q0 -125 -95 -125q-24 -2 -60 24.5t-69 59.5t-77.5 59.5t-83.5 24.5q-78 0 -127 -68q-23 -32 -32 -46.5t-23.5 -45.5t-26.5 -71l-27 -103l-24 -121l-19 -116l-16 -121l-17 -113q-8 -75 -16 -123q-1 -13 -16 -108q-14 -84 -52 -217
q-32 -112 -82 -195q-93 -155 -229 -234t-285 -79q-38 0 -92 10q-36 6 -57 22t-21 39q0 13 2 19l17 78q9 34 33 34q2 0 26 -10t59 -20t64 -10q92 0 137 53q33 35 52 66t36 89l31 111q12 51 27 143l24 164q2 14 11.5 81t15.5 116q14 126 37 246q6 30 6 34q0 11 -21 11h-116
q-27 0 -27 22q0 11 2 17l17 84q6 30 38 30h134q19 0 26 17q60 163 178 278q206 201 467 201q58 0 113 -14zM1360 231q37 0 37 -41q0 -55 -109 -135q-110 -78 -221 -78q-82 0 -129 46t-47 137q0 63 59 338q62 275 62 315q0 31 -23 49t-50 23.5t-50 20.5t-23 42q0 52 97 64
q151 21 299 67q41 13 51 13q53 0 53 -54q0 -12 -78 -391t-78 -416q0 -51 37 -51q22 0 58 25q36 26 55 26z" />
    <glyph glyph-name="T_h" unicode="Th" horiz-adv-x="2408" 
d="M2290 231q17 0 28 -12t11 -29q0 -53 -109 -133t-221 -80q-81 0 -128.5 47.5t-47.5 141.5q0 72 49 287t49 282q0 107 -80 107q-59 0 -129 -72t-131 -192q-100 -201 -164 -535q-9 -37 -51 -43l-190 -20q-21 -3 -29 -3q-39 0 -39 33q0 1 4 29l229 1126q7 28 7 47
q0 44 -36.5 63t-123.5 19h-189q-25 0 -39.5 -8.5t-19 -19t-8.5 -29.5l-166 -821q-27 -138 -27 -189q0 -42 18.5 -70t40 -38.5t40 -26.5t18.5 -37q0 -55 -92 -55h-500q-61 0 -61 49q-3 18 13 33.5t39.5 27t53 35t47.5 52.5q32 53 66 219l166 821q1 5 2 11.5t1.5 10t0.5 5.5
q0 30 -49 30q-138 0 -236 -110q-20 -23 -51 -74q-32 -50 -55 -70q-23 -23 -53.5 -23.5t-52 18.5t-21.5 48q0 30 37 170q19 103 34 152q12 42 36 57t79 15q36 0 174 -9q141 -6 230 -6h403q267 0 332 8q95 11 207 50q34 12 51 12q53 0 53 -53q0 -11 -2 -17l-127 -624l-2 -13
q0 -8 6 -8q5 0 8 6q174 269 400 269q118 0 185 -64.5t67 -185.5q0 -87 -52 -328q-51 -236 -51 -287q0 -49 33 -49q21 0 59 27q36 26 56 26z" />
    <glyph glyph-name="T_T" unicode="TT" horiz-adv-x="2211" 
d="M2263 1477q23 0 35 -1t25.5 -6t19.5 -17t6 -32q0 -24 -10 -82q-13 -77 -23 -125q-12 -57 -20 -114q-9 -80 -84 -80q-33 0 -51 18q-21 24 -37 72q-15 45 -29 72q-57 112 -188 112q-21 0 -34 -4t-20 -13.5t-10 -17.5t-6 -22l-166 -821q-26 -121 -26 -187q0 -39 18 -68
t40 -42t40 -29.5t18 -32.5q0 -57 -92 -57h-495q-66 0 -66 49q0 36 61 70q65 37 86 69q36 52 72 228l164 811q6 27 6 35q0 32 -49 32h-447q-20 0 -33.5 -4t-20.5 -13.5t-9.5 -17t-5.5 -22.5l-166 -821q-27 -126 -27 -187q0 -39 18.5 -68t40 -42t40 -29.5t18.5 -32.5
q0 -57 -92 -57h-496q-65 0 -65 49q0 36 61 70q65 37 86 69q36 52 72 228l164 811q6 27 6 35q0 32 -49 32q-140 0 -240 -118q-6 -7 -14 -17.5t-19 -26.5t-20 -28q-34 -48 -55 -67t-48 -19q-32 0 -52.5 16.5t-20.5 46.5q0 20 6 41q2 8 7.5 31.5t12.5 53t13 61.5q27 123 32 137
q12 42 36 57t79 15q36 0 174 -9q141 -6 230 -6h1189q93 0 234 6q144 9 176 9z" />
    <glyph glyph-name="t_t.smcp" unicode="&#xe061;&#xe061;" horiz-adv-x="1949" 
d="M623 1047h903q136 0 256 8t153 8q95 0 95 -72q0 -17 -7 -49l-36 -213q-12 -78 -93 -78q-39 0 -61 31q-8 13 -34.5 78.5t-49.5 85.5q-47 47 -113 47q-28 0 -34 -27l-93 -456q-24 -114 -24 -179q0 -35 10.5 -60.5t25 -38.5t29 -23.5t25 -23t10.5 -28.5q0 -57 -82 -57h-448
q-70 0 -70 49q0 18 17 34t39.5 28.5t50.5 36t45 51.5q34 55 61 196l92 461q2 8 2 16q0 23 -24 23l-422 -2q-29 0 -35 -27l-92 -456q-25 -119 -25 -179q0 -43 16 -72t34.5 -40t34.5 -26.5t16 -35.5q0 -57 -82 -57h-449q-69 0 -69 49q0 18 17 34t39 28.5t50 36t45 51.5
q35 57 62 196l92 461q2 8 2 16q0 23 -25 23q-68 0 -116.5 -25.5t-74 -61.5t-44.5 -72t-43 -61.5t-56 -25.5q-88 0 -88 78q0 3 2 16.5t6.5 45.5t8.5 63l24 141q18 68 113 68q33 0 153 -8q135 -6 261 -6z" />
    <glyph glyph-name=".notdef" horiz-adv-x="1363" 
d="M479 168h406l-203 311zM479 1098l203 -312l203 312h-406zM1153 1266v-1266h-942v1266h942zM985 944l-203 -311l203 -309v620zM379 322l203 311l-203 311v-622z" />
    <glyph glyph-name=".null" horiz-adv-x="0" 
 />
    <glyph glyph-name="nonmarkingreturn" horiz-adv-x="682" 
 />
    <glyph glyph-name="space" unicode=" " horiz-adv-x="436" 
 />
    <glyph glyph-name="exclam" unicode="!" horiz-adv-x="706" 
d="M555 666q-3 -6 -14.5 -45t-16.5 -52q-12 -36 -39 -64.5t-65 -23.5q-48 0 -69 24t-21 79q0 30 6 118q3 49 8 168v105l4 137q6 112 33 208.5t82 125.5q59 41 147 41q170 0 170 -146q0 -65 -30 -151q-22 -70 -91 -238q-60 -146 -104 -286zM549 178q0 -49 -90 -127
q-89 -74 -140 -74q-47 0 -116 78q-68 80 -68 133q0 47 90 125t142 78q46 0 114 -80t68 -133z" />
    <glyph glyph-name="quotedbl" unicode="&#x22;" horiz-adv-x="782" 
d="M733 1487q47 0 78 -17q37 -21 37 -73q0 -71 -47 -201q-48 -133 -80 -190q-51 -97 -105 -97q-41 0 -56 49.5t-15 151.5q0 89 14 184q15 103 45 144q40 49 129 49zM358 1487q47 0 78 -17q37 -21 37 -73q0 -71 -47 -201q-48 -133 -80 -190q-51 -97 -104 -97q-42 0 -57 50
t-15 151q0 89 14 184q15 103 45 144q40 49 129 49z" />
    <glyph glyph-name="numbersign" unicode="#" horiz-adv-x="1366" 
d="M1280 1149l-55 -172h-213l-74 -229h211l-55 -173h-211l-125 -378h-193l123 378h-199l-122 -378h-193l123 378h-211l55 173h211l74 229h-209l55 172h211l109 338h194l-110 -338h198l111 338h193l-111 -338h213zM545 748h198l76 229h-198z" />
    <glyph glyph-name="dollar" unicode="$" horiz-adv-x="1173" 
d="M817 1634l-31 -147q113 -6 203 -49q58 -25 83.5 -57.5t25.5 -82.5q0 -76 -25 -149q-21 -55 -67 -55q-31 0 -45 14q-8 6 -18 21.5t-16.5 29.5t-14.5 31.5t-9 19.5q-80 127 -217 127q-81 0 -137.5 -45t-56.5 -116q0 -107 182 -185q39 -15 67 -27t65.5 -32t64.5 -39.5
t55.5 -47.5t46 -58t28.5 -69t11 -83q0 -177 -154 -301q-150 -123 -350 -141l-33 -164q-6 -29 -35 -29h-80q-26 0 -26 25q0 8 2 14l31 149q-119 3 -217 45q-130 59 -130 175q0 14 4.5 60.5t4.5 57.5q3 107 75 107q29 0 46 -17q15 -15 36 -59l31 -61q94 -150 272 -150
q104 0 173 54t69 132q0 105 -182 183q-42 18 -65 28.5t-64 32.5t-64.5 39.5t-54 46.5t-46.5 58t-28 69t-12 84q0 157 131 270q134 115 297 136l35 163q6 29 33 29h82q26 0 26 -22q0 -9 -2 -15z" />
    <glyph glyph-name="percent" unicode="%" horiz-adv-x="1738" 
d="M432 829q45 0 81.5 46t56.5 113t30 129.5t10 107.5q0 133 -71 133q-45 0 -81 -45t-55.5 -110.5t-30 -126.5t-10.5 -105q0 -142 70 -142zM858 1190q0 -191 -131 -340q-132 -150 -321 -150q-138 0 -214.5 80.5t-76.5 214.5q0 201 139 346q140 146 311 146q135 0 214 -81
t79 -216zM1274 106q45 0 81.5 46t56.5 113t30 129.5t10 107.5q0 133 -72 133q-45 0 -81 -45t-55.5 -110.5t-29.5 -126.5t-10 -105q0 -142 70 -142zM1700 467q0 -191 -131 -340q-132 -150 -322 -150q-138 0 -214.5 80.5t-76.5 214.5q0 200 140 346t311 146q135 0 214 -81
t79 -216zM295 0l1046 1462h181l-1049 -1462h-178z" />
    <glyph glyph-name="ampersand" unicode="&#x26;" horiz-adv-x="1669" 
d="M1313 244q53 -86 53 -205q0 -172 -123 -295t-303 -123q-116 0 -192 57t-76 140q0 56 40 97.5t95 41.5q42 0 73 -24.5t31 -51.5q0 -7 -5 -21.5t-5 -21.5q0 -22 24.5 -41.5t59.5 -19.5q58 0 103 48.5t45 121.5q0 66 -41 137q-210 -107 -445 -107q-265 0 -418 117t-153 279
q0 125 82 218t213 126q-33 67 -33 151q3 179 133 291q132 117 303 117q141 0 236 -74q94 -73 94 -176q0 -69 -44.5 -115.5t-111.5 -46.5q-52 0 -92.5 28t-40.5 60q0 7 16.5 34.5t16.5 45.5q0 37 -29.5 64.5t-73.5 27.5q-67 0 -111 -48t-44 -118q0 -77 54 -139.5t173 -142.5
l51 -35l58 -37q10 -6 53 -37q54 -35 115 -84q49 -37 106 -94q55 76 55 152q0 58 -32 90q-30 30 -68 33l-18 2q-41 9 -41 67q0 60 52 99.5t120 39.5q97 0 156 -74.5t59 -183.5q0 -197 -170 -370zM377 442q0 -117 106 -204q109 -86 275 -86q124 0 223 45q-69 55 -188 131
q-124 79 -201 137.5t-141 130.5q-74 -47 -74 -154z" />
    <glyph glyph-name="quotesingle" unicode="'" horiz-adv-x="407" 
d="M358 1487q47 0 78 -17q37 -21 37 -73q0 -71 -47 -201q-48 -133 -80 -190q-51 -97 -104 -97q-42 0 -57 50t-15 151q0 89 14 184q15 103 45 144q40 49 129 49z" />
    <glyph glyph-name="parenleft" unicode="(" horiz-adv-x="901" 
d="M651 1397q195 133 353 133q79 0 79 -49q0 -27 -27.5 -48.5t-82.5 -43.5q-52 -22 -131.5 -97t-149.5 -178q-101 -145 -166 -356q-63 -204 -63 -406q0 -171 52 -300.5t169 -254.5q23 -23 33.5 -42.5t10 -33t-8.5 -23t-19.5 -13.5t-25.5 -4q-65 0 -156.5 62.5t-173.5 174.5
q-182 250 -182 567q0 267 129 510q131 248 360 402z" />
    <glyph glyph-name="parenright" unicode=")" horiz-adv-x="907" 
d="M287 -186q-195 -133 -353 -133q-79 0 -79 49q0 27 27.5 48.5t82.5 43.5q52 22 131.5 96.5t149.5 177.5q97 139 164 357q65 210 65 405q0 171 -52 300.5t-169 254.5q-37 37 -41.5 65t11.5 40t40 12q65 0 156 -63t174 -175q182 -250 182 -567q0 -269 -129 -512t-360 -399z
" />
    <glyph glyph-name="asterisk" unicode="*" horiz-adv-x="843" 
d="M698 1364q48 0 72 -55q27 -55 27 -105q0 -35 -23.5 -55.5t-64.5 -20.5q-21 0 -78 13q-52 12 -86 12q-13 0 -41.5 -4t-34.5 -4q2 -2 24 -23.5t31 -27.5q23 -20 76 -41q55 -22 64 -31q49 -30 49 -78q0 -35 -47 -76q-55 -49 -103 -49q-55 0 -76 74q-6 14 -12 72
q-6 61 -14 84q-3 9 -16.5 35.5t-14.5 31.5q-1 -5 -14.5 -31.5t-16.5 -35.5q-5 -14 -16 -84q-5 -44 -10 -70q-21 -74 -74 -74q-38 0 -90 37q-60 42 -61.5 88t49.5 76l61 31q53 24 78 43q16 10 55 49q-4 0 -33 4t-49 4q-31 0 -84 -12q-64 -11 -73 -11q-86 0 -86 76
q0 54 26 105q27 55 70 55q27 0 67 -29q11 -6 52 -51q47 -47 61 -57q10 -9 34.5 -22t31.5 -15q-14 68 -15 72q-11 37 -45 90q-35 59 -35 98q0 78 119 78t119 -78q0 -37 -37 -98q-32 -57 -43 -90q-5 -13 -9 -41t-5 -33q4 4 30.5 18.5t32.5 18.5q21 15 60 57q45 48 53 53
q35 27 65 27z" />
    <glyph glyph-name="plus" unicode="+" horiz-adv-x="1413" 
d="M1241 778v-92q0 -31 -31 -31h-407q-11 0 -13 -2t-2 -14v-412q0 -28 -30 -28h-103q-30 0 -30 28v412q0 16 -15 16h-407q-31 0 -31 31v92q0 31 31 31h407q15 0 15 16v412q0 31 30 31h103q30 0 30 -31v-412q0 -11 2.5 -13.5t12.5 -2.5h407q31 0 31 -31z" />
    <glyph glyph-name="comma" unicode="," horiz-adv-x="653" 
d="M313 391q45 0 119 -86q76 -82 76 -176q0 -122 -176 -295q-72 -69 -158 -127q-80 -57 -125 -57q-25 0 -42 17.5t-17 43.5q-4 19 13 32t53.5 31.5t58.5 37.5q102 82 102 153q0 51 -49 109q-68 86 -68 129q0 48 80 119q81 69 133 69z" />
    <glyph glyph-name="hyphen" unicode="-" horiz-adv-x="778" 
d="M82 485l31 156q6 31 37 31h487q29 0 29 -23q0 -10 -2 -18l-33 -156q-6 -31 -35 -31h-487q-29 0 -29 25q0 10 2 16z" />
    <glyph glyph-name="period" unicode="." horiz-adv-x="585" 
d="M438 178q0 -49 -90 -127q-89 -74 -139 -74q-48 0 -117 78q-67 79 -67 133q0 47 90 125t141 78q47 0 115 -80q67 -79 67 -133z" />
    <glyph glyph-name="slash" unicode="/" horiz-adv-x="1124" 
d="M1157 1530h119q18 0 18 -12q0 -3 -4 -11l-1202 -1681q-16 -23 -45 -23h-123q-16 0 -16 13q0 2 4 10l1204 1681q16 23 45 23z" />
    <glyph glyph-name="zero" unicode="0" horiz-adv-x="1404" 
d="M614 150q105 0 187 98q83 103 123 244q84 287 84 501q0 155 -45.5 239.5t-131.5 84.5q-81 0 -152 -65.5t-116 -170.5q-43 -107 -71 -221q-52 -211 -52 -381q0 -155 45 -242t129 -87zM1374 967q0 -244 -102 -469q-104 -228 -291 -373q-192 -148 -422 -148
q-236 0 -360.5 141.5t-124.5 381.5q0 249 110 475q111 227 301 368q193 144 410 144q230 0 354.5 -138t124.5 -382z" />
    <glyph glyph-name="one" unicode="1" horiz-adv-x="798" 
d="M750 1397l-273 -1348q-9 -49 -63 -49h-224q-49 0 -49 45q0 1 4 29l203 999q19 100 19 121q0 29 -14.5 40t-51.5 11q-31 0 -84 -6q-70 -4 -74 -4q-49 0 -49 47q0 84 41 102q21 9 64 15q207 28 231 33q50 9 111 24t98.5 24t50.5 9q64 0 64 -62q0 -2 -0.5 -5.5t-1.5 -11
t-2 -13.5z" />
    <glyph glyph-name="two" unicode="2" horiz-adv-x="1234" 
d="M1028 377q55 0 55 -53q3 -10 -6 -35.5t-24 -60.5t-19 -48q-2 -12 -18 -51q-10 -30 -33 -78q-6 -11 -11.5 -17.5t-10 -9.5t-13.5 -7.5t-16 -8.5q-25 -14 -101 -14q-5 0 -141 4q-68 2 -164 2h-450q-55 0 -77 23.5t-22 76.5q0 57 37 162q26 70 89 150.5t151 150.5
q77 61 209 142q132 79 211 145q170 138 170 283q0 76 -47 130t-123 54q-65 0 -125.5 -42.5t-99.5 -103.5q-93 -143 -154 -143q-72 0 -72 98q0 162 90 240q139 121 392 121q229 0 366 -119q139 -118 139 -285q0 -108 -65 -207t-187 -167q-112 -63 -288 -131
q-160 -63 -279 -127q-53 -29 -102 -78q-51 -48 -51 -82q0 -25 34 -25h363q169 0 231 19q45 15 88 53q45 39 74 39z" />
    <glyph glyph-name="three" unicode="3" horiz-adv-x="1183" 
d="M756 748q137 -35 209.5 -118t72.5 -194q0 -186 -186 -323q-188 -138 -440 -138q-255 0 -369 117q-68 71 -68 178q0 55 23 90t68 35q38 0 61 -26q13 -14 16 -21q15 -15 45 -63q109 -160 242 -160q117 0 184 104q68 109 68 236q0 93 -44 151t-142 58q-20 0 -67.5 -3
t-53.5 -3q-66 0 -66 49q0 8 5 29t5 24q15 86 82 86q5 0 52.5 -5t72.5 -5q80 0 136.5 32t80.5 87q43 94 43 184q0 87 -39.5 140.5t-121.5 53.5q-70 0 -126.5 -43t-117.5 -129q-44 -70 -64 -96q-34 -39 -71 -39q-80 0 -80 94q0 158 113 246q138 111 378 111q213 0 344 -98
q136 -95 136 -256q0 -127 -98.5 -225t-288.5 -138q-13 -2 -11 -11q2 -7 17 -11z" />
    <glyph glyph-name="four" unicode="4" horiz-adv-x="1296" 
d="M995 610h176q37 0 37 -28q0 -9 -2 -17l-30 -153q-9 -39 -52 -39h-180q-27 0 -33 -29q-12 -64 -12 -115q0 -45 18.5 -73t40 -37.5t40 -25t18.5 -38.5q0 -55 -94 -55h-476q-63 0 -63 51q0 43 84 78q38 15 72 70t47 137q2 6 2 16q0 21 -25 21h-520q-39 0 -39 28q0 9 2 15
l27 129q9 43 45 88q376 450 463 825q6 29 43 29h192q29 0 29 -25q0 -8 -2 -14q-46 -190 -189 -404q-144 -216 -331 -409q-13 -13 -13 -17q0 -8 11 -8h327q35 0 41 31l103 512q6 35 45 35h243q33 0 33 -29q0 -8 -2 -16l-100 -494q-2 -8 -2 -16q0 -23 26 -23z" />
    <glyph glyph-name="five" unicode="5" horiz-adv-x="1150" 
d="M424 1001q287 -6 447.5 -130.5t160.5 -331.5q0 -222 -172 -394q-173 -170 -446 -170q-271 0 -371 146q-39 56 -39 143q0 146 96 146q36 0 68 -37q7 -8 31.5 -43t31.5 -43q114 -150 271 -150q116 0 198 76q86 77 86 193q0 95 -63 162t-174 98q-184 52 -391 55
q-27 0 -27 16q0 1 4 17l268 678q9 30 50 30h368q104 0 135 8q59 12 105 52q47 41 74 41q19 0 32 -12.5t13 -32.5q0 -9 -8 -31.5t-19 -51t-14 -38.5l-43 -125q-16 -51 -49 -74q-35 -24 -154 -24h-408q-17 0 -26 -19l-51 -129q-2 -4 -2 -10q0 -15 18 -15z" />
    <glyph glyph-name="six" unicode="6" horiz-adv-x="1288" 
d="M694 797q-88 0 -153 -80q-115 -142 -115 -367q0 -104 41 -160.5t113 -56.5q81 0 147 78q60 75 90.5 172t30.5 195q0 100 -41 159.5t-113 59.5zM1239 1294q0 -139 -92 -139q-53 0 -115 68q-25 32 -49 49q-20 20 -57 35.5t-76 15.5q-124 0 -215.5 -127t-142.5 -348
q-3 -9 -3 -14q0 -7 7 -7q1 0 12 11q123 172 334 172q162 0 266 -113q104 -110 104 -283q0 -252 -180 -444q-181 -193 -442 -193q-219 0 -359 146q-135 147 -135 405q0 160 56 328.5t155 308.5q103 145 257 232.5t323 87.5q107 0 194.5 -27t126.5 -69q31 -31 31 -95z" />
    <glyph glyph-name="seven" unicode="7" horiz-adv-x="1052" 
d="M1184 1413q-18 -175 -142 -366q-35 -56 -77 -103l-80 -88l-92 -92l-86 -88q-316 -322 -316 -477q0 -53 43 -90q45 -33 45 -60q0 -49 -71 -49h-308q-67 0 -67 63q0 91 69 212.5t179 238.5q66 73 237 215q166 139 234 207q119 119 149 190q6 15 6 25q0 18 -26 18h-359
q-165 0 -198 -8q-60 -15 -103 -53q-43 -37 -65 -37q-19 0 -34.5 14.5t-15.5 34.5q0 8 5 25t18.5 55t20.5 60l12 40l24 70q18 48 47 66q39 26 160 26h760q33 0 33 -26q0 -13 -2 -23z" />
    <glyph glyph-name="eight" unicode="8" horiz-adv-x="1361" 
d="M741 874q96 0 170 95t74 215q0 77 -38.5 118t-106.5 41q-111 0 -181 -98q-71 -100 -71 -209q0 -70 41.5 -116t111.5 -46zM371 322q0 -91 54 -145t146 -54q133 0 232 108q98 110 98 248q0 89 -58.5 145t-137.5 56q-125 0 -230 -111q-104 -107 -104 -247zM1313 1188
q0 -145 -115 -240t-258 -119q-22 -3 -22 -18q0 -11 14 -14q145 -36 222 -120.5t77 -195.5q0 -194 -193 -350q-195 -154 -501 -154q-225 0 -359 93q-133 95 -133 243q0 168 125 275q123 109 315 147q21 3 21 17q0 7 -17 14q-229 76 -229 258q0 187 174 324q177 139 434 139
q197 0 322 -84q123 -83 123 -215z" />
    <glyph glyph-name="nine" unicode="9" horiz-adv-x="1275" 
d="M623 666q123 0 194 139q74 142 74 307q0 104 -41 160.5t-115 56.5q-83 0 -149 -84q-59 -77 -88 -173.5t-29 -188.5q0 -99 41.5 -158t112.5 -59zM53 256q0 129 92 129q30 0 52 -25l18 -22q14 -14 45 -66q88 -131 199 -131q137 0 223 119.5t143 357.5q2 6 2 13q0 6 -6 6
q-5 0 -8 -6q-55 -81 -146.5 -128.5t-191.5 -47.5q-156 0 -264 108q-107 107 -107 287q0 256 181 446q182 191 442 191q223 0 358 -150q136 -151 136 -403q0 -181 -65.5 -359.5t-182.5 -320.5q-229 -274 -541 -274q-218 0 -309 94q-70 70 -70 182z" />
    <glyph glyph-name="colon" unicode=":" horiz-adv-x="759" 
d="M637 856q0 -49 -90 -127q-89 -74 -139 -74q-48 0 -117 78q-68 80 -68 133q0 47 90 125t142 78q46 0 114 -80t68 -133zM500 178q0 -49 -90 -127q-89 -74 -140 -74q-47 0 -116 78q-68 80 -68 133q0 47 90 125t141 78q47 0 115 -80t68 -133z" />
    <glyph glyph-name="semicolon" unicode=";" horiz-adv-x="782" 
d="M449 655q-46 0 -115 78q-68 80 -68 133q0 51 88 127t144 76q49 0 114 -80q68 -77 68 -131q0 -51 -90 -129q-89 -74 -141 -74zM344 391q45 0 119 -86q76 -82 76 -176q0 -121 -177 -295q-75 -72 -157 -127q-80 -57 -125 -57q-25 0 -42.5 17.5t-17.5 43.5q-4 19 13 32
t53.5 31.5t58.5 37.5q103 83 103 153q0 51 -49 109q-68 86 -68 129q0 48 80 119q81 69 133 69z" />
    <glyph glyph-name="less" unicode="&#x3c;" horiz-adv-x="1431" 
d="M502 655l688 -301q31 -16 31 -47v-172q0 -20 -17 -20q-2 0 -14 4l-961 424q-28 12 -28 47v149q0 31 28 47l947 418q16 8 26 8q19 0 19 -20v-170q0 -35 -31 -47l-688 -301q-6 -3 -6 -10q0 -6 6 -9z" />
    <glyph glyph-name="equal" unicode="=" horiz-adv-x="1507" 
d="M219 848v92q0 31 31 31h1007q31 0 31 -31v-92q0 -31 -31 -31h-1007q-31 0 -31 31zM219 524v92q0 31 31 31h1007q31 0 31 -31v-92q0 -30 -31 -30h-1007q-31 0 -31 30z" />
    <glyph glyph-name="greater" unicode="&#x3e;" horiz-adv-x="1431" 
d="M930 672l-688 301q-31 15 -31 47v172q0 20 16 20q3 0 15 -4l960 -424q29 -13 29 -47v-149q0 -31 -29 -47l-946 -418q-16 -8 -27 -8q-18 0 -18 20v170q0 35 31 47l688 301q6 3 6 11q0 5 -6 8z" />
    <glyph glyph-name="question" unicode="?" horiz-adv-x="1132" 
d="M668 1327q-86 0 -146 -51q-61 -52 -61 -113q0 -47 49 -71q5 -2 29 -8.5t36.5 -16.5t12.5 -29q0 -48 -64 -94q-64 -43 -151 -43q-88 0 -142.5 48.5t-54.5 131.5q0 151 158 279q160 127 409 127q202 0 318 -98q119 -98 119 -236q0 -100 -60.5 -180t-156.5 -127
q-41 -20 -106.5 -47.5t-110 -47t-90 -43.5t-68.5 -47.5t-23 -48.5q0 -33 56 -57q55 -24 55 -53q0 -38 -53 -58t-123 -20q-90 0 -144.5 31t-54.5 92q0 108 193 239q43 28 60.5 39.5t59 40t61 45t53 45t50 50.5t35 50t26 55.5t7.5 55.5q0 69 -50 114.5t-128 45.5zM641 178
q0 -49 -90 -127q-89 -74 -139 -74q-48 0 -117 78q-68 80 -68 133q0 47 90 125t142 78q46 0 114 -80t68 -133z" />
    <glyph glyph-name="at" unicode="@" horiz-adv-x="2158" 
d="M1137 553q94 155 94 238q0 48 -44.5 83t-99.5 35q-71 0 -120 -94q-34 -65 -68 -174q-41 -137 -41 -229q0 -103 53 -103q75 0 226 244zM1901 1057q90 -185 90 -387q0 -107 -29 -217q-50 -175 -169.5 -274t-270.5 -99q-131 0 -232 70q-103 71 -121 200q-3 12 -8 12t-10 -8
q-59 -96 -162 -176t-203 -80q-94 0 -146 76t-52 193q0 237 155 450q160 219 365 219q70 0 162 -28q95 -29 104 -29q29 0 76 35q28 22 47 22q41 0 41 -45q0 -19 -12 -65q-6 -25 -34 -136t-42 -174q-37 -164 -37 -249q0 -158 143 -158q63 0 124.5 41t103.5 115q78 141 78 319
q0 227 -125 401q-103 139 -273 222q-168 82 -356 82q-335 0 -576 -244q-237 -243 -237 -588t237 -588q239 -245 576 -245q192 0 363 87.5t288 245.5q22 31 56 31q21 0 39 -15.5t18 -37.5q0 -16 -17 -47q-107 -162 -313 -273q-201 -110 -434 -110q-393 0 -666 276
q-274 277 -274 676q0 398 276 674t664 276q262 0 472 -117.5t321 -332.5z" />
    <glyph glyph-name="A" unicode="A" horiz-adv-x="1470" 
d="M459 604h336q18 0 18 14q0 9 -2 15l-72 409q-1 18 -7.5 19.5t-12.5 -10.5l-264 -418q-9 -15 -9 -19q0 -10 13 -10zM1024 1446l207 -1153q11 -69 36.5 -114t53.5 -58q63 -27 63 -68q0 -53 -92 -53h-454q-66 0 -66 45q0 21 17.5 37t38 26t38 33.5t17.5 57.5q0 25 -6 63
l-27 156q-3 18 -29 18h-454q-32 0 -41 -20q-97 -186 -97 -240q0 -45 39 -74q41 -30 41 -53q0 -49 -82 -49h-356q-68 0 -68 45q-3 17 14.5 34.5t44 32t62.5 42.5t60 61q64 84 147 213l657 1016q20 33 54 33h137q39 0 45 -31z" />
    <glyph glyph-name="B" unicode="B" horiz-adv-x="1419" 
d="M612 864h78q131 0 223 68q95 71 95 203q0 160 -222 163h-88q-24 0 -30 -26l-76 -371q-2 -8 -2 -16q0 -21 22 -21zM547 672l-62 -303q-26 -118 -26 -156q0 -25 15 -33t58 -8h48q162 0 262 87t100 239q0 194 -262 194h-111q-19 0 -22 -20zM301 1462h516q182 0 297 -16
q105 -15 178 -78q82 -70 82 -190q0 -146 -109.5 -246t-295.5 -131q-15 -3 -15 -13q0 -12 17 -12q146 -8 236.5 -84.5t90.5 -208.5q0 -166 -116 -288q-91 -104 -252 -152q-151 -43 -445 -43h-481q-70 0 -70 49q-4 21 12.5 35.5t49 29.5t47.5 27q67 52 111 273l151 747
q17 87 17 113q0 51 -52 78q-49 30 -49 57q0 53 80 53z" />
    <glyph glyph-name="C" unicode="C" 
d="M733 160q58 0 111.5 23.5t91 58.5t74.5 76.5t64 76.5t56.5 58.5t55.5 23.5q38 0 63 -26t25 -64q0 -67 -37 -154q-35 -89 -88 -139q-59 -55 -172.5 -86t-243.5 -31q-297 0 -485 179q-185 179 -185 462q0 170 70 328.5t195 278.5q126 123 307 192.5t385 69.5
q123 0 223 -25.5t141 -66.5q43 -43 43 -117q0 -72 -34 -162q-34 -88 -90 -88q-43 0 -78 35l-25 45l-20 43q-92 164 -244 164q-202 0 -356 -207t-154 -512q0 -201 87 -318.5t220 -117.5z" />
    <glyph glyph-name="D" unicode="D" horiz-adv-x="1613" 
d="M973 328q98 104 155.5 257.5t57.5 313.5q0 241 -142 330q-92 59 -286 59h-31q-34 0 -48 -11.5t-20 -43.5l-170 -846q-20 -103 -20 -145q0 -72 119 -72q233 0 385 158zM1294 1362q122 -63 191 -190.5t69 -292.5q0 -311 -194 -555q-261 -326 -846 -326h-510q-70 0 -70 53
q0 25 23 41.5t57.5 33.5t51.5 36q47 50 88 250l151 747q17 87 17 113q0 28 -15.5 48.5t-34 30.5t-34 25t-15.5 33q0 51 80 51h377q111 0 221 -4q70 -3 197 -26q112 -21 196 -68z" />
    <glyph glyph-name="E" unicode="E" horiz-adv-x="1329" 
d="M1149 467q31 0 53.5 -21t22.5 -53t-25 -96q-16 -41 -29 -98q-16 -70 -30 -109q-13 -42 -54 -74t-98 -32q-26 0 -133 8t-246 8h-606q-70 0 -70 49q-4 22 14.5 37.5t53.5 32.5t51 31q63 54 103 264l151 751q17 97 17 107q0 32 -16 51.5t-35.5 26.5t-35.5 22t-16 37
q0 53 94 53h533q140 0 268 8q144 9 168 9q90 0 90 -56q0 -22 -10 -80q-5 -37 -23 -126t-22 -117q-12 -80 -86 -80q-63 0 -82 88q-8 41 -36 83.5t-68 65.5q-62 35 -226 35h-94q-32 0 -45.5 -12t-19.5 -43l-68 -332l-2 -12l-1.5 -9t-0.5 -5q0 -29 51 -29q94 0 205 6l80 6
q62 6 92 6q63 0 63 -39q0 -3 -18 -65q-18 -63 -40.5 -80.5t-88.5 -17.5q-53 0 -88 2q-70 4 -74 4q-37 2 -192 2q-33 0 -39 -33l-49 -240q-10 -46 -15.5 -76.5t-7.5 -57t2.5 -42t12.5 -27.5t24.5 -17.5t37 -8t52.5 -2.5q116 0 206.5 29.5t137.5 74.5q29 29 73 84.5t73.5 82
t60.5 26.5z" />
    <glyph glyph-name="F" unicode="F" horiz-adv-x="1273" 
d="M469 225q0 -40 18.5 -68t40 -39.5t40 -27.5t18.5 -35q0 -55 -92 -55h-496q-64 0 -64 49q0 23 25.5 42t64.5 44t60 55q35 53 72 226l151 749q17 97 17 107q0 32 -16 51.5t-35.5 26.5t-35.5 22t-16 37q0 53 94 53h533q140 0 268 8q144 9 168 9q90 0 90 -56q0 -22 -10 -80
q-5 -37 -23 -126t-22 -117q-12 -80 -86 -80q-63 0 -82 88q-8 41 -36 83.5t-68 65.5q-62 35 -226 35h-94q-32 0 -45.5 -12t-19.5 -43l-80 -389q-1 -5 -2 -11.5t-1.5 -10t-0.5 -5.5q0 -28 51 -28q94 0 205 6l79 6q62 6 93 6q63 0 63 -39q0 -4 -18 -65q-18 -63 -40.5 -81
t-88.5 -18q-53 0 -88 2q-70 4 -74 4q-37 2 -193 2q-33 0 -39 -32l-32 -168q-27 -138 -27 -191z" />
    <glyph glyph-name="G" unicode="G" horiz-adv-x="1505" 
d="M860 717h516q68 0 68 -47q0 -28 -21 -41q-7 -6 -31 -17t-30 -14q-44 -19 -65.5 -61t-41.5 -148l-34 -172q-8 -45 -25.5 -72t-58.5 -53q-183 -115 -414 -115q-290 0 -477 181q-185 182 -185 467q0 165 66.5 320t185.5 274q121 124 303 195t392 71q280 0 370 -84
q47 -47 47 -117q0 -62 -34 -168q-27 -86 -84 -86q-29 0 -52 12.5t-32 26.5l-45 90q-18 41 -48 74q-26 33 -79 57.5t-117 24.5q-211 0 -361 -211q-149 -210 -149 -508q0 -197 88.5 -316.5t255.5 -119.5q60 0 81.5 12.5t29.5 50.5l34 166q15 76 15 107q0 45 -23 71t-50 33.5
t-50 22t-23 39.5q0 55 78 55z" />
    <glyph glyph-name="H" unicode="H" horiz-adv-x="1667" 
d="M1206 1462h459q68 0 68 -47q0 -25 -27 -47q-6 -4 -27 -13.5t-28 -11.5q-42 -23 -60.5 -62t-42.5 -146l-145 -719q-27 -135 -27 -185q0 -43 18.5 -72t40 -40t40 -27.5t18.5 -36.5q0 -55 -92 -55h-498q-29 0 -46 15t-17 36t15.5 36.5t36.5 24.5t50 31t49 52q33 54 68 221
l49 239q2 8 2 19q0 18 -25 18h-507q-23 0 -29 -20l-51 -256q-27 -135 -27 -185q0 -43 18.5 -72t40 -40t40 -26.5t18.5 -35.5q0 -57 -92 -57h-498q-30 0 -47 15t-17 36q-3 19 12 34.5t38 25.5t52 30.5t46 46.5q36 50 72 228l151 747q17 97 17 107q0 28 -16 49.5t-34.5 32.5
t-34.5 25.5t-16 31.5q0 53 80 53h459q67 0 67 -47q0 -29 -20 -41q-7 -6 -31.5 -17t-30.5 -14q-45 -20 -63 -61q-22 -59 -39 -147l-47 -232q-2 -6 -2 -18q0 -23 29 -23h503q24 0 27 21l51 252q23 125 23 137q0 28 -16 49.5t-34.5 31.5t-34.5 24.5t-16 31.5q0 53 80 53z" />
    <glyph glyph-name="I" unicode="I" horiz-adv-x="759" 
d="M469 225q0 -40 18.5 -68t40 -39.5t40 -27.5t18.5 -35q0 -55 -92 -55h-496q-64 0 -64 49q0 23 25.5 42t64.5 44t60 55q35 53 72 226l145 731q21 102 21 125q0 53 -52 80q-49 27 -49 57q0 53 80 53h457q67 0 67 -47q0 -26 -26 -47q-6 -4 -27.5 -13.5t-28.5 -11.5
q-42 -20 -61.5 -61t-40.5 -147l-145 -719q-27 -138 -27 -191z" />
    <glyph glyph-name="J" unicode="J" horiz-adv-x="878" 
d="M-328 -342q-71 53 -71 166q0 141 100 141q23 2 50 -17t52.5 -47t52 -55.5t59.5 -46t65 -16.5q52 -6 94.5 36t68.5 107q22 46 35 99q27 98 29 106l24 115l160 801q37 179 37 223q0 51 -51 80t-51 59q0 53 88 53h458q64 0 64 -49q0 -35 -55 -59q-51 -19 -76 -51
q-30 -46 -70 -256l-39 -228l-45 -246q-8 -48 -45 -213q-23 -102 -55 -200q-93 -266 -266.5 -411.5t-405.5 -145.5q-131 0 -207 55z" />
    <glyph glyph-name="K" unicode="K" horiz-adv-x="1556" 
d="M1190 1462h416q71 0 71 -47q0 -33 -37 -49q-6 -3 -43.5 -16t-52.5 -21q-123 -57 -391 -278q-70 -56 -256 -211q-4 -4 -4 -9q0 -10 10 -10l9 3q8 2 19 4.5t19 2.5q53 0 90 -61q33 -54 119 -256q82 -201 127 -274q48 -72 92 -101q2 -1 30.5 -15.5t39.5 -26.5t6 -27
q0 -44 -68 -56l-184 -32q-51 -7 -53 -7q-55 0 -102 35q-79 56 -213 404q-38 97 -72 161q-51 108 -121 50l-104 -86q-19 -16 -25 -43l-16 -80q-27 -138 -27 -187q0 -48 18 -75q13 -20 39 -34.5t43 -28t17 -36.5q0 -55 -94 -55h-494q-64 0 -64 51q0 33 60 64q56 29 78 57
q46 58 84 244l151 749q17 93 17 105q0 33 -16 54t-34.5 28.5t-34.5 21t-16 33.5q0 55 80 55h455q67 0 67 -47q0 -29 -20 -41q-7 -6 -31.5 -17t-30.5 -14q-45 -20 -63 -61q-23 -61 -39 -145l-63 -316q-3 -12 -3 -16q0 -10 11 -10q7 0 22 12l359 305q107 92 147.5 138t40.5 81
q0 12 -24.5 40t-24.5 42q0 49 84 49z" />
    <glyph glyph-name="L" unicode="L" horiz-adv-x="1204" 
d="M1073 467q55 0 69 -43t-16 -125q-9 -25 -27.5 -93t-21.5 -79q-20 -67 -57 -105t-107 -38q-26 0 -122 8t-224 8h-563q-70 0 -70 53q0 24 22 38.5t59 34.5t59 48q42 51 80 240l153 749q17 97 17 109q0 32 -16 52.5t-34.5 28t-34.5 21.5t-16 35q0 53 80 53h455q67 0 67 -47
q0 -26 -26 -47q-6 -4 -27.5 -13.5t-28.5 -11.5q-41 -23 -59.5 -61.5t-42.5 -146.5l-149 -734q-23 -128 -23 -149q0 -49 27.5 -65.5t101.5 -16.5q92 0 165 29t114 75q22 25 63.5 83t70.5 84t62 26z" />
    <glyph glyph-name="M" unicode="M" horiz-adv-x="1914" 
d="M1626 231q0 -37 12 -62.5t29 -38t33.5 -21.5t28.5 -21.5t12 -30.5q0 -57 -90 -57h-496q-68 0 -68 51q0 21 17 36.5t40 26t52 33.5t47 54q29 53 64 213l151 745q1 6 2 11.5t1.5 8t0.5 3.5q0 8 -8 8q-5 0 -10 -8l-553 -914q-18 -30 -55 -30h-86q-25 0 -34.5 8t-15.5 33
l-184 890q-3 19 -10 19t-10 -10l-109 -549q-59 -301 -59 -355q0 -41 11.5 -70.5t29 -44.5t38 -27t38 -19.5t29 -21t11.5 -32.5q0 -59 -88 -59h-372q-82 0 -82 53q-4 19 12 35t49 35t45 29q45 39 68 100q19 51 57 223l162 762q6 30 6 47q0 36 -53 66q-51 29 -51 59
q0 53 92 53h395q71 0 80 -45l147 -682q3 -18 11 -18q4 0 14 16l418 684q26 45 84 45h432q69 0 69 -49q0 -30 -26 -45q-5 -3 -28 -12.5t-28 -12.5q-43 -19 -64.5 -62.5t-35.5 -127.5l-147 -739q-25 -128 -25 -183z" />
    <glyph glyph-name="N" unicode="N" horiz-adv-x="1660" 
d="M1264 1462h391q80 0 80 -49q0 -17 -10 -30.5t-22 -20t-33 -16t-30 -15.5q-59 -31 -89.5 -75t-55.5 -148l-51 -229l-76 -357l-70 -340q-32 -145 -32 -159q-9 -37 -49 -37h-150q-42 0 -57 34l-480 977q-13 30 -24 -6q-1 -7 -10 -49.5t-22 -110.5t-28 -145
q-65 -337 -65 -403q0 -52 17 -86.5t41 -50.5t48 -27.5t41 -26t17 -37.5q0 -55 -86 -55h-436q-78 0 -78 49q-5 24 18 41.5t67.5 38t65.5 37.5q63 45 101 188q19 73 94 439q73 345 88 424q4 28 4 30q0 29 -45 62q-11 9 -44 27t-52 35t-15 36q0 55 82 55h299q73 0 97 -49
l454 -934q9 -18 15 -18q7 0 10 8q131 604 131 735q0 44 -14.5 73t-35.5 42.5t-41.5 23.5t-35 24.5t-14.5 37.5q0 57 90 57z" />
    <glyph glyph-name="O" unicode="O" horiz-adv-x="1642" 
d="M915 1313q-136 3 -249 -103.5t-174 -275.5t-58 -354q0 -203 76 -313.5t217 -110.5q208 0 346 217q137 216 137 510q0 203 -77.5 316.5t-217.5 113.5zM1585 885q0 -241 -117 -447q-119 -209 -329 -334q-213 -127 -469 -127q-288 0 -451 166q-162 165 -162 435
q-3 144 43 283t132 252.5t199.5 199.5t254.5 132t289 42q286 0 448 -168q162 -165 162 -434z" />
    <glyph glyph-name="P" unicode="P" horiz-adv-x="1361" 
d="M975 881q63 81 63 213q0 198 -264 198h-67q-31 0 -37 -28l-92 -463l-2 -12t-2 -9t-1 -4q0 -18 21 -18h74q116 0 187 28t120 95zM1407 1112q0 -138 -82 -260q-45 -72 -123 -131q-77 -59 -210 -96t-294 -37h-141q-19 0 -29 -29l-28 -145q-29 -161 -29 -197q0 -32 12 -55
t29.5 -35t34.5 -21t29 -22t12 -31q0 -53 -88 -53h-496q-70 0 -70 51q0 20 15 34.5t35.5 23.5t48.5 28t47 45q38 50 76 232l151 751q17 100 17 109q0 31 -16 51t-35.5 27.5t-35.5 21.5t-16 35q0 53 82 53h455q108 0 198 -4q79 -4 154 -14q154 -21 233 -127q64 -85 64 -205z
" />
    <glyph glyph-name="Q" unicode="Q" horiz-adv-x="1642" 
d="M823 -10q-10 -3 -10 -6q0 -4 14 -7q34 -8 113 -36q183 -72 309 -72q52 0 115 29q61 28 82 28q23 0 41 -17t18 -40q0 -14 -9.5 -32.5t-26 -46t-25.5 -48.5q-33 -74 -73.5 -104.5t-110.5 -30.5q-110 0 -392 117q-280 116 -381 116q-37 0 -84.5 -16.5t-50.5 -16.5
q-19 0 -31 12t-12 31q0 36 68 89q52 43 86 49q14 3 14 6t-6 6q-197 54 -305.5 204t-108.5 371q0 388 271 650t645 262q290 0 448 -168q162 -168 162 -436q0 -334 -211 -582q-206 -246 -549 -311zM725 156q148 0 260 112q111 109 167 269.5t56 341.5q0 205 -77.5 319.5
t-217.5 114.5q-204 0 -342 -217q-139 -216 -139 -516q0 -201 77 -312.5t216 -111.5z" />
    <glyph glyph-name="R" unicode="R" horiz-adv-x="1466" 
d="M606 831h92q149 0 231.5 82.5t82.5 210.5q0 168 -217 168h-88q-31 0 -37 -30l-80 -396q-1 -4 -2 -9l-1.5 -7.5t-0.5 -3.5q0 -15 20 -15zM1329 123q2 -2 14.5 -12.5t22 -19t16.5 -21t4 -21.5q0 -49 -77 -49h-183q-67 0 -100 10.5t-57 42.5q-32 37 -54 129l-24 101
q-7 33 -25 102q-39 157 -82 205q-46 55 -118 67q-45 5 -58 5q-28 0 -37 -3q-24 -3 -30 -32l-43 -213q-27 -135 -27 -189q0 -46 18.5 -74t40 -36.5t40 -22.5t18.5 -37q0 -55 -86 -55h-500q-68 0 -68 51q-3 17 11.5 32.5t36 26.5t48.5 28.5t42 35.5q41 49 82 240l145 723
q23 118 23 137q0 28 -16 49t-34.5 30.5t-34.5 24t-16 31.5q0 53 80 53h551q354 0 455 -94q82 -73 82 -201q0 -162 -117 -276q-118 -115 -320 -127q-16 0 -16 -14q0 -10 14 -13q103 -15 156 -80q57 -66 102 -231q72 -259 121 -303z" />
    <glyph glyph-name="S" unicode="S" horiz-adv-x="1236" 
d="M1163 1384q54 -48 54 -116q0 -18 -11 -90q-13 -84 -35.5 -116t-62.5 -32q-34 0 -53 19q-15 15 -42.5 67t-31.5 58q-98 137 -244 137q-98 0 -162.5 -55t-64.5 -130q0 -50 35.5 -94t83.5 -71l116 -56q96 -43 99 -45q136 -72 204 -154.5t68 -207.5q0 -203 -192 -361
q-192 -160 -504 -160q-160 0 -280.5 45t-155.5 119q-19 43 -19 95q0 17 4 71.5t4 65.5q3 121 95 121q47 0 69 -48l37 -79q2 -3 21 -31t36.5 -49t36.5 -37q103 -86 240 -86q130 0 206.5 63t76.5 150q0 62 -46.5 112t-117.5 78q-65 27 -152 70q-91 45 -141 86
q-144 120 -144 285q0 78 39 159.5t111 153.5q74 76 196.5 121t268.5 45q112 0 210 -30t148 -73z" />
    <glyph glyph-name="T" unicode="T" horiz-adv-x="1306" 
d="M1358 1477q23 0 35 -1t25.5 -6t19.5 -17t6 -32q0 -24 -10 -82q-13 -77 -23 -125q-12 -57 -20 -114q-9 -80 -84 -80q-34 0 -52 18q-19 22 -36 72q-15 45 -29 72q-57 112 -189 112q-20 0 -33.5 -4t-20.5 -13.5t-9.5 -17t-5.5 -22.5l-166 -821q-27 -126 -27 -187
q0 -39 18.5 -68t40 -42t40 -29.5t18.5 -32.5q0 -57 -92 -57h-496q-65 0 -65 49q0 36 61 70q65 37 86 69q36 52 72 228l164 811q6 27 6 35q0 32 -49 32q-140 0 -240 -118q-6 -7 -14 -17.5t-19 -26.5t-20 -28q-34 -48 -55 -67t-48 -19q-32 0 -52.5 16.5t-20.5 46.5q0 20 6 41
q2 8 7.5 31.5t12.5 53t13 61.5q27 123 32 137q12 42 36 57t79 15q36 0 174 -9q141 -6 230 -6h284q93 0 234 6q144 9 176 9z" />
    <glyph glyph-name="U" unicode="U" horiz-adv-x="1552" 
d="M1212 1462h394q77 0 77 -53q0 -27 -22 -41q-6 -5 -33 -17.5t-37 -19.5q-58 -30 -89 -76t-56 -147l-62 -283l-63 -299q-58 -241 -197 -368q-199 -181 -501 -181q-75 0 -145 12.5t-137.5 42t-118 73.5t-81 112t-30.5 152q0 64 24 202q8 52 62 310q51 242 51 254
q18 108 18 127q0 60 -37 84q-5 4 -20 12.5t-21.5 13t-13 15t-6.5 22.5q0 53 80 53h461q67 0 67 -47q0 -21 -11 -32.5t-36.5 -22.5t-34.5 -17q-41 -23 -59.5 -61.5t-42.5 -146.5l-111 -547q-16 -82 -16 -139q0 -116 75 -180t201 -64q319 0 408 354q27 107 76 354
q39 198 39 293q0 38 -10.5 65.5t-26.5 40.5t-34 24t-34 17.5t-26.5 19.5t-10.5 32q0 57 90 57z" />
    <glyph glyph-name="V" unicode="V" horiz-adv-x="1464" 
d="M1241 1462h356q68 0 68 -45q0 -38 -63 -67q-35 -23 -74 -58q-9 -8 -32.5 -33.5t-27.5 -29.5l-59 -84l-35 -53l-37 -58l-657 -1016q-19 -32 -53 -32h-138q-39 0 -45 30l-206 1153q-18 105 -64 148q-11 9 -37 25.5t-38.5 29.5t-12.5 31q0 59 90 59h455q65 0 65 -47
q0 -17 -11.5 -29.5t-27.5 -21.5t-32 -19.5t-27.5 -30t-11.5 -46.5q0 -28 6 -68l137 -782q3 -17 10 -17q4 0 11 11q248 381 397 645q94 163 94 229q0 44 -39 70t-39 55q0 51 78 51z" />
    <glyph glyph-name="W" unicode="W" horiz-adv-x="2310" 
d="M2036 1462h385q67 0 67 -47q0 -24 -22 -43q-5 -3 -40 -26t-66 -48t-56 -53q-42 -48 -147 -211q-72 -114 -601 -1016q-19 -32 -53 -32h-131q-35 0 -41 30l-131 969q-3 21 -10 21q-4 0 -14 -17l-549 -971q-19 -32 -54 -32h-141q-40 0 -43 30l-141 1153q-9 88 -31 125
q-14 26 -63 54q-45 26 -45 59q0 55 88 55h446q68 0 68 -51q0 -18 -12.5 -31t-30.5 -22.5t-36.5 -22.5t-31 -40t-12.5 -66l4 -58l67 -706q3 -16 6 -21t6 -2t9 13l563 997q16 25 47 25h160q34 0 37 -25l117 -989q3 -21 6 -21q2 0 8 9q142 236 346 610q88 163 88 213
q0 41 -47 76q-45 33 -45 59q0 53 76 53z" />
    <glyph glyph-name="X" unicode="X" horiz-adv-x="1517" 
d="M1305 119q3 -3 21.5 -15.5t21.5 -15.5q18 -14 18 -39q0 -49 -80 -49h-477q-61 0 -61 43q0 30 47 57q47 30 47 70q0 39 -58 158l-116 245q-4 11 -13 11q-6 0 -12 -6q-217 -246 -272 -351q-17 -34 -17 -61q0 -37 35 -64t35 -49q0 -53 -74 -53h-393q-68 0 -68 47q0 13 9 27
t20 20q19 16 64 41q75 48 208 187q115 115 365 413q16 19 16 35q0 9 -6 21l-162 348q-49 105 -71 135q-22 38 -74 69q-63 28 -63 66q0 53 77 53h480q63 0 63 -45q0 -28 -47 -55t-47 -68q0 -33 55 -155l96 -207q10 -21 25 -6q190 221 238 309q16 32 16 61q0 37 -37 64
q-35 27 -35 49q0 53 80 53h393q64 0 64 -47q0 -19 -11 -30.5t-39 -28.5t-44 -29q-86 -57 -209 -186q-111 -117 -328 -373q-16 -22 -16 -31q0 -8 6 -20l182 -389q51 -103 72 -135q23 -35 76 -74z" />
    <glyph glyph-name="Y" unicode="Y" horiz-adv-x="1466" 
d="M1176 1462h383q65 0 65 -47q0 -15 -8 -27t-14.5 -16t-24.5 -14q-71 -43 -137 -103q-52 -48 -180 -200l-388 -461l-12 -25l-31 -153q-24 -123 -24 -199q0 -37 18 -63t39.5 -37t39.5 -27t18 -35q0 -55 -93 -55h-499q-62 0 -62 51q0 24 22 39.5t59 36.5t59 49q41 52 79 240
l17 80q3 16 -2 36l-226 639q-39 111 -67 146q-20 20 -53 37q-37 21 -37 51q0 57 90 57h442q70 0 70 -47q0 -22 -18.5 -37t-40 -22.5t-40 -26.5t-18.5 -49q0 -16 10 -49l162 -463q3 -8 10 -8q5 0 11 6q211 257 278 344q98 128 98 180q0 39 -41 66q-38 25 -38 53q0 53 84 53z
" />
    <glyph glyph-name="Z" unicode="Z" horiz-adv-x="1374" 
d="M1194 461q30 0 52 -18.5t22 -47.5q0 -33 -21 -76q-23 -53 -41 -108q-21 -63 -43 -115q-19 -46 -58 -79t-91 -33q-38 0 -142 8t-241 8h-641q-49 0 -49 51t16 94q8 21 33 50l948 1079q8 8 8 14q0 10 -14 10h-113q-211 0 -278 -24q-58 -22 -105 -65.5t-69 -88.5
q-53 -100 -111 -100q-78 0 -78 67q0 12 10 64l27 117q20 80 27 114q10 55 34.5 75t81.5 20q27 0 168 -9q141 -6 269 -6h591q50 0 50 -39q0 -51 -21 -98q-8 -25 -45 -65l-926 -1055q-16 -22 -16 -25q0 -8 12 -8h97q229 0 329 41q74 30 138 94q18 18 45.5 47.5t42.5 44
t34.5 31.5t35.5 24t32 7z" />
    <glyph glyph-name="bracketleft" unicode="[" horiz-adv-x="1040" 
d="M1026 1374h-274q-43 0 -52 -43l-292 -1452q-2 -6 -2 -14q0 -29 34 -29h277q39 0 39 -26q0 -9 -2 -15l-17 -76q-8 -38 -51 -38h-565q-35 0 -35 28q0 1 0.5 4t1.5 9.5t2 13.5l354 1753q6 41 52 41h561q39 0 39 -33q0 -8 -2 -16l-15 -70q-9 -37 -53 -37z" />
    <glyph glyph-name="backslash" unicode="\" horiz-adv-x="1058" 
d="M14 1530h162l868 -1727h-161z" />
    <glyph glyph-name="bracketright" unicode="]" horiz-adv-x="1001" 
d="M-12 -164h274q42 0 51 43l293 1452q2 6 2 15q0 28 -35 28h-276q-39 0 -39 27q0 8 2 14l16 76q9 39 52 39h565q35 0 35 -29q0 -1 -0.5 -4l-1.5 -9t-2 -13l-355 -1754q-6 -40 -51 -40h-561q-39 0 -39 32q0 9 2 17l14 69q9 37 54 37z" />
    <glyph glyph-name="asciicircum" unicode="^" horiz-adv-x="1038" 
d="M608 1243l-211 -264q-23 -29 -65 -29h-223q-21 0 -21 15q0 5 6 14l385 479q23 29 64 29h219q42 0 55 -29l187 -469q6 -15 6 -20q0 -19 -27 -19h-184q-41 0 -54 29l-104 262q-7 19 -14 19t-19 -17z" />
    <glyph glyph-name="underscore" unicode="_" horiz-adv-x="1267" 
d="M-37 -309l10 55q3 21 25 21h1288q19 0 19 -15q0 -8 -2 -16l-13 -55q-3 -21 -22 -21h-1291q-16 0 -16 16q0 9 2 15z" />
    <glyph glyph-name="grave" unicode="`" horiz-adv-x="1024" 
d="M502 1276l-234 166q-18 12 -18 24q0 21 26 21h291q57 0 80 -33l121 -170q8 -8 8 -16q0 -17 -24 -17h-156q-58 0 -94 25z" />
    <glyph glyph-name="a" unicode="a" horiz-adv-x="1275" 
d="M639 942q-70 0 -117 -65t-92 -199q-65 -204 -65 -330q0 -123 75 -123q106 0 250 252q121 210 121 324q0 73 -86 117q-49 24 -86 24zM979 1024q43 0 82 33q41 35 65 35q21 0 34.5 -14.5t13.5 -37.5q0 -8 -11 -57q-18 -81 -35 -149q-34 -152 -49 -230q-69 -324 -69 -368
q0 -58 37 -58q16 0 55 25q36 26 55 26q37 0 37 -36q0 -23 -23 -56q-53 -73 -132.5 -116.5t-155.5 -43.5q-87 0 -134 56t-47 160q0 9 2 33l3 36q0 6 -5 6q-3 0 -8 -8q-81 -126 -189 -204.5t-226 -78.5q-109 0 -175.5 78t-66.5 232q0 130 40 273t111 251q94 142 218.5 211.5
t255.5 69.5q82 0 192 -35q103 -33 125 -33z" />
    <glyph glyph-name="b" unicode="b" horiz-adv-x="1245" 
d="M944 1090q117 0 178.5 -85.5t61.5 -226.5q0 -85 -18 -176t-51.5 -181t-87.5 -169.5t-121.5 -141t-157.5 -97.5t-191 -36q-90 0 -190 33q-107 35 -121 35q-39 0 -80 -35q-39 -33 -64 -33q-51 0 -51 52l4 32l221 1084q17 87 17 108q0 30 -23 48t-51 24t-51 21.5t-23 42.5
q0 49 97 61q148 21 299 68q46 12 55 12q53 0 53 -51q0 -11 -2 -19l-131 -641q-2 -6 -2 -14q0 -6 4 -6q3 0 8 8q77 125 188.5 204t229.5 79zM588 125q126 0 217 319q49 180 49 275q0 125 -76 125q-107 0 -250 -254q-118 -202 -118 -324q0 -69 86 -116q48 -25 92 -25z" />
    <glyph glyph-name="c" unicode="c" horiz-adv-x="1040" 
d="M956 768q-34 0 -61 18q-17 12 -64 52t-65 53q-59 41 -125 41q-93 0 -164 -86q-123 -154 -123 -387q0 -126 54 -203.5t161 -77.5q48 0 99 20t85.5 44.5t70 44.5t55.5 20q25 0 42 -15.5t17 -39.5q0 -27 -34 -71.5t-93 -90.5q-61 -48 -157.5 -80.5t-196.5 -32.5
q-188 0 -305 117q-117 120 -117 305q0 267 207 480q210 213 499 213q127 0 220 -43q90 -44 90 -131q0 -65 -24 -107.5t-71 -42.5z" />
    <glyph glyph-name="d" unicode="d" horiz-adv-x="1280" 
d="M1253 1460l-211 -1046q-32 -152 -32 -183q0 -51 37 -51q20 0 59 25q36 26 53 26q37 0 37 -41q0 -55 -109 -135q-110 -78 -219 -78q-82 0 -129 45.5t-47 135.5q0 20 2 41t4 33.5t2 13.5q0 5 -2.5 7t-6.5 0.5t-7 -5.5q-70 -110 -180 -191q-109 -80 -228 -80q-97 0 -170 70
q-71 71 -71 242q0 135 41.5 273t116.5 257q77 125 201 199t268 74q25 0 54 -3.5t52.5 -8t43 -9.5t31.5 -8.5t13 -3.5q11 0 14 14l15 72q16 91 16 110q0 31 -22.5 48t-50 22t-50 19.5t-22.5 41.5q0 52 96 64q170 24 299 70q30 10 49 10q55 0 55 -51q0 -13 -2 -19zM637 942
q-70 0 -117 -65t-92 -199q-66 -207 -66 -330t76 -123q106 0 250 252q121 210 121 324q0 73 -86 117q-50 24 -86 24z" />
    <glyph glyph-name="e" unicode="e" horiz-adv-x="1077" 
d="M418 637q187 0 282 65q78 54 78 129q0 44 -31.5 72.5t-78.5 28.5q-78 0 -154 -76q-74 -74 -115 -186q-4 -16 -4 -17q0 -16 23 -16zM498 471q-15 0 -31.5 0.5t-29.5 1t-24 1t-17 0.5l-7 1q-27 0 -27 -33q0 -83 22 -141.5t60 -83.5q61 -41 129 -41q108 0 220 80
q82 61 122 61q24 0 43 -18.5t19 -42.5q0 -49 -70 -119q-75 -75 -186 -117.5t-229 -42.5q-219 0 -338 125t-119 312q0 166 92 323q91 155 250 256q156 99 334 99t264 -86q88 -85 88 -193q0 -158 -170 -250t-395 -92z" />
    <glyph glyph-name="f" unicode="f" horiz-adv-x="913" 
d="M1108 1516q158 -44 158 -193q0 -125 -95 -125q-24 -2 -60 24.5t-69 59.5t-77.5 59.5t-83.5 24.5q-170 0 -234 -309q-2 -6 -2 -13q0 -10 14 -10q69 0 123 4q114 13 131 13q60 0 60 -33q0 -10 -23 -68q-20 -46 -38.5 -62t-63.5 -16q-1 0 -14 1t-42 2.5t-61 3.5q-23 2 -94 2
q-22 0 -25 -17q-11 -48 -28 -194q-46 -376 -103 -570q-53 -188 -190 -325q-77 -78 -187 -124t-215 -46q-38 0 -92 10q-36 6 -57 22t-21 39q0 13 2 19l17 78q9 34 33 34q2 0 26 -10t59 -20t64 -10q92 0 137 53q33 35 52 66t36 89l31 111q12 51 27 143l24 164q2 14 11.5 81
t15.5 116q14 126 37 246q6 30 6 34q0 11 -21 11h-116q-27 0 -27 22q0 11 2 17l17 84q6 30 38 30h134q19 0 26 17q60 163 178 278q206 201 467 201q58 0 113 -14z" />
    <glyph glyph-name="g" unicode="g" horiz-adv-x="1179" 
d="M1137 1092q42 0 66 -22.5t24 -61.5q0 -30 -8 -54q-7 -32 -49 -62t-103 -30q-13 0 -41 4q10 -45 10 -82q0 -171 -141 -309q-139 -136 -367 -151q-184 -12 -184 -78q0 -44 86 -53q98 -10 217 -13q133 0 197 -18q70 -20 110.5 -70.5t40.5 -118.5q0 -145 -164 -256
q-161 -112 -432 -112q-228 0 -366 69q-142 68 -142 183q0 71 58.5 124.5t140.5 65.5q16 3 16 10l-12 27q-10 30 -10 57q0 69 54 126t132 83q13 3 13 8q0 4 -7 7q-182 80 -182 264q0 191 168 325q170 138 379 138q63 0 126.5 -16t103 -34.5t71.5 -34.5t39 -16q13 0 28.5 16
t29.5 34.5t40 34.5t58 16zM600 -63q-28 0 -59 2q-70 0 -127 2q-70 3 -121 12q-63 9 -98 29l-15 -18q-16 -19 -27.5 -39.5t-11.5 -37.5q0 -58 73 -96.5t212 -38.5q136 0 219.5 33t83.5 92q0 57 -129 60zM528 471q94 0 140 100q47 103 47 213q0 164 -111 164q-97 0 -143 -98
q-45 -96 -45 -213q0 -166 112 -166z" />
    <glyph glyph-name="h" unicode="h" horiz-adv-x="1339" 
d="M1223 231q37 0 37 -43q0 -52 -105 -131q-106 -80 -225 -80q-82 0 -130 47t-48 138q0 64 49 276q51 211 51 291q0 113 -84 113q-59 0 -128.5 -72t-127.5 -190q-55 -113 -94 -238q-31 -113 -68 -299q-6 -37 -53 -43l-191 -20q-21 -3 -28 -3q-37 0 -37 37q0 9 2 17l225 1114
q19 100 19 112q0 29 -23 46t-51 22.5t-51 20.5t-23 40q3 18 9.5 29t21.5 18t26.5 9.5t39.5 7.5q139 20 299 70q33 10 51 10q55 0 55 -49q0 -13 -2 -21l-127 -622q-2 -6 -2 -15q0 -6 6 -6q5 0 10 8q172 267 398 267q113 0 183.5 -64t70.5 -180q0 -75 -54 -328
q-51 -239 -51 -289q0 -51 35 -51q20 0 59 25q36 26 56 26z" />
    <glyph glyph-name="i" unicode="i" horiz-adv-x="704" 
d="M580 231q36 0 36 -41q0 -56 -108 -135q-110 -78 -221 -78q-82 0 -129 46t-47 137q0 63 59 338q61 271 61 315q0 31 -22.5 49t-50 23.5t-50 20.5t-22.5 42q0 52 96 64q151 21 299 67q41 13 51 13q54 0 54 -54q0 -12 -78 -391t-78 -416q0 -51 37 -51q21 0 57 25
q36 26 56 26zM477 1163q-43 0 -108 74q-64 76 -64 125q0 51 82 121q83 71 135 71q46 0 109 -75q63 -72 63 -123t-82 -121q-84 -72 -135 -72z" />
    <glyph glyph-name="j" unicode="j" horiz-adv-x="802" 
d="M606 1081q42 11 49 11q56 0 56 -54q0 -8 -2 -16l-91 -490l-18 -100l-20 -108l-19 -91q-15 -69 -24 -100l-27 -84q-32 -94 -76 -164q-87 -141 -222 -209.5t-292 -68.5q-309 0 -309 209q0 127 94 127q22 2 49 -15.5t53.5 -43t54.5 -51t62.5 -43t67.5 -15.5q117 0 168 141
q18 44 34.5 100.5t26 98.5t29.5 137q2 6 2 14l88 441q16 91 16 108q0 30 -23 47.5t-50.5 23.5t-50.5 21t-23 41q0 52 96 64q155 20 301 69zM600 1163q-43 0 -108 74q-64 76 -64 125q0 51 82 121q83 71 135 71q46 0 109 -75q63 -72 63 -123t-82 -121q-84 -72 -135 -72z" />
    <glyph glyph-name="k" unicode="k" horiz-adv-x="1245" 
d="M1102 1092q145 0 145 -162q0 -64 -24 -107t-74 -43q-25 0 -78 29q-48 31 -84 31q-53 0 -134 -64t-169 -172q-8 -8 -8 -16q0 -13 14 -13q2 0 18.5 8.5t39 16.5t36.5 8q31 0 54 -19.5t55 -74.5q30 -55 68 -129q49 -97 67 -129q31 -60 53 -82t56 -33q47 -15 47 -51
q0 -25 -20.5 -42t-71.5 -36q-112 -41 -179 -41q-56 0 -91.5 25t-67.5 86q-36 69 -62 127l-53 117q-46 94 -76 94q-18 0 -37 -29q-131 -204 -161 -348q-9 -37 -54 -43l-190 -20q-21 -3 -31 -3q-41 0 -41 35q0 9 2 15l228 1118q16 91 16 108q0 31 -23 48.5t-51 22.5t-51 20
t-23 42q0 49 97 64q145 20 309 72q27 8 45 8q55 0 55 -51q0 -11 -2 -19l-184 -907q-2 -6 -2 -14q0 -7 6 -7q5 0 8 7q93 151 262 335q92 98 188 158t173 60z" />
    <glyph glyph-name="l" unicode="l" horiz-adv-x="659" 
d="M539 231q36 0 36 -41q0 -56 -108 -135q-110 -78 -221 -78q-82 0 -129 46t-47 137q0 71 104 549q107 481 107 542q0 31 -23 49t-50 23.5t-50 20.5t-23 42q0 52 96 64q145 20 299 68q37 12 52 12q53 0 53 -53q0 -45 -123 -625t-123 -621q0 -51 37 -51q21 0 57 25
q36 26 56 26z" />
    <glyph glyph-name="m" unicode="m" horiz-adv-x="1957" 
d="M1839 231q17 0 28 -11t11 -30q0 -61 -113 -137q-110 -76 -223 -76q-170 0 -170 179q0 70 53 309q56 239 56 299q0 76 -62 76q-55 0 -119.5 -70t-119.5 -190q-85 -188 -131 -404l-29 -133q-6 -37 -53 -43l-187 -20q-18 -3 -26 -3q-41 0 -41 37q0 9 2 15l112 553
q25 119 25 172q0 86 -61 86q-55 0 -119 -69t-121 -191q-88 -180 -135 -404l-29 -133q-6 -37 -53 -43l-184 -20q-21 -3 -33 -3q-37 0 -37 35q0 11 2 19l137 676q17 97 17 106q0 31 -23 49t-50 24t-50 21.5t-23 42.5q0 50 96 62q162 21 306 71q24 9 43 9q55 0 55 -50
q0 -12 -2 -20l-37 -186l-2 -13q0 -9 8 -6q6 4 10 10q176 265 383 265q111 0 169.5 -70t58.5 -195q0 -12 8 -12q3 0 10 10q170 267 377 267q83 0 153 -52q72 -54 72 -176q0 -81 -53 -344t-53 -293q0 -49 37 -49q23 0 57 27q33 26 53 26z" />
    <glyph glyph-name="n" unicode="n" horiz-adv-x="1378" 
d="M1262 231q36 0 36 -43q0 -52 -104 -131q-106 -80 -225 -80q-82 0 -130 47t-48 138q0 64 49 276q51 211 51 291q0 113 -84 113q-59 0 -128.5 -72t-127.5 -190q-55 -113 -94 -238q-31 -113 -68 -299q-6 -37 -53 -43l-191 -20q-21 -3 -28 -3q-37 0 -37 37q0 9 2 17l137 676
q19 100 19 112q0 29 -23 46t-51 22.5t-51 20.5t-23 40q3 18 9.5 29t21 18t26.5 9.5t39 7.5q145 20 299 69q37 11 52 11q55 0 55 -50q0 -12 -2 -20l-39 -184q-2 -6 -2 -15q0 -6 6 -6q5 0 10 8q173 267 398 267q113 0 183.5 -64t70.5 -180q0 -75 -54 -328q-51 -239 -51 -289
q0 -51 35 -51q20 0 59 25q36 26 56 26z" />
    <glyph glyph-name="o" unicode="o" horiz-adv-x="1189" 
d="M535 135q86 -1 152 79t97.5 200.5t28.5 251.5q0 272 -164 272q-102 0 -170 -92q-112 -153 -112 -424q0 -136 44 -211.5t124 -75.5zM694 1092q212 0 332 -123q119 -122 119 -318q0 -275 -191 -475q-190 -199 -473 -199q-206 0 -327 127q-119 128 -119 330q0 278 201 467
q203 191 458 191z" />
    <glyph glyph-name="p" unicode="p" horiz-adv-x="1284" 
d="M977 1094q109 0 177.5 -80.5t68.5 -225.5q0 -106 -37.5 -237t-108.5 -262q-72 -138 -201 -225t-282 -87q-16 0 -33 1t-32 3t-30 5t-28 6t-24.5 5.5t-20 5.5t-15 5t-9.5 3l-3 1q-9 0 -12 -14q-22 -119 -22 -170q0 -42 16.5 -68.5t36.5 -35t36.5 -23.5t16.5 -37
q0 -59 -92 -59h-430q-76 0 -76 49q0 21 14 35.5t34 23.5t47.5 30.5t47.5 51.5q38 59 68 215l141 697q19 100 19 110q0 29 -23 46.5t-51 23.5t-51 21t-23 40q0 52 97 64q156 23 296 69q37 11 52 11q55 0 55 -52q0 -12 -2 -18l-39 -195l-2 -14q0 -9 6 -5q4 2 8 9
q68 106 181 193q110 84 229 84zM625 125q126 0 217 319q49 180 49 275q0 125 -76 125q-107 0 -250 -254q-119 -204 -119 -324q0 -69 86 -116q48 -25 93 -25z" />
    <glyph glyph-name="q" unicode="q" horiz-adv-x="1224" 
d="M1161 1008l-213 -1057q-16 -91 -16 -121q0 -40 17 -67t37 -37t37 -26.5t17 -37.5q0 -57 -92 -57h-428q-78 0 -78 51q0 22 23 37t59.5 38t59.5 56q37 49 61 180l57 283q3 18 -2 18q-3 0 -8 -8q-188 -283 -413 -283q-60 0 -111 25q-133 66 -133 289q0 142 43 283t121 257
q80 120 201 190.5t259 70.5q84 0 191 -35q100 -33 123 -33q39 0 80 35t63 35q49 0 49 -54q0 -4 -4 -32zM637 942q-70 0 -117 -65t-92 -199q-66 -207 -66 -330t76 -123q106 0 250 252q121 210 121 324q0 73 -86 117q-50 24 -86 24z" />
    <glyph glyph-name="r" unicode="r" horiz-adv-x="976" 
d="M944 1092q65 0 101 -43.5t36 -118.5q0 -63 -24 -106.5t-72 -43.5q-32 0 -78 27q-47 29 -73 29q-128 0 -269 -261q-103 -192 -149 -411l-25 -121q-6 -37 -53 -43l-193 -20q-21 -3 -26 -3q-39 0 -39 35q0 11 2 17l139 678q19 100 19 110q0 29 -23 46t-51 22.5t-51 20.5
t-23 42q0 49 96 64q165 24 314 71q27 9 39 9q53 0 53 -50q0 -12 -2 -20l-37 -182q-2 -6 -2 -15q0 -11 8 -8q6 4 10 10q81 122 186 193.5t187 71.5z" />
    <glyph glyph-name="s" unicode="s" horiz-adv-x="1003" 
d="M0 225q0 164 92 164q36 0 58 -31l53 -71q106 -142 235 -142q67 0 111.5 37t44.5 86q0 31 -27 59t-65 42q-13 6 -96 34q-73 25 -93 35q-194 83 -194 252q0 162 149 281q151 121 363 121q147 0 241 -52q72 -41 72 -129q0 -53 -12 -100q-18 -72 -84 -72q-31 0 -60 29l-43 68
q-67 104 -182 104q-63 0 -106 -31.5t-43 -85.5q0 -31 16 -51.5t51 -40.5l43 -18l109 -39q130 -47 197 -114.5t67 -174.5q0 -149 -145 -279q-144 -129 -383 -129q-100 0 -189.5 27t-128.5 66q-51 48 -51 155z" />
    <glyph glyph-name="t" unicode="t" horiz-adv-x="851" 
d="M721 250q18 0 30.5 -11.5t12.5 -29.5q0 -57 -115 -146q-115 -86 -272 -86q-128 0 -202.5 69.5t-74.5 193.5q0 56 19 143q20 93 55 229q24 92 57 236q2 6 2 14q0 15 -18 15h-121q-26 0 -26 26q0 9 2 17l14 77q6 29 43 35q133 21 203 88q58 58 92 164q9 33 41 33h131
q27 0 27 -27q0 -7 -3 -16l-36 -182q-4 -28 -4 -33q0 -29 47 -29q46 0 96 4q29 3 60 6.5t43.5 5t15.5 1.5q59 0 59 -33q0 -13 -20 -66q-18 -46 -41.5 -63t-75.5 -17q-13 0 -53 3t-43 3q-38 3 -109 3q-21 0 -27 -21q-81 -353 -81 -516q0 -160 108 -160q42 0 92 35q53 35 72 35
z" />
    <glyph glyph-name="u" unicode="u" 
d="M1264 231q14 0 25 -12t11 -29q0 -57 -106 -135q-110 -78 -227 -78q-80 0 -126 46t-46 135q0 32 6 73l2 15q0 6 -6 6t-9 -6q-174 -269 -405 -269q-109 0 -176.5 61.5t-67.5 180.5q0 91 49 332q50 245 50 270q0 24 -15 38.5t-36.5 21.5t-43 13t-36.5 19.5t-15 34.5
q0 52 96 64q132 15 304 71q27 9 47 9q55 0 55 -52q0 -10 -2 -18l-111 -539q-18 -88 -18 -143q0 -113 84 -113q59 0 128.5 72t127.5 190q85 174 133 402l29 135q6 37 53 43l188 21q14 2 31 2q39 0 39 -39q0 -9 -2 -15l-129 -624q-31 -158 -31 -181q0 -53 37 -53q23 0 59 25
q33 26 54 26z" />
    <glyph glyph-name="v" unicode="v" horiz-adv-x="1239" 
d="M1047 1092q149 0 149 -197q0 -224 -147 -485q-87 -161 -226 -291q-151 -144 -329 -144q-132 0 -222 84q-90 87 -90 306q0 85 13 235q14 129 14 188q0 20 -4.5 32.5t-18.5 20t-20 9.5t-29 8q-82 15 -82 62q0 44 92 65q149 34 293 94q32 13 54 13q57 0 57 -54q0 -1 -4 -37
l-8 -55q-3 -19 -13.5 -94.5t-18 -129.5t-16.5 -125t-13.5 -125t-4.5 -87q0 -211 123 -211q83 0 170 90q86 92 139 201q68 133 68 227q0 48 -17 82.5t-41 52.5t-48 33t-41 36t-17 50q0 51 78 98q79 48 160 48z" />
    <glyph glyph-name="w" unicode="w" horiz-adv-x="1796" 
d="M1333 940q0 63 92 107q91 45 170 45q154 0 154 -224q0 -247 -125 -485q-95 -189 -233 -297q-136 -109 -263 -109q-138 0 -208 87.5t-70 234.5v39q0 8 -6 8q-5 0 -8 -6q-93 -172 -216 -267.5t-247 -95.5q-104 0 -168 60.5t-64 179.5q0 95 49 336q52 241 52 266t-15 40
t-37 21.5l-44 13t-37 19.5t-15 35q0 52 96 64q133 15 306 71q24 9 45 9q55 0 55 -52q0 -12 -2 -18l-111 -537q-26 -121 -26 -170q0 -86 67 -86q53 0 116 69.5t124 190.5q75 147 131 404l29 131q6 37 51 43l190 23q14 2 27 2q39 0 39 -35q0 -11 -2 -19l-88 -426
q-33 -156 -33 -247q0 -170 115 -170q67 0 134.5 63t121.5 184q57 123 57 226q0 59 -21 97.5t-50.5 57t-59.5 32t-51 34t-21 51.5z" />
    <glyph glyph-name="x" unicode="x" horiz-adv-x="1148" 
d="M1053 1092q58 0 92 -43q53 -62 53 -150q0 -45 -25 -74.5t-67 -29.5q-15 0 -56.5 11t-58.5 11q-35 0 -71 -22q-84 -53 -175 -258l150 -281q44 -81 76 -100q4 -2 31.5 -11.5t41 -22t9.5 -32.5q0 -42 -113 -82q-95 -31 -154 -31q-88 0 -147 111l-162 315
q-205 -426 -403 -426q-45 0 -76.5 24t-45 59.5t-19 62t-5.5 45.5q0 48 24.5 77t67.5 29q17 0 57.5 -11t55.5 -11q36 0 72 22q89 56 188 289l-131 250q-41 77 -69 94q-11 8 -39.5 19t-42 22.5t-9.5 30.5q0 33 52 57q40 23 106.5 39.5t110.5 16.5q54 0 84 -23.5t63 -87.5
l146 -287q59 121 147 240q55 74 118.5 116t123.5 42z" />
    <glyph glyph-name="y" unicode="y" horiz-adv-x="1114" 
d="M963 1092q141 0 141 -144q0 -159 -121 -422q-120 -262 -299 -495q-159 -207 -327 -316.5t-316 -109.5q-108 0 -171 58.5t-63 166.5q0 115 87 115q18 0 47.5 -21.5t59 -47.5t74.5 -47.5t89 -21.5q106 0 207 87q12 12 12 26q0 13 -2 21q-121 557 -207 796q-23 63 -45 88
t-66 37q-31 0 -57 17t-26 49q0 18 6 28.5t24 20.5q11 6 32.5 14.5t57.5 21t60 21.5l61 27q69 31 101 31q57 0 84 -68q94 -232 208 -793q3 -12 15 -12q7 0 12 8q79 115 137 265q62 157 62 237q0 40 -14 67t-34.5 40.5t-41 25t-34.5 29.5t-14 45q0 68 105 121q72 35 156 35z
" />
    <glyph glyph-name="z" unicode="z" horiz-adv-x="1144" 
d="M1038 100q-49 -190 -250 -190q-114 0 -350 74q-232 73 -295 73q-27 0 -72.5 -17t-58.5 -17q-21 0 -38 15.5t-17 39.5q0 41 88 129q86 86 162 86q21 0 31 -2l452 438q-23 6 -139 53q-115 47 -172 47q-83 0 -135 -98q-14 -26 -33 -26q-2 0 -18 4l-72 24q-25 9 -25 31
q0 12 6 27q108 301 336 301q89 0 226 -58q134 -57 194 -57q76 0 158 76q14 14 28 14q11 0 25 -14l64 -66q12 -12 12 -20q0 -7 -12 -19l-715 -690q248 -57 348 -57q46 0 90.5 17.5t72 38.5t54 38.5t41.5 17.5q26 0 44.5 -16.5t18.5 -42.5q0 -24 -22 -82q-27 -71 -27 -72z" />
    <glyph glyph-name="braceleft" unicode="{" horiz-adv-x="1064" 
d="M168 528q-31 9 -31 39q0 13 2 23l8 47q9 36 52 45q72 5 122 38.5t76 76.5q17 24 29 75q15 55 18 86q10 51 17 111q31 234 159 347.5t373 113.5q41 0 41 -23q0 -8 -2 -14l-16 -82q-9 -39 -49 -39q-98 0 -138 -67q-40 -66 -67 -238q-35 -229 -88 -319q-56 -95 -213 -148
q-15 -6 -15 -14q0 -7 15 -13q147 -61 147 -223q0 -74 -35 -211q-32 -125 -32 -188q0 -54 26 -79.5t88 -33.5q35 -3 35 -26q0 -9 -2 -15l-16 -82q-6 -34 -58 -34q-370 0 -370 278q0 68 35 205q36 130 36 196q0 65 -33.5 104.5t-113.5 63.5z" />
    <glyph glyph-name="bar" unicode="|" horiz-adv-x="651" 
d="M395 -395h-141q-29 0 -29 30v2120q0 31 29 31h141q29 0 29 -31v-2120q0 -30 -29 -30z" />
    <glyph glyph-name="braceright" unicode="}" horiz-adv-x="1087" 
d="M901 682q31 -9 31 -39q0 -12 -2 -22l-8 -48q-9 -36 -52 -45q-131 -10 -200 -116q-14 -19 -29 -76l-18 -84l-15 -111q-31 -234 -159 -347t-373 -113q-41 0 -41 22q0 8 2 14l16 82q9 39 49 39q97 0 138 68q40 66 67 237q35 228 88 318q57 96 213 149q15 6 15 15q0 6 -15 12
q-147 61 -147 223q0 82 33 211q34 133 34 189q0 54 -26 79t-88 33q-35 3 -35 27q0 8 2 14l16 82q6 35 58 35q370 0 370 -279q0 -71 -37 -204q-34 -133 -34 -197q0 -65 33.5 -104.5t113.5 -63.5z" />
    <glyph glyph-name="asciitilde" unicode="~" horiz-adv-x="1251" 
d="M160 426l-76 25q-25 9 -25 30q0 8 7 29q114 311 356 311q95 0 250 -61q157 -62 219 -62q88 0 147 95q17 26 43 26q3 0 23 -4l57 -18q31 -9 31 -31q0 -7 -6 -25q-120 -313 -350 -313q-98 0 -256 61q-157 62 -220 62q-94 0 -143 -100q-16 -29 -35 -29q-6 0 -22 4z" />
    <glyph glyph-name="uni00A0" unicode="&#xa0;" horiz-adv-x="436" 
 />
    <glyph glyph-name="exclamdown" unicode="&#xa1;" horiz-adv-x="712" 
d="M133 426q3 8 14 46t15 48q19 43 42 66.5t64 23.5q48 0 69 -23.5t21 -78.5q0 -30 -6 -119l-8 -168q0 -49 -2 -104q0 -63 -4 -137q-2 -106 -30 -205.5t-83 -128.5q-59 -41 -147 -41q-170 0 -170 145q0 64 31 152q21 67 90 235q56 136 104 289zM553 903q0 -49 -90 -127
q-89 -74 -139 -74q-48 0 -117 78q-68 80 -68 133q0 47 90 125t142 78q46 0 114 -80t68 -133z" />
    <glyph glyph-name="cent" unicode="&#xa2;" horiz-adv-x="1079" 
d="M985 1049q88 -40 88 -129q0 -152 -96 -152q-18 0 -55 14q-19 19 -31 23l-29 26q-108 99 -200 99q-130 0 -207 -150q-78 -153 -78 -321q0 -133 55.5 -207t155.5 -74t200 74q75 57 113 57q24 0 42 -16.5t18 -40.5q0 -44 -68 -109q-140 -134 -340 -161l-31 -152
q-6 -29 -35 -29h-79q-27 0 -27 25q0 8 2 14l29 142q-161 23 -258 136.5t-97 282.5q0 243 168 435q169 196 408 243l35 170q6 29 34 29h80q27 0 27 -23q0 -10 -2 -16l-29 -147q120 -3 207 -43z" />
    <glyph glyph-name="sterling" unicode="&#xa3;" horiz-adv-x="1257" 
d="M1067 354q20 0 37.5 -16.5t17.5 -36.5q0 -13 -9 -33t-23.5 -47.5t-20.5 -42.5q-44 -103 -110 -152t-173 -49q-124 0 -368 86q-244 89 -320 89q-33 0 -77 -14.5t-46 -14.5q-14 0 -25 10.5t-11 28.5q0 36 88 100q94 66 174 66q10 0 24 -1t27 -2t24.5 -2.5t19.5 -2.5l7 -1
q6 0 21 5q129 58 129 194q0 23 -11 60h-258q-24 0 -24 20q0 10 2 16l12 62q6 26 35 26h184q-51 119 -51 201q0 160 141 268q143 107 355 107q148 0 225 -47q51 -34 51 -117q0 -38 -6 -72q-15 -92 -76 -92q-23 0 -45 19q-31 31 -53 67q-70 94 -158 94q-60 0 -101.5 -44
t-41.5 -107q0 -49 43 -150q36 -82 51 -127h315q27 0 27 -22q0 -10 -2 -16l-12 -60q-6 -26 -35 -26h-268v-13q0 -96 -60 -169t-157 -113q-13 -3 -13 -9q0 -5 15 -8q159 -28 223 -28q54 0 98.5 12t72.5 29t51 34t44 29t41 12z" />
    <glyph glyph-name="currency" unicode="&#xa4;" horiz-adv-x="1484" 
d="M1114 317l229 -229q7 -8 7 -19t-7 -18l-61 -61q-8 -8 -19 -8t-18 8l-231 231q-125 -88 -275 -88q-155 0 -274 88l-225 -223q-24 -24 -47 -2l-58 55q-7 7 -7 18t7 19l230 229q-93 128 -93 277q0 154 93 276l-230 230q-10 10 -10 20q0 9 10 19l60 59q10 10 20 10
q8 0 18 -10l232 -231q119 88 274 88q150 0 275 -88l231 231q7 8 18 8t19 -8l61 -59q11 -11 11 -21q0 -7 -11 -18l-229 -230q92 -121 92 -276q0 -150 -92 -277zM946 594q0 88 -60.5 149.5t-146.5 61.5t-146.5 -61.5t-60.5 -149.5q0 -86 60.5 -147.5t146.5 -61.5t146.5 61.5
t60.5 147.5z" />
    <glyph glyph-name="yen" unicode="&#xa5;" horiz-adv-x="1546" 
d="M1126 1266h330q57 0 57 -41q0 -29 -38 -49q-72 -42 -119 -89q-68 -62 -158 -174l-106 -127q-13 -16 -13 -20q0 -10 15 -10h200q23 0 23 -19q0 -8 -2 -16l-10 -47q-6 -25 -31 -25h-273q-22 0 -38 -16l-72 -86q-12 -15 -12 -21q0 -10 14 -10h350q25 0 25 -18q0 -9 -2 -17
l-11 -47q-6 -24 -30 -24h-361q-27 0 -33 -25l-6 -27q-22 -107 -22 -153q0 -40 16 -66t35 -35.5t35 -23.5t16 -33q0 -47 -82 -47h-430q-55 0 -55 43q-3 18 11.5 31t34.5 21.5t45.5 27t39.5 43.5q29 51 55 170l8 41q3 9 3 14q0 19 -23 19h-354q-21 0 -21 18q0 8 2 14l11 47
q3 27 28 27h318q20 0 20 10q0 1 -4 17l-31 90q-6 16 -30 16h-242q-23 0 -23 21q0 8 2 14l9 47q6 25 30 25h187q18 0 18 12l-4 16l-82 230q-36 99 -55 123q-4 6 -42 33.5t-38 46.5q0 49 76 49h385q59 0 59 -41q0 -28 -51 -51q-49 -24 -49 -66q0 -24 8 -43l139 -401
q1 -6 8 -6.5t11 4.5q157 186 239 299q88 119 88 159q0 27 -34 51q-35 27 -35 50q0 45 71 45z" />
    <glyph glyph-name="brokenbar" unicode="&#xa6;" horiz-adv-x="651" 
d="M395 752h-141q-29 0 -29 30v973q0 31 29 31h141q29 0 29 -31v-973q0 -30 -29 -30zM395 -395h-141q-29 0 -29 30v973q0 31 29 31h141q29 0 29 -31v-973q0 -30 -29 -30z" />
    <glyph glyph-name="section" unicode="&#xa7;" horiz-adv-x="1245" 
d="M782 600q0 57 -49.5 96t-118.5 39q-76 0 -134 -42.5t-58 -108.5q0 -60 51.5 -99t120.5 -39q74 0 131 44t57 110zM741 315q166 -108 166 -278q0 -179 -147 -305q-145 -127 -354 -127q-116 0 -219 39t-142 94q-29 44 -29 104q0 40 15 111q15 82 78 82q37 0 65 -35
q31 -47 45 -78q42 -75 92 -114t123 -39q77 0 133 45.5t56 115.5q0 62 -56 107q-25 20 -53 37q-1 1 -141 82q-213 127 -213 323q0 118 75.5 217t202.5 146q6 3 6 6l-10 10q-141 102 -141 264q0 165 135 285q138 123 342 123q180 0 287 -82q61 -46 61 -119q0 -123 -39 -162
q-22 -22 -59 -22q-24 0 -43 17t-31 42.5t-30.5 55t-39 55t-57 42.5t-84.5 17q-68 0 -116 -40.5t-48 -106.5q0 -41 25.5 -75t67.5 -59.5t92 -51t100.5 -55.5t92.5 -66.5t67.5 -91t25.5 -121.5q0 -129 -88 -230q-87 -101 -204 -141q-12 -4 -16.5 -7.5t-2.5 -6.5t10 -7z" />
    <glyph glyph-name="dieresis" unicode="&#xa8;" horiz-adv-x="1034" 
d="M850 1495q10 -17 10 -45q0 -45 -15.5 -94.5t-37.5 -67.5q-34 -24 -115 -24q-82 0 -100 24q-12 12 -12 47q0 44 16 93t39 67q31 25 113 25q80 0 102 -25zM438 1495q11 -18 11 -45q0 -45 -16 -94.5t-38 -67.5q-35 -24 -114 -24q-83 0 -101 24q-10 10 -10 47q0 45 15.5 93.5
t37.5 66.5q31 25 113 25q80 0 102 -25z" />
    <glyph glyph-name="copyright" unicode="&#xa9;" horiz-adv-x="1755" 
d="M246 731q0 -263 184 -450q187 -187 449 -187q259 0 446 187q186 186 186 450q0 265 -186 451q-185 188 -446 188t-449 -188q-184 -187 -184 -451zM123 731q0 314 221 535t535 221q311 0 532 -221t221 -535q0 -311 -221 -532q-222 -222 -532 -222q-313 0 -535 222
q-221 221 -221 532zM852 434q63 0 115 33.5t80 79.5q67 115 110 115q55 0 55 -56q0 -36 -16 -98q-28 -93 -70 -127q-91 -66 -274 -66q-198 0 -311 101q-115 103 -115 258q0 212 176 356t430 144q162 0 223 -52q27 -24 27 -75q0 -52 -14 -107q-21 -94 -72 -94q-8 0 -14.5 1
t-12.5 4t-9.5 5t-8 8.5t-7 10t-6.5 13.5t-6.5 16t-7.5 20t-8 22q-40 111 -147 111q-133 0 -213 -121t-80 -270q0 -112 49 -172t127 -60z" />
    <glyph glyph-name="ordfeminine" unicode="&#xaa;" horiz-adv-x="985" 
d="M340 315q-8 8 -8 37q0 37 12.5 78.5t30.5 54.5q27 21 94 21q63 0 84 -21q8 -8 8 -36q0 -37 -13.5 -79t-31.5 -55q-20 -20 -92 -20q-70 0 -84 20zM516 1364q-76 0 -135 -207q-29 -113 -29 -172q0 -80 45 -80q61 0 150 160q74 136 74 205q0 39 -35.5 66.5t-69.5 27.5z
M756 1438q18 0 57 24.5t51 24.5q35 0 35 -35q0 -14 -8 -41l-60 -268q-49 -232 -49 -262q0 -39 27 -39q8 0 37 18.5t41 18.5t21.5 -9.5t9.5 -21.5q0 -39 -70 -94q-69 -54 -150 -54q-63 0 -98 40t-35 112q0 13 4 41v8q0 6 -4 6q-2 0 -10 -14q-61 -92 -137 -143.5t-150 -51.5
q-75 0 -123.5 52.5t-48.5 167.5q0 204 107 372q126 197 334 197q58 0 131 -25q74 -24 88 -24z" />
    <glyph glyph-name="guillemotleft" unicode="&#xab;" horiz-adv-x="1132" 
d="M629 518l243 -260q15 -15 15 -33q0 -10 -2 -16l-27 -135q-3 -13 -14 -13q-6 0 -15 9l-419 452q-23 23 8 45l602 451q17 10 18 10q11 0 11 -10q0 -6 -2 -12l-33 -160q-3 -29 -35 -51l-348 -260q-6 -6 -6 -9q0 -4 4 -8zM209 557l246 -262q14 -14 14 -31q0 -12 -2 -18
l-29 -140q-3 -10 -12 -10q-6 0 -14 8l-340 365q-11 15 -11 23t2 14l31 145q6 23 25 39l483 363q8 8 16 8q11 0 11 -10q0 -9 -2 -15l-31 -153q-3 -26 -35 -52l-340 -253q-19 -14 -12 -21z" />
    <glyph glyph-name="logicalnot" unicode="&#xac;" horiz-adv-x="1654" 
d="M145 1069h1285v-635h-201v434h-1084v201z" />
    <glyph glyph-name="softhyphen" unicode="&#xad;" horiz-adv-x="778" 
d="M82 485l31 156q6 31 37 31h487q29 0 29 -23q0 -10 -2 -18l-33 -156q-6 -31 -35 -31h-487q-29 0 -29 25q0 10 2 16z" />
    <glyph glyph-name="registered" unicode="&#xae;" horiz-adv-x="1112" 
d="M1094 989q0 -204 -146 -350q-145 -145 -352 -145t-352 145q-146 146 -146 350q0 206 146 352t352 146t352 -146t146 -352zM596 592q160 0 274 117q115 118 115 280q0 163 -115 281q-113 116 -274 116q-164 0 -277 -116q-112 -115 -112 -281q0 -120 63 -217q33 19 49 48.5
t33 103.5l33 170q12 70 12 77q0 27 -28 43q-27 15 -27 33q0 27 43 27h315q114 0 150 -39q29 -29 29 -76q0 -64 -51 -105t-128 -46q-11 0 -12 -6q0 -7 14 -9q40 -8 62.5 -29t40.5 -73q36 -95 49 -111q3 -3 10 -9t10 -9t6 -9t3 -12q0 -30 -43 -30h-76q-44 0 -66 16
q-20 16 -53 121q-28 82 -63 96q-16 8 -56 8q-11 0 -14 -10q-16 -85 -16 -104q0 -42 26 -62q29 -23 29 -33q0 -32 -45 -32h-187q113 -119 277 -119zM545 1034h47q108 0 108 94q0 64 -96 64h-31q-11 0 -14 -12l-24 -121q-3 -9 -3 -15q0 -10 13 -10z" />
    <glyph glyph-name="overscore" unicode="&#xaf;" horiz-adv-x="1081" 
d="M137 1350l19 86q6 26 34 26h732q26 0 26 -22q0 -11 -2 -17l-18 -88q-6 -26 -35 -26h-733q-25 0 -25 24q0 11 2 17z" />
    <glyph glyph-name="degree" unicode="&#xb0;" horiz-adv-x="563" 
d="M238 1380q-35 -35 -35 -86t35 -88q37 -35 88 -35t86 35q35 37 35 88t-35 86q-35 37 -86 37t-88 -37zM156 1128q-69 69 -69 166t69 166q70 70 170 70q98 0 168 -70q69 -69 69 -166t-69 -166t-168 -69q-101 0 -170 69z" />
    <glyph glyph-name="plusminus" unicode="&#xb1;" horiz-adv-x="1380" 
d="M1184 874v-94q0 -30 -29 -30h-369q-10 0 -12 -2t-2 -13v-344q0 -31 -31 -31h-102q-31 0 -31 31v344q0 11 -2 13t-12 2h-367q-30 0 -30 30v94q0 31 30 31h367q10 0 12 2t2 13v344q0 30 31 30h102q31 0 31 -30v-344q0 -11 2 -13t12 -2h369q29 0 29 -31zM197 160v92
q0 31 30 31h926q31 0 31 -31v-92q0 -31 -31 -31h-926q-30 0 -30 31z" />
    <glyph glyph-name="two.superior" unicode="&#xb2;" horiz-adv-x="733" 
d="M180 1794q88 61 223 61q111 0 193 -49q84 -50 84 -151q0 -112 -107 -182q-62 -39 -163 -62q-102 -23 -136 -37q-71 -30 -71 -57q0 -10 14 -10h189q39 0 59 4q25 5 68 34t55 29q20 0 33.5 -11.5t13.5 -31.5q0 -15 -33 -100l-12 -33q-7 -25 -25 -57q-24 -56 -104 -56
q-4 0 -65.5 3.5t-96.5 3.5h-242q-33 0 -45 13.5t-12 49.5q0 149 121 252q26 22 65 44.5t83 44t53 26.5q108 58 108 143q0 68 -63 68q-34 0 -62.5 -26.5t-44.5 -57.5t-40.5 -57.5t-51.5 -26.5q-49 0 -49 71q0 112 61 158z" />
    <glyph glyph-name="three.superior" unicode="&#xb3;" horiz-adv-x="727" 
d="M442 1477q74 -6 129.5 -49t55.5 -107q0 -97 -105 -174q-104 -78 -268 -78q-148 0 -213 68q-43 52 -43 141q0 74 63 74q19 0 35.5 -16t31 -39t31.5 -46t45 -39t64 -16q49 0 81 43t32 100q0 78 -86 78q-13 0 -43.5 -3t-38.5 -3q-35 0 -35 33q0 8 4 27t4 22q9 55 52 55
q3 0 31.5 -3t41.5 -3q62 0 86 41q25 39 25 78q0 65 -68 65q-64 0 -133 -84q-9 -9 -25.5 -30.5t-28.5 -30t-30 -8.5q-47 0 -47 53q0 92 53 148q76 79 248 79q107 0 193 -45q90 -44 90 -131q0 -69 -60 -121t-165 -65q-13 -2 -13 -9q2 -4 6 -5z" />
    <glyph glyph-name="acute" unicode="&#xb4;" horiz-adv-x="944" 
d="M766 1452l-313 -176q-48 -25 -107 -25h-162q-18 0 -18 15q0 6 8 14l182 174q33 33 95 33h301q28 0 28 -17q0 -12 -14 -18z" />
    <glyph glyph-name="mu" unicode="&#xb5;" horiz-adv-x="1654" 
d="M719 1036q-19 -94 -45 -209l-41 -194l-31 -154q-31 -143 -31 -203q0 -98 80 -98q67 0 138 61.5t133 176.5q77 143 139 422l37 178q9 45 55 51l209 23q14 2 29 2q39 0 39 -31q0 -1 -1 -4t-2 -9l-2 -12q-159 -777 -159 -800q0 -58 39 -58q21 0 55 27q33 26 57 26
q14 0 24.5 -10.5t10.5 -27.5q0 -41 -76 -111q-114 -105 -254 -105q-164 0 -164 170q0 5 1.5 25t1.5 23q0 12 -11 12q-9 0 -14 -8q-171 -222 -395 -222q-31 0 -59.5 6.5t-48.5 16t-35 19t-23 15.5l-8 7q-8 0 -11 -10q-27 -129 -32 -168q-5 -42 -7.5 -97t-6.5 -82t-15 -40
q-23 -39 -94 -39q-115 0 -115 76q0 31 14 75l41 125q76 246 135 549l119 594q6 39 56 45l215 21q14 2 28 2q29 0 29 -29q0 -2 -0.5 -5.5t-1.5 -10t-2 -11.5z" />
    <glyph glyph-name="pilcrow" unicode="&#xb6;" horiz-adv-x="1699" 
d="M971 1462h618q81 0 114.5 -13t33.5 -50q0 -11 -11 -60q-6 -24 -28 -24q-4 0 -54 13t-77 13q-70 0 -117 -53t-74 -174q-26 -115 -67 -377q-44 -286 -95 -458q-49 -161 -124 -263q-88 -119 -227 -169t-351 -50q-297 0 -297 76q0 10 2 16l14 70q9 31 31 31q3 0 57 -23
q52 -22 103 -22q69 -8 121.5 33.5t85.5 111.5q19 33 41 121q14 54 32 143q22 108 35 185q2 8 2 20q0 23 -30 23q-298 0 -430 114q-129 114 -129 289q0 206 178 344q77 62 198 92q129 32 207 35q88 6 238 6zM739 737q33 0 39 33q44 239 87 361t114 182h-88q-225 0 -326 -82
q-104 -82 -104 -240q0 -123 73.5 -188.5t204.5 -65.5zM1130 686l19 115q13 76 22 117l19 100q15 69 24 100q1 2 12 32t17 50q28 80 80 139q-147 0 -229 -88q-39 -43 -68 -127q-32 -103 -49 -182q-25 -108 -49 -260q-64 -382 -115 -530q-50 -145 -151 -230q152 3 241 80
q89 74 129 211q41 131 98 473z" />
    <glyph glyph-name="middot" unicode="&#xb7;" horiz-adv-x="659" 
d="M537 555q0 -48 -91 -127q-89 -74 -139 -74q-48 0 -117 78q-67 79 -67 133q0 47 90 125t141 78q47 0 115 -80t68 -133z" />
    <glyph glyph-name="cedilla" unicode="&#xb8;" horiz-adv-x="868" 
d="M373 2h135q-72 -51 -72 -76q-3 -9 6.5 -15.5t28 -10t38.5 -6.5t44 -6.5t39 -8.5q86 -27 86 -96q0 -72 -92 -125q-91 -55 -224 -55q-55 0 -112 14q-60 15 -60 49q0 20 16.5 34.5t39.5 14.5q4 0 42 -8t62 -8q46 0 78.5 17.5t32.5 47.5q3 18 -25.5 31t-64.5 20.5t-64.5 23
t-25.5 38.5q0 51 92 125z" />
    <glyph glyph-name="one.superior" unicode="&#xb9;" horiz-adv-x="526" 
d="M469 1790l-135 -670q-6 -26 -35 -26h-168q-27 0 -27 24q0 11 2 17l93 454q8 41 8 58q0 34 -39 34q-8 0 -41 -4t-41 -4q-33 0 -33 37q0 81 39 90q32 8 98 15q96 13 152 26q53 12 76 12q53 0 53 -45q0 -12 -2 -18z" />
    <glyph glyph-name="ordmasculine" unicode="&#xba;" horiz-adv-x="946" 
d="M303 315q-8 8 -8 37q0 37 12.5 78.5t30.5 54.5q27 21 94 21q63 0 84 -21q8 -8 8 -36q0 -37 -13.5 -79t-31.5 -55q-20 -20 -92 -20q-70 0 -84 20zM451 831q61 0 102 62q74 109 74 285q0 178 -103 178q-62 0 -106 -62q-72 -101 -72 -278q0 -86 28 -135.5t77 -49.5z
M561 1487q147 0 232.5 -86t85.5 -225q0 -178 -129 -328q-127 -148 -349 -148q-135 0 -223 91q-84 93 -84 231q0 197 142 330q141 135 325 135z" />
    <glyph glyph-name="guillemotright" unicode="&#xbb;" horiz-adv-x="1120" 
d="M494 606l-244 260q-14 14 -14 33q0 10 2 16l26 136q3 12 15 12q6 0 14 -8l420 -453q10 -10 10 -20t-18 -25l-603 -451q-17 -10 -18 -10q-10 0 -10 10q0 7 2 13l33 160q3 29 34 51l349 260q6 6 6 8q0 4 -4 8zM913 567l-245 262q-15 15 -15 31q0 13 2 19l29 139q3 10 12 10
q7 0 15 -8l340 -365q10 -13 10 -22t-2 -15l-31 -145q-6 -24 -24 -39l-484 -362q-9 -9 -16 -9q-10 0 -10 11q0 8 2 14l30 154q3 25 35 51l340 254q18 14 12 20z" />
    <glyph glyph-name="onequarter" unicode="&#xbc;" horiz-adv-x="1652" 
d="M199 197l927 1069h193l-928 -1069h-192zM668 1421l-136 -669q-6 -27 -34 -27h-168q-27 0 -27 25q0 10 2 16l92 455q9 47 9 57q0 35 -39 35q-9 0 -41 -4t-41 -4q-33 0 -33 36q0 82 39 91q25 6 98 14q86 12 152 27q53 12 75 12q54 0 54 -45q0 -13 -2 -19zM1415 311h58
q30 0 30 -24q0 -9 -2 -17l-14 -73q-6 -31 -39 -31h-62q-19 0 -22 -21l-25 -116q-6 -29 -36 -29h-173q-26 0 -26 23q0 10 2 16l20 100q2 6 2 15q0 12 -16 12h-305q-33 0 -33 20q0 1 0.5 4l1.5 9l2 12l19 98q10 50 47 78q90 73 141 150q47 71 74 198q6 29 37 29h153
q21 0 21 -14q0 -9 -2 -15q-43 -236 -293 -403q-8 -5 -8 -13t10 -8h164q21 0 24 19l49 241q6 33 39 33h166q31 0 31 -26q0 -11 -2 -17l-45 -221q-2 -8 -2 -16q0 -13 14 -13z" />
    <glyph glyph-name="onehalf" unicode="&#xbd;" horiz-adv-x="1595" 
d="M199 197l927 1069h193l-928 -1069h-192zM668 1421l-136 -669q-6 -27 -34 -27h-168q-27 0 -27 25q0 10 2 16l92 455q9 47 9 57q0 35 -39 35q-9 0 -41 -4t-41 -4q-33 0 -33 36q0 82 39 91q25 6 98 14q86 12 152 27q53 12 75 12q54 0 54 -45q0 -13 -2 -19zM981 702
q89 62 223 62q111 0 193 -49q84 -50 84 -152q0 -112 -107 -182q-61 -39 -164 -62q-105 -24 -135 -36q-71 -30 -71 -58q0 -10 14 -10h188q40 0 60 4q25 5 68 34.5t55 29.5q20 0 33.5 -11.5t13.5 -31.5q0 -16 -33 -101l-12 -33q-7 -25 -25 -57q-24 -55 -104 -55q-3 0 -65.5 3
t-96.5 3h-242q-33 0 -45 13.5t-12 49.5q0 149 121 252q26 22 64.5 44t82.5 44t53 27q109 59 109 143q0 68 -64 68q-28 0 -51.5 -17.5t-39.5 -42t-31 -49t-34.5 -42t-41.5 -17.5q-49 0 -49 72q0 111 61 157z" />
    <glyph glyph-name="threequarters" unicode="&#xbe;" horiz-adv-x="1800" 
d="M1563 311h57q31 0 31 -24q0 -9 -2 -17l-15 -73q-6 -31 -39 -31h-61q-20 0 -23 -21l-24 -116q-6 -29 -37 -29h-172q-27 0 -27 23q0 10 2 16l21 100q2 6 2 15q0 12 -16 12h-306q-32 0 -32 20q0 1 0.5 4l1.5 9l2 12l18 98q10 50 47 78q92 75 142 150q45 69 73 198
q6 29 37 29h154q20 0 20 -14q0 -9 -2 -15q-43 -236 -293 -403q-8 -5 -8 -13t10 -8h164q22 0 25 19l49 241q6 33 39 33h166q30 0 30 -26q0 -11 -2 -17l-45 -221q-2 -8 -2 -16q0 -13 15 -13zM592 1110q74 -6 129 -49t55 -107q0 -98 -104 -174q-104 -78 -269 -78
q-148 0 -213 68q-43 49 -43 141q0 74 64 74q19 0 35.5 -16t31 -39t31.5 -46t45 -39t64 -16q49 0 80.5 43.5t31.5 100.5q0 78 -86 78q-13 0 -43.5 -3.5t-38.5 -3.5q-34 0 -34 33q0 8 4 27t4 22q9 56 51 56q3 0 32 -3t42 -3q62 0 86 41q24 37 24 77q0 66 -67 66
q-64 0 -133 -84q-10 -10 -26 -31t-28 -30t-30 -9q-47 0 -47 54q0 91 53 147q77 80 248 80q106 0 192 -45q90 -44 90 -131q0 -69 -60 -121.5t-165 -65.5q-13 -2 -12 -9q2 -4 6 -5zM350 197l928 1069h192l-927 -1069h-193z" />
    <glyph glyph-name="questiondown" unicode="&#xbf;" horiz-adv-x="1132" 
d="M465 -236q84 0 145 52q62 53 62 112q0 48 -49 72q-6 3 -29.5 8.5t-36 15.5t-12.5 29q0 50 63 92q62 45 152 45q88 0 142 -48.5t54 -131.5q0 -152 -159 -278q-157 -127 -408 -127q-200 0 -319 98q-117 99 -117 236q0 100 60.5 180t156.5 125q43 22 107 49t109.5 47
t89.5 43t67.5 47t23.5 49q0 34 -55 58t-55 53q0 38 53 58t123 20q89 0 143.5 -31t54.5 -92q0 -110 -192 -240q-43 -28 -60.5 -39.5t-59 -40t-61 -45t-53 -45t-50 -50.5t-35 -50t-26 -55.5t-7.5 -55.5q0 -69 50 -114.5t128 -45.5zM905 903q0 -49 -90 -127q-89 -74 -139 -74
q-48 0 -117 78q-67 79 -67 133q0 47 90 125t141 78q47 0 115 -80q67 -79 67 -133z" />
    <glyph glyph-name="Agrave" unicode="&#xc0;" horiz-adv-x="1470" 
d="M459 604h336q18 0 18 14q0 9 -2 15l-72 409q-1 18 -7.5 19.5t-12.5 -10.5l-264 -418q-9 -15 -9 -19q0 -10 13 -10zM1024 1446l207 -1153q11 -69 36.5 -114t53.5 -58q63 -27 63 -68q0 -53 -92 -53h-454q-66 0 -66 45q0 21 17.5 37t38 26t38 33.5t17.5 57.5q0 25 -6 63
l-27 156q-3 18 -29 18h-454q-32 0 -41 -20q-97 -186 -97 -240q0 -45 39 -74q41 -30 41 -53q0 -49 -82 -49h-356q-68 0 -68 45q-3 17 14.5 34.5t44 32t62.5 42.5t60 61q64 84 147 213l657 1016q20 33 54 33h137q39 0 45 -31zM897 1659l-233 166q-19 13 -19 24q0 21 27 21h291
q56 0 79 -33l121 -170q8 -8 8 -16q0 -17 -24 -17h-156q-58 0 -94 25z" />
    <glyph glyph-name="Aacute" unicode="&#xc1;" horiz-adv-x="1470" 
d="M459 604h336q18 0 18 14q0 9 -2 15l-72 409q-1 18 -7.5 19.5t-12.5 -10.5l-264 -418q-9 -15 -9 -19q0 -10 13 -10zM1024 1446l207 -1153q11 -69 36.5 -114t53.5 -58q63 -27 63 -68q0 -53 -92 -53h-454q-66 0 -66 45q0 21 17.5 37t38 26t38 33.5t17.5 57.5q0 25 -6 63
l-27 156q-3 18 -29 18h-454q-32 0 -41 -20q-97 -186 -97 -240q0 -45 39 -74q41 -30 41 -53q0 -49 -82 -49h-356q-68 0 -68 45q-3 17 14.5 34.5t44 32t62.5 42.5t60 61q64 84 147 213l657 1016q20 33 54 33h137q39 0 45 -31zM1221 1835l-314 -176q-48 -25 -106 -25h-162
q-18 0 -18 15q0 6 8 14l182 174q33 33 94 33h301q29 0 29 -17q0 -10 -14 -18z" />
    <glyph glyph-name="Acircumflex" unicode="&#xc2;" horiz-adv-x="1470" 
d="M459 604h336q18 0 18 14q0 9 -2 15l-72 409q-1 18 -7.5 19.5t-12.5 -10.5l-264 -418q-9 -15 -9 -19q0 -10 13 -10zM1024 1446l207 -1153q11 -69 36.5 -114t53.5 -58q63 -27 63 -68q0 -53 -92 -53h-454q-66 0 -66 45q0 21 17.5 37t38 26t38 33.5t17.5 57.5q0 25 -6 63
l-27 156q-3 18 -29 18h-454q-32 0 -41 -20q-97 -186 -97 -240q0 -45 39 -74q41 -30 41 -53q0 -49 -82 -49h-356q-68 0 -68 45q-3 17 14.5 34.5t44 32t62.5 42.5t60 61q64 84 147 213l657 1016q20 33 54 33h137q39 0 45 -31zM922 1755l-156 -125q-21 -18 -47 -18h-125
q-14 0 -14 10q0 4 6 10l223 215q23 23 49 23h195q28 0 41 -23l135 -215q2 -2 2 -8q0 -12 -14 -12h-111q-19 0 -37 18l-119 127q-8 8 -12 8q-1 0 -2.5 -1t-5.5 -4t-8 -5z" />
    <glyph glyph-name="Atilde" unicode="&#xc3;" horiz-adv-x="1470" 
d="M459 604h336q18 0 18 14q0 9 -2 15l-72 409q-1 18 -7.5 19.5t-12.5 -10.5l-264 -418q-9 -15 -9 -19q0 -10 13 -10zM1024 1446l207 -1153q11 -69 36.5 -114t53.5 -58q63 -27 63 -68q0 -53 -92 -53h-454q-66 0 -66 45q0 21 17.5 37t38 26t38 33.5t17.5 57.5q0 25 -6 63
l-27 156q-3 18 -29 18h-454q-32 0 -41 -20q-97 -186 -97 -240q0 -45 39 -74q41 -30 41 -53q0 -49 -82 -49h-356q-68 0 -68 45q-3 17 14.5 34.5t44 32t62.5 42.5t60 61q64 84 147 213l657 1016q20 33 54 33h137q39 0 45 -31zM635 1653l-43 14q-17 7 -17 21q0 1 1 3t2 6t2 7
q71 201 229 201q65 0 160 -39q98 -39 139 -39q53 0 94 59q13 19 27 19l16 -4l35 -13q20 -6 20 -18q0 -1 -4 -17q-76 -202 -225 -202q-64 0 -162 39q-103 41 -141 41q-58 0 -92 -64q-9 -18 -25 -18z" />
    <glyph glyph-name="Adieresis" unicode="&#xc4;" horiz-adv-x="1470" 
d="M459 604h336q18 0 18 14q0 9 -2 15l-72 409q-1 18 -7.5 19.5t-12.5 -10.5l-264 -418q-9 -15 -9 -19q0 -10 13 -10zM1024 1446l207 -1153q11 -69 36.5 -114t53.5 -58q63 -27 63 -68q0 -53 -92 -53h-454q-66 0 -66 45q0 21 17.5 37t38 26t38 33.5t17.5 57.5q0 25 -6 63
l-27 156q-3 18 -29 18h-454q-32 0 -41 -20q-97 -186 -97 -240q0 -45 39 -74q41 -30 41 -53q0 -49 -82 -49h-356q-68 0 -68 45q-3 17 14.5 34.5t44 32t62.5 42.5t60 61q64 84 147 213l657 1016q20 33 54 33h137q39 0 45 -31zM1272 1831q10 -17 10 -45q0 -45 -15.5 -94.5
t-37.5 -67.5q-36 -25 -115 -25q-81 0 -100 25q-13 13 -13 47q0 44 16.5 93t39.5 67q30 24 112 24t103 -24zM860 1831q10 -17 10 -45q0 -45 -15.5 -94.5t-37.5 -67.5q-36 -25 -115 -25q-81 0 -100 25q-10 10 -10 47q0 45 15.5 93.5t37.5 66.5q30 24 113 24q81 0 102 -24z" />
    <glyph glyph-name="Aring" unicode="&#xc5;" horiz-adv-x="1470" 
d="M459 604h336q18 0 18 14q0 9 -2 15l-72 409q-1 18 -7.5 19.5t-12.5 -10.5l-264 -418q-9 -15 -9 -19q0 -10 13 -10zM1024 1446l207 -1153q11 -69 36.5 -114t53.5 -58q63 -27 63 -68q0 -53 -92 -53h-454q-66 0 -66 45q0 21 17.5 37t38 26t38 33.5t17.5 57.5q0 25 -6 63
l-27 156q-3 18 -29 18h-454q-32 0 -41 -20q-97 -186 -97 -240q0 -45 39 -74q41 -30 41 -53q0 -49 -82 -49h-356q-68 0 -68 45q-3 17 14.5 34.5t44 32t62.5 42.5t60 61q64 84 147 213l657 1016q20 33 54 33h137q39 0 45 -31zM918 1595q37 0 62.5 25.5t25.5 62.5t-25.5 63
t-62.5 26q-35 0 -61 -26t-26 -63t25.5 -62.5t61.5 -25.5zM1104 1683q0 -75 -54 -129.5t-132 -54.5q-57 -3 -103.5 31.5t-68 83.5t-13.5 105t51 93q39 44 97 53t108 -11.5t84.5 -66.5t30.5 -104z" />
    <glyph glyph-name="AE" unicode="&#xc6;" horiz-adv-x="2097" 
d="M2052 1479q88 0 88 -52q0 -17 -10 -75q-19 -109 -23 -131q-11 -57 -20 -121q-12 -80 -90 -80q-28 0 -45 16.5t-26 43.5t-18.5 56t-29.5 61t-51 52q-64 43 -293 43h-39q-32 0 -47 -12t-21 -43l-65 -332q-2 -8 -2 -20q0 -35 47 -35q134 0 205 6q147 12 166 12q71 0 71 -39
q0 -6 -4.5 -21t-9.5 -29.5t-6 -16.5q-13 -60 -39.5 -78t-95.5 -18q-39 0 -74 2l-66 4q-39 2 -208 2q-31 0 -37 -33l-45 -213q-29 -142 -29 -180q0 -45 30.5 -61.5t100.5 -16.5q117 0 208 29.5t136 74.5q30 30 72 85t71.5 81.5t63.5 26.5q76 0 76 -70q0 -33 -23 -94
q-15 -36 -31 -98q-16 -70 -30 -109q-13 -45 -54.5 -78.5t-97.5 -33.5q-38 0 -139 8t-240 8h-606q-70 0 -70 51q0 22 20.5 38t55.5 35.5t56 41.5q43 45 84 231q2 8 2 19q0 20 -31 20h-461q-37 0 -57 -26q-84 -104 -123 -166q-29 -50 -29 -80q0 -32 25 -51q2 -1 13.5 -8t14 -9
t10.5 -8t10 -10.5t4.5 -11.5t2.5 -15q-3 -51 -80 -51h-399q-70 0 -70 49q0 25 22 43.5t70 42.5q77 45 234 213l377 424q235 266 417 483q19 22 19 37q0 24 -23 35q-35 22 -43 25l-18 6q-47 18 -47 53q0 51 76 51h782q138 0 266 8q144 9 170 9zM967 635l112 549q2 8 2 16
q0 12 -9.5 12t-20.5 -12l-490 -561q-14 -14 -14 -23q0 -12 14 -12h365q35 0 41 31z" />
    <glyph glyph-name="Ccedilla" unicode="&#xc7;" 
d="M733 160q58 0 111.5 23.5t91 58.5t74.5 76.5t64 76.5t56.5 58.5t55.5 23.5q38 0 63 -26t25 -64q0 -67 -37 -154q-35 -89 -88 -139q-59 -55 -172.5 -86t-243.5 -31h-18q-37 -27 -37 -51q-3 -9 6.5 -15.5t28 -10t38.5 -6.5t44 -6.5t39 -8.5q86 -27 86 -96q0 -72 -93 -125
q-91 -55 -223 -55q-55 0 -112 14q-60 15 -60 49q0 20 16 34.5t39 14.5q4 0 42.5 -8t62.5 -8q46 0 78 17.5t32 47.5q3 18 -25.5 31t-64.5 20.5t-64.5 23t-25.5 38.5q0 46 76 113q-246 41 -389 209q-146 172 -146 419q0 170 70 328.5t195 278.5q126 123 307 192.5t385 69.5
q123 0 223 -25.5t141 -66.5q43 -43 43 -117q0 -72 -34 -162q-34 -88 -90 -88q-43 0 -78 35l-25 45l-20 43q-92 164 -244 164q-202 0 -356 -207t-154 -512q0 -201 87 -318.5t220 -117.5z" />
    <glyph glyph-name="Egrave" unicode="&#xc8;" horiz-adv-x="1329" 
d="M1149 467q31 0 53.5 -21t22.5 -53t-25 -96q-16 -41 -29 -98q-16 -70 -30 -109q-13 -42 -54 -74t-98 -32q-26 0 -133 8t-246 8h-606q-70 0 -70 49q-4 22 14.5 37.5t53.5 32.5t51 31q63 54 103 264l151 751q17 97 17 107q0 32 -16 51.5t-35.5 26.5t-35.5 22t-16 37
q0 53 94 53h533q140 0 268 8q144 9 168 9q90 0 90 -56q0 -22 -10 -80q-5 -37 -23 -126t-22 -117q-12 -80 -86 -80q-63 0 -82 88q-8 41 -36 83.5t-68 65.5q-62 35 -226 35h-94q-32 0 -45.5 -12t-19.5 -43l-68 -332l-2 -12l-1.5 -9t-0.5 -5q0 -29 51 -29q94 0 205 6l80 6
q62 6 92 6q63 0 63 -39q0 -3 -18 -65q-18 -63 -40.5 -80.5t-88.5 -17.5q-53 0 -88 2q-70 4 -74 4q-37 2 -192 2q-33 0 -39 -33l-49 -240q-10 -46 -15.5 -76.5t-7.5 -57t2.5 -42t12.5 -27.5t24.5 -17.5t37 -8t52.5 -2.5q116 0 206.5 29.5t137.5 74.5q29 29 73 84.5t73.5 82
t60.5 26.5zM801 1659l-234 166q-18 12 -18 24q0 21 26 21h291q57 0 80 -33l121 -170q8 -8 8 -16q0 -17 -24 -17h-156q-58 0 -94 25z" />
    <glyph glyph-name="Eacute" unicode="&#xc9;" horiz-adv-x="1329" 
d="M1149 467q31 0 53.5 -21t22.5 -53t-25 -96q-16 -41 -29 -98q-16 -70 -30 -109q-13 -42 -54 -74t-98 -32q-26 0 -133 8t-246 8h-606q-70 0 -70 49q-4 22 14.5 37.5t53.5 32.5t51 31q63 54 103 264l151 751q17 97 17 107q0 32 -16 51.5t-35.5 26.5t-35.5 22t-16 37
q0 53 94 53h533q140 0 268 8q144 9 168 9q90 0 90 -56q0 -22 -10 -80q-5 -37 -23 -126t-22 -117q-12 -80 -86 -80q-63 0 -82 88q-8 41 -36 83.5t-68 65.5q-62 35 -226 35h-94q-32 0 -45.5 -12t-19.5 -43l-68 -332l-2 -12l-1.5 -9t-0.5 -5q0 -29 51 -29q94 0 205 6l80 6
q62 6 92 6q63 0 63 -39q0 -3 -18 -65q-18 -63 -40.5 -80.5t-88.5 -17.5q-53 0 -88 2q-70 4 -74 4q-37 2 -192 2q-33 0 -39 -33l-49 -240q-10 -46 -15.5 -76.5t-7.5 -57t2.5 -42t12.5 -27.5t24.5 -17.5t37 -8t52.5 -2.5q116 0 206.5 29.5t137.5 74.5q29 29 73 84.5t73.5 82
t60.5 26.5zM1176 1835l-314 -176q-48 -25 -106 -25h-162q-19 0 -19 15q0 5 9 14l182 174q33 33 94 33h301q29 0 29 -17q0 -10 -14 -18z" />
    <glyph glyph-name="Ecircumflex" unicode="&#xca;" horiz-adv-x="1329" 
d="M1149 467q31 0 53.5 -21t22.5 -53t-25 -96q-16 -41 -29 -98q-16 -70 -30 -109q-13 -42 -54 -74t-98 -32q-26 0 -133 8t-246 8h-606q-70 0 -70 49q-4 22 14.5 37.5t53.5 32.5t51 31q63 54 103 264l151 751q17 97 17 107q0 32 -16 51.5t-35.5 26.5t-35.5 22t-16 37
q0 53 94 53h533q140 0 268 8q144 9 168 9q90 0 90 -56q0 -22 -10 -80q-5 -37 -23 -126t-22 -117q-12 -80 -86 -80q-63 0 -82 88q-8 41 -36 83.5t-68 65.5q-62 35 -226 35h-94q-32 0 -45.5 -12t-19.5 -43l-68 -332l-2 -12l-1.5 -9t-0.5 -5q0 -29 51 -29q94 0 205 6l80 6
q62 6 92 6q63 0 63 -39q0 -3 -18 -65q-18 -63 -40.5 -80.5t-88.5 -17.5q-53 0 -88 2q-70 4 -74 4q-37 2 -192 2q-33 0 -39 -33l-49 -240q-10 -46 -15.5 -76.5t-7.5 -57t2.5 -42t12.5 -27.5t24.5 -17.5t37 -8t52.5 -2.5q116 0 206.5 29.5t137.5 74.5q29 29 73 84.5t73.5 82
t60.5 26.5zM840 1755l-156 -125q-21 -18 -47 -18h-125q-14 0 -14 10q0 4 6 10l223 215q23 23 49 23h195q28 0 41 -23l135 -215q2 -2 2 -8q0 -12 -14 -12h-111q-19 0 -37 18l-119 127q-8 8 -12 8q-1 0 -2.5 -1t-5.5 -4t-8 -5z" />
    <glyph glyph-name="Edieresis" unicode="&#xcb;" horiz-adv-x="1329" 
d="M1149 467q31 0 53.5 -21t22.5 -53t-25 -96q-16 -41 -29 -98q-16 -70 -30 -109q-13 -42 -54 -74t-98 -32q-26 0 -133 8t-246 8h-606q-70 0 -70 49q-4 22 14.5 37.5t53.5 32.5t51 31q63 54 103 264l151 751q17 97 17 107q0 32 -16 51.5t-35.5 26.5t-35.5 22t-16 37
q0 53 94 53h533q140 0 268 8q144 9 168 9q90 0 90 -56q0 -22 -10 -80q-5 -37 -23 -126t-22 -117q-12 -80 -86 -80q-63 0 -82 88q-8 41 -36 83.5t-68 65.5q-62 35 -226 35h-94q-32 0 -45.5 -12t-19.5 -43l-68 -332l-2 -12l-1.5 -9t-0.5 -5q0 -29 51 -29q94 0 205 6l80 6
q62 6 92 6q63 0 63 -39q0 -3 -18 -65q-18 -63 -40.5 -80.5t-88.5 -17.5q-53 0 -88 2q-70 4 -74 4q-37 2 -192 2q-33 0 -39 -33l-49 -240q-10 -46 -15.5 -76.5t-7.5 -57t2.5 -42t12.5 -27.5t24.5 -17.5t37 -8t52.5 -2.5q116 0 206.5 29.5t137.5 74.5q29 29 73 84.5t73.5 82
t60.5 26.5zM1186 1831q10 -17 10 -45q0 -45 -15.5 -94.5t-37.5 -67.5q-36 -25 -115 -25q-81 0 -100 25q-13 13 -13 47q0 44 16.5 93t39.5 67q30 24 112 24t103 -24zM774 1831q10 -17 10 -45q0 -45 -15.5 -94.5t-37.5 -67.5q-36 -25 -115 -25q-81 0 -100 25q-10 10 -10 47
q0 45 15.5 93.5t37.5 66.5q30 24 113 24q81 0 102 -24z" />
    <glyph glyph-name="Igrave" unicode="&#xcc;" horiz-adv-x="759" 
d="M469 225q0 -40 18.5 -68t40 -39.5t40 -27.5t18.5 -35q0 -55 -92 -55h-496q-64 0 -64 49q0 23 25.5 42t64.5 44t60 55q35 53 72 226l145 731q21 102 21 125q0 53 -52 80q-49 27 -49 57q0 53 80 53h457q67 0 67 -47q0 -26 -26 -47q-6 -4 -27.5 -13.5t-28.5 -11.5
q-42 -20 -61.5 -61t-40.5 -147l-145 -719q-27 -138 -27 -191zM549 1659l-234 166q-18 12 -18 24q0 21 27 21h290q57 0 80 -33l121 -170q8 -8 8 -16q0 -17 -24 -17h-156q-58 0 -94 25z" />
    <glyph glyph-name="Iacute" unicode="&#xcd;" horiz-adv-x="759" 
d="M469 225q0 -40 18.5 -68t40 -39.5t40 -27.5t18.5 -35q0 -55 -92 -55h-496q-64 0 -64 49q0 23 25.5 42t64.5 44t60 55q35 53 72 226l145 731q21 102 21 125q0 53 -52 80q-49 27 -49 57q0 53 80 53h457q67 0 67 -47q0 -26 -26 -47q-6 -4 -27.5 -13.5t-28.5 -11.5
q-42 -20 -61.5 -61t-40.5 -147l-145 -719q-27 -138 -27 -191zM893 1835l-313 -176q-48 -25 -107 -25h-162q-18 0 -18 15q0 6 8 14l182 174q33 33 95 33h301q28 0 28 -17q0 -10 -14 -18z" />
    <glyph glyph-name="Icircumflex" unicode="&#xce;" horiz-adv-x="759" 
d="M469 225q0 -40 18.5 -68t40 -39.5t40 -27.5t18.5 -35q0 -55 -92 -55h-496q-64 0 -64 49q0 23 25.5 42t64.5 44t60 55q35 53 72 226l145 731q21 102 21 125q0 53 -52 80q-49 27 -49 57q0 53 80 53h457q67 0 67 -47q0 -26 -26 -47q-6 -4 -27.5 -13.5t-28.5 -11.5
q-42 -20 -61.5 -61t-40.5 -147l-145 -719q-27 -138 -27 -191zM580 1755l-156 -125q-21 -18 -47 -18h-125q-14 0 -14 10q0 4 6 10l223 215q23 23 49 23h195q28 0 41 -23l135 -215q2 -2 2 -8q0 -12 -15 -12h-110q-19 0 -37 18l-119 127q-8 8 -12 8q-1 0 -2.5 -1t-5.5 -4t-8 -5
z" />
    <glyph glyph-name="Idieresis" unicode="&#xcf;" horiz-adv-x="759" 
d="M469 225q0 -40 18.5 -68t40 -39.5t40 -27.5t18.5 -35q0 -55 -92 -55h-496q-64 0 -64 49q0 23 25.5 42t64.5 44t60 55q35 53 72 226l145 731q21 102 21 125q0 53 -52 80q-49 27 -49 57q0 53 80 53h457q67 0 67 -47q0 -26 -26 -47q-6 -4 -27.5 -13.5t-28.5 -11.5
q-42 -20 -61.5 -61t-40.5 -147l-145 -719q-27 -138 -27 -191zM915 1831q11 -18 11 -45q0 -45 -16 -94.5t-38 -67.5q-36 -25 -114 -25q-82 0 -101 25q-12 12 -12 47q0 44 16 93t39 67q30 24 113 24q81 0 102 -24zM504 1831q10 -17 10 -45q0 -45 -15.5 -94.5t-37.5 -67.5
q-36 -25 -115 -25q-81 0 -100 25q-10 10 -10 47q0 45 15.5 93.5t37.5 66.5q30 24 112 24t103 -24z" />
    <glyph glyph-name="Eth" unicode="&#xd0;" horiz-adv-x="1662" 
d="M1346 1364q122 -68 190 -195t68 -290q0 -226 -115 -433q-72 -128 -178 -221q-115 -99 -311 -162t-435 -63h-510q-69 0 -69 49q-3 19 12.5 34.5t38 25.5t50 29t42.5 42q42 61 76 234l43 211q2 6 2 14q0 23 -27 23q-30 0 -89 -5.5t-73 -5.5q-67 0 -67 43q0 8 4 29t4 25
q2 22 5 35.5t10.5 28t23 21.5t39.5 7q14 0 78 -4.5t96 -4.5q35 0 41 31l61 299q17 87 17 111q0 53 -49 80q-50 30 -50 59q0 51 80 51h375q109 0 223 -4q71 -3 199 -26q110 -20 195 -68zM1024 330q98 104 155.5 259.5t57.5 315.5q0 244 -141 326q-101 61 -318 61
q-34 0 -47.5 -12t-19.5 -45l-74 -363q-2 -6 -2 -16q0 -25 27 -25q30 0 103 5.5t93 5.5q76 0 76 -45q0 -5 -12 -60q-8 -38 -13.5 -49.5t-23.5 -21.5q-18 -11 -51 -11q-58 0 -101 2q-16 1 -38.5 2t-38 2t-27.5 1q-33 0 -39 -29l-41 -205q-33 -152 -33 -184q0 -70 109 -70
q252 0 399 156z" />
    <glyph glyph-name="Ntilde" unicode="&#xd1;" horiz-adv-x="1660" 
d="M1264 1462h391q80 0 80 -49q0 -17 -10 -30.5t-22 -20t-33 -16t-30 -15.5q-59 -31 -89.5 -75t-55.5 -148l-51 -229l-76 -357l-70 -340q-32 -145 -32 -159q-9 -37 -49 -37h-150q-42 0 -57 34l-480 977q-13 30 -24 -6q-1 -7 -10 -49.5t-22 -110.5t-28 -145
q-65 -337 -65 -403q0 -52 17 -86.5t41 -50.5t48 -27.5t41 -26t17 -37.5q0 -55 -86 -55h-436q-78 0 -78 49q-5 24 18 41.5t67.5 38t65.5 37.5q63 45 101 188q19 73 94 439q73 345 88 424q4 28 4 30q0 29 -45 62q-11 9 -44 27t-52 35t-15 36q0 55 82 55h299q73 0 97 -49
l454 -934q9 -18 15 -18q7 0 10 8q131 604 131 735q0 44 -14.5 73t-35.5 42.5t-41.5 23.5t-35 24.5t-14.5 37.5q0 57 90 57zM696 1653l-43 14q-16 6 -16 21l4 16q71 201 229 201q65 0 160 -39q98 -39 139 -39q54 0 95 59q13 19 26 19q1 0 17 -4l34 -13q21 -6 21 -18
q0 -1 -4 -17q-76 -202 -225 -202q-64 0 -162 39q-103 41 -142 41q-58 0 -92 -64q-9 -18 -24 -18q-1 0 -17 4z" />
    <glyph glyph-name="Ograve" unicode="&#xd2;" horiz-adv-x="1642" 
d="M915 1313q-136 3 -249 -103.5t-174 -275.5t-58 -354q0 -203 76 -313.5t217 -110.5q208 0 346 217q137 216 137 510q0 203 -77.5 316.5t-217.5 113.5zM1585 885q0 -241 -117 -447q-119 -209 -329 -334q-213 -127 -469 -127q-288 0 -451 166q-162 165 -162 435
q-3 144 43 283t132 252.5t199.5 199.5t254.5 132t289 42q286 0 448 -168q162 -165 162 -434zM963 1659l-234 166q-18 12 -18 24q0 21 26 21h291q57 0 80 -33l121 -170q8 -8 8 -16q0 -17 -25 -17h-155q-58 0 -94 25z" />
    <glyph glyph-name="Oacute" unicode="&#xd3;" horiz-adv-x="1642" 
d="M915 1313q-136 3 -249 -103.5t-174 -275.5t-58 -354q0 -203 76 -313.5t217 -110.5q208 0 346 217q137 216 137 510q0 203 -77.5 316.5t-217.5 113.5zM1585 885q0 -241 -117 -447q-119 -209 -329 -334q-213 -127 -469 -127q-288 0 -451 166q-162 165 -162 435
q-3 144 43 283t132 252.5t199.5 199.5t254.5 132t289 42q286 0 448 -168q162 -165 162 -434zM1317 1835l-313 -176q-48 -25 -107 -25h-162q-18 0 -18 15q0 6 8 14l182 174q33 33 94 33h302q28 0 28 -17q0 -10 -14 -18z" />
    <glyph glyph-name="Ocircumflex" unicode="&#xd4;" horiz-adv-x="1642" 
d="M915 1313q-136 3 -249 -103.5t-174 -275.5t-58 -354q0 -203 76 -313.5t217 -110.5q208 0 346 217q137 216 137 510q0 203 -77.5 316.5t-217.5 113.5zM1585 885q0 -241 -117 -447q-119 -209 -329 -334q-213 -127 -469 -127q-288 0 -451 166q-162 165 -162 435
q-3 144 43 283t132 252.5t199.5 199.5t254.5 132t289 42q286 0 448 -168q162 -165 162 -434zM975 1755l-156 -125q-21 -18 -47 -18h-125q-14 0 -14 10q0 4 6 10l223 215q23 23 49 23h195q28 0 41 -23l135 -215q2 -2 2 -8q0 -12 -14 -12h-111q-19 0 -37 18l-118 127
q-8 8 -13 8q-1 0 -2.5 -1t-5.5 -4t-8 -5z" />
    <glyph glyph-name="Otilde" unicode="&#xd5;" horiz-adv-x="1642" 
d="M915 1313q-136 3 -249 -103.5t-174 -275.5t-58 -354q0 -203 76 -313.5t217 -110.5q208 0 346 217q137 216 137 510q0 203 -77.5 316.5t-217.5 113.5zM1585 885q0 -241 -117 -447q-119 -209 -329 -334q-213 -127 -469 -127q-288 0 -451 166q-162 165 -162 435
q-3 144 43 283t132 252.5t199.5 199.5t254.5 132t289 42q286 0 448 -168q162 -165 162 -434zM690 1653l-43 14q-16 6 -16 21l4 16q71 201 229 201q65 0 160 -39q98 -39 139 -39q53 0 94 59q13 19 27 19l16 -4l35 -13q21 -6 21 -18q0 -1 -4 -17q-76 -202 -226 -202
q-63 0 -161 39q-103 41 -142 41q-58 0 -92 -64q-9 -18 -24 -18q-1 0 -17 4z" />
    <glyph glyph-name="Odieresis" unicode="&#xd6;" horiz-adv-x="1642" 
d="M1317 1831q10 -17 10 -45q0 -45 -15.5 -94.5t-37.5 -67.5q-36 -25 -115 -25q-81 0 -100 25q-12 12 -12 47q0 44 16 93t39 67q30 24 112 24t103 -24zM905 1831q10 -17 10 -45q0 -45 -15.5 -94.5t-37.5 -67.5q-36 -25 -114 -25q-82 0 -101 25q-10 10 -10 47q0 45 15.5 93.5
t37.5 66.5q30 24 113 24q81 0 102 -24zM915 1313q-136 3 -249 -103.5t-174 -275.5t-58 -354q0 -203 76 -313.5t217 -110.5q208 0 346 217q137 216 137 510q0 203 -77.5 316.5t-217.5 113.5zM1585 885q0 -241 -117 -447q-119 -209 -329 -334q-213 -127 -469 -127
q-288 0 -451 166q-162 165 -162 435q-3 144 43 283t132 252.5t199.5 199.5t254.5 132t289 42q286 0 448 -168q162 -165 162 -434z" />
    <glyph glyph-name="multiply" unicode="&#xd7;" horiz-adv-x="1245" 
d="M623 848l321 319l115 -114l-322 -322l322 -319l-115 -115l-321 319l-320 -319l-117 115l322 319l-322 322l117 114z" />
    <glyph glyph-name="Oslash" unicode="&#xd8;" horiz-adv-x="1640" 
d="M1745 1430l-221 -195q-17 -17 -17 -25q0 -6 6 -18q70 -134 70 -307q0 -235 -121 -445q-121 -207 -332 -336q-213 -127 -462 -127q-243 0 -400 121q-22 16 -43 -2l-86 -76q-20 -20 -57 -20h-170q-23 0 -23 16q0 8 11 19l217 190q14 11 14 25q0 9 -8 22q-66 138 -66 306
q0 197 76.5 370t208.5 291q130 118 294.5 183t336.5 65q237 0 397 -121q25 -22 47 0l80 72q27 24 68 24h166q22 0 22 -16q0 -8 -8 -16zM442 518q6 0 15 6l682 598q16 16 16 27q0 9 -8 22q-77 142 -232 142q-204 0 -342 -211q-143 -216 -143 -527q0 -57 12 -57zM1194 940
q-5 0 -14 -6l-678 -596q-17 -17 -17 -27q0 -2 4 -14q77 -141 234 -141q144 0 258 108q112 106 169.5 268t57.5 351q0 34 -2 45.5t-12 11.5z" />
    <glyph glyph-name="Ugrave" unicode="&#xd9;" horiz-adv-x="1552" 
d="M1212 1462h394q77 0 77 -53q0 -27 -22 -41q-6 -5 -33 -17.5t-37 -19.5q-58 -30 -89 -76t-56 -147l-62 -283l-63 -299q-58 -241 -197 -368q-199 -181 -501 -181q-75 0 -145 12.5t-137.5 42t-118 73.5t-81 112t-30.5 152q0 64 24 202q8 52 62 310q51 242 51 254
q18 108 18 127q0 60 -37 84q-5 4 -20 12.5t-21.5 13t-13 15t-6.5 22.5q0 53 80 53h461q67 0 67 -47q0 -21 -11 -32.5t-36.5 -22.5t-34.5 -17q-41 -23 -59.5 -61.5t-42.5 -146.5l-111 -547q-16 -82 -16 -139q0 -116 75 -180t201 -64q319 0 408 354q27 107 76 354
q39 198 39 293q0 38 -10.5 65.5t-26.5 40.5t-34 24t-34 17.5t-26.5 19.5t-10.5 32q0 57 90 57zM940 1659l-233 166q-19 13 -19 24q0 21 27 21h291q56 0 79 -33l121 -170q8 -8 8 -16q0 -17 -24 -17h-156q-58 0 -94 25z" />
    <glyph glyph-name="Uacute" unicode="&#xda;" horiz-adv-x="1552" 
d="M1212 1462h394q77 0 77 -53q0 -27 -22 -41q-6 -5 -33 -17.5t-37 -19.5q-58 -30 -89 -76t-56 -147l-62 -283l-63 -299q-58 -241 -197 -368q-199 -181 -501 -181q-75 0 -145 12.5t-137.5 42t-118 73.5t-81 112t-30.5 152q0 64 24 202q8 52 62 310q51 242 51 254
q18 108 18 127q0 60 -37 84q-5 4 -20 12.5t-21.5 13t-13 15t-6.5 22.5q0 53 80 53h461q67 0 67 -47q0 -21 -11 -32.5t-36.5 -22.5t-34.5 -17q-41 -23 -59.5 -61.5t-42.5 -146.5l-111 -547q-16 -82 -16 -139q0 -116 75 -180t201 -64q319 0 408 354q27 107 76 354
q39 198 39 293q0 38 -10.5 65.5t-26.5 40.5t-34 24t-34 17.5t-26.5 19.5t-10.5 32q0 57 90 57zM1315 1835l-314 -176q-48 -25 -106 -25h-162q-18 0 -18 15q0 6 8 14l182 174q33 33 94 33h301q29 0 29 -17q0 -10 -14 -18z" />
    <glyph glyph-name="Ucircumflex" unicode="&#xdb;" horiz-adv-x="1552" 
d="M1212 1462h394q77 0 77 -53q0 -27 -22 -41q-6 -5 -33 -17.5t-37 -19.5q-58 -30 -89 -76t-56 -147l-62 -283l-63 -299q-58 -241 -197 -368q-199 -181 -501 -181q-75 0 -145 12.5t-137.5 42t-118 73.5t-81 112t-30.5 152q0 64 24 202q8 52 62 310q51 242 51 254
q18 108 18 127q0 60 -37 84q-5 4 -20 12.5t-21.5 13t-13 15t-6.5 22.5q0 53 80 53h461q67 0 67 -47q0 -21 -11 -32.5t-36.5 -22.5t-34.5 -17q-41 -23 -59.5 -61.5t-42.5 -146.5l-111 -547q-16 -82 -16 -139q0 -116 75 -180t201 -64q319 0 408 354q27 107 76 354
q39 198 39 293q0 38 -10.5 65.5t-26.5 40.5t-34 24t-34 17.5t-26.5 19.5t-10.5 32q0 57 90 57zM1001 1755l-155 -125q-21 -18 -47 -18h-125q-15 0 -15 10q0 3 7 10l223 215q23 23 49 23h195q28 0 41 -23l135 -215q2 -2 2 -8q0 -12 -15 -12h-110q-19 0 -37 18l-119 127
q-8 8 -12 8z" />
    <glyph glyph-name="Udieresis" unicode="&#xdc;" horiz-adv-x="1552" 
d="M1212 1462h394q77 0 77 -53q0 -27 -22 -41q-6 -5 -33 -17.5t-37 -19.5q-58 -30 -89 -76t-56 -147l-62 -283l-63 -299q-58 -241 -197 -368q-199 -181 -501 -181q-75 0 -145 12.5t-137.5 42t-118 73.5t-81 112t-30.5 152q0 64 24 202q8 52 62 310q51 242 51 254
q18 108 18 127q0 60 -37 84q-5 4 -20 12.5t-21.5 13t-13 15t-6.5 22.5q0 53 80 53h461q67 0 67 -47q0 -21 -11 -32.5t-36.5 -22.5t-34.5 -17q-41 -23 -59.5 -61.5t-42.5 -146.5l-111 -547q-16 -82 -16 -139q0 -116 75 -180t201 -64q319 0 408 354q27 107 76 354
q39 198 39 293q0 38 -10.5 65.5t-26.5 40.5t-34 24t-34 17.5t-26.5 19.5t-10.5 32q0 57 90 57zM1335 1831q11 -18 11 -45q0 -45 -16 -94.5t-38 -67.5q-36 -25 -114 -25q-82 0 -101 25q-12 12 -12 47q0 44 16 93t39 67q30 24 113 24q81 0 102 -24zM924 1831q10 -17 10 -45
q0 -45 -15.5 -94.5t-37.5 -67.5q-36 -25 -115 -25q-81 0 -100 25q-11 11 -11 47q0 44 16 93t38 67q30 24 112 24t103 -24z" />
    <glyph glyph-name="Yacute" unicode="&#xdd;" horiz-adv-x="1466" 
d="M1176 1462h383q65 0 65 -47q0 -15 -8 -27t-14.5 -16t-24.5 -14q-71 -43 -137 -103q-52 -48 -180 -200l-388 -461l-12 -25l-31 -153q-24 -123 -24 -199q0 -37 18 -63t39.5 -37t39.5 -27t18 -35q0 -55 -93 -55h-499q-62 0 -62 51q0 24 22 39.5t59 36.5t59 49q41 52 79 240
l17 80q3 16 -2 36l-226 639q-39 111 -67 146q-20 20 -53 37q-37 21 -37 51q0 57 90 57h442q70 0 70 -47q0 -22 -18.5 -37t-40 -22.5t-40 -26.5t-18.5 -49q0 -16 10 -49l162 -463q3 -8 10 -8q5 0 11 6q211 257 278 344q98 128 98 180q0 39 -41 66q-38 25 -38 53q0 53 84 53z
M1272 1835l-314 -176q-48 -25 -106 -25h-162q-18 0 -18 15q0 6 8 14l182 174q33 33 94 33h301q29 0 29 -17q0 -10 -14 -18z" />
    <glyph glyph-name="Thorn" unicode="&#xde;" horiz-adv-x="1378" 
d="M1284 1028q62 -83 62 -203q0 -128 -64 -235q-169 -291 -643 -291h-141q-23 0 -29 -29q-4 -28 -4 -41q0 -37 12.5 -62t30.5 -37t36.5 -21.5t31 -22t12.5 -31.5q0 -55 -88 -55h-496q-70 0 -70 51q-4 22 22 41t66.5 43.5t59.5 50.5q36 52 72 228l147 731q21 99 21 129
q0 51 -52 78q-49 27 -49 57q0 53 80 53h459q67 0 67 -49q4 -22 -16.5 -37t-53 -28.5t-42.5 -22.5q-37 -29 -58 -119q-2 -6 -2 -12q0 -18 29 -18q92 0 199 -5q80 -4 157 -14q90 -12 147.5 -43t96.5 -86zM915 594q64 88 64 211q0 105 -64 153t-200 48h-68q-31 0 -37 -31
l-94 -471q-2 -6 -2 -15q0 -20 21 -20h71q221 0 309 125z" />
    <glyph glyph-name="scharfess" unicode="&#xdf;" horiz-adv-x="1413" 
d="M1393 1296q0 -74 -58.5 -144t-142.5 -118q-71 -39 -137 -96q-62 -53 -62 -104q0 -68 174 -177q73 -42 124.5 -109.5t51.5 -141.5q0 -164 -157 -297q-158 -134 -391 -134q-232 0 -232 144q0 50 27 87.5t72 37.5q23 0 49 -19t47 -42.5t55.5 -42.5t71.5 -19q65 0 111 43.5
t46 101.5q0 51 -50.5 105.5t-125.5 101.5q-74 46 -125 108t-51 124q0 44 21 87t55 79.5t75 72.5t81.5 72t74.5 71t55 76t21 82q0 125 -145 125q-170 0 -256 -176q-28 -62 -47 -141q-20 -86 -33 -160l-29 -205l-26 -188l-29 -178q-6 -39 -31 -150q-18 -83 -47 -149
q-64 -140 -164 -248q-79 -79 -188.5 -124.5t-214.5 -45.5q-166 0 -166 76q0 8 2 14l14 78q3 32 33 32q2 0 24.5 -9.5t57 -19t66.5 -9.5q40 0 83 16q106 46 156 201q49 141 109 602q52 420 135 573q92 169 258 270t385 101q165 0 269 -62t104 -172z" />
    <glyph glyph-name="agrave" unicode="&#xe0;" horiz-adv-x="1273" 
d="M637 942q-70 0 -117 -65t-92 -199q-66 -207 -66 -330t76 -123q106 0 250 252q121 210 121 324q0 73 -86 117q-50 24 -86 24zM977 1024q43 0 82 33q41 35 65 35q20 0 33.5 -14.5t13.5 -37.5q0 -12 -10 -57q-18 -81 -35 -149q-34 -152 -49 -230q-69 -324 -69 -368
q0 -58 36 -58q20 0 56 25q33 26 55 26q37 0 37 -36q0 -23 -23 -56q-53 -73 -132.5 -116.5t-155.5 -43.5q-87 0 -134 56t-47 160q0 9 2 33l3 36q0 6 -5 6q-3 0 -8 -8q-80 -126 -189 -204.5t-227 -78.5q-109 0 -175 78t-66 232q0 130 40 273t111 251q94 142 218 211.5
t255 69.5q83 0 193 -35q103 -33 125 -33zM750 1276l-234 166q-18 12 -18 24q0 21 26 21h291q57 0 80 -33l121 -170q8 -8 8 -16q0 -17 -25 -17h-155q-58 0 -94 25z" />
    <glyph glyph-name="aacute" unicode="&#xe1;" horiz-adv-x="1273" 
d="M637 942q-70 0 -117 -65t-92 -199q-66 -207 -66 -330t76 -123q106 0 250 252q121 210 121 324q0 73 -86 117q-50 24 -86 24zM977 1024q43 0 82 33q41 35 65 35q20 0 33.5 -14.5t13.5 -37.5q0 -12 -10 -57q-18 -81 -35 -149q-34 -152 -49 -230q-69 -324 -69 -368
q0 -58 36 -58q20 0 56 25q33 26 55 26q37 0 37 -36q0 -23 -23 -56q-53 -73 -132.5 -116.5t-155.5 -43.5q-87 0 -134 56t-47 160q0 9 2 33l3 36q0 6 -5 6q-3 0 -8 -8q-80 -126 -189 -204.5t-227 -78.5q-109 0 -175 78t-66 232q0 130 40 273t111 251q94 142 218 211.5
t255 69.5q83 0 193 -35q103 -33 125 -33zM1118 1452l-313 -176q-48 -25 -107 -25h-161q-19 0 -19 15q0 6 8 14l183 174q33 33 94 33h301q29 0 29 -17q0 -12 -15 -18z" />
    <glyph glyph-name="acircumflex" unicode="&#xe2;" horiz-adv-x="1273" 
d="M637 942q-70 0 -117 -65t-92 -199q-66 -207 -66 -330t76 -123q106 0 250 252q121 210 121 324q0 73 -86 117q-50 24 -86 24zM977 1024q43 0 82 33q41 35 65 35q20 0 33.5 -14.5t13.5 -37.5q0 -12 -10 -57q-18 -81 -35 -149q-34 -152 -49 -230q-69 -324 -69 -368
q0 -58 36 -58q20 0 56 25q33 26 55 26q37 0 37 -36q0 -23 -23 -56q-53 -73 -132.5 -116.5t-155.5 -43.5q-87 0 -134 56t-47 160q0 9 2 33l3 36q0 6 -5 6q-3 0 -8 -8q-80 -126 -189 -204.5t-227 -78.5q-109 0 -175 78t-66 232q0 130 40 273t111 251q94 142 218 211.5
t255 69.5q83 0 193 -35q103 -33 125 -33zM758 1372l-156 -125q-21 -18 -47 -18h-125q-14 0 -14 10q0 4 6 10l223 215q23 23 49 23h195q28 0 41 -23l135 -215q2 -2 2 -8q0 -12 -14 -12h-111q-19 0 -37 18l-119 127q-8 8 -12 8q-1 0 -2.5 -1t-5.5 -4t-8 -5z" />
    <glyph glyph-name="atilde" unicode="&#xe3;" horiz-adv-x="1273" 
d="M637 942q-70 0 -117 -65t-92 -199q-66 -207 -66 -330t76 -123q106 0 250 252q121 210 121 324q0 73 -86 117q-50 24 -86 24zM977 1024q43 0 82 33q41 35 65 35q20 0 33.5 -14.5t13.5 -37.5q0 -12 -10 -57q-18 -81 -35 -149q-34 -152 -49 -230q-69 -324 -69 -368
q0 -58 36 -58q20 0 56 25q33 26 55 26q37 0 37 -36q0 -23 -23 -56q-53 -73 -132.5 -116.5t-155.5 -43.5q-87 0 -134 56t-47 160q0 9 2 33l3 36q0 6 -5 6q-3 0 -8 -8q-80 -126 -189 -204.5t-227 -78.5q-109 0 -175 78t-66 232q0 130 40 273t111 251q94 142 218 211.5
t255 69.5q83 0 193 -35q103 -33 125 -33zM444 1272l-43 14q-16 6 -16 21l4 16q71 201 229 201q65 0 160 -39q98 -39 140 -39q53 0 94 59q13 19 26 19q1 0 17 -4l35 -13q20 -6 20 -18l-4 -16q-77 -203 -225 -203q-64 0 -162 39q-103 41 -141 41q-59 0 -93 -64q-9 -18 -24 -18
q-1 0 -17 4z" />
    <glyph glyph-name="adieresis" unicode="&#xe4;" horiz-adv-x="1273" 
d="M637 942q-70 0 -117 -65t-92 -199q-66 -207 -66 -330t76 -123q106 0 250 252q121 210 121 324q0 73 -86 117q-50 24 -86 24zM977 1024q43 0 82 33q41 35 65 35q20 0 33.5 -14.5t13.5 -37.5q0 -12 -10 -57q-18 -81 -35 -149q-34 -152 -49 -230q-69 -324 -69 -368
q0 -58 36 -58q20 0 56 25q33 26 55 26q37 0 37 -36q0 -23 -23 -56q-53 -73 -132.5 -116.5t-155.5 -43.5q-87 0 -134 56t-47 160q0 9 2 33l3 36q0 6 -5 6q-3 0 -8 -8q-80 -126 -189 -204.5t-227 -78.5q-109 0 -175 78t-66 232q0 130 40 273t111 251q94 142 218 211.5
t255 69.5q83 0 193 -35q103 -33 125 -33zM1100 1495q10 -17 10 -45q0 -45 -15.5 -94.5t-37.5 -67.5q-35 -24 -115 -24q-82 0 -100 24q-13 13 -13 47q0 44 16.5 93t39.5 67q31 25 112 25t103 -25zM688 1495q10 -17 10 -45q0 -45 -15.5 -94.5t-37.5 -67.5q-35 -24 -115 -24
q-82 0 -100 24q-10 10 -10 47q0 45 15.5 93.5t37.5 66.5q31 25 113 25q80 0 102 -25z" />
    <glyph glyph-name="aring" unicode="&#xe5;" horiz-adv-x="1273" 
d="M637 942q-70 0 -117 -65t-92 -199q-66 -207 -66 -330t76 -123q106 0 250 252q121 210 121 324q0 73 -86 117q-50 24 -86 24zM977 1024q43 0 82 33q41 35 65 35q20 0 33.5 -14.5t13.5 -37.5q0 -12 -10 -57q-18 -81 -35 -149q-34 -152 -49 -230q-69 -324 -69 -368
q0 -58 36 -58q20 0 56 25q33 26 55 26q37 0 37 -36q0 -23 -23 -56q-53 -73 -132.5 -116.5t-155.5 -43.5q-87 0 -134 56t-47 160q0 9 2 33l3 36q0 6 -5 6q-3 0 -8 -8q-80 -126 -189 -204.5t-227 -78.5q-109 0 -175 78t-66 232q0 130 40 273t111 251q94 142 218 211.5
t255 69.5q83 0 193 -35q103 -33 125 -33zM731 1257q37 0 62.5 26t25.5 63t-25.5 62.5t-62.5 25.5q-35 0 -60.5 -25.5t-25.5 -62.5t25.5 -63t60.5 -26zM918 1346q0 -76 -55 -130.5t-132 -54.5q-57 -4 -103.5 30.5t-67.5 84t-13 106t51 93.5q39 44 97 53t108 -11.5t84.5 -66.5
t30.5 -104z" />
    <glyph glyph-name="ae" unicode="&#xe6;" horiz-adv-x="1703" 
d="M1118 471q-19 0 -43.5 1t-42 2t-18.5 1q-25 0 -25 -41q0 -123 55.5 -190.5t153.5 -67.5q50 -2 107 20t97.5 49.5t79.5 50t58 21.5q25 0 43.5 -19t18.5 -44q0 -87 -148 -182q-145 -95 -338 -95q-124 0 -225 48.5t-160 140.5q-12 15 -24 0q-53 -63 -107 -103
q-119 -88 -287 -88q-147 0 -237 74t-90 191q0 86 56 160.5t159 121.5q78 33 182 66q150 51 156 53q196 73 196 199q0 44 -30 72t-87 28q-63 0 -123.5 -36t-99.5 -85q-90 -119 -143 -119q-80 0 -80 68q0 48 21 115q20 67 55 102q44 44 160 74q112 33 227 33q48 0 93 -6
t79 -15.5t63.5 -21.5t49.5 -23.5t34.5 -21t22.5 -15.5l8 -6q7 4 19 11.5t51 26.5t78 33t95.5 26t108.5 12q154 0 254 -80q99 -80 99 -197q0 -114 -95 -197q-171 -147 -477 -147zM1296 930q-87 0 -163 -82q-75 -81 -109 -184q-2 -4 -2 -11q0 -16 22 -16q152 0 242 41
q119 52 119 151q0 41 -27 71t-82 30zM594 270q43 64 78 256l2 13q0 4 -4 4t-6 -2q-28 -16 -123 -54q-85 -30 -129 -57q-105 -62 -105 -156q0 -49 30.5 -78.5t80.5 -29.5q49 0 97.5 28t78.5 76z" />
    <glyph glyph-name="ccedilla" unicode="&#xe7;" horiz-adv-x="1040" 
d="M956 768q-34 0 -61 18q-17 12 -64 52t-65 53q-59 41 -125 41q-93 0 -164 -86q-123 -154 -123 -387q0 -126 54 -203.5t161 -77.5q48 0 99 20t85.5 44.5t70 44.5t55.5 20q25 0 42 -15.5t17 -39.5q0 -63 -133 -166q-129 -100 -324 -109q-37 -27 -37 -51q-3 -9 6.5 -15.5
t28 -10t38.5 -6.5t44 -6.5t39 -8.5q86 -27 86 -96q0 -72 -92 -125q-91 -55 -223 -55q-56 0 -113 14q-59 15 -59 49q0 20 16 34.5t39 14.5q4 0 42 -8t62 -8q46 0 78.5 17.5t32.5 47.5q3 18 -25.5 31t-64.5 20.5t-64.5 23t-25.5 38.5q0 46 71 111q-150 29 -237.5 139.5
t-87.5 271.5q0 267 207 480q210 213 499 213q127 0 220 -43q90 -44 90 -131q0 -65 -24 -107.5t-71 -42.5z" />
    <glyph glyph-name="egrave" unicode="&#xe8;" horiz-adv-x="1077" 
d="M418 637q187 0 282 65q78 54 78 129q0 44 -31.5 72.5t-78.5 28.5q-78 0 -154 -76q-74 -74 -115 -186q-4 -16 -4 -17q0 -16 23 -16zM498 471q-15 0 -31.5 0.5t-29.5 1t-24 1t-17 0.5l-7 1q-27 0 -27 -33q0 -83 22 -141.5t60 -83.5q61 -41 129 -41q108 0 220 80
q82 61 122 61q24 0 43 -18.5t19 -42.5q0 -49 -70 -119q-75 -75 -186 -117.5t-229 -42.5q-219 0 -338 125t-119 312q0 166 92 323q91 155 250 256q156 99 334 99t264 -86q88 -85 88 -193q0 -158 -170 -250t-395 -92zM676 1276l-234 166q-18 12 -18 24q0 21 27 21h290
q57 0 80 -33l121 -170q8 -8 8 -16q0 -17 -24 -17h-156q-58 0 -94 25z" />
    <glyph glyph-name="eacute" unicode="&#xe9;" horiz-adv-x="1077" 
d="M418 637q187 0 282 65q78 54 78 129q0 44 -31.5 72.5t-78.5 28.5q-78 0 -154 -76q-74 -74 -115 -186q-4 -16 -4 -17q0 -16 23 -16zM498 471q-15 0 -31.5 0.5t-29.5 1t-24 1t-17 0.5l-7 1q-27 0 -27 -33q0 -83 22 -141.5t60 -83.5q61 -41 129 -41q108 0 220 80
q82 61 122 61q24 0 43 -18.5t19 -42.5q0 -49 -70 -119q-75 -75 -186 -117.5t-229 -42.5q-219 0 -338 125t-119 312q0 166 92 323q91 155 250 256q156 99 334 99t264 -86q88 -85 88 -193q0 -158 -170 -250t-395 -92zM1010 1452l-314 -176q-48 -25 -106 -25h-162q-18 0 -18 15
q0 6 8 14l182 174q33 33 94 33h301q29 0 29 -17q0 -12 -14 -18z" />
    <glyph glyph-name="ecircumflex" unicode="&#xea;" horiz-adv-x="1077" 
d="M418 637q187 0 282 65q78 54 78 129q0 44 -31.5 72.5t-78.5 28.5q-78 0 -154 -76q-74 -74 -115 -186q-4 -16 -4 -17q0 -16 23 -16zM498 471q-15 0 -31.5 0.5t-29.5 1t-24 1t-17 0.5l-7 1q-27 0 -27 -33q0 -83 22 -141.5t60 -83.5q61 -41 129 -41q108 0 220 80
q82 61 122 61q24 0 43 -18.5t19 -42.5q0 -49 -70 -119q-75 -75 -186 -117.5t-229 -42.5q-219 0 -338 125t-119 312q0 166 92 323q91 155 250 256q156 99 334 99t264 -86q88 -85 88 -193q0 -158 -170 -250t-395 -92zM729 1372l-156 -125q-21 -18 -47 -18h-125q-14 0 -14 10
q0 4 6 10l223 215q23 23 50 23h194q28 0 41 -23l135 -215q2 -2 2 -8q0 -12 -14 -12h-111q-18 0 -36 18l-119 127q-8 8 -13 8q-1 0 -2.5 -1t-5.5 -4t-8 -5z" />
    <glyph glyph-name="edieresis" unicode="&#xeb;" horiz-adv-x="1077" 
d="M418 637q187 0 282 65q78 54 78 129q0 44 -31.5 72.5t-78.5 28.5q-78 0 -154 -76q-74 -74 -115 -186q-4 -16 -4 -17q0 -16 23 -16zM498 471q-15 0 -31.5 0.5t-29.5 1t-24 1t-17 0.5l-7 1q-27 0 -27 -33q0 -83 22 -141.5t60 -83.5q61 -41 129 -41q108 0 220 80
q82 61 122 61q24 0 43 -18.5t19 -42.5q0 -49 -70 -119q-75 -75 -186 -117.5t-229 -42.5q-219 0 -338 125t-119 312q0 166 92 323q91 155 250 256q156 99 334 99t264 -86q88 -85 88 -193q0 -158 -170 -250t-395 -92zM1073 1495q10 -17 10 -45q0 -45 -15.5 -94.5t-37.5 -67.5
q-34 -24 -115 -24q-82 0 -100 24q-12 12 -12 47q0 44 16 93t39 67q31 25 113 25q80 0 102 -25zM662 1495q10 -17 10 -45q0 -45 -16 -94.5t-38 -67.5q-34 -24 -114 -24q-83 0 -101 24q-10 10 -10 47q0 45 15.5 93.5t37.5 66.5q31 25 113 25q81 0 103 -25z" />
    <glyph glyph-name="igrave" unicode="&#xec;" horiz-adv-x="696" 
d="M580 231q36 0 36 -41q0 -56 -108 -135q-110 -78 -221 -78q-82 0 -129 46t-47 137q0 63 59 338q61 271 61 315q0 31 -22.5 49t-50 23.5t-50 20.5t-22.5 42q0 52 96 64q151 21 299 67q41 13 51 13q54 0 54 -54q0 -12 -78 -391t-78 -416q0 -51 37 -51q21 0 57 25
q36 26 56 26zM397 1276l-233 166q-19 13 -19 24q0 21 27 21h291q57 0 80 -33l121 -170q8 -8 8 -16q0 -17 -25 -17h-155q-59 0 -95 25z" />
    <glyph glyph-name="iacute" unicode="&#xed;" horiz-adv-x="696" 
d="M580 231q36 0 36 -41q0 -56 -108 -135q-110 -78 -221 -78q-82 0 -129 46t-47 137q0 63 59 338q61 271 61 315q0 31 -22.5 49t-50 23.5t-50 20.5t-22.5 42q0 52 96 64q151 21 299 67q41 13 51 13q54 0 54 -54q0 -12 -78 -391t-78 -416q0 -51 37 -51q21 0 57 25
q36 26 56 26zM729 1452l-313 -176q-48 -25 -107 -25h-162q-18 0 -18 15q0 6 8 14l182 174q33 33 95 33h301q28 0 28 -17q0 -12 -14 -18z" />
    <glyph glyph-name="icircumflex" unicode="&#xee;" horiz-adv-x="696" 
d="M580 231q36 0 36 -41q0 -56 -108 -135q-110 -78 -221 -78q-82 0 -129 46t-47 137q0 63 59 338q61 271 61 315q0 31 -22.5 49t-50 23.5t-50 20.5t-22.5 42q0 52 96 64q151 21 299 67q41 13 51 13q54 0 54 -54q0 -12 -78 -391t-78 -416q0 -51 37 -51q21 0 57 25
q36 26 56 26zM430 1372l-156 -125q-21 -18 -47 -18h-125q-14 0 -14 10q0 4 6 10l223 215q23 23 50 23h194q28 0 41 -23l135 -215q2 -2 2 -8q0 -12 -14 -12h-111q-18 0 -36 18l-119 127q-8 8 -13 8q-1 0 -2.5 -1t-5.5 -4t-8 -5z" />
    <glyph glyph-name="idieresis" unicode="&#xef;" horiz-adv-x="696" 
d="M580 231q36 0 36 -41q0 -56 -108 -135q-110 -78 -221 -78q-82 0 -129 46t-47 137q0 63 59 338q61 271 61 315q0 31 -22.5 49t-50 23.5t-50 20.5t-22.5 42q0 52 96 64q151 21 299 67q41 13 51 13q54 0 54 -54q0 -12 -78 -391t-78 -416q0 -51 37 -51q21 0 57 25
q36 26 56 26zM760 1495q10 -17 10 -45q0 -45 -15.5 -94.5t-37.5 -67.5q-34 -24 -115 -24q-82 0 -100 24q-13 13 -13 47q0 44 16.5 93t39.5 67q31 25 112 25t103 -25zM348 1495q10 -17 10 -45q0 -45 -15.5 -94.5t-37.5 -67.5q-35 -24 -115 -24q-82 0 -100 24q-10 10 -10 47
q0 45 15.5 93.5t37.5 66.5q31 25 113 25q80 0 102 -25z" />
    <glyph glyph-name="eth" unicode="&#xf0;" horiz-adv-x="1157" 
d="M1034 1432l53 -50q13 -13 13 -24q0 -14 -19 -23l-135 -71q-14 -8 -14 -19q0 -5 6 -14q154 -219 154 -500q0 -332 -189 -545q-188 -209 -459 -209q-181 0 -299 109q-114 111 -114 293q0 252 174 414q175 163 389 163q39 0 77 -6.5t56 -13.5l18 -6q9 0 9 10q0 14 -27 64
q-17 37 -53 83q-12 15 -21 15q-4 0 -16 -6l-131 -72q-23 -10 -33 -10q-21 0 -37 16l-53 51q-12 12 -12 23q0 15 18 24l121 64q8 3 8 12q0 6 -10 13q-58 34 -139 34q-13 0 -41.5 -3t-36.5 -3q-20 0 -33.5 12.5t-13.5 32.5q0 48 104 121q101 70 191 70q133 0 264 -107
q8 -8 20 -8q7 0 19 6l127 70q13 8 28 8q19 0 37 -18zM510 137q117 0 188 127q72 129 72 309q0 236 -162 236q-57 0 -102.5 -31.5t-73 -79t-46 -108t-25.5 -115t-7 -104.5q0 -106 41 -170t115 -64z" />
    <glyph glyph-name="ntilde" unicode="&#xf1;" horiz-adv-x="1378" 
d="M1262 231q36 0 36 -43q0 -52 -104 -131q-106 -80 -225 -80q-82 0 -130 47t-48 138q0 64 49 276q51 211 51 291q0 113 -84 113q-59 0 -128.5 -72t-127.5 -190q-55 -113 -94 -238q-31 -113 -68 -299q-6 -37 -53 -43l-191 -20q-21 -3 -28 -3q-37 0 -37 37q0 9 2 17l137 676
q19 100 19 112q0 29 -23 46t-51 22.5t-51 20.5t-23 40q3 18 9.5 29t21 18t26.5 9.5t39 7.5q145 20 299 69q37 11 52 11q55 0 55 -50q0 -12 -2 -20l-39 -184q-2 -6 -2 -15q0 -6 6 -6q5 0 10 8q173 267 398 267q113 0 183.5 -64t70.5 -180q0 -75 -54 -328q-51 -239 -51 -289
q0 -51 35 -51q20 0 59 25q36 26 56 26zM496 1272l-43 14q-17 7 -17 21l4 16q71 201 230 201q64 0 159 -39q98 -39 140 -39q53 0 94 59q13 19 27 19l16 -4l35 -13q20 -6 20 -18l-4 -16q-77 -203 -225 -203q-64 0 -162 39q-103 41 -141 41q-58 0 -92 -64q-9 -18 -25 -18z" />
    <glyph glyph-name="ograve" unicode="&#xf2;" horiz-adv-x="1189" 
d="M535 135q86 -1 152 79t97.5 200.5t28.5 251.5q0 272 -164 272q-102 0 -170 -92q-112 -153 -112 -424q0 -136 44 -211.5t124 -75.5zM694 1092q212 0 332 -123q119 -122 119 -318q0 -275 -191 -475q-190 -199 -473 -199q-206 0 -327 127q-119 128 -119 330q0 278 201 467
q203 191 458 191zM686 1276l-233 166q-19 13 -19 24q0 21 27 21h291q56 0 79 -33l121 -170q9 -9 9 -16q0 -17 -25 -17h-156q-58 0 -94 25z" />
    <glyph glyph-name="oacute" unicode="&#xf3;" horiz-adv-x="1189" 
d="M535 135q86 -1 152 79t97.5 200.5t28.5 251.5q0 272 -164 272q-102 0 -170 -92q-112 -153 -112 -424q0 -136 44 -211.5t124 -75.5zM694 1092q212 0 332 -123q119 -122 119 -318q0 -275 -191 -475q-190 -199 -473 -199q-206 0 -327 127q-119 128 -119 330q0 278 201 467
q203 191 458 191zM1026 1452l-313 -176q-48 -25 -107 -25h-162q-18 0 -18 15q0 6 8 14l182 174q33 33 95 33h301q28 0 28 -17q0 -12 -14 -18z" />
    <glyph glyph-name="ocircumflex" unicode="&#xf4;" horiz-adv-x="1189" 
d="M535 135q86 -1 152 79t97.5 200.5t28.5 251.5q0 272 -164 272q-102 0 -170 -92q-112 -153 -112 -424q0 -136 44 -211.5t124 -75.5zM694 1092q212 0 332 -123q119 -122 119 -318q0 -275 -191 -475q-190 -199 -473 -199q-206 0 -327 127q-119 128 -119 330q0 278 201 467
q203 191 458 191zM717 1372l-156 -125q-21 -18 -47 -18h-125q-14 0 -14 10q0 4 6 10l223 215q23 23 49 23h195q28 0 41 -23l135 -215q2 -2 2 -8q0 -12 -14 -12h-111q-19 0 -37 18l-119 127q-8 8 -12 8q-1 0 -2.5 -1t-5.5 -4t-8 -5z" />
    <glyph glyph-name="otilde" unicode="&#xf5;" horiz-adv-x="1189" 
d="M389 1272l-43 14q-16 6 -16 21l4 16q71 201 229 201q65 0 160 -39q98 -39 139 -39q53 0 94 59q13 19 27 19l16 -4l35 -13q21 -6 21 -18l-4 -16q-77 -203 -226 -203q-63 0 -161 39q-103 41 -142 41q-58 0 -92 -64q-9 -18 -24 -18q-1 0 -17 4zM535 135q86 -1 152 79
t97.5 200.5t28.5 251.5q0 272 -164 272q-102 0 -170 -92q-112 -153 -112 -424q0 -136 44 -211.5t124 -75.5zM694 1092q212 0 332 -123q119 -122 119 -318q0 -275 -191 -475q-190 -199 -473 -199q-206 0 -327 127q-119 128 -119 330q0 278 201 467q203 191 458 191z" />
    <glyph glyph-name="odieresis" unicode="&#xf6;" horiz-adv-x="1189" 
d="M1047 1495q10 -17 10 -45q0 -45 -15.5 -94.5t-37.5 -67.5q-34 -24 -115 -24q-83 0 -101 24q-12 12 -12 47q0 44 16 93t39 67q31 25 113 25q81 0 103 -25zM635 1495q10 -17 10 -45q0 -45 -15.5 -94.5t-37.5 -67.5q-34 -24 -115 -24q-82 0 -100 24q-10 10 -10 47
q0 45 15.5 93.5t37.5 66.5q31 25 112 25t103 -25zM535 135q86 -1 152 79t97.5 200.5t28.5 251.5q0 272 -164 272q-102 0 -170 -92q-112 -153 -112 -424q0 -136 44 -211.5t124 -75.5zM694 1092q212 0 332 -123q119 -122 119 -318q0 -275 -191 -475q-190 -199 -473 -199
q-206 0 -327 127q-119 128 -119 330q0 278 201 467q203 191 458 191z" />
    <glyph glyph-name="divide" unicode="&#xf7;" horiz-adv-x="1462" 
d="M881 401q0 -63 -44 -106t-106 -43t-105.5 43t-43.5 106q0 61 43.5 104.5t105.5 43.5t106 -43.5t44 -104.5zM881 1073q0 -63 -44 -106t-106 -43t-105.5 43t-43.5 106q0 61 43.5 104.5t105.5 43.5t106 -43.5t44 -104.5zM197 686v92q0 31 30 31h1008q12 0 21.5 -9.5
t9.5 -21.5v-92q0 -31 -31 -31h-1008q-30 0 -30 31z" />
    <glyph glyph-name="oslash" unicode="&#xf8;" horiz-adv-x="1253" 
d="M1100 1069h155q17 0 17 -10q0 -7 -12 -19l-146 -139q68 -115 68 -254q0 -52 -17 -139q-53 -242 -233 -385q-184 -146 -422 -146h-8q-151 3 -260 84l-45 -41q-20 -20 -50 -20h-155q-17 0 -17 10q0 6 7 13l157 151q-67 113 -67 260q0 197 102 350q101 151 249.5 229.5
t311.5 78.5q162 0 277 -80l39 37q20 20 49 20zM686 938q-76 0 -134.5 -51.5t-90.5 -138.5q-57 -165 -60 -322l422 405q-40 107 -137 107zM571 135q91 0 156 86q123 160 123 424l-420 -401q47 -109 141 -109z" />
    <glyph glyph-name="ugrave" unicode="&#xf9;" 
d="M1264 231q14 0 25 -12t11 -29q0 -57 -106 -135q-110 -78 -227 -78q-80 0 -126 46t-46 135q0 32 6 73l2 15q0 6 -6 6t-9 -6q-174 -269 -405 -269q-109 0 -176.5 61.5t-67.5 180.5q0 91 49 332q50 245 50 270q0 24 -15 38.5t-36.5 21.5t-43 13t-36.5 19.5t-15 34.5
q0 52 96 64q132 15 304 71q27 9 47 9q55 0 55 -52q0 -10 -2 -18l-111 -539q-18 -88 -18 -143q0 -113 84 -113q59 0 128.5 72t127.5 190q85 174 133 402l29 135q6 37 53 43l188 21q14 2 31 2q39 0 39 -39q0 -9 -2 -15l-129 -624q-31 -158 -31 -181q0 -53 37 -53q23 0 59 25
q33 26 54 26zM739 1276l-233 166q-19 13 -19 24q0 21 27 21h291q57 0 80 -33l121 -170q8 -8 8 -16q0 -17 -25 -17h-155q-59 0 -95 25z" />
    <glyph glyph-name="uacute" unicode="&#xfa;" 
d="M1264 231q14 0 25 -12t11 -29q0 -57 -106 -135q-110 -78 -227 -78q-80 0 -126 46t-46 135q0 32 6 73l2 15q0 6 -6 6t-9 -6q-174 -269 -405 -269q-109 0 -176.5 61.5t-67.5 180.5q0 91 49 332q50 245 50 270q0 24 -15 38.5t-36.5 21.5t-43 13t-36.5 19.5t-15 34.5
q0 52 96 64q132 15 304 71q27 9 47 9q55 0 55 -52q0 -10 -2 -18l-111 -539q-18 -88 -18 -143q0 -113 84 -113q59 0 128.5 72t127.5 190q85 174 133 402l29 135q6 37 53 43l188 21q14 2 31 2q39 0 39 -39q0 -9 -2 -15l-129 -624q-31 -158 -31 -181q0 -53 37 -53q23 0 59 25
q33 26 54 26zM1114 1452l-313 -176q-48 -25 -107 -25h-162q-18 0 -18 15q0 6 8 14l183 174q33 33 94 33h301q28 0 28 -17q0 -12 -14 -18z" />
    <glyph glyph-name="ucircumflex" unicode="&#xfb;" 
d="M1264 231q14 0 25 -12t11 -29q0 -57 -106 -135q-110 -78 -227 -78q-80 0 -126 46t-46 135q0 32 6 73l2 15q0 6 -6 6t-9 -6q-174 -269 -405 -269q-109 0 -176.5 61.5t-67.5 180.5q0 91 49 332q50 245 50 270q0 24 -15 38.5t-36.5 21.5t-43 13t-36.5 19.5t-15 34.5
q0 52 96 64q132 15 304 71q27 9 47 9q55 0 55 -52q0 -10 -2 -18l-111 -539q-18 -88 -18 -143q0 -113 84 -113q59 0 128.5 72t127.5 190q85 174 133 402l29 135q6 37 53 43l188 21q14 2 31 2q39 0 39 -39q0 -9 -2 -15l-129 -624q-31 -158 -31 -181q0 -53 37 -53q23 0 59 25
q33 26 54 26zM786 1372l-155 -125q-21 -18 -47 -18h-125q-15 0 -15 10q0 3 7 10l223 215q23 23 49 23h195q27 0 40 -23l136 -215q2 -2 2 -8q0 -12 -15 -12h-110q-19 0 -37 18l-119 127q-8 8 -12 8z" />
    <glyph glyph-name="udieresis" unicode="&#xfc;" 
d="M1264 231q14 0 25 -12t11 -29q0 -57 -106 -135q-110 -78 -227 -78q-80 0 -126 46t-46 135q0 32 6 73l2 15q0 6 -6 6t-9 -6q-174 -269 -405 -269q-109 0 -176.5 61.5t-67.5 180.5q0 91 49 332q50 245 50 270q0 24 -15 38.5t-36.5 21.5t-43 13t-36.5 19.5t-15 34.5
q0 52 96 64q132 15 304 71q27 9 47 9q55 0 55 -52q0 -10 -2 -18l-111 -539q-18 -88 -18 -143q0 -113 84 -113q59 0 128.5 72t127.5 190q85 174 133 402l29 135q6 37 53 43l188 21q14 2 31 2q39 0 39 -39q0 -9 -2 -15l-129 -624q-31 -158 -31 -181q0 -53 37 -53q23 0 59 25
q33 26 54 26zM1126 1495q11 -18 11 -45q0 -45 -16 -94.5t-38 -67.5q-35 -24 -114 -24q-83 0 -101 24q-12 12 -12 47q0 44 16 93t39 67q31 25 113 25q80 0 102 -25zM715 1495q10 -17 10 -45q0 -45 -15.5 -94.5t-37.5 -67.5q-34 -24 -115 -24q-82 0 -100 24q-11 11 -11 47
q0 44 16 93t38 67q31 25 112 25t103 -25z" />
    <glyph glyph-name="yacute" unicode="&#xfd;" horiz-adv-x="1114" 
d="M963 1092q141 0 141 -144q0 -159 -121 -422q-120 -262 -299 -495q-159 -207 -327 -316.5t-316 -109.5q-108 0 -171 58.5t-63 166.5q0 115 87 115q18 0 47.5 -21.5t59 -47.5t74.5 -47.5t89 -21.5q106 0 207 87q12 12 12 26q0 13 -2 21q-121 557 -207 796q-23 63 -45 88
t-66 37q-31 0 -57 17t-26 49q0 18 6 28.5t24 20.5q11 6 32.5 14.5t57.5 21t60 21.5l61 27q69 31 101 31q57 0 84 -68q94 -232 208 -793q3 -12 15 -12q7 0 12 8q79 115 137 265q62 157 62 237q0 40 -14 67t-34.5 40.5t-41 25t-34.5 29.5t-14 45q0 68 105 121q72 35 156 35z
M940 1452l-313 -176q-48 -25 -107 -25h-162q-18 0 -18 15q0 6 8 14l182 174q33 33 95 33h301q28 0 28 -17q0 -12 -14 -18z" />
    <glyph glyph-name="thorn" unicode="&#xfe;" horiz-adv-x="1333" 
d="M1026 1094q112 0 178 -78.5t66 -224.5q0 -189 -92 -398q-34 -84 -84.5 -156.5t-116.5 -131.5t-152 -93t-182 -35q-44 0 -93.5 8.5t-76.5 17.5l-27 9q-7 0 -10 -14q-24 -114 -24 -168q0 -40 17 -67t37 -37t37 -26.5t17 -37.5q0 -57 -92 -57h-430q-78 0 -78 49
q0 20 13.5 33.5t32 20.5t44 24.5t43.5 42.5q43 54 80 235l229 1135q17 97 17 106q0 32 -23 51t-50 25t-50 20.5t-23 38.5q0 52 97 64q161 23 309 74q21 6 39 6q55 0 55 -49q0 -15 -2 -21l-131 -643q-4 -17 1 -18q4 -2 11 10q74 118 183 201q113 84 231 84zM674 125
q126 0 217 319q49 180 49 275q0 125 -76 125q-107 0 -250 -254q-118 -202 -118 -324q0 -69 86 -116q48 -25 92 -25z" />
    <glyph glyph-name="ydieresis" unicode="&#xff;" horiz-adv-x="1114" 
d="M963 1092q141 0 141 -144q0 -159 -121 -422q-120 -262 -299 -495q-159 -207 -327 -316.5t-316 -109.5q-108 0 -171 58.5t-63 166.5q0 115 87 115q18 0 47.5 -21.5t59 -47.5t74.5 -47.5t89 -21.5q106 0 207 87q12 12 12 26q0 13 -2 21q-121 557 -207 796q-23 63 -45 88
t-66 37q-31 0 -57 17t-26 49q0 18 6 28.5t24 20.5q11 6 32.5 14.5t57.5 21t60 21.5l61 27q69 31 101 31q57 0 84 -68q94 -232 208 -793q3 -12 15 -12q7 0 12 8q79 115 137 265q62 157 62 237q0 40 -14 67t-34.5 40.5t-41 25t-34.5 29.5t-14 45q0 68 105 121q72 35 156 35z
M979 1495q10 -17 10 -45q0 -45 -15.5 -94.5t-37.5 -67.5q-35 -24 -115 -24q-82 0 -100 24q-12 12 -12 47q0 44 16 93t39 67q31 25 113 25q80 0 102 -25zM567 1495q11 -18 11 -45q0 -45 -16 -94.5t-38 -67.5q-35 -24 -114 -24q-83 0 -101 24q-10 10 -10 47q0 45 15.5 93.5
t37.5 66.5q31 25 113 25q80 0 102 -25z" />
    <glyph glyph-name="Amacron" unicode="&#x100;" horiz-adv-x="1470" 
d="M459 604h336q18 0 18 14q0 9 -2 15l-72 409q-1 18 -7.5 19.5t-12.5 -10.5l-264 -418q-9 -15 -9 -19q0 -10 13 -10zM1024 1446l207 -1153q11 -69 36.5 -114t53.5 -58q63 -27 63 -68q0 -53 -92 -53h-454q-66 0 -66 45q0 21 17.5 37t38 26t38 33.5t17.5 57.5q0 25 -6 63
l-27 156q-3 18 -29 18h-454q-32 0 -41 -20q-97 -186 -97 -240q0 -45 39 -74q41 -30 41 -53q0 -49 -82 -49h-356q-68 0 -68 45q-3 17 14.5 34.5t44 32t62.5 42.5t60 61q64 84 147 213l657 1016q20 33 54 33h137q39 0 45 -31zM526 1686l19 86q6 26 35 26h731q26 0 26 -22
q0 -11 -2 -17l-18 -88q-6 -26 -35 -26h-733q-25 0 -25 24q0 11 2 17z" />
    <glyph glyph-name="amacron" unicode="&#x101;" horiz-adv-x="1273" 
d="M637 942q-70 0 -117 -65t-92 -199q-66 -207 -66 -330t76 -123q106 0 250 252q121 210 121 324q0 73 -86 117q-50 24 -86 24zM977 1024q43 0 82 33q41 35 65 35q20 0 33.5 -14.5t13.5 -37.5q0 -12 -10 -57q-18 -81 -35 -149q-34 -152 -49 -230q-69 -324 -69 -368
q0 -58 36 -58q20 0 56 25q33 26 55 26q37 0 37 -36q0 -23 -23 -56q-53 -73 -132.5 -116.5t-155.5 -43.5q-87 0 -134 56t-47 160q0 9 2 33l3 36q0 6 -5 6q-3 0 -8 -8q-80 -126 -189 -204.5t-227 -78.5q-109 0 -175 78t-66 232q0 130 40 273t111 251q94 142 218 211.5
t255 69.5q83 0 193 -35q103 -33 125 -33zM369 1350l18 86q6 26 35 26h731q27 0 27 -22q0 -11 -2 -17l-19 -88q-6 -26 -35 -26h-733q-24 0 -24 24q0 11 2 17z" />
    <glyph glyph-name="Abreve" unicode="&#x102;" horiz-adv-x="1470" 
d="M459 604h336q18 0 18 14q0 9 -2 15l-72 409q-1 18 -7.5 19.5t-12.5 -10.5l-264 -418q-9 -15 -9 -19q0 -10 13 -10zM1024 1446l207 -1153q11 -69 36.5 -114t53.5 -58q63 -27 63 -68q0 -53 -92 -53h-454q-66 0 -66 45q0 21 17.5 37t38 26t38 33.5t17.5 57.5q0 25 -6 63
l-27 156q-3 18 -29 18h-454q-32 0 -41 -20q-97 -186 -97 -240q0 -45 39 -74q41 -30 41 -53q0 -49 -82 -49h-356q-68 0 -68 45q-3 17 14.5 34.5t44 32t62.5 42.5t60 61q64 84 147 213l657 1016q20 33 54 33h137q39 0 45 -31zM936 1612q-102 0 -166.5 52.5t-64.5 131.5
q0 76 55 76q26 0 47 -35q49 -76 143 -76t168 80q31 31 53 31q19 0 31 -13t12 -32q0 -66 -63 -129q-86 -86 -215 -86z" />
    <glyph glyph-name="abreve" unicode="&#x103;" horiz-adv-x="1273" 
d="M637 942q-70 0 -117 -65t-92 -199q-66 -207 -66 -330t76 -123q106 0 250 252q121 210 121 324q0 73 -86 117q-50 24 -86 24zM977 1024q43 0 82 33q41 35 65 35q20 0 33.5 -14.5t13.5 -37.5q0 -12 -10 -57q-18 -81 -35 -149q-34 -152 -49 -230q-69 -324 -69 -368
q0 -58 36 -58q20 0 56 25q33 26 55 26q37 0 37 -36q0 -23 -23 -56q-53 -73 -132.5 -116.5t-155.5 -43.5q-87 0 -134 56t-47 160q0 9 2 33l3 36q0 6 -5 6q-3 0 -8 -8q-80 -126 -189 -204.5t-227 -78.5q-109 0 -175 78t-66 232q0 130 40 273t111 251q94 142 218 211.5
t255 69.5q83 0 193 -35q103 -33 125 -33zM772 1229q-102 0 -166.5 52.5t-64.5 131.5q0 76 55 76q26 0 47 -35q49 -76 143 -76t168 80q31 31 54 31q19 0 31 -13t12 -32q0 -65 -64 -129q-86 -86 -215 -86z" />
    <glyph glyph-name="Aogonek" unicode="&#x104;" horiz-adv-x="1468" 
d="M1286 152q18 -21 55 -46q41 -24 41 -53q0 -53 -90 -53h-190q-232 0 -318 -63q-75 -51 -75 -121q0 -39 23.5 -64.5t60.5 -25.5q22 0 61.5 14t44.5 14q31 0 31 -28q0 -33 -66 -78q-64 -43 -157 -43q-96 0 -153.5 55t-57.5 133q0 160 280 283q62 26 81 45.5t26 73.5
q0 29 -6 67l-27 156q-3 18 -29 18h-454q-32 0 -41 -20q-101 -186 -101 -238q0 -43 39 -72q41 -30 41 -55q0 -51 -78 -51h-356q-68 0 -68 45q-4 14 12.5 30t42.5 32t64.5 47.5t67.5 68.5q48 61 141 205l657 1016q20 33 54 33h137q39 0 45 -31l207 -1153q15 -95 55 -141z
M459 604h336q18 0 18 14q0 9 -2 17l-72 409q-3 17 -8 17t-10 -8l-266 -420q-9 -15 -9 -19q0 -10 13 -10z" />
    <glyph glyph-name="aogonek" unicode="&#x105;" horiz-adv-x="1275" 
d="M279 -23q-109 0 -175.5 80.5t-66.5 233.5q0 128 40.5 270.5t112.5 249.5q94 142 218.5 211.5t255.5 69.5q82 0 192 -35q103 -33 125 -33q41 0 80 33q41 35 67 35q48 0 48 -54q0 -3 -2 -13.5t-3 -16.5q-159 -682 -159 -768q0 -62 37 -62q19 0 55 25q36 26 55 26
q37 0 37 -36q0 -46 -74 -111q-166 -144 -166 -248q0 -47 29 -72.5t70 -25.5q27 0 72 17.5t49 17.5q24 0 24 -25q0 -39 -76 -88q-71 -51 -161 -51q-77 0 -134 47t-57 123q0 99 107 200q-174 9 -174 222q0 4 0.5 12.5t1.5 24t2 28.5q0 4 -2.5 5.5t-5 0.5t-3.5 -4
q-70 -120 -184 -205q-116 -84 -235 -84zM641 942q-70 0 -117 -65t-92 -199q-65 -204 -65 -330q0 -123 75 -123q106 0 250 252q121 210 121 324q0 73 -86 117q-49 24 -86 24z" />
    <glyph glyph-name="Cacute" unicode="&#x106;" 
d="M733 160q58 0 111.5 23.5t91 58.5t74.5 76.5t64 76.5t56.5 58.5t55.5 23.5q38 0 63 -26t25 -64q0 -67 -37 -154q-35 -89 -88 -139q-59 -55 -172.5 -86t-243.5 -31q-297 0 -485 179q-185 179 -185 462q0 170 70 328.5t195 278.5q126 123 307 192.5t385 69.5
q123 0 223 -25.5t141 -66.5q43 -43 43 -117q0 -72 -34 -162q-34 -88 -90 -88q-43 0 -78 35l-25 45l-20 43q-92 164 -244 164q-202 0 -356 -207t-154 -512q0 -201 87 -318.5t220 -117.5zM1229 1835l-314 -176q-48 -25 -106 -25h-162q-18 0 -18 15q0 6 8 14l182 174
q33 33 94 33h301q29 0 29 -17q0 -10 -14 -18z" />
    <glyph glyph-name="cacute" unicode="&#x107;" horiz-adv-x="1040" 
d="M956 768q-34 0 -61 18q-17 12 -64 52t-65 53q-59 41 -125 41q-93 0 -164 -86q-123 -154 -123 -387q0 -126 54 -203.5t161 -77.5q48 0 99 20t85.5 44.5t70 44.5t55.5 20q25 0 42 -15.5t17 -39.5q0 -27 -34 -71.5t-93 -90.5q-61 -48 -157.5 -80.5t-196.5 -32.5
q-188 0 -305 117q-117 120 -117 305q0 267 207 480q210 213 499 213q127 0 220 -43q90 -44 90 -131q0 -65 -24 -107.5t-71 -42.5zM993 1452l-313 -176q-48 -25 -107 -25h-161q-19 0 -19 15q0 6 8 14l183 174q33 33 94 33h301q29 0 29 -17q0 -12 -15 -18z" />
    <glyph glyph-name="Ccircumflex" unicode="&#x108;" 
d="M733 160q58 0 111.5 23.5t91 58.5t74.5 76.5t64 76.5t56.5 58.5t55.5 23.5q38 0 63 -26t25 -64q0 -67 -37 -154q-35 -89 -88 -139q-59 -55 -172.5 -86t-243.5 -31q-297 0 -485 179q-185 179 -185 462q0 170 70 328.5t195 278.5q126 123 307 192.5t385 69.5
q123 0 223 -25.5t141 -66.5q43 -43 43 -117q0 -72 -34 -162q-34 -88 -90 -88q-43 0 -78 35l-25 45l-20 43q-92 164 -244 164q-202 0 -356 -207t-154 -512q0 -201 87 -318.5t220 -117.5zM932 1755l-156 -125q-21 -18 -47 -18h-125q-14 0 -14 10q0 4 6 10l223 215q23 23 49 23
h195q28 0 41 -23l135 -215q2 -2 2 -8q0 -12 -14 -12h-111q-19 0 -37 18l-118 127q-8 8 -13 8q-1 0 -2.5 -1t-5.5 -4t-8 -5z" />
    <glyph glyph-name="ccircumflex" unicode="&#x109;" horiz-adv-x="1040" 
d="M956 768q-34 0 -61 18q-17 12 -64 52t-65 53q-59 41 -125 41q-93 0 -164 -86q-123 -154 -123 -387q0 -126 54 -203.5t161 -77.5q48 0 99 20t85.5 44.5t70 44.5t55.5 20q25 0 42 -15.5t17 -39.5q0 -27 -34 -71.5t-93 -90.5q-61 -48 -157.5 -80.5t-196.5 -32.5
q-188 0 -305 117q-117 120 -117 305q0 267 207 480q210 213 499 213q127 0 220 -43q90 -44 90 -131q0 -65 -24 -107.5t-71 -42.5zM678 1372l-156 -125q-21 -18 -47 -18h-125q-14 0 -14 10q0 4 6 10l223 215q23 23 49 23h195q28 0 41 -23l135 -215q2 -2 2 -8q0 -12 -14 -12
h-111q-19 0 -37 18l-118 127q-8 8 -13 8q-1 0 -2.5 -1t-5.5 -4t-8 -5z" />
    <glyph glyph-name="Cdotaccent" unicode="&#x10a;" 
d="M733 160q58 0 111.5 23.5t91 58.5t74.5 76.5t64 76.5t56.5 58.5t55.5 23.5q38 0 63 -26t25 -64q0 -67 -37 -154q-35 -89 -88 -139q-59 -55 -172.5 -86t-243.5 -31q-297 0 -485 179q-185 179 -185 462q0 170 70 328.5t195 278.5q126 123 307 192.5t385 69.5
q123 0 223 -25.5t141 -66.5q43 -43 43 -117q0 -72 -34 -162q-34 -88 -90 -88q-43 0 -78 35l-25 45l-20 43q-92 164 -244 164q-202 0 -356 -207t-154 -512q0 -201 87 -318.5t220 -117.5zM1028 1831q10 -17 10 -45q0 -45 -15.5 -94.5t-37.5 -67.5q-36 -25 -115 -25
q-81 0 -100 25q-10 10 -10 47q0 45 15.5 93.5t37.5 66.5q30 24 113 24q81 0 102 -24z" />
    <glyph glyph-name="cdotaccent" unicode="&#x10b;" horiz-adv-x="1040" 
d="M956 768q-34 0 -61 18q-17 12 -64 52t-65 53q-59 41 -125 41q-93 0 -164 -86q-123 -154 -123 -387q0 -126 54 -203.5t161 -77.5q48 0 99 20t85.5 44.5t70 44.5t55.5 20q25 0 42 -15.5t17 -39.5q0 -27 -34 -71.5t-93 -90.5q-61 -48 -157.5 -80.5t-196.5 -32.5
q-188 0 -305 117q-117 120 -117 305q0 267 207 480q210 213 499 213q127 0 220 -43q90 -44 90 -131q0 -65 -24 -107.5t-71 -42.5zM811 1495q10 -17 10 -45q0 -45 -15.5 -94.5t-37.5 -67.5q-34 -24 -115 -24q-82 0 -100 24q-10 10 -10 47q0 45 15.5 93.5t37.5 66.5
q31 25 113 25q80 0 102 -25z" />
    <glyph glyph-name="Ccaron" unicode="&#x10c;" 
d="M733 160q58 0 111.5 23.5t91 58.5t74.5 76.5t64 76.5t56.5 58.5t55.5 23.5q38 0 63 -26t25 -64q0 -67 -37 -154q-35 -89 -88 -139q-59 -55 -172.5 -86t-243.5 -31q-297 0 -485 179q-185 179 -185 462q0 170 70 328.5t195 278.5q126 123 307 192.5t385 69.5
q123 0 223 -25.5t141 -66.5q43 -43 43 -117q0 -72 -34 -162q-34 -88 -90 -88q-43 0 -78 35l-25 45l-20 43q-92 164 -244 164q-202 0 -356 -207t-154 -512q0 -201 87 -318.5t220 -117.5zM934 1726l156 125q22 19 47 19h125q14 0 14 -10q0 -5 -6 -11l-223 -215
q-22 -22 -50 -22h-194q-28 0 -41 22l-135 215q-2 2 -2 9q0 12 14 12h111q17 0 36 -19l119 -127q8 -8 13 -8q1 0 2.5 1t5.5 4t8 5z" />
    <glyph glyph-name="ccaron" unicode="&#x10d;" horiz-adv-x="1040" 
d="M956 768q-34 0 -61 18q-17 12 -64 52t-65 53q-59 41 -125 41q-93 0 -164 -86q-123 -154 -123 -387q0 -126 54 -203.5t161 -77.5q48 0 99 20t85.5 44.5t70 44.5t55.5 20q25 0 42 -15.5t17 -39.5q0 -27 -34 -71.5t-93 -90.5q-61 -48 -157.5 -80.5t-196.5 -32.5
q-188 0 -305 117q-117 120 -117 305q0 267 207 480q210 213 499 213q127 0 220 -43q90 -44 90 -131q0 -65 -24 -107.5t-71 -42.5zM684 1343l156 125q22 19 47 19h125q14 0 14 -10q0 -5 -6 -11l-223 -215q-22 -22 -49 -22h-195q-28 0 -41 22l-135 215q-2 2 -2 9q0 12 14 12
h111q18 0 37 -19l118 -127q8 -8 13 -8q1 0 2.5 1t5.5 4t8 5z" />
    <glyph glyph-name="Dcaron" unicode="&#x10e;" horiz-adv-x="1613" 
d="M973 328q98 104 155.5 257.5t57.5 313.5q0 241 -142 330q-92 59 -286 59h-31q-34 0 -48 -11.5t-20 -43.5l-170 -846q-20 -103 -20 -145q0 -72 119 -72q233 0 385 158zM1294 1362q122 -63 191 -190.5t69 -292.5q0 -311 -194 -555q-261 -326 -846 -326h-510q-70 0 -70 53
q0 25 23 41.5t57.5 33.5t51.5 36q47 50 88 250l151 747q17 87 17 113q0 28 -15.5 48.5t-34 30.5t-34 25t-15.5 33q0 51 80 51h377q111 0 221 -4q70 -3 197 -26q112 -21 196 -68zM938 1726l156 125q22 19 47 19h125q14 0 14 -10q0 -5 -6 -11l-223 -215q-22 -22 -50 -22h-194
q-28 0 -41 22l-135 215q-2 2 -2 9q0 12 14 12h111q18 0 37 -19l118 -127q8 -8 13 -8q1 0 2.5 1t5.5 4t8 5z" />
    <glyph glyph-name="dcaron" unicode="&#x10f;" horiz-adv-x="1492" 
d="M1253 1460l-211 -1046q-32 -152 -32 -183q0 -51 37 -51q20 0 59 25q36 26 53 26q37 0 37 -41q0 -55 -109 -135q-110 -78 -219 -78q-82 0 -129 45.5t-47 135.5q0 20 2 41t4 33.5t2 13.5q0 5 -2.5 7t-6.5 0.5t-7 -5.5q-70 -110 -180 -191q-109 -80 -228 -80q-97 0 -170 70
q-71 71 -71 242q0 135 41.5 273t116.5 257q77 125 201 199t268 74q25 0 54 -3.5t52.5 -8t43 -9.5t31.5 -8.5t13 -3.5q11 0 14 14l15 72q16 91 16 110q0 31 -22.5 48t-50 22t-50 19.5t-22.5 41.5q0 52 96 64q170 24 299 70q30 10 49 10q55 0 55 -51q0 -13 -2 -19zM637 942
q-70 0 -117 -65t-92 -199q-66 -207 -66 -330t76 -123q106 0 250 252q121 210 121 324q0 73 -86 117q-50 24 -86 24zM1681 1411q33 -44 33 -92q0 -82 -139 -215q-104 -90 -152 -90q-17 0 -28 11t-11 28q0 12 9.5 20t32.5 20t40 25q64 52 64 96q0 26 -31 68q-43 58 -43 82
q0 30 49 76q51 45 82 45q41 0 94 -74z" />
    <glyph glyph-name="Dcroat" unicode="&#x110;" horiz-adv-x="1662" 
d="M1346 1364q122 -68 190 -195t68 -290q0 -226 -115 -433q-72 -128 -178 -221q-115 -99 -311 -162t-435 -63h-510q-69 0 -69 49q-3 19 12.5 34.5t38 25.5t50 29t42.5 42q42 61 76 234l43 211q2 6 2 14q0 23 -27 23q-30 0 -89 -5.5t-73 -5.5q-67 0 -67 43q0 8 4 29t4 25
q2 22 5 35.5t10.5 28t23 21.5t39.5 7q14 0 78 -4.5t96 -4.5q35 0 41 31l61 299q17 87 17 111q0 53 -49 80q-50 30 -50 59q0 51 80 51h375q109 0 223 -4q71 -3 199 -26q110 -20 195 -68zM1024 330q98 104 155.5 259.5t57.5 315.5q0 244 -141 326q-101 61 -318 61
q-34 0 -47.5 -12t-19.5 -45l-74 -363q-2 -6 -2 -16q0 -25 27 -25q30 0 103 5.5t93 5.5q76 0 76 -45q0 -5 -12 -60q-8 -38 -13.5 -49.5t-23.5 -21.5q-18 -11 -51 -11q-58 0 -101 2q-16 1 -38.5 2t-38 2t-27.5 1q-33 0 -39 -29l-41 -205q-33 -152 -33 -184q0 -70 109 -70
q252 0 399 156z" />
    <glyph glyph-name="dslash" unicode="&#x111;" horiz-adv-x="1271" 
d="M1253 1348h123q23 0 23 -19q0 -6 -2 -12l-17 -80q-6 -29 -37 -29h-120q-22 0 -25 -20l-156 -774q-30 -150 -30 -183q0 -51 37 -51q19 0 55 25q33 26 53 26q17 0 28 -12t11 -29q0 -38 -76 -108q-120 -105 -248 -105q-87 0 -134.5 45.5t-47.5 137.5q0 11 1 24.5t2.5 24
t3 19.5t2.5 14l1 6q0 8 -6 8q-5 0 -10 -8q-73 -115 -182 -191q-112 -80 -228 -80q-106 0 -172.5 78t-66.5 234q0 128 40.5 271t110.5 253q182 279 476 279q42 0 90 -8t75 -16l27 -9q11 0 14 14l23 109q2 6 2 14q0 12 -19 12h-167q-27 0 -27 23q0 10 2 16l14 70q6 31 37 31
h170q22 0 25 18l22 102q9 34 45 37l209 23q14 2 27 2q31 0 31 -27q0 -10 -2 -16l-23 -111q-2 -6 -2 -14q0 -14 18 -14zM637 942q-70 0 -117 -65t-92 -199q-66 -207 -66 -330t76 -123q106 0 250 252q121 210 121 324q0 73 -86 117q-50 24 -86 24z" />
    <glyph glyph-name="Emacron" unicode="&#x112;" horiz-adv-x="1329" 
d="M1149 467q31 0 53.5 -21t22.5 -53t-25 -96q-16 -41 -29 -98q-16 -70 -30 -109q-13 -42 -54 -74t-98 -32q-26 0 -133 8t-246 8h-606q-70 0 -70 49q-4 22 14.5 37.5t53.5 32.5t51 31q63 54 103 264l151 751q17 97 17 107q0 32 -16 51.5t-35.5 26.5t-35.5 22t-16 37
q0 53 94 53h533q140 0 268 8q144 9 168 9q90 0 90 -56q0 -22 -10 -80q-5 -37 -23 -126t-22 -117q-12 -80 -86 -80q-63 0 -82 88q-8 41 -36 83.5t-68 65.5q-62 35 -226 35h-94q-32 0 -45.5 -12t-19.5 -43l-68 -332l-2 -12l-1.5 -9t-0.5 -5q0 -29 51 -29q94 0 205 6l80 6
q62 6 92 6q63 0 63 -39q0 -3 -18 -65q-18 -63 -40.5 -80.5t-88.5 -17.5q-53 0 -88 2q-70 4 -74 4q-37 2 -192 2q-33 0 -39 -33l-49 -240q-10 -46 -15.5 -76.5t-7.5 -57t2.5 -42t12.5 -27.5t24.5 -17.5t37 -8t52.5 -2.5q116 0 206.5 29.5t137.5 74.5q29 29 73 84.5t73.5 82
t60.5 26.5zM434 1686l19 86q6 26 34 26h732q26 0 26 -22q0 -11 -2 -17l-18 -88q-6 -26 -35 -26h-733q-25 0 -25 24q0 11 2 17z" />
    <glyph glyph-name="emacron" unicode="&#x113;" horiz-adv-x="1077" 
d="M418 637q187 0 282 65q78 54 78 129q0 44 -31.5 72.5t-78.5 28.5q-78 0 -154 -76q-74 -74 -115 -186q-4 -16 -4 -17q0 -16 23 -16zM498 471q-15 0 -31.5 0.5t-29.5 1t-24 1t-17 0.5l-7 1q-27 0 -27 -33q0 -83 22 -141.5t60 -83.5q61 -41 129 -41q108 0 220 80
q82 61 122 61q24 0 43 -18.5t19 -42.5q0 -49 -70 -119q-75 -75 -186 -117.5t-229 -42.5q-219 0 -338 125t-119 312q0 166 92 323q91 155 250 256q156 99 334 99t264 -86q88 -85 88 -193q0 -158 -170 -250t-395 -92zM326 1350l18 86q6 26 35 26h731q27 0 27 -22q0 -11 -2 -17
l-19 -88q-6 -26 -35 -26h-733q-24 0 -24 24q0 11 2 17z" />
    <glyph glyph-name="Ebreve" unicode="&#x114;" horiz-adv-x="1329" 
d="M1149 467q31 0 53.5 -21t22.5 -53t-25 -96q-16 -41 -29 -98q-16 -70 -30 -109q-13 -42 -54 -74t-98 -32q-26 0 -133 8t-246 8h-606q-70 0 -70 49q-4 22 14.5 37.5t53.5 32.5t51 31q63 54 103 264l151 751q17 97 17 107q0 32 -16 51.5t-35.5 26.5t-35.5 22t-16 37
q0 53 94 53h533q140 0 268 8q144 9 168 9q90 0 90 -56q0 -22 -10 -80q-5 -37 -23 -126t-22 -117q-12 -80 -86 -80q-63 0 -82 88q-8 41 -36 83.5t-68 65.5q-62 35 -226 35h-94q-32 0 -45.5 -12t-19.5 -43l-68 -332l-2 -12l-1.5 -9t-0.5 -5q0 -29 51 -29q94 0 205 6l80 6
q62 6 92 6q63 0 63 -39q0 -3 -18 -65q-18 -63 -40.5 -80.5t-88.5 -17.5q-53 0 -88 2q-70 4 -74 4q-37 2 -192 2q-33 0 -39 -33l-49 -240q-10 -46 -15.5 -76.5t-7.5 -57t2.5 -42t12.5 -27.5t24.5 -17.5t37 -8t52.5 -2.5q116 0 206.5 29.5t137.5 74.5q29 29 73 84.5t73.5 82
t60.5 26.5zM827 1612q-102 0 -166.5 52.5t-64.5 131.5q0 76 55 76q26 0 47 -35q49 -76 144 -76q94 0 168 80q31 31 53 31q19 0 31 -13t12 -32q0 -65 -64 -129q-86 -86 -215 -86z" />
    <glyph glyph-name="ebreve" unicode="&#x115;" horiz-adv-x="1077" 
d="M418 637q187 0 282 65q78 54 78 129q0 44 -31.5 72.5t-78.5 28.5q-78 0 -154 -76q-74 -74 -115 -186q-4 -16 -4 -17q0 -16 23 -16zM498 471q-15 0 -31.5 0.5t-29.5 1t-24 1t-17 0.5l-7 1q-27 0 -27 -33q0 -83 22 -141.5t60 -83.5q61 -41 129 -41q108 0 220 80
q82 61 122 61q24 0 43 -18.5t19 -42.5q0 -49 -70 -119q-75 -75 -186 -117.5t-229 -42.5q-219 0 -338 125t-119 312q0 166 92 323q91 155 250 256q156 99 334 99t264 -86q88 -85 88 -193q0 -158 -170 -250t-395 -92zM707 1229q-102 0 -167 52.5t-65 131.5q0 76 55 76
q27 0 48 -35q49 -76 143 -76t168 80q31 31 53 31q19 0 31 -13t12 -32q0 -66 -63 -129q-86 -86 -215 -86z" />
    <glyph glyph-name="Edotaccent" unicode="&#x116;" horiz-adv-x="1329" 
d="M1149 467q31 0 53.5 -21t22.5 -53t-25 -96q-16 -41 -29 -98q-16 -70 -30 -109q-13 -42 -54 -74t-98 -32q-26 0 -133 8t-246 8h-606q-70 0 -70 49q-4 22 14.5 37.5t53.5 32.5t51 31q63 54 103 264l151 751q17 97 17 107q0 32 -16 51.5t-35.5 26.5t-35.5 22t-16 37
q0 53 94 53h533q140 0 268 8q144 9 168 9q90 0 90 -56q0 -22 -10 -80q-5 -37 -23 -126t-22 -117q-12 -80 -86 -80q-63 0 -82 88q-8 41 -36 83.5t-68 65.5q-62 35 -226 35h-94q-32 0 -45.5 -12t-19.5 -43l-68 -332l-2 -12l-1.5 -9t-0.5 -5q0 -29 51 -29q94 0 205 6l80 6
q62 6 92 6q63 0 63 -39q0 -3 -18 -65q-18 -63 -40.5 -80.5t-88.5 -17.5q-53 0 -88 2q-70 4 -74 4q-37 2 -192 2q-33 0 -39 -33l-49 -240q-10 -46 -15.5 -76.5t-7.5 -57t2.5 -42t12.5 -27.5t24.5 -17.5t37 -8t52.5 -2.5q116 0 206.5 29.5t137.5 74.5q29 29 73 84.5t73.5 82
t60.5 26.5zM954 1829q11 -18 11 -45q0 -45 -16 -94.5t-38 -67.5q-36 -25 -114 -25q-82 0 -101 25q-10 10 -10 47q0 45 15.5 93.5t37.5 66.5q30 24 113 24q81 0 102 -24z" />
    <glyph glyph-name="edotaccent" unicode="&#x117;" horiz-adv-x="1077" 
d="M418 637q187 0 282 65q78 54 78 129q0 44 -31.5 72.5t-78.5 28.5q-78 0 -154 -76q-74 -74 -115 -186q-4 -16 -4 -17q0 -16 23 -16zM498 471q-15 0 -31.5 0.5t-29.5 1t-24 1t-17 0.5l-7 1q-27 0 -27 -33q0 -83 22 -141.5t60 -83.5q61 -41 129 -41q108 0 220 80
q82 61 122 61q24 0 43 -18.5t19 -42.5q0 -49 -70 -119q-75 -75 -186 -117.5t-229 -42.5q-219 0 -338 125t-119 312q0 166 92 323q91 155 250 256q156 99 334 99t264 -86q88 -85 88 -193q0 -158 -170 -250t-395 -92zM842 1495q10 -17 10 -45q0 -45 -15.5 -94.5t-37.5 -67.5
q-35 -24 -115 -24q-82 0 -100 24q-11 11 -11 47q0 44 16 93t38 67q31 25 112 25t103 -25z" />
    <glyph glyph-name="Eogonek" unicode="&#x118;" horiz-adv-x="1329" 
d="M1098 -227q26 0 26 -25q4 -18 -24.5 -50.5t-90 -61.5t-132.5 -29q-93 0 -144 43t-51 108q0 59 38 126t95 112q-144 4 -205 4h-606q-70 0 -70 49q-4 22 14.5 37.5t53.5 32.5t51 31q63 54 103 264l151 751q17 97 17 107q0 32 -16 51.5t-35.5 26.5t-35.5 22t-16 37
q0 53 94 53h533q140 0 268 8q144 9 168 9q90 0 90 -56q0 -22 -10 -80q-5 -37 -23 -126t-22 -117q-12 -80 -86 -80q-63 0 -82 88q-8 41 -36 83.5t-68 65.5q-62 35 -226 35h-94q-32 0 -45.5 -12t-19.5 -43l-68 -332l-2 -12l-1.5 -9t-0.5 -5q0 -29 51 -29q94 0 205 6l80 6
q62 6 92 6q63 0 63 -39q0 -3 -18 -65q-18 -63 -40.5 -80.5t-88.5 -17.5q-53 0 -88 2q-70 4 -74 4q-37 2 -192 2q-33 0 -39 -33l-49 -240q-10 -46 -15.5 -76.5t-7.5 -57t2.5 -42t12.5 -27.5t24.5 -17.5t37 -8t52.5 -2.5q116 0 206.5 29.5t137.5 74.5q29 29 73 84.5t73.5 82
t60.5 26.5t53.5 -21t22.5 -53t-25 -96q-16 -41 -29 -98q-16 -70 -30 -109q-13 -42 -54 -74t-98 -32q-1 0 -71 4q-72 -176 -9 -226q20 -22 52.5 -25t57.5 5t51.5 19.5t27.5 11.5z" />
    <glyph glyph-name="eogonek" unicode="&#x119;" horiz-adv-x="1079" 
d="M494 471q-19 0 -43 1t-41.5 2t-18.5 1q-17 0 -21.5 -8t-4.5 -33q0 -129 57.5 -192.5t148.5 -63.5q96 0 197 64q8 4 38.5 25.5t37.5 25.5q43 24 71 24q25 0 43.5 -18.5t18.5 -44.5q0 -47 -70 -117q-186 -180 -186 -299q0 -48 28.5 -74t69.5 -26q29 0 73 18l44 17
q27 0 27 -25q2 -12 -16 -35t-49 -47t-80 -41.5t-101 -17.5q-80 0 -134.5 48t-54.5 126q0 96 82 194q3 3 4 6t-0.5 5t-5.5 2l-16 -2q-7 -1 -26.5 -3.5t-38.5 -4t-35 -1.5q-214 0 -336 125q-121 127 -121 312q-2 79 23 162.5t70.5 158.5t111 141.5t141 115t163 75.5t173.5 25
q155 0 250 -80q98 -76 98 -197q0 -111 -92 -194q-171 -150 -479 -150zM401 670q-4 -16 -4 -17q0 -16 23 -16q187 0 282 65q78 54 78 129q0 44 -31 71.5t-79 27.5q-86 0 -160 -80q-76 -82 -109 -180z" />
    <glyph glyph-name="Ecaron" unicode="&#x11a;" horiz-adv-x="1329" 
d="M1149 467q31 0 53.5 -21t22.5 -53t-25 -96q-16 -41 -29 -98q-16 -70 -30 -109q-13 -42 -54 -74t-98 -32q-26 0 -133 8t-246 8h-606q-70 0 -70 49q-4 22 14.5 37.5t53.5 32.5t51 31q63 54 103 264l151 751q17 97 17 107q0 32 -16 51.5t-35.5 26.5t-35.5 22t-16 37
q0 53 94 53h533q140 0 268 8q144 9 168 9q90 0 90 -56q0 -22 -10 -80q-5 -37 -23 -126t-22 -117q-12 -80 -86 -80q-63 0 -82 88q-8 41 -36 83.5t-68 65.5q-62 35 -226 35h-94q-32 0 -45.5 -12t-19.5 -43l-68 -332l-2 -12l-1.5 -9t-0.5 -5q0 -29 51 -29q94 0 205 6l80 6
q62 6 92 6q63 0 63 -39q0 -3 -18 -65q-18 -63 -40.5 -80.5t-88.5 -17.5q-53 0 -88 2q-70 4 -74 4q-37 2 -192 2q-33 0 -39 -33l-49 -240q-10 -46 -15.5 -76.5t-7.5 -57t2.5 -42t12.5 -27.5t24.5 -17.5t37 -8t52.5 -2.5q116 0 206.5 29.5t137.5 74.5q29 29 73 84.5t73.5 82
t60.5 26.5zM852 1726l156 125q22 19 47 19h125q14 0 14 -10q0 -5 -6 -11l-223 -215q-22 -22 -50 -22h-194q-28 0 -41 22l-135 215q-2 2 -2 9q0 12 14 12h111q18 0 37 -19l118 -127q8 -8 13 -8q1 0 2.5 1t5.5 4t8 5z" />
    <glyph glyph-name="ecaron" unicode="&#x11b;" horiz-adv-x="1077" 
d="M418 637q187 0 282 65q78 54 78 129q0 44 -31.5 72.5t-78.5 28.5q-78 0 -154 -76q-74 -74 -115 -186q-4 -16 -4 -17q0 -16 23 -16zM498 471q-15 0 -31.5 0.5t-29.5 1t-24 1t-17 0.5l-7 1q-27 0 -27 -33q0 -83 22 -141.5t60 -83.5q61 -41 129 -41q108 0 220 80
q82 61 122 61q24 0 43 -18.5t19 -42.5q0 -49 -70 -119q-75 -75 -186 -117.5t-229 -42.5q-219 0 -338 125t-119 312q0 166 92 323q91 155 250 256q156 99 334 99t264 -86q88 -85 88 -193q0 -158 -170 -250t-395 -92zM735 1343l156 125q22 19 47 19h125q14 0 14 -10
q0 -5 -6 -11l-223 -215q-22 -22 -49 -22h-195q-28 0 -41 22l-135 215q-2 2 -2 9q0 12 14 12h111q18 0 37 -19l119 -127q8 -8 12 -8q1 0 2.5 1t5.5 4t8 5z" />
    <glyph glyph-name="Gcircumflex" unicode="&#x11c;" horiz-adv-x="1505" 
d="M860 717h516q68 0 68 -47q0 -28 -21 -41q-7 -6 -31 -17t-30 -14q-44 -19 -65.5 -61t-41.5 -148l-34 -172q-8 -45 -25.5 -72t-58.5 -53q-183 -115 -414 -115q-290 0 -477 181q-185 182 -185 467q0 165 66.5 320t185.5 274q121 124 303 195t392 71q280 0 370 -84
q47 -47 47 -117q0 -62 -34 -168q-27 -86 -84 -86q-29 0 -52 12.5t-32 26.5l-45 90q-18 41 -48 74q-26 33 -79 57.5t-117 24.5q-211 0 -361 -211q-149 -210 -149 -508q0 -197 88.5 -316.5t255.5 -119.5q60 0 81.5 12.5t29.5 50.5l34 166q15 76 15 107q0 45 -23 71t-50 33.5
t-50 22t-23 39.5q0 55 78 55zM924 1755l-156 -125q-21 -18 -47 -18h-125q-14 0 -14 10q0 4 6 10l223 215q23 23 49 23h195q28 0 41 -23l135 -215q2 -2 2 -8q0 -12 -14 -12h-111q-19 0 -37 18l-119 127q-8 8 -12 8q-1 0 -2.5 -1t-5.5 -4t-8 -5z" />
    <glyph glyph-name="gcircumflex" unicode="&#x11d;" horiz-adv-x="1179" 
d="M1137 1092q42 0 66 -22.5t24 -61.5q0 -30 -8 -54q-7 -32 -49 -62t-103 -30q-13 0 -41 4q10 -45 10 -82q0 -171 -141 -309q-139 -136 -367 -151q-184 -12 -184 -78q0 -44 86 -53q98 -10 217 -13q133 0 197 -18q70 -20 110.5 -70.5t40.5 -118.5q0 -145 -164 -256
q-161 -112 -432 -112q-228 0 -366 69q-142 68 -142 183q0 71 58.5 124.5t140.5 65.5q16 3 16 10l-12 27q-10 30 -10 57q0 69 54 126t132 83q13 3 13 8q0 4 -7 7q-182 80 -182 264q0 191 168 325q170 138 379 138q63 0 126.5 -16t103 -34.5t71.5 -34.5t39 -16q13 0 28.5 16
t29.5 34.5t40 34.5t58 16zM600 -63q-28 0 -59 2q-70 0 -127 2q-70 3 -121 12q-63 9 -98 29l-15 -18q-16 -19 -27.5 -39.5t-11.5 -37.5q0 -58 73 -96.5t212 -38.5q136 0 219.5 33t83.5 92q0 57 -129 60zM528 471q94 0 140 100q47 103 47 213q0 164 -111 164q-97 0 -143 -98
q-45 -96 -45 -213q0 -166 112 -166zM666 1372l-156 -125q-21 -18 -47 -18h-125q-14 0 -14 10q0 4 6 10l223 215q23 23 49 23h195q28 0 41 -23l135 -215q2 -2 2 -8q0 -12 -14 -12h-111q-19 0 -37 18l-119 127q-8 8 -12 8q-1 0 -2.5 -1t-5.5 -4t-8 -5z" />
    <glyph glyph-name="Gbreve" unicode="&#x11e;" horiz-adv-x="1505" 
d="M860 717h516q68 0 68 -47q0 -28 -21 -41q-7 -6 -31 -17t-30 -14q-44 -19 -65.5 -61t-41.5 -148l-34 -172q-8 -45 -25.5 -72t-58.5 -53q-183 -115 -414 -115q-290 0 -477 181q-185 182 -185 467q0 165 66.5 320t185.5 274q121 124 303 195t392 71q280 0 370 -84
q47 -47 47 -117q0 -62 -34 -168q-27 -86 -84 -86q-29 0 -52 12.5t-32 26.5l-45 90q-18 41 -48 74q-26 33 -79 57.5t-117 24.5q-211 0 -361 -211q-149 -210 -149 -508q0 -197 88.5 -316.5t255.5 -119.5q60 0 81.5 12.5t29.5 50.5l34 166q15 76 15 107q0 45 -23 71t-50 33.5
t-50 22t-23 39.5q0 55 78 55zM928 1612q-102 0 -167 52.5t-65 131.5q0 76 56 76q26 0 47 -35q49 -76 143 -76t168 80q31 31 53 31q19 0 31 -13t12 -32q0 -66 -63 -129q-86 -86 -215 -86z" />
    <glyph glyph-name="gbreve" unicode="&#x11f;" horiz-adv-x="1179" 
d="M1137 1092q42 0 66 -22.5t24 -61.5q0 -30 -8 -54q-7 -32 -49 -62t-103 -30q-13 0 -41 4q10 -45 10 -82q0 -171 -141 -309q-139 -136 -367 -151q-184 -12 -184 -78q0 -44 86 -53q98 -10 217 -13q133 0 197 -18q70 -20 110.5 -70.5t40.5 -118.5q0 -145 -164 -256
q-161 -112 -432 -112q-228 0 -366 69q-142 68 -142 183q0 71 58.5 124.5t140.5 65.5q16 3 16 10l-12 27q-10 30 -10 57q0 69 54 126t132 83q13 3 13 8q0 4 -7 7q-182 80 -182 264q0 191 168 325q170 138 379 138q63 0 126.5 -16t103 -34.5t71.5 -34.5t39 -16q13 0 28.5 16
t29.5 34.5t40 34.5t58 16zM600 -63q-28 0 -59 2q-70 0 -127 2q-70 3 -121 12q-63 9 -98 29l-15 -18q-16 -19 -27.5 -39.5t-11.5 -37.5q0 -58 73 -96.5t212 -38.5q136 0 219.5 33t83.5 92q0 57 -129 60zM528 471q94 0 140 100q47 103 47 213q0 164 -111 164q-97 0 -143 -98
q-45 -96 -45 -213q0 -166 112 -166zM662 1229q-102 0 -167 52.5t-65 131.5q0 76 55 76q26 0 47 -35q49 -76 144 -76q94 0 168 80q31 31 53 31q19 0 31 -13t12 -32q0 -66 -63 -129q-86 -86 -215 -86z" />
    <glyph glyph-name="Gdotaccent" unicode="&#x120;" horiz-adv-x="1505" 
d="M860 717h516q68 0 68 -47q0 -28 -21 -41q-7 -6 -31 -17t-30 -14q-44 -19 -65.5 -61t-41.5 -148l-34 -172q-8 -45 -25.5 -72t-58.5 -53q-183 -115 -414 -115q-290 0 -477 181q-185 182 -185 467q0 165 66.5 320t185.5 274q121 124 303 195t392 71q280 0 370 -84
q47 -47 47 -117q0 -62 -34 -168q-27 -86 -84 -86q-29 0 -52 12.5t-32 26.5l-45 90q-18 41 -48 74q-26 33 -79 57.5t-117 24.5q-211 0 -361 -211q-149 -210 -149 -508q0 -197 88.5 -316.5t255.5 -119.5q60 0 81.5 12.5t29.5 50.5l34 166q15 76 15 107q0 45 -23 71t-50 33.5
t-50 22t-23 39.5q0 55 78 55zM1038 1831q11 -18 11 -45q0 -45 -16 -94.5t-38 -67.5q-36 -25 -114 -25q-82 0 -101 25q-10 10 -10 47q0 45 15.5 93.5t37.5 66.5q30 24 113 24q81 0 102 -24z" />
    <glyph glyph-name="gdotaccent" unicode="&#x121;" horiz-adv-x="1179" 
d="M1137 1092q42 0 66 -22.5t24 -61.5q0 -30 -8 -54q-7 -32 -49 -62t-103 -30q-13 0 -41 4q10 -45 10 -82q0 -171 -141 -309q-139 -136 -367 -151q-184 -12 -184 -78q0 -44 86 -53q98 -10 217 -13q133 0 197 -18q70 -20 110.5 -70.5t40.5 -118.5q0 -145 -164 -256
q-161 -112 -432 -112q-228 0 -366 69q-142 68 -142 183q0 71 58.5 124.5t140.5 65.5q16 3 16 10l-12 27q-10 30 -10 57q0 69 54 126t132 83q13 3 13 8q0 4 -7 7q-182 80 -182 264q0 191 168 325q170 138 379 138q63 0 126.5 -16t103 -34.5t71.5 -34.5t39 -16q13 0 28.5 16
t29.5 34.5t40 34.5t58 16zM600 -63q-28 0 -59 2q-70 0 -127 2q-70 3 -121 12q-63 9 -98 29l-15 -18q-16 -19 -27.5 -39.5t-11.5 -37.5q0 -58 73 -96.5t212 -38.5q136 0 219.5 33t83.5 92q0 57 -129 60zM528 471q94 0 140 100q47 103 47 213q0 164 -111 164q-97 0 -143 -98
q-45 -96 -45 -213q0 -166 112 -166zM788 1495q11 -18 11 -45q0 -45 -16 -94.5t-38 -67.5q-35 -24 -114 -24q-83 0 -101 24q-10 10 -10 47q0 45 15.5 93.5t37.5 66.5q31 25 113 25q80 0 102 -25z" />
    <glyph glyph-name="Gcommaaccent" unicode="&#x122;" horiz-adv-x="1505" 
d="M782 -96q33 -44 33 -92q0 -82 -139 -215q-105 -91 -152 -91q-17 0 -28 11t-11 28q0 12 9.5 20t32.5 20.5t40 25.5q64 52 64 96q0 26 -31 68q-43 58 -43 82q0 29 49 75q51 45 82 45h4q-277 9 -454 189q-177 183 -177 459q0 165 66.5 320t185.5 274q121 124 303 195t392 71
q280 0 370 -84q47 -47 47 -117q0 -62 -34 -168q-27 -86 -84 -86q-29 0 -52 12.5t-32 26.5l-45 90q-18 41 -48 74q-26 33 -79 57.5t-117 24.5q-211 0 -361 -211q-149 -210 -149 -508q0 -197 88.5 -316.5t255.5 -119.5q60 0 81.5 12.5t29.5 50.5l34 166q15 76 15 107
q0 45 -23 71t-50 33.5t-50 22t-23 39.5q0 55 78 55h516q68 0 68 -47q0 -28 -21 -41q-7 -6 -31 -17t-30 -14q-44 -19 -65.5 -61t-41.5 -148l-34 -172q-8 -45 -25.5 -72t-58.5 -53q-183 -115 -414 -115h-31q44 -9 90 -73z" />
    <glyph glyph-name="gcommaaccent" unicode="&#x123;" horiz-adv-x="1179" 
d="M528 1174q-32 43 -32 92q0 82 139 215q104 90 151 90q17 0 28 -11t11 -28q0 -12 -9.5 -20t-32.5 -20.5t-40 -25.5q-63 -51 -63 -96q0 -25 31 -67q43 -58 43 -82q0 -30 -52 -76q-48 -45 -79 -45q-42 0 -95 74zM1137 1092q42 0 66 -22.5t24 -61.5q0 -30 -8 -54
q-7 -32 -49 -62t-103 -30q-13 0 -41 4q10 -45 10 -82q0 -171 -141 -309q-139 -136 -367 -151q-184 -12 -184 -78q0 -44 86 -53q98 -10 217 -13q133 0 197 -18q70 -20 110.5 -70.5t40.5 -118.5q0 -145 -164 -256q-161 -112 -432 -112q-228 0 -366 69q-142 68 -142 183
q0 71 58.5 124.5t140.5 65.5q16 3 16 10l-12 27q-10 30 -10 57q0 69 54 126t132 83q13 3 13 8q0 4 -7 7q-182 80 -182 264q0 191 168 325q170 138 379 138q63 0 126.5 -16t103 -34.5t71.5 -34.5t39 -16q13 0 28.5 16t29.5 34.5t40 34.5t58 16zM600 -63q-28 0 -59 2
q-70 0 -127 2q-70 3 -121 12q-63 9 -98 29l-15 -18q-16 -19 -27.5 -39.5t-11.5 -37.5q0 -58 73 -96.5t212 -38.5q136 0 219.5 33t83.5 92q0 57 -129 60zM528 471q94 0 140 100q47 103 47 213q0 164 -111 164q-97 0 -143 -98q-45 -96 -45 -213q0 -166 112 -166z" />
    <glyph glyph-name="Hcircumflex" unicode="&#x124;" horiz-adv-x="1667" 
d="M1206 1462h459q68 0 68 -47q0 -25 -27 -47q-6 -4 -27 -13.5t-28 -11.5q-42 -23 -60.5 -62t-42.5 -146l-145 -719q-27 -135 -27 -185q0 -43 18.5 -72t40 -40t40 -27.5t18.5 -36.5q0 -55 -92 -55h-498q-29 0 -46 15t-17 36t15.5 36.5t36.5 24.5t50 31t49 52q33 54 68 221
l49 239q2 8 2 19q0 18 -25 18h-507q-23 0 -29 -20l-51 -256q-27 -135 -27 -185q0 -43 18.5 -72t40 -40t40 -26.5t18.5 -35.5q0 -57 -92 -57h-498q-30 0 -47 15t-17 36q-3 19 12 34.5t38 25.5t52 30.5t46 46.5q36 50 72 228l151 747q17 97 17 107q0 28 -16 49.5t-34.5 32.5
t-34.5 25.5t-16 31.5q0 53 80 53h459q67 0 67 -47q0 -29 -20 -41q-7 -6 -31.5 -17t-30.5 -14q-45 -20 -63 -61q-22 -59 -39 -147l-47 -232q-2 -6 -2 -18q0 -23 29 -23h503q24 0 27 21l51 252q23 125 23 137q0 28 -16 49.5t-34.5 31.5t-34.5 24.5t-16 31.5q0 53 80 53z
M1008 1755l-156 -125q-21 -18 -47 -18h-125q-14 0 -14 10q0 4 6 10l223 215q23 23 49 23h195q28 0 41 -23l135 -215q2 -2 2 -8q0 -12 -14 -12h-111q-19 0 -37 18l-119 127q-8 8 -12 8q-1 0 -2.5 -1t-5.5 -4t-8 -5z" />
    <glyph glyph-name="hcircumflex" unicode="&#x125;" horiz-adv-x="1339" 
d="M1223 231q37 0 37 -43q0 -52 -105 -131q-106 -80 -225 -80q-82 0 -130 47t-48 138q0 64 49 276q51 211 51 291q0 113 -84 113q-59 0 -128.5 -72t-127.5 -190q-55 -113 -94 -238q-31 -113 -68 -299q-6 -37 -53 -43l-191 -20q-21 -3 -28 -3q-37 0 -37 37q0 9 2 17l225 1114
q19 100 19 112q0 29 -23 46t-51 22.5t-51 20.5t-23 40q3 18 9.5 29t21.5 18t26.5 9.5t39.5 7.5q139 20 299 70q33 10 51 10q55 0 55 -49q0 -13 -2 -21l-127 -622q-2 -6 -2 -15q0 -6 6 -6q5 0 10 8q172 267 398 267q113 0 183.5 -64t70.5 -180q0 -75 -54 -328
q-51 -239 -51 -289q0 -51 35 -51q20 0 59 25q36 26 56 26zM840 1755l-156 -125q-21 -18 -47 -18h-125q-14 0 -14 10q0 4 6 10l223 215q23 23 49 23h195q28 0 41 -23l135 -215q2 -2 2 -8q0 -12 -14 -12h-111q-19 0 -37 18l-119 127q-8 8 -12 8q-1 0 -2.5 -1t-5.5 -4t-8 -5z
" />
    <glyph glyph-name="Hbar" unicode="&#x126;" horiz-adv-x="1822" 
d="M1651 1176h186q27 0 27 -25q0 -10 -2 -16l-21 -99q-6 -30 -37 -30h-188q-27 0 -33 -25l-115 -565q-26 -130 -26 -187q0 -42 18.5 -71t40 -41t40 -27.5t18.5 -34.5q0 -55 -95 -55h-497q-64 0 -64 51q-3 20 20.5 38t61.5 40.5t57 44.5q44 50 82 242l39 194q2 6 2 15
q0 20 -24 20h-508q-21 0 -27 -20l-43 -209q-26 -130 -26 -185q0 -36 12 -62.5t29 -40t34 -23.5t29 -22t12 -28q0 -55 -94 -55h-498q-63 0 -63 51q0 19 15.5 34t37 25t49 30t45.5 46q36 51 74 230l113 555q2 8 2 16q0 19 -25 19h-188q-25 0 -25 24q0 11 2 17l21 98
q6 31 37 31h188q29 0 35 26q8 47 8 68q0 56 -51 82q-49 27 -49 57q0 53 80 53h458q68 0 68 -49q0 -22 -10 -35q-6 -7 -24.5 -16t-37.5 -17t-22 -10q-55 -28 -76 -129q-2 -6 -2 -14q0 -16 24 -16h504q29 0 35 26q8 41 8 70q0 28 -15.5 49.5t-34.5 31.5t-34.5 24.5t-15.5 31.5
q0 53 80 53h459q67 0 67 -49q0 -13 -4.5 -23t-14.5 -17t-17.5 -11.5t-23 -11t-22.5 -9.5q-37 -17 -56 -45.5t-32 -89.5q-2 -6 -2 -14q0 -16 25 -16zM1210 836l27 137q2 6 2 14q0 19 -25 19h-503q-27 0 -33 -25l-27 -129q-2 -6 -2 -16q0 -21 29 -21h504q25 0 28 21z" />
    <glyph glyph-name="hbar" unicode="&#x127;" horiz-adv-x="1339" 
d="M1223 231q37 0 37 -43q0 -52 -105 -131q-106 -80 -225 -80q-82 0 -130 47t-48 138q0 64 49 276q51 211 51 291q0 113 -84 113q-59 0 -128.5 -72t-127.5 -190q-55 -113 -94 -238q-31 -113 -68 -299q-6 -37 -53 -43l-191 -20q-21 -3 -28 -3q-37 0 -37 37q0 9 2 17l231 1151
q2 6 2 14q0 12 -18 12h-121q-26 0 -26 23q0 10 2 16l14 70q6 31 37 31h123q21 0 24 18l23 102q9 31 45 37l209 23q14 2 26 2q31 0 31 -27q0 -10 -2 -16l-22 -111q-3 -9 -3 -14q0 -14 19 -14h168q22 0 22 -19q0 -6 -2 -12l-16 -80q-6 -29 -37 -29h-166q-21 0 -24 -20
l-70 -350q-2 -6 -2 -15q0 -6 6 -6q5 0 10 8q172 267 398 267q113 0 183.5 -64t70.5 -180q0 -75 -54 -328q-51 -239 -51 -289q0 -51 35 -51q20 0 59 25q36 26 56 26z" />
    <glyph glyph-name="Itilde" unicode="&#x128;" horiz-adv-x="759" 
d="M469 225q0 -40 18.5 -68t40 -39.5t40 -27.5t18.5 -35q0 -55 -92 -55h-496q-64 0 -64 49q0 23 25.5 42t64.5 44t60 55q35 53 72 226l145 731q21 102 21 125q0 53 -52 80q-49 27 -49 57q0 53 80 53h457q67 0 67 -47q0 -26 -26 -47q-6 -4 -27.5 -13.5t-28.5 -11.5
q-42 -20 -61.5 -61t-40.5 -147l-145 -719q-27 -138 -27 -191zM264 1653l-43 14q-16 6 -16 21l4 16q71 201 229 201q65 0 160 -39q98 -39 139 -39q53 0 94 59q13 19 27 19l16 -4l35 -13q21 -6 21 -18q0 -1 -4 -17q-76 -202 -226 -202q-63 0 -161 39q-103 41 -142 41
q-58 0 -92 -64q-9 -18 -24 -18q-1 0 -17 4z" />
    <glyph glyph-name="itilde" unicode="&#x129;" horiz-adv-x="696" 
d="M580 231q36 0 36 -41q0 -56 -108 -135q-110 -78 -221 -78q-82 0 -129 46t-47 137q0 63 59 338q61 271 61 315q0 31 -22.5 49t-50 23.5t-50 20.5t-22.5 42q0 52 96 64q151 21 299 67q41 13 51 13q54 0 54 -54q0 -12 -78 -391t-78 -416q0 -51 37 -51q21 0 57 25
q36 26 56 26zM123 1272l-43 14q-17 7 -17 21q0 1 1 3t2 6t2 7q71 201 229 201q65 0 160 -39q98 -39 139 -39q53 0 94 59q13 19 27 19l16 -4l35 -13q20 -6 20 -18l-4 -16q-77 -203 -225 -203q-64 0 -162 39q-103 41 -141 41q-58 0 -92 -64q-9 -18 -25 -18z" />
    <glyph glyph-name="Imacron" unicode="&#x12a;" horiz-adv-x="759" 
d="M469 225q0 -40 18.5 -68t40 -39.5t40 -27.5t18.5 -35q0 -55 -92 -55h-496q-64 0 -64 49q0 23 25.5 42t64.5 44t60 55q35 53 72 226l145 731q21 102 21 125q0 53 -52 80q-49 27 -49 57q0 53 80 53h457q67 0 67 -47q0 -26 -26 -47q-6 -4 -27.5 -13.5t-28.5 -11.5
q-42 -20 -61.5 -61t-40.5 -147l-145 -719q-27 -138 -27 -191zM164 1686l18 86q6 26 35 26h731q27 0 27 -22q0 -11 -2 -17l-19 -88q-6 -26 -34 -26h-734q-24 0 -24 24q0 11 2 17z" />
    <glyph glyph-name="imacron" unicode="&#x12b;" horiz-adv-x="696" 
d="M580 231q36 0 36 -41q0 -56 -108 -135q-110 -78 -221 -78q-82 0 -129 46t-47 137q0 63 59 338q61 271 61 315q0 31 -22.5 49t-50 23.5t-50 20.5t-22.5 42q0 52 96 64q151 21 299 67q41 13 51 13q54 0 54 -54q0 -12 -78 -391t-78 -416q0 -51 37 -51q21 0 57 25
q36 26 56 26zM23 1350l18 86q6 26 35 26h731q27 0 27 -22q0 -8 -3 -17l-18 -88q-6 -26 -35 -26h-733q-25 0 -25 24q0 8 3 17z" />
    <glyph glyph-name="Ibreve" unicode="&#x12c;" horiz-adv-x="759" 
d="M469 225q0 -40 18.5 -68t40 -39.5t40 -27.5t18.5 -35q0 -55 -92 -55h-496q-64 0 -64 49q0 23 25.5 42t64.5 44t60 55q35 53 72 226l145 731q21 102 21 125q0 53 -52 80q-49 27 -49 57q0 53 80 53h457q67 0 67 -47q0 -26 -26 -47q-6 -4 -27.5 -13.5t-28.5 -11.5
q-42 -20 -61.5 -61t-40.5 -147l-145 -719q-27 -138 -27 -191zM571 1612q-102 0 -166.5 52.5t-64.5 131.5q0 76 55 76q26 0 47 -35q49 -76 144 -76q94 0 168 80q31 31 53 31q19 0 31 -13t12 -32q0 -65 -64 -129q-86 -86 -215 -86z" />
    <glyph glyph-name="ibreve" unicode="&#x12d;" horiz-adv-x="696" 
d="M580 231q36 0 36 -41q0 -56 -108 -135q-110 -78 -221 -78q-82 0 -129 46t-47 137q0 63 59 338q61 271 61 315q0 31 -22.5 49t-50 23.5t-50 20.5t-22.5 42q0 52 96 64q151 21 299 67q41 13 51 13q54 0 54 -54q0 -12 -78 -391t-78 -416q0 -51 37 -51q21 0 57 25
q36 26 56 26zM412 1229q-102 0 -167 52.5t-65 131.5q0 76 56 76q26 0 47 -35q49 -76 143 -76t168 80q31 31 53 31q19 0 31 -13t12 -32q0 -66 -63 -129q-86 -86 -215 -86z" />
    <glyph glyph-name="Iogonek" unicode="&#x12e;" horiz-adv-x="759" 
d="M481 -227q27 0 27 -25q4 -18 -25 -50.5t-90.5 -61.5t-132.5 -29q-93 0 -143.5 43t-50.5 108q0 60 41 129t100 113h-209q-64 0 -64 49q0 23 25.5 42t64.5 44t60 55q35 53 72 226l145 731q21 102 21 125q0 53 -52 80q-49 27 -49 57q0 53 80 53h457q67 0 67 -47
q0 -26 -26 -47q-6 -4 -27.5 -13.5t-28.5 -11.5q-42 -20 -61.5 -61t-40.5 -147l-145 -719q-27 -138 -27 -191q0 -40 18.5 -68t40 -39.5t40 -27.5t18.5 -35q0 -55 -92 -55h-187q-45 -96 -45 -160q0 -51 30.5 -77.5t72.5 -26.5q22 0 49 9t45.5 18.5t21.5 9.5z" />
    <glyph glyph-name="iogonek" unicode="&#x12f;" horiz-adv-x="714" 
d="M596 -227q25 0 25 -27q0 -34 -78 -88q-77 -53 -162 -53q-75 0 -131.5 48.5t-56.5 123.5q0 107 106 200q-86 5 -133 55t-47 140q0 75 57 338q60 280 60 307q0 30 -23 47.5t-51 23.5t-51 21t-23 41q0 47 96 62q157 20 305 71q27 9 46 9q53 0 53 -50q0 -12 -2 -20
q-10 -59 -82 -395q-74 -346 -74 -396q0 -53 37 -53q21 0 59 27q39 26 54 26q36 0 36 -38q0 -40 -73 -113q-38 -36 -54.5 -52t-37 -41.5t-41.5 -58.5q-48 -78 -26 -135t97 -57q21 0 67 18.5t48 18.5zM487 1163q-43 0 -108 74q-64 76 -64 125q0 51 82 121q83 71 135 71
q46 0 109 -75q64 -73 64 -123q0 -51 -82 -121q-84 -72 -136 -72z" />
    <glyph glyph-name="Idot" unicode="&#x130;" horiz-adv-x="759" 
d="M469 225q0 -40 18.5 -68t40 -39.5t40 -27.5t18.5 -35q0 -55 -92 -55h-496q-64 0 -64 49q0 23 25.5 42t64.5 44t60 55q35 53 72 226l145 731q21 102 21 125q0 53 -52 80q-49 27 -49 57q0 53 80 53h457q67 0 67 -47q0 -26 -26 -47q-6 -4 -27.5 -13.5t-28.5 -11.5
q-42 -20 -61.5 -61t-40.5 -147l-145 -719q-27 -138 -27 -191zM711 1831q10 -17 10 -45q0 -45 -15.5 -94.5t-37.5 -67.5q-36 -25 -115 -25q-81 0 -100 25q-11 11 -11 47q0 44 16 93t38 67q30 24 112 24t103 -24z" />
    <glyph glyph-name="dotlessi" unicode="&#x131;" horiz-adv-x="696" 
d="M580 231q36 0 36 -41q0 -56 -108 -135q-110 -78 -221 -78q-82 0 -129 46t-47 137q0 63 59 338q61 271 61 315q0 31 -22.5 49t-50 23.5t-50 20.5t-22.5 42q0 52 96 64q151 21 299 67q41 13 51 13q54 0 54 -54q0 -12 -78 -391t-78 -416q0 -51 37 -51q21 0 57 25
q36 26 56 26z" />
    <glyph glyph-name="IJ" unicode="&#x132;" horiz-adv-x="1607" 
d="M401 -342q-71 53 -71 166q0 141 100 141q23 2 50 -17t52.5 -47t52 -55.5t59.5 -46t65 -16.5q52 -6 94.5 36t68.5 107q22 46 35 99q27 98 29 106l25 115l159 801q37 179 37 223q0 51 -51 80t-51 59q0 53 88 53h459q63 0 63 -49q0 -35 -55 -59q-51 -19 -76 -51
q-30 -46 -70 -256l-39 -228l-45 -246q-8 -48 -45 -213q-23 -102 -55 -200q-93 -266 -266.5 -411.5t-405.5 -145.5q-131 0 -207 55zM469 225q0 -40 18.5 -68t40 -39.5t40 -27.5t18.5 -35q0 -55 -92 -55h-496q-64 0 -64 49q0 23 25.5 42t64.5 44t60 55q35 53 72 226l145 731
q21 102 21 125q0 53 -52 80q-49 27 -49 57q0 53 80 53h457q67 0 67 -47q0 -26 -26 -47q-6 -4 -27.5 -13.5t-28.5 -11.5q-42 -20 -61.5 -61t-40.5 -147l-145 -719q-27 -138 -27 -191z" />
    <glyph glyph-name="ij" unicode="&#x133;" horiz-adv-x="1454" 
d="M1257 1081q42 11 50 11q55 0 55 -54q0 -8 -2 -16l-90 -490l-19 -100l-20 -108l-19 -91q-15 -69 -24 -100l-27 -84q-32 -94 -76 -164q-87 -141 -222 -209.5t-292 -68.5q-309 0 -309 209q0 127 94 127q22 2 49 -15.5t53.5 -43t54.5 -51t62.5 -43t67.5 -15.5q117 0 168 141
q18 44 34.5 100.5t26 98.5t29.5 137q2 6 2 14l88 441q17 97 17 108q0 30 -23 47.5t-51 23.5t-51 21t-23 41q0 52 96 64q155 20 301 69zM1251 1163q-43 0 -108 74q-64 76 -64 125q0 51 82 121q83 71 135 71q46 0 109 -75q63 -72 63 -123t-82 -121q-84 -72 -135 -72zM580 231
q36 0 36 -41q0 -56 -108 -135q-110 -78 -221 -78q-82 0 -129 46t-47 137q0 63 59 338q61 271 61 315q0 31 -22.5 49t-50 23.5t-50 20.5t-22.5 42q0 52 96 64q151 21 299 67q41 13 51 13q54 0 54 -54q0 -12 -78 -391t-78 -416q0 -51 37 -51q21 0 57 25q36 26 56 26zM477 1163
q-43 0 -108 74q-64 76 -64 125q0 51 82 121q83 71 135 71q46 0 109 -75q63 -72 63 -123t-82 -121q-84 -72 -135 -72z" />
    <glyph glyph-name="Jcircumflex" unicode="&#x134;" horiz-adv-x="825" 
d="M-381 -342q-72 54 -72 166q0 141 101 141q28 2 63 -27t64 -64.5t70.5 -64.5t80.5 -26q52 -6 95 36t69 107q22 46 35 99q27 98 29 106l24 115l160 801q37 179 37 223q0 51 -51 80q-52 30 -52 59q0 53 88 53h459q64 0 64 -49q0 -35 -56 -59q-50 -19 -75 -51
q-30 -46 -70 -256l-39 -228l-45 -246q-8 -48 -45 -213q-23 -102 -55 -200q-93 -266 -266.5 -411.5t-405.5 -145.5q-131 0 -207 55zM610 1755l-155 -125q-21 -18 -47 -18h-125q-15 0 -15 10q0 4 6 10l224 215q23 23 49 23h194q28 0 41 -23l136 -215q2 -2 2 -8q0 -12 -15 -12
h-110q-19 0 -37 18l-119 127q-8 8 -12 8z" />
    <glyph glyph-name="jcircumflex" unicode="&#x135;" horiz-adv-x="788" 
d="M606 1081q42 11 49 11q56 0 56 -54q0 -8 -2 -16l-91 -490l-18 -100l-20 -108l-19 -91q-15 -69 -24 -100l-27 -84q-32 -94 -76 -164q-87 -141 -222 -209.5t-292 -68.5q-309 0 -309 209q0 127 94 127q22 2 49 -15.5t53.5 -43t54.5 -51t62.5 -43t67.5 -15.5q117 0 168 141
q18 44 34.5 100.5t26 98.5t29.5 137q2 6 2 14l88 441q16 91 16 108q0 30 -23 47.5t-50.5 23.5t-50.5 21t-23 41q0 52 96 64q155 20 301 69zM561 1372l-155 -125q-21 -18 -48 -18h-125q-14 0 -14 10q0 4 6 10l224 215q23 23 49 23h194q28 0 41 -23l135 -215q2 -2 2 -8
q0 -12 -14 -12h-111q-18 0 -36 18l-119 127q-8 8 -12 8z" />
    <glyph glyph-name="Kcommaaccent" unicode="&#x136;" horiz-adv-x="1556" 
d="M1190 1462h416q71 0 71 -47q0 -33 -37 -49q-6 -3 -43.5 -16t-52.5 -21q-123 -57 -391 -278q-70 -56 -256 -211q-4 -4 -4 -9q0 -10 10 -10l9 3q8 2 19 4.5t19 2.5q53 0 90 -61q33 -54 119 -256q82 -201 127 -274q48 -72 92 -101q2 -1 30.5 -15.5t39.5 -26.5t6 -27
q0 -44 -68 -56l-184 -32q-51 -7 -53 -7q-55 0 -102 35q-79 56 -213 404q-38 97 -72 161q-51 108 -121 50l-104 -86q-19 -16 -25 -43l-16 -80q-27 -138 -27 -187q0 -48 18 -75q13 -20 39 -34.5t43 -28t17 -36.5q0 -55 -94 -55h-494q-64 0 -64 51q0 33 60 64q56 29 78 57
q46 58 84 244l151 749q17 93 17 105q0 33 -16 54t-34.5 28.5t-34.5 21t-16 33.5q0 55 80 55h455q67 0 67 -47q0 -29 -20 -41q-7 -6 -31.5 -17t-30.5 -14q-45 -20 -63 -61q-23 -61 -39 -145l-63 -316q-3 -12 -3 -16q0 -10 11 -10q7 0 22 12l359 305q107 92 147.5 138t40.5 81
q0 12 -24.5 40t-24.5 42q0 49 84 49zM850 -96q33 -44 33 -92q0 -81 -140 -215q-105 -91 -151 -91q-17 0 -28 11t-11 28q0 12 9.5 20t32.5 20.5t40 25.5q63 51 63 96q0 27 -30 68q-43 58 -43 82q0 29 49 75q51 45 82 45q42 0 94 -73z" />
    <glyph glyph-name="kcommaaccent" unicode="&#x137;" horiz-adv-x="1245" 
d="M1102 1092q145 0 145 -162q0 -64 -24 -107t-74 -43q-25 0 -78 29q-48 31 -84 31q-53 0 -134 -64t-169 -172q-8 -8 -8 -16q0 -13 14 -13q2 0 18.5 8.5t39 16.5t36.5 8q31 0 54 -19.5t55 -74.5q30 -55 68 -129q49 -97 67 -129q31 -60 53 -82t56 -33q47 -15 47 -51
q0 -25 -20.5 -42t-71.5 -36q-112 -41 -179 -41q-56 0 -91.5 25t-67.5 86q-36 69 -62 127l-53 117q-46 94 -76 94q-18 0 -37 -29q-131 -204 -161 -348q-9 -37 -54 -43l-190 -20q-21 -3 -31 -3q-41 0 -41 35q0 9 2 15l228 1118q16 91 16 108q0 31 -23 48.5t-51 22.5t-51 20
t-23 42q0 49 97 64q145 20 309 72q27 8 45 8q55 0 55 -51q0 -11 -2 -19l-184 -907q-2 -6 -2 -14q0 -7 6 -7q5 0 8 7q93 151 262 335q92 98 188 158t173 60zM645 -96q33 -44 33 -92q0 -82 -139 -215q-105 -91 -152 -91q-17 0 -28 11t-11 28q0 12 9.5 20t32.5 20.5t40 25.5
q64 52 64 96q0 26 -31 68q-43 58 -43 82q0 29 49 75q51 45 82 45q42 0 94 -73z" />
    <glyph glyph-name="kra" unicode="&#x138;" horiz-adv-x="1275" 
d="M1133 1092q145 0 145 -162q0 -64 -24 -107t-74 -43q-25 0 -78 29q-48 31 -84 31q-53 0 -134 -64t-169 -172q-8 -8 -8 -16q0 -13 14 -13q2 0 18.5 8.5t38.5 16.5t37 8q31 0 54 -19.5t55 -74.5q18 -32 67 -129q38 -74 68 -129q31 -60 52.5 -82t55.5 -33q47 -15 47 -51
q0 -25 -20.5 -42t-71.5 -36q-112 -41 -178 -41q-56 0 -92 25t-68 86q-27 53 -61 127l-53 117q-46 94 -76 94q-18 0 -37 -29q-132 -206 -162 -348q-9 -37 -53 -43l-190 -20q-21 -3 -31 -3q-41 0 -41 35q0 9 2 15l137 680q17 97 17 108q0 31 -23 48.5t-51 22.5t-51 20t-23 42
q0 49 96 64q152 21 310 71q30 9 45 9q55 0 55 -52q0 -10 -2 -18l-94 -469q-2 -6 -2 -14q0 -6 6 -6t8 6q93 151 262 335q92 98 188 158t173 60z" />
    <glyph glyph-name="Lacute" unicode="&#x139;" horiz-adv-x="1204" 
d="M1073 467q55 0 69 -43t-16 -125q-9 -25 -27.5 -93t-21.5 -79q-20 -67 -57 -105t-107 -38q-26 0 -122 8t-224 8h-563q-70 0 -70 53q0 24 22 38.5t59 34.5t59 48q42 51 80 240l153 749q17 97 17 109q0 32 -16 52.5t-34.5 28t-34.5 21.5t-16 35q0 53 80 53h455q67 0 67 -47
q0 -26 -26 -47q-6 -4 -27.5 -13.5t-28.5 -11.5q-41 -23 -59.5 -61.5t-42.5 -146.5l-149 -734q-23 -128 -23 -149q0 -49 27.5 -65.5t101.5 -16.5q92 0 165 29t114 75q22 25 63.5 83t70.5 84t62 26zM868 1835l-313 -176q-48 -25 -106 -25h-162q-19 0 -19 15q0 6 8 14l183 174
q33 33 94 33h301q29 0 29 -17q0 -9 -15 -18z" />
    <glyph glyph-name="lacute" unicode="&#x13a;" horiz-adv-x="647" 
d="M526 231q37 0 37 -41q0 -56 -108 -135q-110 -78 -222 -78q-82 0 -129 46t-47 137q0 66 105 549q106 477 106 542q0 31 -22.5 49t-50 23.5t-50 20.5t-22.5 42q0 52 96 64q145 20 299 68q38 12 51 12q54 0 54 -53q0 -45 -123 -625t-123 -621q0 -51 37 -51q21 0 57 25
q36 26 55 26zM778 1835l-313 -176q-48 -25 -107 -25h-161q-19 0 -19 15q0 6 8 14l183 174q33 33 94 33h301q29 0 29 -17q0 -9 -15 -18z" />
    <glyph glyph-name="Lcommaaccent" unicode="&#x13b;" horiz-adv-x="1204" 
d="M1073 467q55 0 69 -43t-16 -125q-9 -25 -27.5 -93t-21.5 -79q-20 -67 -57 -105t-107 -38q-26 0 -122 8t-224 8h-563q-70 0 -70 53q0 24 22 38.5t59 34.5t59 48q42 51 80 240l153 749q17 97 17 109q0 32 -16 52.5t-34.5 28t-34.5 21.5t-16 35q0 53 80 53h455q67 0 67 -47
q0 -26 -26 -47q-6 -4 -27.5 -13.5t-28.5 -11.5q-41 -23 -59.5 -61.5t-42.5 -146.5l-149 -734q-23 -128 -23 -149q0 -49 27.5 -65.5t101.5 -16.5q92 0 165 29t114 75q22 25 63.5 83t70.5 84t62 26zM590 -96q33 -44 33 -92q0 -81 -140 -215q-105 -91 -151 -91q-17 0 -28 11
t-11 28q0 12 9.5 20t32.5 20.5t40 25.5q63 51 63 96q0 27 -30 68q-43 58 -43 82q0 29 49 75q51 45 82 45q42 0 94 -73z" />
    <glyph glyph-name="lcommaaccent" unicode="&#x13c;" horiz-adv-x="647" 
d="M336 -96q33 -44 33 -92q0 -81 -140 -215q-105 -91 -151 -91q-17 0 -28 11t-11 28q0 12 9.5 20t32.5 20.5t40 25.5q63 51 63 96q0 27 -30 68q-43 58 -43 82q0 29 47 73t80 47h-5q-82 0 -129 46t-47 137q0 66 105 549q106 477 106 542q0 31 -22.5 49t-50 23.5t-50 20.5
t-22.5 42q0 52 96 64q145 20 299 68q38 12 51 12q54 0 54 -53q0 -45 -123 -625t-123 -621q0 -51 37 -51q21 0 57 25q36 26 55 26q37 0 37 -41q0 -54 -102 -131q-101 -76 -215 -82q44 -9 90 -73z" />
    <glyph glyph-name="Lcaron" unicode="&#x13d;" horiz-adv-x="1204" 
d="M1073 467q55 0 69 -43t-16 -125q-9 -25 -27.5 -93t-21.5 -79q-20 -67 -57 -105t-107 -38q-26 0 -122 8t-224 8h-563q-70 0 -70 53q0 24 22 38.5t59 34.5t59 48q42 51 80 240l153 749q17 97 17 109q0 32 -16 52.5t-34.5 28t-34.5 21.5t-16 35q0 53 80 53h455q67 0 67 -47
q0 -26 -26 -47q-6 -4 -27.5 -13.5t-28.5 -11.5q-41 -23 -59.5 -61.5t-42.5 -146.5l-149 -734q-23 -128 -23 -149q0 -49 27.5 -65.5t101.5 -16.5q92 0 165 29t114 75q22 25 63.5 83t70.5 84t62 26zM1188 1411q33 -44 33 -92q0 -81 -140 -215q-104 -90 -151 -90q-17 0 -28 11
t-11 28q0 12 9.5 20t32.5 20t40 25q63 51 63 96q0 28 -30 68q-43 58 -43 82q0 30 49 76q51 45 82 45q41 0 94 -74z" />
    <glyph glyph-name="lcaron" unicode="&#x13e;" horiz-adv-x="866" 
d="M526 231q37 0 37 -41q0 -56 -108 -135q-110 -78 -222 -78q-82 0 -129 46t-47 137q0 66 105 549q106 477 106 542q0 31 -22.5 49t-50 23.5t-50 20.5t-22.5 42q0 52 96 64q145 20 299 68q38 12 51 12q54 0 54 -53q0 -45 -123 -625t-123 -621q0 -51 37 -51q21 0 57 25
q36 26 55 26zM1030 1411q33 -44 33 -92q0 -82 -139 -215q-104 -90 -152 -90q-17 0 -28 11t-11 28q0 12 9.5 20t32.5 20t40 25q64 52 64 96q0 26 -31 68q-43 58 -43 82q0 30 49 76q51 45 82 45q41 0 94 -74z" />
    <glyph glyph-name="Ldot" unicode="&#x13f;" horiz-adv-x="1204" 
d="M1073 467q55 0 69 -43t-16 -125q-9 -25 -27.5 -93t-21.5 -79q-20 -67 -57 -105t-107 -38q-26 0 -122 8t-224 8h-563q-70 0 -70 53q0 24 22 38.5t59 34.5t59 48q42 51 80 240l153 749q17 97 17 109q0 32 -16 52.5t-34.5 28t-34.5 21.5t-16 35q0 53 80 53h455q67 0 67 -47
q0 -26 -26 -47q-6 -4 -27.5 -13.5t-28.5 -11.5q-41 -23 -59.5 -61.5t-42.5 -146.5l-149 -734q-23 -128 -23 -149q0 -49 27.5 -65.5t101.5 -16.5q92 0 165 29t114 75q22 25 63.5 83t70.5 84t62 26zM1047 905q10 -17 10 -45q0 -45 -15.5 -94.5t-37.5 -67.5q-34 -24 -115 -24
q-83 0 -101 24q-10 10 -10 47q0 45 15.5 93.5t37.5 66.5q31 25 113 25q81 0 103 -25z" />
    <glyph glyph-name="ldot" unicode="&#x140;" horiz-adv-x="937" 
d="M526 231q37 0 37 -41q0 -56 -108 -135q-110 -78 -222 -78q-82 0 -129 46t-47 137q0 66 105 549q106 477 106 542q0 31 -22.5 49t-50 23.5t-50 20.5t-22.5 42q0 52 96 64q145 20 299 68q38 12 51 12q54 0 54 -53q0 -45 -123 -625t-123 -621q0 -51 37 -51q21 0 57 25
q36 26 55 26zM905 848q10 -17 10 -45q0 -45 -15.5 -94.5t-37.5 -67.5q-36 -25 -114 -25q-82 0 -101 25q-10 10 -10 47q0 45 15.5 93.5t37.5 66.5q30 24 113 24q81 0 102 -24z" />
    <glyph glyph-name="Lslash" unicode="&#x141;" horiz-adv-x="1228" 
d="M1098 467q35 0 55.5 -21.5t20.5 -54.5q0 -23 -23 -94q-7 -21 -23.5 -86t-23.5 -86q-18 -63 -59.5 -104.5t-110.5 -36.5q-25 0 -121 8t-223 8h-561q-70 0 -70 51q0 20 16 34.5t37 23.5t48 27.5t44 43.5q31 48 74 234l35 168l-141 -47q-3 -1 -7 -2t-6.5 -2t-3.5 -1
q-12 0 -12 17q0 12 2 28l6 87q0 25 25 34l172 56l78 383q22 113 22 137q0 31 -15.5 51.5t-34.5 28.5t-34.5 22t-15.5 33q0 55 80 55h454q68 0 68 -47q0 -25 -27 -47q-6 -4 -27 -13.5t-28 -11.5q-41 -23 -59.5 -61.5t-42.5 -146.5l-54 -263l195 64q18 6 24 6q17 0 17 -14
l-8 -115q-3 -27 -25 -33l-237 -80l-62 -299q-22 -113 -22 -149q0 -49 27.5 -65.5t101.5 -16.5q92 0 164.5 29t113.5 75q22 25 64 83.5t71 84t62 25.5z" />
    <glyph glyph-name="lslash" unicode="&#x142;" horiz-adv-x="835" 
d="M715 1460l-117 -567l197 63q6 2 12 2q14 0 14 -16l-6 -113q0 -23 -27 -32l-225 -76l-61 -309q-29 -158 -29 -187q0 -47 31 -47q18 0 57 25q36 26 57 26q39 0 39 -36q0 -40 -77 -111q-120 -105 -250 -105q-82 0 -131 45.5t-49 133.5q0 26 10 84l76 374l-183 -61l-16 -4
q-19 0 -19 18l7 113q3 24 26 33l219 71l74 361q18 95 18 110q0 31 -23 48t-50.5 22t-50.5 19.5t-23 41.5q0 52 96 64q158 22 291 66q41 12 60 12q55 0 55 -51q0 -9 -2 -17z" />
    <glyph glyph-name="Nacute" unicode="&#x143;" horiz-adv-x="1660" 
d="M1264 1462h391q80 0 80 -49q0 -17 -10 -30.5t-22 -20t-33 -16t-30 -15.5q-59 -31 -89.5 -75t-55.5 -148l-51 -229l-76 -357l-70 -340q-32 -145 -32 -159q-9 -37 -49 -37h-150q-42 0 -57 34l-480 977q-13 30 -24 -6q-1 -7 -10 -49.5t-22 -110.5t-28 -145
q-65 -337 -65 -403q0 -52 17 -86.5t41 -50.5t48 -27.5t41 -26t17 -37.5q0 -55 -86 -55h-436q-78 0 -78 49q-5 24 18 41.5t67.5 38t65.5 37.5q63 45 101 188q19 73 94 439q73 345 88 424q4 28 4 30q0 29 -45 62q-11 9 -44 27t-52 35t-15 36q0 55 82 55h299q73 0 97 -49
l454 -934q9 -18 15 -18q7 0 10 8q131 604 131 735q0 44 -14.5 73t-35.5 42.5t-41.5 23.5t-35 24.5t-14.5 37.5q0 57 90 57zM1329 1835l-313 -176q-48 -25 -107 -25h-161q-19 0 -19 15q0 6 8 14l183 174q33 33 94 33h301q28 0 28 -17q0 -10 -14 -18z" />
    <glyph glyph-name="nacute" unicode="&#x144;" horiz-adv-x="1378" 
d="M1262 231q36 0 36 -43q0 -52 -104 -131q-106 -80 -225 -80q-82 0 -130 47t-48 138q0 64 49 276q51 211 51 291q0 113 -84 113q-59 0 -128.5 -72t-127.5 -190q-55 -113 -94 -238q-31 -113 -68 -299q-6 -37 -53 -43l-191 -20q-21 -3 -28 -3q-37 0 -37 37q0 9 2 17l137 676
q19 100 19 112q0 29 -23 46t-51 22.5t-51 20.5t-23 40q3 18 9.5 29t21 18t26.5 9.5t39 7.5q145 20 299 69q37 11 52 11q55 0 55 -50q0 -12 -2 -20l-39 -184q-2 -6 -2 -15q0 -6 6 -6q5 0 10 8q173 267 398 267q113 0 183.5 -64t70.5 -180q0 -75 -54 -328q-51 -239 -51 -289
q0 -51 35 -51q20 0 59 25q36 26 56 26zM1090 1452l-314 -176q-48 -25 -106 -25h-162q-19 0 -19 15q0 5 9 14l182 174q33 33 94 33h301q29 0 29 -17q0 -12 -14 -18z" />
    <glyph glyph-name="Ncommaaccent" unicode="&#x145;" horiz-adv-x="1660" 
d="M1264 1462h391q80 0 80 -49q0 -17 -10 -30.5t-22 -20t-33 -16t-30 -15.5q-59 -31 -89.5 -75t-55.5 -148l-51 -229l-76 -357l-70 -340q-32 -145 -32 -159q-9 -37 -49 -37h-150q-42 0 -57 34l-480 977q-13 30 -24 -6q-1 -7 -10 -49.5t-22 -110.5t-28 -145
q-65 -337 -65 -403q0 -52 17 -86.5t41 -50.5t48 -27.5t41 -26t17 -37.5q0 -55 -86 -55h-436q-78 0 -78 49q-5 24 18 41.5t67.5 38t65.5 37.5q63 45 101 188q19 73 94 439q73 345 88 424q4 28 4 30q0 29 -45 62q-11 9 -44 27t-52 35t-15 36q0 55 82 55h299q73 0 97 -49
l454 -934q9 -18 15 -18q7 0 10 8q131 604 131 735q0 44 -14.5 73t-35.5 42.5t-41.5 23.5t-35 24.5t-14.5 37.5q0 57 90 57zM799 -96q32 -43 32 -92q0 -82 -139 -215q-105 -91 -151 -91q-17 0 -28 11t-11 28q0 12 9.5 20t32.5 20.5t40 25.5q63 51 63 96q0 26 -31 68
q-43 58 -43 82q0 28 50 75q51 45 82 45q42 0 94 -73z" />
    <glyph glyph-name="ncommaaccent" unicode="&#x146;" horiz-adv-x="1378" 
d="M1262 231q36 0 36 -43q0 -52 -104 -131q-106 -80 -225 -80q-82 0 -130 47t-48 138q0 64 49 276q51 211 51 291q0 113 -84 113q-59 0 -128.5 -72t-127.5 -190q-55 -113 -94 -238q-31 -113 -68 -299q-6 -37 -53 -43l-191 -20q-21 -3 -28 -3q-37 0 -37 37q0 9 2 17l137 676
q19 100 19 112q0 29 -23 46t-51 22.5t-51 20.5t-23 40q3 18 9.5 29t21 18t26.5 9.5t39 7.5q145 20 299 69q37 11 52 11q55 0 55 -50q0 -12 -2 -20l-39 -184q-2 -6 -2 -15q0 -6 6 -6q5 0 10 8q173 267 398 267q113 0 183.5 -64t70.5 -180q0 -75 -54 -328q-51 -239 -51 -289
q0 -51 35 -51q20 0 59 25q36 26 56 26zM700 -96q33 -44 33 -92q0 -82 -139 -215q-105 -91 -152 -91q-17 0 -28 11t-11 28q0 12 9.5 20t32.5 20.5t40 25.5q64 52 64 96q0 26 -31 68q-43 58 -43 82q0 29 49 75q51 45 82 45q42 0 94 -73z" />
    <glyph glyph-name="Ncaron" unicode="&#x147;" horiz-adv-x="1660" 
d="M1264 1462h391q80 0 80 -49q0 -17 -10 -30.5t-22 -20t-33 -16t-30 -15.5q-59 -31 -89.5 -75t-55.5 -148l-51 -229l-76 -357l-70 -340q-32 -145 -32 -159q-9 -37 -49 -37h-150q-42 0 -57 34l-480 977q-13 30 -24 -6q-1 -7 -10 -49.5t-22 -110.5t-28 -145
q-65 -337 -65 -403q0 -52 17 -86.5t41 -50.5t48 -27.5t41 -26t17 -37.5q0 -55 -86 -55h-436q-78 0 -78 49q-5 24 18 41.5t67.5 38t65.5 37.5q63 45 101 188q19 73 94 439q73 345 88 424q4 28 4 30q0 29 -45 62q-11 9 -44 27t-52 35t-15 36q0 55 82 55h299q73 0 97 -49
l454 -934q9 -18 15 -18q7 0 10 8q131 604 131 735q0 44 -14.5 73t-35.5 42.5t-41.5 23.5t-35 24.5t-14.5 37.5q0 57 90 57zM1020 1726l156 125q22 19 47 19h125q14 0 14 -10q0 -5 -6 -11l-223 -215q-22 -22 -50 -22h-194q-28 0 -41 22l-135 215q-2 2 -2 9q0 12 14 12h111
q17 0 36 -19l119 -127q8 -8 13 -8q1 0 2.5 1t5.5 4t8 5z" />
    <glyph glyph-name="ncaron" unicode="&#x148;" horiz-adv-x="1378" 
d="M1262 231q36 0 36 -43q0 -52 -104 -131q-106 -80 -225 -80q-82 0 -130 47t-48 138q0 64 49 276q51 211 51 291q0 113 -84 113q-59 0 -128.5 -72t-127.5 -190q-55 -113 -94 -238q-31 -113 -68 -299q-6 -37 -53 -43l-191 -20q-21 -3 -28 -3q-37 0 -37 37q0 9 2 17l137 676
q19 100 19 112q0 29 -23 46t-51 22.5t-51 20.5t-23 40q3 18 9.5 29t21 18t26.5 9.5t39 7.5q145 20 299 69q37 11 52 11q55 0 55 -50q0 -12 -2 -20l-39 -184q-2 -6 -2 -15q0 -6 6 -6q5 0 10 8q173 267 398 267q113 0 183.5 -64t70.5 -180q0 -75 -54 -328q-51 -239 -51 -289
q0 -51 35 -51q20 0 59 25q36 26 56 26zM774 1343l156 125q22 19 47 19h125q14 0 14 -10q0 -5 -6 -11l-223 -215q-22 -22 -49 -22h-195q-28 0 -41 22l-135 215q-2 2 -2 9q0 12 14 12h111q18 0 37 -19l118 -127q8 -8 13 -8q1 0 2.5 1t5.5 4t8 5z" />
    <glyph glyph-name="napostrophe" unicode="&#x149;" horiz-adv-x="1556" 
d="M1440 231q37 0 37 -43q0 -52 -105 -131q-106 -80 -225 -80q-82 0 -130 47t-48 138q0 64 49 276q51 211 51 291q0 113 -84 113q-59 0 -128.5 -72t-127.5 -190q-55 -113 -94 -238q-31 -113 -68 -299q-6 -37 -53 -43l-190 -20q-21 -3 -29 -3q-37 0 -37 37q0 9 2 17l137 676
q19 100 19 112q0 29 -23 46t-51 22.5t-51 20.5t-23 40q3 18 9.5 29t21.5 18t26.5 9.5t39.5 7.5q145 20 299 69q37 11 51 11q55 0 55 -50q0 -12 -2 -20l-39 -184q-2 -6 -2 -15q0 -6 6 -6q5 0 10 8q173 267 398 267q113 0 183.5 -64t70.5 -180q0 -75 -54 -328
q-51 -239 -51 -289q0 -51 35 -51q20 0 59 25q36 26 56 26zM362 1411q33 -44 33 -92q0 -82 -139 -215q-104 -90 -152 -90q-17 0 -27.5 11t-10.5 28q0 12 9.5 20t32 20t39.5 25q64 52 64 96q0 26 -31 68q-43 58 -43 82q0 30 49 76q51 45 82 45q41 0 94 -74z" />
    <glyph glyph-name="Eng" unicode="&#x14a;" horiz-adv-x="1656" 
d="M1260 1462h391q78 0 78 -49q0 -15 -5 -26t-17 -19.5t-20.5 -13t-27 -12.5t-25.5 -11q-54 -26 -86 -73.5t-57 -149.5q-42 -172 -100 -469l-86 -426q-47 -203 -125 -326q-84 -133 -224 -207.5t-301 -74.5q-128 0 -196 51q-66 48 -66 156q0 135 94 135q21 2 45.5 -16t48 -44
t48.5 -52t57 -43t64 -15q45 0 89 27.5t70 74.5q22 37 39 97t17 94q0 24 -23 75l-418 859q-3 10 -10 10t-10 -13q-127 -609 -127 -727q0 -47 17 -79.5t41 -48t48 -27t41 -26t17 -34.5q0 -59 -86 -59h-437q-79 0 -79 53q0 12 3 20.5t12.5 15.5t17 11t27.5 13.5t32 15.5
q67 31 100 77t59 148q28 107 99 451q84 393 90 432q2 6 2 16q0 28 -80 78q-12 9 -36 22.5t-33 23.5t-9 28q0 57 80 57h301q70 0 94 -49l457 -938q8 -14 14 -14q12 0 15 18q127 585 127 729q0 43 -14.5 72t-35.5 42.5t-42 23t-35.5 23.5t-14.5 36q0 57 91 57z" />
    <glyph glyph-name="eng" unicode="&#x14b;" horiz-adv-x="1282" 
d="M1204 827q0 -86 -47 -356l-41 -217q-13 -67 -53 -188q-39 -114 -84 -183q-90 -141 -215.5 -208.5t-267.5 -67.5q-122 0 -196.5 44.5t-74.5 141.5q0 109 82 109q43 0 117 -74q73 -76 133 -76q109 0 164 156q33 84 110 454q62 307 62 359q0 121 -86 121q-59 0 -128.5 -72
t-127.5 -190q-104 -216 -162 -537q-6 -37 -53 -43l-191 -20q-21 -3 -26 -3q-39 0 -39 37q0 1 0.5 4l1.5 9l2 12l135 668q17 97 17 108q0 31 -23 49t-50 23.5t-50 20.5t-23 42q0 50 96 62q166 22 299 69q37 13 54 13q53 0 53 -54q0 -12 -2 -18l-39 -184l-2 -13q0 -6 6 -6
q5 0 14 15q173 258 387 258q113 0 180.5 -63.5t67.5 -201.5z" />
    <glyph glyph-name="Omacron" unicode="&#x14c;" horiz-adv-x="1642" 
d="M915 1313q-136 3 -249 -103.5t-174 -275.5t-58 -354q0 -203 76 -313.5t217 -110.5q208 0 346 217q137 216 137 510q0 203 -77.5 316.5t-217.5 113.5zM1585 885q0 -241 -117 -447q-119 -209 -329 -334q-213 -127 -469 -127q-288 0 -451 166q-162 165 -162 435
q-3 144 43 283t132 252.5t199.5 199.5t254.5 132t289 42q286 0 448 -168q162 -165 162 -434zM578 1686l18 86q6 26 35 26h731q27 0 27 -22q0 -8 -3 -17l-18 -88q-6 -26 -35 -26h-733q-25 0 -25 24q0 8 3 17z" />
    <glyph glyph-name="omacron" unicode="&#x14d;" horiz-adv-x="1189" 
d="M535 135q86 -1 152 79t97.5 200.5t28.5 251.5q0 272 -164 272q-102 0 -170 -92q-112 -153 -112 -424q0 -136 44 -211.5t124 -75.5zM694 1092q212 0 332 -123q119 -122 119 -318q0 -275 -191 -475q-190 -199 -473 -199q-206 0 -327 127q-119 128 -119 330q0 278 201 467
q203 191 458 191zM311 1350l19 86q6 26 35 26h731q26 0 26 -22q0 -11 -2 -17l-18 -88q-6 -26 -35 -26h-733q-25 0 -25 24q0 11 2 17z" />
    <glyph glyph-name="Obreve" unicode="&#x14e;" horiz-adv-x="1642" 
d="M915 1313q-136 3 -249 -103.5t-174 -275.5t-58 -354q0 -203 76 -313.5t217 -110.5q208 0 346 217q137 216 137 510q0 203 -77.5 316.5t-217.5 113.5zM1585 885q0 -241 -117 -447q-119 -209 -329 -334q-213 -127 -469 -127q-288 0 -451 166q-162 165 -162 435
q-3 144 43 283t132 252.5t199.5 199.5t254.5 132t289 42q286 0 448 -168q162 -165 162 -434zM967 1612q-102 0 -167 52.5t-65 131.5q0 76 56 76q26 0 47 -35q49 -76 143 -76t168 80q31 31 53 31q19 0 31 -13t12 -32q0 -66 -63 -129q-86 -86 -215 -86z" />
    <glyph glyph-name="obreve" unicode="&#x14f;" horiz-adv-x="1189" 
d="M535 135q86 -1 152 79t97.5 200.5t28.5 251.5q0 272 -164 272q-102 0 -170 -92q-112 -153 -112 -424q0 -136 44 -211.5t124 -75.5zM694 1092q212 0 332 -123q119 -122 119 -318q0 -275 -191 -475q-190 -199 -473 -199q-206 0 -327 127q-119 128 -119 330q0 278 201 467
q203 191 458 191zM717 1229q-102 0 -167 52.5t-65 131.5q0 76 56 76q26 0 47 -35q49 -76 143 -76t168 80q31 31 53 31q19 0 31 -13t12 -32q0 -66 -63 -129q-86 -86 -215 -86z" />
    <glyph glyph-name="Ohungarumlaut" unicode="&#x150;" horiz-adv-x="1642" 
d="M915 1313q-136 3 -249 -103.5t-174 -275.5t-58 -354q0 -203 76 -313.5t217 -110.5q208 0 346 217q137 216 137 510q0 203 -77.5 316.5t-217.5 113.5zM1585 885q0 -241 -117 -447q-119 -209 -329 -334q-213 -127 -469 -127q-288 0 -451 166q-162 165 -162 435
q-3 144 43 283t132 252.5t199.5 199.5t254.5 132t289 42q286 0 448 -168q162 -165 162 -434zM1028 1647q17 25 105 106q83 77 112 92q48 25 103 25q143 0 143 -47q0 -20 -27 -41q-24 -19 -129 -82q-94 -58 -155 -80q-56 -21 -111 -21q-53 0 -53 23q0 10 12 25zM600 1647
q17 25 105 106q83 77 112 92q48 25 103 25q143 0 143 -47q0 -20 -27 -41q-24 -19 -129 -82q-94 -58 -155 -80q-56 -21 -111 -21q-53 0 -53 23q0 10 12 25z" />
    <glyph glyph-name="ohungarumlaut" unicode="&#x151;" horiz-adv-x="1189" 
d="M535 135q86 -1 152 79t97.5 200.5t28.5 251.5q0 272 -164 272q-102 0 -170 -92q-112 -153 -112 -424q0 -136 44 -211.5t124 -75.5zM694 1092q212 0 332 -123q119 -122 119 -318q0 -275 -191 -475q-190 -199 -473 -199q-206 0 -327 127q-119 128 -119 330q0 278 201 467
q203 191 458 191zM719 1264q19 28 104 106q82 76 113 92q48 25 102 25q144 0 144 -47q0 -20 -27 -41q-24 -19 -129 -82q-92 -57 -156 -80q-53 -20 -110 -20q-53 0 -53 22q0 10 12 25zM291 1264q19 28 104 106q82 76 113 92q48 25 102 25q144 0 144 -47q0 -20 -27 -41
q-24 -19 -129 -82q-92 -57 -156 -80q-53 -20 -110 -20q-53 0 -53 22q0 10 12 25z" />
    <glyph glyph-name="OE" unicode="&#x152;" horiz-adv-x="2076" 
d="M2034 1479q18 0 27.5 -0.5t22 -3t18.5 -8t12 -15.5t8 -25q0 -7 -11 -71q-1 -7 -8.5 -54.5t-13.5 -78.5q-15 -77 -21 -123q-15 -80 -88 -80q-65 0 -84 94q-8 42 -37 84t-73 64q-62 30 -236 30h-73q-32 0 -46 -12t-20 -43l-68 -332q-2 -8 -2 -16q0 -39 50 -39q122 0 206 8
q43 2 86 5t61 4t21 1q64 0 64 -39q0 -8 -9 -34.5t-10 -32.5q-19 -63 -45 -80.5t-104 -17.5q-15 0 -66 3t-59 3q-86 4 -209 4q-31 0 -37 -33l-43 -213q-28 -143 -28 -178q0 -46 29.5 -63t99.5 -17q117 0 208 29t138 75q30 30 71.5 85t70.5 81.5t60 26.5q33 0 55.5 -21
t22.5 -53q0 -39 -20 -86q-16 -36 -33 -104q-14 -63 -31 -109q-15 -46 -54.5 -78t-96.5 -32q-26 0 -133 8t-246 8h-385q-9 0 -98 -11.5t-150 -11.5q-308 0 -489 187t-181 459q-4 175 73.5 336.5t207.5 277.5t306.5 184t363.5 64q66 0 145 -12q97 -11 125 -11h319q139 0 267 8
q144 9 170 9zM950 1319q-213 0 -372 -215q-160 -213 -160 -518q0 -198 90 -314q87 -112 219 -112q126 0 147 108l185 916q6 34 6 47q0 88 -115 88z" />
    <glyph glyph-name="oe" unicode="&#x153;" horiz-adv-x="1835" 
d="M1255 471q-21 0 -46.5 1t-43 2t-18.5 1q-27 0 -27 -29q0 -135 57.5 -202.5t153.5 -67.5q63 -3 135.5 33.5t129 73t79.5 34.5q23 0 41.5 -18.5t18.5 -42.5q0 -80 -148 -180q-147 -99 -340 -99q-209 0 -334 125q-18 18 -41 2q-177 -127 -389 -127q-205 0 -327 125
q-121 127 -121 330q0 278 198 467q199 193 461 193q218 0 344 -138q19 -19 39 -4q186 142 396 142q154 0 251 -78t97 -201q0 -158 -170 -250t-396 -92zM1159 670q-4 -16 -4 -19q0 -14 21 -14q190 0 282 63q78 54 78 129q0 45 -30 73t-79 28q-89 0 -163 -80
q-71 -80 -105 -180zM532 135q73 0 132.5 55t89.5 144q59 165 59 328q0 276 -164 276q-103 0 -170 -94q-112 -153 -112 -424q0 -137 43 -211t122 -74z" />
    <glyph glyph-name="Racute" unicode="&#x154;" horiz-adv-x="1466" 
d="M606 831h92q149 0 231.5 82.5t82.5 210.5q0 168 -217 168h-88q-31 0 -37 -30l-80 -396q-1 -4 -2 -9l-1.5 -7.5t-0.5 -3.5q0 -15 20 -15zM1329 123q2 -2 14.5 -12.5t22 -19t16.5 -21t4 -21.5q0 -49 -77 -49h-183q-67 0 -100 10.5t-57 42.5q-32 37 -54 129l-24 101
q-7 33 -25 102q-39 157 -82 205q-46 55 -118 67q-45 5 -58 5q-28 0 -37 -3q-24 -3 -30 -32l-43 -213q-27 -135 -27 -189q0 -46 18.5 -74t40 -36.5t40 -22.5t18.5 -37q0 -55 -86 -55h-500q-68 0 -68 51q-3 17 11.5 32.5t36 26.5t48.5 28.5t42 35.5q41 49 82 240l145 723
q23 118 23 137q0 28 -16 49t-34.5 30.5t-34.5 24t-16 31.5q0 53 80 53h551q354 0 455 -94q82 -73 82 -201q0 -162 -117 -276q-118 -115 -320 -127q-16 0 -16 -14q0 -10 14 -13q103 -15 156 -80q57 -66 102 -231q72 -259 121 -303zM1198 1835l-313 -176q-48 -25 -107 -25
h-162q-18 0 -18 15q0 6 8 14l182 174q33 33 95 33h301q28 0 28 -17q0 -10 -14 -18z" />
    <glyph glyph-name="racute" unicode="&#x155;" horiz-adv-x="976" 
d="M944 1092q65 0 101 -43.5t36 -118.5q0 -63 -24 -106.5t-72 -43.5q-32 0 -78 27q-47 29 -73 29q-128 0 -269 -261q-103 -192 -149 -411l-25 -121q-6 -37 -53 -43l-193 -20q-21 -3 -26 -3q-39 0 -39 35q0 11 2 17l139 678q19 100 19 110q0 29 -23 46t-51 22.5t-51 20.5
t-23 42q0 49 96 64q165 24 314 71q27 9 39 9q53 0 53 -50q0 -12 -2 -20l-37 -182q-2 -6 -2 -15q0 -11 8 -8q6 4 10 10q81 122 186 193.5t187 71.5zM926 1452l-314 -176q-48 -25 -106 -25h-162q-18 0 -18 15q0 6 8 14l182 174q33 33 94 33h301q29 0 29 -17q0 -12 -14 -18z
" />
    <glyph glyph-name="Rcommaaccent" unicode="&#x156;" horiz-adv-x="1466" 
d="M606 831h92q149 0 231.5 82.5t82.5 210.5q0 168 -217 168h-88q-31 0 -37 -30l-80 -396q-1 -4 -2 -9l-1.5 -7.5t-0.5 -3.5q0 -15 20 -15zM1329 123q2 -2 14.5 -12.5t22 -19t16.5 -21t4 -21.5q0 -49 -77 -49h-183q-67 0 -100 10.5t-57 42.5q-32 37 -54 129l-24 101
q-7 33 -25 102q-39 157 -82 205q-46 55 -118 67q-45 5 -58 5q-28 0 -37 -3q-24 -3 -30 -32l-43 -213q-27 -135 -27 -189q0 -46 18.5 -74t40 -36.5t40 -22.5t18.5 -37q0 -55 -86 -55h-500q-68 0 -68 51q-3 17 11.5 32.5t36 26.5t48.5 28.5t42 35.5q41 49 82 240l145 723
q23 118 23 137q0 28 -16 49t-34.5 30.5t-34.5 24t-16 31.5q0 53 80 53h551q354 0 455 -94q82 -73 82 -201q0 -162 -117 -276q-118 -115 -320 -127q-16 0 -16 -14q0 -10 14 -13q103 -15 156 -80q57 -66 102 -231q72 -259 121 -303zM834 -96q32 -43 32 -92q0 -82 -139 -215
q-105 -91 -152 -91q-17 0 -27.5 11t-10.5 28q0 12 9.5 20t32.5 20.5t39 25.5q64 52 64 96q0 26 -31 68q-43 58 -43 82q0 29 49 75q51 45 82 45q43 0 95 -73z" />
    <glyph glyph-name="rcommaaccent" unicode="&#x157;" horiz-adv-x="976" 
d="M944 1092q65 0 101 -43.5t36 -118.5q0 -63 -24 -106.5t-72 -43.5q-32 0 -78 27q-47 29 -73 29q-128 0 -269 -261q-103 -192 -149 -411l-25 -121q-6 -37 -53 -43l-193 -20q-21 -3 -26 -3q-39 0 -39 35q0 11 2 17l139 678q19 100 19 110q0 29 -23 46t-51 22.5t-51 20.5
t-23 42q0 49 96 64q165 24 314 71q27 9 39 9q53 0 53 -50q0 -12 -2 -20l-37 -182q-2 -6 -2 -15q0 -11 8 -8q6 4 10 10q81 122 186 193.5t187 71.5zM678 -96q33 -44 33 -92q0 -81 -140 -215q-105 -91 -151 -91q-17 0 -28 11t-11 28q0 12 9.5 20t32.5 20.5t40 25.5
q63 51 63 96q0 27 -30 68q-43 58 -43 82q0 29 49 75q51 45 82 45q42 0 94 -73z" />
    <glyph glyph-name="Rcaron" unicode="&#x158;" horiz-adv-x="1466" 
d="M606 831h92q149 0 231.5 82.5t82.5 210.5q0 168 -217 168h-88q-31 0 -37 -30l-80 -396q-1 -4 -2 -9l-1.5 -7.5t-0.5 -3.5q0 -15 20 -15zM1329 123q2 -2 14.5 -12.5t22 -19t16.5 -21t4 -21.5q0 -49 -77 -49h-183q-67 0 -100 10.5t-57 42.5q-32 37 -54 129l-24 101
q-7 33 -25 102q-39 157 -82 205q-46 55 -118 67q-45 5 -58 5q-28 0 -37 -3q-24 -3 -30 -32l-43 -213q-27 -135 -27 -189q0 -46 18.5 -74t40 -36.5t40 -22.5t18.5 -37q0 -55 -86 -55h-500q-68 0 -68 51q-3 17 11.5 32.5t36 26.5t48.5 28.5t42 35.5q41 49 82 240l145 723
q23 118 23 137q0 28 -16 49t-34.5 30.5t-34.5 24t-16 31.5q0 53 80 53h551q354 0 455 -94q82 -73 82 -201q0 -162 -117 -276q-118 -115 -320 -127q-16 0 -16 -14q0 -10 14 -13q103 -15 156 -80q57 -66 102 -231q72 -259 121 -303zM862 1726l156 125q22 19 47 19h125
q14 0 14 -10q0 -5 -6 -11l-223 -215q-22 -22 -49 -22h-195q-28 0 -41 22l-135 215q-2 2 -2 9q0 12 14 12h111q18 0 37 -19l119 -127q8 -8 12 -8q1 0 2.5 1t5.5 4t8 5z" />
    <glyph glyph-name="rcaron" unicode="&#x159;" horiz-adv-x="976" 
d="M944 1092q65 0 101 -43.5t36 -118.5q0 -63 -24 -106.5t-72 -43.5q-32 0 -78 27q-47 29 -73 29q-128 0 -269 -261q-103 -192 -149 -411l-25 -121q-6 -37 -53 -43l-193 -20q-21 -3 -26 -3q-39 0 -39 35q0 11 2 17l139 678q19 100 19 110q0 29 -23 46t-51 22.5t-51 20.5
t-23 42q0 49 96 64q165 24 314 71q27 9 39 9q53 0 53 -50q0 -12 -2 -20l-37 -182q-2 -6 -2 -15q0 -11 8 -8q6 4 10 10q81 122 186 193.5t187 71.5zM588 1343l155 125q22 19 48 19h124q15 0 15 -10q0 -5 -6 -11l-224 -215q-22 -22 -49 -22h-194q-28 0 -41 22l-135 215
q-2 2 -2 9q0 12 14 12h110q18 0 37 -19l119 -127q8 -8 12 -8z" />
    <glyph glyph-name="Sacute" unicode="&#x15a;" horiz-adv-x="1236" 
d="M1163 1384q54 -48 54 -116q0 -18 -11 -90q-13 -84 -35.5 -116t-62.5 -32q-34 0 -53 19q-15 15 -42.5 67t-31.5 58q-98 137 -244 137q-98 0 -162.5 -55t-64.5 -130q0 -50 35.5 -94t83.5 -71l116 -56q96 -43 99 -45q136 -72 204 -154.5t68 -207.5q0 -203 -192 -361
q-192 -160 -504 -160q-160 0 -280.5 45t-155.5 119q-19 43 -19 95q0 17 4 71.5t4 65.5q3 121 95 121q47 0 69 -48l37 -79q2 -3 21 -31t36.5 -49t36.5 -37q103 -86 240 -86q130 0 206.5 63t76.5 150q0 62 -46.5 112t-117.5 78q-65 27 -152 70q-91 45 -141 86
q-144 120 -144 285q0 78 39 159.5t111 153.5q74 76 196.5 121t268.5 45q112 0 210 -30t148 -73zM1120 1835l-313 -176q-48 -25 -107 -25h-161q-19 0 -19 15q0 6 8 14l183 174q33 33 94 33h301q29 0 29 -17q0 -9 -15 -18z" />
    <glyph glyph-name="sacute" unicode="&#x15b;" horiz-adv-x="1003" 
d="M0 225q0 164 92 164q36 0 58 -31l53 -71q106 -142 235 -142q67 0 111.5 37t44.5 86q0 31 -27 59t-65 42q-13 6 -96 34q-73 25 -93 35q-194 83 -194 252q0 162 149 281q151 121 363 121q147 0 241 -52q72 -41 72 -129q0 -53 -12 -100q-18 -72 -84 -72q-31 0 -60 29l-43 68
q-67 104 -182 104q-63 0 -106 -31.5t-43 -85.5q0 -31 16 -51.5t51 -40.5l43 -18l109 -39q130 -47 197 -114.5t67 -174.5q0 -149 -145 -279q-144 -129 -383 -129q-100 0 -189.5 27t-128.5 66q-51 48 -51 155zM932 1452l-314 -176q-48 -25 -106 -25h-162q-18 0 -18 15
q0 6 8 14l182 174q33 33 94 33h302q28 0 28 -17q0 -12 -14 -18z" />
    <glyph glyph-name="Scircumflex" unicode="&#x15c;" horiz-adv-x="1236" 
d="M1163 1384q54 -48 54 -116q0 -18 -11 -90q-13 -84 -35.5 -116t-62.5 -32q-34 0 -53 19q-15 15 -42.5 67t-31.5 58q-98 137 -244 137q-98 0 -162.5 -55t-64.5 -130q0 -50 35.5 -94t83.5 -71l116 -56q96 -43 99 -45q136 -72 204 -154.5t68 -207.5q0 -203 -192 -361
q-192 -160 -504 -160q-160 0 -280.5 45t-155.5 119q-19 43 -19 95q0 17 4 71.5t4 65.5q3 121 95 121q47 0 69 -48l37 -79q2 -3 21 -31t36.5 -49t36.5 -37q103 -86 240 -86q130 0 206.5 63t76.5 150q0 62 -46.5 112t-117.5 78q-65 27 -152 70q-91 45 -141 86
q-144 120 -144 285q0 78 39 159.5t111 153.5q74 76 196.5 121t268.5 45q112 0 210 -30t148 -73zM801 1755l-156 -125q-21 -18 -47 -18h-125q-14 0 -14 10q0 4 6 10l223 215q23 23 49 23h195q28 0 41 -23l135 -215q2 -2 2 -8q0 -12 -14 -12h-111q-19 0 -37 18l-119 127
q-8 8 -12 8q-1 0 -2.5 -1t-5.5 -4t-8 -5z" />
    <glyph glyph-name="scircumflex" unicode="&#x15d;" horiz-adv-x="1064" 
d="M0 225q0 164 92 164q36 0 58 -31l53 -71q106 -142 235 -142q67 0 111.5 37t44.5 86q0 31 -27 59t-65 42q-13 6 -96 34q-73 25 -93 35q-194 83 -194 252q0 162 149 281q151 121 363 121q147 0 241 -52q72 -41 72 -129q0 -53 -12 -100q-18 -72 -84 -72q-31 0 -60 29l-43 68
q-67 104 -182 104q-63 0 -106 -31.5t-43 -85.5q0 -31 16 -51.5t51 -40.5l43 -18l109 -39q130 -47 197 -114.5t67 -174.5q0 -149 -145 -279q-144 -129 -383 -129q-100 0 -189.5 27t-128.5 66q-51 48 -51 155zM696 1372l-155 -125q-21 -18 -47 -18h-125q-15 0 -15 10q0 4 6 10
l224 215q23 23 49 23h194q28 0 41 -23l136 -215q2 -2 2 -8q0 -12 -15 -12h-110q-19 0 -37 18l-119 127q-8 8 -12 8z" />
    <glyph glyph-name="Scedilla" unicode="&#x15e;" horiz-adv-x="1236" 
d="M1163 1384q54 -48 54 -116q0 -18 -11 -90q-13 -84 -35.5 -116t-62.5 -32q-34 0 -53 19q-15 15 -42.5 67t-31.5 58q-98 137 -244 137q-98 0 -162.5 -55t-64.5 -130q0 -50 35.5 -94t83.5 -71l116 -56q96 -43 99 -45q136 -72 204 -154.5t68 -207.5q0 -189 -174 -344
q-173 -156 -457 -174q-41 -30 -41 -54q-3 -9 6.5 -15.5t28 -10t38.5 -6.5t44 -6.5t39 -8.5q86 -27 86 -96q0 -72 -92 -125q-91 -55 -223 -55q-56 0 -113 14q-59 15 -59 49q0 20 16 34.5t39 14.5q4 0 42 -8t62 -8q46 0 78.5 17.5t32.5 47.5q3 18 -25.5 31t-64.5 20.5
t-64.5 23t-25.5 38.5q0 41 65 103q-140 11 -240 53t-130 108q-19 43 -19 95q0 17 4 71.5t4 65.5q3 121 95 121q47 0 69 -48l37 -79q2 -3 21 -31t36.5 -49t36.5 -37q103 -86 240 -86q130 0 206.5 63t76.5 150q0 62 -46.5 112t-117.5 78q-65 27 -152 70q-91 45 -141 86
q-144 120 -144 285q0 78 39 159.5t111 153.5q74 76 196.5 121t268.5 45q112 0 210 -30t148 -73z" />
    <glyph glyph-name="scedilla" unicode="&#x15f;" horiz-adv-x="1003" 
d="M0 225q0 164 92 164q36 0 58 -31l53 -71q106 -142 235 -142q67 0 111.5 37t44.5 86q0 31 -27 59t-65 42q-13 6 -96 34q-73 25 -93 35q-194 83 -194 252q0 162 149 281q151 121 363 121q147 0 241 -52q72 -41 72 -129q0 -53 -12 -100q-18 -72 -84 -72q-31 0 -60 29l-43 68
q-67 104 -182 104q-63 0 -106 -31.5t-43 -85.5q0 -31 16 -51.5t51 -40.5l43 -18l109 -39q130 -47 197 -114.5t67 -174.5q0 -151 -143 -279q-144 -126 -379 -129q-37 -27 -37 -51q-3 -9 6.5 -15.5t28 -10t38.5 -6.5t44 -6.5t39 -8.5q86 -27 86 -96q0 -72 -93 -125
q-91 -55 -223 -55q-55 0 -112 14q-60 15 -60 49q0 20 16 34.5t39 14.5q4 0 42.5 -8t62.5 -8q46 0 78 17.5t32 47.5q3 18 -25.5 31t-64.5 20.5t-64.5 23t-25.5 38.5q0 43 72 109q-140 21 -203 84q-51 48 -51 155z" />
    <glyph glyph-name="Scaron" unicode="&#x160;" horiz-adv-x="1236" 
d="M1163 1384q54 -48 54 -116q0 -18 -11 -90q-13 -84 -35.5 -116t-62.5 -32q-34 0 -53 19q-15 15 -42.5 67t-31.5 58q-98 137 -244 137q-98 0 -162.5 -55t-64.5 -130q0 -50 35.5 -94t83.5 -71l116 -56q96 -43 99 -45q136 -72 204 -154.5t68 -207.5q0 -203 -192 -361
q-192 -160 -504 -160q-160 0 -280.5 45t-155.5 119q-19 43 -19 95q0 17 4 71.5t4 65.5q3 121 95 121q47 0 69 -48l37 -79q2 -3 21 -31t36.5 -49t36.5 -37q103 -86 240 -86q130 0 206.5 63t76.5 150q0 62 -46.5 112t-117.5 78q-65 27 -152 70q-91 45 -141 86
q-144 120 -144 285q0 78 39 159.5t111 153.5q74 76 196.5 121t268.5 45q112 0 210 -30t148 -73zM807 1726l156 125q22 19 47 19h125q14 0 14 -10q0 -5 -6 -11l-223 -215q-22 -22 -50 -22h-194q-28 0 -41 22l-135 215q-2 2 -2 9q0 12 14 12h111q17 0 36 -19l119 -127
q8 -8 13 -8q1 0 2.5 1t5.5 4t8 5z" />
    <glyph glyph-name="scaron" unicode="&#x161;" horiz-adv-x="1003" 
d="M0 225q0 164 92 164q36 0 58 -31l53 -71q106 -142 235 -142q67 0 111.5 37t44.5 86q0 31 -27 59t-65 42q-13 6 -96 34q-73 25 -93 35q-194 83 -194 252q0 162 149 281q151 121 363 121q147 0 241 -52q72 -41 72 -129q0 -53 -12 -100q-18 -72 -84 -72q-31 0 -60 29l-43 68
q-67 104 -182 104q-63 0 -106 -31.5t-43 -85.5q0 -31 16 -51.5t51 -40.5l43 -18l109 -39q130 -47 197 -114.5t67 -174.5q0 -149 -145 -279q-144 -129 -383 -129q-100 0 -189.5 27t-128.5 66q-51 48 -51 155zM596 1343l156 125q22 19 47 19h125q14 0 14 -10q0 -5 -6 -11
l-223 -215q-22 -22 -50 -22h-194q-28 0 -41 22l-135 215q-2 2 -2 9q0 12 14 12h111q18 0 37 -19l118 -127q8 -8 13 -8q1 0 2.5 1t5.5 4t8 5z" />
    <glyph glyph-name="Tcommaaccent" unicode="&#x162;" horiz-adv-x="1306" 
d="M1358 1477q23 0 35 -1t25.5 -6t19.5 -17t6 -32q0 -24 -10 -82q-13 -77 -23 -125q-12 -57 -20 -114q-9 -80 -84 -80q-34 0 -52 18q-19 22 -36 72q-15 45 -29 72q-57 112 -189 112q-20 0 -33.5 -4t-20.5 -13.5t-9.5 -17t-5.5 -22.5l-166 -821q-27 -126 -27 -187
q0 -39 18.5 -68t40 -42t40 -29.5t18.5 -32.5q0 -57 -92 -57h-191q-67 -46 -67 -74q-3 -9 6.5 -15.5t28 -10t38.5 -6.5t44 -6.5t39 -8.5q86 -27 86 -96q0 -72 -93 -125q-91 -55 -223 -55q-56 0 -113 14q-59 15 -59 49q0 20 16 34.5t39 14.5q4 0 42.5 -8t62.5 -8q46 0 78 17.5
t32 47.5q3 18 -25.5 31t-64.5 20.5t-64.5 23t-25.5 38.5q0 53 88 123h-170q-65 0 -65 49q0 36 61 70q65 37 86 69q36 52 72 228l164 811q6 27 6 35q0 32 -49 32q-140 0 -240 -118q-6 -7 -14 -17.5t-19 -26.5t-20 -28q-34 -48 -55 -67t-48 -19q-32 0 -52.5 16.5t-20.5 46.5
q0 20 6 41q2 8 7.5 31.5t12.5 53t13 61.5q27 123 32 137q12 42 36 57t79 15q36 0 174 -9q141 -6 230 -6h284q93 0 234 6q144 9 176 9z" />
    <glyph glyph-name="tcommaaccent" unicode="&#x163;" horiz-adv-x="851" 
d="M721 250q18 0 30.5 -11.5t12.5 -29.5q0 -57 -115 -146q-115 -86 -272 -86q-128 0 -202.5 69.5t-74.5 193.5q0 56 19 143q20 93 55 229q24 92 57 236q2 6 2 14q0 15 -18 15h-121q-26 0 -26 26q0 9 2 17l14 77q6 29 43 35q133 21 203 88q58 58 92 164q9 33 41 33h131
q27 0 27 -27q0 -7 -3 -16l-36 -182q-4 -28 -4 -33q0 -29 47 -29q46 0 96 4q29 3 60 6.5t43.5 5t15.5 1.5q59 0 59 -33q0 -13 -20 -66q-18 -46 -41.5 -63t-75.5 -17q-13 0 -53 3t-43 3q-38 3 -109 3q-21 0 -27 -21q-81 -353 -81 -516q0 -160 108 -160q42 0 92 35q53 35 72 35
zM430 -96q33 -44 33 -92q0 -82 -139 -215q-105 -91 -152 -91q-17 0 -28 11t-11 28q0 12 9.5 20t32.5 20.5t40 25.5q64 52 64 96q0 26 -31 68q-43 58 -43 82q0 29 49 75q51 45 82 45q42 0 94 -73z" />
    <glyph glyph-name="Tcaron" unicode="&#x164;" horiz-adv-x="1306" 
d="M1358 1477q23 0 35 -1t25.5 -6t19.5 -17t6 -32q0 -24 -10 -82q-13 -77 -23 -125q-12 -57 -20 -114q-9 -80 -84 -80q-34 0 -52 18q-19 22 -36 72q-15 45 -29 72q-57 112 -189 112q-20 0 -33.5 -4t-20.5 -13.5t-9.5 -17t-5.5 -22.5l-166 -821q-27 -126 -27 -187
q0 -39 18.5 -68t40 -42t40 -29.5t18.5 -32.5q0 -57 -92 -57h-496q-65 0 -65 49q0 36 61 70q65 37 86 69q36 52 72 228l164 811q6 27 6 35q0 32 -49 32q-140 0 -240 -118q-6 -7 -14 -17.5t-19 -26.5t-20 -28q-34 -48 -55 -67t-48 -19q-32 0 -52.5 16.5t-20.5 46.5q0 20 6 41
q2 8 7.5 31.5t12.5 53t13 61.5q27 123 32 137q12 42 36 57t79 15q36 0 174 -9q141 -6 230 -6h284q93 0 234 6q144 9 176 9zM854 1726l156 125q22 19 47 19h125q14 0 14 -10q0 -5 -6 -11l-223 -215q-22 -22 -49 -22h-195q-28 0 -41 22l-135 215q-2 2 -2 9q0 12 14 12h111
q18 0 37 -19l118 -127q8 -8 13 -8q1 0 2.5 1t5.5 4t8 5z" />
    <glyph glyph-name="tcaron" unicode="&#x165;" horiz-adv-x="856" 
d="M721 250q18 0 30.5 -11.5t12.5 -29.5q0 -57 -115 -146q-115 -86 -272 -86q-128 0 -202.5 69.5t-74.5 193.5q0 56 19 143q20 93 55 229q24 92 57 236q2 6 2 14q0 15 -18 15h-121q-26 0 -26 26q0 9 2 17l14 77q6 29 43 35q133 21 203 88q58 58 92 164q9 33 41 33h131
q27 0 27 -27q0 -7 -3 -16l-36 -182q-4 -28 -4 -33q0 -29 47 -29q46 0 96 4q29 3 60 6.5t43.5 5t15.5 1.5q59 0 59 -33q0 -13 -20 -66q-18 -46 -41.5 -63t-75.5 -17q-13 0 -53 3t-43 3q-38 3 -109 3q-21 0 -27 -21q-81 -353 -81 -516q0 -160 108 -160q42 0 92 35q53 35 72 35
zM987 1528q33 -44 33 -92q0 -82 -139 -215q-105 -91 -152 -91q-17 0 -28 11t-11 28q0 12 9.5 20t32.5 20.5t40 25.5q64 52 64 96q0 26 -31 68q-43 58 -43 82q0 29 49 75q52 46 82 46q41 0 94 -74z" />
    <glyph glyph-name="Tbar" unicode="&#x166;" horiz-adv-x="1308" 
d="M1425 1475q50 -6 41 -70q-1 -15 -26 -156q-23 -132 -25 -149q-12 -77 -80 -80q-32 -1 -51.5 17.5t-38.5 68.5q-43 119 -98 156q-46 32 -123 32q-36 0 -49.5 -14.5t-18.5 -42.5q-38 -181 -67 -328q-3 -22 20 -22h209q31 0 25 -31l-23 -108q-6 -31 -37 -31h-206
q-24 0 -31 -23l-55 -278q-34 -158 -25 -213q6 -30 21.5 -49.5t50.5 -44.5q47 -27 41 -66q-9 -43 -91 -43h-499q-31 0 -49.5 16t-14.5 39q1 12 6 21t17 17.5t17.5 11.5t23.5 12q66 35 94 84q32 52 63 215l56 278q7 23 -19 23h-202q-33 0 -27 33l20 106q6 31 37 31h205
q25 0 31 22l65 328q6 32 -2 44.5t-43 12.5q-70 0 -135 -32q-80 -36 -158 -154q-40 -59 -62 -76.5t-56 -11.5q-75 15 -54 102l35 148q24 108 33 135q15 64 70 70q52 3 102 0l160 -9q144 -4 186 -4h283q46 0 186 4q242 10 268 9z" />
    </font>
</defs>
</svg>
