<?xml version="1.0" standalone="no"?>
<!DOCTYPE svg PUBLIC "-//W3C//DTD SVG 1.1//EN" "http://www.w3.org/Graphics/SVG/1.1/DTD/svg11.dtd" >
<svg xmlns="http://www.w3.org/2000/svg" xmlns:xlink="http://www.w3.org/1999/xlink" version="1.1">
<metadata>
Created by FontForge 20170731 at Fri Sep 11 15:39:21 2020
 By Aleksey,,,
Copyright (c) 2011 by Case Studio, Inc. All rights reserved.
</metadata>
<defs>
<font id="P22Mackinac-BoldSC" horiz-adv-x="1275" >
  <font-face 
    font-family="P22 Mackinac"
    font-weight="650"
    font-stretch="normal"
    units-per-em="2048"
    panose-1="2 0 0 0 0 0 0 0 0 0"
    ascent="1507"
    descent="-541"
    x-height="1047"
    cap-height="1462"
    bbox="-211 -395 2427 1870"
    underline-thickness="40"
    underline-position="-286"
    unicode-range="U+0020-FB02"
  />
<missing-glyph horiz-adv-x="1308" 
d="M412 125h487l-244 393zM412 1141l243 -393l244 393h-487zM1098 1266v-1266h-887v1266h887zM973 1026l-244 -393l244 -391v784zM338 240l244 393l-244 393v-786z" />
    <glyph glyph-name=".notdef" horiz-adv-x="1308" 
d="M412 125h487l-244 393zM412 1141l243 -393l244 393h-487zM1098 1266v-1266h-887v1266h887zM973 1026l-244 -393l244 -391v784zM338 240l244 393l-244 393v-786z" />
    <glyph glyph-name=".null" horiz-adv-x="0" 
 />
    <glyph glyph-name="nonmarkingreturn" horiz-adv-x="682" 
 />
    <glyph glyph-name="space" unicode=" " horiz-adv-x="460" 
 />
    <glyph glyph-name="exclam" unicode="!" horiz-adv-x="716" 
d="M571 162q0 -46 -69 -115q-70 -70 -113 -70q-45 0 -115 70q-69 69 -69 115q0 43 69 112q70 70 115 70q43 0 113 -70q69 -69 69 -112zM293 662q-9 123 -39 321q-29 214 -29 313q0 107 45 152q36 39 117 39q80 0 119 -39q43 -46 43 -150q0 -111 -31 -323q-30 -227 -37 -313
l-6 -72q0 -15 -8 -55q-8 -34 -26.5 -50t-53.5 -16q-22 0 -37 7t-23.5 16.5t-14 30.5t-7.5 37t-5.5 48.5t-6.5 53.5z" />
    <glyph glyph-name="quotedbl" unicode="&#x22;" horiz-adv-x="788" 
d="M674 1425q22 -31 22 -106q0 -163 -45 -311q-20 -65 -49 -88.5t-57.5 0t-48.5 88.5q-45 148 -45 311q0 75 22 106q27 37 100 37q74 0 101 -37zM315 1425q23 -33 23 -106q0 -163 -45 -311q-20 -65 -49 -88.5t-58 0t-49 88.5q-45 148 -45 311q0 73 23 106q27 37 100 37
t100 -37z" />
    <glyph glyph-name="numbersign" unicode="#" horiz-adv-x="1347" 
d="M528 731h209l80 246h-209zM1243 1118l-45 -141h-221l-80 -246h221l-47 -141h-219l-129 -393h-160l129 393h-209l-129 -393h-159l129 393h-220l46 141h219l80 246h-220l47 141h218l120 369h160l-119 -369h207l121 369h160l-119 -369h219z" />
    <glyph glyph-name="dollar" unicode="$" horiz-adv-x="1142" 
d="M924 815q86 -92 86 -221q0 -153 -115 -268q-116 -113 -274 -136v-167q0 -23 -23 -23h-72q-24 0 -24 23v157q-136 0 -245.5 38.5t-150.5 103.5q-27 47 -36 151q-4 62 -4 70q0 69 59 69q38 0 57 -32q11 -19 40 -59t59 -72q128 -140 270 -140q97 0 164 57.5t67 143.5
q0 99 -90 158q-55 35 -194 80q-151 53 -201 81q-178 99 -178 281q0 144 114 252q117 108 269 123v176q0 22 24 22h72q23 0 23 -22v-172q204 -9 288 -96q45 -45 45 -170q0 -115 -61 -115q-41 0 -68 35q-34 60 -73 110q-85 113 -215 113q-79 0 -135 -49.5t-56 -118.5
q0 -110 127 -166q80 -32 154 -57q115 -39 182 -73.5t115 -86.5z" />
    <glyph glyph-name="percent" unicode="%" horiz-adv-x="1757" 
d="M596 1094q0 129 -36.5 208.5t-96.5 79.5q-129 0 -129 -288q0 -125 37 -207t96 -82q129 0 129 289zM465 700q-166 0 -254 113t-88 281q0 165 98 278q103 115 244 115q154 0 248 -109.5t94 -283.5q0 -176 -100 -285t-242 -109zM1448 371q0 129 -36.5 208.5t-96.5 79.5
q-129 0 -129 -288q0 -125 37 -207t96 -82q129 0 129 289zM1317 -23q-166 0 -254 113t-88 281q0 165 98 278q103 115 244 115q154 0 248 -109.5t94 -283.5q0 -176 -100 -285t-242 -109zM522 0h-149l895 1462h147z" />
    <glyph glyph-name="ampersand" unicode="&#x26;" horiz-adv-x="1513" 
d="M961 221q9 9 0 17q-47 36 -173 114q-269 176 -374 297q-4 4 -8 4q-8 0 -11 -6q-55 -76 -55 -168q0 -143 111 -248q111 -102 262 -102q142 0 248 92zM1042 852h338q62 0 62 -45q0 -17 -13 -29t-38 -24q-60 -37 -95 -123q-1 -1 -4 -11.5t-11.5 -37.5t-18.5 -56
q-26 -89 -58 -151q-5 -7 -4 -10.5t8 -10.5q53 -45 70 -67q108 -126 108 -254q0 -33 -36 -33h-166q-35 0 -41 31q-15 66 -70 121q-8 8 -16 0q-156 -172 -443 -172q-219 0 -372 118q-156 120 -156 312q0 118 70 211.5t188 130.5q-45 91 -45 182q0 163 115 258q119 96 270 96
q177 0 250 -82q35 -41 35 -143q0 -77 -15 -111t-57 -34q-46 0 -66 38q-1 1 -10.5 22t-18.5 39t-22 41t-24 36q-48 63 -125 63q-58 0 -100 -45.5t-42 -116.5q0 -89 77 -171t257 -197q149 -96 267 -181l10 -6q35 59 35 144q0 110 -111 172q-49 24 -49 53q0 43 67 43z" />
    <glyph glyph-name="quotesingle" unicode="'" horiz-adv-x="430" 
d="M315 1425q23 -33 23 -106q0 -163 -45 -311q-20 -65 -49 -88.5t-58 0t-49 88.5q-45 148 -45 311q0 73 23 106q27 37 100 37t100 -37z" />
    <glyph glyph-name="parenleft" unicode="(" horiz-adv-x="784" 
d="M745 -283q0 -36 -55 -36q-58 0 -152.5 55.5t-181.5 148.5q-132 144 -207 332.5t-75 386.5q0 202 74 390t208 331q92 98 185 150q36 22 69 35t57 17t42 1.5t27 -12.5t9 -25q0 -24 -47 -59q-151 -107 -247 -306q-111 -231 -111 -522q0 -283 111 -520q86 -187 247 -305
q47 -35 47 -62z" />
    <glyph glyph-name="parenright" unicode=")" horiz-adv-x="784" 
d="M39 1493q0 37 55 37q58 0 152.5 -56t181.5 -149q133 -145 208 -333t75 -386q0 -201 -74.5 -389.5t-208.5 -331.5q-91 -98 -184 -149q-36 -22 -69 -35t-57.5 -17.5t-42.5 -2t-27 12.5t-9 25q0 25 47 60q153 108 248 305q110 229 110 522q0 285 -110 520q-86 187 -248 306
q-47 35 -47 61z" />
    <glyph glyph-name="asterisk" unicode="*" horiz-adv-x="878" 
d="M324 1454q0 33 20 53q23 23 86 23q65 0 88 -23q21 -21 21 -51q0 -34 -31 -104q-33 -78 -33 -80q-5 -14 -10 -42.5t-11.5 -39t-23.5 -10.5q-4 0 -8 1.5t-6.5 3.5t-5.5 6.5t-4 7t-4.5 9t-4.5 9.5q-5 37 -12 55q-1 4 -5 13t-12.5 28.5t-15.5 36.5q-28 70 -28 104zM293 1147
q-17 0 -65.5 -4t-61.5 -4q-105 0 -105 71q0 44 21 93q20 51 70 51q21 0 63 -25q14 -7 57 -47l58 -49q14 -12 35.5 -23.5t32 -20t10.5 -20.5q0 -28 -39 -28q-7 0 -37 3t-39 3zM395 1030q-8 -19 -18 -76q-8 -47 -19 -69q-27 -70 -73 -70q-34 0 -78 33q-55 41 -56.5 80t44.5 76
q11 11 61 40l66 39q4 3 16 14t18 15.5t15.5 11.5t16 10t11.5 3q25 0 25 -25q0 -6 -5 -19.5t-12.5 -33t-11.5 -29.5zM535 1083q17 -15 63 -41q55 -32 64 -41q47 -41 47 -71q0 -36 -58 -82q-39 -33 -78 -33q-46 0 -73 70l-19 69q-13 59 -20 74q-27 70 -27 80q0 27 25 27
q11 0 38 -23t38 -29zM528 1231q15 11 60 49q43 40 57 47q42 25 66 25q46 0 77 -84q13 -37 13 -62q0 -69 -113 -69q-12 0 -61.5 4t-63.5 4q-13 0 -42 -2t-32 -2q-36 0 -36 26q-2 6 1.5 12.5t13 13.5t18 12.5t22.5 13.5t20 12z" />
    <glyph glyph-name="plus" unicode="+" horiz-adv-x="1413" 
d="M1241 772v-80q0 -26 -27 -26h-423q-15 0 -15 -15v-428q0 -26 -26 -26h-88q-27 0 -27 26v428q0 15 -14 15h-422q-27 0 -27 26v80q0 27 27 27h422q14 0 14 14v426q0 27 27 27h88q26 0 26 -27v-426q0 -14 15 -14h423q27 0 27 -27z" />
    <glyph glyph-name="comma" unicode="," horiz-adv-x="579" 
d="M426 240q61 -76 61 -154q0 -135 -147 -301q-54 -63 -110 -104t-87 -41q-20 0 -35.5 14.5t-15.5 34.5q0 16 12 28l8 5q7 5 18 13t23.5 18t26 22.5t23.5 23.5q63 69 63 125q0 51 -61 115q-72 78 -72 113q0 40 64 104q66 66 106 66q24 0 60.5 -25t62.5 -57z" />
    <glyph glyph-name="hyphen" unicode="-" horiz-adv-x="679" 
d="M74 489v142q0 26 26 26h480q26 0 26 -26v-142q0 -26 -26 -26h-480q-26 0 -26 26z" />
    <glyph glyph-name="period" unicode="." horiz-adv-x="548" 
d="M457 160q0 -43 -70 -113q-67 -70 -113 -70q-44 0 -114 70q-68 71 -68 113q0 41 68 112q70 70 114 70q46 0 113 -70q70 -67 70 -112z" />
    <glyph glyph-name="slash" unicode="/" horiz-adv-x="1009" 
d="M59 -197h-147l1055 1727h149z" />
    <glyph glyph-name="zero" unicode="0" horiz-adv-x="1341" 
d="M694 109q119 0 187.5 104t68.5 272q0 194 -80 336q-80 144 -219 144q-118 0 -189 -96t-71 -269q0 -205 82 -348t221 -143zM1219 541q0 -231 -158 -400q-156 -164 -389 -164q-250 0 -400 150q-149 149 -149 401q0 233 160 398q159 166 393 166q251 0 395 -156
q148 -157 148 -395z" />
    <glyph glyph-name="one" unicode="1" horiz-adv-x="831" 
d="M608 1030v-989q0 -41 -45 -41h-182q-45 0 -45 41v668q0 121 -12 145q-16 31 -76 31q-5 0 -14 -0.5t-26 -1.5t-30 -2q-66 -4 -72 -4q-48 0 -59 20q-12 21 -12 61q0 41 45 50l74 10l82 10q95 13 194 41q90 23 113 23q65 0 65 -62z" />
    <glyph glyph-name="two" unicode="2" horiz-adv-x="1191" 
d="M1044 344q43 0 43 -53q0 -21 -16 -119l-8 -57q-3 -36 -10 -54q-8 -32 -36.5 -55t-84.5 -16q-29 0 -131 6q-136 4 -180 4h-412q-64 0 -86.5 27.5t-22.5 91.5q0 210 199 342q66 45 201 104q136 63 184 94q100 63 100 158q0 65 -55 106.5t-131 41.5q-117 0 -199 -76
q-33 -30 -71 -90l-29 -51q-5 -10 -10.5 -19t-8.5 -14.5t-4 -7.5q-27 -50 -73 -50q-64 0 -64 136q0 133 76 194q129 105 379 105q105 0 215 -29q106 -31 178 -105t72 -172q0 -144 -144 -229q-80 -47 -260 -96q-181 -49 -262 -92q-110 -58 -110 -107q0 -22 34 -22h441
q106 0 153 12q44 12 80 57q27 35 53 35z" />
    <glyph glyph-name="three" unicode="3" horiz-adv-x="1226" 
d="M750 383q153 -15 262 -102q110 -85 110 -240q0 -193 -170 -313q-170 -123 -411 -123q-143 0 -256 39.5t-156 109.5q-37 58 -37 191q-2 67 12 94.5t66 34.5q38 0 59 -37q2 -4 16 -30.5t26.5 -49t30.5 -52t34 -48.5q94 -119 233 -119q121 0 185.5 80.5t64.5 224.5
q0 129 -74 200.5t-208 71.5q-25 0 -75 -4t-56 -4q-64 0 -64 62v41q0 57 59 57q5 0 60.5 -5t83.5 -5q112 0 174.5 67t62.5 185q0 117 -57.5 184.5t-157.5 67.5q-110 0 -184 -80q-36 -39 -66 -88q-6 -14 -45 -82q-27 -49 -69 -49q-37 0 -53.5 27.5t-16.5 94.5q0 151 84 217
q123 91 365 91q193 0 340 -99q149 -98 149 -270q0 -114 -83 -202t-240 -124q-4 -1 -5.5 -4.5t0.5 -6.5t7 -3z" />
    <glyph glyph-name="four" unicode="4" 
d="M963 199h178q41 0 41 -41v-119q0 -39 -41 -39h-178q-21 0 -21 -18v-320q0 -33 -33 -33h-180q-37 0 -37 33v320q0 18 -18 18h-553q-35 0 -35 37v92q0 38 20 64q178 258 252 452q79 198 88 414q0 33 39 33h150q35 0 35 -33q0 -158 -101 -381q-43 -94 -129 -238
q-83 -136 -145 -213q-10 -13 -10 -18q0 -10 16 -10h373q18 0 18 18v563q0 33 33 33h182q35 0 35 -33v-563q0 -18 21 -18z" />
    <glyph glyph-name="five" unicode="5" horiz-adv-x="1169" 
d="M340 596q333 0 528 -137q199 -138 199 -369q0 -214 -160 -350q-156 -135 -383 -135q-128 0 -234 37t-149 102q-45 62 -45 199q0 67 16 99t58 32q44 0 68 -37q5 -8 24 -44.5t44.5 -78t51.5 -72.5q88 -104 246 -104q113 0 188.5 73t75.5 183q0 136 -110 227
q-182 150 -549 150h-37q-22 0 -22 12q0 6 2 12l131 652q6 22 32 22h308q161 0 211 12q46 9 73 43q30 35 56 35q47 0 47 -45l-13 -96q-2 -11 -5.5 -36t-5 -35t-5.5 -28t-7.5 -27t-9.5 -19t-14 -17q-23 -20 -121 -20h-444q-17 0 -20 -15l-39 -194q-2 -6 -2 -15q0 -16 16 -16z
" />
    <glyph glyph-name="six" unicode="6" 
d="M410 475q0 -175 67.5 -269.5t186.5 -94.5q112 0 179.5 97t67.5 253q0 165 -67 261.5t-185 96.5q-112 0 -180.5 -91t-68.5 -253zM1081 1241q0 -86 -15 -120t-56 -34q-46 0 -74 48q-4 6 -24 41t-29 49q-23 41 -64 82q-51 51 -133 51q-130 0 -210 -154.5t-81 -421.5
q0 -8 6 -8q4 0 7 6q47 98 139 153.5t207 55.5q174 0 297 -123q125 -122 125 -336q0 -239 -152 -397q-150 -156 -371 -156q-176 0 -301 101q-229 186 -229 581q0 267 96 476q83 175 215 263.5t295 88.5q100 0 191 -30.5t127 -72.5q34 -46 34 -143z" />
    <glyph glyph-name="seven" unicode="7" horiz-adv-x="1138" 
d="M1067 1038q2 -12 2 -55q0 -98 -17.5 -171t-62.5 -148q-54 -88 -78 -119q-73 -92 -114 -139q-305 -373 -305 -556q0 -84 61 -133q31 -25 31 -47q0 -41 -60 -41h-241q-43 0 -58.5 23.5t-15.5 79.5q0 173 149 377q65 89 205 247l168 189q129 153 156 256q2 6 2 14
q0 16 -21 16h-405q-159 0 -211 -12q-48 -9 -74 -43q-34 -37 -57 -37q-43 0 -43 54q0 14 10 92q4 22 9 55.5t7.5 50t10.5 33.5t20 25q23 20 121 20h774q34 0 37 -31z" />
    <glyph glyph-name="eight" unicode="8" horiz-adv-x="1355" 
d="M897 1108q0 113 -57.5 178.5t-155.5 65.5q-100 0 -161.5 -66.5t-61.5 -183.5q0 -107 65 -175.5t156 -68.5t153 69t62 181zM397 379q0 -112 80 -189t205 -77q111 0 192 75q84 78 84 222q0 138 -86 215t-186 77q-111 0 -201 -84q-88 -82 -88 -239zM1184 1133
q0 -121 -82.5 -198.5t-214.5 -109.5q-16 -4 -22 -10t0 -12t22 -10q169 -38 266.5 -143t97.5 -247q0 -180 -159 -303q-156 -123 -412 -123q-254 0 -412 113q-159 114 -159 291q0 135 93.5 229.5t264.5 124.5q20 3 20 17q0 10 -16 16q-133 41 -217 129t-84 211q0 167 141 272
q143 107 369 107q220 0 360 -94q144 -91 144 -260z" />
    <glyph glyph-name="nine" unicode="9" horiz-adv-x="1286" 
d="M870 602q0 171 -68.5 266t-187.5 95q-110 0 -178.5 -97.5t-68.5 -253.5q0 -158 69 -253t182 -95q111 0 181.5 87t70.5 251zM164 -102q0 116 67 116q45 0 72 -43q70 -106 109 -149q81 -84 178 -84q143 0 219 142t76 421q0 8 -6 8q-4 0 -7 -6q-47 -96 -140 -151.5
t-206 -55.5q-171 0 -297 123q-125 125 -125 332q0 237 152 389q155 152 377 152q110 0 200.5 -40.5t151 -108t102 -159t60 -191t18.5 -206.5q0 -210 -65 -387q-64 -170 -213 -283q-144 -112 -357 -112q-105 0 -192.5 27t-128.5 73q-45 51 -45 193z" />
    <glyph glyph-name="colon" unicode=":" horiz-adv-x="755" 
d="M555 887q0 -45 -70 -115q-67 -67 -112 -67q-46 0 -115 69q-68 71 -68 113q0 41 68 112q70 70 115 70t112 -70q70 -70 70 -112zM555 160q0 -43 -70 -113q-67 -70 -112 -70t-115 70q-68 71 -68 113q0 41 68 112q70 70 115 70t112 -70q70 -67 70 -112z" />
    <glyph glyph-name="semicolon" unicode=";" horiz-adv-x="792" 
d="M592 887q0 -45 -70 -115q-70 -67 -112 -67q-46 0 -115 69q-70 70 -70 113q0 42 70 112t115 70q42 0 112 -70t70 -112zM524 240q62 -77 62 -154q0 -133 -148 -301q-54 -63 -109.5 -104t-86.5 -41q-21 0 -36.5 14.5t-15.5 34.5q0 15 13 28l7 5q8 5 18.5 13t23 18t26 22.5
t23.5 23.5q64 70 64 125q0 50 -62 115q-72 78 -72 113q0 40 64 104q66 66 106 66q24 0 60.5 -25t62.5 -57z" />
    <glyph glyph-name="less" unicode="&#x3c;" horiz-adv-x="1458" 
d="M1221 1008l-764 -336q-4 -4 -4 -6q0 -6 6 -9l762 -333q26 -12 26 -41v-140q0 -18 -12 -18q-1 0 -2.5 0.5t-5 1.5t-6.5 2l-994 436q-26 12 -26 41v117q0 29 26 41l994 438q3 1 6.5 2t5 1.5t2.5 0.5q12 0 12 -18v-139q0 -29 -26 -41z" />
    <glyph glyph-name="equal" unicode="=" horiz-adv-x="1507" 
d="M219 862v82q0 27 27 27h1016q26 0 26 -27v-82q0 -26 -26 -26h-1016q-27 0 -27 26zM219 520v80q0 27 27 27h1016q26 0 26 -27v-80q0 -26 -26 -26h-1016q-27 0 -27 26z" />
    <glyph glyph-name="greater" unicode="&#x3e;" horiz-adv-x="1458" 
d="M1001 672l-763 336q-27 12 -27 41v139q0 18 12 18q1 0 3 -0.5t5.5 -1.5t6.5 -2l993 -438q26 -12 26 -41v-117q0 -29 -26 -41l-993 -436q-3 -1 -6.5 -2t-5.5 -1.5t-3 -0.5q-12 0 -12 18v140q0 29 27 41l761 333q7 3 7 9q0 1 -5 6z" />
    <glyph glyph-name="question" unicode="?" horiz-adv-x="1097" 
d="M874 831q-43 -32 -143 -81q-66 -32 -133 -70q-82 -52 -82 -111q0 -47 64 -65q41 -12 41 -41q0 -62 -140 -62q-84 0 -128 36t-44 100q0 79 80 159q21 21 119 99q96 76 135 118q86 95 86 201q0 103 -56.5 171.5t-156.5 68.5q-89 0 -147 -51t-58 -119q0 -63 74 -90
q1 0 8.5 -3t17 -6t11.5 -4q31 -10 31 -43q0 -46 -50.5 -80t-113.5 -34q-87 0 -142 58.5t-55 154.5q0 137 127 243q128 107 336 107q223 0 342 -113q123 -114 123 -256q0 -174 -146 -287zM295 160q0 44 70 114t114 70q46 0 113 -70q70 -70 70 -114q0 -43 -70 -113
q-67 -70 -113 -70q-44 0 -114 70t-70 113z" />
    <glyph glyph-name="at" unicode="@" horiz-adv-x="2170" 
d="M1130 494q132 206 132 311q0 61 -86 102q-49 19 -80 19q-57 0 -97 -43q-73 -77 -129 -258q-43 -136 -43 -244q0 -125 64 -125q82 0 239 238zM1841 1108q137 -210 137 -465q0 -240 -127 -414q-126 -172 -327 -172q-141 0 -232 86.5t-98 231.5q0 8 -8 8q-5 0 -8 -6
q-76 -131 -189 -221q-96 -78 -196 -78q-96 0 -146.5 73t-50.5 189q0 236 147 453q164 243 377 243q72 -3 154 -30q86 -27 100 -27q32 0 72 37q22 22 41 22q41 0 41 -43q0 -1 -0.5 -4t-1.5 -8.5t-2 -11.5q-12 -47 -84 -373q-33 -143 -33 -246q0 -178 143 -178q74 0 144.5 60
t117.5 165q52 122 52 275q0 243 -148 432q-106 131 -268 205.5t-342 74.5q-341 0 -580 -245t-239 -592q0 -349 239 -594q240 -246 580 -246q192 0 361 85t286 239q20 26 49 26q20 0 34.5 -13.5t14.5 -33.5q0 -23 -14 -43q-110 -158 -313 -262q-196 -102 -418 -102
q-386 0 -660 274q-272 272 -272 670q0 396 272 668q274 274 660 274q230 0 423.5 -100.5t311.5 -282.5z" />
    <glyph glyph-name="A" unicode="A" horiz-adv-x="1517" 
d="M707 1126l-203 -483q-12 -27 -12 -33q0 -12 18 -12h391q17 0 17 10q0 1 -1 3.5t-2 6.5t-2 7l-190 501q-1 6 -8 6t-8 -6zM1483 88q33 -17 33 -43q0 -45 -68 -45h-401q-62 0 -62 41q0 24 31 43q34 20 45 31q18 18 18 43q0 35 -26 100l-66 172q-12 31 -49 31h-489
q-24 0 -33 -27q-68 -165 -68 -241q0 -27 10 -50q6 -13 15 -23.5t15.5 -15t18.5 -11.5t15 -9q27 -18 27 -41q0 -43 -70 -43h-313q-70 0 -70 45q0 23 35 47q64 46 104 107q42 61 96 180l478 1071q13 29 39 29h100q30 0 39 -27q430 -1128 444 -1159q55 -131 90 -166
q15 -15 62 -39z" />
    <glyph glyph-name="B" unicode="B" horiz-adv-x="1380" 
d="M1231 209q-156 -209 -623 -209h-450q-72 0 -72 47q0 28 45 51q47 24 68 74q22 61 22 213v780q0 99 -9 134t-46 57l-31 16q-25 12 -32 21t-7 26q0 43 62 43h483q100 0 186 -4q191 -13 289 -88q119 -85 119 -240q0 -92 -47 -163q-41 -64 -118.5 -107.5t-160.5 -56.5
q-8 -1 -12 -6.5t-1 -11t11 -5.5q174 -18 275 -106q116 -98 116 -256q0 -121 -67 -209zM494 686v-330q0 -166 18 -190q12 -17 36.5 -21t102.5 -4q355 0 355 295q0 273 -361 273q-109 0 -129 -2q-22 0 -22 -21zM524 848h97q148 0 235.5 62.5t87.5 187.5v10q-3 219 -313 219
h-105q-30 0 -30 -31v-419q0 -29 28 -29z" />
    <glyph glyph-name="C" unicode="C" horiz-adv-x="1406" 
d="M1059 225q45 48 102 142q26 43 44.5 58t43.5 15q42 0 58 -26t16 -88v-15q-1 -97 -21.5 -150t-68.5 -89q-58 -42 -168 -68.5t-231 -26.5q-175 0 -323.5 63t-244.5 171q-92 106 -142 239t-50 275q0 146 51.5 281t148.5 241q99 112 253 176t339 64q225 0 346 -74
q61 -39 72 -76q14 -35 14 -123v-20q0 -79 -14 -109t-55 -30q-31 0 -48 12.5t-38 48.5l-39 62q-48 70 -98 106q-83 62 -193 62q-190 0 -315 -168q-123 -169 -123 -424q0 -54 2 -68q18 -271 149 -414t303 -143q137 0 230 96z" />
    <glyph glyph-name="D" unicode="D" horiz-adv-x="1572" 
d="M1065 301q137 149 137 430q0 396 -260 533q-117 63 -395 63q-30 0 -40.5 -11t-10.5 -38v-891v-25q0 -109 5 -145t25 -53q30 -23 113 -23q281 0 426 160zM1188 1329q148 -90 228.5 -243t80.5 -338q0 -295 -199 -512q-100 -111 -271.5 -173.5t-393.5 -62.5h-475
q-72 0 -72 45q0 27 45 53q52 29 70 74q22 55 22 211v791q0 93 -10 126.5t-47 57.5q-5 5 -29 14q-25 12 -32 21t-7 26q0 43 62 43h342q268 0 413 -32q155 -30 273 -101z" />
    <glyph glyph-name="E" unicode="E" horiz-adv-x="1329" 
d="M1219 424q38 -14 38 -59q0 -12 -10 -64q-12 -56 -22 -117q-13 -83 -28 -124t-44 -60q-26 -16 -68 -16q-26 0 -127 8t-237 8h-563q-72 0 -72 45q0 27 45 53q49 26 70 74q24 58 24 211v793q0 65 -2 81q-4 67 -57 101q-4 3 -22.5 12t-22.5 12q-21 16 -21 37q0 43 62 43h536
q137 0 275 6q141 9 143 9q71 0 74 -66q2 -23 2 -141q0 -37 2 -76q1 -14 2 -33t1.5 -29t0.5 -16q0 -65 -65 -65q-35 0 -50.5 14t-38.5 65q-12 35 -26 58q-9 24 -32.5 51t-53.5 45q-73 43 -295 43h-90q-28 0 -38.5 -11t-10.5 -38v-387q0 -33 19.5 -43t70.5 -10h12q78 0 154 6
q182 12 194 12q68 0 68 -45q0 -5 -4 -41q0 -17 -6 -41q0 -18 -21 -33q-20 -14 -82 -14q-13 0 -123 4q-82 6 -147 6q-87 0 -107 -2q-28 -3 -28 -28v-330q0 -90 7.5 -125.5t31.5 -52.5q31 -17 116 -17q105 0 172 15q103 22 152 65q62 52 121 145q47 68 88 68q18 0 33 -6z" />
    <glyph glyph-name="F" unicode="F" horiz-adv-x="1251" 
d="M1198 1124q0 -41 -17.5 -57t-56.5 -16q-25 0 -40.5 15.5t-32.5 57.5q-6 16 -16 37t-11 23q-8 22 -35 52t-57 48q-40 22 -96 31q-65 10 -111 10q-33 2 -156 2h-22q-28 0 -38.5 -11t-10.5 -38v-442q0 -32 11.5 -45t41.5 -13q109 0 203 4q42 2 112 8.5t84 6.5q66 0 66 -45
q0 -5 -4 -41q-9 -62 -27 -74q-17 -14 -84 -14q-11 0 -121 4q-82 6 -147 6q-84 0 -107 -2q-28 -3 -28 -29v-219q0 -156 22 -211q18 -45 70 -74q45 -26 45 -53q0 -45 -72 -45h-405q-72 0 -72 45q0 27 45 53q52 29 70 74q24 58 24 211v815q0 74 -11 105.5t-48 54.5
q-4 3 -22.5 12t-22.5 12q-21 16 -21 37q0 43 62 43h536q123 0 258 6q135 9 152 9q77 0 80 -66l6 -143q4 -118 4 -144z" />
    <glyph glyph-name="G" unicode="G" horiz-adv-x="1507" 
d="M920 707l444 2q63 0 63 -41q0 -17 -8.5 -26.5t-29.5 -21t-31 -18.5q-38 -25 -47 -67q-8 -36 -8 -148v-186q0 -51 -41 -86q-182 -138 -441 -138q-338 3 -542 213q-205 211 -205 543q0 315 221 533q221 221 559 221q234 0 358 -74q84 -53 84 -205v-45q-6 -110 -69 -110
q-28 0 -44.5 13t-37.5 50q-61 108 -133 164q-91 66 -199 66q-192 0 -315 -156t-123 -399q0 -283 129 -476q129 -190 344 -190q81 0 133 22q47 21 47 70v170q0 111 -16.5 151.5t-75.5 63.5q-11 5 -29.5 11.5t-27.5 10.5t-17 14.5t-8 27.5q3 41 66 41z" />
    <glyph glyph-name="H" unicode="H" horiz-adv-x="1636" 
d="M1505 98q45 -26 45 -53q0 -45 -71 -45h-406q-72 0 -72 45q0 26 46 53q47 26 69 74q23 57 23 211v297q0 27 -29 27h-594q-20 0 -20 -19v-305q0 -153 24 -211q21 -47 68 -74q45 -26 45 -53q0 -45 -70 -45h-405q-72 0 -72 45q0 27 45 53q52 29 70 74q22 55 22 211v760
q0 113 -8 149q-10 44 -47 66q-12 9 -32 18.5t-29 18t-9 26.5q0 41 62 41h399q62 0 62 -41q0 -13 -6.5 -22.5t-13.5 -14t-23.5 -12.5t-26.5 -14q-37 -22 -47 -66q-8 -36 -8 -149v-273q0 -24 30 -24h594q19 0 19 16v305q0 95 -10 131.5t-46 59.5q-10 6 -26 14t-23 12.5
t-13.5 14t-6.5 22.5q0 41 61 41h400q61 0 61 -41q0 -18 -8 -26q-5 -6 -32 -21t-28 -16q-36 -23 -45.5 -59t-9.5 -132v-784q0 -154 23 -211q22 -48 69 -74z" />
    <glyph glyph-name="I" unicode="I" horiz-adv-x="718" 
d="M588 98q6 -6 19 -13.5t19.5 -16t6.5 -23.5q0 -45 -72 -45h-403q-72 0 -72 45q0 15 6 23t19.5 16t19.5 14q56 37 70 74q22 58 22 213v801q0 83 -10 116.5t-45 55.5q-10 6 -26 14t-23.5 12.5t-14 14t-6.5 22.5q0 41 62 41h397q64 0 64 -41q3 -8 -1 -15.5t-13 -14.5
t-18 -12.5t-21 -11.5t-17 -9q-35 -22 -45 -55.5t-10 -116.5v-801q0 -152 22 -213q18 -40 70 -74z" />
    <glyph glyph-name="J" unicode="J" horiz-adv-x="989" 
d="M0 231q0 111 72 111q44 0 78 -55l28 -45q37 -55 39 -58q19 -19 51.5 -37t63.5 -18q67 0 114 53q62 74 62 310v583q0 180 -14 221q-15 48 -72 74q-27 14 -36 23.5t-9 27.5q0 41 69 41h398q65 0 65 -43q0 -27 -47 -51q-52 -27 -67 -74q-15 -50 -15 -219v-149q2 -80 2 -187
q0 -113 -4 -211q-3 -79 -26 -176q-20 -96 -70 -166q-71 -99 -183.5 -154t-236.5 -55q-143 0 -202.5 54.5t-59.5 199.5z" />
    <glyph glyph-name="K" unicode="K" horiz-adv-x="1562" 
d="M1503 45q0 -45 -59 -45h-158q-118 0 -170 37q-32 20 -74 80q-50 73 -176 264q-107 164 -153 219q-41 53 -70 53q-22 0 -63 -35l-64 -59q-20 -20 -20 -45v-131q0 -153 24 -211q14 -39 68 -74q8 -8 21 -15.5t18.5 -15t5.5 -22.5q0 -45 -70 -45h-405q-72 0 -72 45
q0 27 45 53q47 27 68 74q24 58 24 211v760q0 113 -8 149q-10 44 -47 66q-12 9 -32 18.5t-29 18t-9 26.5q0 41 62 41h399q62 0 62 -41q0 -13 -6.5 -22.5t-13.5 -14t-23.5 -12.5t-26.5 -14q-36 -23 -45.5 -59t-9.5 -132v-411q0 -11 8 -11q5 0 10 5q268 256 381 380
q137 143 137 197q0 25 -31 47q-28 25 -28 45q0 43 65 43h387q60 0 60 -43q0 -16 -12 -28q-9 -8 -91 -43q-124 -62 -335 -267l-228 -221q-26 -26 -26 -35q0 -10 12 -10q1 0 15 5t24 5q45 0 100 -67q62 -76 189 -273q105 -161 157 -229q68 -87 90 -109q38 -30 60 -43
q5 -3 17.5 -10t18 -11t13 -10.5t11 -13t3.5 -14.5z" />
    <glyph glyph-name="L" unicode="L" horiz-adv-x="1191" 
d="M1116 432q32 0 53 -17t21 -46q0 -16 -10 -68q-15 -66 -23 -119q-13 -80 -29 -121.5t-45 -60.5q-26 -16 -67 -16q-23 0 -127 8q-101 8 -238 8h-493q-72 0 -72 45q0 27 45 53q49 26 70 74q22 58 22 213v770q0 105 -9 142t-46 61q-12 9 -32 18.5t-29 18t-9 26.5q0 41 62 41
h399q64 0 64 -41q3 -8 -1 -15.5t-13 -14.5t-18 -12.5t-21 -11.5t-17 -9q-36 -23 -45.5 -59t-9.5 -132v-856q0 -76 7.5 -108t31.5 -49q31 -17 88 -17q54 0 131 15q98 21 153 67q58 46 121 143q46 70 86 70z" />
    <glyph glyph-name="M" unicode="M" horiz-adv-x="1867" 
d="M1737 98q45 -26 45 -53q0 -45 -70 -45h-407q-70 0 -70 45q0 27 45 53q53 27 68 74q24 58 24 272v762q0 10 -8 10t-10 -8l-404 -934q-10 -24 -18.5 -30t-28.5 -6h-72q-21 0 -31.5 7t-17.5 29l-401 936q-3 7 -8 7q-11 0 -11 -11q0 -601 7 -837q3 -94 22 -144
q19 -51 39.5 -71t67.5 -43q3 -1 13 -5.5t13.5 -6.5t11.5 -6t11.5 -7t9 -7.5t8 -9t4.5 -10.5t2 -12q0 -47 -73 -47h-351q-77 0 -77 45q0 22 34 49q41 32 46 39q64 79 67 361q2 117 2 768q0 42 -8 55q-11 19 -47 35q-6 3 -25 11t-27.5 12.5t-17 16t-8.5 25.5q0 45 72 45h340
q62 0 77 -41l349 -792q3 -8 10 -8t10 6l344 792q21 43 64 43h356q61 0 61 -41q0 -13 -6 -22.5t-13 -14t-24 -12.5t-26 -14q-37 -22 -47 -66q-8 -36 -8 -149v-760q0 -153 24 -211q15 -47 68 -74z" />
    <glyph glyph-name="N" unicode="N" horiz-adv-x="1638" 
d="M1145 1462h360q72 0 72 -45q0 -24 -25 -39q-17 -13 -45 -22q-33 -16 -50 -34.5t-30.5 -66.5t-21.5 -137q-10 -192 -10 -1106q0 -28 -33 -28h-137q-39 0 -58 28l-745 1061q-3 6 -10 6q-9 0 -9 -10q0 -611 7 -721q7 -80 27.5 -131t43 -70.5t58.5 -35.5q3 -2 14.5 -6.5
t15.5 -6.5t12.5 -7t12 -8.5t8 -9t6.5 -12t2 -14.5q0 -47 -71 -47h-398q-73 0 -73 45q0 11 4 19t12.5 14.5t15 10t20 9.5t17.5 8q54 27 81.5 79t33.5 163q10 147 10 912q0 20 -12 32q-21 24 -66 47q-8 4 -29 12.5t-29.5 13t-21 12.5t-17.5 18t-5 22q0 45 74 45h274
q62 0 88 -39l719 -1024q3 -6 10 -6q8 0 8 10q0 598 -8 715q-6 112 -28 159t-72 73q-7 4 -26 12t-27 13t-16.5 15.5t-8.5 24.5q0 47 76 47z" />
    <glyph glyph-name="O" unicode="O" horiz-adv-x="1634" 
d="M799 1346q-187 0 -307 -156q-117 -153 -117 -406q0 -282 125 -471q126 -190 336 -190q192 0 307 160q114 159 114 399q0 281 -124 471q-126 193 -334 193zM1559 737q-3 -318 -216 -540q-214 -220 -526 -220q-342 0 -541 205q-200 206 -200 537q0 319 209 545
q207 223 532 223q339 0 539 -209q203 -209 203 -541z" />
    <glyph glyph-name="P" unicode="P" horiz-adv-x="1286" 
d="M932 874q41 68 41 160q0 108 -60 180q-89 111 -303 111h-78q-34 0 -34 -35v-524q0 -27 28 -27h78q245 3 328 135zM1221 870q-126 -272 -568 -272h-133q-22 0 -22 -27v-184q0 -165 24 -217q14 -35 70 -72q43 -27 43 -53q0 -45 -68 -45h-411q-70 0 -70 45q0 27 45 53
q51 29 70 72q22 52 22 217v823q0 69 -10.5 98.5t-46.5 49.5q-4 3 -23.5 12t-23.5 12q-21 16 -21 37q0 43 64 43h411q134 0 236 -4q69 -3 176 -35q99 -29 164 -94q108 -108 108 -280q0 -103 -36 -179z" />
    <glyph glyph-name="Q" unicode="Q" horiz-adv-x="1648" 
d="M377 784q0 -171 49 -319q53 -149 158 -248q107 -98 254 -98q194 0 309 160t115 401q0 272 -125 467q-126 199 -338 199q-195 0 -310 -160q-112 -153 -112 -402zM1563 735q-3 -242 -129 -436q-125 -189 -338 -272q30 -16 71 -45q207 -154 303 -166q84 0 84 -47
q0 -28 -38 -48l-162 -81q-52 -25 -94 -25q-39 0 -80 23q-56 36 -240 188q-181 148 -272 162q-285 44 -439 241q-153 200 -153 500q0 315 211 535q210 223 532 223q342 0 541 -211q203 -209 203 -541z" />
    <glyph glyph-name="R" unicode="R" horiz-adv-x="1474" 
d="M526 817h109q138 0 223.5 65.5t85.5 198.5q0 155 -98 203q-78 41 -205 41h-106q-37 0 -37 -33v-448q0 -27 28 -27zM1386 104q3 -2 24 -13.5t29 -21.5t7 -26q0 -43 -60 -43h-174q-102 0 -149 74q-30 46 -59 123q-8 21 -22.5 56t-33.5 79t-26 61q-57 131 -116 196.5
t-142 82.5q-38 6 -89 6q-45 0 -53 -2q-24 -3 -24 -29v-260q0 -167 24 -217q22 -46 70 -72q43 -27 43 -53q0 -45 -68 -45h-411q-68 0 -68 45q0 26 43 53q54 35 70 72q24 52 24 217v778q0 99 -9.5 134t-49.5 59q-4 2 -15.5 8t-20 11t-18 11.5t-12.5 14.5t0 16q0 43 62 43h336
h114q51 2 101 2q292 0 411 -98q119 -94 119 -254q0 -86 -33 -145q-84 -172 -301 -199q-12 -1 -16.5 -6.5t0 -11.5t16.5 -7q111 -15 174 -90q66 -79 142 -258q71 -164 98 -217q31 -55 63 -74z" />
    <glyph glyph-name="S" unicode="S" horiz-adv-x="1230" 
d="M1026 1376q53 -53 53 -200q2 -61 -11 -90t-58 -35q-35 0 -60 32q-7 8 -34.5 46t-56 74t-50.5 57q-96 90 -207 90q-97 0 -162 -57t-65 -142q0 -129 151 -197q49 -20 176 -63q127 -40 206 -81.5t134 -100.5q101 -107 101 -256q0 -98 -43 -183q-69 -141 -208.5 -215.5
t-334.5 -74.5q-154 0 -277.5 43.5t-170.5 117.5q-28 42 -37 164q0 7 -3 42.5t-3 43.5q0 38 17.5 59t47.5 21q38 0 64 -39q82 -119 108 -145q147 -164 315 -164q118 0 194.5 65.5t76.5 167.5q0 122 -107 189q-65 42 -223 92q-157 54 -229 92q-207 112 -207 320q0 153 110 272
q111 117 273 152q60 14 147 14q118 0 220 -30t153 -81z" />
    <glyph glyph-name="T" unicode="T" horiz-adv-x="1271" 
d="M1264 1122q0 -38 -17.5 -54.5t-56.5 -16.5q-44 0 -74 71q-51 116 -119 162q-59 39 -182 39q-43 0 -43 -43v-893q0 -165 25 -217q23 -47 69 -72q43 -24 43 -53q0 -45 -67 -45h-414q-68 0 -68 45q0 26 43 53q57 33 72 72q23 61 23 217v893q0 43 -41 43q-121 0 -183 -39
q-48 -28 -69 -65q-5 -10 -16.5 -30t-20.5 -40l-12 -27q-20 -43 -34.5 -58t-39.5 -15q-76 0 -76 73q0 31 2 58q4 54 4 55v92q4 83 4 84q3 66 86 66q24 0 156 -9q132 -6 231 -6h293q102 0 234 6q132 9 153 9q83 0 86 -66q2 -14 2 -84q3 -64 3 -92q0 -17 2 -61.5t2 -51.5z" />
    <glyph glyph-name="U" unicode="U" horiz-adv-x="1552" 
d="M1094 1462h356q74 0 74 -45q0 -19 -12 -28.5t-31 -17t-27 -15.5q-48 -25 -71.5 -73.5t-30.5 -162.5q-4 -54 -4 -284q0 -265 -2 -308q-3 -133 -35 -231q-55 -155 -194 -237.5t-341 -82.5q-438 0 -549 295q-34 87 -34 258v635q0 96 -10.5 132.5t-47.5 60.5q-5 5 -29 14
q-24 12 -31 20.5t-7 26.5q0 43 61 43h399q62 0 62 -43q0 -18 -8 -26q-5 -6 -31.5 -19.5t-28.5 -15.5q-37 -24 -47 -60t-10 -133l2 -587q0 -133 31 -218q76 -198 333 -198q173 0 268 99t99 292q2 47 2 266q0 215 -4 301q-6 109 -29 157t-71 73q-7 4 -26 12t-27 13t-16.5 15.5
t-8.5 24.5q0 47 76 47z" />
    <glyph glyph-name="V" unicode="V" horiz-adv-x="1519" 
d="M1141 1462h313q70 0 70 -45q0 -23 -35 -47q-67 -48 -105 -106q-39 -54 -96 -181l-477 -1073q-12 -26 -37 -26h-102q-30 0 -39 26l-445 1159q-54 133 -88 164q-11 11 -63 41q-33 14 -33 43q0 45 70 45h399q62 0 62 -43q4 -13 -5.5 -24t-33.5 -24t-27 -15q-27 -21 -27 -51
q0 -28 23 -99l332 -870q1 -6 8 -6t8 6l295 700q63 152 63 232q0 28 -10 51q-17 30 -53 49q-37 21 -37 49q0 45 70 45z" />
    <glyph glyph-name="W" unicode="W" horiz-adv-x="2289" 
d="M1905 1462h315q68 0 68 -45q0 -28 -37 -49q-69 -47 -107 -104q-40 -55 -90 -185l-395 -1067q-9 -26 -33 -26h-104q-24 0 -33 24l-354 1061q-9 11 -17 0l-387 -1059q-9 -26 -35 -26h-114q-24 0 -33 24l-363 1159q-35 120 -80 160q-21 17 -65 43q-33 17 -33 43q0 47 72 47
h401q62 0 62 -43q0 -25 -29 -41q-42 -25 -47 -32q-16 -22 -16 -52q0 -31 16 -90l238 -801q3 -8 8 -8q6 0 12 19l379 1040q10 23 35 23h131q26 0 33 -23l339 -1051q3 -10 9 -10q3 0 6 10l227 633q53 151 53 224q0 68 -73 114q-29 19 -29 43q0 45 70 45z" />
    <glyph glyph-name="X" unicode="X" horiz-adv-x="1540" 
d="M1427 100q4 -3 21.5 -12t21.5 -12q19 -14 19 -33q0 -43 -62 -43h-421q-62 0 -62 41q0 18 31 43q31 28 31 51q0 34 -66 131l-246 352q-7 7 -10 7q-6 0 -12 -9q-197 -280 -244 -407q-8 -19 -8 -43q0 -43 33 -66q3 -2 13 -8l17.5 -10.5t15 -11t10.5 -13.5t1 -14
q0 -43 -64 -43h-327q-66 0 -66 41q0 21 18 38.5t52 39.5q87 67 164 174q127 173 297 438q14 25 0 47l-281 402q-70 99 -96 127q-29 33 -70 55q-63 20 -63 57q0 43 61 43h420q61 0 61 -41q2 -5 0 -11.5t-9 -13t-12 -11t-13 -11.5l-9 -6q-18 -15 -18 -43q0 -40 63 -129
l226 -322q5 -8 10 -8q7 0 12 8q186 278 224 379q8 19 8 45q0 42 -33 62q-4 2 -18.5 10.5t-20 13t-12 14t-6.5 21.5q0 43 65 43h328q65 0 65 -41q0 -23 -20 -43l-49 -35q-79 -60 -164 -174q-116 -152 -281 -409q-13 -23 0 -43l287 -410l35 -49q33 -41 55 -74q41 -50 98 -84z
" />
    <glyph glyph-name="Y" unicode="Y" horiz-adv-x="1458" 
d="M1059 1462h321q72 0 72 -43q0 -26 -35 -47q-58 -40 -102 -90q-61 -70 -133 -184l-320 -510q-6 -9 -6 -25v-176q0 -162 25 -217q19 -44 69 -72q43 -24 43 -53q0 -45 -67 -45h-412q-68 0 -68 45q0 29 43 53q51 29 70 72q25 55 25 217v113q0 17 -9 32q-327 591 -350 639
q-58 116 -100 158q-21 21 -68 45q-32 17 -32 43q0 45 69 45h410q61 0 61 -41q0 -26 -35 -47q-38 -23 -43 -28q-12 -15 -12 -37q0 -38 37 -105l260 -475q2 -6 8 -6t11 6l215 352q86 139 86 203q0 50 -66 88q-33 17 -33 43q0 47 66 47z" />
    <glyph glyph-name="Z" unicode="Z" horiz-adv-x="1300" 
d="M1171 430q74 0 74 -65q0 -23 -12 -64q-13 -45 -25 -119q-11 -81 -25.5 -122t-43.5 -60q-26 -16 -68 -16q-23 0 -127 8q-101 8 -237 8h-580q-30 0 -39.5 10t-9.5 43q0 75 22 111l756 1143q1 2 2 4.5t1.5 3.5t0.5 2q0 8 -14 8h-158q-245 0 -319 -41q-30 -16 -60 -49
q-12 -15 -20.5 -28.5t-12.5 -22t-12.5 -28.5t-13.5 -32q-17 -42 -33 -57.5t-41 -15.5q-16 0 -26 2t-22.5 8t-19 22t-6.5 41l1 16q1 15 2.5 51t3.5 77q0 65 4 143q1 37 22 51.5t66 14.5q19 0 151 -9q132 -6 250 -6h549q31 0 41 -9.5t10 -39.5q0 -72 -28 -117l-750 -1136
l-6 -13q0 -8 12 -8q310 0 381 15q102 22 154 65q54 43 118 141q46 70 88 70z" />
    <glyph glyph-name="bracketleft" unicode="[" horiz-adv-x="774" 
d="M698 1399h-297q-34 0 -34 -35v-1518q0 -20 7 -27t27 -7h299q35 0 35 -33v-66q0 -32 -37 -32h-532q-35 0 -35 34v1780q0 35 35 35h532q37 0 37 -33v-65q0 -33 -37 -33z" />
    <glyph glyph-name="backslash" unicode="\" horiz-adv-x="1009" 
d="M-106 1530h149l1055 -1727h-148z" />
    <glyph glyph-name="bracketright" unicode="]" horiz-adv-x="774" 
d="M76 -188h297q35 0 35 34v1518q0 20 -7.5 27.5t-27.5 7.5h-299q-35 0 -35 33v65q0 33 37 33h532q35 0 35 -35v-1780q0 -34 -35 -34h-532q-37 0 -37 32v66q0 33 37 33z" />
    <glyph glyph-name="asciicircum" unicode="^" horiz-adv-x="1058" 
d="M291 950h-164q-21 0 -21 15q0 5 9 20l284 477q16 25 50 25h161q36 0 52 -25l290 -487l4 -12q0 -13 -20 -13h-166q-35 0 -51 25l-178 303q-3 8 -11 8q-5 0 -10 -8l-178 -303q-16 -25 -51 -25z" />
    <glyph glyph-name="underscore" unicode="_" horiz-adv-x="1019" 
d="M1047 -211v-82q0 -26 -27 -26h-1020q-27 0 -27 26v82q0 27 27 27h1020q27 0 27 -27z" />
    <glyph glyph-name="grave" unicode="`" horiz-adv-x="993" 
d="M537 1264l-310 190q-12 9 -12 16q0 17 27 17h245q55 0 86 -31l203 -192q6 -6 6 -13q0 -12 -18 -12h-137q-48 0 -90 25z" />
    <glyph glyph-name="a" unicode="a" 
d="M229 352l367 688q16 23 35 23h84q27 0 37 -23q264 -592 356 -784q52 -113 80 -141q13 -16 53 -37q31 -16 31 -39q0 -39 -58 -39h-364q-53 0 -53 37q0 23 26 37q54 28 54 67q0 44 -50 144q-6 12 -18 12h-436q-14 0 -17 -10q-41 -96 -41 -135q0 -44 56 -74q28 -16 28 -39
q0 -39 -61 -39h-272q-62 0 -62 39q0 22 31 41q48 29 92 94q36 51 102 178zM756 451l-148 319q-2 6 -6 6t-6 -6l-170 -336q-2 -2 -2 -8t8 -6h320q12 0 12 10q0 8 -8 21z" />
    <glyph glyph-name="b" unicode="b" horiz-adv-x="1226" 
d="M469 883v-232q0 -22 27 -22h73q246 0 246 147q0 133 -240 133h-79q-27 0 -27 -26zM555 139h33q268 0 268 180q0 170 -274 170h-95q-18 0 -18 -18v-199q0 -104 14 -118q15 -15 72 -15zM819 559q151 -11 240.5 -78t89.5 -180q0 -90 -55 -154q-64 -76 -188.5 -111.5
t-342.5 -35.5h-405q-76 0 -76 45q0 27 45 53q48 29 70 74q22 49 22 195v374q0 111 -8 142q-9 40 -47 59q-9 6 -25.5 14t-24 13t-14 14.5t-6.5 22.5q0 41 64 41h450q62 0 150 -5q62 -2 129 -17t108 -42q101 -64 101 -174q0 -106 -84 -166q-83 -59 -193 -68q-7 0 -9.5 -4t0 -8
t9.5 -4z" />
    <glyph glyph-name="c" unicode="c" horiz-adv-x="1196" 
d="M688 106q113 0 172 62q31 34 48.5 60t49.5 83q41 74 84 74q40 0 55 -23.5t15 -82.5q0 -172 -78 -232q-42 -31 -138 -50.5t-198 -19.5q-280 3 -454 154q-172 153 -172 389q0 240 190 393q193 156 477 156q172 0 275 -53q49 -25 62.5 -66.5t13.5 -146.5q0 -66 -17 -94.5
t-55 -28.5q-43 0 -80 70q-52 102 -109.5 148t-150.5 46q-148 0 -242 -113q-92 -115 -92 -292q0 -194 102 -314q101 -119 242 -119z" />
    <glyph glyph-name="d" unicode="d" horiz-adv-x="1355" 
d="M586 125q193 0 308.5 99t115.5 294q0 270 -201 359q-93 43 -317 43q-23 0 -23 -21v-645q0 -97 23 -113q26 -16 94 -16zM1028 950q254 -131 254 -422q0 -214 -164 -364q-84 -77 -225.5 -121.5t-317.5 -44.5h-421q-72 0 -72 45q0 15 6 23t19.5 16t19.5 14q56 37 70 74
q22 52 22 201v377q0 101 -9.5 136t-45.5 58q-9 6 -25.5 14t-24 13t-14 14.5t-6.5 22.5q0 41 64 41h309q375 0 561 -97z" />
    <glyph glyph-name="e" unicode="e" horiz-adv-x="1236" 
d="M1090 383q73 0 73 -70q0 -27 -12 -80l-12 -65q-13 -87 -33 -133q-24 -51 -105 -51q-21 0 -122 8t-236 8h-489q-72 0 -72 45q0 15 5.5 22.5t18.5 15t21 15.5q52 29 70 74q24 58 24 213v373q0 95 -9.5 127.5t-49.5 56.5q-4 3 -22.5 12.5t-22.5 12.5q-21 16 -21 37
q0 43 62 43h463q124 0 256 6q120 8 151 8q79 0 82 -66q4 -94 4 -112q0 -10 2 -60.5t2 -68.5q0 -45 -16.5 -60.5t-54.5 -15.5q-26 0 -42.5 14.5t-41.5 57.5q0 1 -1.5 3t-4.5 6.5t-5 8.5q-5 9 -10.5 20t-13.5 21q-28 47 -74 72q-68 39 -236 39h-100q-28 0 -38.5 -11.5
t-10.5 -38.5v-217q0 -29 10 -38t43 -11q63 0 137 4q28 2 91.5 8.5t76.5 6.5q68 0 68 -45q0 -3 -2 -19t-2 -20q-1 -40 -21 -55t-65 -15q-17 0 -80 3t-86 3q-33 2 -141 2q-29 0 -29 -31v-129q0 -91 7 -126t32 -48q34 -18 110 -18q137 0 226 42t155 144q44 72 91 72z" />
    <glyph glyph-name="f" unicode="f" horiz-adv-x="1161" 
d="M1108 995q2 -25 2 -102q0 -13 3 -66.5t3 -70.5q0 -46 -16 -63t-53 -17q-25 0 -42.5 15t-43.5 59q-1 2 -15 25.5t-20 29.5q-27 49 -74 76q-62 39 -242 39h-94q-28 0 -38.5 -11.5t-10.5 -38.5v-270q0 -30 11 -39.5t42 -9.5q65 0 135 4q25 2 88.5 8t79.5 6q68 0 68 -41
q0 -5 -2 -22t-2 -21q-1 -41 -22.5 -55t-76.5 -14q-14 0 -71 3t-78 3q-31 2 -143 2q-29 0 -29 -29v-63q3 -121 22 -160q18 -45 70 -74q45 -26 45 -53q0 -45 -72 -45h-378q-72 0 -72 45q0 15 5.5 22.5t18.5 15t21 15.5q50 35 70 74q22 49 22 199v379q0 97 -10 132.5t-47 59.5
q-4 3 -23.5 12.5t-23.5 12.5q-21 16 -21 37q0 43 62 43h462q124 0 256 6q120 8 152 8q79 0 82 -66z" />
    <glyph glyph-name="g" unicode="g" horiz-adv-x="1280" 
d="M733 502h422q62 0 62 -41q3 -9 0 -17.5t-12.5 -15.5t-18.5 -12t-21.5 -10.5t-17.5 -8.5q-36 -23 -45.5 -57.5t-9.5 -128.5v-111q0 -38 -31 -53q-149 -70 -361 -70q-274 0 -452 150q-176 150 -176 393q0 228 182 387q180 162 465 162q194 0 297 -53q49 -25 62.5 -67
t13.5 -146q0 -62 -15 -92q-15 -31 -59 -31t-78 70q-50 101 -108.5 147.5t-153.5 46.5q-145 0 -240 -115q-94 -113 -94 -290q0 -214 113 -324q114 -111 282 -111q36 0 76 7q27 6 27 32v39q0 111 -16.5 151.5t-75.5 63.5q-27 8 -40.5 13.5t-27.5 18.5t-14 30q0 43 65 43z" />
    <glyph glyph-name="h" unicode="h" horiz-adv-x="1390" 
d="M1264 98q45 -26 45 -53q0 -45 -72 -45h-379q-72 0 -72 45q0 27 45 53q47 27 68 74q25 61 25 209v70q0 26 -29 26h-410q-18 0 -18 -18v-78q0 -154 22 -209q18 -45 70 -74q45 -26 45 -53q0 -45 -72 -45h-378q-72 0 -72 45q0 27 45 53q47 27 68 74q24 58 24 199v377
q0 100 -9.5 135t-45.5 59q-5 4 -28.5 15t-34.5 22t-7 25q0 43 62 43h374q62 0 62 -41q3 -8 -1 -15.5t-13.5 -15t-18 -12.5t-21 -11.5t-16.5 -9.5q-37 -25 -47 -68q-8 -36 -8 -147v-98q0 -25 29 -25h409q19 0 19 17v106q0 107 -9 147q-10 43 -47 68q-9 6 -25.5 14.5t-23.5 13
t-13.5 14t-6.5 22.5q0 41 61 41h375q61 0 61 -41q3 -8 -0.5 -15.5t-13 -15t-18 -12.5t-21 -12t-16.5 -9q-37 -25 -47 -68q-9 -41 -9 -147v-346q0 -152 23 -209q18 -45 70 -74z" />
    <glyph glyph-name="i" unicode="i" horiz-adv-x="688" 
d="M469 750v-369q0 -152 23 -209q19 -45 69 -74q45 -26 45 -53q0 -45 -71 -45h-381q-72 0 -72 45q0 27 45 53q52 29 70 74q22 55 22 199v377q0 104 -8 135q-10 37 -47 59q-9 6 -25.5 14t-24 13t-14 14.5t-6.5 22.5q0 41 64 41h372q64 0 64 -41q3 -8 -1 -15.5t-13.5 -15
t-18 -12.5t-21 -11.5t-16.5 -9.5q-37 -24 -46 -59t-9 -133z" />
    <glyph glyph-name="j" unicode="j" horiz-adv-x="980" 
d="M477 1047h375q61 0 61 -41q3 -8 -0.5 -15.5t-13 -15t-18 -12.5t-21 -12t-16.5 -9q-37 -22 -47 -65q-9 -40 -9 -156v-158q0 -255 -94 -389q-138 -197 -401 -197q-143 0 -203 54q-61 52 -61 198q0 115 75 115q39 0 66 -43l29 -49l34 -53q81 -92 144 -82q94 0 129 81.5
t35 262.5v274q0 109 -9 146q-9 39 -47 61q-12 9 -32 18.5t-28.5 18.5t-8.5 27q0 41 61 41z" />
    <glyph glyph-name="k" unicode="k" horiz-adv-x="1349" 
d="M1245 104q5 -3 19 -11t18.5 -11.5t12.5 -10t11 -13.5t3 -15q0 -43 -62 -43h-164q-92 0 -137 31q-27 21 -61 61q-62 83 -111 154q-85 120 -115 153q-30 38 -56.5 39t-61.5 -32l-52 -48q-20 -20 -20 -45q3 -103 20 -141q18 -45 70 -74q45 -26 45 -53q0 -45 -72 -45h-380
q-70 0 -70 45q0 15 5.5 22.5t18.5 15t21 15.5q54 35 68 74q24 58 24 199v350q0 122 -8 158q-9 40 -47 63q-12 9 -32.5 18.5t-29 18.5t-8.5 27q0 41 62 41h374q62 0 62 -41q3 -8 -1 -15.5t-13.5 -15t-18 -12.5t-21 -11.5t-16.5 -9.5q-37 -22 -47 -65q-8 -36 -8 -150v-184
q0 -11 10 -11q5 0 12 7l189 176q153 144 153 196q0 25 -28 47q-29 26 -29 46q0 43 66 43h387q59 0 59 -43q0 -18 -12.5 -28.5t-48 -25t-47.5 -20.5q-60 -25 -129 -78q-71 -51 -117 -92l-176 -160q-6 -6 -6 -12q0 -13 12 -13q2 0 18.5 5.5t24.5 5.5q21 0 57 -25
q32 -26 66 -76l24 -34q17 -20 62 -84q112 -157 139 -189q43 -46 92 -74z" />
    <glyph glyph-name="l" unicode="l" horiz-adv-x="1126" 
d="M1053 383q71 0 71 -64q0 -29 -14 -92l-8 -57q-9 -62 -25 -109q-26 -77 -114 -77q-26 0 -127 8q-99 8 -232 8h-450q-72 0 -72 45q0 27 45 53q52 34 70 74q22 55 22 213v363q0 100 -9.5 135t-45.5 59q-9 6 -25.5 14t-24 13t-14 14.5t-6.5 22.5q0 41 64 41h372q64 0 64 -41
q3 -8 -1 -15.5t-13.5 -15t-18 -12.5t-21 -11.5t-16.5 -9.5q-36 -24 -45.5 -59.5t-9.5 -130.5v-435q0 -89 7 -123t32 -51q30 -18 96 -18q68 0 125 14q79 17 127 56q50 40 105 118q31 43 48.5 56.5t43.5 13.5z" />
    <glyph glyph-name="m" unicode="m" horiz-adv-x="1562" 
d="M1436 98q45 -26 45 -53q0 -45 -70 -45h-383q-72 0 -72 45q0 27 45 53q52 34 70 74q23 57 23 272v351q0 10 -9 10q-7 0 -10 -8l-268 -594q-15 -37 -47 -37h-76q-20 0 -28.5 6.5t-20.5 30.5l-275 594q-3 8 -10 8q-8 0 -8 -10q0 -339 6 -447q3 -78 25 -133
q19 -47 35.5 -64.5t52.5 -37.5q23 -10 34 -16.5t22 -20t11 -29.5q0 -47 -73 -47h-310q-77 0 -77 45q0 17 12 29.5t32.5 27.5t32.5 31q65 77 68 361v153q1 49 2 95t1.5 69.5t0.5 34.5q0 35 -10 55q-12 19 -47 35q-22 8 -36 14t-27 19.5t-13 29.5q0 48 72 48h305q57 0 78 -41
l239 -514q8 -11 17 0l235 512q21 43 64 43h313q61 0 61 -41q0 -25 -20 -37q-4 -3 -24 -13t-25 -14q-36 -23 -46 -59t-10 -131v-367q0 -152 25 -213q21 -47 68 -74z" />
    <glyph glyph-name="n" unicode="n" horiz-adv-x="1427" 
d="M1188 14q0 -28 -29 -28h-123q-31 0 -53 28l-580 684q-4 4 -8 4q-8 0 -8 -10q0 -212 6 -344q5 -62 16 -104.5t29.5 -68t37 -39.5t46.5 -25q4 -2 17.5 -8.5t18 -8.5t14 -8t12.5 -11t6.5 -12.5t3.5 -15.5q0 -47 -72 -47h-379q-75 0 -75 45q0 25 24 39q4 3 15 8.5t20 9
t10 4.5q56 27 83.5 78.5t33.5 163.5q8 141 8 496q0 21 -12 33q-48 38 -66 47q-9 5 -37.5 17.5t-35.5 16.5q-29 17 -29 43q0 46 70 46h231q55 0 88 -39l571 -674q6 -6 11 -6q8 0 8 10q0 259 -6 364q-6 110 -29 157.5t-72 74.5q-25 8 -51 24q-24 24 -24 41q0 48 75 48h340
q76 0 76 -46q0 -18 -10 -28q-6 -6 -22.5 -15t-31.5 -16l-14 -6q-28 -14 -47 -33q-17 -17 -32.5 -70.5t-16.5 -130.5q-8 -243 -8 -688z" />
    <glyph glyph-name="o" unicode="o" horiz-adv-x="1290" 
d="M340 575q0 -201 90 -335t232 -134q131 0 208.5 103.5t77.5 267.5q0 201 -88 332q-89 133 -229 133q-131 0 -211 -100t-80 -267zM1219 528q0 -227 -164 -391q-165 -160 -410 -160q-261 0 -418 148q-155 146 -155 395q0 223 164 387q165 162 413 162q262 0 416 -151
t154 -390z" />
    <glyph glyph-name="p" unicode="p" horiz-adv-x="1169" 
d="M797 604q41 46 41 117.5t-37 114.5q-31 41 -85 56t-155 15h-74q-18 0 -18 -16v-342q0 -19 18 -19h68q177 0 242 74zM1040 946q95 -80 95 -213q0 -164 -144.5 -253t-390.5 -89h-113q-18 0 -18 -16v-41q0 -105 23 -162q19 -45 69 -74q43 -27 43 -53q0 -45 -69 -45h-381
q-72 0 -72 45q0 27 45 53q52 29 70 74q22 55 22 199v397q0 87 -9.5 119t-45.5 55q-9 6 -25.5 14t-24 13t-14 14.5t-6.5 22.5q0 41 64 41h387q83 0 200 -5q81 -5 162.5 -29t132.5 -67z" />
    <glyph glyph-name="q" unicode="q" horiz-adv-x="1294" 
d="M627 942q-123 0 -205 -99t-82 -270q0 -194 88 -331q89 -136 236 -136q132 0 208 107q78 110 78 268q0 194 -90 328q-89 133 -233 133zM1329 -188q21 0 33 -1t26 -5t20.5 -14t6.5 -25q0 -30 -39 -50l-149 -75q-55 -25 -97 -25q-34 0 -75 21q-54 30 -246 192
q-171 143 -279 160q-212 32 -335 171t-123 353q0 227 164 391q167 164 415 164q265 0 416 -154q154 -154 154 -387q0 -157 -80.5 -286t-222.5 -201q41 -21 163 -109q151 -110 248 -120z" />
    <glyph glyph-name="r" unicode="r" horiz-adv-x="1292" 
d="M489 602h127q199 0 199 166q0 147 -199 147h-127q-22 0 -22 -22v-268q0 -23 22 -23zM1190 113q6 -6 26 -20t31.5 -26.5t7.5 -23.5q0 -43 -65 -43h-133q-81 0 -123 31q-25 18 -49 57l-37 70q-32 58 -53 104q-51 98 -94 142.5t-99 56.5q-45 10 -115 10q-20 0 -20 -22v-68
q0 -148 25 -209q21 -48 67 -74q45 -26 45 -53q0 -45 -72 -45h-374q-76 0 -76 45q0 27 45 53q55 34 70 74q22 68 22 195v387q0 91 -10 129q-9 36 -45 59q-9 6 -25.5 14t-24 13t-14 14.5t-6.5 22.5q0 41 62 41h460h105q221 0 303 -70q84 -69 84 -178q0 -117 -85 -181t-222 -69
q-15 0 -15 -10q0 -8 13 -11q99 -16 149 -57q58 -42 115 -154q87 -172 127 -204z" />
    <glyph glyph-name="s" unicode="s" horiz-adv-x="1081" 
d="M135 369q27 0 43 -13q13 -9 47.5 -51.5t48.5 -56.5q131 -137 293 -137q86 0 146.5 42.5t60.5 102.5q0 48 -36 79t-93.5 46.5t-126.5 28t-138.5 31.5t-127 47.5t-93.5 86t-36 138.5q0 158 139 258q137 98 336 98q163 0 266 -59q55 -30 71.5 -64.5t16.5 -111.5
q0 -111 -69 -111q-27 0 -43.5 13.5t-55.5 62.5q-104 137 -245 137q-77 0 -129 -36.5t-52 -88.5q0 -59 50 -86.5t182 -52.5q141 -26 237 -68q185 -74 185 -262q0 -79 -41.5 -152.5t-118.5 -126.5q-127 -86 -326 -86q-111 0 -233 29q-114 30 -160 70q-65 53 -65 196
q0 97 67 97z" />
    <glyph glyph-name="t" unicode="t" horiz-adv-x="1161" 
d="M1126 995q4 -70 4 -112q0 -21 3 -68q2 -31 2 -59q0 -78 -74 -78q-26 0 -43 15.5t-41 58.5l-12 20q-17 30 -27 43q-23 44 -68 70q-56 35 -145 35q-20 0 -20 -21v-512q0 -165 24 -217q19 -43 70 -72q43 -24 43 -53q0 -45 -68 -45h-387q-70 0 -70 45q0 27 45 53q54 35 70 72
q25 55 25 217v512q0 21 -23 21q-84 0 -143 -35q-15 -9 -55 -49l-27 -41q-1 -3 -12.5 -21.5t-12.5 -21.5q-41 -74 -86 -74q-71 0 -71 78q0 16 2 65.5t2 61.5q0 58 4 112q4 40 23.5 53t64.5 13q32 0 149 -8q132 -6 252 -6h113q118 0 250 6q117 8 151 8q85 0 88 -66z" />
    <glyph glyph-name="u" unicode="u" horiz-adv-x="1384" 
d="M936 1047h340q74 0 74 -46q0 -19 -12 -28.5t-31 -17t-27 -15.5q-49 -21 -71.5 -71t-28.5 -167l-6 -176q-6 -205 -48 -303q-105 -246 -442 -246q-314 0 -434 211q-57 99 -57 342v228q0 94 -9.5 127.5t-46.5 56.5q-4 3 -23.5 12.5t-23.5 12.5q-20 15 -20 37q0 43 61 43h375
q61 0 61 -43q0 -19 -8 -27q-5 -6 -31 -19.5t-28 -15.5q-36 -23 -47 -57.5t-11 -116.5q0 -156 2 -219q3 -195 31 -262q65 -154 260 -154q235 0 287 211q20 73 20 234q0 13 -4 127q-6 112 -28 159.5t-70 69.5q-80 25 -80 63q0 50 76 50z" />
    <glyph glyph-name="v" unicode="v" horiz-adv-x="1286" 
d="M946 1047h277q61 0 61 -39q0 -21 -31 -43q-52 -37 -92 -95q-46 -66 -104 -180l-363 -682q-9 -22 -41 -22h-92q-24 0 -37 22l-356 780q-53 115 -80 142q-25 25 -53 37q-31 15 -31 39q0 41 57 41h369q53 0 53 -37q0 -23 -26 -37q-54 -31 -54 -68q0 -25 23 -86
q60 -144 246 -547q3 -8 8 -8q6 0 12 12q144 280 203 406q74 151 74 211q0 31 -17 43q-8 12 -28 27l-15 8q-24 15 -24 37q0 39 61 39z" />
    <glyph glyph-name="w" unicode="w" horiz-adv-x="1953" 
d="M635 287l278 751q10 23 33 23h148q25 0 32 -23l275 -762q8 -11 16 0l131 353q56 154 56 223q0 37 -13.5 57.5t-50.5 44.5q-37 21 -37 47q0 46 70 46h307q68 0 68 -43q0 -29 -39 -52q-68 -46 -105 -94q-44 -58 -98 -194l-252 -652q-9 -26 -41 -26h-143q-32 0 -41 26
l-264 736q-8 20 -17 -3l-274 -733q-9 -26 -41 -26h-150q-32 0 -41 26l-249 738q-46 131 -80 165q-23 19 -68 41q-37 15 -37 45q0 46 72 46h385q61 0 61 -43q0 -22 -34 -46q-60 -42 -60 -92q0 -34 25 -114l157 -469q3 -13 9 -13q5 0 12 17z" />
    <glyph glyph-name="x" unicode="x" horiz-adv-x="1429" 
d="M1286 111q3 -2 27 -14t30 -17q23 -14 23 -37q0 -43 -61 -43h-428q-64 0 -64 39q0 20 29 43q28 22 28 45q0 34 -75 127q-47 59 -160 190q-11 11 -17 11q-5 0 -16 -11q-128 -165 -164 -247q-10 -27 -10 -41q0 -36 33 -56q3 -2 13 -8l17.5 -10.5t15 -11t10.5 -13.5t1 -14
q0 -43 -63 -43h-322q-67 0 -67 43q0 23 18 37q5 5 25 18.5t24 16.5q107 76 215 211l164 206q10 13 10 23q0 6 -10 23l-147 167q-138 156 -203 191l-58 29q-22 18 -22 39q0 43 61 43h430q64 0 64 -41q0 -12 -7.5 -22.5t-22.5 -22t-17 -13.5q-12 -12 -12 -28q0 -34 75 -127
q10 -13 144 -170q11 -11 16 -11t16 11q128 170 148 227q8 16 8 39q0 39 -45 65q-43 27 -43 50q0 43 64 43h321q68 0 68 -43q0 -18 -21 -39q-3 -3 -25 -17t-24 -16q-90 -61 -213 -211l-149 -189q-11 -18 -11 -22q0 -3 11 -21l165 -188q131 -148 203 -190z" />
    <glyph glyph-name="y" unicode="y" horiz-adv-x="1302" 
d="M909 1047h318q71 0 71 -43q0 -17 -21.5 -33.5t-64.5 -40t-65 -39.5q-60 -44 -133 -131l-246 -301q-6 -9 -6 -27v-94q3 -121 24 -168q19 -36 70 -72q43 -27 43 -53q0 -45 -68 -45h-389q-67 0 -67 45q0 26 43 53q52 34 69 72q22 49 25 168v33q0 24 -8 35l-232 323
q-97 135 -153 180q-18 15 -72 47q-35 21 -35 45q0 46 68 46h407q62 0 62 -41q0 -24 -31 -43q-45 -26 -45 -58q0 -38 51 -106l156 -207q7 -12 14 -11.5t19 13.5q33 40 125 158q80 109 80 147t-44 59q-34 15 -34 46q0 43 69 43z" />
    <glyph glyph-name="z" unicode="z" horiz-adv-x="1212" 
d="M1077 387q70 0 70 -61q0 -15 -17 -95q-4 -17 -12 -71.5t-12 -71.5q-12 -51 -38 -77.5t-85 -26.5q-26 0 -127 8t-233 8h-492q-30 0 -40.5 9t-10.5 38q0 56 5.5 77t25.5 46l632 729q7 7 7 12q0 11 -17 11h-117q-177 0 -245 -39q-63 -34 -119 -142q-34 -63 -78 -63
q-70 0 -70 78q0 40 2 71q3 49 3 60q0 77 2 108q3 66 84 66q32 0 149 -8q135 -6 256 -6h455q35 0 48 -10.5t13 -39.5q0 -82 -41 -129l-618 -712q-11 -15 -11 -19q0 -8 13 -8q159 0 268 16q95 17 151.5 56t114.5 125q40 61 84 61z" />
    <glyph glyph-name="braceleft" unicode="{" horiz-adv-x="770" 
d="M86 541q-35 9 -35 39v49q0 35 35 41q110 23 151.5 74.5t41.5 154.5q0 37 -9 129q-8 84 -8 133q0 185 99.5 274t312.5 95q39 0 39 -31v-67q0 -28 -33 -31q-96 -7 -136 -62.5t-40 -177.5q0 -43 6 -135q8 -81 8 -125q0 -110 -41 -178t-145 -109q-13 -3 -13 -10q0 -5 13 -8
q104 -41 145 -109t41 -178q0 -51 -8 -127q-6 -82 -6 -133q0 -122 40 -177t136 -62q33 -3 33 -33v-66q0 -30 -41 -30q-210 6 -309 94t-99 268q0 42 6 137q9 94 9 131q0 101 -41.5 153.5t-151.5 76.5z" />
    <glyph glyph-name="bar" unicode="|" horiz-adv-x="587" 
d="M350 -395h-112q-27 0 -27 26v2128q0 27 27 27h112q27 0 27 -27v-2128q0 -26 -27 -26z" />
    <glyph glyph-name="braceright" unicode="}" horiz-adv-x="770" 
d="M684 670q35 -9 35 -39v-49q0 -35 -35 -41q-109 -23 -150.5 -75t-41.5 -155q0 -47 8 -131q8 -81 8 -131q0 -185 -99 -273.5t-313 -94.5q-39 0 -39 30v68q0 28 33 31q96 7 136 62t40 177q0 56 -8 135q-6 92 -6 125q0 110 41 178t145 109q13 3 13 10q0 5 -13 8
q-104 41 -145 109t-41 178q0 42 6 125q8 76 8 135q0 122 -40 177.5t-136 62.5q-33 3 -33 33v65q0 31 41 31q210 -6 309 -94.5t99 -268.5q0 -53 -8 -137q-6 -94 -6 -131q0 -101 41 -153t151 -76z" />
    <glyph glyph-name="asciitilde" unicode="~" horiz-adv-x="1300" 
d="M178 446l-61 19q-23 7 -23 24q0 10 6 25q104 291 328 291q90 0 211 -47q215 -84 285 -84q92 0 153 104q16 25 31 25q6 0 22 -4l54 -17q22 -9 22 -22q0 -8 -6 -23q-104 -288 -323 -288q-107 0 -279 69q-151 62 -221 62q-94 0 -152 -113q-13 -25 -26 -25q-5 0 -21 4z" />
    <glyph glyph-name="uni00A0" unicode="&#xa0;" horiz-adv-x="436" 
 />
    <glyph glyph-name="exclamdown" unicode="&#xa1;" horiz-adv-x="716" 
d="M145 930q0 44 70 114t113 70q44 0 114 -70t70 -114q0 -43 -70 -113q-69 -69 -114 -69q-44 0 -113 69q-70 70 -70 113zM424 430q8 -107 37 -324q31 -203 31 -311q0 -105 -46 -151q-36 -39 -116 -39t-119 39q-43 46 -43 149t29 324q30 206 39 313q4 32 4 72l10 55
q8 34 26.5 50t53.5 16q22 0 37 -7t23.5 -16.5t14 -30.5t7.5 -37t5.5 -48.5t6.5 -53.5z" />
    <glyph glyph-name="cent" unicode="&#xa2;" horiz-adv-x="1087" 
d="M971 266q39 0 39 -39q0 -21 -21 -55q-45 -73 -143 -129q-101 -55 -191 -61v-156q0 -23 -22 -23h-74q-22 0 -22 23v154q-153 13 -281 116q-71 57 -113.5 156.5t-42.5 224.5q0 165 77.5 311.5t217.5 231.5q71 39 142 55v180q0 23 22 23h74q22 0 22 -23v-163h31
q183 -3 252 -78q41 -47 41 -140q0 -74 -15.5 -104.5t-58.5 -30.5q-34 0 -55 35l-31 47q-24 42 -45 66q-65 74 -156 74q-87 0 -154.5 -65t-92.5 -173q-13 -67 -13 -127q0 -198 93 -320q95 -120 245 -120q103 0 219 84q36 26 56 26z" />
    <glyph glyph-name="sterling" unicode="&#xa3;" horiz-adv-x="1282" 
d="M1083 305q25 0 39.5 -14.5t14.5 -34.5q0 -12 -5 -30.5t-14.5 -45.5t-11.5 -35q-1 -3 -9 -37t-25 -61.5t-48 -44.5q-45 -25 -135 -25q-72 0 -232 33q-12 2 -84 23l-73 22l-80 25l-70 24q-98 33 -157 33q-36 0 -80 -20q-19 -8 -29 -8q-29 0 -38 23t9 48q45 60 111 94
q27 15 76 15q30 0 77 -6l46 -9q2 0 4 1t5 2t5 2q121 59 121 178q0 52 -29 121h-262q-23 0 -23 22v62q0 22 23 22h197q-109 174 -109 272q0 156 131 238q134 84 293 84q129 0 199 -37q63 -34 63 -143q0 -127 -70 -127q-28 0 -45 10q-10 8 -35.5 47.5t-35.5 50.5
q-65 80 -144 80q-52 0 -89.5 -37.5t-37.5 -93.5q0 -69 60 -166l49 -78q45 -67 61 -100h301q23 0 23 -22v-62q0 -22 -23 -22h-264q6 -27 6 -62q0 -183 -196 -268q-3 -1 -4 -3.5t0.5 -5t5.5 -3.5q179 -37 284 -37q21 0 40.5 3t38.5 7.5t26 5.5q8 1 26 13t19 12l47 39
q33 26 57 26z" />
    <glyph glyph-name="currency" unicode="&#xa4;" horiz-adv-x="1499" 
d="M745 344q104 0 175 74q73 73 73 176q0 106 -73 176q-71 74 -175 74q-103 0 -174 -74q-71 -71 -71 -176q0 -102 71 -176q74 -74 174 -74zM1114 309l232 -231q8 -8 8 -17q0 -6 -8 -14l-52 -51q-16 -16 -32 0l-234 231q-122 -94 -283 -94q-160 0 -282 94l-232 -231
q-16 -16 -32 0l-52 51q-17 17 0 33l232 229q-100 124 -100 285q0 164 100 285l-232 231q-17 16 0 33l50 51q16 16 32 0l234 -233q122 94 282 94q161 0 283 -94l234 233q16 16 32 0l52 -51q16 -17 0 -33l-232 -231q100 -124 100 -285q0 -156 -100 -285z" />
    <glyph glyph-name="yen" unicode="&#xa5;" horiz-adv-x="1470" 
d="M991 1266h275q61 0 61 -37q0 -22 -31 -41q-56 -34 -90 -78q-40 -47 -112 -160l-117 -184q-4 -8 -4 -10q0 -6 10 -6h225q17 0 17 -15v-63q0 -17 -19 -17h-284q-14 0 -23 -12l-76 -119q-6 -9 -6 -12q0 -6 8 -6h381q19 0 19 -14v-64q0 -16 -19 -16h-385q-12 0 -12 -11v-67
q0 -148 20 -187q14 -35 62 -63q37 -21 37 -45q0 -39 -58 -39h-360q-59 0 -59 39q0 25 38 45q45 23 60 63q20 47 20 187v67q0 11 -12 11h-373q-20 0 -20 18v59q0 17 16 17h340q12 0 12 8q0 1 -0.5 2.5l-1.5 4.5t-2 5l-63 117q-9 12 -25 12h-260q-16 0 -16 17v63q0 15 16 15
h211q10 0 10 6q0 1 -0.5 2t-1.5 3.5t-2 4.5l-137 248q-66 117 -86 137q-22 17 -59 39q-29 16 -29 37q0 39 59 39h351q53 0 53 -35q0 -22 -27 -37q-51 -26 -51 -64q0 -28 31 -88q2 -5 69 -131q63 -107 109 -194l53 -96q12 -14 21 2q91 142 190 313q72 129 72 176q0 46 -55 80
q-27 15 -27 37q0 37 57 37z" />
    <glyph glyph-name="brokenbar" unicode="&#xa6;" horiz-adv-x="587" 
d="M350 768h-112q-27 0 -27 27v964q0 27 27 27h112q27 0 27 -27v-964q0 -27 -27 -27zM350 -395h-112q-27 0 -27 26v965q0 27 27 27h112q27 0 27 -27v-965q0 -26 -27 -26z" />
    <glyph glyph-name="section" unicode="&#xa7;" horiz-adv-x="1083" 
d="M719 584q0 70 -59 120t-148 50q-81 0 -141 -45t-60 -113q0 -73 60.5 -121.5t146.5 -48.5q85 0 143 45.5t58 112.5zM684 322q82 -42 135 -89q109 -100 109 -245q0 -167 -135 -275q-132 -108 -322 -108q-103 0 -197 31t-139 79q-47 53 -47 187q0 64 16 88t54 24
q26 0 39 -11.5t32 -47.5q14 -25 64 -100q34 -45 89.5 -79t115.5 -34q86 0 144 51t58 125q0 85 -79 137q-40 25 -132 62q-234 96 -315 196q-72 90 -72 203q0 100 62 189.5t160 132.5q6 2 6 6t-6 6q-84 41 -131 100q-78 90 -78 213q0 163 125 264q127 103 295 103
q136 0 249 -64q49 -28 66.5 -70.5t17.5 -119.5q0 -67 -12.5 -92t-44.5 -25q-42 0 -76 58q-58 97 -105.5 136.5t-121.5 39.5q-76 0 -127 -42.5t-51 -109.5q0 -65 48.5 -109.5t158.5 -87.5q101 -39 168 -75t118.5 -82t75 -102.5t23.5 -129.5q0 -147 -113 -241
q-68 -56 -123 -78q-8 -3 -8 -8q0 -3 6 -6z" />
    <glyph glyph-name="dieresis" unicode="&#xa8;" horiz-adv-x="1110" 
d="M846 1440q20 -20 20 -94q0 -73 -20 -93q-28 -22 -94 -22q-69 0 -92 23t-23 92q0 66 22 94q20 20 93 20q74 0 94 -20zM451 1440q22 -28 22 -94q0 -71 -22 -93q-28 -22 -95 -22q-69 0 -91.5 23t-22.5 92q0 66 22 94q20 20 94 20q73 0 93 -20z" />
    <glyph glyph-name="copyright" unicode="&#xa9;" horiz-adv-x="1873" 
d="M481 1192q-188 -191 -188 -459q0 -267 188 -461q190 -190 457 -190q268 0 455 190q190 193 190 461q0 269 -190 459q-187 190 -455 190q-267 0 -457 -190zM182 733q0 312 221 533q226 221 535 221q311 0 532 -221q222 -222 222 -533q0 -312 -222 -534t-532 -222
q-308 0 -535 222q-221 221 -221 534zM1120 467q25 22 72 108q21 39 33 50.5t35 11.5q29 0 40 -18t11 -62q0 -139 -62 -186q-77 -56 -258 -56q-219 0 -350 119q-133 121 -133 305q0 188 145 312q143 125 361 125q136 0 221 -43q37 -19 48 -54t11 -114q0 -95 -49 -95
q-25 0 -36.5 9.5t-30.5 44.5q-47 88 -82 112q-48 39 -121 39q-113 0 -185.5 -89t-72.5 -230q0 -150 78 -246q79 -94 190 -94q84 0 135 51z" />
    <glyph glyph-name="ordfeminine" unicode="&#xaa;" horiz-adv-x="837" 
d="M487 1083v21q0 4 -1.5 5.5t-4.5 0.5t-6 -4q-16 -13 -76 -41q-50 -22 -82 -43q-51 -36 -51 -92q0 -38 25.5 -62t64.5 -24q76 0 111 71q20 39 20 168zM786 799q0 -21 -14 -41q-40 -58 -119 -58q-103 0 -137 117q-3 6 -6 6t-6 -6q-33 -52 -93 -84.5t-128 -32.5
q-95 0 -164.5 57.5t-69.5 145.5q0 103 94 164q39 26 129 61q95 37 103 41q114 53 114 121q0 42 -26.5 66t-73.5 24q-55 0 -98 -37q-15 -11 -84 -102q-21 -24 -49 -24q-38 0 -52 19t-14 73q0 69 27 104q59 74 268 74q153 0 230 -69.5t77 -221.5q0 -9 -4 -149q-2 -70 -2 -146
q0 -70 64 -70q34 0 34 -32zM489 498q23 -30 23 -95q0 -69 -23 -92q-28 -22 -94 -22q-69 0 -91.5 22.5t-22.5 91.5q0 67 22 95q20 20 94 20q72 0 92 -20z" />
    <glyph glyph-name="guillemotleft" unicode="&#xab;" horiz-adv-x="1099" 
d="M956 248v-131q0 -15 -8 -15q-5 0 -12 7l-516 454q-12 12 -12 20.5t12 20.5l516 455q4 4 10 4q10 0 10 -12v-129q0 -31 -20 -48l-324 -282q-8 -8 0 -17l326 -284q18 -15 18 -43zM541 248v-131q0 -13 -11 -13q-5 0 -10 5l-432 380q-14 14 -14 33v123q0 21 14 35l430 379
q4 4 10 4q13 0 13 -12v-129q0 -25 -23 -48l-323 -282q-9 -8 0 -17l325 -284q21 -18 21 -43z" />
    <glyph glyph-name="logicalnot" unicode="&#xac;" horiz-adv-x="1626" 
d="M131 1069h1284v-635h-166v469h-1118v166z" />
    <glyph glyph-name="registered" unicode="&#xae;" horiz-adv-x="1081" 
d="M532 569q173 0 293 123q121 124 121 297q0 174 -123 297q-119 125 -291 125q-170 0 -292 -125q-121 -124 -121 -297t121 -297q123 -123 292 -123zM180 637q-145 145 -145 352t145 352q149 146 352 146q205 0 351 -146q147 -144 147 -352t-147 -352q-145 -145 -351 -145
q-204 0 -352 145zM471 1036h47q103 0 103 86q0 76 -103 76h-47q-12 0 -12 -12v-139q0 -11 12 -11zM813 770q3 -3 13 -11t15 -14t5 -12q0 -22 -33 -22h-76q-43 0 -63 20q-16 16 -68 123q-42 86 -84 100q-21 7 -53 7q-10 0 -10 -11v-47q0 -75 9.5 -101t37.5 -40q22 -13 22 -27
q0 -24 -36 -24h-195q-35 0 -35 24q0 14 23 27q25 13 34 39q11 29 11 98v248q0 55 -29 74l-8 4l-10 5t-9.5 6t-6 7t0.5 8q0 23 31 23h264q203 0 203 -137q0 -114 -145 -129q-7 0 -7 -7q0 -4 4 -4q45 -8 74.5 -33.5t59.5 -86.5q44 -90 61 -107z" />
    <glyph glyph-name="overscore" unicode="&#xaf;" horiz-adv-x="1196" 
d="M242 1350v90q0 22 22 22h668q22 0 22 -22v-90q0 -23 -22 -23h-668q-22 0 -22 23z" />
    <glyph glyph-name="degree" unicode="&#xb0;" horiz-adv-x="579" 
d="M283 1161q54 0 92.5 39t38.5 94t-38.5 94t-92.5 39q-55 0 -94 -38.5t-39 -94.5t39 -94.5t94 -38.5zM43 1294q0 99 70 166q70 70 170 70q98 0 167.5 -69t69.5 -167q0 -97 -69 -166t-168 -69q-101 0 -170 69q-70 70 -70 166z" />
    <glyph glyph-name="plusminus" unicode="&#xb1;" horiz-adv-x="1382" 
d="M1186 868v-82q0 -26 -27 -26h-383q-14 0 -14 -12v-361q0 -27 -27 -27h-88q-26 0 -26 27v361q0 12 -15 12h-383q-26 0 -26 26v82q0 27 26 27h383q15 0 15 12v361q0 26 26 26h88q27 0 27 -26v-361q0 -12 14 -12h383q27 0 27 -27zM197 156v82q0 26 26 26h936q27 0 27 -26
v-82q0 -27 -27 -27h-936q-26 0 -26 27z" />
    <glyph glyph-name="twosuperior" unicode="&#xb2;" horiz-adv-x="706" 
d="M119 1794q59 59 211 59q145 0 227 -73q66 -60 66 -146q0 -89 -74 -151q-49 -40 -156 -80q-103 -37 -141 -64q-39 -26 -39 -49q0 -14 16 -14h156q90 0 117 6q30 6 53 29q26 26 47 26q37 0 37 -41q0 -14 -12 -79q-3 -11 -6 -32.5t-7 -36.5t-10 -24q-16 -39 -84 -39
q-3 0 -60 3.5t-91 3.5h-238q-43 0 -55.5 21t-12.5 67q0 138 105 227q45 35 92 63q61 34 80 50q72 57 72 129q0 44 -25 74t-63 30q-49 0 -82 -39q-15 -19 -56 -88q-21 -37 -53 -37q-49 0 -49 90q0 80 35 115z" />
    <glyph glyph-name="threesuperior" unicode="&#xb3;" horiz-adv-x="727" 
d="M588 1432q69 -48 69 -134q0 -99 -96 -165q-94 -64 -235 -64q-185 0 -242 78q-23 38 -23 113q0 86 52 86q26 0 47 -35q52 -79 63 -90q50 -50 111 -50q51 0 83 35t32 99q0 122 -123 122q-12 0 -41 -3t-37 -3q-43 0 -43 33v53q0 33 39 33q5 0 37 -4t47 -4q96 3 96 117
q0 47 -26.5 74.5t-69.5 27.5q-38 0 -66 -22q-33 -21 -69 -89q-27 -49 -60 -49q-49 0 -49 97q0 85 45 114q83 53 219 53q131 0 217 -65q66 -54 66 -125q0 -62 -49.5 -109t-139.5 -65q-6 0 -6 -6t6 -6q96 -12 146 -47z" />
    <glyph glyph-name="acute" unicode="&#xb4;" horiz-adv-x="966" 
d="M750 1454l-299 -190q-42 -25 -91 -25h-137q-18 0 -18 12q0 7 6 13l190 190q29 33 86 33h246q27 0 27 -17q0 -9 -10 -16z" />
    <glyph glyph-name="mu" unicode="&#xb5;" horiz-adv-x="1591" 
d="M676 1040l-129 -630q-21 -95 -21 -152q0 -108 82 -108q146 0 287 258q108 193 166 456l37 168q6 31 43 37l176 23q10 2 24 2q25 0 25 -23q0 -1 -0.5 -4t-1.5 -8.5t-2 -11.5l-133 -650q-29 -148 -29 -180q0 -55 39 -55q20 0 59 28l21 15q18 12 35 12q14 0 25.5 -11
t11.5 -24q0 -42 -72 -108q-108 -97 -215 -97q-162 0 -162 175q0 38 10 96q5 24 -6 24q-5 0 -10 -8q-201 -287 -412 -287q-112 0 -168 74q-6 6 -8 6q-3 0 -6 -8q-36 -159 -39 -180q-7 -38 -11.5 -89.5t-8 -86t-9.5 -45.5q-21 -43 -98 -43q-90 0 -90 61q0 23 6 47q5 15 26 73
t29 85q75 249 142 567l119 592q6 31 47 37l174 23q10 2 26 2q25 0 25 -25q0 -7 -4 -27z" />
    <glyph glyph-name="paragraph" unicode="&#xb6;" horiz-adv-x="1425" 
d="M653 735h9q26 0 26 23v551q0 18 -29 18q-132 0 -223 -82q-90 -84 -90 -211q0 -130 85.5 -212t221.5 -87zM793 1462h436q67 0 67 -53q0 -33 -59 -61q-42 -25 -51 -62q-10 -42 -10 -141v-1317q0 -25 -27 -25h-96q-25 0 -25 25v1466q0 35 -39 35h-131q-22 0 -22 -22v-1479
q0 -25 -27 -25h-98q-23 0 -23 25v741q0 19 -6.5 25t-26.5 6q-406 9 -530 231q-49 82 -49 197q0 176 121 291q92 85 228.5 114t367.5 29z" />
    <glyph glyph-name="middot" unicode="&#xb7;" horiz-adv-x="606" 
d="M485 616q0 -43 -69 -112q-67 -70 -113 -70q-45 0 -115 70q-67 70 -67 112q0 43 67 113q70 70 115 70q46 0 113 -70q69 -66 69 -113z" />
    <glyph glyph-name="cedilla" unicode="&#xb8;" horiz-adv-x="911" 
d="M362 0h121q-57 -48 -57 -80q0 -17 20 -26q16 -5 67 -15.5t67 -15.5q88 -27 88 -105q0 -80 -109 -127q-62 -26 -145 -26q-90 0 -146 30q-24 15 -24 35q0 37 41 37q7 0 47.5 -8t58.5 -8q40 0 66 16q24 18 24 43q0 34 -49 49q-9 3 -35 10.5t-48.5 15t-33.5 15.5
q-20 14 -20 39q0 51 67 121z" />
    <glyph glyph-name="onesuperior" unicode="&#xb9;" horiz-adv-x="550" 
d="M395 1808v-682q0 -34 -35 -34h-120q-35 0 -35 34v484q0 71 -8 84q-10 16 -39 16q-8 0 -41 -2t-37 -2q-28 0 -37 10t-10 49q0 30 26 39q10 2 54.5 7.5t54.5 7.5q19 2 98 20q69 16 82 16q47 0 47 -47z" />
    <glyph glyph-name="ordmasculine" unicode="&#xba;" horiz-adv-x="919" 
d="M629 1055q0 147 -50 235t-130 88q-75 0 -117.5 -63.5t-42.5 -175.5q0 -142 51.5 -235t134.5 -93q72 0 113 68t41 176zM467 1487q170 0 272 -111q103 -109 103 -278q0 -166 -111 -283q-109 -115 -274 -115q-168 0 -275 107q-104 107 -104 280q0 166 112 281
q113 119 277 119zM555 498q23 -30 23 -95q0 -69 -23 -92q-28 -22 -94 -22q-69 0 -92 22.5t-23 91.5q0 65 23 95q20 20 94 20q72 0 92 -20z" />
    <glyph glyph-name="guillemotright" unicode="&#xbb;" horiz-adv-x="1099" 
d="M143 918v131q0 14 9 14q6 0 12 -6l516 -455q12 -12 12 -20.5t-12 -20.5l-516 -455q-4 -4 -10 -4q-11 0 -11 13v129q0 29 21 47l323 282q9 9 0 17l-325 284q-19 16 -19 44zM559 918v131q0 12 10 12q7 0 11 -4l432 -381q14 -14 14 -33v-123q0 -21 -14 -35l-430 -379
q-4 -4 -11 -4q-12 0 -12 13v129q0 24 23 47l323 282q9 9 0 17l-325 284q-21 18 -21 44z" />
    <glyph glyph-name="onequarter" unicode="&#xbc;" horiz-adv-x="1540" 
d="M1364 291h66q28 0 28 -25v-78q0 -26 -26 -26h-68q-18 0 -18 -17v-118q0 -27 -27 -27h-137q-27 0 -27 27v118q0 17 -18 17h-314q-30 0 -30 31v96q0 35 24 59q90 89 129.5 176.5t40.5 214.5q0 23 27 23h125q24 0 24 -23q0 -249 -223 -432q-6 -6 -6 -10q0 -6 8 -6h195
q18 0 18 18v287q0 27 27 27h135q29 0 29 -27v-287q0 -18 18 -18zM258 197l819 1069h158l-817 -1069h-160zM512 1440v-682q0 -35 -35 -35h-121q-34 0 -34 35v483q0 69 -9 84q-10 16 -39 16q-8 0 -40 -2t-37 -2q-28 0 -37 10t-10 50q0 30 26 39q10 2 54.5 7t54.5 7q19 2 98 20
q73 17 82 17q47 0 47 -47z" />
    <glyph glyph-name="onehalf" unicode="&#xbd;" horiz-adv-x="1552" 
d="M227 197l820 1069h157l-817 -1069h-160zM512 1444v-682q0 -35 -35 -35h-121q-34 0 -34 35v483q0 69 -9 84q-10 17 -39 17q-8 0 -40 -2.5t-37 -2.5q-28 0 -37 10t-10 50q0 30 26 39q10 2 54.5 7t54.5 7q12 1 98 21q69 16 82 16q47 0 47 -47zM940 702q60 60 211 60
q144 0 227 -74q66 -60 66 -145q0 -90 -74 -152q-49 -40 -156 -80q-106 -38 -141 -63q-39 -26 -39 -49q0 -15 17 -15h155q90 0 117 6q30 6 53 29q27 27 47 27q37 0 37 -41q0 -15 -12 -80q-3 -11 -6 -32.5t-7 -36t-10 -23.5q-16 -39 -84 -39q-3 0 -60 3t-91 3h-238
q-43 0 -55 20.5t-12 67.5q0 139 104 227q51 40 92 64q65 36 80 49q72 57 72 129q0 45 -25 75t-63 30q-49 0 -82 -39q-11 -14 -55 -88q-21 -37 -54 -37q-49 0 -49 90q0 79 35 114z" />
    <glyph glyph-name="threequarters" unicode="&#xbe;" horiz-adv-x="1619" 
d="M1444 291h65q29 0 29 -25v-78q0 -26 -27 -26h-67q-19 0 -19 -17v-118q0 -27 -26 -27h-137q-27 0 -27 27v118q0 17 -18 17h-314q-31 0 -31 31v96q0 34 25 59q90 89 129.5 176.5t40.5 214.5q0 23 27 23h125q24 0 24 -23q0 -249 -223 -432q-6 -6 -6 -10q0 -6 8 -6h195
q18 0 18 18v287q0 27 27 27h135q28 0 28 -27v-287q0 -18 19 -18zM362 197l820 1069h157l-817 -1069h-160zM649 1063q70 -49 70 -133q0 -100 -96 -166q-94 -64 -236 -64q-185 0 -242 78q-22 36 -22 113q0 86 51 86q26 0 47 -35q50 -76 64 -90q49 -49 110 -49q51 0 83 34.5
t32 98.5q0 123 -123 123q-12 0 -41 -3t-37 -3q-43 0 -43 32v54q0 32 39 32q5 0 37 -4t47 -4q96 3 96 117q0 47 -26.5 74.5t-69.5 27.5q-37 0 -65 -22q-35 -22 -70 -88q-27 -49 -59 -49q-50 0 -50 96q0 86 45 115q83 53 220 53q130 0 217 -66q65 -53 65 -125q0 -62 -49 -109
t-139 -65q-6 0 -6 -6t6 -6q95 -12 145 -47z" />
    <glyph glyph-name="questiondown" unicode="&#xbf;" horiz-adv-x="1097" 
d="M223 260q45 33 144 82q66 32 133 70q82 52 82 110q0 48 -64 66q-41 12 -41 41q0 61 139 61q84 0 128 -35.5t44 -99.5q0 -81 -79 -160q-16 -16 -119 -98q-92 -73 -135 -119q-86 -95 -86 -201q0 -103 56.5 -171t156.5 -68q89 0 146.5 50.5t57.5 119.5q0 63 -73 90
q-1 0 -9 2.5t-17.5 5.5t-12.5 4q-29 12 -29 43q0 46 50.5 80.5t113.5 34.5q87 0 142 -58.5t55 -154.5q0 -139 -129 -244q-124 -106 -334 -106q-223 0 -344 112q-121 115 -121 256q0 175 145 287zM803 932q0 -45 -70 -115q-69 -69 -115 -69q-45 0 -114 69q-68 71 -68 115
q0 41 68 112q70 70 114 70q45 0 115 -70t70 -112z" />
    <glyph glyph-name="Agrave" unicode="&#xc0;" horiz-adv-x="1517" 
d="M707 1126l-203 -483q-12 -27 -12 -33q0 -12 18 -12h391q17 0 17 10q0 1 -1 3.5t-2 6.5t-2 7l-190 501q-1 6 -8 6t-8 -6zM1483 88q33 -17 33 -43q0 -45 -68 -45h-401q-62 0 -62 41q0 24 31 43q34 20 45 31q18 18 18 43q0 35 -26 100l-66 172q-12 31 -49 31h-489
q-24 0 -33 -27q-68 -165 -68 -241q0 -27 10 -50q6 -13 15 -23.5t15.5 -15t18.5 -11.5t15 -9q27 -18 27 -41q0 -43 -70 -43h-313q-70 0 -70 45q0 23 35 47q64 46 104 107q42 61 96 180l478 1071q13 29 39 29h100q30 0 39 -27q430 -1128 444 -1159q55 -131 90 -166
q15 -15 62 -39zM829 1647l-309 190q-12 9 -12 16q0 17 27 17h245q55 0 86 -31l203 -192q6 -6 6 -13q0 -12 -18 -12h-137q-49 0 -91 25z" />
    <glyph glyph-name="Aacute" unicode="&#xc1;" horiz-adv-x="1517" 
d="M1057 1837l-299 -190q-42 -25 -90 -25h-138q-18 0 -18 12q0 7 10 17l187 186q29 33 86 33h245q27 0 27 -17q0 -9 -10 -16zM707 1126l-203 -483q-12 -27 -12 -33q0 -12 18 -12h391q17 0 17 10q0 1 -1 3.5t-2 6.5t-2 7l-190 501q-1 6 -8 6t-8 -6zM1483 88q33 -17 33 -43
q0 -45 -68 -45h-401q-62 0 -62 41q0 24 31 43q34 20 45 31q18 18 18 43q0 35 -26 100l-66 172q-12 31 -49 31h-489q-24 0 -33 -27q-68 -165 -68 -241q0 -27 10 -50q6 -13 15 -23.5t15.5 -15t18.5 -11.5t15 -9q27 -18 27 -41q0 -43 -70 -43h-313q-70 0 -70 45q0 23 35 47
q64 46 104 107q42 61 96 180l478 1071q13 29 39 29h100q30 0 39 -27q430 -1128 444 -1159q55 -131 90 -166q15 -15 62 -39z" />
    <glyph glyph-name="Acircumflex" unicode="&#xc2;" horiz-adv-x="1517" 
d="M707 1126l-203 -483q-12 -27 -12 -33q0 -12 18 -12h391q17 0 17 10q0 1 -1 3.5t-2 6.5t-2 7l-190 501q-1 6 -8 6t-8 -6zM1483 88q33 -17 33 -43q0 -45 -68 -45h-401q-62 0 -62 41q0 24 31 43q34 20 45 31q18 18 18 43q0 35 -26 100l-66 172q-12 31 -49 31h-489
q-24 0 -33 -27q-68 -165 -68 -241q0 -27 10 -50q6 -13 15 -23.5t15.5 -15t18.5 -11.5t15 -9q27 -18 27 -41q0 -43 -70 -43h-313q-70 0 -70 45q0 23 35 47q64 46 104 107q42 61 96 180l478 1071q13 29 39 29h100q30 0 39 -27q430 -1128 444 -1159q55 -131 90 -166
q15 -15 62 -39zM600 1612h-100q-13 0 -13 8q0 1 3 5t11.5 14.5t16.5 21.5l154 188q18 21 43 21h159q26 0 41 -21l170 -207q17 -20 17 -22q0 -8 -12 -8h-103q-21 0 -37 16l-149 139q-7 7 -13 0l-151 -141q-14 -14 -37 -14z" />
    <glyph glyph-name="Atilde" unicode="&#xc3;" horiz-adv-x="1517" 
d="M707 1126l-203 -483q-12 -27 -12 -33q0 -12 18 -12h391q17 0 17 10q0 1 -1 3.5t-2 6.5t-2 7l-190 501q-1 6 -8 6t-8 -6zM1483 88q33 -17 33 -43q0 -45 -68 -45h-401q-62 0 -62 41q0 24 31 43q34 20 45 31q18 18 18 43q0 35 -26 100l-66 172q-12 31 -49 31h-489
q-24 0 -33 -27q-68 -165 -68 -241q0 -27 10 -50q6 -13 15 -23.5t15.5 -15t18.5 -11.5t15 -9q27 -18 27 -41q0 -43 -70 -43h-313q-70 0 -70 45q0 23 35 47q64 46 104 107q42 61 96 180l478 1071q13 29 39 29h100q30 0 39 -27q430 -1128 444 -1159q55 -131 90 -166
q15 -15 62 -39zM487 1616l-36 12q-15 6 -15 19q0 19 29 75q65 127 188 127q67 0 144 -32q127 -50 170 -50q57 0 98 66q8 14 20 14q1 0 3.5 -0.5t7 -1.5t8.5 -2l29 -8q16 -3 16 -18q0 -14 -25 -66q-68 -135 -190 -135q-64 0 -174 43q-98 39 -142 39q-57 0 -92 -68
q-9 -18 -22 -18q-1 0 -17 4z" />
    <glyph glyph-name="Adieresis" unicode="&#xc4;" horiz-adv-x="1517" 
d="M707 1126l-203 -483q-12 -27 -12 -33q0 -12 18 -12h391q17 0 17 10q0 1 -1 3.5t-2 6.5t-2 7l-190 501q-1 6 -8 6t-8 -6zM1483 88q33 -17 33 -43q0 -45 -68 -45h-401q-62 0 -62 41q0 24 31 43q34 20 45 31q18 18 18 43q0 35 -26 100l-66 172q-12 31 -49 31h-489
q-24 0 -33 -27q-68 -165 -68 -241q0 -27 10 -50q6 -13 15 -23.5t15.5 -15t18.5 -11.5t15 -9q27 -18 27 -41q0 -43 -70 -43h-313q-70 0 -70 45q0 23 35 47q64 46 104 107q42 61 96 180l478 1071q13 29 39 29h100q30 0 39 -27q430 -1128 444 -1159q55 -131 90 -166
q15 -15 62 -39zM1085 1808q21 -21 21 -94q0 -71 -21 -92q-30 -23 -94 -23q-69 0 -91.5 23t-22.5 92q0 66 22 94q21 21 92 21q73 0 94 -21zM690 1808q23 -30 23 -94q0 -69 -23 -92q-30 -23 -94 -23q-69 0 -92 23t-23 92q0 64 23 94q21 21 94 21q71 0 92 -21z" />
    <glyph glyph-name="Aring" unicode="&#xc5;" horiz-adv-x="1517" 
d="M707 1126l-203 -483q-12 -27 -12 -33q0 -12 18 -12h391q17 0 17 10q0 1 -1 3.5t-2 6.5t-2 7l-190 501q-1 6 -8 6t-8 -6zM1483 88q33 -17 33 -43q0 -45 -68 -45h-401q-62 0 -62 41q0 24 31 43q34 20 45 31q18 18 18 43q0 35 -26 100l-66 172q-12 31 -49 31h-489
q-24 0 -33 -27q-68 -165 -68 -241q0 -27 10 -50q6 -13 15 -23.5t15.5 -15t18.5 -11.5t15 -9q27 -18 27 -41q0 -43 -70 -43h-313q-70 0 -70 45q0 23 35 47q64 46 104 107q42 61 96 180l478 1071q13 29 39 29h100q30 0 39 -27q430 -1128 444 -1159q55 -131 90 -166
q15 -15 62 -39zM725 1753q-26 -29 -26 -69.5t26 -69.5q29 -26 70 -26t67 26q29 29 29 69.5t-29 69.5q-26 29 -67 29t-70 -29zM662 1554q-54 54 -54 129t54 129q56 56 133 56t131 -56q56 -54 56 -129t-56 -129q-54 -54 -131 -54t-133 54z" />
    <glyph glyph-name="AE" unicode="&#xc6;" horiz-adv-x="2105" 
d="M553 594h428q18 0 18 20v625q0 12 -8 12q-7 0 -12 -8l-434 -631q-1 -2 -2 -4.5t-1.5 -3.5t-0.5 -2q0 -8 12 -8zM1964 428q70 0 70 -68q0 -12 -11 -61q-12 -56 -22 -117q-13 -83 -28 -124t-44 -60q-26 -16 -67 -16q-23 0 -127 8t-238 8h-563q-72 0 -72 45q0 28 45 51
q49 26 70 74q22 55 22 149v121q0 19 -20 19h-516q-19 0 -29 -13q-103 -156 -135 -231q-14 -28 -14 -57q0 -38 32 -60q2 -2 21.5 -13t29 -21t5.5 -21q0 -43 -64 -43h-329q-66 0 -66 41q0 11 3 19t11 16t13.5 12.5t20.5 14t22 14.5q79 51 166 178l673 969q23 38 23 47
q0 20 -22.5 33t-63.5 26q-39 14 -39 45q0 47 65 47h689q128 0 260 6q132 9 147 9q81 0 84 -66q2 -31 2 -143q0 -15 3 -71t3 -73q0 -41 -16.5 -57t-54.5 -16q-26 0 -42.5 15t-33.5 58q-6 16 -16 37t-11 23q-8 22 -35 52t-57 48q-36 22 -94 31q-65 10 -111 10q-35 2 -157 2
h-23q-29 0 -39 -10.5t-10 -40.5v-383q0 -31 11.5 -43t41.5 -12h49q2 0 154 4l110 8q64 6 86 6q66 0 66 -43q0 -1 -6 -45v-4q0 -17 -0.5 -26.5t-6.5 -23t-18 -20.5q-20 -14 -82 -14q-42 0 -141 6q-95 6 -149 6q-70 0 -86 -2q-29 -3 -29 -29v-301q2 -29 3 -62t0.5 -49t3 -36.5
t4.5 -28t11 -18t17 -13t27.5 -7t37.5 -6t52 -3.5q98 0 169 15q99 20 156 65q57 48 119 143q46 70 90 70z" />
    <glyph glyph-name="Ccedilla" unicode="&#xc7;" horiz-adv-x="1406" 
d="M1059 225q45 48 102 142q26 43 44.5 58t43.5 15q42 0 58 -26t16 -88v-15q-1 -97 -21.5 -150t-68.5 -89q-58 -42 -168 -68.5t-231 -26.5h-13q-33 -33 -33 -57q0 -17 21 -26q15 -5 66 -15.5t67 -15.5q88 -27 88 -105q0 -80 -108 -127q-62 -26 -146 -26q-90 0 -145 30
q-25 16 -25 35q0 37 41 37q7 0 48 -8t59 -8q39 0 65 16q25 19 25 43q0 34 -49 49q-9 3 -35 10.5t-48.5 15t-33.5 15.5q-21 15 -21 39q0 42 56 107q-204 28 -348 139q-145 110 -218 264.5t-73 335.5q0 146 51.5 281t148.5 241q99 112 253 176t339 64q225 0 346 -74
q61 -39 72 -76q14 -35 14 -123v-20q0 -79 -14 -109t-55 -30q-31 0 -48 12.5t-38 48.5l-39 62q-48 70 -98 106q-83 62 -193 62q-190 0 -315 -168q-123 -169 -123 -424q0 -54 2 -68q18 -271 149 -414t303 -143q137 0 230 96z" />
    <glyph glyph-name="Egrave" unicode="&#xc8;" horiz-adv-x="1329" 
d="M1219 424q38 -14 38 -59q0 -12 -10 -64q-12 -56 -22 -117q-13 -83 -28 -124t-44 -60q-26 -16 -68 -16q-26 0 -127 8t-237 8h-563q-72 0 -72 45q0 27 45 53q49 26 70 74q24 58 24 211v793q0 65 -2 81q-4 67 -57 101q-4 3 -22.5 12t-22.5 12q-21 16 -21 37q0 43 62 43h536
q137 0 275 6q141 9 143 9q71 0 74 -66q2 -23 2 -141q0 -37 2 -76q1 -14 2 -33t1.5 -29t0.5 -16q0 -65 -65 -65q-35 0 -50.5 14t-38.5 65q-12 35 -26 58q-9 24 -32.5 51t-53.5 45q-73 43 -295 43h-90q-28 0 -38.5 -11t-10.5 -38v-387q0 -33 19.5 -43t70.5 -10h12q78 0 154 6
q182 12 194 12q68 0 68 -45q0 -5 -4 -41q0 -17 -6 -41q0 -18 -21 -33q-20 -14 -82 -14q-13 0 -123 4q-82 6 -147 6q-87 0 -107 -2q-28 -3 -28 -28v-330q0 -90 7.5 -125.5t31.5 -52.5q31 -17 116 -17q105 0 172 15q103 22 152 65q62 52 121 145q47 68 88 68q18 0 33 -6z
M688 1647l-309 190q-12 9 -12 16q0 17 26 17h246q55 0 86 -31l203 -192q6 -6 6 -13q0 -12 -19 -12h-137q-48 0 -90 25z" />
    <glyph glyph-name="Eacute" unicode="&#xc9;" horiz-adv-x="1329" 
d="M946 1837l-299 -190q-42 -25 -90 -25h-137q-19 0 -19 12q0 6 11 17l186 186q29 33 86 33h246q26 0 26 -17q0 -9 -10 -16zM1219 424q38 -14 38 -59q0 -12 -10 -64q-12 -56 -22 -117q-13 -83 -28 -124t-44 -60q-26 -16 -68 -16q-26 0 -127 8t-237 8h-563q-72 0 -72 45
q0 27 45 53q49 26 70 74q24 58 24 211v793q0 65 -2 81q-4 67 -57 101q-4 3 -22.5 12t-22.5 12q-21 16 -21 37q0 43 62 43h536q137 0 275 6q141 9 143 9q71 0 74 -66q2 -23 2 -141q0 -37 2 -76q1 -14 2 -33t1.5 -29t0.5 -16q0 -65 -65 -65q-35 0 -50.5 14t-38.5 65
q-12 35 -26 58q-9 24 -32.5 51t-53.5 45q-73 43 -295 43h-90q-28 0 -38.5 -11t-10.5 -38v-387q0 -33 19.5 -43t70.5 -10h12q78 0 154 6q182 12 194 12q68 0 68 -45q0 -5 -4 -41q0 -17 -6 -41q0 -18 -21 -33q-20 -14 -82 -14q-13 0 -123 4q-82 6 -147 6q-87 0 -107 -2
q-28 -3 -28 -28v-330q0 -90 7.5 -125.5t31.5 -52.5q31 -17 116 -17q105 0 172 15q103 22 152 65q62 52 121 145q47 68 88 68q18 0 33 -6z" />
    <glyph glyph-name="Ecircumflex" unicode="&#xca;" horiz-adv-x="1329" 
d="M1219 424q38 -14 38 -59q0 -12 -10 -64q-12 -56 -22 -117q-13 -83 -28 -124t-44 -60q-26 -16 -68 -16q-26 0 -127 8t-237 8h-563q-72 0 -72 45q0 27 45 53q49 26 70 74q24 58 24 211v793q0 65 -2 81q-4 67 -57 101q-4 3 -22.5 12t-22.5 12q-21 16 -21 37q0 43 62 43h536
q137 0 275 6q141 9 143 9q71 0 74 -66q2 -23 2 -141q0 -37 2 -76q1 -14 2 -33t1.5 -29t0.5 -16q0 -65 -65 -65q-35 0 -50.5 14t-38.5 65q-12 35 -26 58q-9 24 -32.5 51t-53.5 45q-73 43 -295 43h-90q-28 0 -38.5 -11t-10.5 -38v-387q0 -33 19.5 -43t70.5 -10h12q78 0 154 6
q182 12 194 12q68 0 68 -45q0 -5 -4 -41q0 -17 -6 -41q0 -18 -21 -33q-20 -14 -82 -14q-13 0 -123 4q-82 6 -147 6q-87 0 -107 -2q-28 -3 -28 -28v-330q0 -90 7.5 -125.5t31.5 -52.5q31 -17 116 -17q105 0 172 15q103 22 152 65q62 52 121 145q47 68 88 68q18 0 33 -6z
M467 1612h-100q-13 0 -13 8q0 1 3 5t11.5 14.5t16.5 21.5l154 188q18 21 43 21h159q26 0 41 -21l170 -207q17 -20 17 -22q0 -8 -13 -8h-102q-21 0 -37 16l-149 139q-6 7 -13 0l-151 -141q-14 -14 -37 -14z" />
    <glyph glyph-name="Edieresis" unicode="&#xcb;" horiz-adv-x="1329" 
d="M1219 424q38 -14 38 -59q0 -12 -10 -64q-12 -56 -22 -117q-13 -83 -28 -124t-44 -60q-26 -16 -68 -16q-26 0 -127 8t-237 8h-563q-72 0 -72 45q0 27 45 53q49 26 70 74q24 58 24 211v793q0 65 -2 81q-4 67 -57 101q-4 3 -22.5 12t-22.5 12q-21 16 -21 37q0 43 62 43h536
q137 0 275 6q141 9 143 9q71 0 74 -66q2 -23 2 -141q0 -37 2 -76q1 -14 2 -33t1.5 -29t0.5 -16q0 -65 -65 -65q-35 0 -50.5 14t-38.5 65q-12 35 -26 58q-9 24 -32.5 51t-53.5 45q-73 43 -295 43h-90q-28 0 -38.5 -11t-10.5 -38v-387q0 -33 19.5 -43t70.5 -10h12q78 0 154 6
q182 12 194 12q68 0 68 -45q0 -5 -4 -41q0 -17 -6 -41q0 -18 -21 -33q-20 -14 -82 -14q-13 0 -123 4q-82 6 -147 6q-87 0 -107 -2q-28 -3 -28 -28v-330q0 -90 7.5 -125.5t31.5 -52.5q31 -17 116 -17q105 0 172 15q103 22 152 65q62 52 121 145q47 68 88 68q18 0 33 -6z
M950 1808q21 -21 21 -94q0 -71 -21 -92q-30 -23 -94 -23q-69 0 -92 23t-23 92q0 64 23 94q21 21 92 21q73 0 94 -21zM555 1808q23 -30 23 -94q0 -69 -23 -92q-30 -23 -94 -23q-69 0 -92 23t-23 92q0 64 23 94q21 21 94 21q71 0 92 -21z" />
    <glyph glyph-name="Igrave" unicode="&#xcc;" horiz-adv-x="718" 
d="M588 98q6 -6 19 -13.5t19.5 -16t6.5 -23.5q0 -45 -72 -45h-403q-72 0 -72 45q0 15 6 23t19.5 16t19.5 14q56 37 70 74q22 58 22 213v801q0 83 -10 116.5t-45 55.5q-10 6 -26 14t-23.5 12.5t-14 14t-6.5 22.5q0 41 62 41h397q64 0 64 -41q3 -8 -1 -15.5t-13 -14.5
t-18 -12.5t-21 -11.5t-17 -9q-35 -22 -45 -55.5t-10 -116.5v-801q0 -152 22 -213q18 -40 70 -74zM395 1647l-309 190q-12 9 -12 16q0 17 26 17h246q55 0 86 -31l203 -192q6 -6 6 -13q0 -12 -18 -12h-138q-48 0 -90 25z" />
    <glyph glyph-name="Iacute" unicode="&#xcd;" horiz-adv-x="718" 
d="M629 1837l-299 -190q-42 -25 -90 -25h-138q-18 0 -18 12q0 7 10 17l187 186q29 33 86 33h245q27 0 27 -17q0 -9 -10 -16zM588 98q6 -6 19 -13.5t19.5 -16t6.5 -23.5q0 -45 -72 -45h-403q-72 0 -72 45q0 15 6 23t19.5 16t19.5 14q56 37 70 74q22 58 22 213v801
q0 83 -10 116.5t-45 55.5q-10 6 -26 14t-23.5 12.5t-14 14t-6.5 22.5q0 41 62 41h397q64 0 64 -41q3 -8 -1 -15.5t-13 -14.5t-18 -12.5t-21 -11.5t-17 -9q-35 -22 -45 -55.5t-10 -116.5v-801q0 -152 22 -213q18 -40 70 -74z" />
    <glyph glyph-name="Icircumflex" unicode="&#xce;" horiz-adv-x="718" 
d="M588 98q6 -6 19 -13.5t19.5 -16t6.5 -23.5q0 -45 -72 -45h-403q-72 0 -72 45q0 15 6 23t19.5 16t19.5 14q56 37 70 74q22 58 22 213v801q0 83 -10 116.5t-45 55.5q-10 6 -26 14t-23.5 12.5t-14 14t-6.5 22.5q0 41 62 41h397q64 0 64 -41q3 -8 -1 -15.5t-13 -14.5
t-18 -12.5t-21 -11.5t-17 -9q-35 -22 -45 -55.5t-10 -116.5v-801q0 -152 22 -213q18 -40 70 -74zM164 1612h-101q-12 0 -12 8q0 1 3 5t11.5 14.5t16.5 21.5l154 188q18 21 43 21h159q26 0 41 -21l170 -207q17 -20 17 -22q0 -8 -13 -8h-102q-21 0 -37 16l-149 139q-7 7 -13 0
l-151 -141q-14 -14 -37 -14z" />
    <glyph glyph-name="Idieresis" unicode="&#xcf;" horiz-adv-x="718" 
d="M588 98q6 -6 19 -13.5t19.5 -16t6.5 -23.5q0 -45 -72 -45h-403q-72 0 -72 45q0 15 6 23t19.5 16t19.5 14q56 37 70 74q22 58 22 213v801q0 83 -10 116.5t-45 55.5q-10 6 -26 14t-23.5 12.5t-14 14t-6.5 22.5q0 41 62 41h397q64 0 64 -41q3 -8 -1 -15.5t-13 -14.5
t-18 -12.5t-21 -11.5t-17 -9q-35 -22 -45 -55.5t-10 -116.5v-801q0 -152 22 -213q18 -40 70 -74zM651 1808q21 -21 21 -94q0 -71 -21 -92q-30 -23 -94 -23q-69 0 -92 23t-23 92q0 64 23 94q21 21 92 21q73 0 94 -21zM256 1808q23 -30 23 -94q0 -69 -23 -92q-30 -23 -94 -23
q-69 0 -92 23t-23 92q0 64 23 94q21 21 94 21q71 0 92 -21z" />
    <glyph glyph-name="Eth" unicode="&#xd0;" horiz-adv-x="1677" 
d="M1169 301q138 150 138 426q0 403 -260 537q-117 63 -396 63q-28 0 -38.5 -11t-10.5 -38v-432q0 -27 27 -27q7 0 139 4q105 6 111 6q69 0 69 -38q0 -12 -8 -43q-9 -53 -29 -70q-15 -12 -55 -12q-12 0 -62 4t-63 4q-33 2 -102 2q-27 0 -27 -25v-340q0 -124 29 -147
q30 -23 121 -23q284 0 417 160zM1292 1329q149 -87 229.5 -240.5t80.5 -355.5q0 -295 -205 -506q-102 -106 -273 -166.5t-387 -60.5h-475q-72 0 -72 45q0 29 46 53q47 26 69 74q23 58 23 211v268q0 25 -27 25q-53 0 -123 -6q-4 0 -36 -3t-42 -3q-67 0 -67 38q0 15 8 48
q12 52 25.5 64.5t52.5 12.5q9 0 44 -3t44 -3q27 -2 94 -2q27 0 27 27v319q0 96 -10.5 132.5t-47.5 60.5q-6 6 -28 14q-25 12 -32 21t-7 26q0 43 61 43h342q267 0 412 -32q156 -34 274 -101z" />
    <glyph glyph-name="Ntilde" unicode="&#xd1;" horiz-adv-x="1638" 
d="M530 1616l-36 12q-15 6 -15 19q0 19 29 75q65 127 188 127q67 0 144 -32q127 -50 170 -50q57 0 98 66q8 14 20 14q1 0 3.5 -0.5t7 -1.5t8.5 -2l29 -8q16 -3 16 -18q0 -14 -25 -66q-67 -135 -190 -135q-64 0 -174 43q-98 39 -141 39q-58 0 -93 -68q-9 -18 -22 -18
q-1 0 -17 4zM1145 1462h360q72 0 72 -45q0 -24 -25 -39q-17 -13 -45 -22q-33 -16 -50 -34.5t-30.5 -66.5t-21.5 -137q-10 -192 -10 -1106q0 -28 -33 -28h-137q-39 0 -58 28l-745 1061q-3 6 -10 6q-9 0 -9 -10q0 -611 7 -721q7 -80 27.5 -131t43 -70.5t58.5 -35.5
q3 -2 14.5 -6.5t15.5 -6.5t12.5 -7t12 -8.5t8 -9t6.5 -12t2 -14.5q0 -47 -71 -47h-398q-73 0 -73 45q0 11 4 19t12.5 14.5t15 10t20 9.5t17.5 8q54 27 81.5 79t33.5 163q10 147 10 912q0 20 -12 32q-21 24 -66 47q-8 4 -29 12.5t-29.5 13t-21 12.5t-17.5 18t-5 22
q0 45 74 45h274q62 0 88 -39l719 -1024q3 -6 10 -6q8 0 8 10q0 598 -8 715q-6 112 -28 159t-72 73q-7 4 -26 12t-27 13t-16.5 15.5t-8.5 24.5q0 47 76 47z" />
    <glyph glyph-name="Ograve" unicode="&#xd2;" horiz-adv-x="1634" 
d="M799 1346q-187 0 -307 -156q-117 -153 -117 -406q0 -282 125 -471q126 -190 336 -190q192 0 307 160q114 159 114 399q0 281 -124 471q-126 193 -334 193zM1559 737q-3 -318 -216 -540q-214 -220 -526 -220q-342 0 -541 205q-200 206 -200 537q0 319 209 545
q207 223 532 223q339 0 539 -209q203 -209 203 -541zM874 1647l-309 190q-12 9 -12 16q0 17 27 17h245q55 0 86 -31l203 -192q6 -6 6 -13q0 -12 -18 -12h-137q-49 0 -91 25z" />
    <glyph glyph-name="Oacute" unicode="&#xd3;" horiz-adv-x="1634" 
d="M1100 1837l-299 -190q-42 -25 -90 -25h-138q-18 0 -18 12q0 7 10 17l187 186q29 33 86 33h245q27 0 27 -17q0 -9 -10 -16zM799 1346q-187 0 -307 -156q-117 -153 -117 -406q0 -282 125 -471q126 -190 336 -190q192 0 307 160q114 159 114 399q0 281 -124 471
q-126 193 -334 193zM1559 737q-3 -318 -216 -540q-214 -220 -526 -220q-342 0 -541 205q-200 206 -200 537q0 319 209 545q207 223 532 223q339 0 539 -209q203 -209 203 -541z" />
    <glyph glyph-name="Ocircumflex" unicode="&#xd4;" horiz-adv-x="1634" 
d="M799 1346q-187 0 -307 -156q-117 -153 -117 -406q0 -282 125 -471q126 -190 336 -190q192 0 307 160q114 159 114 399q0 281 -124 471q-126 193 -334 193zM1559 737q-3 -318 -216 -540q-214 -220 -526 -220q-342 0 -541 205q-200 206 -200 537q0 319 209 545
q207 223 532 223q339 0 539 -209q203 -209 203 -541zM637 1612h-100q-13 0 -13 8q0 1 3 5t11.5 14.5t16.5 21.5l154 188q18 21 43 21h159q26 0 41 -21l170 -207q17 -20 17 -22q0 -8 -13 -8h-102q-21 0 -37 16l-149 139q-6 7 -13 0l-151 -141q-14 -14 -37 -14z" />
    <glyph glyph-name="Otilde" unicode="&#xd5;" horiz-adv-x="1634" 
d="M528 1616l-36 12q-15 6 -15 19q0 19 29 75q65 127 188 127q67 0 144 -32q127 -50 170 -50q57 0 98 66q8 14 20 14q1 0 3.5 -0.5t7 -1.5t8.5 -2l29 -8q16 -3 16 -18q0 -14 -25 -66q-67 -135 -190 -135q-64 0 -174 43q-98 39 -142 39q-57 0 -92 -68q-9 -18 -22 -18
q-1 0 -17 4zM799 1346q-187 0 -307 -156q-117 -153 -117 -406q0 -282 125 -471q126 -190 336 -190q192 0 307 160q114 159 114 399q0 281 -124 471q-126 193 -334 193zM1559 737q-3 -318 -216 -540q-214 -220 -526 -220q-342 0 -541 205q-200 206 -200 537q0 319 209 545
q207 223 532 223q339 0 539 -209q203 -209 203 -541z" />
    <glyph glyph-name="Odieresis" unicode="&#xd6;" horiz-adv-x="1634" 
d="M1126 1808q21 -21 21 -94q0 -71 -21 -92q-30 -23 -94 -23q-69 0 -91.5 23t-22.5 92q0 66 22 94q21 21 92 21q73 0 94 -21zM731 1808q23 -30 23 -94q0 -69 -23 -92q-30 -23 -94 -23q-69 0 -92 23t-23 92q0 64 23 94q21 21 94 21q71 0 92 -21zM799 1346q-187 0 -307 -156
q-117 -153 -117 -406q0 -282 125 -471q126 -190 336 -190q192 0 307 160q114 159 114 399q0 281 -124 471q-126 193 -334 193zM1559 737q-3 -318 -216 -540q-214 -220 -526 -220q-342 0 -541 205q-200 206 -200 537q0 319 209 545q207 223 532 223q339 0 539 -209
q203 -209 203 -541z" />
    <glyph glyph-name="multiply" unicode="&#xd7;" horiz-adv-x="1251" 
d="M197 1059l102 102l326 -327l327 327l103 -102l-328 -328l328 -325l-103 -103l-327 328l-326 -328l-102 103l327 325z" />
    <glyph glyph-name="Oslash" unicode="&#xd8;" horiz-adv-x="1652" 
d="M453 434q7 -10 8 -10q4 0 8 4l657 713q9 9 9 14q0 1 -7 12q-126 176 -321 176q-194 0 -309 -157q-113 -155 -113 -402q0 -173 68 -350zM844 123q139 0 239 86q185 163 185 473q0 170 -70 350q-3 6 -8 6q-4 0 -8 -4l-658 -712q-6 -6 -6 -15q0 -6 4 -10q125 -174 322 -174z
M1395 1245q172 -199 172 -514q-3 -316 -215 -534q-214 -220 -527 -220q-273 0 -465 142q-13 9 -24 -2l-96 -105q-12 -12 -29 -12h-113q-12 0 -12 8q0 4 8 12l160 175q10 10 0 20q-168 198 -168 498q0 320 207 547q209 225 532 225q273 0 467 -144q3 -1 6 -3q4 -1 5 -1
q4 0 10 6l98 107q12 12 31 12h108q13 0 13 -8q0 -5 -7 -12l-157 -172q-15 -14 -4 -25z" />
    <glyph glyph-name="Ugrave" unicode="&#xd9;" horiz-adv-x="1552" 
d="M1094 1462h356q74 0 74 -45q0 -19 -12 -28.5t-31 -17t-27 -15.5q-48 -25 -71.5 -73.5t-30.5 -162.5q-4 -54 -4 -284q0 -265 -2 -308q-3 -133 -35 -231q-55 -155 -194 -237.5t-341 -82.5q-438 0 -549 295q-34 87 -34 258v635q0 96 -10.5 132.5t-47.5 60.5q-5 5 -29 14
q-24 12 -31 20.5t-7 26.5q0 43 61 43h399q62 0 62 -43q0 -18 -8 -26q-5 -6 -31.5 -19.5t-28.5 -15.5q-37 -24 -47 -60t-10 -133l2 -587q0 -133 31 -218q76 -198 333 -198q173 0 268 99t99 292q2 47 2 266q0 215 -4 301q-6 109 -29 157t-71 73q-7 4 -26 12t-27 13t-16.5 15.5
t-8.5 24.5q0 47 76 47zM838 1647l-310 190q-12 9 -12 16q0 17 27 17h245q55 0 86 -31l203 -192q6 -6 6 -13q0 -12 -18 -12h-137q-48 0 -90 25z" />
    <glyph glyph-name="Uacute" unicode="&#xda;" horiz-adv-x="1552" 
d="M1081 1837l-299 -190q-42 -25 -90 -25h-137q-18 0 -18 12q0 7 10 17l186 186q29 33 86 33h246q27 0 27 -17q0 -9 -11 -16zM1094 1462h356q74 0 74 -45q0 -19 -12 -28.5t-31 -17t-27 -15.5q-48 -25 -71.5 -73.5t-30.5 -162.5q-4 -54 -4 -284q0 -265 -2 -308
q-3 -133 -35 -231q-55 -155 -194 -237.5t-341 -82.5q-438 0 -549 295q-34 87 -34 258v635q0 96 -10.5 132.5t-47.5 60.5q-5 5 -29 14q-24 12 -31 20.5t-7 26.5q0 43 61 43h399q62 0 62 -43q0 -18 -8 -26q-5 -6 -31.5 -19.5t-28.5 -15.5q-37 -24 -47 -60t-10 -133l2 -587
q0 -133 31 -218q76 -198 333 -198q173 0 268 99t99 292q2 47 2 266q0 215 -4 301q-6 109 -29 157t-71 73q-7 4 -26 12t-27 13t-16.5 15.5t-8.5 24.5q0 47 76 47z" />
    <glyph glyph-name="Ucircumflex" unicode="&#xdb;" horiz-adv-x="1552" 
d="M1094 1462h356q74 0 74 -45q0 -19 -12 -28.5t-31 -17t-27 -15.5q-48 -25 -71.5 -73.5t-30.5 -162.5q-4 -54 -4 -284q0 -265 -2 -308q-3 -133 -35 -231q-55 -155 -194 -237.5t-341 -82.5q-438 0 -549 295q-34 87 -34 258v635q0 96 -10.5 132.5t-47.5 60.5q-5 5 -29 14
q-24 12 -31 20.5t-7 26.5q0 43 61 43h399q62 0 62 -43q0 -18 -8 -26q-5 -6 -31.5 -19.5t-28.5 -15.5q-37 -24 -47 -60t-10 -133l2 -587q0 -133 31 -218q76 -198 333 -198q173 0 268 99t99 292q2 47 2 266q0 215 -4 301q-6 109 -29 157t-71 73q-7 4 -26 12t-27 13t-16.5 15.5
t-8.5 24.5q0 47 76 47zM612 1612h-100q-12 0 -12 8l30 41l154 188q18 21 43 21h160q26 0 41 -21l170 -207q16 -19 16 -22q0 -8 -12 -8h-103q-20 0 -36 16l-150 139q-5 5 -6 5t-6 -5l-152 -141q-14 -14 -37 -14z" />
    <glyph glyph-name="Udieresis" unicode="&#xdc;" horiz-adv-x="1552" 
d="M1094 1462h356q74 0 74 -45q0 -19 -12 -28.5t-31 -17t-27 -15.5q-48 -25 -71.5 -73.5t-30.5 -162.5q-4 -54 -4 -284q0 -265 -2 -308q-3 -133 -35 -231q-55 -155 -194 -237.5t-341 -82.5q-438 0 -549 295q-34 87 -34 258v635q0 96 -10.5 132.5t-47.5 60.5q-5 5 -29 14
q-24 12 -31 20.5t-7 26.5q0 43 61 43h399q62 0 62 -43q0 -18 -8 -26q-5 -6 -31.5 -19.5t-28.5 -15.5q-37 -24 -47 -60t-10 -133l2 -587q0 -133 31 -218q76 -198 333 -198q173 0 268 99t99 292q2 47 2 266q0 215 -4 301q-6 109 -29 157t-71 73q-7 4 -26 12t-27 13t-16.5 15.5
t-8.5 24.5q0 47 76 47zM1110 1808q20 -20 20 -94q0 -72 -20 -92q-30 -23 -94 -23q-69 0 -92 23t-23 92q0 64 23 94q21 21 92 21q73 0 94 -21zM715 1808q22 -28 22 -94q0 -70 -22 -92q-30 -23 -94 -23q-69 0 -92 23t-23 92q0 66 22 94q21 21 95 21q71 0 92 -21z" />
    <glyph glyph-name="Yacute" unicode="&#xdd;" horiz-adv-x="1458" 
d="M1047 1837l-299 -190q-42 -25 -91 -25h-137q-18 0 -18 12q0 7 10 17l186 186q29 33 86 33h246q27 0 27 -17q0 -9 -10 -16zM1059 1462h321q72 0 72 -43q0 -26 -35 -47q-58 -40 -102 -90q-61 -70 -133 -184l-320 -510q-6 -9 -6 -25v-176q0 -162 25 -217q19 -44 69 -72
q43 -24 43 -53q0 -45 -67 -45h-412q-68 0 -68 45q0 29 43 53q51 29 70 72q25 55 25 217v113q0 17 -9 32q-327 591 -350 639q-58 116 -100 158q-21 21 -68 45q-32 17 -32 43q0 45 69 45h410q61 0 61 -41q0 -26 -35 -47q-38 -23 -43 -28q-12 -15 -12 -37q0 -38 37 -105
l260 -475q2 -6 8 -6t11 6l215 352q86 139 86 203q0 50 -66 88q-33 17 -33 43q0 47 66 47z" />
    <glyph glyph-name="Thorn" unicode="&#xde;" horiz-adv-x="1329" 
d="M928 594q41 65 41 160q0 110 -58 180q-89 108 -303 108h-86q-26 0 -26 -24v-535q0 -26 28 -26h78q244 3 326 137zM1147 1047q108 -108 108 -281q0 -102 -36 -178q-126 -271 -568 -271h-133q-20 0 -20 -20q3 -87 20 -125q21 -48 70 -74q45 -23 45 -53q0 -45 -72 -45h-403
q-72 0 -72 45q0 15 5.5 22.5t18.5 15t21 15.5q56 37 70 74q22 52 22 213v770q0 107 -9 144t-46 59q-10 6 -26 14t-23.5 12.5t-14 14t-6.5 22.5q0 41 62 41h403q58 0 58 -41q3 -8 -1 -15.5t-13 -14.5t-18 -12.5t-21 -11.5t-17 -9q-32 -20 -43.5 -53t-11.5 -101q0 -24 28 -24
h64q150 0 227 -6q70 -3 172 -35q95 -30 160 -92z" />
    <glyph glyph-name="germandbls" unicode="&#xdf;" horiz-adv-x="2162" 
d="M1217 369q27 0 43 -13q13 -9 47.5 -51.5t48.5 -56.5q131 -137 293 -137q86 0 146 42.5t60 102.5q0 48 -36 79t-93.5 46.5t-126.5 28t-138.5 31.5t-127 47.5t-93.5 86t-36 138.5q0 158 139 258q137 98 336 98q164 0 267 -59q55 -30 71.5 -64.5t16.5 -111.5
q0 -111 -70 -111q-27 0 -43 13.5t-55 62.5q-104 137 -246 137q-77 0 -128.5 -36.5t-51.5 -88.5q0 -59 50 -86.5t181 -52.5q142 -26 238 -68q184 -73 184 -262q0 -79 -41.5 -152.5t-118.5 -126.5q-127 -86 -325 -86q-112 0 -234 29q-114 30 -160 70q-65 53 -65 196
q0 97 68 97zM135 369q27 0 43 -13q13 -9 47.5 -51.5t48.5 -56.5q131 -137 293 -137q86 0 146.5 42.5t60.5 102.5q0 48 -36 79t-93.5 46.5t-126.5 28t-138.5 31.5t-127 47.5t-93.5 86t-36 138.5q0 158 139 258q137 98 336 98q163 0 266 -59q55 -30 71.5 -64.5t16.5 -111.5
q0 -111 -69 -111q-27 0 -43.5 13.5t-55.5 62.5q-104 137 -245 137q-77 0 -129 -36.5t-52 -88.5q0 -59 50 -86.5t182 -52.5q141 -26 237 -68q185 -74 185 -262q0 -79 -41.5 -152.5t-118.5 -126.5q-127 -86 -326 -86q-111 0 -233 29q-114 30 -160 70q-65 53 -65 196
q0 97 67 97z" />
    <glyph glyph-name="agrave" unicode="&#xe0;" 
d="M229 352l367 688q16 23 35 23h84q27 0 37 -23q264 -592 356 -784q52 -113 80 -141q13 -16 53 -37q31 -16 31 -39q0 -39 -58 -39h-364q-53 0 -53 37q0 23 26 37q54 28 54 67q0 44 -50 144q-6 12 -18 12h-436q-14 0 -17 -10q-41 -96 -41 -135q0 -44 56 -74q28 -16 28 -39
q0 -39 -61 -39h-272q-62 0 -62 39q0 22 31 41q48 29 92 94q36 51 102 178zM756 451l-148 319q-2 6 -6 6t-6 -6l-170 -336q-2 -2 -2 -8t8 -6h320q12 0 12 10q0 8 -8 21zM713 1264l-310 190q-12 9 -12 16q0 17 27 17h246q55 0 86 -31l202 -192q6 -6 6 -13q0 -12 -18 -12h-137
q-48 0 -90 25z" />
    <glyph glyph-name="aacute" unicode="&#xe1;" 
d="M229 352l367 688q16 23 35 23h84q27 0 37 -23q264 -592 356 -784q52 -113 80 -141q13 -16 53 -37q31 -16 31 -39q0 -39 -58 -39h-364q-53 0 -53 37q0 23 26 37q54 28 54 67q0 44 -50 144q-6 12 -18 12h-436q-14 0 -17 -10q-41 -96 -41 -135q0 -44 56 -74q28 -16 28 -39
q0 -39 -61 -39h-272q-62 0 -62 39q0 22 31 41q48 29 92 94q36 51 102 178zM756 451l-148 319q-2 6 -6 6t-6 -6l-170 -336q-2 -2 -2 -8t8 -6h320q12 0 12 10q0 8 -8 21zM942 1454l-299 -190q-42 -25 -90 -25h-137q-19 0 -19 12q0 7 6 13l191 190q29 33 86 33h246q26 0 26 -17
q0 -9 -10 -16z" />
    <glyph glyph-name="acircumflex" unicode="&#xe2;" 
d="M229 352l367 688q16 23 35 23h84q27 0 37 -23q264 -592 356 -784q52 -113 80 -141q13 -16 53 -37q31 -16 31 -39q0 -39 -58 -39h-364q-53 0 -53 37q0 23 26 37q54 28 54 67q0 44 -50 144q-6 12 -18 12h-436q-14 0 -17 -10q-41 -96 -41 -135q0 -44 56 -74q28 -16 28 -39
q0 -39 -61 -39h-272q-62 0 -62 39q0 22 31 41q48 29 92 94q36 51 102 178zM756 451l-148 319q-2 6 -6 6t-6 -6l-170 -336q-2 -2 -2 -8t8 -6h320q12 0 12 10q0 8 -8 21zM475 1229h-100q-13 0 -13 8q0 1 3 5t11.5 14.5t16.5 21.5l154 188q18 21 43 21h160q26 0 41 -21
l170 -206q16 -19 16 -23q0 -8 -12 -8h-103q-21 0 -37 16l-149 139q-4 4 -6 4t-6 -4l-152 -141q-14 -14 -37 -14z" />
    <glyph glyph-name="atilde" unicode="&#xe3;" 
d="M367 1253l-37 13q-15 6 -15 18q0 20 29 76q65 127 188 127q65 0 144 -33q125 -49 170 -49q57 0 98 65q9 15 21 15q1 0 3 -0.5t6.5 -1.5t8.5 -2l29 -8q16 -3 16 -19t-24 -65q-68 -136 -191 -136q-64 0 -174 43q-98 39 -141 39q-58 0 -92 -67q-10 -19 -23 -19zM229 352
l367 688q16 23 35 23h84q27 0 37 -23q264 -592 356 -784q52 -113 80 -141q13 -16 53 -37q31 -16 31 -39q0 -39 -58 -39h-364q-53 0 -53 37q0 23 26 37q54 28 54 67q0 44 -50 144q-6 12 -18 12h-436q-14 0 -17 -10q-41 -96 -41 -135q0 -44 56 -74q28 -16 28 -39
q0 -39 -61 -39h-272q-62 0 -62 39q0 22 31 41q48 29 92 94q36 51 102 178zM756 451l-148 319q-2 6 -6 6t-6 -6l-170 -336q-2 -2 -2 -8t8 -6h320q12 0 12 10q0 8 -8 21z" />
    <glyph glyph-name="adieresis" unicode="&#xe4;" 
d="M229 352l367 688q16 23 35 23h84q27 0 37 -23q264 -592 356 -784q52 -113 80 -141q13 -16 53 -37q31 -16 31 -39q0 -39 -58 -39h-364q-53 0 -53 37q0 23 26 37q54 28 54 67q0 44 -50 144q-6 12 -18 12h-436q-14 0 -17 -10q-41 -96 -41 -135q0 -44 56 -74q28 -16 28 -39
q0 -39 -61 -39h-272q-62 0 -62 39q0 22 31 41q48 29 92 94q36 51 102 178zM756 451l-148 319q-2 6 -6 6t-6 -6l-170 -336q-2 -2 -2 -8t8 -6h320q12 0 12 10q0 8 -8 21zM961 1440q20 -20 20 -94q0 -73 -20 -93q-28 -22 -95 -22q-69 0 -91.5 23t-22.5 92q0 66 22 94
q20 20 92 20q75 0 95 -20zM565 1440q23 -30 23 -94q0 -70 -23 -93q-28 -22 -94 -22q-69 0 -92 23t-23 92q0 64 23 94q20 20 94 20q72 0 92 -20z" />
    <glyph glyph-name="aring" unicode="&#xe5;" 
d="M229 352l367 688q16 23 35 23h84q27 0 37 -23q264 -592 356 -784q52 -113 80 -141q13 -16 53 -37q31 -16 31 -39q0 -39 -58 -39h-364q-53 0 -53 37q0 23 26 37q54 28 54 67q0 44 -50 144q-6 12 -18 12h-436q-14 0 -17 -10q-41 -96 -41 -135q0 -44 56 -74q28 -16 28 -39
q0 -39 -61 -39h-272q-62 0 -62 39q0 22 31 41q48 29 92 94q36 51 102 178zM756 451l-148 319q-2 6 -6 6t-6 -6l-170 -336q-2 -2 -2 -8t8 -6h320q12 0 12 10q0 8 -8 21zM578 1346q0 -38 29 -67.5t67 -29.5t67 29.5t29 67.5q0 41 -27.5 69.5t-68.5 28.5t-68.5 -28.5
t-27.5 -69.5zM541 1217q-54 54 -54 129t54 129q55 55 132.5 55t131.5 -55q55 -54 55 -129t-55 -129q-54 -54 -131.5 -54t-132.5 54z" />
    <glyph glyph-name="ae" unicode="&#xe6;" horiz-adv-x="1712" 
d="M698 442v410q0 10 -8 10q-7 0 -10 -6l-293 -407q-6 -9 -6 -15q0 -10 12 -10h285q20 0 20 18zM1561 383q73 0 73 -70q0 -14 -10 -59q-8 -36 -8 -45l-8 -53q-10 -62 -23 -99t-38.5 -55t-73.5 -18q-24 0 -125 8t-236 8h-479q-72 0 -72 43q0 28 45 51q50 26 70 70
q15 34 18 123q0 16 -16 16h-373q-19 0 -29 -16q-69 -109 -69 -144q0 -37 43 -61q31 -19 31 -41q0 -41 -64 -41h-293q-61 0 -61 39q0 24 43 51q70 44 129 111q84 102 297 391l221 303q8 8 8 18q0 15 -26 29q-4 2 -19.5 9t-21 10t-15 10t-13 15t-3.5 18q0 43 63 43h566
q121 0 256 6q120 8 151 8q79 0 82 -66q4 -62 4 -116q0 -6 2 -53.5t2 -69.5q0 -42 -17 -60t-54 -18q-30 0 -46 13.5t-40 58.5q-47 96 -107 131q-62 39 -213 39h-117q-28 0 -38.5 -11.5t-10.5 -38.5v-217q0 -29 11.5 -39t41.5 -10q61 0 131 4q12 0 76 6q64 9 97 9q67 0 67 -41
q0 -5 -4 -41q-5 -43 -24 -57.5t-74 -14.5q-5 0 -152 6q-33 2 -141 2q-29 0 -29 -28v-132q0 -91 7 -126t32 -48q35 -18 107 -18q134 0 219 39q45 19 77 51t80 98q52 70 93 70z" />
    <glyph glyph-name="ccedilla" unicode="&#xe7;" horiz-adv-x="1196" 
d="M688 106q113 0 172 62q31 34 48.5 60t49.5 83q41 74 84 74q40 0 55 -23.5t15 -82.5q0 -172 -78 -232q-42 -31 -138 -50.5t-198 -19.5q-4 0 -12 1l-8 2q-35 -35 -35 -60q0 -17 21 -26q16 -5 66.5 -15.5t66.5 -15.5q88 -27 88 -105q0 -80 -109 -127q-62 -26 -145 -26
q-91 0 -146 30q-24 15 -24 35q0 37 41 37q7 0 47.5 -8t58.5 -8q40 0 66 16q24 18 24 43q0 34 -49 49q-9 3 -35 10.5t-48.5 15t-33.5 15.5q-20 14 -20 39q0 42 55 109q-225 34 -362 180q-133 145 -133 352q0 240 190 393q193 156 477 156q172 0 275 -53q49 -25 62.5 -66.5
t13.5 -146.5q0 -66 -17 -94.5t-55 -28.5q-43 0 -80 70q-52 102 -109.5 148t-150.5 46q-148 0 -242 -113q-92 -115 -92 -292q0 -194 102 -314q101 -119 242 -119z" />
    <glyph glyph-name="egrave" unicode="&#xe8;" horiz-adv-x="1236" 
d="M1090 383q73 0 73 -70q0 -27 -12 -80l-12 -65q-13 -87 -33 -133q-24 -51 -105 -51q-21 0 -122 8t-236 8h-489q-72 0 -72 45q0 15 5.5 22.5t18.5 15t21 15.5q52 29 70 74q24 58 24 213v373q0 95 -9.5 127.5t-49.5 56.5q-4 3 -22.5 12.5t-22.5 12.5q-21 16 -21 37
q0 43 62 43h463q124 0 256 6q120 8 151 8q79 0 82 -66q4 -94 4 -112q0 -10 2 -60.5t2 -68.5q0 -45 -16.5 -60.5t-54.5 -15.5q-26 0 -42.5 14.5t-41.5 57.5q0 1 -1.5 3t-4.5 6.5t-5 8.5q-5 9 -10.5 20t-13.5 21q-28 47 -74 72q-68 39 -236 39h-100q-28 0 -38.5 -11.5
t-10.5 -38.5v-217q0 -29 10 -38t43 -11q63 0 137 4q28 2 91.5 8.5t76.5 6.5q68 0 68 -45q0 -3 -2 -19t-2 -20q-1 -40 -21 -55t-65 -15q-17 0 -80 3t-86 3q-33 2 -141 2q-29 0 -29 -31v-129q0 -91 7 -126t32 -48q34 -18 110 -18q137 0 226 42t155 144q44 72 91 72zM672 1264
l-310 190q-12 9 -12 16q0 17 27 17h246q55 0 86 -31l202 -192q7 -7 7 -13q0 -12 -19 -12h-137q-48 0 -90 25z" />
    <glyph glyph-name="eacute" unicode="&#xe9;" horiz-adv-x="1236" 
d="M1090 383q73 0 73 -70q0 -27 -12 -80l-12 -65q-13 -87 -33 -133q-24 -51 -105 -51q-21 0 -122 8t-236 8h-489q-72 0 -72 45q0 15 5.5 22.5t18.5 15t21 15.5q52 29 70 74q24 58 24 213v373q0 95 -9.5 127.5t-49.5 56.5q-4 3 -22.5 12.5t-22.5 12.5q-21 16 -21 37
q0 43 62 43h463q124 0 256 6q120 8 151 8q79 0 82 -66q4 -94 4 -112q0 -10 2 -60.5t2 -68.5q0 -45 -16.5 -60.5t-54.5 -15.5q-26 0 -42.5 14.5t-41.5 57.5q0 1 -1.5 3t-4.5 6.5t-5 8.5q-5 9 -10.5 20t-13.5 21q-28 47 -74 72q-68 39 -236 39h-100q-28 0 -38.5 -11.5
t-10.5 -38.5v-217q0 -29 10 -38t43 -11q63 0 137 4q28 2 91.5 8.5t76.5 6.5q68 0 68 -45q0 -3 -2 -19t-2 -20q-1 -40 -21 -55t-65 -15q-17 0 -80 3t-86 3q-33 2 -141 2q-29 0 -29 -31v-129q0 -91 7 -126t32 -48q34 -18 110 -18q137 0 226 42t155 144q44 72 91 72zM899 1454
l-299 -190q-42 -25 -90 -25h-137q-19 0 -19 12q0 7 6 13l191 190q29 33 86 33h246q26 0 26 -17q0 -9 -10 -16z" />
    <glyph glyph-name="ecircumflex" unicode="&#xea;" horiz-adv-x="1236" 
d="M1090 383q73 0 73 -70q0 -27 -12 -80l-12 -65q-13 -87 -33 -133q-24 -51 -105 -51q-21 0 -122 8t-236 8h-489q-72 0 -72 45q0 15 5.5 22.5t18.5 15t21 15.5q52 29 70 74q24 58 24 213v373q0 95 -9.5 127.5t-49.5 56.5q-4 3 -22.5 12.5t-22.5 12.5q-21 16 -21 37
q0 43 62 43h463q124 0 256 6q120 8 151 8q79 0 82 -66q4 -94 4 -112q0 -10 2 -60.5t2 -68.5q0 -45 -16.5 -60.5t-54.5 -15.5q-26 0 -42.5 14.5t-41.5 57.5q0 1 -1.5 3t-4.5 6.5t-5 8.5q-5 9 -10.5 20t-13.5 21q-28 47 -74 72q-68 39 -236 39h-100q-28 0 -38.5 -11.5
t-10.5 -38.5v-217q0 -29 10 -38t43 -11q63 0 137 4q28 2 91.5 8.5t76.5 6.5q68 0 68 -45q0 -3 -2 -19t-2 -20q-1 -40 -21 -55t-65 -15q-17 0 -80 3t-86 3q-33 2 -141 2q-29 0 -29 -31v-129q0 -91 7 -126t32 -48q34 -18 110 -18q137 0 226 42t155 144q44 72 91 72zM432 1229
h-100q-13 0 -13 8q0 1 3 5t11.5 14.5t16.5 21.5l154 188q18 21 43 21h160q26 0 41 -21l170 -206q16 -19 16 -23q0 -8 -12 -8h-103q-21 0 -37 16l-149 139q-5 4 -6 4t-6 -4l-152 -141q-14 -14 -37 -14z" />
    <glyph glyph-name="edieresis" unicode="&#xeb;" horiz-adv-x="1236" 
d="M1090 383q73 0 73 -70q0 -27 -12 -80l-12 -65q-13 -87 -33 -133q-24 -51 -105 -51q-21 0 -122 8t-236 8h-489q-72 0 -72 45q0 15 5.5 22.5t18.5 15t21 15.5q52 29 70 74q24 58 24 213v373q0 95 -9.5 127.5t-49.5 56.5q-4 3 -22.5 12.5t-22.5 12.5q-21 16 -21 37
q0 43 62 43h463q124 0 256 6q120 8 151 8q79 0 82 -66q4 -94 4 -112q0 -10 2 -60.5t2 -68.5q0 -45 -16.5 -60.5t-54.5 -15.5q-26 0 -42.5 14.5t-41.5 57.5q0 1 -1.5 3t-4.5 6.5t-5 8.5q-5 9 -10.5 20t-13.5 21q-28 47 -74 72q-68 39 -236 39h-100q-28 0 -38.5 -11.5
t-10.5 -38.5v-217q0 -29 10 -38t43 -11q63 0 137 4q28 2 91.5 8.5t76.5 6.5q68 0 68 -45q0 -3 -2 -19t-2 -20q-1 -40 -21 -55t-65 -15q-17 0 -80 3t-86 3q-33 2 -141 2q-29 0 -29 -31v-129q0 -91 7 -126t32 -48q34 -18 110 -18q137 0 226 42t155 144q44 72 91 72zM926 1440
q20 -20 20 -94q0 -73 -20 -93q-28 -22 -95 -22q-69 0 -91.5 23t-22.5 92q0 66 22 94q20 20 92 20q75 0 95 -20zM530 1440q23 -30 23 -94q0 -70 -23 -93q-28 -22 -94 -22q-69 0 -91.5 23t-22.5 92q0 66 22 94q20 20 94 20q72 0 92 -20z" />
    <glyph glyph-name="igrave" unicode="&#xec;" horiz-adv-x="688" 
d="M469 750v-369q0 -152 23 -209q19 -45 69 -74q45 -26 45 -53q0 -45 -71 -45h-381q-72 0 -72 45q0 27 45 53q52 29 70 74q22 55 22 199v377q0 104 -8 135q-10 37 -47 59q-9 6 -25.5 14t-24 13t-14 14.5t-6.5 22.5q0 41 64 41h372q64 0 64 -41q3 -8 -1 -15.5t-13.5 -15
t-18 -12.5t-21 -11.5t-16.5 -9.5q-37 -24 -46 -59t-9 -133zM381 1264l-309 190q-13 10 -13 16q0 17 27 17h246q55 0 86 -31l203 -192q6 -6 6 -13q0 -12 -19 -12h-137q-48 0 -90 25z" />
    <glyph glyph-name="iacute" unicode="&#xed;" horiz-adv-x="688" 
d="M469 750v-369q0 -152 23 -209q19 -45 69 -74q45 -26 45 -53q0 -45 -71 -45h-381q-72 0 -72 45q0 27 45 53q52 29 70 74q22 55 22 199v377q0 104 -8 135q-10 37 -47 59q-9 6 -25.5 14t-24 13t-14 14.5t-6.5 22.5q0 41 64 41h372q64 0 64 -41q3 -8 -1 -15.5t-13.5 -15
t-18 -12.5t-21 -11.5t-16.5 -9.5q-37 -24 -46 -59t-9 -133zM610 1454l-299 -190q-42 -25 -90 -25h-137q-18 0 -18 12q0 7 6 13l190 190q29 33 86 33h246q27 0 27 -17q0 -9 -11 -16z" />
    <glyph glyph-name="icircumflex" unicode="&#xee;" horiz-adv-x="688" 
d="M469 750v-369q0 -152 23 -209q19 -45 69 -74q45 -26 45 -53q0 -45 -71 -45h-381q-72 0 -72 45q0 27 45 53q52 29 70 74q22 55 22 199v377q0 104 -8 135q-10 37 -47 59q-9 6 -25.5 14t-24 13t-14 14.5t-6.5 22.5q0 41 64 41h372q64 0 64 -41q3 -8 -1 -15.5t-13.5 -15
t-18 -12.5t-21 -11.5t-16.5 -9.5q-37 -24 -46 -59t-9 -133zM147 1229h-100q-12 0 -12 8q0 1 3 5t11.5 14.5t16.5 21.5l153 188q18 21 43 21h160q26 0 41 -21l170 -206q16 -19 16 -23q0 -8 -12 -8h-102q-21 0 -37 16l-150 139q-4 4 -6 4t-6 -4l-152 -141q-14 -14 -37 -14z
" />
    <glyph glyph-name="idieresis" unicode="&#xef;" horiz-adv-x="688" 
d="M469 750v-369q0 -152 23 -209q19 -45 69 -74q45 -26 45 -53q0 -45 -71 -45h-381q-72 0 -72 45q0 27 45 53q52 29 70 74q22 55 22 199v377q0 104 -8 135q-10 37 -47 59q-9 6 -25.5 14t-24 13t-14 14.5t-6.5 22.5q0 41 64 41h372q64 0 64 -41q3 -8 -1 -15.5t-13.5 -15
t-18 -12.5t-21 -11.5t-16.5 -9.5q-37 -24 -46 -59t-9 -133zM635 1440q20 -20 20 -94q0 -73 -20 -93q-28 -22 -94 -22q-69 0 -92 23t-23 92q0 64 23 94q20 20 92 20q74 0 94 -20zM240 1440q22 -28 22 -94q0 -71 -22 -93q-28 -22 -95 -22q-69 0 -91.5 23t-22.5 92q0 66 22 94
q20 20 94 20q73 0 93 -20z" />
    <glyph glyph-name="eth" unicode="&#xf0;" horiz-adv-x="1392" 
d="M942 233q105 105 105 287q0 263 -199 357q-90 43 -320 43q-22 0 -22 -21v-285q0 -18 22 -18l95 6q78 4 79 4q64 0 64 -35q0 -7 -10 -45q-4 -9 -8.5 -24t-8 -21.5t-17.5 -12t-40 -5.5q-5 0 -65.5 3t-88.5 3q-22 0 -22 -18v-160q0 -86 3.5 -111t20.5 -37q26 -16 95 -16
q214 0 317 106zM1065 950q120 -63 187 -171.5t67 -252.5q0 -210 -164 -360q-82 -77 -223 -121.5t-320 -44.5h-419q-72 0 -72 45q0 27 45 53q49 26 70 74q22 55 22 199v80q0 18 -22 18q-16 0 -68 -4t-64 -4q-61 0 -61 35q0 14 6 41q8 38 22 51.5t48 13.5q6 0 51.5 -3t65.5 -3
q22 0 22 18v121q0 113 -8 146q-9 41 -47 61q-9 6 -25.5 14t-24 13t-14 14.5t-6.5 22.5q0 41 62 41h311q373 0 559 -97z" />
    <glyph glyph-name="ntilde" unicode="&#xf1;" horiz-adv-x="1427" 
d="M1188 14q0 -28 -29 -28h-123q-31 0 -53 28l-580 684q-4 4 -8 4q-8 0 -8 -10q0 -212 6 -344q5 -62 16 -104.5t29.5 -68t37 -39.5t46.5 -25q4 -2 17.5 -8.5t18 -8.5t14 -8t12.5 -11t6.5 -12.5t3.5 -15.5q0 -47 -72 -47h-379q-75 0 -75 45q0 25 24 39q4 3 15 8.5t20 9
t10 4.5q56 27 83.5 78.5t33.5 163.5q8 141 8 496q0 21 -12 33q-48 38 -66 47q-9 5 -37.5 17.5t-35.5 16.5q-29 17 -29 43q0 46 70 46h231q55 0 88 -39l571 -674q6 -6 11 -6q8 0 8 10q0 259 -6 364q-6 110 -29 157.5t-72 74.5q-25 8 -51 24q-24 24 -24 41q0 48 75 48h340
q76 0 76 -46q0 -18 -10 -28q-6 -6 -22.5 -15t-31.5 -16l-14 -6q-28 -14 -47 -33q-17 -17 -32.5 -70.5t-16.5 -130.5q-8 -243 -8 -688zM418 1253l-37 13q-14 6 -14 18q0 22 28 76q65 127 189 127q64 0 143 -33q125 -49 170 -49q57 0 98 65q9 15 21 15q1 0 3 -0.5t6.5 -1.5
t8.5 -2l29 -8q16 -3 16 -19t-24 -65q-68 -136 -191 -136q-64 0 -174 43q-98 39 -141 39q-58 0 -92 -67q-9 -19 -23 -19z" />
    <glyph glyph-name="ograve" unicode="&#xf2;" horiz-adv-x="1290" 
d="M340 575q0 -201 90 -335t232 -134q131 0 208.5 103.5t77.5 267.5q0 201 -88 332q-89 133 -229 133q-131 0 -211 -100t-80 -267zM1219 528q0 -227 -164 -391q-165 -160 -410 -160q-261 0 -418 148q-155 146 -155 395q0 223 164 387q165 162 413 162q262 0 416 -151
t154 -390zM684 1264l-309 190q-13 10 -13 16q0 17 27 17h246q55 0 86 -31l203 -192q6 -6 6 -13q0 -12 -19 -12h-137q-48 0 -90 25z" />
    <glyph glyph-name="oacute" unicode="&#xf3;" horiz-adv-x="1290" 
d="M340 575q0 -201 90 -335t232 -134q131 0 208.5 103.5t77.5 267.5q0 201 -88 332q-89 133 -229 133q-131 0 -211 -100t-80 -267zM1219 528q0 -227 -164 -391q-165 -160 -410 -160q-261 0 -418 148q-155 146 -155 395q0 223 164 387q165 162 413 162q262 0 416 -151
t154 -390zM915 1454l-299 -190q-42 -25 -90 -25h-137q-18 0 -18 12q0 7 6 13l190 190q29 33 86 33h246q27 0 27 -17q0 -9 -11 -16z" />
    <glyph glyph-name="ocircumflex" unicode="&#xf4;" horiz-adv-x="1290" 
d="M340 575q0 -201 90 -335t232 -134q131 0 208.5 103.5t77.5 267.5q0 201 -88 332q-89 133 -229 133q-131 0 -211 -100t-80 -267zM1219 528q0 -227 -164 -391q-165 -160 -410 -160q-261 0 -418 148q-155 146 -155 395q0 223 164 387q165 162 413 162q262 0 416 -151
t154 -390zM451 1229h-101q-12 0 -12 8q0 1 3 5t11.5 14.5t16.5 21.5l153 188q18 21 43 21h160q26 0 41 -21l170 -206q16 -19 16 -23q0 -8 -12 -8h-102q-21 0 -37 16l-150 139q-5 4 -6 4t-6 -4l-152 -141q-14 -14 -36 -14z" />
    <glyph glyph-name="otilde" unicode="&#xf5;" horiz-adv-x="1290" 
d="M342 1253l-37 13q-14 6 -14 18q0 22 28 76q65 127 189 127q64 0 143 -33q125 -49 170 -49q58 0 99 65q9 15 20 15q1 0 3 -0.5t6.5 -1.5t8.5 -2l29 -8q17 -3 17 -19q0 -13 -25 -65q-68 -136 -191 -136q-64 0 -174 43q-98 39 -141 39q-58 0 -92 -67q-9 -19 -23 -19z
M340 575q0 -201 90 -335t232 -134q131 0 208.5 103.5t77.5 267.5q0 201 -88 332q-89 133 -229 133q-131 0 -211 -100t-80 -267zM1219 528q0 -227 -164 -391q-165 -160 -410 -160q-261 0 -418 148q-155 146 -155 395q0 223 164 387q165 162 413 162q262 0 416 -151t154 -390z
" />
    <glyph glyph-name="odieresis" unicode="&#xf6;" horiz-adv-x="1290" 
d="M936 1440q20 -20 20 -94q0 -73 -20 -93q-28 -22 -94 -22q-69 0 -92 23t-23 92q0 64 23 94q20 20 92 20q74 0 94 -20zM541 1440q22 -28 22 -94q0 -71 -22 -93q-28 -22 -95 -22q-69 0 -91.5 23t-22.5 92q0 66 22 94q20 20 95 20q72 0 92 -20zM340 575q0 -201 90 -335
t232 -134q131 0 208.5 103.5t77.5 267.5q0 201 -88 332q-89 133 -229 133q-131 0 -211 -100t-80 -267zM1219 528q0 -227 -164 -391q-165 -160 -410 -160q-261 0 -418 148q-155 146 -155 395q0 223 164 387q165 162 413 162q262 0 416 -151t154 -390z" />
    <glyph glyph-name="divide" unicode="&#xf7;" horiz-adv-x="1462" 
d="M866 408q0 -56 -39 -96t-96 -40q-55 0 -95 40t-40 96q0 57 39.5 97t95.5 40q57 0 96 -40t39 -97zM868 1061q0 -57 -40 -96t-97 -39q-56 0 -95.5 39t-39.5 96q0 55 40 95t95 40q57 0 97 -39.5t40 -95.5zM197 690v82q0 27 26 27h1016q27 0 27 -27v-82q0 -26 -27 -26h-1016
q-26 0 -26 26z" />
    <glyph glyph-name="oslash" unicode="&#xf8;" horiz-adv-x="1300" 
d="M385 350q3 -8 10 -8q5 0 11 6l430 465q15 15 0 35q-82 94 -203 94q-129 0 -209 -101t-80 -266q0 -122 41 -225zM666 106q127 0 207.5 101.5t80.5 275.5q0 115 -39 213q-3 13 -10 13q-4 0 -8 -4l-428 -465q-19 -19 -4 -39q83 -95 201 -95zM1190 1024l-90 -98
q-17 -17 -2 -37q127 -151 127 -361q-3 -228 -166 -391q-165 -160 -410 -160q-181 0 -323 80q-12 4 -13 4q-6 0 -14 -8l-35 -37q-16 -16 -39 -16h-104q-17 0 -17 12q0 6 7 13l94 104q13 13 0 25q-129 141 -129 364q3 232 164 389q164 159 409 162q187 0 318 -76q12 -6 18 -6
q9 0 21 12l32 35q13 13 31 13h111q16 0 16 -11q0 -6 -6 -12z" />
    <glyph glyph-name="ugrave" unicode="&#xf9;" horiz-adv-x="1384" 
d="M936 1047h340q74 0 74 -46q0 -19 -12 -28.5t-31 -17t-27 -15.5q-49 -21 -71.5 -71t-28.5 -167l-6 -176q-6 -205 -48 -303q-105 -246 -442 -246q-314 0 -434 211q-57 99 -57 342v228q0 94 -9.5 127.5t-46.5 56.5q-4 3 -23.5 12.5t-23.5 12.5q-20 15 -20 37q0 43 61 43h375
q61 0 61 -43q0 -19 -8 -27q-5 -6 -31 -19.5t-28 -15.5q-36 -23 -47 -57.5t-11 -116.5q0 -156 2 -219q3 -195 31 -262q65 -154 260 -154q235 0 287 211q20 73 20 234q0 13 -4 127q-6 112 -28 159.5t-70 69.5q-80 25 -80 63q0 50 76 50zM760 1264l-309 190q-13 10 -13 16
q0 17 27 17h246q55 0 86 -31l202 -192q7 -7 7 -13q0 -12 -19 -12h-137q-48 0 -90 25z" />
    <glyph glyph-name="uacute" unicode="&#xfa;" horiz-adv-x="1384" 
d="M936 1047h340q74 0 74 -46q0 -19 -12 -28.5t-31 -17t-27 -15.5q-49 -21 -71.5 -71t-28.5 -167l-6 -176q-6 -205 -48 -303q-105 -246 -442 -246q-314 0 -434 211q-57 99 -57 342v228q0 94 -9.5 127.5t-46.5 56.5q-4 3 -23.5 12.5t-23.5 12.5q-20 15 -20 37q0 43 61 43h375
q61 0 61 -43q0 -19 -8 -27q-5 -6 -31 -19.5t-28 -15.5q-36 -23 -47 -57.5t-11 -116.5q0 -156 2 -219q3 -195 31 -262q65 -154 260 -154q235 0 287 211q20 73 20 234q0 13 -4 127q-6 112 -28 159.5t-70 69.5q-80 25 -80 63q0 50 76 50zM1010 1454l-299 -190q-42 -25 -90 -25
h-138q-18 0 -18 12q0 7 6 13l191 190q29 33 86 33h245q27 0 27 -17q0 -9 -10 -16z" />
    <glyph glyph-name="ucircumflex" unicode="&#xfb;" horiz-adv-x="1384" 
d="M936 1047h340q74 0 74 -46q0 -19 -12 -28.5t-31 -17t-27 -15.5q-49 -21 -71.5 -71t-28.5 -167l-6 -176q-6 -205 -48 -303q-105 -246 -442 -246q-314 0 -434 211q-57 99 -57 342v228q0 94 -9.5 127.5t-46.5 56.5q-4 3 -23.5 12.5t-23.5 12.5q-20 15 -20 37q0 43 61 43h375
q61 0 61 -43q0 -19 -8 -27q-5 -6 -31 -19.5t-28 -15.5q-36 -23 -47 -57.5t-11 -116.5q0 -156 2 -219q3 -195 31 -262q65 -154 260 -154q235 0 287 211q20 73 20 234q0 13 -4 127q-6 112 -28 159.5t-70 69.5q-80 25 -80 63q0 50 76 50zM524 1229h-100q-12 0 -12 8q0 1 30 41
l154 188q18 21 43 21h160q26 0 41 -21l170 -206q16 -19 16 -23q0 -8 -12 -8h-103q-21 0 -37 16l-149 139q-5 4 -6 4t-6 -4l-152 -141q-14 -14 -37 -14z" />
    <glyph glyph-name="udieresis" unicode="&#xfc;" horiz-adv-x="1384" 
d="M936 1047h340q74 0 74 -46q0 -19 -12 -28.5t-31 -17t-27 -15.5q-49 -21 -71.5 -71t-28.5 -167l-6 -176q-6 -205 -48 -303q-105 -246 -442 -246q-314 0 -434 211q-57 99 -57 342v228q0 94 -9.5 127.5t-46.5 56.5q-4 3 -23.5 12.5t-23.5 12.5q-20 15 -20 37q0 43 61 43h375
q61 0 61 -43q0 -19 -8 -27q-5 -6 -31 -19.5t-28 -15.5q-36 -23 -47 -57.5t-11 -116.5q0 -156 2 -219q3 -195 31 -262q65 -154 260 -154q235 0 287 211q20 73 20 234q0 13 -4 127q-6 112 -28 159.5t-70 69.5q-80 25 -80 63q0 50 76 50zM1004 1440q20 -20 20 -94
q0 -73 -20 -93q-28 -22 -95 -22q-69 0 -91.5 23t-22.5 92q0 66 22 94q20 20 92 20q75 0 95 -20zM608 1440q23 -30 23 -94q0 -70 -23 -93q-28 -22 -94 -22q-69 0 -92 23t-23 92q0 64 23 94q20 20 94 20q72 0 92 -20z" />
    <glyph glyph-name="yacute" unicode="&#xfd;" horiz-adv-x="1302" 
d="M909 1047h318q71 0 71 -43q0 -17 -21.5 -33.5t-64.5 -40t-65 -39.5q-60 -44 -133 -131l-246 -301q-6 -9 -6 -27v-94q3 -121 24 -168q19 -36 70 -72q43 -27 43 -53q0 -45 -68 -45h-389q-67 0 -67 45q0 26 43 53q52 34 69 72q22 49 25 168v33q0 24 -8 35l-232 323
q-97 135 -153 180q-18 15 -72 47q-35 21 -35 45q0 46 68 46h407q62 0 62 -41q0 -24 -31 -43q-45 -26 -45 -58q0 -38 51 -106l156 -207q7 -12 14 -11.5t19 13.5q33 40 125 158q80 109 80 147t-44 59q-34 15 -34 46q0 43 69 43zM963 1454l-299 -190q-42 -25 -91 -25h-137
q-18 0 -18 12q0 7 6 13l190 190q29 33 86 33h246q27 0 27 -17q0 -9 -10 -16z" />
    <glyph glyph-name="thorn" unicode="&#xfe;" horiz-adv-x="1148" 
d="M485 360h47q263 0 263 177q0 67 -33 106q-53 68 -223 68h-47q-25 0 -25 -25v-307q0 -19 18 -19zM981 745q88 -73 88 -194q0 -69 -31 -129q-102 -191 -465 -191h-79q-19 0 -19 -14q4 -32 14 -53q20 -39 70 -66q45 -23 45 -53q0 -45 -72 -45h-378q-72 0 -72 45q0 27 45 53
q52 29 70 74q22 55 22 199v350q0 122 -8 158q-9 40 -47 63q-9 6 -25.5 14t-24 13t-14 14.5t-6.5 22.5q0 41 62 41h374q62 0 62 -41q3 -8 -1 -15.5t-13.5 -15t-18 -12.5t-21 -11.5t-16.5 -9.5q-49 -30 -49 -84q0 -20 19 -20h32q99 0 185 -4q75 -5 150 -27t122 -62z" />
    <glyph glyph-name="ydieresis" unicode="&#xff;" horiz-adv-x="1302" 
d="M909 1047h318q71 0 71 -43q0 -17 -21.5 -33.5t-64.5 -40t-65 -39.5q-60 -44 -133 -131l-246 -301q-6 -9 -6 -27v-94q3 -121 24 -168q19 -36 70 -72q43 -27 43 -53q0 -45 -68 -45h-389q-67 0 -67 45q0 26 43 53q52 34 69 72q22 49 25 168v33q0 24 -8 35l-232 323
q-97 135 -153 180q-18 15 -72 47q-35 21 -35 45q0 46 68 46h407q62 0 62 -41q0 -24 -31 -43q-45 -26 -45 -58q0 -38 51 -106l156 -207q7 -12 14 -11.5t19 13.5q33 40 125 158q80 109 80 147t-44 59q-34 15 -34 46q0 43 69 43zM983 1440q21 -21 21 -94q0 -72 -21 -93
q-28 -22 -94 -22q-69 0 -92 23t-23 92q0 64 23 94q20 20 92 20q74 0 94 -20zM588 1440q22 -28 22 -94q0 -71 -22 -93q-28 -22 -94 -22q-69 0 -92 23t-23 92q0 66 22 94q20 20 95 20q72 0 92 -20z" />
    <glyph glyph-name="dotlessi" unicode="&#x131;" horiz-adv-x="688" 
d="M469 750v-369q0 -152 23 -209q19 -45 69 -74q45 -26 45 -53q0 -45 -71 -45h-381q-72 0 -72 45q0 27 45 53q52 29 70 74q22 55 22 199v377q0 104 -8 135q-10 37 -47 59q-9 6 -25.5 14t-24 13t-14 14.5t-6.5 22.5q0 41 64 41h372q64 0 64 -41q3 -8 -1 -15.5t-13.5 -15
t-18 -12.5t-21 -11.5t-16.5 -9.5q-37 -24 -46 -59t-9 -133z" />
    <glyph glyph-name="Lslash" unicode="&#x141;" horiz-adv-x="1208" 
d="M1130 430q76 0 76 -61q0 -19 -14 -74q-16 -71 -23 -117q-11 -79 -26 -118.5t-45 -59.5q-26 -16 -68 -16q-23 0 -127 8q-101 8 -237 8h-494q-72 0 -72 45q0 27 45 53q49 26 70 74q23 61 23 213v211l-111 -49q-12 -4 -16 -4q-13 0 -13 12v96q0 20 21 29l119 55v451
q0 82 -10 115.5t-46 56.5q-10 6 -26 14t-23 12.5t-13.5 14t-6.5 22.5q0 41 63 41h397q64 0 64 -41q3 -8 -1 -15.5t-13 -14.5t-18 -12.5t-21 -11.5t-17 -9q-36 -23 -45.5 -59t-9.5 -132v-313l227 100q12 4 15 4q12 0 12 -12v-94q0 -22 -18 -31l-236 -106v-355
q0 -49 0.5 -69.5t3 -51t4 -39.5t10 -24.5t14.5 -18t23 -9t30.5 -7.5t41.5 -4q73 0 131 15q97 21 154 65q60 50 120 145q26 39 43.5 53.5t42.5 14.5z" />
    <glyph glyph-name="lslash" unicode="&#x142;" horiz-adv-x="1153" 
d="M1077 383q74 0 74 -64q0 -11 -16 -102l-9 -49q-9 -70 -20 -102q-30 -82 -115 -82q-26 0 -127 8t-233 8h-451q-71 0 -71 45q0 27 45 53q50 29 69 74q23 58 23 213v10l-105 -47q-15 -6 -18 -6q-17 0 -17 16v93q0 21 21 30l119 54v200q0 113 -8 146q-9 41 -48 61
q-9 6 -25.5 14.5t-23.5 13t-13.5 14t-6.5 22.5q0 41 63 41h373q64 0 64 -41q3 -8 -1 -15.5t-13.5 -15t-18 -12.5t-21 -11.5t-16.5 -9.5q-36 -23 -45.5 -58.5t-9.5 -131.5v-107l204 90q15 6 21 6q14 0 14 -14v-92q0 -22 -20 -31l-219 -98v-189q0 -89 7 -123t32 -51
q30 -18 96 -18q68 0 125 14q78 20 127 56q47 38 104 118q32 44 48 57t42 13z" />
    <glyph glyph-name="OE" unicode="&#x152;" horiz-adv-x="2131" 
d="M377 758q0 -304 135 -473q134 -168 358 -168q86 0 119 33q37 34 37 235v772q0 81 -6.5 111.5t-30.5 50.5q-39 33 -147 33q-226 0 -346 -176q-119 -174 -119 -418zM1989 430q73 0 73 -59q0 -25 -14 -82q-6 -27 -18.5 -95.5t-14.5 -80.5q-12 -60 -40.5 -94.5t-86.5 -34.5
q-26 0 -127 8t-237 8h-428q-48 0 -131 -12q-89 -13 -140 -13q-349 0 -551 211q-200 212 -200 543q0 307 205 531q203 222 532 225q47 0 150 -11.5t137 -11.5h403q121 0 256 6q135 9 152 9q4 0 14.5 -1t13.5 -1q51 -6 54 -64q2 -10 2 -65q2 -33 2 -72q0 -35 2 -74
q4 -74 4 -76q0 -41 -13 -57t-46 -16q-35 0 -50.5 13t-38.5 62q-4 7 -15 32t-19 38q-26 58 -84 90q-71 41 -279 41h-106q-29 0 -39.5 -11t-10.5 -38v-387q0 -32 11 -42.5t43 -10.5q108 0 202 4q182 12 195 12q70 0 70 -43q0 -4 -3 -20t-3 -21q-9 -62 -27 -74q-20 -14 -78 -14
q-49 0 -90 2q-15 1 -35 2t-30.5 1.5t-16.5 0.5q-168 4 -209 4q-29 0 -29 -28v-336q0 -93 7 -127t32 -47q31 -17 115 -17q110 0 172 15q101 21 156 67q57 48 119 143q44 68 88 68z" />
    <glyph glyph-name="oe" unicode="&#x153;" horiz-adv-x="1847" 
d="M346 535q0 -202 105 -316q106 -115 251 -115q62 0 95 33q26 26 33.5 73.5t7.5 168.5v389q0 122 -37 152q-33 26 -105 26q-157 0 -254 -112q-96 -113 -96 -299zM1698 385q76 0 76 -57q0 -17 -19 -117l-10 -53q-9 -70 -21 -101q-15 -37 -40.5 -55t-73.5 -18q-20 0 -119 8
t-234 8h-311q-28 0 -65 -6q-122 -17 -183 -17q-277 0 -454 154q-172 153 -172 387q0 247 184 397q190 152 469 152q81 0 164 -14q37 -6 72 -6h274q122 0 254 6q117 8 149 8q79 0 82 -66q4 -78 4 -118q0 -25 2 -58q3 -49 3 -67q0 -40 -17.5 -57t-56.5 -17q-28 0 -40.5 11.5
t-43.5 60.5q-3 4 -16.5 26t-18.5 29q-30 49 -72 76q-59 39 -219 39h-110q-28 0 -39 -11.5t-11 -38.5v-217q0 -30 11 -39.5t43 -9.5q59 0 137 4q27 2 89 8.5t77 6.5q69 0 69 -43q0 -1 -4 -37q-6 -44 -26 -59t-74 -15q-41 0 -78 2q-70 4 -80 4q-33 2 -135 2q-29 0 -29 -28
v-132q0 -91 7 -126t32 -48q32 -16 105 -16q89 0 149 14q79 17 127 56q43 35 103 116q4 6 12.5 16.5t11.5 14t9 11t8.5 9.5t7.5 6.5t8.5 5.5t9 3.5t11 3.5t12.5 2z" />
    <glyph glyph-name="Scaron" unicode="&#x160;" horiz-adv-x="1230" 
d="M1026 1376q53 -53 53 -200q2 -61 -11 -90t-58 -35q-35 0 -60 32q-7 8 -34.5 46t-56 74t-50.5 57q-96 90 -207 90q-97 0 -162 -57t-65 -142q0 -129 151 -197q49 -20 176 -63q127 -40 206 -81.5t134 -100.5q101 -107 101 -256q0 -98 -43 -183q-69 -141 -208.5 -215.5
t-334.5 -74.5q-154 0 -277.5 43.5t-170.5 117.5q-28 42 -37 164q0 7 -3 42.5t-3 43.5q0 38 17.5 59t47.5 21q38 0 64 -39q82 -119 108 -145q147 -164 315 -164q118 0 194.5 65.5t76.5 167.5q0 122 -107 189q-65 42 -223 92q-157 54 -229 92q-207 112 -207 320q0 153 110 272
q111 117 273 152q60 14 147 14q118 0 220 -30t153 -81zM817 1870h101q12 0 12 -8q0 -1 -3 -5t-11.5 -14.5t-16.5 -21.5l-154 -189q-17 -20 -43 -20h-159q-27 0 -41 20l-170 207q-17 20 -17 23q0 8 13 8h102q20 0 37 -17l149 -139q4 -4 6 -4t7 4l151 141q15 15 37 15z" />
    <glyph glyph-name="scaron" unicode="&#x161;" horiz-adv-x="1081" 
d="M135 369q27 0 43 -13q13 -9 47.5 -51.5t48.5 -56.5q131 -137 293 -137q86 0 146.5 42.5t60.5 102.5q0 48 -36 79t-93.5 46.5t-126.5 28t-138.5 31.5t-127 47.5t-93.5 86t-36 138.5q0 158 139 258q137 98 336 98q163 0 266 -59q55 -30 71.5 -64.5t16.5 -111.5
q0 -111 -69 -111q-27 0 -43.5 13.5t-55.5 62.5q-104 137 -245 137q-77 0 -129 -36.5t-52 -88.5q0 -59 50 -86.5t182 -52.5q141 -26 237 -68q185 -74 185 -262q0 -79 -41.5 -152.5t-118.5 -126.5q-127 -86 -326 -86q-111 0 -233 29q-114 30 -160 70q-65 53 -65 196
q0 97 67 97zM731 1487h100q13 0 13 -8q0 -1 -3 -5t-11.5 -14.5t-16.5 -21.5l-154 -189q-17 -20 -43 -20h-159q-27 0 -41 20l-170 207q-17 20 -17 23q0 8 13 8h102q20 0 37 -17l149 -139q6 -7 13 0l151 142q14 14 37 14z" />
    <glyph glyph-name="Ydieresis" unicode="&#x178;" horiz-adv-x="1458" 
d="M1059 1462h321q72 0 72 -43q0 -26 -35 -47q-58 -40 -102 -90q-61 -70 -133 -184l-320 -510q-6 -9 -6 -25v-176q0 -162 25 -217q19 -44 69 -72q43 -24 43 -53q0 -45 -67 -45h-412q-68 0 -68 45q0 29 43 53q51 29 70 72q25 55 25 217v113q0 17 -9 32q-327 591 -350 639
q-58 116 -100 158q-21 21 -68 45q-32 17 -32 43q0 45 69 45h410q61 0 61 -41q0 -26 -35 -47q-38 -23 -43 -28q-12 -15 -12 -37q0 -38 37 -105l260 -475q2 -6 8 -6t11 6l215 352q86 139 86 203q0 50 -66 88q-33 17 -33 43q0 47 66 47zM1071 1808q21 -21 21 -94q0 -71 -21 -92
q-30 -23 -94 -23q-69 0 -92 23t-23 92q0 64 23 94q21 21 92 21q73 0 94 -21zM676 1808q22 -28 22 -94q0 -70 -22 -92q-30 -23 -94 -23q-69 0 -92 23t-23 92q0 66 22 94q21 21 95 21q71 0 92 -21z" />
    <glyph glyph-name="Zcaron" unicode="&#x17d;" horiz-adv-x="1300" 
d="M1171 430q74 0 74 -65q0 -23 -12 -64q-13 -45 -25 -119q-11 -81 -25.5 -122t-43.5 -60q-26 -16 -68 -16q-23 0 -127 8q-101 8 -237 8h-580q-30 0 -39.5 10t-9.5 43q0 75 22 111l756 1143q1 2 2 4.5t1.5 3.5t0.5 2q0 8 -14 8h-158q-245 0 -319 -41q-30 -16 -60 -49
q-12 -15 -20.5 -28.5t-12.5 -22t-12.5 -28.5t-13.5 -32q-17 -42 -33 -57.5t-41 -15.5q-16 0 -26 2t-22.5 8t-19 22t-6.5 41l1 16q1 15 2.5 51t3.5 77q0 65 4 143q1 37 22 51.5t66 14.5q19 0 151 -9q132 -6 250 -6h549q31 0 41 -9.5t10 -39.5q0 -72 -28 -117l-750 -1136
l-6 -13q0 -8 12 -8q310 0 381 15q102 22 154 65q54 43 118 141q46 70 88 70zM858 1870h100q13 0 13 -8q0 -1 -3 -5t-11.5 -14.5t-16.5 -21.5l-154 -189q-17 -20 -43 -20h-159q-27 0 -41 20l-170 207q-17 20 -17 23q0 8 13 8h102q20 0 37 -17l149 -139q3 -3 5 -4t3.5 0t4.5 4
l151 141q15 15 37 15z" />
    <glyph glyph-name="zcaron" unicode="&#x17e;" horiz-adv-x="1212" 
d="M1077 387q70 0 70 -61q0 -15 -17 -95q-4 -17 -12 -71.5t-12 -71.5q-12 -51 -38 -77.5t-85 -26.5q-26 0 -127 8t-233 8h-492q-30 0 -40.5 9t-10.5 38q0 56 5.5 77t25.5 46l632 729q7 7 7 12q0 11 -17 11h-117q-177 0 -245 -39q-63 -34 -119 -142q-34 -63 -78 -63
q-70 0 -70 78q0 40 2 71q3 49 3 60q0 77 2 108q3 66 84 66q32 0 149 -8q135 -6 256 -6h455q35 0 48 -10.5t13 -39.5q0 -82 -41 -129l-618 -712q-11 -15 -11 -19q0 -8 13 -8q159 0 268 16q95 17 151.5 56t114.5 125q40 61 84 61zM815 1487h100q13 0 13 -8q0 -1 -3 -5
t-11.5 -14.5t-16.5 -21.5l-154 -189q-17 -20 -43 -20h-159q-27 0 -41 20l-170 207q-17 20 -17 23q0 8 13 8h102q20 0 37 -17l149 -139q6 -7 13 0l151 142q14 14 37 14z" />
    <glyph glyph-name="florin" unicode="&#x192;" horiz-adv-x="1286" 
d="M1100 1530q160 0 160 -123q0 -86 -62 -86q-26 0 -55 29q-49 49 -88 49q-66 0 -112 -98t-89 -310q-2 -6 -2 -16q0 -12 14 -12h181q24 0 24 -17q0 -8 -2 -14l-14 -74q-6 -22 -33 -22h-180q-16 0 -19 -17l-45 -252q-72 -403 -133 -567q-65 -174 -168 -274
q-124 -121 -289 -121q-161 0 -161 123q0 86 63 86q27 0 53 -29q46 -49 86 -49q89 0 136 145q49 153 112 514q6 39 16 94t11 58l24 139l23 125q2 8 2 16q0 9 -12 9h-170q-29 0 -29 16q0 8 2 14l14 72q6 25 33 25h178q17 0 23 16q41 160 91.5 257.5t125.5 172.5
q124 121 291 121z" />
    <glyph glyph-name="circumflex" unicode="&#x2c6;" horiz-adv-x="1097" 
d="M354 1229h-100q-12 0 -12 8q0 1 30 41l154 188q18 21 43 21h160q26 0 41 -21l170 -206q16 -19 16 -23q0 -8 -12 -8h-103q-20 0 -36 16l-150 139q-5 4 -6 4t-6 -4l-152 -141q-14 -14 -37 -14z" />
    <glyph glyph-name="caron" unicode="&#x2c7;" horiz-adv-x="1097" 
d="M743 1487h101q12 0 12 -8q0 -1 -3 -5t-11.5 -14.5t-16.5 -21.5l-153 -189q-17 -20 -43 -20h-160q-27 0 -41 20l-170 207q-16 19 -16 23q0 8 12 8h102q20 0 37 -17l150 -139q5 -5 6 -5t6 5l152 142q14 14 36 14z" />
    <glyph glyph-name="breve" unicode="&#x2d8;" horiz-adv-x="985" 
d="M494 1229q-112 0 -183 65q-67 64 -67 142q0 51 41 51q26 0 45 -31q61 -98 164 -98q105 0 163 98q19 31 43 31q41 0 41 -51q0 -79 -71 -144q-69 -63 -176 -63z" />
    <glyph glyph-name="dotaccent" unicode="&#x2d9;" horiz-adv-x="714" 
d="M451 1440q22 -28 22 -94q0 -71 -22 -93q-28 -22 -95 -22q-69 0 -91.5 23t-22.5 92q0 66 22 94q20 20 94 20q73 0 93 -20z" />
    <glyph glyph-name="ring" unicode="&#x2da;" horiz-adv-x="856" 
d="M332 1346q0 -38 29 -67.5t67 -29.5t67 29.5t29 67.5q0 41 -27.5 69.5t-68.5 28.5t-68.5 -28.5t-27.5 -69.5zM295 1217q-54 54 -54 129t54 129q55 55 132.5 55t131.5 -55q55 -54 55 -129t-55 -129q-54 -54 -131 -54t-133 54z" />
    <glyph glyph-name="ogonek" unicode="&#x2db;" horiz-adv-x="880" 
d="M629 -260q26 0 26 -25q0 -22 -28 -47q-69 -63 -176 -63q-93 0 -157.5 51.5t-64.5 128.5q0 117 123 225l84 -8q-33 -82 -33 -145q0 -68 38.5 -104t93.5 -36q20 0 54 11.5t40 11.5z" />
    <glyph glyph-name="tilde" unicode="&#x2dc;" horiz-adv-x="1200" 
d="M295 1253l-37 13q-14 6 -14 18q0 22 28 76q65 127 189 127q64 0 143 -33q125 -49 170 -49q57 0 98 65q9 15 21 15q1 0 3 -0.5t6.5 -1.5t8.5 -2l29 -8q16 -3 16 -19t-24 -65q-68 -136 -191 -136q-64 0 -174 43q-98 39 -141 39q-58 0 -92 -67q-10 -19 -23 -19z" />
    <glyph glyph-name="hungarumlaut" unicode="&#x2dd;" horiz-adv-x="1290" 
d="M639 1253q0 38 139 174q63 60 137 60q134 0 134 -47q0 -17 -22.5 -37t-106.5 -80q-92 -64 -136 -78q-50 -16 -106 -16q-39 0 -39 24zM244 1253q0 38 139 174q63 60 137 60q133 0 133 -47q0 -17 -22.5 -37t-106.5 -80q-93 -64 -135 -78q-50 -16 -106 -16q-39 0 -39 24z
" />
    <glyph glyph-name="pi" unicode="&#x3c0;" horiz-adv-x="1425" 
d="M1040 840h-22q-18 0 -21 -19q-26 -169 -26 -325q0 -120 18 -193q27 -104 80 -104q25 0 55 30q33 33 52 33q41 0 41 -53q0 -78 -66 -156q-64 -76 -154 -76q-96 0 -156 93t-61 276q0 186 66 459q8 28 8 31q0 10 -16 10l-244 12q-21 0 -21 -18q-3 -220 -30 -404
q-41 -286 -127 -401q-43 -58 -88 -58q-28 0 -72 29q-55 46 -55 76q0 11 10 24q12 12 49 23q73 22 125 246q49 206 61 465q0 16 -18 16q-118 -9 -195 -68q-30 -24 -49 -24q-45 0 -45 43q0 10 11 43q46 125 126 190q55 43 183 43q109 0 248 -8q156 -6 223 -6q112 0 170 13.5
t92 52.5q27 34 49 34q43 0 43 -43q0 -24 -12 -73q-3 -10 -12.5 -55t-12.5 -58q-16 -49 -51 -72q-42 -28 -156 -28z" />
    <glyph glyph-name="endash" unicode="&#x2013;" horiz-adv-x="1431" 
d="M82 489v142q0 26 27 26h1214q27 0 27 -26v-142q0 -26 -27 -26h-1214q-27 0 -27 26z" />
    <glyph glyph-name="emdash" unicode="&#x2014;" horiz-adv-x="2011" 
d="M82 489v142q0 26 27 26h1794q26 0 26 -26v-142q0 -26 -26 -26h-1794q-27 0 -27 26z" />
    <glyph glyph-name="quoteleft" unicode="&#x2018;" horiz-adv-x="608" 
d="M182 887q-61 76 -61 153q0 134 147 301q54 63 110 104.5t87 41.5q20 0 35.5 -14.5t15.5 -34.5q0 -17 -12 -29l-8 -5q-7 -5 -17.5 -13t-23 -18t-26 -22.5t-23.5 -23.5q-64 -70 -64 -125q0 -51 61 -115q72 -78 72 -112q0 -42 -65 -107q-63 -63 -105 -63q-24 0 -60.5 25
t-62.5 57z" />
    <glyph glyph-name="quoteright" unicode="&#x2019;" horiz-adv-x="608" 
d="M426 1405q61 -76 61 -154q0 -135 -147 -301q-54 -63 -110 -104t-87 -41q-20 0 -35.5 14.5t-15.5 34.5q0 17 12 29l8 5q7 5 18 13t23.5 18t26 22.5t23.5 23.5q63 69 63 125q0 50 -61 114q-72 78 -72 113q0 40 64 104q66 66 106 66q24 0 60.5 -25t62.5 -57z" />
    <glyph glyph-name="quotesinglbase" unicode="&#x201a;" horiz-adv-x="579" 
d="M426 240q61 -76 61 -154q0 -135 -147 -301q-54 -63 -110 -104t-87 -41q-20 0 -35.5 14.5t-15.5 34.5q0 16 12 28l8 5q7 5 18 13t23.5 18t26 22.5t23.5 23.5q63 69 63 125q0 51 -61 115q-72 78 -72 113q0 40 64 104q66 66 106 66q24 0 60.5 -25t62.5 -57z" />
    <glyph glyph-name="quotedblleft" unicode="&#x201c;" horiz-adv-x="1083" 
d="M182 887q-61 76 -61 153q0 134 147 301q54 63 110 104.5t87 41.5q20 0 35.5 -14.5t15.5 -34.5q0 -17 -12 -29l-8 -5q-7 -5 -17.5 -13t-23 -18t-26 -22.5t-23.5 -23.5q-64 -70 -64 -125q0 -51 61 -115q72 -78 72 -112q0 -42 -65 -107q-63 -63 -105 -63q-24 0 -60.5 25
t-62.5 57zM657 887q-61 76 -61 153q0 134 147 301q54 63 110 104.5t87 41.5q20 0 35.5 -14.5t15.5 -34.5q0 -17 -12 -29l-7 -5q-8 -5 -18.5 -13t-23 -18t-26 -22.5t-23.5 -23.5q-64 -70 -64 -125q0 -50 62 -115q71 -77 71 -112q0 -42 -65 -107q-63 -63 -105 -63
q-24 0 -60.5 25t-62.5 57z" />
    <glyph glyph-name="quotedblright" unicode="&#x201d;" horiz-adv-x="1083" 
d="M901 1405q62 -77 62 -154q0 -133 -148 -301q-54 -63 -110 -104t-87 -41q-20 0 -35.5 14.5t-15.5 34.5q0 16 13 29l8 5q7 5 17.5 13t23 18t26 22.5t23.5 23.5q63 69 63 125q0 50 -61 114q-72 78 -72 113q0 40 64 104q66 66 106 66q24 0 60.5 -25t62.5 -57zM426 1405
q61 -76 61 -154q0 -135 -147 -301q-54 -63 -110 -104t-87 -41q-20 0 -35.5 14.5t-15.5 34.5q0 17 12 29l8 5q7 5 18 13t23.5 18t26 22.5t23.5 23.5q63 69 63 125q0 50 -61 114q-72 78 -72 113q0 40 64 104q66 66 106 66q24 0 60.5 -25t62.5 -57z" />
    <glyph glyph-name="quotedblbase" unicode="&#x201e;" horiz-adv-x="1083" 
d="M901 240q62 -77 62 -154q0 -133 -148 -301q-54 -63 -110 -104t-87 -41q-20 0 -35.5 14.5t-15.5 34.5q0 15 13 28l8 5q7 5 17.5 13t23 18t26 22.5t23.5 23.5q63 69 63 125q0 51 -61 115q-72 78 -72 113q0 40 64 104q66 66 106 66q24 0 60.5 -25t62.5 -57zM426 240
q61 -76 61 -154q0 -135 -147 -301q-54 -63 -110 -104t-87 -41q-20 0 -35.5 14.5t-15.5 34.5q0 16 12 28l8 5q7 5 18 13t23.5 18t26 22.5t23.5 23.5q63 69 63 125q0 51 -61 115q-72 78 -72 113q0 40 64 104q66 66 106 66q24 0 60.5 -25t62.5 -57z" />
    <glyph glyph-name="dagger" unicode="&#x2020;" horiz-adv-x="913" 
d="M741 1257q74 0 74 -67q0 -8 -2 -36.5t-2 -31.5q0 -4 2 -30t2 -33q0 -72 -74 -72q-29 0 -141 53q-46 21 -72 21q-16 0 -16 -17q-2 -12 7.5 -40.5t21 -53t25 -53t14.5 -29.5q10 -33 10 -61q0 -37 -12 -119q-31 -193 -50 -452q-3 -23 -6 -72.5t-6 -69.5q-7 -94 -65 -94
q-25 0 -37.5 13t-24.5 42q-7 21 -12 82q0 24 -6 99q-20 271 -49 452q-11 79 -11 111q0 27 11 69q1 6 19 44.5t33.5 78t12.5 53.5q0 17 -16 17q-29 0 -70 -21q-30 -18 -72 -36q-40 -17 -71 -17q-72 0 -72 76q0 8 1 32t1 27q0 4 -1 28.5t-1 29.5q0 77 72 77q33 0 112 -36
q81 -37 101 -37q16 0 16 18q0 32 -20 76q-4 8 -18.5 36t-16.5 32q-17 34 -17 69q0 72 80 72q5 0 28.5 -1t27.5 -1t27 1t28 1q80 0 80 -72q0 -35 -17 -69l-34 -68q-23 -54 -23 -78q0 -16 16 -16q24 0 105 37q70 33 108 36z" />
    <glyph glyph-name="daggerdbl" unicode="&#x2021;" horiz-adv-x="913" 
d="M743 502q72 0 72 -74q0 -8 -1 -34t-1 -29q0 -2 1 -31t1 -37q0 -70 -70 -70q-37 0 -114 41q-59 33 -101 33q-18 0 -18 -16q0 -27 18 -64q3 -4 39 -76q19 -38 19 -75q0 -70 -82 -70q-5 0 -28 1t-27 1q-3 0 -26.5 -1t-31.5 -1q-36 0 -58 19t-22 53q0 35 19 73l39 76
q18 37 18 66q0 14 -14 14q-30 0 -94 -31q-85 -43 -121 -43q-32 0 -53 19.5t-21 50.5q0 8 2 35t2 30t-1 30.5t-1 35.5q0 74 72 74q33 0 110 -41q67 -37 103 -37q16 0 16 16q0 31 -20 90q-38 121 -47 154q-10 37 -10 59.5t10 59.5l18 59l27 78q22 74 22 107q0 14 -14 14
q-25 0 -80 -25q-105 -51 -137 -51q-70 0 -70 76q0 8 1 33t1 28t-1 29.5t-1 34.5q0 31 19 51t51 20q41 0 108 -34q74 -39 107 -39q16 0 16 16q0 28 -24 78q-50 103 -50 137q0 72 80 72q5 0 28.5 -1t27.5 -1t27 1t28 1q80 0 80 -70q0 -35 -17 -69l-34 -70q-23 -51 -23 -78
q0 -16 16 -16q33 0 107 39q69 34 108 34q72 0 72 -75q0 -8 -1 -32.5t-1 -27.5q0 -4 1 -27t1 -28q0 -82 -72 -82q-22 0 -43 6q-15 6 -98 47q-58 23 -76 23q-14 0 -14 -17q0 -29 23 -106l24 -76l21 -57q12 -37 12 -60q0 -17 -12 -61q-3 -13 -48 -154q-20 -61 -20 -88
q0 -16 16 -16q40 0 99 33q82 43 116 43z" />
    <glyph glyph-name="bullet" unicode="&#x2022;" horiz-adv-x="944" 
d="M471 922q63 0 166 -103q102 -102 102 -166t-102 -166q-100 -100 -166 -100t-166 100q-102 102 -102 166t102 166q103 103 166 103z" />
    <glyph glyph-name="ellipsis" unicode="&#x2026;" horiz-adv-x="1632" 
d="M1540 160q0 -43 -70 -113q-67 -70 -112 -70t-115 70q-67 70 -67 113q0 42 67 112q70 70 115 70t112 -70q70 -67 70 -112zM999 160q0 -44 -69 -113q-67 -70 -113 -70q-45 0 -115 70q-67 70 -67 113q0 42 67 112q70 70 115 70q46 0 113 -70q69 -66 69 -112zM457 160
q0 -43 -70 -113q-67 -70 -113 -70q-44 0 -114 70q-68 71 -68 113q0 41 68 112q70 70 114 70q46 0 113 -70q70 -67 70 -112z" />
    <glyph glyph-name="perthousand" unicode="&#x2030;" horiz-adv-x="2525" 
d="M596 1094q0 129 -36.5 208.5t-96.5 79.5q-129 0 -129 -288q0 -125 37 -207t96 -82q129 0 129 289zM465 700q-166 0 -254 113t-88 281q0 165 98 278q103 115 244 115q154 0 248 -109.5t94 -283.5q0 -176 -100 -285t-242 -109zM2216 371q0 129 -36.5 208.5t-96.5 79.5
q-129 0 -129 -288q0 -125 37 -207t96 -82q129 0 129 289zM2085 -23q-166 0 -254 113t-88 281q0 165 98 278q103 115 244 115q154 0 248 -109.5t94 -283.5q0 -176 -100 -285t-242 -109zM522 0h-149l895 1462h147zM1448 371q0 129 -36.5 208.5t-96.5 79.5q-129 0 -129 -288
q0 -125 37 -207t96 -82q129 0 129 289zM1317 -23q-166 0 -254 113t-88 281q0 165 98 278q103 115 244 115q154 0 248 -109.5t94 -283.5q0 -176 -100 -285t-242 -109z" />
    <glyph glyph-name="guilsinglleft" unicode="&#x2039;" horiz-adv-x="765" 
d="M623 248v-131q0 -15 -9 -15q-5 0 -12 7l-516 454q-12 12 -12 20.5t12 20.5l516 455q4 4 10 4q11 0 11 -12v-129q0 -30 -21 -48l-323 -282q-9 -8 0 -17l325 -284q19 -16 19 -43z" />
    <glyph glyph-name="guilsinglright" unicode="&#x203a;" horiz-adv-x="765" 
d="M143 918v131q0 14 9 14q6 0 12 -6l516 -455q12 -12 12 -20.5t-12 -20.5l-516 -455q-4 -4 -10 -4q-11 0 -11 13v129q0 29 21 47l323 282q9 9 0 17l-325 284q-19 16 -19 44z" />
    <glyph glyph-name="fraction" unicode="&#x2044;" horiz-adv-x="555" 
d="M-211 197l819 1069h158l-817 -1069h-160z" />
    <glyph glyph-name="Euro" unicode="&#x20ac;" horiz-adv-x="1181" 
d="M944 303q64 0 64 -92q0 -124 -60 -184q-50 -50 -176 -50q-275 0 -438 193q-102 122 -137 281q-3 10 -15 10h-114q-23 0 -23 18v72q0 18 21 18h102q12 0 12 11v28q0 2 4 84q0 8 -12 8h-104q-23 0 -23 21v67q0 21 23 21h120q12 0 15 10q36 136 106 234q169 225 445 225
q137 0 188 -51q45 -45 45 -160q0 -102 -67 -102q-37 0 -72 47l-43 59q-16 24 -52.5 47t-74.5 23q-94 0 -152 -94q-55 -89 -77 -228q0 -10 10 -10h426q20 0 20 -16q0 -9 -2 -15l-12 -57q-6 -21 -27 -21h-413q-10 0 -12.5 -10t-2.5 -53q0 -51 2 -55q3 -13 17 -13h381
q18 0 18 -14q0 -8 -2 -14l-12 -60q-3 -20 -27 -20h-350q-10 0 -10 -12q20 -146 84.5 -237t164.5 -91q34 0 66 16t47 35q15 15 37 51l31 43q27 37 61 37z" />
    <glyph glyph-name="uni2117" unicode="&#x2117;" horiz-adv-x="1873" 
d="M479 1190q-188 -191 -188 -459t188 -459q190 -190 457 -190q268 0 455 190q190 190 190 459t-190 459q-187 190 -455 190q-267 0 -457 -190zM182 731q0 314 221 535t533 221q311 0 532 -221q224 -220 224 -535q0 -312 -224 -532q-222 -222 -532 -222q-311 0 -533 222
q-221 221 -221 532zM879 750h43q221 0 221 155q0 55 -27 90q-48 60 -188 60h-49q-17 0 -17 -13v-278q0 -14 17 -14zM1298 1085q74 -68 74 -170q0 -59 -26 -110q-85 -166 -390 -166h-77q-17 0 -17 -14v-33q0 -91 19 -131q21 -45 55 -62q37 -21 37 -41q0 -36 -58 -36h-305
q-55 0 -55 36q0 23 35 41q40 21 55 62q19 43 19 160v311q0 77 -8 105t-38 46q-1 0 -13 6.5t-17 10t-13.5 10t-11 12.5t-0.5 13q0 32 51 32h301q82 0 156 -4q59 -2 122.5 -22.5t104.5 -55.5z" />
    <glyph glyph-name="trademark" unicode="&#x2122;" horiz-adv-x="1421" 
d="M1370 903q0 -26 -41 -26h-215q-41 0 -41 26q0 16 27 31q30 20 39 43q12 27 12 143v207q0 7 -4 6q-4 0 -8 -10l-125 -332q-6 -20 -27 -20h-47q-18 0 -27 20l-125 332q-7 16 -11 9q-1 -2 -1 -5q0 -184 4 -254q9 -105 60 -131q5 -5 15.5 -10t17 -11t6.5 -16q0 -28 -41 -28
h-174q-43 0 -43 26q0 11 18.5 27t24.5 24q33 39 36 197q2 68 2 195q0 20 -4 32q-6 13 -26 21q-43 18 -43 37q0 26 41 26h182q36 0 45 -22l96 -256q9 -23 17 0l94 254q9 24 37 24h186q35 0 35 -24q0 -4 -1 -7t-3.5 -6t-4.5 -5t-6.5 -5t-6.5 -4t-8.5 -4t-8.5 -4
q-20 -17 -25.5 -38.5t-5.5 -82.5v-186q0 -93 13 -119q8 -18 36.5 -41.5t28.5 -32.5zM592 1434q2 -14 2 -78q0 -8 1 -33t1 -29q0 -41 -39 -41q-16 0 -24 7.5t-27 35.5q-34 53 -53 72q-30 23 -66 23q-10 0 -10 -13v-280q0 -86 12 -121q10 -22 39 -43q25 -16 25 -31
q0 -26 -39 -26h-217q-39 0 -39 26q0 16 24 31q30 20 39 43q12 27 12 121v280q0 13 -12 13q-33 0 -63 -23q-29 -23 -56 -72q-24 -43 -47 -43q-43 0 -43 41v68q1 13 1.5 30t1 27t1.5 15q3 39 45 39q3 0 11.5 -1t28 -2.5t38.5 -3.5q94 -4 137 -4h56q43 0 133 4q18 2 38 3.5
t28.5 2.5t11.5 1q46 0 49 -39z" />
    <glyph glyph-name="Omega" unicode="&#x2126;" horiz-adv-x="1783" 
d="M1636 344q45 0 45 -53q0 -21 -16 -119q-3 -10 -9 -52t-9 -50q-2 -14 -11.5 -34.5t-21.5 -25.5q-36 -18 -90 -18q-10 0 -28.5 0.5t-52.5 1.5t-61 2q-144 4 -168 4h-143q-67 0 -84 33q-14 25 -14 61q0 27 26 47q135 106 215 270.5t80 356.5q0 258 -106 418
q-108 164 -297 164t-297 -164q-105 -164 -105 -414q0 -196 80 -360t215 -271q24 -18 26.5 -44.5t-7.5 -49.5q-15 -47 -88 -47h-146q-26 0 -170 -4q-28 -1 -60.5 -2t-50 -1.5t-26.5 -0.5q-51 0 -77 10t-38 35l-12 33q-13 90 -16 102q-17 104 -17 119q0 53 45 53q25 0 52 -35
q36 -45 80 -57q46 -14 213 -14h53q10 0 10 8q0 5 -6 8q-163 96 -257.5 241t-94.5 332q0 271 200 465q201 195 494 195q292 0 493 -195t201 -463q0 -189 -94 -334t-258 -241q-6 -3 -6 -8q0 -8 10 -8h53q164 0 213 14q47 12 80 57q27 35 53 35z" />
    <glyph glyph-name="partialdiff" unicode="&#x2202;" horiz-adv-x="1501" 
d="M711 795q-109 0 -179 -99q-69 -97 -69 -245q0 -145 76 -236q78 -90 184 -90q115 0 184 96q70 94 70 236q0 151 -75.5 244.5t-190.5 93.5zM322 1133q-68 0 -68 96q0 79 49 131q56 58 156.5 92.5t214.5 34.5q299 0 465 -217q168 -216 168 -557q0 -205 -70 -367
q-70 -166 -219 -267.5t-346 -101.5q-209 0 -357 142q-147 141 -147 342q0 211 139 344q141 135 352 135q119 0 214 -58.5t135 -146.5q3 -6 8 -6q6 0 6 8q-6 201 -61 355q-40 113 -115.5 183.5t-179.5 70.5q-63 0 -119 -29q-48 -25 -74.5 -51t-71.5 -88q-20 -29 -34.5 -37
t-44.5 -8z" />
    <glyph glyph-name="increment" unicode="&#x2206;" horiz-adv-x="1464" 
d="M61 35l607 1417q9 25 34 25h109q27 0 37 -23l547 -1423q4 -12 4 -17q0 -14 -21 -14h-1300q-23 0 -23 14q0 9 6 21zM1053 164l-365 950q-8 11 -16 0l-406 -948q-4 -12 -4 -14q0 -13 17 -13h763q15 0 15 11q0 1 -0.5 2.5t-1.5 5t-2 6.5z" />
    <glyph glyph-name="product" unicode="&#x220f;" horiz-adv-x="1865" 
d="M1620 -98q45 -26 45 -54q0 -45 -72 -45h-405q-72 0 -72 45q0 28 45 54q52 30 70 73q22 55 22 211v1121q0 16 -16 16h-610q-17 0 -17 -16v-1121q0 -150 25 -211q21 -46 67 -73t46 -54q0 -45 -70 -45h-408q-69 0 -69 45q0 28 45 54q46 27 67 73q25 61 25 211v969
q0 107 -9 144t-46 59q-12 9 -32 18.5t-29 18t-9 26.5q0 41 61 41h1315q64 0 64 -41q3 -8 -1 -15.5t-13 -14.5t-18 -12.5t-21 -11.5t-17 -9q-37 -22 -46 -59t-9 -144v-969q0 -156 22 -211q18 -43 70 -73z" />
    <glyph glyph-name="summation" unicode="&#x2211;" horiz-adv-x="1208" 
d="M1069 342q43 0 43 -53q0 -1 -1.5 -13t-6 -41.5t-8.5 -62.5l-13 -78q0 -9 -4 -28.5t-8 -24.5q-17 -26 -41.5 -37.5t-77.5 -11.5q-9 0 -26.5 0.5t-50 1.5t-60.5 2q-144 4 -168 4h-469q-37 0 -37 33v69q0 26 19 54l377 532q8 8 8 25q0 11 -8 24l-363 549q-20 29 -20 72v65
q0 39 41 39h376q124 0 256 6q135 9 152 9q79 0 82 -66q2 -20 2 -86q2 -35 2 -70q0 -21 3 -75t3 -62q0 -69 -74 -69q-23 0 -38 14.5t-35 58.5l-13 27q-9 27 -28 57q-23 48 -78 80q-37 23 -86 31q-58 10 -96 10q-29 2 -131 2h-19q-22 0 -22 -14q0 -6 6 -15l309 -477
q14 -20 14 -34t-14 -37l-330 -476q-14 -20 -14 -26q0 -12 16 -12h346q106 0 152 12q41 12 80 57q27 35 53 35z" />
    <glyph glyph-name="minus" unicode="&#x2212;" horiz-adv-x="1462" 
d="M197 690v82q0 27 26 27h1016q27 0 27 -27v-82q0 -26 -27 -26h-1016q-26 0 -26 26z" />
    <glyph glyph-name="radical" unicode="&#x221a;" horiz-adv-x="1519" 
d="M1389 1645v-97q0 -22 -23 -22h-100q-21 0 -27 -21q-1 -6 -10.5 -48t-32 -144t-45.5 -205l-162 -739l-80 -363q-6 -20 -26 -20h-158q-23 0 -29 18q-65 139 -319 762q-9 20 -31 20h-203q-22 0 -22 21v96q0 21 22 21h428q26 0 35 -21l230 -549q3 -10 10 2l4 9l280 1277
q7 23 29 23h207q23 0 23 -20z" />
    <glyph glyph-name="infinity" unicode="&#x221e;" horiz-adv-x="1759" 
d="M506 512q65 0 119.5 36.5t152.5 135.5q-90 96 -147.5 134t-124.5 38q-73 0 -122.5 -50t-49.5 -122q0 -74 49 -123t123 -49zM1253 512q73 0 122.5 49t49.5 123q0 73 -49 121.5t-123 48.5q-65 0 -119.5 -36.5t-150.5 -135.5q91 -96 147.5 -133t122.5 -37zM506 1004
q104 0 187 -50t188 -161q69 68 112 106q48 43 119 74t141 31q142 0 232 -93q92 -89 92 -227q0 -135 -94 -229q-96 -93 -230 -93q-104 0 -185 49.5t-189 163.5q-69 -69 -113 -110q-48 -42 -119 -72.5t-141 -30.5q-136 0 -232 93q-92 95 -92 229t94 225q95 95 230 95z" />
    <glyph glyph-name="integral" unicode="&#x222b;" horiz-adv-x="1036" 
d="M801 1530q96 0 137 -38t41 -97q0 -68 -53 -68q-23 0 -60 29q-46 43 -84 43q-97 0 -118 -230q-11 -139 -11 -424q0 -429 -18 -632q-18 -201 -94 -332q-45 -81 -128 -128.5t-184 -47.5q-86 0 -129 39t-43 98q0 63 56 63q31 0 57 -26q46 -43 86 -43q83 0 104 143
q23 158 23 471q0 496 27 717q27 218 127 340q99 123 264 123z" />
    <glyph glyph-name="approxequal" unicode="&#x2248;" horiz-adv-x="1652" 
d="M528 729q104 0 291 -94t283 -94q112 0 225 96q9 6 16 6q11 0 21 -10l61 -64q7 -11 7 -16q0 -7 -11 -18q-150 -132 -317 -132q-135 0 -348 109q-153 78 -224 78q-83 0 -172 -115q-10 -10 -20 -10q-9 0 -18 6l-64 55q-12 12 -12 19q0 10 8 18q126 166 274 166zM1124 731
q-103 0 -290 94q-188 95 -283 95q-111 0 -225 -97q-9 -6 -17 -6q-10 0 -20 10l-62 64q-6 9 -6 16q0 9 10 19q149 131 318 131q135 0 348 -109q153 -78 223 -78q83 0 172 115q10 10 21 10q9 0 18 -6l64 -55q12 -12 12 -19q0 -10 -8 -18q-126 -166 -275 -166z" />
    <glyph glyph-name="notequal" unicode="&#x2260;" horiz-adv-x="1507" 
d="M1262 836h-349q-17 0 -26 -15l-111 -176q-4 -8 -4 -10q0 -6 8 -6h482q26 0 26 -27v-82q0 -26 -26 -26h-566q-16 0 -22 -13l-185 -295q-10 -16 -28 -16h-113q-10 0 -10 8q0 6 6 15l174 280q6 9 6 14q0 7 -10 7h-268q-27 0 -27 26v82q0 27 27 27h354q16 0 25 12l106 172
q8 11 8 16q0 7 -12 7h-481q-27 0 -27 26v82q0 27 27 27h565q18 0 29 14l182 293q8 14 31 14h106q15 0 15 -8l-5 -10l-178 -285q-6 -9 -6 -12q0 -6 10 -6h267q26 0 26 -27v-82q0 -26 -26 -26z" />
    <glyph glyph-name="lessequal" unicode="&#x2264;" horiz-adv-x="1390" 
d="M1180 1300v-129q0 -25 -25 -38l-706 -308q-7 -3 -7 -8q0 -3 7 -6l706 -309q25 -9 25 -37v-131q0 -17 -13 -17q-1 0 -2.5 1t-5 2t-6.5 2l-917 403q-25 13 -25 39v108q0 28 25 37l917 406q3 1 6.5 2t5 1.5t2.5 0.5q13 0 13 -19zM1180 252v-113q0 -26 -27 -26h-915
q-27 0 -27 26v113q0 27 27 27h915q27 0 27 -27z" />
    <glyph glyph-name="greaterequal" unicode="&#x2265;" horiz-adv-x="1390" 
d="M211 1171v129q0 19 12 19q1 0 3 -0.5t5.5 -1.5t6.5 -2l917 -406q25 -9 25 -37v-108q0 -26 -25 -39l-917 -403q-3 -1 -6.5 -2t-5.5 -2t-3 -1q-12 0 -12 17v131q0 28 25 37l706 309q6 3 6 6q0 5 -6 8l-706 308q-25 13 -25 38zM211 139v113q0 27 27 27h915q27 0 27 -27v-113
q0 -26 -27 -26h-915q-27 0 -27 26z" />
    <glyph glyph-name="lozenge" unicode="&#x25ca;" horiz-adv-x="1359" 
d="M713 82l338 627q6 12 6 20q0 7 -6 19l-336 622q-4 7 -7.5 9.5t-6.5 0t-7 -9.5l-338 -627q-4 -12 -4 -16q0 -2 4 -14l340 -631q8 -14 17 0zM788 1511l412 -763q8 -17 8 -18.5t-8 -18.5l-412 -766q-10 -19 -32 -19h-101q-25 0 -34 19l-412 766q-7 13 -7 18t7 19l412 763
q9 19 32 19h101q24 0 34 -19z" />
    <glyph glyph-name="apple" unicode="&#xf8ff;" horiz-adv-x="1675" 
d="M1233 -23q-115 0 -189 86q-73 82 -73 222v88h-266v-88q0 -133 -74 -222q-74 -86 -189 -86q-108 0 -184 76t-76 185q0 115 86 187.5t221 72.5h91v268h-91q-135 0 -221 72.5t-86 187.5q0 108 76 184t184 76q115 0 189 -86q74 -89 74 -221v-88h266v88q0 139 73 221
q74 86 189 86q106 0 182 -76q78 -78 78 -184q0 -115 -86 -187.5t-221 -72.5h-90v-268h90q135 0 221 -72.5t86 -187.5q0 -107 -78 -185q-76 -76 -182 -76zM489 891h91v88q0 84 -38 133t-100 49q-56 0 -95.5 -39t-39.5 -96q0 -62 49 -98.5t133 -36.5zM580 285v88h-91
q-84 0 -133 -36.5t-49 -98.5q0 -57 39.5 -96.5t95.5 -39.5q62 0 100 49.5t38 133.5zM705 498h266v268h-266v-268zM1233 1161q-62 0 -99.5 -49t-37.5 -133v-88h90q82 0 132 37t50 98q0 57 -39.5 96t-95.5 39zM1186 373h-90v-88q0 -84 37.5 -133.5t99.5 -49.5q56 0 95.5 39.5
t39.5 96.5q0 61 -50 98t-132 37z" />
    <glyph glyph-name="fi" unicode="&#xfb01;" horiz-adv-x="1849" 
d="M1108 995q2 -25 2 -102q0 -13 3 -66.5t3 -70.5q0 -46 -16 -63t-53 -17q-25 0 -42.5 15t-43.5 59q-1 2 -15 25.5t-20 29.5q-27 49 -74 76q-62 39 -242 39h-94q-28 0 -38.5 -11.5t-10.5 -38.5v-270q0 -30 11 -39.5t42 -9.5q65 0 135 4q25 2 88.5 8t79.5 6q68 0 68 -41
q0 -5 -2 -22t-2 -21q-1 -41 -22.5 -55t-76.5 -14q-14 0 -71 3t-78 3q-31 2 -143 2q-29 0 -29 -29v-63q3 -121 22 -160q18 -45 70 -74q45 -26 45 -53q0 -45 -72 -45h-378q-72 0 -72 45q0 15 5.5 22.5t18.5 15t21 15.5q50 35 70 74q22 49 22 199v379q0 97 -10 132.5t-47 59.5
q-4 3 -23.5 12.5t-23.5 12.5q-21 16 -21 37q0 43 62 43h462q124 0 256 6q120 8 152 8q79 0 82 -66zM1630 750v-369q0 -152 23 -209q19 -45 69 -74q45 -26 45 -53q0 -45 -71 -45h-381q-72 0 -72 45q0 27 45 53q52 29 70 74q22 55 22 199v377q0 104 -8 135q-10 37 -47 59
q-9 6 -25.5 14t-24 13t-14 14.5t-6.5 22.5q0 41 64 41h373q63 0 63 -41q3 -8 -0.5 -15.5t-13 -15t-18 -12.5t-21 -12t-16.5 -9q-37 -24 -46.5 -59t-9.5 -133z" />
    <glyph glyph-name="fl" unicode="&#xfb02;" horiz-adv-x="2287" 
d="M1108 995q2 -25 2 -102q0 -13 3 -66.5t3 -70.5q0 -46 -16 -63t-53 -17q-25 0 -42.5 15t-43.5 59q-1 2 -15 25.5t-20 29.5q-27 49 -74 76q-62 39 -242 39h-94q-28 0 -38.5 -11.5t-10.5 -38.5v-270q0 -30 11 -39.5t42 -9.5q65 0 135 4q25 2 88.5 8t79.5 6q68 0 68 -41
q0 -5 -2 -22t-2 -21q-1 -41 -22.5 -55t-76.5 -14q-14 0 -71 3t-78 3q-31 2 -143 2q-29 0 -29 -29v-63q3 -121 22 -160q18 -45 70 -74q45 -26 45 -53q0 -45 -72 -45h-378q-72 0 -72 45q0 15 5.5 22.5t18.5 15t21 15.5q50 35 70 74q22 49 22 199v379q0 97 -10 132.5t-47 59.5
q-4 3 -23.5 12.5t-23.5 12.5q-21 16 -21 37q0 43 62 43h462q124 0 256 6q120 8 152 8q79 0 82 -66zM2214 383q72 0 72 -64q0 -25 -15 -92l-8 -57q-9 -62 -25 -109q-26 -77 -114 -77q-26 0 -127 8q-99 8 -232 8h-450q-72 0 -72 45q0 27 45 53q52 34 70 74q22 55 22 213v363
q0 100 -9.5 135t-45.5 59q-9 6 -25.5 14t-24 13t-14 14.5t-6.5 22.5q0 41 64 41h373q63 0 63 -41q3 -8 -0.5 -15.5t-13 -15t-18 -12.5t-21 -12t-16.5 -9q-36 -24 -46 -59.5t-10 -130.5v-435q0 -89 7 -123t32 -51q30 -18 96 -18q68 0 125 14q79 17 127 56q50 40 105 118
q31 43 48.5 56.5t43.5 13.5z" />
    <glyph glyph-name="NULL" horiz-adv-x="0" 
 />
    <glyph glyph-name="CR" horiz-adv-x="681" 
 />
    </font>
</defs>
</svg>
