<?xml version="1.0" standalone="no"?>
<!DOCTYPE svg PUBLIC "-//W3C//DTD SVG 1.1//EN" "http://www.w3.org/Graphics/SVG/1.1/DTD/svg11.dtd" >
<svg xmlns="http://www.w3.org/2000/svg" xmlns:xlink="http://www.w3.org/1999/xlink" version="1.1">
<metadata>
Created by FontForge 20170731 at Fri Sep 11 15:39:25 2020
 By Aleksey,,,
Copyright (c) 2011 by Case Studio, Inc. All rights reserved.
</metadata>
<defs>
<font id="P22MackinacPro-BoldItalic" horiz-adv-x="1273" >
  <font-face 
    font-family="P22 Mackinac Pro"
    font-weight="700"
    font-style="italic"
    font-stretch="normal"
    units-per-em="2048"
    panose-1="2 0 0 0 0 0 0 0 0 0"
    ascent="1632"
    descent="-416"
    x-height="1092"
    cap-height="1462"
    bbox="-442 -494 2460 1892"
    underline-thickness="40"
    underline-position="-286"
    unicode-range="U+0020-FB07"
  />
<missing-glyph horiz-adv-x="1308" 
d="M412 125h487l-244 393zM412 1141l243 -393l244 393h-487zM1098 1266v-1266h-887v1266h887zM973 1026l-244 -393l244 -391v784zM338 240l244 393l-244 393v-786z" />
    <glyph glyph-name="Tcaron_h" unicode="&#x164;h" horiz-adv-x="2320" 
d="M2191 207q13 0 24 -10.5t11 -24.5q0 -38 -74 -106q-103 -89 -206 -89q-80 0 -126 49t-46 136q0 54 53 293q53 242 53 317q0 115 -90 115q-62 0 -136.5 -72t-142.5 -201q-106 -205 -159 -444l-29 -133q-6 -31 -45 -37l-154 -20q-18 -3 -22 -3q-35 0 -35 31q0 11 2 17
l242 1185q6 35 6 41q0 41 -34 57.5t-114 16.5h-231q-40 0 -49 -43l-45 -217q-3 -15 -88 -432l-49 -248q-25 -128 -25 -174q0 -37 11 -61.5t26.5 -35.5t31 -19t26.5 -19t11 -29q0 -47 -77 -47h-430q-56 0 -56 43q-3 21 18.5 36.5t56.5 34.5t52 42q42 55 76 229l182 897
q2 8 2 16q0 27 -34 27q-113 0 -187 -41q-80 -45 -149 -160q-49 -75 -88 -75q-66 0 -66 57q0 22 37 170q27 120 33 135q12 40 33.5 53t70.5 13q28 0 154 -9q126 -6 223 -6h410q173 0 270 11q84 10 207 49q21 8 37 8q53 0 53 -51q0 -9 -2 -17l-139 -680q-2 -6 -2 -12
q0 -9 9 -5q6 4 11 13q191 314 422 314q109 0 169 -63.5t60 -174.5q0 -80 -53 -340t-53 -313q0 -54 35 -54q21 0 61 29q42 31 57 31zM1022 1870h113q14 0 14 -8q0 -5 -4 -9l-227 -221q-20 -20 -46 -20h-159q-26 0 -37 20l-133 213q-6 9 -6 15q0 10 14 10h90q16 0 33 -17
l121 -137q6 -6 10 -5.5t14 7.5l162 137q15 15 41 15z" />
    <glyph glyph-name="Tcommaaccent_h" unicode="&#x162;h" horiz-adv-x="2320" 
d="M2191 207q13 0 24 -10.5t11 -24.5q0 -38 -74 -106q-103 -89 -206 -89q-80 0 -126 49t-46 136q0 54 53 293q53 242 53 317q0 115 -90 115q-62 0 -136.5 -72t-142.5 -201q-106 -205 -159 -444l-29 -133q-6 -31 -45 -37l-154 -20q-18 -3 -22 -3q-35 0 -35 31q0 11 2 17
l242 1185q6 35 6 41q0 41 -34 57.5t-114 16.5h-231q-40 0 -49 -43l-45 -217q-3 -15 -88 -432l-49 -248q-25 -128 -25 -174q0 -37 11 -61.5t26.5 -35.5t31 -19t26.5 -19t11 -29q0 -47 -77 -47h-430q-56 0 -56 43q-3 21 18.5 36.5t56.5 34.5t52 42q42 55 76 229l182 897
q2 8 2 16q0 27 -34 27q-113 0 -187 -41q-80 -45 -149 -160q-49 -75 -88 -75q-66 0 -66 57q0 22 37 170q27 120 33 135q12 40 33.5 53t70.5 13q28 0 154 -9q126 -6 223 -6h410q173 0 270 11q84 10 207 49q21 8 37 8q53 0 53 -51q0 -9 -2 -17l-139 -680q-2 -6 -2 -12
q0 -9 9 -5q6 4 11 13q191 314 422 314q109 0 169 -63.5t60 -174.5q0 -80 -53 -340t-53 -313q0 -54 35 -54q21 0 61 29q42 31 57 31zM563 -92q33 -47 33 -96q0 -105 -133 -220q-100 -86 -148 -86q-36 0 -36 35q-4 12 6 20t36.5 22.5t45.5 29.5q57 51 57 94q0 28 -35 78
q-41 59 -41 82q0 30 49 70q52 40 82 40q44 0 84 -69z" />
    <glyph glyph-name="f_f_j" unicode="ffj" horiz-adv-x="2064" 
d="M1014 1497q82 -46 82 -158q0 -106 -68 -106q-27 0 -55 22q-45 45 -60 66q-68 68 -127 68q-140 0 -198 -328q-2 -6 -2 -12q0 -15 18 -15h395q12 0 19 17q56 203 221 340q171 139 381 139q57 0 123 -17q137 -40 137 -170q0 -110 -80 -110q-39 0 -117 78q-80 80 -165 80
q-185 0 -256 -330q-2 -6 -2 -14q0 -13 18 -13q187 0 305 4q201 9 307 47q21 7 33 7q49 0 49 -48q0 -6 -4 -34l-96 -508l-29 -150l-31 -153q-25 -103 -28 -115q-30 -118 -92 -219q-82 -126 -197 -189t-242 -63q-145 0 -202 63q-37 37 -37 113q0 94 69 94q25 0 47 -22
q8 -6 33 -29.5t29 -26.5q55 -49 117 -49q90 -12 161 127q20 36 33 92l25 105q20 90 26 123l101 491q22 113 22 148q0 37 -18 47t-84 10h-315q-26 0 -29 -16l-12 -78l-25 -197q-43 -322 -84 -463q-49 -165 -145 -272q-77 -89 -181 -136.5t-206 -47.5q-138 0 -138 55
q0 10 2 16l15 72q3 27 28 27q2 0 22 -8.5t50.5 -16.5t58.5 -8q51 0 93 22q96 53 133 191q36 121 78 465q1 6 2 18.5t2 16.5q29 231 47 331q2 8 2 17t-12 12h-379q-24 0 -27 -18l-33 -230q-54 -387 -100 -555q-46 -178 -158 -305q-79 -91 -183 -138.5t-208 -47.5
q-137 0 -137 59q0 8 6 35l10 51q6 27 29 27q2 0 49.5 -16.5t81.5 -16.5q50 0 94 23q101 52 144 213q42 158 98 569q2 10 2 20q27 211 45 301q2 6 2 13q0 16 -21 16h-118q-23 0 -23 23q0 8 2 14l15 72q6 26 32 26h131q20 0 27 17q53 210 193 344q144 135 327 135
q96 0 152 -33z" />
    <glyph glyph-name="f_j" unicode="fj" horiz-adv-x="1359" 
d="M1186 1085q21 7 33 7q49 0 49 -48q0 -6 -4 -34l-97 -508l-28 -150l-31 -153q-18 -74 -29 -115q-30 -118 -92 -219q-82 -126 -196.5 -189t-241.5 -63q-146 0 -203 63q-37 37 -37 113q0 94 70 94q25 0 47 -22q8 -6 32 -29t29 -27q55 -49 117 -49q91 -12 162 127
q20 36 33 92l24 105q25 115 27 123l100 491q23 118 23 148q0 37 -18.5 47t-84.5 10h-315q-26 0 -29 -16l-12 -78l-25 -197q-44 -329 -83 -463q-49 -163 -146 -272q-77 -89 -181 -136.5t-206 -47.5q-137 0 -137 55q0 10 2 16l14 72q3 27 29 27q2 0 22 -8.5t50.5 -16.5
t58.5 -8q50 0 92 22q96 53 133 191q36 121 78 465q1 6 2 18.5t2 16.5q29 231 47 331q2 8 2 17q0 12 -18 12h-119q-27 0 -27 23q0 8 2 14l15 72q6 26 35 26h131q19 0 26 17q55 202 222 340q171 139 380 139q57 0 123 -17q138 -40 138 -170q0 -110 -80 -110q-39 0 -117 78
q-80 80 -166 80q-185 0 -256 -330q-2 -6 -2 -14q0 -13 18 -13q188 0 306 4q201 9 307 47z" />
    <glyph glyph-name="ff" unicode="ff" horiz-adv-x="1562" 
d="M1014 1497q82 -46 82 -158q0 -106 -68 -106q-27 0 -55 22q-45 45 -60 66q-68 68 -127 68q-140 0 -198 -328q-2 -6 -2 -12q0 -15 18 -15h416q20 0 27 17q33 113 88 196q85 133 220.5 208t270.5 75q82 0 141 -27q109 -50 109 -164q0 -106 -74 -106q-22 0 -46 14t-35.5 25
t-47.5 47q-73 70 -147 70q-112 0 -164 -119q-37 -81 -70 -209q-2 -6 -2 -12q0 -15 19 -15q94 0 123 2q13 0 65 6.5t68 6.5q65 0 65 -31q0 -14 -18 -55q-18 -42 -38 -57t-63 -15q-24 0 -129 6q-23 2 -96 2q-23 0 -26 -18l-33 -230q-53 -379 -101 -555q-47 -180 -157 -305
q-79 -91 -183 -138.5t-208 -47.5q-138 0 -138 59q0 8 6 35l11 51q6 27 28 27q2 0 49.5 -16.5t81.5 -16.5q51 0 95 23q104 52 157 268q31 131 86 534q27 211 45 301q2 6 2 13q0 16 -20 16h-399q-24 0 -27 -18l-33 -230q-54 -387 -100 -555q-46 -178 -158 -305
q-79 -91 -183 -138.5t-208 -47.5q-137 0 -137 59q0 8 6 35l10 51q6 27 29 27q2 0 49.5 -16.5t81.5 -16.5q50 0 94 23q101 52 144 213q42 158 98 569q2 10 2 20q27 211 45 301q2 6 2 13q0 16 -21 16h-118q-23 0 -23 23q0 8 2 14l15 72q6 26 32 26h131q20 0 27 17
q53 210 193 344q144 135 327 135q96 0 152 -33z" />
    <glyph glyph-name="fi" unicode="fi" horiz-adv-x="1337" 
d="M1219 207q12 0 22 -11t10 -24q0 -46 -75 -109q-100 -86 -207 -86q-77 0 -121.5 47.5t-44.5 137.5q0 48 65 370q58 268 58 308q0 34 -21 44.5t-80 10.5h-247q-24 0 -27 -16l-33 -230q-54 -389 -100 -553q-46 -178 -158 -305q-77 -90 -180 -137t-207 -47q-137 0 -137 59
q0 1 0.5 4t1.5 8.5t2 10.5l12 61q3 27 29 27q2 0 21 -7.5t49.5 -15.5t60.5 -8q51 0 92 21q99 52 139 204q42 154 97 555l6 41q18 145 47 299q2 8 2 17q0 12 -21 12h-116q-25 0 -25 23q0 10 2 16l15 70q3 26 32 26h131q18 0 25 17q58 208 223 344q165 137 381 137
q57 0 123 -17q135 -41 135 -170q0 -112 -74 -112q-40 0 -120 80q-77 77 -164 77q-117 0 -180 -110q-43 -79 -78 -217q-2 -6 -2 -15q0 -14 18 -14q112 0 234 4q192 9 305 49q21 7 32 7q54 0 54 -50q0 -8 -2 -14l-121 -590q-41 -202 -41 -237q0 -52 37 -52q21 0 61 29
q42 31 60 31z" />
    <glyph glyph-name="fl" unicode="fl" horiz-adv-x="1357" 
d="M1319 1468l-209 -1036q-41 -202 -41 -231q0 -54 39 -54q19 0 59 29q42 31 60 31q12 0 22.5 -11t10.5 -24q0 -41 -74 -109q-100 -86 -207 -86q-79 0 -123.5 49t-44.5 136q0 40 12 104l191 930q10 65 10 70q0 35 -37 69q-63 54 -141 54q-121 0 -180 -109q-43 -80 -78 -219
q-2 -6 -2 -12q0 -15 16 -15q82 0 109 2q13 0 62 6.5t61 6.5q59 0 59 -33q0 -8 -9 -27.5t-10 -23.5q-24 -74 -92 -74q-3 0 -114 6q-23 2 -86 2q-26 0 -29 -18l-33 -230q-54 -386 -100 -553q-46 -177 -158 -307q-77 -89 -181.5 -136.5t-207.5 -47.5q-135 0 -135 65q0 9 2 17
l12 61q3 27 29 27q2 0 21 -7.5t49.5 -15.5t60.5 -8q54 0 94 21q91 48 131 188q38 130 92 485l66 430q2 8 2 17q0 12 -21 12h-120q-23 0 -23 21q0 10 2 16l15 72q6 26 34 26h129q24 0 27 17q45 131 88 196q90 136 230.5 209.5t291.5 73.5q66 0 125 -19q59 -16 60 -16
q4 0 102 29q21 6 35 6q49 0 49 -45q0 -11 -2 -17z" />
    <glyph glyph-name="ffi" unicode="ffi" horiz-adv-x="2011" 
d="M1014 1493q82 -46 82 -158q0 -106 -68 -106q-27 0 -55 22q-45 45 -60 66q-67 67 -127 67q-140 0 -198 -327q-2 -6 -2 -13q0 -14 18 -14h385q14 0 21 17q58 208 223 344q165 137 381 137q57 0 123 -17q135 -41 135 -170q0 -112 -74 -112q-41 0 -121 80q-77 77 -164 77
q-117 0 -180 -110q-43 -79 -78 -217q-2 -6 -2 -15q0 -14 19 -14q111 0 233 4q192 9 305 49q21 7 33 7q53 0 53 -50q0 -8 -2 -14l-120 -590q-41 -202 -41 -237q0 -52 36 -52q22 0 62 29q42 31 59 31q12 0 22.5 -11t10.5 -24q0 -45 -76 -109q-100 -86 -207 -86
q-77 0 -121 47.5t-44 137.5q0 48 65 370q57 263 57 308q0 34 -20.5 44.5t-79.5 10.5h-248q-23 0 -26 -16l-33 -230q-54 -389 -100 -553q-46 -178 -158 -305q-77 -90 -180 -137t-207 -47q-137 0 -137 59q0 1 0.5 4t1.5 8.5t2 10.5l12 61q3 27 29 27q2 0 21 -7.5t49.5 -15.5
t60.5 -8q52 0 92 21q99 52 139 204q40 147 96 555q7 24 7 41q18 145 47 299q2 8 2 17t-15 12h-370q-24 0 -27 -18l-33 -230q-54 -387 -100 -555q-46 -178 -158 -305q-79 -91 -183 -138.5t-208 -47.5q-137 0 -137 59q0 8 6 35l10 51q6 27 29 27q2 0 49.5 -16.5t81.5 -16.5
q52 0 94 22q101 52 144 213q42 157 98 570q2 10 2 20q27 211 45 301q2 6 2 13q0 16 -21 16h-118q-23 0 -23 23q0 8 2 14l15 72q6 26 32 26h131q20 0 27 17q53 210 193 344q144 135 327 135q96 0 152 -33z" />
    <glyph glyph-name="ffl" unicode="ffl" horiz-adv-x="2027" 
d="M1989 1468l-209 -1036q-41 -202 -41 -231q0 -54 39 -54q19 0 59 29q42 31 59 31q12 0 22.5 -11t10.5 -24q0 -41 -74 -109q-100 -86 -206 -86q-79 0 -123.5 49t-44.5 136q0 40 12 104l190 930q2 15 5 32.5t4.5 25.5t1.5 12q0 35 -37 69q-63 54 -141 54q-122 0 -181 -109
q-43 -80 -78 -219q-2 -6 -2 -12q0 -15 17 -15q81 0 108 2q12 0 61 6.5t62 6.5q60 0 60 -33q0 -8 -9 -27.5t-10 -23.5q-24 -74 -92 -74q-4 0 -115 6q-23 2 -86 2q-25 0 -28 -18l-33 -230q-54 -386 -100 -553q-46 -177 -158 -307q-77 -89 -181.5 -136.5t-207.5 -47.5
q-135 0 -135 65q0 9 2 17l12 61q3 27 29 27q2 0 21 -7.5t49.5 -15.5t60.5 -8q54 0 94 21q91 48 131 188q38 130 92 485l66 430q2 8 2 17q0 12 -21 12h-364q-24 0 -27 -18l-33 -230q-54 -387 -100 -555q-46 -178 -158 -305q-79 -91 -183 -138.5t-208 -47.5q-137 0 -137 59
q0 8 6 35l10 51q6 27 29 27q2 0 49.5 -16.5t81.5 -16.5q50 0 94 23q101 52 144 213q42 158 98 569q2 10 2 20q27 211 45 301q2 6 2 13q0 16 -21 16h-118q-23 0 -23 23q0 8 2 14l15 72q6 26 32 26h131q20 0 27 17q53 210 193 344q144 135 327 135q96 0 152 -33
q82 -46 82 -158q0 -106 -68 -106q-27 0 -55 22q-45 45 -60 66q-68 68 -127 68q-140 0 -198 -328q-2 -6 -2 -12q0 -15 18 -15h379q24 0 27 17q45 131 88 196q90 136 230.5 209.5t291.5 73.5q66 0 125 -19q15 -4 30.5 -8.5t21.5 -6t7 -1.5q5 0 103 29q21 6 35 6q49 0 49 -45
q0 -11 -2 -17z" />
    <glyph glyph-name="longs_i" unicode="&#x17f;i" horiz-adv-x="1374" 
d="M924 1530q132 0 202 -64q50 -47 50 -133q0 -49 -20.5 -74.5t-53.5 -25.5q-22 0 -46 14t-35.5 25t-47.5 47q-70 70 -148 70q-113 0 -178 -150q-63 -148 -110 -508q-55 -422 -105 -614q-46 -190 -164 -326q-76 -90 -182 -138t-209 -48q-137 0 -137 57q0 3 4 27l12 61
q6 27 29 27q2 0 23 -8.5t51.5 -16.5t56.5 -8q50 0 94 23q99 53 142 213q42 158 98 569q0 4 1 10.5t1 9.5q18 151 47 301q2 8 2 17q0 12 -18 12h-123q-23 0 -23 21q0 8 2 14l17 74q3 26 32 26h131q18 0 25 17q43 123 88 196q89 134 222 208.5t270 74.5zM1239 209
q13 0 24 -10.5t11 -24.5q0 -46 -74 -108q-103 -89 -211 -89q-78 0 -121 49t-43 136q0 33 13 106l90 449q18 83 18 119q0 52 -43 67q-10 5 -40 14.5t-42 20.5t-12 31q0 46 84 55q144 19 266 61q21 7 35 7q51 0 51 -45q0 -11 -2 -17l-119 -594q-41 -202 -41 -235q0 -51 37 -51
q20 0 62 28q42 31 57 31z" />
    <glyph glyph-name="T_h" unicode="Th" horiz-adv-x="2320" 
d="M2191 207q13 0 24 -10.5t11 -24.5q0 -38 -74 -106q-103 -89 -206 -89q-80 0 -126 49t-46 136q0 54 53 293q53 242 53 317q0 115 -90 115q-62 0 -136.5 -72t-142.5 -201q-106 -205 -159 -444l-29 -133q-6 -31 -45 -37l-154 -20q-18 -3 -22 -3q-35 0 -35 31q0 11 2 17
l242 1185q6 35 6 41q0 41 -34 57.5t-114 16.5h-231q-40 0 -49 -43l-45 -217q-3 -15 -88 -432l-49 -248q-25 -128 -25 -174q0 -37 11 -61.5t26.5 -35.5t31 -19t26.5 -19t11 -29q0 -47 -77 -47h-430q-56 0 -56 43q-3 21 18.5 36.5t56.5 34.5t52 42q42 55 76 229l182 897
q2 8 2 16q0 27 -34 27q-113 0 -187 -41q-80 -45 -149 -160q-49 -75 -88 -75q-66 0 -66 57q0 22 37 170q27 120 33 135q12 40 33.5 53t70.5 13q28 0 154 -9q126 -6 223 -6h410q173 0 270 11q84 10 207 49q21 8 37 8q53 0 53 -51q0 -9 -2 -17l-139 -680q-2 -6 -2 -12
q0 -9 9 -5q6 4 11 13q191 314 422 314q109 0 169 -63.5t60 -174.5q0 -80 -53 -340t-53 -313q0 -54 35 -54q21 0 61 29q42 31 57 31z" />
    <glyph glyph-name="T_T" unicode="TT" horiz-adv-x="2183" 
d="M2236 1477q78 0 78 -47q0 -16 -6 -56l-43 -250q-12 -73 -74 -73q-27 0 -43 15t-24 39.5t-15.5 53.5t-22.5 58t-39.5 53.5t-72.5 39.5t-116 15q-43 0 -52 -43l-182 -897q-25 -128 -25 -174q0 -36 11 -60t26.5 -35t31.5 -19.5t27 -20.5t11 -31q0 -45 -76 -45h-430
q-57 0 -57 45q0 21 15 34t35.5 20t46.5 26t42 47q37 63 66 213l182 897q2 8 2 16q0 27 -31 27h-567q-38 0 -47 -43l-180 -897q-25 -125 -25 -178q0 -35 11 -59t26.5 -34.5t31 -19t26.5 -19.5t11 -28q0 -47 -77 -47h-430q-56 0 -56 47q0 31 56 55q55 25 81 70q36 65 66 213
l182 897q2 6 2 16q0 27 -32 27h-13q-73 0 -130.5 -20.5t-90.5 -51t-60.5 -66.5t-45 -66.5t-40 -51t-48.5 -20.5q-64 0 -64 57q0 26 35 168q23 99 35 137q12 39 33.5 52.5t70.5 13.5q28 0 154 -9q126 -6 223 -6h1212q101 0 230 6q132 9 155 9z" />
    <glyph glyph-name="t_t.smcp" unicode="&#xe061;&#xe061;" horiz-adv-x="1943" 
d="M1931 1063q78 0 78 -64q0 -3 -39 -243q-12 -78 -72 -78q-42 0 -63 31l-10 20l-17 51q-15 39 -30 64q-16 28 -63 52t-109 24q-21 0 -27 -21l-104 -518q-25 -128 -25 -172q0 -38 15 -65t33 -39t33 -26.5t15 -29.5q0 -49 -71 -49h-396q-61 0 -61 43q0 30 51 53q51 26 76 62
q38 54 72 213l104 516q2 6 2 16q0 19 -20 19h-494q-22 0 -29 -23l-104 -518q-25 -128 -25 -172q0 -34 10 -57t24.5 -34.5t29.5 -20.5t25 -21t10 -29q0 -47 -74 -47h-395q-62 0 -62 45q0 29 53 53q57 28 84 74q35 60 62 199l106 520q2 6 2 14q0 17 -20 17q-107 0 -166 -35
q-27 -16 -51 -44.5t-40.5 -57t-32 -54.5t-33.5 -41t-38 -12q-73 0 -73 72l22 145q17 85 23 104q21 62 104 62q29 0 141 -8q126 -6 244 -6h934q138 0 250 8t141 8z" />
    <glyph glyph-name=".notdef" horiz-adv-x="1308" 
d="M412 125h487l-244 393zM412 1141l243 -393l244 393h-487zM1098 1266v-1266h-887v1266h887zM973 1026l-244 -393l244 -391v784zM338 240l244 393l-244 393v-786z" />
    <glyph glyph-name=".null" horiz-adv-x="0" 
 />
    <glyph glyph-name="nonmarkingreturn" horiz-adv-x="682" 
 />
    <glyph glyph-name="space" unicode=" " horiz-adv-x="436" 
 />
    <glyph glyph-name="exclam" unicode="!" horiz-adv-x="677" 
d="M616 926l-86 -267q-7 -21 -18.5 -60.5t-18 -56t-19 -38t-29.5 -29.5t-42 -8q-41 0 -55 24.5t-14 81.5q0 13 8 86q15 171 20 256q4 62 9.5 132t5.5 71q14 149 34.5 220t65.5 108q47 41 127 41q133 0 133 -119q0 -70 -55 -250q-3 -12 -66 -192zM147 164q0 44 80 112
q83 68 125 68q45 0 103 -70q61 -70 61 -116q0 -48 -82 -115q-84 -66 -125 -66q-44 0 -102 70q-60 72 -60 117z" />
    <glyph glyph-name="quotedbl" unicode="&#x22;" horiz-adv-x="827" 
d="M752 1487q102 0 102 -80q0 -85 -72 -283q-70 -192 -143 -192q-37 0 -49 47q-15 53 -15 133q0 267 66 336q36 39 111 39zM387 1487q102 0 102 -80q0 -88 -71 -283q-70 -192 -144 -192q-37 0 -49 47q-14 49 -14 133q0 268 65 336q36 39 111 39z" />
    <glyph glyph-name="numbersign" unicode="#" horiz-adv-x="1347" 
d="M528 731h209l80 246h-209zM1243 1118l-45 -141h-221l-80 -246h221l-47 -141h-219l-129 -393h-160l129 393h-209l-129 -393h-159l129 393h-220l46 141h219l80 246h-220l47 141h218l120 369h160l-119 -369h207l121 369h160l-119 -369h219z" />
    <glyph glyph-name="dollar" unicode="$" horiz-adv-x="1161" 
d="M1032 1403q41 -41 41 -105q0 -72 -18 -131t-62 -59q-35 0 -53 31l-19 38t-24 46q-80 133 -221 133q-85 0 -148 -51.5t-63 -130.5q0 -118 184 -197q138 -59 194 -98q144 -99 144 -258q0 -176 -149 -295q-151 -121 -338 -136l-33 -165q-6 -25 -31 -25h-67q-23 0 -23 20
q0 9 2 15l31 153q-96 3 -215 45q-59 24 -94 67.5t-35 98.5q0 14 5 60.5t5 58.5q0 96 66 96q27 0 41 -14q8 -7 18.5 -28.5t21 -45.5t13.5 -30q94 -172 282 -172q116 0 192.5 61t76.5 150q0 120 -185 196q-8 4 -26 12q-41 19 -62.5 29t-60 31.5t-59.5 38.5t-49 44t-42.5 55
t-25 65t-10.5 79q0 154 126 265q125 113 289 131l35 166q3 24 29 24h67q23 0 23 -20q0 -9 -2 -15l-29 -149q177 -9 258 -84z" />
    <glyph glyph-name="percent" unicode="%" horiz-adv-x="1736" 
d="M633 1223q0 74 -23.5 115.5t-64.5 41.5q-64 0 -117 -84q-86 -142 -86 -327q0 -74 22.5 -117t63.5 -43q53 0 95.5 49t64.5 119.5t33.5 135t11.5 110.5zM408 700q-134 0 -206.5 78.5t-72.5 210.5q0 209 137 352q140 146 299 146q130 0 204.5 -77.5t74.5 -211.5
q0 -216 -137 -356q-136 -142 -299 -142zM1487 500q0 74 -23.5 115.5t-64.5 41.5q-64 0 -117 -84q-86 -142 -86 -327q0 -74 22.5 -117t63.5 -43q53 0 95.5 49t64.5 119.5t33.5 135t11.5 110.5zM1262 -23q-134 0 -206.5 78.5t-72.5 210.5q0 209 137 352q140 146 299 146
q130 0 204.5 -77.5t74.5 -211.5q0 -216 -137 -356q-136 -142 -299 -142zM313 0l1049 1462h156l-1049 -1462h-156z" />
    <glyph glyph-name="ampersand" unicode="&#x26;" horiz-adv-x="1595" 
d="M340 422q0 -124 111 -213q110 -88 270 -88q136 0 246 61q-71 68 -246 195q-181 134 -262 235q-54 -23 -86.5 -75.5t-32.5 -114.5zM1233 221q53 -100 53 -198q0 -164 -115 -285q-113 -119 -280 -119q-101 0 -164 51.5t-63 118.5q0 50 35.5 88.5t84.5 38.5q35 0 60.5 -19.5
t25.5 -39.5q0 -7 -4 -21t-4 -18q0 -24 23 -42t59 -18q62 0 108 51t46 130q0 76 -47 147q-198 -109 -428 -109q-238 0 -387 113q-150 114 -150 277q0 122 85.5 217t219.5 131q-43 82 -43 159q0 86 27.5 156.5t70 115t96.5 75t105 43t98 12.5q128 0 216 -70q88 -67 88 -170
q0 -62 -38 -104.5t-102 -42.5q-46 0 -80 24.5t-34 51.5q0 7 20.5 34.5t20.5 47.5q0 42 -32 71t-85 29q-68 0 -116 -51.5t-48 -126.5q0 -103 88 -191q65 -65 80 -78q7 -6 25 -20.5t38 -30.5t41 -31q85 -61 99 -73q142 -114 221 -205q65 86 65 176q0 63 -28 104.5t-74 41.5
q-4 0 -14 -1.5t-11 -1.5q-20 0 -33.5 16t-13.5 44q0 51 43 89t107 38q91 0 150 -73.5t59 -186.5q0 -198 -164 -365z" />
    <glyph glyph-name="quotesingle" unicode="'" horiz-adv-x="462" 
d="M387 1487q102 0 102 -80q0 -88 -71 -283q-70 -192 -144 -192q-37 0 -49 47q-14 49 -14 133q0 268 65 336q36 39 111 39z" />
    <glyph glyph-name="parenleft" unicode="(" horiz-adv-x="880" 
d="M690 -279q0 -40 -45 -40q-63 0 -152.5 72t-162.5 186q-156 243 -156 542q0 256 117 489.5t332 397.5q156 119 299 153q103 24 125 -14q4 -8 4 -18q0 -33 -111 -88q-52 -26 -123.5 -88.5t-130.5 -141.5q-116 -159 -188 -372q-72 -219 -72 -439q0 -188 51.5 -322.5
t173.5 -256.5q39 -39 39 -60z" />
    <glyph glyph-name="parenright" unicode=")" horiz-adv-x="882" 
d="M225 1489q0 41 45 41q63 0 153 -72t163 -186q155 -241 155 -543q0 -256 -116.5 -489.5t-331.5 -397.5q-156 -119 -299 -153q-103 -24 -125 14q-4 8 -4 18q0 35 110 89q53 26 124 88t130 141q118 162 187 371q73 216 73 440q0 188 -51.5 323t-173.5 257q-39 39 -39 59z
" />
    <glyph glyph-name="asterisk" unicode="*" horiz-adv-x="878" 
d="M340 1454q0 33 20 53q23 23 86 23q66 0 89 -23q20 -20 20 -51q0 -34 -31 -104q-31 -73 -32 -80q-5 -14 -9 -34.5t-6.5 -31t-10 -18.5t-20.5 -8q-5 0 -9 1.5t-7.5 6t-5 7.5t-5 11t-5.5 11q-5 33 -13 55q-1 4 -32 78q-29 72 -29 104zM309 1147q-17 0 -65.5 -4t-61.5 -4
q-104 0 -104 71q0 46 20 93q20 51 70 51q21 0 63 -25q16 -8 58 -47l57 -49q14 -12 35.5 -23.5t32 -20t10.5 -20.5q0 -28 -39 -28q-7 0 -37 3t-39 3zM412 1030q-10 -23 -19 -76q-9 -50 -18 -69q-27 -70 -74 -70q-34 0 -78 33q-55 41 -56.5 80t44.5 76q11 11 61 40l66 39
q63 54 78 54q24 0 24 -25q0 -6 -4.5 -19.5t-12.5 -33t-11 -29.5zM551 1083q17 -15 63 -41q55 -32 64 -41q47 -41 47 -71q0 -37 -57 -82q-39 -33 -78 -33q-47 0 -74 70l-18 69q-12 54 -21 74q-26 68 -26 80q0 27 24 27q11 0 38 -23t38 -29zM545 1231q9 7 59 49q42 39 58 47
q42 25 65 25q47 0 78 -84q12 -35 12 -62q0 -69 -112 -69q-12 0 -61.5 4t-63.5 4q-13 0 -42 -2t-32 -2q-37 0 -37 26q-2 6 1.5 12.5t13 13.5t18.5 12.5t22.5 13.5t20.5 12z" />
    <glyph glyph-name="plus" unicode="+" horiz-adv-x="1413" 
d="M1241 772v-80q0 -26 -27 -26h-423q-15 0 -15 -15v-428q0 -26 -26 -26h-88q-27 0 -27 26v428q0 15 -14 15h-422q-27 0 -27 26v80q0 27 27 27h422q14 0 14 14v426q0 27 27 27h88q26 0 26 -27v-426q0 -14 15 -14h423q27 0 27 -27z" />
    <glyph glyph-name="comma" unicode="," horiz-adv-x="622" 
d="M416 244q47 -65 47 -140q0 -143 -193 -321q-44 -42 -112 -84q-65 -41 -105 -41q-20 0 -35.5 15.5t-15.5 37.5q-4 17 13 29t54 31.5t62 42.5q82 67 82 139q0 46 -49 110q-60 82 -60 121q0 41 72 101q74 59 121 59q22 0 58 -31.5t61 -68.5z" />
    <glyph glyph-name="hyphen" unicode="-" horiz-adv-x="774" 
d="M92 502l27 127q6 28 33 28h473q26 0 26 -24q0 -11 -2 -17l-26 -127q-6 -26 -33 -26l-475 -2q-25 0 -25 24q0 9 2 17z" />
    <glyph glyph-name="period" unicode="." horiz-adv-x="561" 
d="M35 164q0 44 80 112q83 68 125 68q44 0 102 -70q61 -70 61 -116q0 -49 -81 -115q-84 -66 -125 -66q-45 0 -103 70q-59 71 -59 117z" />
    <glyph glyph-name="slash" unicode="/" horiz-adv-x="1124" 
d="M1157 1530h119q12 0 12 -8q0 -4 -6 -13l-1214 -1693q-12 -15 -29 -15h-117q-10 0 -10 9q0 3 6 12l1212 1696q9 12 27 12z" />
    <glyph glyph-name="zero" unicode="0" horiz-adv-x="1400" 
d="M1061 977q0 174 -58 273.5t-161 99.5q-120 0 -216.5 -97t-148.5 -252q-94 -291 -94 -505q0 -175 57.5 -276t159.5 -101q114 0 209.5 92.5t148.5 239.5q103 285 103 526zM553 -23q-229 0 -350 139t-121 378q0 250 111 481q110 229 299 371q190 141 401 141q221 0 344 -137
t123 -377q0 -192 -66.5 -377.5t-179.5 -323.5q-111 -136 -259.5 -215.5t-301.5 -79.5z" />
    <glyph glyph-name="one" unicode="1" horiz-adv-x="743" 
d="M694 1417l-280 -1376q-9 -41 -52 -41h-180q-39 0 -39 37q0 10 2 18l213 1049q19 100 19 123q0 30 -16 41.5t-52 11.5q-16 0 -75.5 -3t-77.5 -3q-28 0 -40 7t-12 34q0 54 25 76q15 15 76 18q160 17 315 53q113 25 119 25q57 0 57 -51q0 -13 -2 -19z" />
    <glyph glyph-name="two" unicode="2" horiz-adv-x="1222" 
d="M1006 332q47 0 47 -47q0 -21 -41 -127q-22 -67 -29 -78q-2 -8 -11.5 -26.5t-15.5 -24.5q-30 -35 -127 -35q-10 0 -27.5 0.5t-50 1.5t-59.5 2q-68 2 -162 2h-452q-48 0 -69 18.5t-21 57.5q0 125 75 248t207 223q78 60 224 147q145 89 219 148q178 144 178 297
q0 89 -56 148t-147 59q-112 0 -213 -113q-25 -32 -67 -90q-36 -55 -57 -73.5t-50 -18.5q-61 0 -61 79q0 67 24 135.5t70 108.5q57 50 163 81.5t218 31.5q216 0 342 -111q129 -108 129 -272q0 -218 -223 -361q-104 -66 -312 -157q-199 -85 -315 -168q-51 -33 -93 -84.5
t-42 -83.5q0 -25 35 -25h395q167 0 217 13q41 11 86 53q47 41 72 41z" />
    <glyph glyph-name="three" unicode="3" horiz-adv-x="1204" 
d="M733 754q125 -25 203 -109.5t78 -204.5q0 -137 -94 -247q-91 -105 -226.5 -160.5t-281.5 -55.5q-260 0 -369 121q-55 64 -55 164q0 113 80 113q28 0 49 -21q20 -17 47 -61q31 -50 39 -60q105 -129 237 -129q134 0 211 105q78 110 78 246q0 111 -57 174.5t-164 64.5
q-25 0 -76.5 -4t-56.5 -4q-56 0 -56 45q0 5 4.5 26t4.5 25q9 64 67 64q3 0 54.5 -5t80.5 -5q157 0 232 96q74 100 74 217q0 95 -53.5 154t-147.5 59q-121 0 -229 -135q-35 -45 -52 -76q-30 -51 -51 -71.5t-47 -20.5q-68 0 -68 78q0 158 107 243q128 107 354 107
q204 0 332 -101q129 -99 129 -256q0 -127 -96.5 -223.5t-276.5 -132.5q-20 -3 -20 -10t16 -10z" />
    <glyph glyph-name="four" unicode="4" horiz-adv-x="1267" 
d="M954 569h189q28 0 28 -20q0 -11 -2 -17l-26 -131q-6 -32 -41 -32h-191q-25 0 -28 -23q-17 -112 -17 -139q0 -31 11 -54.5t27 -36.5t31.5 -23t26.5 -21t11 -25q0 -47 -78 -47h-416q-55 0 -55 43q0 8 1.5 14.5t6 12.5t7.5 9.5t11 8.5t12 7t15 7t15 7q92 47 126 227
q3 9 3 16q0 17 -21 17h-555q-31 0 -31 22q0 1 4 25l19 88q6 35 31 63q419 464 522 895q9 25 39 25h166q22 0 22 -14q0 -7 -2 -13q-50 -203 -205 -444q-152 -234 -356 -432q-4 -4 -4 -9q0 -6 10 -6h375q29 0 35 27l123 598q3 29 36 29h197q29 0 29 -23q0 -8 -2 -14l-119 -582
q-2 -6 -2 -16q0 -19 22 -19z" />
    <glyph glyph-name="five" unicode="5" horiz-adv-x="1148" 
d="M401 981q233 -3 412 -102q95 -50 149 -143t54 -214q0 -217 -170 -381t-432 -164q-120 0 -220 37t-143 103q-37 52 -37 137q0 131 86 131q22 0 37 -12q17 -13 66 -92q31 -44 63 -80q36 -36 99.5 -64t132.5 -28q127 0 219 86q92 89 92 213q0 332 -627 344q-20 0 -20 16
q0 5 6 20l256 650q9 24 39 24h305q176 0 223 15q25 8 71.5 42.5t63.5 34.5q39 0 39 -41q0 -14 -35 -104l-36 -106q-14 -42 -39 -58q-26 -20 -121 -20h-440q-15 0 -25 -17l-78 -196q-6 -15 -6 -21q0 -10 16 -10z" />
    <glyph glyph-name="six" unicode="6" horiz-adv-x="1277" 
d="M375 360q0 -121 51 -187.5t145 -66.5q137 0 222 156q88 155 88 320q0 118 -51.5 185t-143.5 67q-124 0 -219 -138q-92 -139 -92 -336zM1135 1171q-35 4 -55 18t-54 54q-32 37 -53 55q-21 21 -57.5 37.5t-75.5 16.5q-137 0 -239 -135.5t-163 -385.5l-4 -18q0 -6 6 -6
q4 0 13 12q62 88 153.5 137.5t194.5 49.5q168 0 270 -117q100 -112 100 -279q0 -254 -178 -444q-180 -189 -422 -189q-220 0 -344 154q-123 156 -123 387q0 219 97 445q94 220 278 372q187 152 406 152q87 0 169 -26.5t120 -59.5q38 -32 38 -98q0 -132 -77 -132z" />
    <glyph glyph-name="seven" unicode="7" horiz-adv-x="1044" 
d="M1167 1430q-9 -75 -37 -156q-21 -56 -49 -123q-20 -45 -77 -117q-36 -46 -76 -92q-28 -32 -92 -96l-82 -84q-100 -102 -179 -189q-77 -84 -149 -194q-82 -122 -82 -199q0 -51 39 -84q41 -35 41 -53q0 -43 -66 -43h-252q-65 0 -65 61q0 73 58.5 189t162.5 235
q72 84 252 242q116 101 219 197q179 173 207 266q2 6 2 14q0 19 -22 19h-396q-170 0 -223 -17q-25 -8 -69 -43t-56 -35q-15 0 -31 13q-12 12 -12 30q0 19 37 123q20 67 34.5 99.5t35.5 48.5q33 20 125 20h776q28 0 28 -16q0 -8 -2 -16z" />
    <glyph glyph-name="eight" unicode="8" horiz-adv-x="1294" 
d="M313 317q0 -98 61.5 -157.5t164.5 -59.5q147 0 247 121q101 119 101 260q0 97 -65 158t-154 61q-134 0 -244 -116q-111 -114 -111 -267zM973 1192q0 83 -45.5 128.5t-120.5 45.5q-125 0 -203 -106q-78 -110 -78 -222q0 -84 51 -133t128 -49q107 0 186 102q82 104 82 234z
M889 821q-20 -6 -20.5 -16.5t18.5 -16.5q130 -32 202 -113t72 -192q0 -200 -186 -352q-186 -154 -471 -154q-209 0 -336 95q-125 94 -125 243q0 167 129 281q132 117 301 147q19 3 19 13q0 7 -17 14q-219 77 -219 262q0 180 164 318q165 137 414 137q186 0 298.5 -81.5
t112.5 -215.5q0 -147 -106 -240q-105 -94 -250 -129z" />
    <glyph glyph-name="nine" unicode="9" horiz-adv-x="1261" 
d="M422 881q0 -113 50 -181.5t146 -68.5q136 0 222 145q88 143 88 324q0 120 -52 189t-141 69q-133 0 -223 -152q-90 -153 -90 -325zM141 367q30 0 49 -25l19 -25q6 -6 22 -31.5t19 -29.5q22 -35 49 -70q27 -29 72 -51t94 -22q275 0 401 526l2 12q0 6 -6 6q-3 0 -10 -10
q-63 -90 -157 -140t-199 -50q-150 0 -256 106q-109 109 -109 287q0 255 176 446q179 191 424 191q224 0 346 -152q121 -151 121 -389q0 -165 -57 -336.5t-156 -314.5q-101 -144 -251 -231t-316 -87q-95 0 -176 27.5t-121 75.5q-58 64 -58 170q0 117 78 117z" />
    <glyph glyph-name="colon" unicode=":" horiz-adv-x="747" 
d="M96 164q0 44 80 112q83 68 125 68q44 0 102 -70q62 -71 62 -116q0 -48 -82 -115q-84 -66 -125 -66q-44 0 -102 70q-60 72 -60 117zM246 889q0 44 80 112q83 68 125 68q44 0 102 -70q61 -70 61 -116q0 -48 -82 -115q-84 -66 -124 -66q-45 0 -103 70q-59 71 -59 117z" />
    <glyph glyph-name="semicolon" unicode=";" horiz-adv-x="753" 
d="M438 702q-41 0 -102 70q-60 72 -60 119q0 43 82 110q83 68 125 68q41 0 101 -72q61 -70 61 -116t-82 -113q-81 -66 -125 -66zM444 244q48 -67 48 -140q0 -143 -193 -321q-42 -40 -113 -84q-65 -41 -104 -41q-20 0 -35.5 15.5t-15.5 37.5q-3 17 14 29t53.5 31.5t61.5 42.5
q82 67 82 139q0 46 -49 110q-60 82 -60 121q0 41 72 101q74 59 121 59q22 0 57.5 -31.5t60.5 -68.5z" />
    <glyph glyph-name="less" unicode="&#x3c;" horiz-adv-x="1466" 
d="M1225 1008l-764 -336q-4 -4 -4 -6q0 -6 6 -9l762 -333q26 -12 26 -41v-140q0 -18 -12 -18q-1 0 -2.5 0.5t-5 1.5t-6.5 2l-994 436q-26 12 -26 41v117q0 29 26 41l994 438q3 1 6.5 2t5 1.5t2.5 0.5q12 0 12 -18v-139q0 -29 -26 -41z" />
    <glyph glyph-name="equal" unicode="=" horiz-adv-x="1507" 
d="M219 862v82q0 27 27 27h1016q26 0 26 -27v-82q0 -26 -26 -26h-1016q-27 0 -27 26zM219 520v80q0 27 27 27h1016q26 0 26 -27v-80q0 -26 -26 -26h-1016q-27 0 -27 26z" />
    <glyph glyph-name="greater" unicode="&#x3e;" horiz-adv-x="1466" 
d="M242 324l764 335q4 4 4 7q0 5 -6 8l-762 334q-27 12 -27 41v139q0 18 12 18q1 0 3 -0.5t5.5 -1.5t6.5 -2l993 -436q27 -12 27 -41v-117q0 -29 -27 -41l-993 -438q-3 -1 -6.5 -2t-5.5 -1.5t-3 -0.5q-12 0 -12 18v140q0 29 27 41z" />
    <glyph glyph-name="question" unicode="?" horiz-adv-x="1110" 
d="M547 1047q0 -41 -51.5 -78t-120.5 -37q-79 0 -126.5 49t-47.5 129q0 145 139 260q141 117 371 117q206 0 319 -101q117 -99 117 -235q0 -190 -232 -326q-56 -33 -159 -80q-119 -54 -146 -71q-104 -61 -104 -123q0 -29 43 -47q45 -17 45 -43q0 -33 -40.5 -50.5
t-96.5 -17.5q-75 0 -119.5 28.5t-44.5 82.5q0 84 123 186q46 36 141 98q111 75 166 125q139 133 139 256q0 84 -55 135.5t-143 51.5q-89 0 -160 -53q-68 -53 -68 -132q0 -36 17.5 -54.5t38 -22t38 -14.5t17.5 -33zM209 164q0 44 80 112q83 68 125 68q44 0 102 -70
q62 -71 62 -116q0 -48 -82 -115q-84 -66 -125 -66q-45 0 -103 70q-59 71 -59 117z" />
    <glyph glyph-name="at" unicode="@" horiz-adv-x="2170" 
d="M1130 494q132 206 132 311q0 61 -86 102q-49 19 -80 19q-57 0 -97 -43q-73 -77 -129 -258q-43 -136 -43 -244q0 -125 64 -125q82 0 239 238zM1841 1108q137 -210 137 -465q0 -240 -127 -414q-126 -172 -327 -172q-141 0 -232 86.5t-98 231.5q0 8 -8 8q-5 0 -8 -6
q-76 -131 -189 -221q-96 -78 -196 -78q-96 0 -146.5 73t-50.5 189q0 236 147 453q164 243 377 243q72 -3 154 -30q86 -27 100 -27q32 0 72 37q22 22 41 22q41 0 41 -43q0 -1 -0.5 -4t-1.5 -8.5t-2 -11.5q-12 -47 -84 -373q-33 -143 -33 -246q0 -178 143 -178q74 0 144.5 60
t117.5 165q52 122 52 275q0 243 -148 432q-106 131 -268 205.5t-342 74.5q-341 0 -580 -245t-239 -592q0 -349 239 -594q240 -246 580 -246q192 0 361 85t286 239q20 26 49 26q20 0 34.5 -13.5t14.5 -33.5q0 -23 -14 -43q-110 -158 -313 -262q-196 -102 -418 -102
q-386 0 -660 274q-272 272 -272 670q0 396 272 668q274 274 660 274q230 0 423.5 -100.5t311.5 -282.5z" />
    <glyph glyph-name="A" unicode="A" horiz-adv-x="1447" 
d="M440 598h396q18 0 18 14q0 9 -2 15l-86 485q-3 14 -8 14q-3 0 -10 -10l-316 -498q-4 -8 -4 -10q0 -10 12 -10zM1262 133q16 -16 40.5 -30t36 -25t11.5 -29q0 -49 -76 -49h-395q-60 0 -60 39q0 21 16.5 35t37 22.5t37 31t16.5 56.5q0 8 -11 90l-30 168q-3 19 -27 19h-498
q-22 0 -34 -21q-125 -210 -125 -280q0 -39 37 -66q38 -25 38 -49q0 -45 -69 -45h-324q-61 0 -61 41q0 18 14.5 30t44.5 27q92 52 238 281l694 1071q18 27 41 27h104q29 0 35 -27l209 -1157q20 -83 30 -111.5t30 -48.5z" />
    <glyph glyph-name="B" unicode="B" horiz-adv-x="1374" 
d="M549 848h96q192 0 293 96q86 83 86 205q0 175 -256 178h-121q-33 0 -39 -31l-80 -401q-4 -24 -4 -25q0 -22 25 -22zM485 684l-67 -328q-27 -141 -27 -166q0 -31 19.5 -40t76.5 -9h45q190 0 304 93t114 260q0 212 -309 215q-45 0 -76 -2h-53q-24 -3 -27 -23zM1124 199
q-89 -99 -243 -150q-148 -49 -420 -49h-453q-61 0 -61 43q0 33 55 57q46 20 82 74q36 56 66 209l153 760q23 118 23 145q0 47 -47 74q-48 28 -48 53q0 47 72 47h414q123 0 221 -4q80 -3 164 -26q86 -20 141 -72q74 -71 74 -186q0 -160 -119 -254q-122 -99 -280 -119
q-14 -2 -14 -13q1 -9 11 -10q152 -12 238 -88t86 -209q0 -155 -115 -282z" />
    <glyph glyph-name="C" unicode="C" horiz-adv-x="1388" 
d="M721 127q84 0 164 47q81 47 114 86q57 67 82 100q37 48 60 64t55 16q61 0 61 -67q0 -51 -24 -125q-40 -114 -119 -172q-132 -99 -381 -99q-278 0 -469 173q-190 172 -190 464q0 364 276 619q275 254 668 254q227 0 340 -76q55 -40 55 -121q0 -62 -24 -145
q-14 -48 -33 -69t-49 -21q-40 0 -56 22q-11 14 -35 75.5t-42 86.5q-76 107 -234 107q-163 0 -299 -115q-131 -110 -201.5 -281.5t-70.5 -361.5q0 -217 100 -338q102 -123 252 -123z" />
    <glyph glyph-name="D" unicode="D" horiz-adv-x="1583" 
d="M977 301q114 105 178 265.5t64 334.5q0 272 -175 363q-66 35 -148.5 47t-231.5 12q-29 0 -41.5 -10t-18.5 -39l-178 -887q-31 -152 -31 -176q0 -40 28 -54t91 -14h27q264 0 436 158zM1300 1339q103 -68 160.5 -186t57.5 -266q0 -136 -47.5 -277.5t-127.5 -247.5
q-275 -362 -860 -362h-475q-61 0 -61 43q0 28 22 41q15 15 45 25q45 20 70 63q30 46 66 211l153 760q23 131 23 147q0 26 -15 45.5t-33.5 28.5t-33.5 22.5t-15 28.5q0 47 74 47h344q246 0 395.5 -26t257.5 -97z" />
    <glyph glyph-name="E" unicode="E" horiz-adv-x="1298" 
d="M1108 434q29 0 46 -16t17 -45q0 -35 -22 -84q-19 -44 -35 -101q-17 -60 -33 -104q-13 -41 -51 -69.5t-94 -28.5q-28 0 -127 8q-111 6 -229 6h-572q-61 0 -61 45q0 10 3 18t11.5 14.5t13 9.5t17.5 9.5t16 7.5q51 22 78 68q32 49 66 211l159 793q15 76 15 112q0 31 -15 50
t-32.5 25.5t-32.5 19.5t-15 32q0 47 80 47h535q137 0 254 8q132 9 151 9q76 0 76 -49q0 -14 -6 -54q-3 -20 -18 -102.5t-21 -120.5q-8 -57 -25 -79.5t-55 -22.5q-30 0 -44 16t-25 59q-27 114 -91 156q-65 41 -299 41h-77q-51 0 -60 -49l-76 -377q-4 -20 -4 -33q0 -26 43 -26
q111 0 205 4l107 8q71 6 90 6q59 0 59 -35q0 -7 -3.5 -21.5t-6.5 -25.5l-4 -12q-12 -50 -37 -65t-92 -15q-51 0 -94 2q-17 1 -35 2t-27.5 1.5t-13.5 0.5q-31 2 -201 2q-29 0 -35 -28l-53 -267q-31 -158 -31 -180q2 -20 10 -33.5t17.5 -21.5t28 -12.5t33.5 -6t44 -2.5h25
q121 0 214 29.5t140 75.5q32 30 71 83t67.5 80t60.5 27z" />
    <glyph glyph-name="F" unicode="F" horiz-adv-x="1243" 
d="M432 0h-428q-57 0 -57 43q0 36 57 59q54 22 82 70q36 65 66 213l157 776q19 97 19 125t-15 48.5t-33.5 30t-33.5 22.5t-15 28q0 47 80 47h537q135 0 252 8q132 9 151 9q76 0 76 -54q0 -21 -6 -51l-41 -246q-12 -77 -76 -77q-63 0 -78 94q-5 41 -31.5 83t-70.5 64
q-67 31 -252 31h-106q-29 0 -41.5 -10t-18.5 -39l-90 -447q-2 -8 -2 -20q0 -29 45 -29q143 0 182 2q44 0 109 8q73 9 100 9q70 0 70 -35q0 -7 -4 -20.5t-8 -23.5l-4 -11q-12 -53 -38 -68.5t-102 -15.5q-53 0 -100 2q-20 1 -39 2t-29 1.5t-12 0.5q-41 2 -178 2q-29 0 -35 -29
l-45 -217q-25 -125 -25 -172q0 -45 17 -72.5t37.5 -36t37.5 -22t17 -33.5q0 -49 -78 -49z" />
    <glyph glyph-name="G" unicode="G" horiz-adv-x="1499" 
d="M926 709h438q58 0 61 -43q0 -22 -26 -43q-26 -15 -56 -23q-39 -20 -57 -61q-21 -48 -41 -152l-41 -194q-15 -72 -69 -105q-175 -111 -414 -111q-279 0 -465 177q-182 176 -182 462q0 362 270 617q272 254 668 254q239 0 346 -76q55 -40 55 -119q0 -65 -20 -135
q-19 -61 -34 -81.5t-48 -20.5q-31 0 -47.5 16t-34.5 59q-28 63 -53 101q-29 46 -92 80.5t-142 34.5q-173 0 -309 -121q-131 -118 -197.5 -284.5t-66.5 -350.5q0 -197 98 -328q100 -133 285 -133q58 0 120 16q31 11 41.5 20.5t16.5 35.5l39 186q18 102 18 125q0 32 -14 53
t-33.5 30t-39.5 15.5t-34 17.5t-14 29q0 52 74 52z" />
    <glyph glyph-name="H" unicode="H" horiz-adv-x="1624" 
d="M1225 1462h391q58 0 61 -43q0 -18 -10 -28q-9 -9 -34.5 -21.5t-35.5 -15.5q-38 -20 -57 -62q-22 -60 -39 -149l-153 -758q-25 -128 -25 -174q0 -37 11 -61.5t26.5 -36t31.5 -19.5t27 -19t11 -28q0 -47 -78 -47h-430q-56 0 -56 43q0 35 56 59q53 20 82 70q37 58 67 213
l57 287q2 6 2 14q0 21 -22 21h-592q-21 0 -27 -19l-61 -303q-22 -119 -22 -176q0 -36 11 -60.5t26.5 -35.5t31 -19t26.5 -19t11 -28q0 -47 -78 -47h-430q-57 0 -57 43q0 36 57 59q52 21 82 70q37 63 66 213l159 786q18 77 17 117t-25 58q-10 8 -31.5 21.5t-31 23.5t-9.5 24
q0 47 74 47h393q60 0 60 -43q0 -14 -8.5 -24.5t-17.5 -15.5t-28 -13t-26 -12q-38 -21 -55 -60q-21 -58 -41 -151l-54 -264q-2 -6 -2 -15q0 -20 27 -20h590q21 0 24 20l62 307q16 82 16 117q0 25 -9.5 42t-23.5 26t-28 16t-23.5 17.5t-9.5 25.5q0 47 74 47z" />
    <glyph glyph-name="I" unicode="I" horiz-adv-x="704" 
d="M403 209q0 -36 11 -60.5t26.5 -35.5t31.5 -19t27 -19t11 -28q0 -47 -78 -47h-430q-55 0 -55 43q0 22 11.5 33t43.5 26q56 26 82 70q31 47 66 213l159 786q17 87 17 115q0 51 -35 72q-6 4 -25.5 13.5t-27 18.5t-7.5 25q0 47 72 47h393q62 0 62 -43q0 -18 -10 -28
q-9 -9 -34.5 -21.5t-35.5 -15.5q-38 -20 -57 -62q-22 -60 -39 -149l-154 -758q-25 -128 -25 -176z" />
    <glyph glyph-name="J" unicode="J" horiz-adv-x="823" 
d="M-334 -346q-65 53 -65 162q0 112 82 112q22 2 54 -24.5t61.5 -59.5t71.5 -59.5t81 -24.5q74 0 131 72q78 96 160 516l147 727q31 152 31 205q0 33 -14.5 54t-32.5 29t-32.5 20.5t-14.5 31.5q0 47 73 47h396q59 0 59 -47q0 -28 -53 -49q-51 -20 -78 -70q-16 -30 -57 -221
l-48 -250q-83 -445 -131 -618q-56 -199 -142 -324.5t-210 -199.5q-135 -78 -287 -78q-118 0 -182 49z" />
    <glyph glyph-name="K" unicode="K" horiz-adv-x="1517" 
d="M1182 1462h379q63 0 63 -45q0 -23 -14 -31q-7 -4 -26.5 -11.5t-44 -16.5t-32.5 -12q-107 -49 -383 -269l-307 -248q-12 -9 -12 -14q0 -8 8 -8q75 30 107 -25q36 -44 67 -108l39 -78q3 -7 19.5 -41t27.5 -61q110 -235 146 -287q47 -69 98 -86q3 -1 10 -3.5t10 -3.5
t9.5 -3.5t9.5 -4.5t8 -5t7.5 -6.5t5.5 -8t4 -9.5t1 -11q0 -37 -57 -52l-104 -24q-67 -13 -97 -13q-44 0 -88 29q-71 56 -215 379q-35 80 -53 115q-13 32 -43 84q-44 84 -86 84q-14 0 -23 -6q-64 -44 -141 -111q-16 -16 -22 -37l-27 -129q-25 -128 -25 -174q0 -45 17 -72.5
t37.5 -36t37.5 -22t17 -33.5q0 -47 -78 -47h-428q-57 0 -57 43q0 22 11.5 33t43.5 26q59 27 84 70q36 65 66 213l153 758q23 128 23 143q0 51 -35 72q-5 3 -26 14t-28.5 20t-7.5 23q0 47 74 47h391q60 0 60 -41q0 -14 -8.5 -25.5t-17.5 -16.5t-28 -13t-26 -12
q-38 -21 -55 -60q-21 -58 -41 -151l-74 -363q-2 -6 -2 -14q0 -10 8 -10q5 0 18 10l441 362q107 93 144.5 134.5t37.5 74.5q0 16 -23.5 42t-23.5 38q0 45 76 45z" />
    <glyph glyph-name="L" unicode="L" horiz-adv-x="1171" 
d="M1038 434q27 0 45.5 -17.5t18.5 -45.5q0 -25 -25 -92q-8 -20 -26.5 -82.5t-26.5 -83.5q-20 -60 -55.5 -93.5t-100.5 -33.5q-24 0 -120 8q-108 6 -218 6h-522q-61 0 -61 45q0 16 11.5 29t21.5 18t28 12q50 23 78 68q37 66 66 211l151 758q25 131 25 149q0 45 -49 72
q-48 28 -48 53q0 47 74 47h389q60 0 60 -45q0 -10 -4.5 -18t-14 -15t-17 -11t-22 -10t-20.5 -9q-40 -21 -58 -62q-19 -52 -38 -151l-152 -746q-31 -158 -31 -180q0 -46 34 -62t104 -16q99 0 179 29.5t126 75.5q29 29 69 83t69 81.5t60 27.5z" />
    <glyph glyph-name="M" unicode="M" horiz-adv-x="1875" 
d="M1573 209q0 -36 11 -60t26.5 -35t31 -18.5t26.5 -18.5t11 -28q0 -49 -77 -49h-422q-64 0 -64 45q0 32 62 59q49 20 77 68q34 57 78 272l150 744l4 20q0 9 -8 9q-5 0 -11 -9l-594 -942q-19 -28 -49 -28h-69q-21 0 -29 6t-12 26l-211 938q-3 9 -8 9q-7 0 -11 -11
q-21 -89 -102 -501q-68 -363 -68 -439q0 -65 18.5 -96.5t63.5 -56.5q3 -2 11 -6l11 -5.5t9 -5t8.5 -5.5t7 -5.5t6.5 -7t4.5 -7.5t3.5 -9t1 -11q0 -51 -78 -51h-356q-70 0 -70 47q0 18 14.5 31t41 28t40.5 27q47 41 76 115q33 84 66 246q72 331 161 768q4 32 4 34
q0 37 -53 64q-51 26 -51 55q0 47 78 47h330q35 0 49 -8t20 -33l184 -790q3 -17 11 -17q2 0 12 13l506 794q27 41 76 41h344q63 0 63 -43q0 -25 -19.5 -38t-56.5 -25q-39 -18 -58 -58.5t-40 -142.5l-156 -772q-24 -123 -24 -174z" />
    <glyph glyph-name="N" unicode="N" horiz-adv-x="1644" 
d="M1276 1462h358q70 0 70 -45q0 -26 -21 -41q-6 -4 -31.5 -15t-31.5 -15q-57 -27 -87 -74t-56 -154q-58 -258 -232 -1102q-3 -30 -41 -30h-114q-29 0 -43 26l-531 1059q-3 5 -7 6.5t-7 0t-4 -6.5q-142 -647 -142 -805q0 -106 80 -153q4 -2 16.5 -8t17.5 -9t13.5 -9
t12.5 -11t7 -12.5t3 -16.5q0 -47 -76 -47h-401q-70 0 -70 49q0 19 8.5 27t32 17t39.5 20q65 33 100 81.5t60 153.5q9 37 194 912q2 6 2 16q0 28 -63 65q-12 7 -28 15.5t-24.5 13.5t-17.5 11.5t-12.5 14.5t-3.5 19q0 47 67 47h254q59 0 80 -43l514 -1026q5 -8 11 -8t10 10
q111 556 129 664t18 158q0 45 -13.5 74.5t-33 42.5t-39.5 22.5t-33.5 22.5t-13.5 34q0 49 80 49z" />
    <glyph glyph-name="O" unicode="O" horiz-adv-x="1658" 
d="M1280 883q0 215 -91.5 339t-254.5 124q-232 0 -395 -228q-162 -223 -162 -538q0 -214 91.5 -336.5t252.5 -122.5q238 0 397 225q162 226 162 537zM981 1487q279 0 442 -166q162 -165 162 -432q0 -376 -270 -643q-269 -269 -639 -269q-284 0 -443 164q-159 167 -159 432
q0 378 268 646t639 268z" />
    <glyph glyph-name="P" unicode="P" horiz-adv-x="1304" 
d="M967 874q69 87 69 226q0 66 -24 112q-61 113 -279 113h-82q-35 -3 -41 -35l-104 -516q-2 -8 -2 -16q0 -21 22 -21h82q258 0 359 137zM1333 1114q0 -188 -137 -328q-182 -188 -569 -188h-131q-28 0 -31 -27l-37 -184q-27 -132 -27 -178q0 -34 11 -57t27.5 -34.5
t32.5 -20.5t27 -21t11 -29q0 -47 -76 -47h-428q-59 0 -59 43q0 18 8.5 27t24.5 16.5t24 15.5q53 24 80 68q32 49 66 217l153 756q23 112 23 143q0 30 -15 50t-32.5 27t-32.5 19.5t-15 30.5q0 49 72 49h418q230 0 354 -26q127 -27 199 -123q59 -80 59 -199z" />
    <glyph glyph-name="Q" unicode="Q" horiz-adv-x="1656" 
d="M719 121q127 0 237.5 70t180.5 186q68 116 104.5 247.5t36.5 258.5q0 216 -91 339.5t-255 123.5q-130 0 -240.5 -70t-179.5 -189q-137 -234 -137 -507q0 -215 90.5 -337t253.5 -122zM819 -10q-4 -1 -5.5 -3.5t0.5 -5.5t7 -4q53 -16 142 -51q209 -80 309 -80
q37 0 89.5 18.5t55.5 18.5q19 0 34 -13.5t15 -33.5q2 -6 -1 -15t-10.5 -21.5t-14 -23t-17.5 -26.5t-16 -24q-34 -58 -67.5 -82.5t-86.5 -24.5q-93 0 -358 119t-367 119q-43 0 -92 -19.5t-51 -19.5q-13 0 -25 12t-12 25q0 27 45 63q63 51 105 68q6 3 6 6t-8 6
q-201 49 -312.5 201.5t-111.5 373.5q0 370 262 641q264 273 645 273q283 0 442 -166q162 -165 162 -432q0 -330 -215 -586q-214 -254 -549 -313z" />
    <glyph glyph-name="R" unicode="R" horiz-adv-x="1415" 
d="M545 817h108q166 0 268.5 84t102.5 238q0 186 -262 186h-105q-37 0 -43 -35l-90 -436q-2 -6 -2 -14q0 -23 23 -23zM1264 104l30 -24q17 -13 17 -33q0 -47 -68 -47h-153q-97 0 -132 53q-30 47 -47 119l-26 100q-6 26 -29 117q-41 157 -92 217q-48 63 -143 72q-62 4 -109 0
q-23 -3 -29 -31l-53 -260q-24 -126 -24 -176q0 -45 16.5 -72.5t36.5 -36t36.5 -22t16.5 -33.5q0 -47 -74 -47h-432q-59 0 -59 43q0 12 5 22t18 18t17.5 10t20.5 9q50 20 78 68q38 64 68 217l157 787q19 93 19 112q0 30 -15 50t-33.5 27t-33.5 20t-15 32q0 47 72 47h500
q86 0 172 -4q60 -3 147 -28q82 -21 129 -68q74 -74 74 -191q0 -177 -125 -284t-319 -125q-8 -1 -12 -7t-1.5 -11.5t9.5 -6.5q99 -17 153 -84q56 -69 101 -235q44 -160 69 -230q23 -56 62 -84z" />
    <glyph glyph-name="S" unicode="S" horiz-adv-x="1210" 
d="M1126 1391q48 -48 48 -123q0 -217 -89 -217q-42 0 -63 34q-20 46 -49 97q-92 157 -254 157q-107 0 -178.5 -63t-71.5 -152q0 -138 213 -231q43 -18 67 -28.5t66.5 -31t68 -38t59.5 -43t54.5 -53t40.5 -61t28.5 -74t8.5 -85.5q0 -189 -168 -338q-188 -164 -483 -164
q-58 0 -115.5 7t-119 25t-108 45.5t-76.5 72.5t-30 102q0 15 6.5 66t6.5 67q3 111 78 111q35 0 55 -33q3 -4 44.5 -85.5t74.5 -116.5q98 -107 256 -107q124 0 221 66q98 67 98 186q0 58 -33.5 103.5t-86.5 77t-117.5 60.5t-129 63.5t-117.5 76.5t-86.5 108t-33.5 150
q0 195 186 338q165 127 402 127q104 0 193.5 -28t133.5 -68z" />
    <glyph glyph-name="T" unicode="T" horiz-adv-x="1263" 
d="M1317 1477q44 0 61 -10t17 -44q0 -16 -2 -26q-1 -8 -4 -24t-8.5 -47.5t-10.5 -57.5l-24 -144q-12 -73 -74 -73q-27 0 -43.5 15.5t-28.5 55.5q0 1 -4.5 16t-9.5 30.5t-8 21.5q-7 22 -27 52t-41 42q-59 41 -172 41q-42 0 -51 -43l-182 -897q-23 -125 -23 -176q0 -37 11 -61
t26.5 -35t31 -19t26.5 -19.5t11 -29.5q0 -45 -77 -45h-430q-58 0 -58 43q0 35 56 59q54 21 83 70q36 65 66 213l180 889q1 6 2 11.5t1.5 8.5t0.5 4q0 27 -37 27q-113 0 -184 -41q-76 -42 -151 -160q-46 -75 -88 -75q-64 0 -64 59q0 17 6 41l33 137l31 125q10 38 32 52t72 14
q28 0 154 -9q126 -6 223 -6h293q100 0 229 6q132 9 156 9z" />
    <glyph glyph-name="U" unicode="U" horiz-adv-x="1531" 
d="M1221 1462h358q72 0 72 -47q0 -20 -21 -35q-6 -7 -32 -18.5t-33 -15.5q-55 -27 -84 -73t-58 -155q-42 -166 -127 -588q-35 -151 -82 -235q-82 -149 -238 -233.5t-353 -84.5q-132 0 -242 35q-112 37 -185 130t-73 223q0 82 24 196l117 582q21 95 21 137q0 57 -35 78
q-6 4 -25.5 14t-27 18.5t-7.5 22.5q0 49 72 49h395q60 0 60 -43q0 -14 -8.5 -24.5t-17.5 -15.5t-28 -13t-26 -12q-36 -18 -53 -57.5t-43 -153.5l-113 -565q-18 -89 -18 -156q0 -124 79.5 -192t219.5 -68q360 0 446 391q68 307 107 539q12 73 12 125q0 39 -10 66.5t-24.5 41
t-32 24t-32 16.5t-24.5 17.5t-10 28.5q0 51 80 51z" />
    <glyph glyph-name="V" unicode="V" horiz-adv-x="1441" 
d="M1241 1462h328q59 0 59 -41q0 -25 -53 -55q-53 -29 -113 -98q-49 -60 -131 -185l-692 -1071q-20 -26 -43 -26h-104q-29 0 -35 26l-209 1157q-27 127 -60 160q-13 13 -37 27.5t-37.5 27t-13.5 29.5q0 49 76 49h395q60 0 60 -41q0 -19 -16.5 -32.5t-37 -21t-37 -30
t-16.5 -57.5q0 -10 11 -92l149 -836q3 -14 8 -14q7 0 15 14q207 314 428 684q116 198 116 264q0 42 -41 66q-39 26 -39 51q0 45 70 45z" />
    <glyph glyph-name="W" unicode="W" horiz-adv-x="2244" 
d="M2003 1462h344q63 0 63 -43q0 -30 -53 -57q-71 -39 -121 -98q-49 -55 -127 -185l-612 -1067q-14 -26 -43 -26h-98q-27 0 -33 26l-137 1045q-3 20 -10 20q-4 0 -11 -10l-598 -1055q-14 -26 -43 -26h-104q-32 0 -35 26l-129 1157q-15 123 -47 160q-17 17 -49 35
q-37 21 -37 49q0 49 80 49h383q61 0 61 -45q0 -17 -13 -29t-36.5 -23.5t-32.5 -18.5q-37 -27 -37 -107q0 -18 4 -76l72 -757q3 -27 8 -27q3 0 13 16l602 1059q13 23 39 23h116q28 0 31 -21l127 -1053q4 -22 9 -23q4 1 10 11q35 57 358 651q106 193 106 250q0 43 -47 70
q-45 26 -45 53q0 47 72 47z" />
    <glyph glyph-name="X" unicode="X" horiz-adv-x="1484" 
d="M1262 100q51 -24 51 -55q0 -45 -70 -45h-395q-55 0 -55 37q0 25 41 49q43 27 43 61q0 35 -41 119l-160 320q-12 24 -21 24q-4 0 -12 -8q-194 -215 -301 -373q-31 -48 -31 -82t33 -57q35 -24 35 -47q0 -43 -68 -43h-350q-59 0 -59 41q0 17 10 27q4 7 20.5 18t34 21.5
t19.5 11.5q86 57 200 174q179 185 387 438q15 15 15 29q0 8 -15 35l-200 401q-43 85 -62 109q-23 34 -57 55q-4 3 -18 10.5t-19 11.5t-10.5 13t-5.5 20q0 47 69 47h396q55 0 55 -39q0 -25 -43 -49t-43 -57q0 -34 43 -121l145 -293q7 -14 12 -18t10.5 -1t14.5 15
q233 266 281 354q20 33 20 64q0 29 -35 53q-34 24 -34 45q0 47 69 47h350q58 0 58 -41q1 -12 -7 -23t-17 -17t-29.5 -19t-30.5 -19q-98 -65 -199 -174q-140 -149 -362 -409q-15 -15 -15 -29q0 -7 9 -22l198 -402q43 -88 78 -143q27 -38 68 -64z" />
    <glyph glyph-name="Y" unicode="Y" horiz-adv-x="1419" 
d="M1161 1462h342q62 0 62 -41q0 -26 -47 -53q-71 -41 -121 -88q-45 -42 -162 -182l-426 -512q-6 -6 -10 -25l-37 -176q-25 -128 -25 -174q0 -44 16.5 -71t37 -35.5t37 -22.5t16.5 -35q0 -47 -76 -47h-430q-57 0 -57 45q0 7 1 12.5t5 11t6 8.5t10 7.5t10.5 6t12.5 6t12 5.5
q58 27 82 70q35 62 65 213l21 104l2 12l1.5 9t0.5 4q0 10 -8 31l-217 626q-45 130 -70 158q-15 21 -51 41q-35 21 -35 47q0 45 78 45h385q57 0 57 -41q0 -18 -16.5 -31.5t-36.5 -22t-36.5 -28.5t-16.5 -49q0 -34 18 -86l164 -467q6 -18 12 -18q3 0 19 16q165 201 278 346
q131 174 131 224q0 37 -39 63q-36 26 -36 49q0 45 71 45z" />
    <glyph glyph-name="Z" unicode="Z" horiz-adv-x="1333" 
d="M1147 432q19 -4 28.5 -7t21.5 -12.5t13.5 -24t-4.5 -40.5t-24 -63q-7 -17 -30.5 -79t-33.5 -85q-50 -137 -155 -137q-31 0 -132 8q-99 8 -231 8h-602q-47 0 -47 41q0 28 12 68q10 29 33 55l979 1134q14 17 14 21q0 8 -18 8h-62q-207 0 -280 -8q-76 -6 -137 -35
q-75 -42 -148 -166q-40 -69 -88 -69q-63 0 -63 59q0 11 24 119q0 1 1.5 8.5t6 26t8.5 38.5q4 22 9.5 43t10.5 40.5t7 27.5q11 36 33 51t72 15q16 0 145 -9q129 -6 250 -6h581q39 0 39 -35q0 -21 -8 -57q-6 -31 -43 -74l-977 -1132q-10 -13 -10 -17q0 -8 12 -8h111
q240 0 332 29q65 22 124 66.5t93 89.5q81 108 133 108z" />
    <glyph glyph-name="bracketleft" unicode="[" horiz-adv-x="1017" 
d="M1006 1399h-293q-35 0 -41 -35l-305 -1507l-2 -12t-2 -9.5t-1 -5.5q0 -18 27 -18h295q31 0 31 -27q0 -10 -2 -18l-11 -56q-6 -30 -43 -30h-530q-31 0 -31 28q0 9 2 17l359 1771q6 33 41 33h528q35 0 35 -27q0 -8 -2 -16l-12 -57q-6 -31 -43 -31z" />
    <glyph glyph-name="backslash" unicode="\" horiz-adv-x="1054" 
d="M891 -197l-868 1727h141l868 -1727h-141z" />
    <glyph glyph-name="bracketright" unicode="]" horiz-adv-x="978" 
d="M-14 -188h293q34 0 40 34l306 1508l2 12l1.5 9t0.5 5q0 19 -27 19h-295q-31 0 -31 26q0 7 3 19l10 55q6 31 43 31h530q31 0 31 -29q0 -8 -2 -16l-359 -1772q-6 -32 -40 -32h-529q-35 0 -35 26q0 9 2 17l13 57q6 31 43 31z" />
    <glyph glyph-name="asciicircum" unicode="^" horiz-adv-x="1001" 
d="M307 950h-180q-21 0 -21 13q0 4 13 20l383 479q22 25 57 25h160q38 0 47 -25l188 -477q4 -12 4 -16q0 -19 -24 -19h-148q-36 0 -45 25l-118 303q-3 6 -9 6q-5 0 -18 -16l-234 -293q-22 -25 -55 -25z" />
    <glyph glyph-name="underscore" unicode="_" horiz-adv-x="1290" 
d="M-25 -309l11 55q3 21 24 21h1288q19 0 19 -15q0 -8 -2 -16l-12 -55q-3 -21 -23 -21h-1290q-17 0 -17 16q0 9 2 15z" />
    <glyph glyph-name="grave" unicode="`" horiz-adv-x="1024" 
d="M504 1272l-256 180q-12 9 -12 18q0 17 26 17h240q54 0 76 -31l145 -174q10 -13 10 -18q0 -15 -18 -15h-131q-42 0 -80 23z" />
    <glyph glyph-name="a" unicode="a" horiz-adv-x="1257" 
d="M518 913q-82 -88 -141 -280q-55 -186 -55 -307q0 -150 86 -150q103 0 266 254q71 108 115.5 221.5t44.5 173.5t-68 101t-127 41q-67 0 -121 -54zM1094 1092q43 0 43 -45q0 -6 -86 -410q-80 -356 -80 -428q0 -57 37 -57q19 0 61 28q42 31 57 31q35 0 35 -37q0 -21 -18 -45
q-50 -68 -122.5 -110t-143.5 -42q-158 0 -158 181q0 65 16 153l2 13q0 4 -4 4l-10 -13q-78 -135 -197 -239q-117 -99 -245 -99q-110 0 -171 81.5t-61 224.5q0 121 40.5 258.5t109.5 253.5q91 145 213.5 221t249.5 76q79 0 182 -35q98 -33 114 -33q40 0 76 33q38 35 60 35z
" />
    <glyph glyph-name="b" unicode="b" horiz-adv-x="1218" 
d="M676 156q78 79 137 266q59 189 59 323q0 146 -86 146q-107 0 -264 -250q-72 -111 -119 -227q-43 -110 -43 -168q0 -64 68 -105q68 -39 127 -39q67 0 121 54zM913 1092q115 0 173.5 -82t58.5 -224q0 -122 -40.5 -261t-109.5 -251q-90 -145 -212 -221t-248 -76
q-90 0 -185 33q-100 35 -112 35q-36 0 -74 -35q-36 -33 -60 -33q-45 0 -45 46q0 2 4 30l224 1104q20 97 20 123q0 49 -51 66q-1 0 -10.5 3t-13 4.5t-12.5 4.5t-13 5.5t-11 6t-10.5 7.5t-8 8.5t-6 10t-1.5 11.5q0 24 18.5 36.5t63.5 18.5q134 15 268 62q18 6 33 6
q51 0 51 -45q0 -2 -0.5 -5.5t-1.5 -10t-2 -11.5l-141 -698l-2 -12q0 -5 6 -5q1 0 10 15q78 132 197 233q116 101 243 101z" />
    <glyph glyph-name="c" unicode="c" horiz-adv-x="1017" 
d="M938 793q-29 0 -49 14q-16 12 -55.5 48t-55.5 48q-64 49 -137 49q-79 0 -145.5 -56t-105.5 -139t-60 -168.5t-21 -154.5q0 -127 60.5 -205.5t169.5 -78.5q46 0 98.5 20t89.5 44.5t72.5 44.5t50.5 20q19 0 33 -13t14 -30q0 -47 -84 -119q-169 -140 -369 -140
q-182 0 -290 117q-107 116 -107 297q0 277 205 488q207 213 471 213q136 0 219 -45q74 -41 74 -125q0 -129 -78 -129z" />
    <glyph glyph-name="d" unicode="d" horiz-adv-x="1259" 
d="M674 428q72 113 116 224.5t44 174.5q0 52 -43 82q-76 58 -152 58q-67 0 -121 -54q-80 -86 -137 -270q-59 -189 -59 -317q0 -150 88 -150q105 0 264 252zM1221 1460l-207 -1024q-41 -202 -41 -231q0 -51 37 -51q20 0 59 28q43 29 59 29q17 0 27 -11t10 -28q0 -42 -73 -109
q-103 -86 -209 -86q-83 0 -124.5 51t-41.5 144q0 56 14 127l2 12q0 4 -6 4q-3 0 -12 -12q-73 -122 -193 -227q-114 -99 -241 -99q-109 0 -170.5 82t-61.5 224q0 121 40.5 258.5t109.5 253.5q91 145 213.5 221t249.5 76q27 0 58.5 -4.5t57.5 -11t47.5 -12.5t34.5 -10.5
t14 -4.5q12 0 15 14l20 100q19 100 19 115q0 39 -33 59q-5 3 -38 14t-51.5 24.5t-14.5 31.5q0 46 79 55q119 15 256 58q33 10 48 10q49 0 49 -49q0 -15 -2 -21z" />
    <glyph glyph-name="e" unicode="e" horiz-adv-x="1064" 
d="M371 618q228 0 338 82q86 62 86 146q0 51 -34.5 81.5t-90.5 30.5q-102 0 -189 -96q-84 -92 -125 -209q-4 -16 -4 -20q0 -15 19 -15zM438 483q-77 0 -100 2q-13 0 -16 -18q-5 -45 -5 -68q0 -114 56 -185t157 -71q53 0 109.5 20t95.5 48q94 70 135 70q19 0 33.5 -14
t14.5 -34q0 -44 -84 -122q-155 -134 -373 -134q-186 0 -299 113q-115 115 -115 301q0 161 88 324q85 157 242 268q157 109 328 109q146 0 234.5 -74t88.5 -191q0 -84 -57.5 -157t-167.5 -121q-153 -66 -365 -66z" />
    <glyph glyph-name="f" unicode="f" horiz-adv-x="858" 
d="M1063 1503q108 -49 108 -164q0 -106 -73 -106q-22 0 -46 14t-35.5 25t-47.5 47q-73 70 -148 70q-112 0 -164 -119q-35 -76 -69 -209q-2 -6 -2 -12q0 -15 18 -15q94 0 123 2q13 0 65 6.5t68 6.5q66 0 66 -31q0 -12 -19 -55q-18 -43 -37.5 -57.5t-62.5 -14.5q-24 0 -129 6
q-23 2 -96 2q-24 0 -27 -18l-33 -230q-54 -387 -100 -555q-46 -178 -158 -305q-79 -91 -183 -138.5t-208 -47.5q-137 0 -137 59q0 8 6 35l10 51q6 27 29 27q2 0 49.5 -16.5t81.5 -16.5q50 0 94 23q101 52 144 213q42 158 98 569q2 10 2 20q27 211 45 301q2 6 2 13
q0 16 -21 16h-118q-23 0 -23 23q0 8 2 14l15 72q6 26 32 26h131q20 0 27 17q33 113 88 196q85 132 221 207.5t271 75.5q82 0 141 -27z" />
    <glyph glyph-name="g" unicode="g" horiz-adv-x="1157" 
d="M530 446q108 0 166 105q58 107 58 227q0 91 -37.5 142t-104.5 51q-110 0 -168 -105q-57 -102 -57 -229q0 -91 38 -141t105 -50zM1120 1094q80 0 80 -76q0 -61 -44 -98t-118 -37q-29 0 -39 2q21 -53 21 -109q0 -178 -139 -305t-336 -145q-187 -21 -187 -78q0 -47 115 -62
l141 -12q128 -10 179 -20q90 -18 139 -72t49 -125q0 -153 -164 -252q-160 -100 -403 -100q-132 0 -242 25.5t-184 84t-74 140.5q0 108 115 170q54 28 106 28q60 0 60 -41q0 -20 -33 -59q-31 -42 -31 -76q0 -68 85.5 -107.5t219.5 -39.5q140 0 231 39.5t91 109.5t-142 82
l-165 10q-65 3 -150 23q-78 18 -120 62t-42 102q0 123 160 188q21 11 2 19q-84 36 -132 106.5t-48 165.5q0 185 158 319q160 136 360 136q67 0 127.5 -15t95 -33.5t64 -33.5t41.5 -15q19 0 33.5 15.5t24 34t34 34t61.5 15.5z" />
    <glyph glyph-name="h" unicode="h" horiz-adv-x="1316" 
d="M1192 209q31 0 33 -28q0 -45 -76 -115q-95 -89 -207 -89q-80 0 -127 48t-47 133q0 51 53 293t53 319q0 117 -88 117q-62 0 -137 -73t-143 -202q-112 -210 -162 -442l-29 -133q-6 -31 -45 -37l-153 -20q-18 -3 -23 -3q-35 0 -35 31q0 11 2 17l232 1130q18 91 18 121
q0 34 -21.5 52.5t-47 23t-47 18t-21.5 37.5q0 43 84 55q131 17 266 62q18 6 33 6q51 0 51 -45q0 -11 -2 -17l-137 -686q-2 -6 -2 -14q0 -16 14 3q2 3 4 7q194 314 426 314q108 0 169 -64.5t61 -175.5q0 -76 -54 -344q-53 -260 -53 -307q0 -51 37 -51q20 0 62 28q42 31 59 31
z" />
    <glyph glyph-name="i" unicode="i" horiz-adv-x="671" 
d="M651 1372q0 -40 -76 -104t-118 -64q-40 0 -99 68q-55 67 -55 108q0 39 76 103q77 65 119 65q41 0 96 -67q57 -63 57 -109zM530 209q14 0 24.5 -10.5t10.5 -24.5q0 -47 -73 -108q-103 -89 -211 -89q-78 0 -121 49t-43 136q0 38 12 106l90 449q19 87 19 119q0 52 -43 67
q-10 5 -40 14.5t-42.5 20.5t-12.5 31q0 46 84 55q145 19 267 61q21 7 34 7q52 0 52 -45q0 -11 -2 -17l-119 -594q-41 -202 -41 -235q0 -51 37 -51q19 0 61 28q42 31 57 31z" />
    <glyph glyph-name="j" unicode="j" horiz-adv-x="753" 
d="M754 1368q0 -38 -76 -102q-73 -64 -117 -64q-36 0 -96 66q-55 67 -55 110q0 40 75 103q77 65 117 65q39 0 94 -67q58 -64 58 -111zM289 1026q126 14 260 57q21 9 39 9q51 0 51 -45q0 -9 -2 -17l-100 -530l-29 -152l-31 -151q-15 -68 -28 -115q-30 -119 -93 -221
q-82 -125 -205 -189.5t-257 -64.5q-76 0 -140 20q-129 41 -129 172q0 107 72 107q27 0 48.5 -14.5t68.5 -59.5l12 -12q68 -68 141 -68q103 -10 170 135q22 43 35 95q20 79 23 96l22 106l100 508q23 135 23 146q0 51 -39 65l-65 25q-31 18 -31 39q0 27 18.5 40t65.5 19z" />
    <glyph glyph-name="k" unicode="k" horiz-adv-x="1196" 
d="M1067 1092q131 0 131 -148q0 -123 -82 -123q-20 0 -69.5 25.5t-73.5 25.5q-21 0 -39 -6q-131 -41 -320 -276q-6 -6 -6 -12q0 -11 10 -11q1 0 13 4q45 25 63 25q26 0 47 -18.5t52 -69.5q8 -13 32.5 -57.5t42.5 -75.5l78 -135q37 -64 60 -86.5t53 -28.5q49 -9 49 -43
q0 -26 -29 -45q-30 -20 -98 -43q-74 -23 -102 -23q-76 0 -140 107q-43 74 -75 135l-68 129q-52 94 -78 94q-19 0 -39 -33q-126 -200 -160 -366q-3 -31 -45 -37l-157 -20q-15 -3 -21 -3q-35 0 -35 31q0 9 2 15l230 1134q18 95 18 121q0 48 -45 65q-8 4 -36 14t-41 21t-13 29
q0 26 18.5 38.5t63.5 18.5q134 15 256 56q33 10 47 10q49 0 49 -45q0 -9 -2 -17l-184 -917l-2 -12l-1.5 -9t-0.5 -4q0 -6 6 -6q3 0 12 12q69 114 174 238q97 115 232 221q128 101 223 101z" />
    <glyph glyph-name="l" unicode="l" horiz-adv-x="626" 
d="M494 209q13 0 23.5 -10.5t10.5 -24.5q0 -41 -73 -108q-95 -89 -211 -89q-78 0 -121 49t-43 136q0 41 12 106l180 889q19 87 19 119q0 52 -43 67q-10 5 -40 14.5t-42 20.5t-12 31q0 46 84 55q139 18 266 62q18 6 35 6q51 0 51 -45q0 -11 -2 -17l-209 -1034
q-41 -202 -41 -235q0 -51 37 -51q22 0 61 28q42 31 58 31z" />
    <glyph glyph-name="m" unicode="m" horiz-adv-x="1933" 
d="M1808 209q33 0 33 -37q0 -41 -74 -106q-100 -89 -213 -89q-74 0 -119.5 44t-45.5 133q0 52 12 110l74 342q30 141 30 191q0 90 -73 90q-120 0 -265 -271q-102 -194 -159 -446l-29 -133q-9 -31 -43 -37l-156 -20q-18 -3 -22 -3q-33 0 -33 29q0 11 2 19l125 608
q22 113 22 162q0 92 -73 92q-119 0 -264 -271q-112 -209 -162 -446l-29 -133q-6 -31 -43 -37l-149 -20q-18 -3 -27 -3q-35 0 -35 29q0 11 6 35l138 678q20 103 20 125q0 30 -21.5 47.5t-47 22.5t-47 18.5t-21.5 36.5q0 43 84 55q141 21 264 61q21 7 35 7q49 0 49 -45
q0 -9 -2 -17l-49 -248l-2 -12q0 -6 6 -6q3 0 10 10q188 318 404 318q110 0 169 -74q48 -57 48 -166q0 -8 -1 -19.5t-2 -29.5t-2 -31q0 -10 7 -10q3 0 12 12q188 318 399 318q102 0 160.5 -60.5t58.5 -159.5q0 -81 -55 -346q-59 -287 -59 -327q0 -49 37 -49q19 0 61 28
q42 31 57 31z" />
    <glyph glyph-name="n" unicode="n" horiz-adv-x="1349" 
d="M1225 209q31 0 33 -28q0 -45 -76 -115q-95 -89 -207 -89q-80 0 -127 48t-47 133q0 51 53 293t53 319q0 117 -88 117q-62 0 -137 -73t-143 -202q-112 -210 -162 -442l-29 -133q-6 -31 -45 -37l-153 -20q-18 -3 -23 -3q-35 0 -35 31q0 11 2 17l142 692q18 91 18 121
q0 34 -21.5 52.5t-47 23t-47 18t-21.5 37.5q0 43 84 55q142 19 268 61q21 7 33 7q51 0 51 -45q0 -11 -2 -17l-49 -248q-2 -6 -2 -14q0 -16 14 3l4 7q194 314 426 314q108 0 169 -64.5t61 -175.5q0 -76 -54 -344q-53 -260 -53 -307q0 -51 37 -51q19 0 61 28q42 31 60 31z" />
    <glyph glyph-name="o" unicode="o" horiz-adv-x="1181" 
d="M524 109q142 0 234 157q92 160 92 383q0 151 -54.5 232.5t-148.5 81.5q-141 0 -233 -150q-92 -151 -92 -377q0 -152 54 -239.5t148 -87.5zM694 1092q201 0 314.5 -118t113.5 -312q0 -269 -186 -476q-185 -209 -459 -209q-197 0 -313.5 119.5t-116.5 317.5q0 269 189 473
q190 205 458 205z" />
    <glyph glyph-name="p" unicode="p" horiz-adv-x="1253" 
d="M711 156q77 80 137 272q59 189 59 317q0 148 -88 148q-101 0 -264 -252q-71 -110 -115.5 -223t-44.5 -176q0 -60 66 -101q65 -39 129 -39q67 0 121 54zM948 1092q114 0 173 -83t59 -214q0 -120 -42.5 -262t-115.5 -259q-60 -102 -138 -170t-156 -97.5t-159 -29.5
q-29 0 -61 4.5t-58.5 11.5t-48.5 14t-35 11.5t-14 4.5q-7 0 -10 -13q-31 -149 -31 -198q0 -42 16.5 -68t36 -35t36 -22t16.5 -31q0 -51 -80 -51h-381q-68 0 -68 45q0 20 16.5 32.5t44 25.5t42.5 28q35 35 53 84q19 50 43 168l147 731q19 87 19 115q0 52 -39 69q-8 3 -25.5 9
t-27 10t-21 10.5t-17 15.5t-5.5 21q0 26 19.5 38.5t64.5 18.5q142 16 264 59q21 7 35 7q49 0 49 -45q0 -9 -2 -17l-53 -270l-2 -12q0 -10 8 -4q4 3 8 10q75 135 190 235q121 103 250 103z" />
    <glyph glyph-name="q" unicode="q" horiz-adv-x="1208" 
d="M672 428q73 114 117.5 224.5t44.5 172.5t-68 103q-65 39 -127 39q-67 0 -121 -54q-81 -81 -139 -270q-57 -186 -57 -319q0 -148 88 -148q106 0 262 252zM1090 1092q45 0 45 -43q0 -4 -1 -8.5t-2 -12t-2 -12.5l-210 -1036q-23 -131 -23 -173q0 -41 16 -66.5t35 -33.5
t35 -21.5t16 -33.5q0 -47 -79 -47h-381q-68 0 -68 41q0 31 49 55t70 51q39 50 74 207l71 350q2 6 2 15l-4 4q-2 0 -12 -17q-103 -172 -232 -260q-109 -74 -208 -74q-104 0 -168 78.5t-64 227.5q0 124 39.5 261t110.5 251q90 145 212 221t248 76q85 0 185 -35q95 -33 112 -33
q36 0 72 33q38 35 62 35z" />
    <glyph glyph-name="r" unicode="r" horiz-adv-x="952" 
d="M907 1092q57 0 91 -36t34 -108q0 -129 -82 -129q-18 0 -63 24.5t-70 24.5q-130 0 -274 -258q-107 -192 -166 -448l-27 -125q-9 -31 -45 -37l-155 -20q-15 -3 -21 -3q-35 0 -35 31q0 11 2 17l142 694q20 106 20 127q0 29 -21.5 46t-47 22.5t-47 19t-21.5 35.5q0 45 84 57
q142 16 264 59q21 7 35 7q49 0 49 -45q0 -11 -2 -17l-49 -246q-2 -6 -2 -14q0 -9 9 -5q5 3 11 13q90 144 195.5 229t191.5 85z" />
    <glyph glyph-name="s" unicode="s" horiz-adv-x="993" 
d="M14 233q0 144 80 144q14 0 25.5 -5.5t27 -25.5t22.5 -31t30 -49q94 -149 235 -149q77 0 134 41t57 110q0 95 -170 150q-5 2 -14 5q-39 14 -59.5 21.5t-57.5 24t-57.5 30.5t-47.5 36.5t-41 46t-24.5 56t-10.5 69.5q0 94 61.5 182.5t170.5 144.5q113 58 254 58
q167 0 245 -66q50 -41 50 -119q0 -157 -84 -157q-42 0 -76 61q-32 54 -45 70q-21 30 -65.5 56t-94.5 26q-69 0 -121.5 -42t-52.5 -106q0 -38 27 -67t70 -48t94.5 -37t103.5 -41.5t95 -53.5t70 -80.5t27 -116.5q0 -88 -52 -172.5t-148 -143.5q-135 -78 -299 -78
q-97 0 -184.5 27.5t-127.5 67.5q-47 47 -47 161z" />
    <glyph glyph-name="t" unicode="t" horiz-adv-x="831" 
d="M702 231q37 0 37 -32q0 -27 -34 -70q-58 -68 -143 -110t-179 -42q-120 0 -189 63.5t-69 182.5q0 68 16 156q14 78 56 239q38 146 61 250q2 6 2 15q0 14 -18 14h-123q-25 0 -25 25q0 8 2 14l15 68q6 22 34 28q131 24 191 90q33 39 86 166q9 27 35 27h108q25 0 25 -23
q0 -6 -2 -14l-39 -193q-1 -6 -2 -13.5t-1.5 -11t-0.5 -5.5q0 -23 43 -23q79 0 108 2q10 0 62 6.5t69 6.5q54 0 54 -31q0 -6 -19 -55q-14 -39 -35 -55.5t-63 -16.5q-14 0 -61.5 3t-63.5 3q-25 2 -109 2q-21 0 -28 -23q-92 -392 -92 -571q0 -147 108 -147q49 0 107 37
q55 38 77 38z" />
    <glyph glyph-name="u" unicode="u" horiz-adv-x="1347" 
d="M1208 209q14 0 24.5 -10.5t10.5 -24.5q0 -42 -76 -106q-105 -91 -209 -91q-161 0 -161 197q0 46 12 111q2 6 2 14q0 6 -3.5 6t-8.5 -6q-193 -322 -430 -322q-108 0 -169 65.5t-61 176.5q0 76 54 332q53 254 53 293q0 30 -21 47.5t-46.5 23.5t-46.5 18.5t-21 33.5
q0 47 84 59q142 16 264 59q21 7 35 7q51 0 51 -45q0 -11 -2 -17l-117 -567q-23 -118 -23 -168q0 -113 93 -113q61 0 134.5 72t141.5 201q109 202 162 444l29 133q6 31 45 37l170 23l18 2q25 0 25 -23q0 -8 -2 -14l-134 -645q-34 -173 -34 -207q0 -53 36 -53q25 0 64 28
q40 29 57 29z" />
    <glyph glyph-name="v" unicode="v" horiz-adv-x="1200" 
d="M1018 1092q127 0 127 -187q0 -224 -141 -485q-80 -154 -203 -285q-69 -74 -152.5 -116t-167.5 -42q-163 0 -233 113t-70 289q0 74 12 176q25 205 25 252q0 39 -14 53q-16 16 -74 31q-59 15 -59 51q0 44 79 59q136 27 252 80q26 11 45 11q52 0 52 -45q0 -15 -2 -27
l-31 -246q-32 -259 -35 -297q-4 -86 -4 -115q0 -217 131 -217q90 0 174 93q86 92 141 208q80 171 80 275q0 52 -14.5 87t-36 52t-42.5 29.5t-35.5 29.5t-14.5 42q0 51 74 92q74 39 137 39z" />
    <glyph glyph-name="w" unicode="w" horiz-adv-x="1781" 
d="M1364 958q0 52 80 93q84 41 143 41q135 0 135 -207q0 -225 -123 -477q-97 -200 -229.5 -315.5t-257.5 -115.5q-131 0 -199.5 86t-68.5 236q0 6 4 72q0 8 -6 8q-3 0 -13 -17q-86 -167 -215 -278q-125 -107 -254 -107q-98 0 -158.5 59t-60.5 171q0 84 54 346q53 260 53 291
q0 30 -21.5 47.5t-47 23.5t-47 19t-21.5 35q0 46 84 55q152 23 260 59q24 9 41 9q49 0 49 -45q0 -11 -2 -17l-115 -565q-27 -132 -27 -182q0 -103 80 -103q56 0 125.5 71t136.5 200q103 196 158 450l29 131q6 31 45 37l153 21q10 2 21 2q35 0 35 -31q0 -1 -0.5 -4l-1.5 -9
l-2 -12l-86 -432q-37 -182 -37 -272q0 -182 123 -182q71 0 147.5 73.5t136.5 208.5q68 154 68 266q0 69 -25 116t-59 60q-84 33 -84 84z" />
    <glyph glyph-name="x" unicode="x" horiz-adv-x="1101" 
d="M1008 1092q41 0 69.5 -21.5t40 -54t15.5 -54t4 -36.5q0 -90 -78 -90q-13 0 -49 10t-49 10q-127 0 -277 -313l147 -301q34 -66 54.5 -89t52.5 -34q28 -9 38.5 -25.5t4 -33.5t-26.5 -29q-37 -20 -96.5 -37t-95.5 -17q-47 0 -75 25.5t-60 87.5l-158 326q-63 -128 -156 -262
q-57 -82 -122 -129.5t-125 -47.5q-73 0 -101 60q-31 60 -31 113q0 38 21 62t57 24q14 0 52 -10.5t51 -10.5q127 0 286 340l-135 272q-32 66 -53 90.5t-51 32.5q-47 12 -47 47q0 40 96 70q75 28 125.5 25t79 -28.5t55.5 -84.5l145 -299q209 412 392 412z" />
    <glyph glyph-name="y" unicode="y" horiz-adv-x="1114" 
d="M977 1092q121 0 121 -129q0 -152 -133 -433q-130 -275 -351 -540q-153 -184 -313 -284.5t-297 -100.5q-96 0 -154.5 54.5t-58.5 152.5q0 96 74 96q16 0 44 -20t56 -43.5t69 -43.5t81 -20q106 0 266 133q12 12 12 20l-2 10q-2 9 -2 15q-108 557 -192 821q-24 69 -42.5 92
t-60.5 33q-5 3 -28 7.5t-34.5 15t-11.5 33.5q0 38 52 53q150 48 190 65q29 13 53 13q52 0 70 -56q42 -113 100 -370q60 -256 99 -471q7 -11 10 -11q8 0 20 15q117 163 183 323q69 163 69 254q0 37 -12.5 61.5t-30 36t-35.5 20.5t-30.5 24t-12.5 38q3 73 127 117
q52 19 105 19z" />
    <glyph glyph-name="z" unicode="z" horiz-adv-x="1107" 
d="M981 258q20 0 34.5 -13.5t14.5 -33.5q0 -14 -6 -34t-17.5 -49t-15.5 -42q-27 -94 -77 -135t-148 -41q-115 0 -348 72q-227 71 -293 71q-26 0 -64.5 -15t-48.5 -15q-19 0 -34 13.5t-15 33.5q0 39 90 129q50 50 117 53h27l508 510q-41 9 -162 59q-117 51 -174 51
q-85 0 -138 -108q-10 -23 -28 -23q-8 0 -29 7l-45 16q-18 9 -18 24q0 7 4 23q95 281 301 281q76 0 221 -60q137 -57 203 -57q73 0 157 78q23 23 45 0l48 -47q12 -12 12 -23q0 -8 -8 -16l-746 -744q6 -1 20.5 -4t43.5 -10t53 -12q196 -41 278 -41q96 0 170 65q40 37 68 37z
" />
    <glyph glyph-name="braceleft" unicode="{" horiz-adv-x="1042" 
d="M176 541q-26 9 -26 32q0 13 2 19l8 39q9 30 43 39q157 25 194 108q4 9 12 24.5t11 23t7.5 23.5t8.5 36t10 67l13 82l12 90q29 205 150.5 305.5t343.5 100.5q32 0 32 -23q0 -10 -2 -18l-12 -57q-6 -31 -39 -31q-112 -3 -162 -74q-48 -73 -69 -240q-29 -228 -84 -335
q-52 -98 -215 -150q-13 -3 -13 -12q0 -4 13 -10q149 -58 149 -207q0 -84 -39 -226t-39 -213q0 -61 32 -89.5t106 -34.5q26 -3 26 -27q0 -8 -2 -16l-12 -58q-6 -28 -47 -28q-348 0 -348 262q0 77 41 229q43 148 43 209q0 62 -34.5 99.5t-113.5 60.5z" />
    <glyph glyph-name="bar" unicode="|" horiz-adv-x="587" 
d="M350 -395h-112q-27 0 -27 26v2128q0 27 27 27h112q27 0 27 -27v-2128q0 -26 -27 -26z" />
    <glyph glyph-name="braceright" unicode="}" horiz-adv-x="1060" 
d="M868 670q27 -9 27 -33q0 -13 -2 -19l-8 -38q-9 -30 -43 -39q-89 -14 -125 -39l-18 -12t-17 -11.5t-13 -11t-13.5 -16t-10.5 -19.5q-4 -9 -13.5 -29t-14 -35.5t-9.5 -41.5l-12 -68q-1 -5 -2 -18.5t-3 -30t-5 -33.5l-13 -90q-29 -205 -150 -305t-343 -100q-33 0 -33 22
q0 10 2 18l12 58q6 31 39 31q114 3 160 73q51 73 72 240q29 231 84 334q51 98 215 151q12 3 12 13q0 4 -12 10q-150 58 -150 207q0 81 39 225t39 213q0 61 -31.5 90t-105.5 35q-27 3 -27 26q0 9 2 17l13 57q6 29 47 29q348 0 348 -262q0 -82 -43 -230q-41 -152 -41 -209
q0 -62 34 -99t113 -60z" />
    <glyph glyph-name="asciitilde" unicode="~" horiz-adv-x="1263" 
d="M160 446l-62 19q-22 6 -22 24q0 10 6 25q104 291 328 291q90 0 211 -47q215 -84 284 -84q93 0 154 104q16 25 31 25q6 0 22 -4l53 -17q23 -10 23 -22q0 -8 -6 -23q-104 -288 -324 -288q-106 0 -278 69q-151 62 -222 62q-96 0 -151 -113q-13 -25 -27 -25q-4 0 -20 4z" />
    <glyph glyph-name="uni00A0" unicode="&#xa0;" horiz-adv-x="436" 
 />
    <glyph glyph-name="exclamdown" unicode="&#xa1;" horiz-adv-x="681" 
d="M127 432q7 21 18.5 60.5t18 56t19 38.5t29.5 30t42 8q41 0 55.5 -25t14.5 -82q0 -4 -9 -86q-10 -85 -20 -258q-10 -167 -14 -201q-14 -148 -35 -219t-66 -108q-47 -41 -127 -41q-133 0 -133 119q0 69 55 249q3 10 10.5 33.5t23.5 71t30 88.5q36 102 88 266zM141 936
q0 45 80 113q82 67 125 67q46 0 103 -69q61 -70 61 -117q0 -48 -82 -115q-83 -65 -125 -65q-45 0 -102 69q-60 72 -60 117z" />
    <glyph glyph-name="cent" unicode="&#xa2;" horiz-adv-x="1054" 
d="M977 1038q35 -23 47 -47t12 -67q0 -131 -80 -131q-19 -4 -44 13.5t-59 50.5t-52 46q-67 49 -137 49q-101 0 -181 -92q-75 -86 -113 -200t-38 -226q0 -126 60 -204t169 -78q61 0 128 32t116 63.5t67 31.5t32 -14t14 -32q0 -44 -82 -114q-135 -116 -308 -137l-30 -156
q-6 -25 -31 -25h-68q-22 0 -22 21q0 6 2 12l29 148q-158 21 -248 133q-90 116 -90 276q0 239 159 438q165 201 402 250l35 174q6 25 30 25h68q22 0 22 -21q0 -8 -2 -14l-30 -151q138 0 223 -54z" />
    <glyph glyph-name="sterling" unicode="&#xa3;" horiz-adv-x="1224" 
d="M1038 1233q43 -27 43 -103q0 -153 -75 -153q-33 0 -80 74q-63 100 -152 100q-66 0 -111 -48.5t-45 -121.5q0 -53 41 -162q45 -119 46 -127h299q24 0 24 -20q0 -9 -2 -15l-10 -51q-6 -24 -31 -24h-260q2 -6 2 -29q0 -7 -4 -43q-17 -89 -77.5 -157t-147.5 -101
q-15 -6 -15 -8q0 -5 15 -8q146 -33 258 -33q52 0 98 16.5t72 36.5t52 36.5t42 16.5q21 0 35 -12.5t14 -34.5q0 -13 -8.5 -32t-22.5 -42.5t-18 -31.5q-4 -4 -12 -23q-7 -18 -29 -53q-22 -40 -76 -74q-53 -29 -133 -29q-133 0 -375 82t-295 82q-28 0 -71 -15l-43 -15
q-12 0 -23.5 10.5t-11.5 23.5q0 45 108 115q50 33 117 33q23 0 66 -5l43 -5q10 0 26 4q75 25 121.5 85t46.5 138q0 20 -10 72h-244q-24 0 -24 20q0 8 2 14l10 52q3 24 29 24h186q-51 131 -51 217q0 171 158 283q124 86 299 86q144 0 204 -45z" />
    <glyph glyph-name="currency" unicode="&#xa4;" horiz-adv-x="1527" 
d="M760 344q103 0 174 74q74 74 74 176q0 105 -74 176q-71 74 -174 74t-174 -74q-72 -72 -72 -176q0 -101 72 -176q74 -74 174 -74zM1128 309l232 -231q8 -8 8 -17q0 -6 -8 -14l-51 -51q-17 -16 -33 0l-234 231q-122 -94 -282 -94q-161 0 -283 94l-231 -231q-16 -16 -33 0
l-51 51q-16 17 0 33l231 229q-100 124 -100 285q0 164 100 285l-231 231q-16 16 0 33l49 51q17 16 33 0l233 -233q122 94 283 94q160 0 282 -94l234 233q16 16 33 0l51 -51q16 -17 0 -33l-232 -231q101 -125 101 -285q0 -154 -101 -285z" />
    <glyph glyph-name="yen" unicode="&#xa5;" horiz-adv-x="1527" 
d="M1128 1266h302q53 0 53 -37q0 -24 -41 -45q-64 -38 -107 -78q-39 -34 -143 -160l-139 -168q-11 -15 -11 -18q0 -8 13 -8h213q20 0 20 -17q0 -8 -2 -16l-8 -43q-3 -23 -27 -23h-280q-22 0 -33 -14l-84 -102q-12 -15 -12 -21q0 -8 14 -8h363q20 0 20 -19q0 -8 -2 -14
l-8 -41q-6 -22 -29 -22h-373q-23 0 -26 -19l-13 -57q-20 -90 -20 -150q0 -34 9.5 -56t23.5 -32t28 -16.5t23.5 -16t9.5 -24.5q0 -41 -69 -41h-379q-49 0 -49 39q0 27 47 51q51 24 73 62q30 52 56 184l10 47q2 6 2 14q0 15 -21 15h-362q-20 0 -20 16q0 8 2 14l10 43
q3 23 26 23h330q19 0 19 14q0 6 -2 10l-37 105q-3 16 -27 16h-252q-20 0 -20 19q0 8 2 14l8 43q7 23 29 23h198q17 0 17 12q0 1 -1 3t-2.5 7t-3.5 10l-79 230q-39 107 -60 135q-5 6 -40.5 32t-35.5 42q0 43 70 43h338q53 0 53 -37q0 -20 -47 -47q-47 -24 -47 -66
q0 -34 14 -72l144 -407q7 -15 16 -6q142 170 248 309q110 143 110 188q0 35 -32 54q-33 20 -33 45q0 39 63 39z" />
    <glyph glyph-name="brokenbar" unicode="&#xa6;" horiz-adv-x="587" 
d="M350 768h-112q-27 0 -27 27v964q0 27 27 27h112q27 0 27 -27v-964q0 -27 -27 -27zM350 -395h-112q-27 0 -27 26v965q0 27 27 27h112q27 0 27 -27v-965q0 -26 -27 -26z" />
    <glyph glyph-name="section" unicode="&#xa7;" horiz-adv-x="1216" 
d="M582 424q83 0 148 50t65 126q0 66 -58 111t-137 45q-82 0 -149 -49q-66 -51 -66 -125q0 -68 58.5 -113t138.5 -45zM702 305q172 -108 172 -285q0 -171 -139 -292q-138 -123 -344 -123q-114 0 -209 37t-131 92q-26 45 -26 114q0 172 75 172q42 0 76 -63q47 -96 92 -143
q61 -70 164 -70q93 0 150 56t57 128q0 108 -168 201q-130 72 -183 117q-122 104 -122 243q0 118 84 222q81 96 207 139q14 3 14 10q0 3 -10 10q-73 43 -115.5 117t-42.5 160q0 167 137 274q139 109 312 109q175 0 276 -84q55 -46 55 -115q0 -36 -10 -88q-18 -88 -74 -88
q-43 0 -73 68q-20 48 -41 82q-23 36 -68 64t-98 28q-77 0 -132 -47t-55 -119q0 -44 26.5 -81.5t69 -66t93.5 -57t102 -60.5t93 -70t68 -93.5t26 -122.5q0 -120 -90 -221q-86 -97 -215 -135q-13 -3 -13 -9q0 -3 10 -10z" />
    <glyph glyph-name="dieresis" unicode="&#xa8;" horiz-adv-x="1034" 
d="M864 1434q0 -38 -14.5 -83.5t-32.5 -58.5q-28 -22 -96 -22q-56 0 -79.5 14t-23.5 47q0 37 16 83t34 59q20 20 98 20q61 0 79.5 -11.5t18.5 -47.5zM479 1434q0 -38 -14.5 -83.5t-32.5 -58.5q-28 -22 -96 -22q-56 0 -79.5 14t-23.5 47q0 37 16 83t34 59q20 20 98 20
q61 0 79.5 -11.5t18.5 -47.5z" />
    <glyph glyph-name="copyright" unicode="&#xa9;" horiz-adv-x="1779" 
d="M434 1190q-188 -191 -188 -459t188 -459q190 -190 457 -190q268 0 455 190q190 190 190 459t-190 459q-186 192 -455 192q-268 0 -457 -192zM135 731q0 314 221 535t535 221q311 0 532 -221q222 -222 222 -535q0 -310 -222 -532t-532 -222q-313 0 -535 222
q-221 221 -221 532zM862 416q62 0 116 32.5t83 77.5q71 111 110 111q46 0 46 -47q0 -26 -23 -103q-27 -82 -78 -116q-86 -56 -260 -56q-190 0 -302 99.5t-112 261.5q0 222 179 360q181 140 411 140q160 0 225 -50q29 -23 29 -73q0 -47 -12 -99q-11 -47 -24 -65.5t-38 -18.5
q-23 -4 -37 16.5t-28 60.5t-25 57q-46 69 -145 69q-139 0 -234 -123q-92 -124 -92 -284q0 -116 58 -183t153 -67z" />
    <glyph glyph-name="ordfeminine" unicode="&#xaa;" horiz-adv-x="976" 
d="M451 1346q-47 -50 -86 -177q-37 -118 -37 -206q0 -93 55 -93q64 0 166 164q96 158 96 254q0 42 -37 67.5t-83.5 23.5t-73.5 -33zM854 1487q31 0 31 -37q0 -17 -8 -53q-4 -20 -27 -119t-33 -150q-47 -223 -47 -262q0 -37 25 -37q11 0 42 19.5t42 19.5q26 0 26 -26
q0 -39 -63 -90q-61 -52 -137 -52q-123 0 -123 136q0 34 10 96q0 4 -4 4q-3 0 -6 -6q-66 -115 -162 -180q-77 -50 -144 -50q-77 0 -122 55.5t-45 159.5q0 193 106 365q133 207 332 207q54 0 127 -25q74 -22 86 -22q14 0 47 23.5t47 23.5zM543 453q0 -38 -14.5 -83.5
t-32.5 -58.5q-28 -22 -97 -22q-56 0 -79 14t-23 47q0 38 15.5 83.5t33.5 58.5q20 20 98 20q61 0 80 -11.5t19 -47.5z" />
    <glyph glyph-name="guillemotleft" unicode="&#xab;" horiz-adv-x="1148" 
d="M889 201l-23 -117q-3 -12 -12 -12q-4 0 -10 6l-422 454q-10 10 -10 19q0 10 18 22l598 447q8 8 16 8q11 0 11 -10q0 -8 -2 -14l-29 -134q-6 -26 -31 -45l-362 -270q-21 -15 -21 -20q0 -4 11 -15l258 -276q12 -12 12 -27q0 -8 -2 -16zM481 238l-24 -119q-3 -13 -11 -13
q-3 0 -10 7l-352 381q-10 10 -10 20q0 1 0.5 3.5t1.5 8t2 11.5l22 112q6 22 23 35l495 369q17 10 19 10q8 0 8 -10q0 -9 -2 -15l-27 -131q-6 -27 -30 -45l-371 -274q-12 -9 -12 -17q0 -4 10 -14l258 -276q12 -12 12 -27q0 -10 -2 -16z" />
    <glyph glyph-name="logicalnot" unicode="&#xac;" horiz-adv-x="1626" 
d="M131 1069h1284v-635h-166v469h-1118v166z" />
    <glyph glyph-name="softhyphen" unicode="&#xad;" horiz-adv-x="774" 
d="M92 502l27 127q6 28 33 28h473q26 0 26 -24q0 -11 -2 -17l-26 -127q-6 -26 -33 -26l-475 -2q-25 0 -25 24q0 9 2 17z" />
    <glyph glyph-name="registered" unicode="&#xae;" horiz-adv-x="1134" 
d="M254 1341q149 146 352 146q204 0 350 -146q148 -145 148 -352t-148 -352q-145 -145 -350 -145q-204 0 -352 145q-145 145 -145 352t145 352zM606 584q166 0 281 118q119 119 119 287t-119 287q-116 119 -281 119q-163 0 -282 -119q-117 -120 -117 -287q0 -123 74 -235
l27 16q26 17 34 33q15 21 33 106l39 189q12 52 12 78q0 17 -13 31.5t-25.5 24.5t-12.5 17q0 25 35 25h268q132 0 172 -43q29 -32 29 -74q0 -64 -53.5 -106t-131.5 -47q-8 0 -8 -7q0 -3 14 -6q38 -8 59.5 -30.5t39.5 -77.5q29 -88 51 -113l7 -7l7.5 -7.5t6 -6.5t5 -8t1.5 -8
q-3 -22 -39 -22h-70q-40 0 -59 16q-16 16 -50 123q-13 51 -30.5 73.5t-46.5 30.5q-21 7 -50 7q-10 0 -14 -11l-6 -35q-12 -59 -12 -92q0 -22 13 -40t25.5 -29t12.5 -17q0 -26 -39 -26h-195q121 -127 289 -127zM621 1036q104 15 104 97q0 47 -51 59q-33 8 -92 8
q-12 0 -15 -12l-26 -133l-2 -11q0 -10 12 -10q58 0 70 2z" />
    <glyph glyph-name="overscore" unicode="&#xaf;" horiz-adv-x="1081" 
d="M223 1364l15 74q6 24 30 24h656q24 0 24 -20q0 -11 -2 -17l-14 -75q-3 -23 -31 -23h-657q-23 0 -23 21q0 10 2 16z" />
    <glyph glyph-name="degree" unicode="&#xb0;" horiz-adv-x="602" 
d="M350 1161q54 0 92.5 39t38.5 94t-38.5 94t-92.5 39q-56 0 -94.5 -38.5t-38.5 -94.5t38.5 -94.5t94.5 -38.5zM111 1294q0 100 69 166q70 70 170 70q98 0 168 -69t70 -167q0 -96 -70 -166q-69 -69 -168 -69q-101 0 -170 69t-69 166z" />
    <glyph glyph-name="plusminus" unicode="&#xb1;" horiz-adv-x="1382" 
d="M1186 868v-82q0 -26 -27 -26h-383q-14 0 -14 -12v-361q0 -27 -27 -27h-88q-26 0 -26 27v361q0 12 -15 12h-383q-26 0 -26 26v82q0 27 26 27h383q15 0 15 12v361q0 26 26 26h88q27 0 27 -26v-361q0 -12 14 -12h383q27 0 27 -27zM197 156v82q0 26 26 26h936q27 0 27 -26
v-82q0 -27 -27 -27h-936q-26 0 -26 27z" />
    <glyph glyph-name="two.superior" unicode="&#xb2;" horiz-adv-x="714" 
d="M182 1796q71 59 219 59q111 0 184.5 -59t73.5 -145q0 -114 -112 -183q-60 -35 -164 -65q-91 -27 -141 -49q-74 -35 -74 -68q0 -12 14 -12h168q93 0 117 8q21 5 57 31t47 26q39 0 39 -39q0 -7 -28 -83l-13 -33q-8 -32 -24 -58q-18 -41 -88 -41q-3 0 -64 3.5t-96 3.5h-240
q-53 0 -53 51q0 152 127 252q40 32 123 73q85 43 100 54q105 70 105 147q0 36 -23.5 61t-60.5 25q-57 0 -109 -67l-26 -41q-21 -33 -35 -45.5t-31 -12.5q-47 0 -47 62q0 99 55 145z" />
    <glyph glyph-name="three.superior" unicode="&#xb3;" horiz-adv-x="702" 
d="M442 1477q66 -8 113 -48.5t47 -103.5q0 -102 -104 -178t-256 -76q-145 0 -205 66q-39 39 -39 127q0 73 55 73q29 0 58 -51q64 -110 147 -110q64 0 101.5 49.5t37.5 111.5q0 93 -100 93q-14 0 -45.5 -3.5t-34.5 -3.5q-35 0 -35 31q0 2 6 39q9 49 50 49q3 0 34 -4t47 -4
q61 0 92 41.5t31 97.5q0 34 -19 57t-54 23q-75 0 -150 -90q-3 -4 -10.5 -14.5t-10.5 -15t-9.5 -12.5t-10.5 -11.5t-10.5 -8t-12.5 -6.5t-12 -2q-45 0 -45 47q0 94 60 148q79 67 223 67q121 0 195.5 -49t74.5 -127q0 -68 -60 -120.5t-153 -65.5q-19 -2 -19 -8.5t23 -7.5z" />
    <glyph glyph-name="acute" unicode="&#xb4;" horiz-adv-x="944" 
d="M1059 1456l-326 -184q-48 -23 -92 -23h-139q-15 0 -15 11q0 3 9 12l217 184q39 31 88 31h246q24 0 24 -14q0 -8 -12 -17z" />
    <glyph glyph-name="mu" unicode="&#xb5;" horiz-adv-x="1601" 
d="M680 1040l-129 -630q-21 -95 -21 -152q0 -108 82 -108q146 0 287 258q108 193 166 456l37 168q6 31 43 37l176 23q10 2 25 2q24 0 24 -23q0 -1 -0.5 -4t-1.5 -8.5t-2 -11.5l-133 -650q-29 -148 -29 -180q0 -55 39 -55q9 -4 26.5 6t34 23t19.5 14q18 12 35 12
q14 0 25.5 -11t11.5 -24q0 -42 -72 -108q-108 -97 -215 -97q-162 0 -162 175q0 38 10 96q5 24 -6 24q-5 0 -10 -8q-201 -287 -412 -287q-112 0 -168 74q-6 6 -8 6q-3 0 -6 -8q-36 -159 -39 -180q-7 -38 -11.5 -89.5t-7.5 -86t-9 -45.5q-21 -43 -99 -43q-90 0 -90 61
q0 23 6 47q5 15 26.5 73t29.5 85q72 237 141 567l119 592q6 31 47 37l174 23q10 2 26 2q25 0 25 -25q0 -7 -4 -27z" />
    <glyph glyph-name="pilcrow" unicode="&#xb6;" horiz-adv-x="1622" 
d="M735 727q28 0 31 31q42 249 82 372q45 136 131 205h-127q-211 0 -322 -102q-100 -93 -100 -248q0 -255 305 -258zM870 -10q90 81 131 217q42 144 91 485l49 312q13 79 51 190q34 99 88 160q-178 11 -272 -174q-27 -53 -47 -136q-22 -92 -33 -163l-31 -201
q-52 -374 -100 -535q-45 -152 -150 -237q132 3 223 82zM954 1462h533q88 0 118 -9t37 -48q0 -18 -8 -49q-7 -23 -26 -23q-2 0 -20.5 6.5t-43.5 12.5t-43 6q-95 0 -149 -111q-23 -49 -42 -125.5t-29 -135.5t-28 -185q-1 -9 -2 -14t-2 -13t-2 -14q0 -3 -1 -9.5t-1 -9.5
l-26 -186q-5 -42 -29 -162q-11 -68 -33 -143q-55 -171 -98 -225q-91 -115 -158 -146q-177 -80 -418 -80q-227 0 -227 66q0 8 2 16l10 53q6 25 27 25q1 0 23 -8.5t53.5 -17.5t56.5 -9q136 0 195 139q60 137 110 496q2 10 2 19q0 18 -26 18q-206 2 -335 59.5t-184 188.5
q-26 56 -26 135q0 205 176 346q78 62 190 92q107 32 201 39q88 6 223 6z" />
    <glyph glyph-name="middot" unicode="&#xb7;" horiz-adv-x="634" 
d="M133 582q0 44 80 112q83 68 125 68q44 0 102 -70q62 -71 62 -117q0 -47 -82 -114q-84 -66 -125 -66q-44 0 -102 70q-60 72 -60 117z" />
    <glyph glyph-name="cedilla" unicode="&#xb8;" horiz-adv-x="876" 
d="M403 2h119q-71 -53 -71 -88q0 -16 33 -25t72.5 -15t72.5 -30t33 -65q0 -68 -84 -121q-83 -53 -199 -53q-50 0 -105 14q-57 12 -57 45q0 20 14 32.5t35 12.5q5 0 40.5 -8t60.5 -8q48 0 75 18q29 23 29 47q0 20 -25 33.5t-55 19.5t-55 21.5t-25 38.5q0 48 92 131z" />
    <glyph glyph-name="one.superior" unicode="&#xb9;" horiz-adv-x="485" 
d="M428 1802l-139 -684q-6 -24 -31 -24h-137q-25 0 -25 22q0 11 2 17l99 483q10 58 10 65q0 27 -43 27q-16 0 -44.5 -2t-31.5 -2q-37 0 -37 27q0 42 8 55q8 19 43 22q84 5 209 35q53 12 74 12q45 0 45 -38q0 -9 -2 -15z" />
    <glyph glyph-name="ordmasculine" unicode="&#xba;" horiz-adv-x="944" 
d="M449 811q98 0 153 107t55 256q0 202 -127 202q-91 0 -149 -102q-57 -99 -57 -252q0 -98 34 -154.5t91 -56.5zM567 1487q144 0 224.5 -83.5t80.5 -221.5q0 -195 -131 -338q-129 -144 -325 -144q-140 0 -223.5 86t-83.5 228q0 207 143 338q144 135 315 135zM530 453
q0 -38 -14.5 -83.5t-32.5 -58.5q-28 -22 -96 -22q-56 0 -79 14t-23 47q0 38 15.5 83.5t33.5 58.5q20 20 98 20q61 0 79.5 -11.5t18.5 -47.5z" />
    <glyph glyph-name="guillemotright" unicode="&#xbb;" horiz-adv-x="1167" 
d="M240 934l22 117q3 12 12 12q5 0 11 -6l422 -455q10 -10 10 -18q0 -10 -19 -23l-598 -446q-9 -9 -16 -9q-10 0 -10 11q0 8 2 14l28 133q6 26 31 45l363 271q20 14 20 20q0 4 -10 14l-258 277q-12 12 -12 27q0 8 2 16zM647 897l25 119q3 12 10 12q4 0 10 -6l352 -381
q11 -11 11 -20q0 -1 -0.5 -3.5t-1.5 -8t-2 -11.5l-23 -113q-6 -21 -22 -34l-496 -369q-17 -10 -18 -10q-9 0 -9 10q0 8 2 14l27 131q6 26 31 45l370 275q13 10 13 16q0 4 -11 15l-258 276q-12 12 -12 27q0 10 2 16z" />
    <glyph glyph-name="onequarter" unicode="&#xbc;" horiz-adv-x="1587" 
d="M1348 291h67q23 0 23 -15q0 -6 -2 -12l-17 -76q-6 -26 -33 -26h-65q-20 0 -23 -19l-24 -118q-6 -27 -33 -27h-137q-25 0 -25 22q0 11 2 19l19 94q2 6 2 14q0 15 -17 15h-325q-21 0 -21 16q0 1 0.5 4l1.5 9l2 12l15 71q9 46 41 72q109 89 167.5 176.5t86.5 214.5
q6 25 32 25h123q23 0 23 -19q0 -8 -2 -14q-49 -235 -318 -424q-6 -3 -6 -8q0 -6 8 -6h201q18 0 21 16l59 287q6 27 31 27h139q25 0 25 -21q0 -7 -3 -16l-53 -267l-2 -12q0 -14 17 -14zM651 1434l-139 -684q-6 -25 -31 -25h-137q-25 0 -25 23q0 7 3 16l98 483q10 58 10 66
q0 26 -43 26q-16 0 -44.5 -2t-31.5 -2q-37 0 -37 27q0 40 9 55q9 20 43 23q84 5 209 35q52 12 73 12q45 0 45 -39q0 -8 -2 -14zM199 197l929 1069h168l-931 -1069h-166z" />
    <glyph glyph-name="onehalf" unicode="&#xbd;" horiz-adv-x="1585" 
d="M993 705q71 59 219 59q111 0 184.5 -59.5t73.5 -145.5q0 -113 -112 -182q-63 -37 -164 -66q-91 -27 -141 -49q-74 -35 -74 -67q0 -13 14 -13h168q93 0 117 8q21 5 57 31.5t47 26.5q39 0 39 -39q0 -8 -28 -84l-13 -33q-8 -31 -24 -57q-18 -41 -88 -41q-3 0 -64 3t-96 3
h-240q-53 0 -53 51q0 152 127 252q43 35 123 74q90 46 100 53q105 70 105 148q0 36 -23.5 61t-60.5 25q-56 0 -109 -68l-26 -41q-20 -32 -34.5 -44.5t-31.5 -12.5q-47 0 -47 61q0 100 55 146zM664 1434l-140 -684q-6 -25 -30 -25h-138q-24 0 -24 23q0 10 2 16l98 483
q10 58 10 66q0 26 -43 26q-16 0 -44 -2t-31 -2q-37 0 -37 27q0 42 8 55q9 20 43 23q84 5 209 35q53 12 74 12q45 0 45 -39q0 -8 -2 -14zM199 197l929 1069h168l-931 -1069h-166z" />
    <glyph glyph-name="threequarters" unicode="&#xbe;" horiz-adv-x="1699" 
d="M1462 291h68q22 0 22 -15q0 -6 -2 -12l-16 -76q-6 -26 -33 -26h-65q-20 0 -23 -19l-24 -118q-6 -27 -33 -27h-137q-25 0 -25 22q0 11 2 19l18 94q3 9 3 14q0 15 -17 15h-326q-20 0 -20 16q0 1 0.5 4l1.5 9l2 12l14 71q9 46 41 72q109 89 167.5 176.5t86.5 214.5
q6 25 33 25h123q23 0 23 -19q0 -5 -3 -14q-49 -236 -317 -424q-6 -3 -6 -8q0 -6 8 -6h201q17 0 20 16l60 287q6 27 30 27h140q24 0 24 -21q0 -10 -2 -16l-53 -267l-2 -12q0 -14 16 -14zM592 1110q66 -8 113 -48.5t47 -103.5q0 -102 -105 -178q-103 -75 -256 -75
q-146 0 -205 65q-39 39 -39 127q0 74 56 74q28 0 57 -51q65 -111 148 -111q63 0 101 50t38 112q0 92 -101 92q-16 0 -46.5 -3t-32.5 -3q-35 0 -35 30q0 1 6 39q9 50 49 50q3 0 34.5 -4.5t47.5 -4.5q61 0 92 42t31 98q0 34 -19.5 56.5t-54.5 22.5q-74 0 -149 -90
q-2 -3 -10 -14.5t-10.5 -15t-9.5 -12t-11 -11.5t-10.5 -8t-12.5 -6.5t-12 -1.5q-45 0 -45 47q0 94 59 147q80 68 223 68q121 0 196 -49t75 -127q0 -68 -60 -121t-153 -66q-19 -2 -19 -8.5t23 -7.5zM326 197l929 1069h168l-931 -1069h-166z" />
    <glyph glyph-name="questiondown" unicode="&#xbf;" horiz-adv-x="1097" 
d="M563 45q0 41 51.5 78t120.5 37q79 0 126.5 -49t47.5 -129q0 -147 -141 -261q-137 -116 -369 -116q-206 0 -321 100t-115 236q0 189 232 325q41 24 159 78q101 46 146 74q104 61 104 123q0 30 -45 47q-43 18 -43 43q0 33 40.5 50t96.5 17q75 0 119.5 -28t44.5 -82
q0 -85 -123 -187q-26 -21 -143 -100q-99 -65 -164 -123q-139 -133 -139 -256q0 -84 55 -135t143 -51q90 0 158 53q70 52 70 131q0 36 -17.5 54.5t-38 22t-38 15t-17.5 33.5zM530 936q0 45 80 113q82 67 125 67q46 0 103 -69q61 -70 61 -117q0 -48 -82 -115q-83 -65 -125 -65
q-45 0 -102 69q-60 72 -60 117z" />
    <glyph glyph-name="Agrave" unicode="&#xc0;" horiz-adv-x="1447" 
d="M440 598h396q18 0 18 14q0 9 -2 15l-86 485q-3 14 -8 14q-3 0 -10 -10l-316 -498q-4 -8 -4 -10q0 -10 12 -10zM1262 133q16 -16 40.5 -30t36 -25t11.5 -29q0 -49 -76 -49h-395q-60 0 -60 39q0 21 16.5 35t37 22.5t37 31t16.5 56.5q0 8 -11 90l-30 168q-3 19 -27 19h-498
q-22 0 -34 -21q-125 -210 -125 -280q0 -39 37 -66q38 -25 38 -49q0 -45 -69 -45h-324q-61 0 -61 41q0 18 14.5 30t44.5 27q92 52 238 281l694 1071q18 27 41 27h104q29 0 35 -27l209 -1157q20 -83 30 -111.5t30 -48.5zM944 1655l-256 180q-12 9 -12 18q0 17 26 17h240
q54 0 76 -31l145 -174q11 -15 11 -18q0 -15 -19 -15h-131q-42 0 -80 23z" />
    <glyph glyph-name="Aacute" unicode="&#xc1;" horiz-adv-x="1447" 
d="M440 598h396q18 0 18 14q0 9 -2 15l-86 485q-3 14 -8 14q-3 0 -10 -10l-316 -498q-4 -8 -4 -10q0 -10 12 -10zM1262 133q16 -16 40.5 -30t36 -25t11.5 -29q0 -49 -76 -49h-395q-60 0 -60 39q0 21 16.5 35t37 22.5t37 31t16.5 56.5q0 8 -11 90l-30 168q-3 19 -27 19h-498
q-22 0 -34 -21q-125 -210 -125 -280q0 -39 37 -66q38 -25 38 -49q0 -45 -69 -45h-324q-61 0 -61 41q0 18 14.5 30t44.5 27q92 52 238 281l694 1071q18 27 41 27h104q29 0 35 -27l209 -1157q20 -83 30 -111.5t30 -48.5zM1217 1839l-326 -184q-48 -23 -92 -23h-140
q-14 0 -14 10q0 5 8 13l217 184q39 31 88 31h246q25 0 25 -15q0 -7 -12 -16z" />
    <glyph glyph-name="Acircumflex" unicode="&#xc2;" horiz-adv-x="1447" 
d="M440 598h396q18 0 18 14q0 9 -2 15l-86 485q-3 14 -8 14q-3 0 -10 -10l-316 -498q-4 -8 -4 -10q0 -10 12 -10zM1262 133q16 -16 40.5 -30t36 -25t11.5 -29q0 -49 -76 -49h-395q-60 0 -60 39q0 21 16.5 35t37 22.5t37 31t16.5 56.5q0 8 -11 90l-30 168q-3 19 -27 19h-498
q-22 0 -34 -21q-125 -210 -125 -280q0 -39 37 -66q38 -25 38 -49q0 -45 -69 -45h-324q-61 0 -61 41q0 18 14.5 30t44.5 27q92 52 238 281l694 1071q18 27 41 27h104q29 0 35 -27l209 -1157q20 -83 30 -111.5t30 -48.5zM733 1612h-112q-15 0 -15 8q0 4 4 8l228 221
q21 21 45 21h159q25 0 37 -21l133 -213q7 -11 7 -14q0 -10 -15 -10h-90q-17 0 -33 16l-120 137q-6 6 -10.5 5.5t-14.5 -7.5l-162 -137q-14 -14 -41 -14z" />
    <glyph glyph-name="Atilde" unicode="&#xc3;" horiz-adv-x="1447" 
d="M440 598h396q18 0 18 14q0 9 -2 15l-86 485q-3 14 -8 14q-3 0 -10 -10l-316 -498q-4 -8 -4 -10q0 -10 12 -10zM1262 133q16 -16 40.5 -30t36 -25t11.5 -29q0 -49 -76 -49h-395q-60 0 -60 39q0 21 16.5 35t37 22.5t37 31t16.5 56.5q0 8 -11 90l-30 168q-3 19 -27 19h-498
q-22 0 -34 -21q-125 -210 -125 -280q0 -39 37 -66q38 -25 38 -49q0 -45 -69 -45h-324q-61 0 -61 41q0 18 14.5 30t44.5 27q92 52 238 281l694 1071q18 27 41 27h104q29 0 35 -27l209 -1157q20 -83 30 -111.5t30 -48.5zM618 1659l-36 12q-15 6 -15 19q0 19 29 75
q65 127 188 127q67 0 144 -32q127 -50 170 -50q57 0 98 66q8 14 21 14q1 0 3 -0.5t6.5 -1.5t8.5 -2l29 -8q16 -3 16 -18q0 -14 -25 -66q-67 -135 -190 -135q-64 0 -174 43q-98 39 -141 39q-58 0 -93 -68q-9 -18 -22 -18q-1 0 -17 4z" />
    <glyph glyph-name="Adieresis" unicode="&#xc4;" horiz-adv-x="1447" 
d="M440 598h396q18 0 18 14q0 9 -2 15l-86 485q-3 14 -8 14q-3 0 -10 -10l-316 -498q-4 -8 -4 -10q0 -10 12 -10zM1262 133q16 -16 40.5 -30t36 -25t11.5 -29q0 -49 -76 -49h-395q-60 0 -60 39q0 21 16.5 35t37 22.5t37 31t16.5 56.5q0 8 -11 90l-30 168q-3 19 -27 19h-498
q-22 0 -34 -21q-125 -210 -125 -280q0 -39 37 -66q38 -25 38 -49q0 -45 -69 -45h-324q-61 0 -61 41q0 18 14.5 30t44.5 27q92 52 238 281l694 1071q18 27 41 27h104q29 0 35 -27l209 -1157q20 -83 30 -111.5t30 -48.5zM1257 1769q0 -38 -14.5 -83t-32.5 -58q-28 -22 -96 -22
q-56 0 -79 14t-23 47q0 38 15.5 83t33.5 58q21 21 98 21q60 0 79 -12t19 -48zM872 1769q0 -38 -14.5 -83t-32.5 -58q-28 -22 -96 -22q-56 0 -79 14t-23 47q0 38 15.5 83t33.5 58q21 21 98 21q60 0 79 -12t19 -48z" />
    <glyph glyph-name="Aring" unicode="&#xc5;" horiz-adv-x="1447" 
d="M440 598h396q18 0 18 14q0 9 -2 15l-86 485q-3 14 -8 14q-3 0 -10 -10l-316 -498q-4 -8 -4 -10q0 -10 12 -10zM1262 133q16 -16 40.5 -30t36 -25t11.5 -29q0 -49 -76 -49h-395q-60 0 -60 39q0 21 16.5 35t37 22.5t37 31t16.5 56.5q0 8 -11 90l-30 168q-3 19 -27 19h-498
q-22 0 -34 -21q-125 -210 -125 -280q0 -39 37 -66q38 -25 38 -49q0 -45 -69 -45h-324q-61 0 -61 41q0 18 14.5 30t44.5 27q92 52 238 281l694 1071q18 27 41 27h104q29 0 35 -27l209 -1157q20 -83 30 -111.5t30 -48.5zM846 1753q-27 -30 -27 -70t29 -69q29 -26 67.5 -26
t67.5 26q29 29 29 69.5t-29 69.5q-26 29 -67 29t-70 -29zM782 1554q-54 54 -54 129t54 129q56 56 133.5 56t131.5 -56q55 -54 55 -129t-55 -129q-54 -54 -131.5 -54t-133.5 54z" />
    <glyph glyph-name="AE" unicode="&#xc6;" horiz-adv-x="2076" 
d="M979 625l121 600q1 4 2 9l1.5 7.5t0.5 3.5q0 8 -8 8q-7 0 -13 -6l-546 -618q-15 -15 -15 -23q0 -10 17 -10h403q31 0 37 29zM2030 1479q75 0 75 -54q0 -17 -6 -51l-43 -246q-9 -77 -76 -77q-54 0 -69 75q-21 109 -90 156q-65 41 -297 41h-80q-51 0 -60 -49l-77 -387
q-2 -8 -2 -17q0 -32 43 -32q102 0 196 4l109 8q71 6 96 6q61 0 61 -37q0 -7 -3 -17.5t-6.5 -21t-4.5 -12.5q-12 -50 -36 -68t-83 -18q-53 0 -98 2q-18 1 -36.5 2t-28 1.5t-11.5 0.5q-39 2 -207 2q-31 0 -34 -28l-64 -308q-20 -103 -20 -141q0 -46 31.5 -61t103.5 -15
q129 0 227.5 30t145.5 75q34 31 72 83.5t66 80.5t62 28q64 0 64 -63q0 -11 -29 -103l-25 -80l-24 -79q-19 -54 -57 -91t-99 -32q-28 0 -129 8q-111 6 -229 6h-572q-61 0 -61 45q0 7 1.5 13t6 11t7.5 8.5t11.5 8t11 6t13 6.5t12.5 6q49 22 76 68q33 50 74 252q2 6 2 14
q0 21 -25 21h-491q-29 0 -47 -21l-115 -141q-82 -104 -82 -147q0 -34 37 -58q37 -21 37 -47q0 -45 -68 -45h-358q-64 0 -64 43q1 22 21.5 38.5t62.5 37.5q89 54 218 194l862 971q14 14 14 33q0 26 -59 47q-60 25 -60 55q0 43 66 43h735q137 0 254 8q132 9 152 9z" />
    <glyph glyph-name="Ccedilla" unicode="&#xc7;" horiz-adv-x="1388" 
d="M721 127q84 0 164 47q81 47 114 86q57 67 82 100q37 48 60 64t55 16q61 0 61 -67q0 -51 -24 -125q-40 -114 -119 -172q-132 -99 -379 -99q-41 -38 -41 -63q-2 -9 13 -16t39 -11.5t52.5 -13t53 -19t40 -30t13.5 -45.5q0 -68 -84 -121q-83 -53 -198 -53q-50 0 -105 14
q-57 12 -57 45q0 20 14 32.5t35 12.5q5 0 40 -8t60 -8q49 0 76 18q29 23 29 47q0 20 -25 33.5t-55 19.5t-55 21.5t-25 38.5q0 43 72 115q-242 30 -398 196q-155 168 -155 432q0 364 276 619q275 254 668 254q227 0 340 -76q55 -40 55 -121q0 -62 -24 -145q-14 -48 -33 -69
t-49 -21q-40 0 -56 22q-11 14 -35 75.5t-42 86.5q-76 107 -234 107q-163 0 -299 -115q-131 -110 -201.5 -281.5t-70.5 -361.5q0 -217 100 -338q102 -123 252 -123z" />
    <glyph glyph-name="Egrave" unicode="&#xc8;" horiz-adv-x="1298" 
d="M1108 434q29 0 46 -16t17 -45q0 -35 -22 -84q-19 -44 -35 -101q-17 -60 -33 -104q-13 -41 -51 -69.5t-94 -28.5q-28 0 -127 8q-111 6 -229 6h-572q-61 0 -61 45q0 10 3 18t11.5 14.5t13 9.5t17.5 9.5t16 7.5q51 22 78 68q32 49 66 211l159 793q15 76 15 112q0 31 -15 50
t-32.5 25.5t-32.5 19.5t-15 32q0 47 80 47h535q137 0 254 8q132 9 151 9q76 0 76 -49q0 -14 -6 -54q-3 -20 -18 -102.5t-21 -120.5q-8 -57 -25 -79.5t-55 -22.5q-30 0 -44 16t-25 59q-27 114 -91 156q-65 41 -299 41h-77q-51 0 -60 -49l-76 -377q-4 -20 -4 -33q0 -26 43 -26
q111 0 205 4l107 8q71 6 90 6q59 0 59 -35q0 -7 -3.5 -21.5t-6.5 -25.5l-4 -12q-12 -50 -37 -65t-92 -15q-51 0 -94 2q-17 1 -35 2t-27.5 1.5t-13.5 0.5q-31 2 -201 2q-29 0 -35 -28l-53 -267q-31 -158 -31 -180q2 -20 10 -33.5t17.5 -21.5t28 -12.5t33.5 -6t44 -2.5h25
q121 0 214 29.5t140 75.5q32 30 71 83t67.5 80t60.5 27zM786 1655l-256 180q-12 9 -12 18q0 17 27 17h239q54 0 76 -31l146 -174q10 -13 10 -18q0 -15 -19 -15h-131q-42 0 -80 23z" />
    <glyph glyph-name="Eacute" unicode="&#xc9;" horiz-adv-x="1298" 
d="M1108 434q29 0 46 -16t17 -45q0 -35 -22 -84q-19 -44 -35 -101q-17 -60 -33 -104q-13 -41 -51 -69.5t-94 -28.5q-28 0 -127 8q-111 6 -229 6h-572q-61 0 -61 45q0 10 3 18t11.5 14.5t13 9.5t17.5 9.5t16 7.5q51 22 78 68q32 49 66 211l159 793q15 76 15 112q0 31 -15 50
t-32.5 25.5t-32.5 19.5t-15 32q0 47 80 47h535q137 0 254 8q132 9 151 9q76 0 76 -49q0 -14 -6 -54q-3 -20 -18 -102.5t-21 -120.5q-8 -57 -25 -79.5t-55 -22.5q-30 0 -44 16t-25 59q-27 114 -91 156q-65 41 -299 41h-77q-51 0 -60 -49l-76 -377q-4 -20 -4 -33q0 -26 43 -26
q111 0 205 4l107 8q71 6 90 6q59 0 59 -35q0 -7 -3.5 -21.5t-6.5 -25.5l-4 -12q-12 -50 -37 -65t-92 -15q-51 0 -94 2q-17 1 -35 2t-27.5 1.5t-13.5 0.5q-31 2 -201 2q-29 0 -35 -28l-53 -267q-31 -158 -31 -180q2 -20 10 -33.5t17.5 -21.5t28 -12.5t33.5 -6t44 -2.5h25
q121 0 214 29.5t140 75.5q32 30 71 83t67.5 80t60.5 27zM1137 1839l-326 -184q-48 -23 -92 -23h-139q-15 0 -15 10q0 5 8 13l218 184q39 31 88 31h245q25 0 25 -15q0 -7 -12 -16z" />
    <glyph glyph-name="Ecircumflex" unicode="&#xca;" horiz-adv-x="1298" 
d="M1108 434q29 0 46 -16t17 -45q0 -35 -22 -84q-19 -44 -35 -101q-17 -60 -33 -104q-13 -41 -51 -69.5t-94 -28.5q-28 0 -127 8q-111 6 -229 6h-572q-61 0 -61 45q0 10 3 18t11.5 14.5t13 9.5t17.5 9.5t16 7.5q51 22 78 68q32 49 66 211l159 793q15 76 15 112q0 31 -15 50
t-32.5 25.5t-32.5 19.5t-15 32q0 47 80 47h535q137 0 254 8q132 9 151 9q76 0 76 -49q0 -14 -6 -54q-3 -20 -18 -102.5t-21 -120.5q-8 -57 -25 -79.5t-55 -22.5q-30 0 -44 16t-25 59q-27 114 -91 156q-65 41 -299 41h-77q-51 0 -60 -49l-76 -377q-4 -20 -4 -33q0 -26 43 -26
q111 0 205 4l107 8q71 6 90 6q59 0 59 -35q0 -7 -3.5 -21.5t-6.5 -25.5l-4 -12q-12 -50 -37 -65t-92 -15q-51 0 -94 2q-17 1 -35 2t-27.5 1.5t-13.5 0.5q-31 2 -201 2q-29 0 -35 -28l-53 -267q-31 -158 -31 -180q2 -20 10 -33.5t17.5 -21.5t28 -12.5t33.5 -6t44 -2.5h25
q121 0 214 29.5t140 75.5q32 30 71 83t67.5 80t60.5 27zM610 1612h-112q-15 0 -15 8q0 4 4 8l228 221q21 21 45 21h160q24 0 36 -21l134 -213q6 -9 6 -14q0 -10 -15 -10h-90q-17 0 -33 16l-120 137q-6 6 -10.5 5.5t-14.5 -7.5l-162 -137q-14 -14 -41 -14z" />
    <glyph glyph-name="Edieresis" unicode="&#xcb;" horiz-adv-x="1298" 
d="M1108 434q29 0 46 -16t17 -45q0 -35 -22 -84q-19 -44 -35 -101q-17 -60 -33 -104q-13 -41 -51 -69.5t-94 -28.5q-28 0 -127 8q-111 6 -229 6h-572q-61 0 -61 45q0 10 3 18t11.5 14.5t13 9.5t17.5 9.5t16 7.5q51 22 78 68q32 49 66 211l159 793q15 76 15 112q0 31 -15 50
t-32.5 25.5t-32.5 19.5t-15 32q0 47 80 47h535q137 0 254 8q132 9 151 9q76 0 76 -49q0 -14 -6 -54q-3 -20 -18 -102.5t-21 -120.5q-8 -57 -25 -79.5t-55 -22.5q-30 0 -44 16t-25 59q-27 114 -91 156q-65 41 -299 41h-77q-51 0 -60 -49l-76 -377q-4 -20 -4 -33q0 -26 43 -26
q111 0 205 4l107 8q71 6 90 6q59 0 59 -35q0 -7 -3.5 -21.5t-6.5 -25.5l-4 -12q-12 -50 -37 -65t-92 -15q-51 0 -94 2q-17 1 -35 2t-27.5 1.5t-13.5 0.5q-31 2 -201 2q-29 0 -35 -28l-53 -267q-31 -158 -31 -180q2 -20 10 -33.5t17.5 -21.5t28 -12.5t33.5 -6t44 -2.5h25
q121 0 214 29.5t140 75.5q32 30 71 83t67.5 80t60.5 27zM1145 1769q0 -38 -14.5 -83t-32.5 -58q-28 -22 -97 -22q-56 0 -79 14t-23 47q0 38 15.5 83t33.5 58q21 21 99 21q60 0 79 -12t19 -48zM760 1769q0 -38 -14.5 -83t-32.5 -58q-28 -22 -97 -22q-56 0 -79 14t-23 47
q0 38 15.5 83t33.5 58q21 21 99 21q60 0 79 -12t19 -48z" />
    <glyph glyph-name="Igrave" unicode="&#xcc;" horiz-adv-x="704" 
d="M403 209q0 -36 11 -60.5t26.5 -35.5t31.5 -19t27 -19t11 -28q0 -47 -78 -47h-430q-55 0 -55 43q0 22 11.5 33t43.5 26q56 26 82 70q31 47 66 213l159 786q17 87 17 115q0 51 -35 72q-6 4 -25.5 13.5t-27 18.5t-7.5 25q0 47 72 47h393q62 0 62 -43q0 -18 -10 -28
q-9 -9 -34.5 -21.5t-35.5 -15.5q-38 -20 -57 -62q-22 -60 -39 -149l-154 -758q-25 -128 -25 -176zM541 1655l-256 180q-13 10 -13 18q0 17 27 17h240q53 0 75 -31l146 -174q10 -13 10 -18q0 -15 -18 -15h-131q-42 0 -80 23z" />
    <glyph glyph-name="Iacute" unicode="&#xcd;" horiz-adv-x="704" 
d="M403 209q0 -36 11 -60.5t26.5 -35.5t31.5 -19t27 -19t11 -28q0 -47 -78 -47h-430q-55 0 -55 43q0 22 11.5 33t43.5 26q56 26 82 70q31 47 66 213l159 786q17 87 17 115q0 51 -35 72q-6 4 -25.5 13.5t-27 18.5t-7.5 25q0 47 72 47h393q62 0 62 -43q0 -18 -10 -28
q-9 -9 -34.5 -21.5t-35.5 -15.5q-38 -20 -57 -62q-22 -60 -39 -149l-154 -758q-25 -128 -25 -176zM850 1839l-326 -184q-48 -23 -92 -23h-139q-14 0 -14 10q0 5 8 13l217 184q39 31 88 31h246q24 0 24 -15q0 -7 -12 -16z" />
    <glyph glyph-name="Icircumflex" unicode="&#xce;" horiz-adv-x="704" 
d="M403 209q0 -36 11 -60.5t26.5 -35.5t31.5 -19t27 -19t11 -28q0 -47 -78 -47h-430q-55 0 -55 43q0 22 11.5 33t43.5 26q56 26 82 70q31 47 66 213l159 786q17 87 17 115q0 51 -35 72q-6 4 -25.5 13.5t-27 18.5t-7.5 25q0 47 72 47h393q62 0 62 -43q0 -18 -10 -28
q-9 -9 -34.5 -21.5t-35.5 -15.5q-38 -20 -57 -62q-22 -60 -39 -149l-154 -758q-25 -128 -25 -176zM354 1612h-112q-15 0 -15 8q0 4 4 8l228 221q21 21 45 21h160q24 0 36 -21l134 -213q6 -9 6 -14q0 -10 -15 -10h-90q-17 0 -33 16l-120 137q-6 6 -10.5 5.5t-14.5 -7.5
l-162 -137q-14 -14 -41 -14z" />
    <glyph glyph-name="Idieresis" unicode="&#xcf;" horiz-adv-x="704" 
d="M403 209q0 -36 11 -60.5t26.5 -35.5t31.5 -19t27 -19t11 -28q0 -47 -78 -47h-430q-55 0 -55 43q0 22 11.5 33t43.5 26q56 26 82 70q31 47 66 213l159 786q17 87 17 115q0 51 -35 72q-6 4 -25.5 13.5t-27 18.5t-7.5 25q0 47 72 47h393q62 0 62 -43q0 -18 -10 -28
q-9 -9 -34.5 -21.5t-35.5 -15.5q-38 -20 -57 -62q-22 -60 -39 -149l-154 -758q-25 -128 -25 -176zM856 1769q0 -38 -14.5 -83t-32.5 -58q-28 -22 -96 -22q-56 0 -79.5 14t-23.5 47q0 38 15.5 83t33.5 58q21 21 99 21q60 0 79 -12t19 -48zM471 1769q0 -38 -14.5 -83
t-32.5 -58q-28 -22 -96 -22q-56 0 -79.5 14t-23.5 47q0 38 15.5 83t33.5 58q21 21 99 21q60 0 79 -12t19 -48z" />
    <glyph glyph-name="Eth" unicode="&#xd0;" horiz-adv-x="1613" 
d="M1018 301q115 109 178.5 266t63.5 334q0 275 -175 363q-118 59 -354 59h-26q-29 0 -41.5 -10t-18.5 -39l-84 -422q-2 -6 -2 -14q0 -19 21 -19q66 0 137 6q70 6 84 6q71 0 71 -40q0 -6 -2 -18t-4 -21.5t-2 -10.5q-10 -44 -18 -53q-14 -14 -62 -20q-9 0 -90.5 4t-142.5 4
q-25 0 -31 -25l-53 -264q-31 -152 -31 -176q0 -42 26 -55t97 -13h33q254 0 426 158zM1339 1339q220 -140 220 -452q0 -153 -60.5 -311.5t-173.5 -282.5q-273 -293 -805 -293h-471q-61 0 -61 45q0 15 12.5 28.5t22.5 19t32 16.5q44 21 70 63q29 44 65 211l54 258q2 6 2 14
q0 21 -23 21q-36 0 -101 -6t-73 -6q-69 0 -69 45l10 45q8 40 23.5 56.5t52.5 16.5q2 0 28 -2t70 -4t88 -2q27 0 33 25l59 299q23 131 23 145q0 30 -15 50t-32.5 27t-32.5 19.5t-15 30.5q0 47 72 47h344q239 0 389 -24q144 -23 262 -99z" />
    <glyph glyph-name="Ntilde" unicode="&#xd1;" horiz-adv-x="1644" 
d="M1276 1462h358q70 0 70 -45q0 -26 -21 -41q-6 -4 -31.5 -15t-31.5 -15q-57 -27 -87 -74t-56 -154q-58 -258 -232 -1102q-3 -30 -41 -30h-114q-29 0 -43 26l-531 1059q-3 5 -7 6.5t-7 0t-4 -6.5q-142 -647 -142 -805q0 -106 80 -153q4 -2 16.5 -8t17.5 -9t13.5 -9
t12.5 -11t7 -12.5t3 -16.5q0 -47 -76 -47h-401q-70 0 -70 49q0 19 8.5 27t32 17t39.5 20q65 33 100 81.5t60 153.5q9 37 194 912q2 6 2 16q0 28 -63 65q-12 7 -28 15.5t-24.5 13.5t-17.5 11.5t-12.5 14.5t-3.5 19q0 47 67 47h254q59 0 80 -43l514 -1026q5 -8 11 -8t10 10
q111 556 129 664t18 158q0 45 -13.5 74.5t-33 42.5t-39.5 22.5t-33.5 22.5t-13.5 34q0 49 80 49zM705 1659l-37 12q-15 6 -15 19q0 19 29 75q65 127 188 127q67 0 144 -32q127 -50 170 -50q57 0 98 66q8 14 21 14q1 0 3 -0.5t6.5 -1.5t8.5 -2l29 -8q16 -3 16 -18
q0 -14 -25 -66q-67 -135 -190 -135q-64 0 -174 43q-98 39 -141 39q-58 0 -93 -68q-9 -18 -22 -18z" />
    <glyph glyph-name="Ograve" unicode="&#xd2;" horiz-adv-x="1658" 
d="M1280 883q0 215 -91.5 339t-254.5 124q-232 0 -395 -228q-162 -223 -162 -538q0 -214 91.5 -336.5t252.5 -122.5q238 0 397 225q162 226 162 537zM981 1487q279 0 442 -166q162 -165 162 -432q0 -376 -270 -643q-269 -269 -639 -269q-284 0 -443 164q-159 167 -159 432
q0 378 268 646t639 268zM1022 1655l-256 180q-12 9 -12 18q0 17 26 17h240q54 0 76 -31l145 -174q10 -13 10 -18q0 -15 -18 -15h-131q-42 0 -80 23z" />
    <glyph glyph-name="Oacute" unicode="&#xd3;" horiz-adv-x="1658" 
d="M1280 883q0 215 -91.5 339t-254.5 124q-232 0 -395 -228q-162 -223 -162 -538q0 -214 91.5 -336.5t252.5 -122.5q238 0 397 225q162 226 162 537zM981 1487q279 0 442 -166q162 -165 162 -432q0 -376 -270 -643q-269 -269 -639 -269q-284 0 -443 164q-159 167 -159 432
q0 378 268 646t639 268zM1374 1839l-325 -184q-48 -23 -93 -23h-139q-14 0 -14 10q0 5 8 13l217 184q39 31 88 31h246q24 0 24 -15q0 -7 -12 -16z" />
    <glyph glyph-name="Ocircumflex" unicode="&#xd4;" horiz-adv-x="1658" 
d="M1280 883q0 215 -91.5 339t-254.5 124q-232 0 -395 -228q-162 -223 -162 -538q0 -214 91.5 -336.5t252.5 -122.5q238 0 397 225q162 226 162 537zM981 1487q279 0 442 -166q162 -165 162 -432q0 -376 -270 -643q-269 -269 -639 -269q-284 0 -443 164q-159 167 -159 432
q0 378 268 646t639 268zM817 1612h-112q-15 0 -15 8q0 4 4 8l228 221q21 21 45 21h159q25 0 37 -21l133 -213q7 -11 7 -14q0 -10 -15 -10h-90q-17 0 -33 16l-121 137q-6 6 -10 5.5t-14 -7.5l-162 -137q-14 -14 -41 -14z" />
    <glyph glyph-name="Otilde" unicode="&#xd5;" horiz-adv-x="1658" 
d="M707 1659l-37 12q-15 6 -15 19q0 19 29 75q65 127 188 127q67 0 144 -32q127 -50 170 -50q57 0 98 66q8 14 21 14q1 0 3 -0.5t6.5 -1.5t8.5 -2l29 -8q16 -3 16 -18q0 -14 -25 -66q-67 -135 -190 -135q-64 0 -174 43q-98 39 -141 39q-58 0 -93 -68q-9 -18 -22 -18z
M1280 883q0 215 -91.5 339t-254.5 124q-232 0 -395 -228q-162 -223 -162 -538q0 -214 91.5 -336.5t252.5 -122.5q238 0 397 225q162 226 162 537zM981 1487q279 0 442 -166q162 -165 162 -432q0 -376 -270 -643q-269 -269 -639 -269q-284 0 -443 164q-159 167 -159 432
q0 378 268 646t639 268z" />
    <glyph glyph-name="Odieresis" unicode="&#xd6;" horiz-adv-x="1658" 
d="M1311 1769q0 -38 -14.5 -83t-32.5 -58q-28 -22 -97 -22q-56 0 -79 14t-23 47q0 38 15.5 83t33.5 58q21 21 98 21q61 0 80 -12t19 -48zM926 1769q0 -38 -14.5 -83t-32.5 -58q-28 -22 -97 -22q-56 0 -79 14t-23 47q0 38 15.5 83t33.5 58q21 21 98 21q61 0 80 -12t19 -48z
M1280 883q0 215 -91.5 339t-254.5 124q-232 0 -395 -228q-162 -223 -162 -538q0 -214 91.5 -336.5t252.5 -122.5q238 0 397 225q162 226 162 537zM981 1487q279 0 442 -166q162 -165 162 -432q0 -376 -270 -643q-269 -269 -639 -269q-284 0 -443 164q-159 167 -159 432
q0 378 268 646t639 268z" />
    <glyph glyph-name="multiply" unicode="&#xd7;" horiz-adv-x="1251" 
d="M197 1059l102 102l326 -327l327 327l103 -102l-328 -328l328 -325l-103 -103l-327 328l-326 -328l-102 103l327 325z" />
    <glyph glyph-name="Oslash" unicode="&#xd8;" horiz-adv-x="1701" 
d="M1602 1462h145q18 0 18 -12q0 -6 -8 -14l-223 -197q-10 -10 -10 -18q0 -3 4 -15q78 -141 78 -319q0 -237 -117 -445q-118 -206 -330 -336q-211 -129 -463 -129q-250 0 -409 138q-8 8 -15 8t-20 -10l-107 -95q-21 -18 -51 -18h-139q-18 0 -18 14q0 7 8 15l219 190
q12 12 12 21q0 6 -6 18q-76 137 -76 317t70 345t186 290q121 127 292.5 202t358.5 75q248 0 410 -137q13 -10 18 -10t19 10l104 90q28 22 50 22zM414 465q3 -14 10 -14q4 0 10 6l789 696q13 13 14 20t-6 17q-89 156 -275 156q-100 1 -190 -43.5t-156 -119t-114.5 -169.5
t-72.5 -198.5t-24 -203.5q0 -68 15 -147zM745 121q163 0 295 117q126 115 192 279.5t66 338.5q0 52 -12 141q-4 12 -10 12.5t-16 -10.5l-785 -690q-12 -9 -12 -20q0 -1 4 -13q91 -155 278 -155z" />
    <glyph glyph-name="Ugrave" unicode="&#xd9;" horiz-adv-x="1531" 
d="M1221 1462h358q72 0 72 -47q0 -20 -21 -35q-6 -7 -32 -18.5t-33 -15.5q-55 -27 -84 -73t-58 -155q-42 -166 -127 -588q-35 -151 -82 -235q-82 -149 -238 -233.5t-353 -84.5q-132 0 -242 35q-112 37 -185 130t-73 223q0 82 24 196l117 582q21 95 21 137q0 57 -35 78
q-6 4 -25.5 14t-27 18.5t-7.5 22.5q0 49 72 49h395q60 0 60 -43q0 -14 -8.5 -24.5t-17.5 -15.5t-28 -13t-26 -12q-36 -18 -53 -57.5t-43 -153.5l-113 -565q-18 -89 -18 -156q0 -124 79.5 -192t219.5 -68q360 0 446 391q68 307 107 539q12 73 12 125q0 39 -10 66.5t-24.5 41
t-32 24t-32 16.5t-24.5 17.5t-10 28.5q0 51 80 51zM950 1655l-256 180q-12 9 -12 18q0 17 27 17h239q54 0 76 -31l145 -174q11 -15 11 -18q0 -15 -19 -15h-131q-42 0 -80 23z" />
    <glyph glyph-name="Uacute" unicode="&#xda;" horiz-adv-x="1531" 
d="M1221 1462h358q72 0 72 -47q0 -20 -21 -35q-6 -7 -32 -18.5t-33 -15.5q-55 -27 -84 -73t-58 -155q-42 -166 -127 -588q-35 -151 -82 -235q-82 -149 -238 -233.5t-353 -84.5q-132 0 -242 35q-112 37 -185 130t-73 223q0 82 24 196l117 582q21 95 21 137q0 57 -35 78
q-6 4 -25.5 14t-27 18.5t-7.5 22.5q0 49 72 49h395q60 0 60 -43q0 -14 -8.5 -24.5t-17.5 -15.5t-28 -13t-26 -12q-36 -18 -53 -57.5t-43 -153.5l-113 -565q-18 -89 -18 -156q0 -124 79.5 -192t219.5 -68q360 0 446 391q68 307 107 539q12 73 12 125q0 39 -10 66.5t-24.5 41
t-32 24t-32 16.5t-24.5 17.5t-10 28.5q0 51 80 51zM1309 1839l-326 -184q-48 -23 -92 -23h-139q-15 0 -15 10q0 5 8 13l218 184q39 31 88 31h245q25 0 25 -15q0 -7 -12 -16z" />
    <glyph glyph-name="Ucircumflex" unicode="&#xdb;" horiz-adv-x="1531" 
d="M1221 1462h358q72 0 72 -47q0 -20 -21 -35q-6 -7 -32 -18.5t-33 -15.5q-55 -27 -84 -73t-58 -155q-42 -166 -127 -588q-35 -151 -82 -235q-82 -149 -238 -233.5t-353 -84.5q-132 0 -242 35q-112 37 -185 130t-73 223q0 82 24 196l117 582q21 95 21 137q0 57 -35 78
q-6 4 -25.5 14t-27 18.5t-7.5 22.5q0 49 72 49h395q60 0 60 -43q0 -14 -8.5 -24.5t-17.5 -15.5t-28 -13t-26 -12q-36 -18 -53 -57.5t-43 -153.5l-113 -565q-18 -89 -18 -156q0 -124 79.5 -192t219.5 -68q360 0 446 391q68 307 107 539q12 73 12 125q0 39 -10 66.5t-24.5 41
t-32 24t-32 16.5t-24.5 17.5t-10 28.5q0 51 80 51zM770 1612h-113q-14 0 -14 8q0 4 4 8l227 221q21 21 46 21h159q25 0 37 -21l133 -213q6 -9 6 -14q0 -10 -14 -10h-90q-17 0 -33 16l-121 137q-6 6 -10 5.5t-14 -7.5l-162 -137q-14 -14 -41 -14z" />
    <glyph glyph-name="Udieresis" unicode="&#xdc;" horiz-adv-x="1531" 
d="M1221 1462h358q72 0 72 -47q0 -20 -21 -35q-6 -7 -32 -18.5t-33 -15.5q-55 -27 -84 -73t-58 -155q-42 -166 -127 -588q-35 -151 -82 -235q-82 -149 -238 -233.5t-353 -84.5q-132 0 -242 35q-112 37 -185 130t-73 223q0 82 24 196l117 582q21 95 21 137q0 57 -35 78
q-6 4 -25.5 14t-27 18.5t-7.5 22.5q0 49 72 49h395q60 0 60 -43q0 -14 -8.5 -24.5t-17.5 -15.5t-28 -13t-26 -12q-36 -18 -53 -57.5t-43 -153.5l-113 -565q-18 -89 -18 -156q0 -124 79.5 -192t219.5 -68q360 0 446 391q68 307 107 539q12 73 12 125q0 39 -10 66.5t-24.5 41
t-32 24t-32 16.5t-24.5 17.5t-10 28.5q0 51 80 51zM1296 1769q0 -38 -14.5 -83t-32.5 -58q-28 -22 -96 -22q-56 0 -79 14t-23 47q0 38 15.5 83t33.5 58q21 21 98 21q60 0 79 -12t19 -48zM911 1769q0 -38 -14.5 -83t-32.5 -58q-28 -22 -96 -22q-56 0 -79 14t-23 47
q0 38 15.5 83t33.5 58q21 21 98 21q60 0 79 -12t19 -48z" />
    <glyph glyph-name="Yacute" unicode="&#xdd;" horiz-adv-x="1419" 
d="M1161 1462h342q62 0 62 -41q0 -26 -47 -53q-71 -41 -121 -88q-45 -42 -162 -182l-426 -512q-6 -6 -10 -25l-37 -176q-25 -128 -25 -174q0 -44 16.5 -71t37 -35.5t37 -22.5t16.5 -35q0 -47 -76 -47h-430q-57 0 -57 45q0 7 1 12.5t5 11t6 8.5t10 7.5t10.5 6t12.5 6t12 5.5
q58 27 82 70q35 62 65 213l21 104l2 12l1.5 9t0.5 4q0 10 -8 31l-217 626q-45 130 -70 158q-15 21 -51 41q-35 21 -35 47q0 45 78 45h385q57 0 57 -41q0 -18 -16.5 -31.5t-36.5 -22t-36.5 -28.5t-16.5 -49q0 -34 18 -86l164 -467q6 -18 12 -18q3 0 19 16q165 201 278 346
q131 174 131 224q0 37 -39 63q-36 26 -36 49q0 45 71 45zM1208 1839l-325 -184q-48 -23 -92 -23h-140q-14 0 -14 10q0 5 8 13l217 184q39 31 88 31h246q25 0 25 -15q0 -6 -13 -16z" />
    <glyph glyph-name="Thorn" unicode="&#xde;" horiz-adv-x="1318" 
d="M909 582q70 88 70 225q0 65 -25 113q-60 112 -280 112h-80q-35 -3 -41 -35l-104 -518q-3 -9 -3 -14q0 -23 27 -23h76q131 2 217.5 34.5t142.5 105.5zM623 1169h51q80 0 166 -4q77 -4 155 -22q93 -18 146 -53q59 -34 97 -104.5t38 -162.5q0 -131 -74 -252
q-171 -263 -635 -266h-131q-25 0 -28 -26q-9 -34 -9 -66q0 -35 11.5 -59.5t28.5 -36t33.5 -20.5t28 -21t11.5 -29q0 -47 -78 -47h-428q-59 0 -59 45q0 6 1.5 12t5.5 11t7.5 8t10.5 7.5t10.5 6.5t12 6.5t11.5 5.5q44 23 80 68q30 41 66 217l157 784q19 93 19 115q0 51 -37 72
q-6 4 -25.5 13.5t-27 18.5t-7.5 25q0 47 72 47h393q59 0 62 -43q0 -18 -10 -28q-9 -9 -34.5 -21.5t-35.5 -15.5q-61 -31 -82 -146q-2 -8 -2 -18q0 -21 29 -21z" />
    <glyph glyph-name="scharfess" unicode="&#xdf;" horiz-adv-x="1323" 
d="M1100 1063q-2 -2 -42.5 -29.5t-58.5 -42.5q-108 -87 -108 -151q0 -10 4 -21t7.5 -17t13.5 -21l14 -21q20 -20 65 -55l88 -68q81 -62 116.5 -118t35.5 -124q0 -95 -60.5 -183.5t-162.5 -152.5q-137 -82 -310 -82q-196 0 -196 119q0 50 24.5 85.5t65.5 35.5q18 0 41 -17
t42.5 -37t54 -37t73.5 -17q75 0 130.5 51t55.5 123q0 52 -36.5 96t-131.5 113q-95 70 -137.5 126t-42.5 115q0 65 60 146q9 14 77 82l43 38l37 31l76 70q31 31 58.5 80t27.5 94q0 119 -143 119q-103 0 -181 -66q-94 -82 -141 -285q-28 -120 -80 -518q-42 -302 -86 -450
q-48 -160 -153 -283q-77 -89 -180 -136.5t-205 -47.5q-144 0 -144 57q0 5 4 25l15 61q6 27 26 27q2 0 23.5 -8.5t52.5 -16.5t57 -8q49 0 93 23q102 51 149 210q44 149 98 572q47 361 86 487q53 173 152 277q205 217 502 217q143 0 231 -57t88 -158q0 -120 -188 -252z" />
    <glyph glyph-name="agrave" unicode="&#xe0;" horiz-adv-x="1257" 
d="M518 913q-82 -88 -141 -280q-55 -186 -55 -307q0 -150 86 -150q103 0 266 254q71 108 115.5 221.5t44.5 173.5t-68 101t-127 41q-67 0 -121 -54zM1094 1092q43 0 43 -45q0 -6 -86 -410q-80 -356 -80 -428q0 -57 37 -57q19 0 61 28q42 31 57 31q35 0 35 -37q0 -21 -18 -45
q-50 -68 -122.5 -110t-143.5 -42q-158 0 -158 181q0 65 16 153l2 13q0 4 -4 4l-10 -13q-78 -135 -197 -239q-117 -99 -245 -99q-110 0 -171 81.5t-61 224.5q0 121 40.5 258.5t109.5 253.5q91 145 213.5 221t249.5 76q79 0 182 -35q98 -33 114 -33q40 0 76 33q38 35 60 35z
M745 1272l-256 180q-12 9 -12 18q0 17 27 17h239q54 0 76 -31l146 -174q10 -13 10 -18q0 -15 -19 -15h-131q-42 0 -80 23z" />
    <glyph glyph-name="aacute" unicode="&#xe1;" horiz-adv-x="1257" 
d="M518 913q-82 -88 -141 -280q-55 -186 -55 -307q0 -150 86 -150q103 0 266 254q71 108 115.5 221.5t44.5 173.5t-68 101t-127 41q-67 0 -121 -54zM1094 1092q43 0 43 -45q0 -6 -86 -410q-80 -356 -80 -428q0 -57 37 -57q19 0 61 28q42 31 57 31q35 0 35 -37q0 -21 -18 -45
q-50 -68 -122.5 -110t-143.5 -42q-158 0 -158 181q0 65 16 153l2 13q0 4 -4 4l-10 -13q-78 -135 -197 -239q-117 -99 -245 -99q-110 0 -171 81.5t-61 224.5q0 121 40.5 258.5t109.5 253.5q91 145 213.5 221t249.5 76q79 0 182 -35q98 -33 114 -33q40 0 76 33q38 35 60 35z
M1049 1456l-326 -184q-48 -23 -92 -23h-139q-15 0 -15 11q0 4 8 12l217 184q39 31 89 31h245q25 0 25 -14q0 -8 -12 -17z" />
    <glyph glyph-name="acircumflex" unicode="&#xe2;" horiz-adv-x="1257" 
d="M518 913q-82 -88 -141 -280q-55 -186 -55 -307q0 -150 86 -150q103 0 266 254q71 108 115.5 221.5t44.5 173.5t-68 101t-127 41q-67 0 -121 -54zM1094 1092q43 0 43 -45q0 -6 -86 -410q-80 -356 -80 -428q0 -57 37 -57q19 0 61 28q42 31 57 31q35 0 35 -37q0 -21 -18 -45
q-50 -68 -122.5 -110t-143.5 -42q-158 0 -158 181q0 65 16 153l2 13q0 4 -4 4l-10 -13q-78 -135 -197 -239q-117 -99 -245 -99q-110 0 -171 81.5t-61 224.5q0 121 40.5 258.5t109.5 253.5q91 145 213.5 221t249.5 76q79 0 182 -35q98 -33 114 -33q40 0 76 33q38 35 60 35z
M557 1229h-113q-14 0 -14 8q0 4 4 8l228 221q21 21 45 21h159q25 0 37 -21l133 -213q6 -9 6 -14q0 -10 -14 -10h-90q-17 0 -33 16l-121 137q-6 6 -10 5.5t-14 -7.5l-162 -137q-14 -14 -41 -14z" />
    <glyph glyph-name="atilde" unicode="&#xe3;" horiz-adv-x="1257" 
d="M518 913q-82 -88 -141 -280q-55 -186 -55 -307q0 -150 86 -150q103 0 266 254q71 108 115.5 221.5t44.5 173.5t-68 101t-127 41q-67 0 -121 -54zM1094 1092q43 0 43 -45q0 -6 -86 -410q-80 -356 -80 -428q0 -57 37 -57q19 0 61 28q42 31 57 31q35 0 35 -37q0 -21 -18 -45
q-50 -68 -122.5 -110t-143.5 -42q-158 0 -158 181q0 65 16 153l2 13q0 4 -4 4l-10 -13q-78 -135 -197 -239q-117 -99 -245 -99q-110 0 -171 81.5t-61 224.5q0 121 40.5 258.5t109.5 253.5q91 145 213.5 221t249.5 76q79 0 182 -35q98 -33 114 -33q40 0 76 33q38 35 60 35z
M432 1278l-37 12q-14 6 -14 19q0 19 29 75q65 127 188 127q66 0 143 -32q125 -49 170 -49q58 0 99 65q8 14 20 14q1 0 3.5 -0.5t7 -1.5t8.5 -2l28 -8q17 -3 17 -18q0 -14 -25 -66q-67 -135 -190 -135q-64 0 -174 43q-98 39 -142 39q-57 0 -92 -68q-9 -18 -22 -18q-1 0 -17 4
z" />
    <glyph glyph-name="adieresis" unicode="&#xe4;" horiz-adv-x="1257" 
d="M518 913q-82 -88 -141 -280q-55 -186 -55 -307q0 -150 86 -150q103 0 266 254q71 108 115.5 221.5t44.5 173.5t-68 101t-127 41q-67 0 -121 -54zM1094 1092q43 0 43 -45q0 -6 -86 -410q-80 -356 -80 -428q0 -57 37 -57q19 0 61 28q42 31 57 31q35 0 35 -37q0 -21 -18 -45
q-50 -68 -122.5 -110t-143.5 -42q-158 0 -158 181q0 65 16 153l2 13q0 4 -4 4l-10 -13q-78 -135 -197 -239q-117 -99 -245 -99q-110 0 -171 81.5t-61 224.5q0 121 40.5 258.5t109.5 253.5q91 145 213.5 221t249.5 76q79 0 182 -35q98 -33 114 -33q40 0 76 33q38 35 60 35z
M1075 1434q0 -38 -14.5 -83.5t-32.5 -58.5q-28 -22 -96 -22q-56 0 -79.5 14t-23.5 47q0 37 16 83t34 59q20 20 98 20q61 0 79.5 -11.5t18.5 -47.5zM690 1434q0 -38 -14.5 -83.5t-32.5 -58.5q-28 -22 -96 -22q-56 0 -79.5 14t-23.5 47q0 37 16 83t34 59q20 20 98 20
q61 0 79.5 -11.5t18.5 -47.5z" />
    <glyph glyph-name="aring" unicode="&#xe5;" horiz-adv-x="1257" 
d="M518 913q-82 -88 -141 -280q-55 -186 -55 -307q0 -150 86 -150q103 0 266 254q71 108 115.5 221.5t44.5 173.5t-68 101t-127 41q-67 0 -121 -54zM1094 1092q43 0 43 -45q0 -6 -86 -410q-80 -356 -80 -428q0 -57 37 -57q19 0 61 28q42 31 57 31q35 0 35 -37q0 -21 -18 -45
q-50 -68 -122.5 -110t-143.5 -42q-158 0 -158 181q0 65 16 153l2 13q0 4 -4 4l-10 -13q-78 -135 -197 -239q-117 -99 -245 -99q-110 0 -171 81.5t-61 224.5q0 121 40.5 258.5t109.5 253.5q91 145 213.5 221t249.5 76q79 0 182 -35q98 -33 114 -33q40 0 76 33q38 35 60 35z
M641 1346q0 -39 28 -68t68 -29q41 0 69 29t28 68q0 41 -28 69.5t-69 28.5t-68.5 -28.5t-27.5 -69.5zM604 1217q-54 54 -54 129t54 129q56 55 133 55t131 -55q56 -54 56 -129t-56 -129q-54 -54 -131 -54t-133 54z" />
    <glyph glyph-name="ae" unicode="&#xe6;" horiz-adv-x="1708" 
d="M614 254q36 55 54 113q21 70 43 188q0 6 -6 6q-4 0 -17 -8q-41 -24 -141 -61q-90 -31 -148 -64q-116 -64 -116 -170q0 -55 38 -91t95 -36q118 0 198 123zM1192 920q-133 -89 -195 -273q-2 -6 -2 -14q0 -15 19 -15q228 0 338 82q86 62 86 146q0 51 -34.5 81.5t-88.5 30.5
q-68 0 -123 -38zM991 485q-25 0 -28 -22q-2 -12 -2 -53q0 -132 57 -200.5t156 -68.5q47 0 103.5 22t98.5 48t82 48t58 22q20 0 33.5 -14.5t13.5 -35.5q0 -49 -86 -120q-152 -134 -367 -134q-122 0 -220 52.5t-151 152.5q-3 8 -10 8q-5 0 -10 -8q-69 -92 -175 -148.5
t-229 -56.5q-126 0 -215 68q-88 67 -88 184q0 79 50.5 150.5t142.5 118.5q59 30 192 73l162 56q207 77 207 217q0 55 -39 87t-100 32q-114 0 -226 -121q-9 -11 -29.5 -35.5t-30.5 -35t-25.5 -25.5t-27.5 -21t-24 -6q-65 0 -65 59q0 48 20 109q21 68 53 100q51 51 160 78
q108 27 207 27q224 0 326 -129q10 -13 14 -13q3 0 14 8q178 134 363 134q127 0 221 -70q96 -72 96 -191q0 -180 -225 -282q-153 -66 -367 -66q-72 0 -90 2z" />
    <glyph glyph-name="ccedilla" unicode="&#xe7;" horiz-adv-x="1017" 
d="M938 793q-29 0 -49 14q-16 12 -55.5 48t-55.5 48q-64 49 -137 49q-79 0 -145.5 -56t-105.5 -139t-60 -168.5t-21 -154.5q0 -127 60.5 -205.5t169.5 -78.5q46 0 98.5 20t89.5 44.5t72.5 44.5t50.5 20q19 0 33 -13t14 -30q0 -47 -84 -119q-147 -122 -330 -137
q-43 -34 -43 -66q-2 -9 13 -16t39 -11.5t52.5 -13t53 -19t40 -30t13.5 -45.5q0 -68 -84 -121q-83 -53 -198 -53q-50 0 -105 14q-57 12 -57 45q0 20 14 32.5t35 12.5q5 0 40 -8t60 -8q49 0 76 18q29 23 29 47q0 20 -25 33.5t-55 19.5t-55 21.5t-25 38.5q0 43 70 113
q-149 23 -236.5 134t-87.5 273q0 277 205 488q207 213 471 213q136 0 219 -45q74 -41 74 -125q0 -129 -78 -129z" />
    <glyph glyph-name="egrave" unicode="&#xe8;" horiz-adv-x="1064" 
d="M371 618q228 0 338 82q86 62 86 146q0 51 -34.5 81.5t-90.5 30.5q-102 0 -189 -96q-84 -92 -125 -209q-4 -16 -4 -20q0 -15 19 -15zM438 483q-77 0 -100 2q-13 0 -16 -18q-5 -45 -5 -68q0 -114 56 -185t157 -71q53 0 109.5 20t95.5 48q94 70 135 70q19 0 33.5 -14
t14.5 -34q0 -44 -84 -122q-155 -134 -373 -134q-186 0 -299 113q-115 115 -115 301q0 161 88 324q85 157 242 268q157 109 328 109q146 0 234.5 -74t88.5 -191q0 -84 -57.5 -157t-167.5 -121q-153 -66 -365 -66zM659 1272l-256 180q-12 9 -12 18q0 17 27 17h239q54 0 76 -31
l146 -174q10 -13 10 -18q0 -15 -19 -15h-131q-42 0 -80 23z" />
    <glyph glyph-name="eacute" unicode="&#xe9;" horiz-adv-x="1064" 
d="M371 618q228 0 338 82q86 62 86 146q0 51 -34.5 81.5t-90.5 30.5q-102 0 -189 -96q-84 -92 -125 -209q-4 -16 -4 -20q0 -15 19 -15zM438 483q-77 0 -100 2q-13 0 -16 -18q-5 -45 -5 -68q0 -114 56 -185t157 -71q53 0 109.5 20t95.5 48q94 70 135 70q19 0 33.5 -14
t14.5 -34q0 -44 -84 -122q-155 -134 -373 -134q-186 0 -299 113q-115 115 -115 301q0 161 88 324q85 157 242 268q157 109 328 109q146 0 234.5 -74t88.5 -191q0 -84 -57.5 -157t-167.5 -121q-153 -66 -365 -66zM997 1456l-325 -184q-48 -23 -92 -23h-140q-14 0 -14 11
q0 4 8 12l217 184q39 31 88 31h246q25 0 25 -14q0 -7 -13 -17z" />
    <glyph glyph-name="ecircumflex" unicode="&#xea;" horiz-adv-x="1064" 
d="M371 618q228 0 338 82q86 62 86 146q0 51 -34.5 81.5t-90.5 30.5q-102 0 -189 -96q-84 -92 -125 -209q-4 -16 -4 -20q0 -15 19 -15zM438 483q-77 0 -100 2q-13 0 -16 -18q-5 -45 -5 -68q0 -114 56 -185t157 -71q53 0 109.5 20t95.5 48q94 70 135 70q19 0 33.5 -14
t14.5 -34q0 -44 -84 -122q-155 -134 -373 -134q-186 0 -299 113q-115 115 -115 301q0 161 88 324q85 157 242 268q157 109 328 109q146 0 234.5 -74t88.5 -191q0 -84 -57.5 -157t-167.5 -121q-153 -66 -365 -66zM473 1229h-113q-14 0 -14 8q0 4 4 8l228 221q21 21 45 21h159
q25 0 37 -21l133 -213q6 -9 6 -14q0 -10 -14 -10h-90q-17 0 -33 16l-121 137q-6 6 -10 5.5t-14 -7.5l-162 -137q-14 -14 -41 -14z" />
    <glyph glyph-name="edieresis" unicode="&#xeb;" horiz-adv-x="1064" 
d="M371 618q228 0 338 82q86 62 86 146q0 51 -34.5 81.5t-90.5 30.5q-102 0 -189 -96q-84 -92 -125 -209q-4 -16 -4 -20q0 -15 19 -15zM438 483q-77 0 -100 2q-13 0 -16 -18q-5 -45 -5 -68q0 -114 56 -185t157 -71q53 0 109.5 20t95.5 48q94 70 135 70q19 0 33.5 -14
t14.5 -34q0 -44 -84 -122q-155 -134 -373 -134q-186 0 -299 113q-115 115 -115 301q0 161 88 324q85 157 242 268q157 109 328 109q146 0 234.5 -74t88.5 -191q0 -84 -57.5 -157t-167.5 -121q-153 -66 -365 -66zM983 1434q0 -38 -14.5 -83.5t-32.5 -58.5q-28 -22 -96 -22
q-56 0 -79.5 14t-23.5 47q0 38 15.5 83.5t33.5 58.5q20 20 99 20q61 0 79.5 -11.5t18.5 -47.5zM598 1434q0 -38 -14.5 -83.5t-32.5 -58.5q-28 -22 -96 -22q-56 0 -79.5 14t-23.5 47q0 38 15.5 83.5t33.5 58.5q20 20 99 20q61 0 79.5 -11.5t18.5 -47.5z" />
    <glyph glyph-name="igrave" unicode="&#xec;" horiz-adv-x="649" 
d="M528 209q14 0 24.5 -10.5t10.5 -24.5q0 -46 -74 -108q-103 -89 -210 -89q-78 0 -121 49t-43 136q0 38 12 106l90 449q19 87 19 119q0 52 -43 67q-10 5 -40 14.5t-42.5 20.5t-12.5 31q0 46 84 55q145 19 267 61q21 7 34 7q52 0 52 -45q0 -8 -3 -17l-118 -594
q-41 -202 -41 -235q0 -51 37 -51q21 0 63 28q42 31 55 31zM414 1272l-256 180q-13 10 -13 18q0 17 27 17h240q53 0 75 -31l146 -174q10 -13 10 -18q0 -15 -18 -15h-131q-42 0 -80 23z" />
    <glyph glyph-name="iacute" unicode="&#xed;" horiz-adv-x="649" 
d="M528 209q14 0 24.5 -10.5t10.5 -24.5q0 -46 -74 -108q-103 -89 -210 -89q-78 0 -121 49t-43 136q0 38 12 106l90 449q19 87 19 119q0 52 -43 67q-10 5 -40 14.5t-42.5 20.5t-12.5 31q0 46 84 55q145 19 267 61q21 7 34 7q52 0 52 -45q0 -8 -3 -17l-118 -594
q-41 -202 -41 -235q0 -51 37 -51q21 0 63 28q42 31 55 31zM680 1456l-326 -184q-48 -23 -92 -23h-139q-14 0 -14 11q0 4 8 12l217 184q39 31 88 31h246q24 0 24 -14q0 -8 -12 -17z" />
    <glyph glyph-name="icircumflex" unicode="&#xee;" horiz-adv-x="649" 
d="M528 209q14 0 24.5 -10.5t10.5 -24.5q0 -46 -74 -108q-103 -89 -210 -89q-78 0 -121 49t-43 136q0 38 12 106l90 449q19 87 19 119q0 52 -43 67q-10 5 -40 14.5t-42.5 20.5t-12.5 31q0 46 84 55q145 19 267 61q21 7 34 7q52 0 52 -45q0 -8 -3 -17l-118 -594
q-41 -202 -41 -235q0 -51 37 -51q21 0 63 28q42 31 55 31zM223 1229h-112q-15 0 -15 8q0 4 4 8l228 221q21 21 45 21h159q25 0 37 -21l133 -213q7 -11 7 -14q0 -10 -15 -10h-90q-17 0 -33 16l-120 137q-6 6 -10.5 5.5t-14.5 -7.5l-162 -137q-14 -14 -41 -14z" />
    <glyph glyph-name="idieresis" unicode="&#xef;" horiz-adv-x="649" 
d="M528 209q14 0 24.5 -10.5t10.5 -24.5q0 -46 -74 -108q-103 -89 -210 -89q-78 0 -121 49t-43 136q0 38 12 106l90 449q19 87 19 119q0 52 -43 67q-10 5 -40 14.5t-42.5 20.5t-12.5 31q0 46 84 55q145 19 267 61q21 7 34 7q52 0 52 -45q0 -8 -3 -17l-118 -594
q-41 -202 -41 -235q0 -51 37 -51q21 0 63 28q42 31 55 31zM739 1434q0 -38 -14.5 -83.5t-32.5 -58.5q-28 -22 -96 -22q-56 0 -79 14t-23 47q0 38 15.5 83.5t33.5 58.5q20 20 98 20q61 0 79.5 -11.5t18.5 -47.5zM354 1434q0 -38 -14.5 -83.5t-32.5 -58.5q-28 -22 -96 -22
q-56 0 -79 14t-23 47q0 38 15.5 83.5t33.5 58.5q20 20 98 20q61 0 79.5 -11.5t18.5 -47.5z" />
    <glyph glyph-name="eth" unicode="&#xf0;" horiz-adv-x="1144" 
d="M496 111q132 0 215 133q84 134 84 323q0 124 -49.5 193t-141.5 69q-99 0 -170 -77q-123 -134 -123 -375q0 -123 50 -194.5t135 -71.5zM1022 1442l45 -43q10 -10 10 -19q0 -10 -16 -20l-156 -90q-12 -6 -12 -17q0 -5 8 -18q156 -225 156 -520q0 -339 -185 -539
q-184 -199 -434 -199q-179 0 -288 109q-109 112 -109 285q0 233 162 407q164 176 393 176q27 0 54.5 -4t47.5 -10t36 -12.5t25.5 -10.5t10.5 -4q8 0 8 9q0 6 -2 12q-26 96 -92 186q-10 13 -16 13q-3 0 -17 -7l-159 -92q-13 -8 -25 -8q-15 0 -29 14l-45 43q-23 23 6 41
l150 88q13 10 0 23q-67 55 -139 55q-14 0 -38 -2.5t-39 -3t-31.5 2t-25 13t-8.5 29.5q0 38 86 94q91 58 168 58q130 0 262 -117q8 -8 19 -8q7 0 16 6l150 88q12 6 22 6q17 0 31 -14z" />
    <glyph glyph-name="ntilde" unicode="&#xf1;" horiz-adv-x="1349" 
d="M1225 209q31 0 33 -28q0 -45 -76 -115q-95 -89 -207 -89q-80 0 -127 48t-47 133q0 51 53 293t53 319q0 117 -88 117q-62 0 -137 -73t-143 -202q-112 -210 -162 -442l-29 -133q-6 -31 -45 -37l-153 -20q-18 -3 -23 -3q-35 0 -35 31q0 11 2 17l142 692q18 91 18 121
q0 34 -21.5 52.5t-47 23t-47 18t-21.5 37.5q0 43 84 55q142 19 268 61q21 7 33 7q51 0 51 -45q0 -11 -2 -17l-49 -248q-2 -6 -2 -14q0 -16 14 3l4 7q194 314 426 314q108 0 169 -64.5t61 -175.5q0 -76 -54 -344q-53 -260 -53 -307q0 -51 37 -51q19 0 61 28q42 31 60 31z
M424 1278l-37 12q-14 6 -14 19q0 21 28 75q65 127 189 127q66 0 143 -32q125 -49 170 -49q57 0 98 65q8 14 21 14q1 0 3 -0.5t6.5 -1.5t8.5 -2l29 -8q16 -3 16 -18q0 -17 -24 -66q-67 -135 -191 -135q-64 0 -174 43q-98 39 -141 39q-57 0 -92 -68q-9 -18 -23 -18z" />
    <glyph glyph-name="ograve" unicode="&#xf2;" horiz-adv-x="1181" 
d="M524 109q142 0 234 157q92 160 92 383q0 151 -54.5 232.5t-148.5 81.5q-141 0 -233 -150q-92 -151 -92 -377q0 -152 54 -239.5t148 -87.5zM694 1092q201 0 314.5 -118t113.5 -312q0 -269 -186 -476q-185 -209 -459 -209q-197 0 -313.5 119.5t-116.5 317.5q0 269 189 473
q190 205 458 205zM717 1272l-256 180q-12 9 -12 18q0 17 26 17h240q54 0 76 -31l145 -174q10 -13 10 -18q0 -15 -18 -15h-131q-42 0 -80 23z" />
    <glyph glyph-name="oacute" unicode="&#xf3;" horiz-adv-x="1181" 
d="M524 109q142 0 234 157q92 160 92 383q0 151 -54.5 232.5t-148.5 81.5q-141 0 -233 -150q-92 -151 -92 -377q0 -152 54 -239.5t148 -87.5zM694 1092q201 0 314.5 -118t113.5 -312q0 -269 -186 -476q-185 -209 -459 -209q-197 0 -313.5 119.5t-116.5 317.5q0 269 189 473
q190 205 458 205zM963 1456l-326 -184q-48 -23 -92 -23h-139q-15 0 -15 11q0 4 8 12l217 184q39 31 89 31h245q25 0 25 -14q0 -8 -12 -17z" />
    <glyph glyph-name="ocircumflex" unicode="&#xf4;" horiz-adv-x="1181" 
d="M524 109q142 0 234 157q92 160 92 383q0 151 -54.5 232.5t-148.5 81.5q-141 0 -233 -150q-92 -151 -92 -377q0 -152 54 -239.5t148 -87.5zM694 1092q201 0 314.5 -118t113.5 -312q0 -269 -186 -476q-185 -209 -459 -209q-197 0 -313.5 119.5t-116.5 317.5q0 269 189 473
q190 205 458 205zM510 1229h-113q-14 0 -14 8q0 4 4 8l227 221q21 21 45 21h160q25 0 37 -21l133 -213q6 -9 6 -14q0 -10 -14 -10h-90q-17 0 -33 16l-121 137q-6 6 -10 5.5t-14 -7.5l-162 -137q-14 -14 -41 -14z" />
    <glyph glyph-name="otilde" unicode="&#xf5;" horiz-adv-x="1181" 
d="M408 1278l-37 12q-15 6 -15 19q0 19 29 75q65 127 188 127q67 0 144 -32q125 -49 170 -49q57 0 98 65q8 14 21 14q1 0 3 -0.5t6.5 -1.5t8.5 -2l29 -8q16 -3 16 -18q0 -14 -25 -66q-68 -135 -190 -135q-64 0 -174 43q-98 39 -141 39q-58 0 -93 -68q-9 -18 -22 -18z
M524 109q142 0 234 157q92 160 92 383q0 151 -54.5 232.5t-148.5 81.5q-141 0 -233 -150q-92 -151 -92 -377q0 -152 54 -239.5t148 -87.5zM694 1092q201 0 314.5 -118t113.5 -312q0 -269 -186 -476q-185 -209 -459 -209q-197 0 -313.5 119.5t-116.5 317.5q0 269 189 473
q190 205 458 205z" />
    <glyph glyph-name="odieresis" unicode="&#xf6;" horiz-adv-x="1181" 
d="M1008 1434q0 -38 -14.5 -83.5t-32.5 -58.5q-28 -22 -97 -22q-56 0 -79 14t-23 47q0 38 15.5 83.5t33.5 58.5q20 20 98 20q61 0 80 -11.5t19 -47.5zM623 1434q0 -38 -15 -83.5t-33 -58.5q-28 -22 -96 -22q-56 0 -79 14t-23 47q0 38 15.5 83.5t33.5 58.5q20 20 98 20
q61 0 80 -11.5t19 -47.5zM524 109q142 0 234 157q92 160 92 383q0 151 -54.5 232.5t-148.5 81.5q-141 0 -233 -150q-92 -151 -92 -377q0 -152 54 -239.5t148 -87.5zM694 1092q201 0 314.5 -118t113.5 -312q0 -269 -186 -476q-185 -209 -459 -209q-197 0 -313.5 119.5
t-116.5 317.5q0 269 189 473q190 205 458 205z" />
    <glyph glyph-name="divide" unicode="&#xf7;" horiz-adv-x="1462" 
d="M866 408q0 -56 -39 -96t-96 -40q-55 0 -95 40t-40 96q0 57 39.5 97t95.5 40q57 0 96 -40t39 -97zM868 1061q0 -57 -40 -96t-97 -39q-56 0 -95.5 39t-39.5 96q0 55 40 95t95 40q57 0 97 -39.5t40 -95.5zM197 690v82q0 27 26 27h1016q27 0 27 -27v-82q0 -26 -27 -26h-1016
q-26 0 -26 26z" />
    <glyph glyph-name="oslash" unicode="&#xf8;" horiz-adv-x="1228" 
d="M670 963q-98 1 -175.5 -77t-115.5 -194.5t-35 -238.5q0 -12 4 -78l490 471q-52 117 -168 117zM547 109q142 0 231 157q90 162 90 363q0 39 -4 67l-485 -469q55 -118 168 -118zM1096 1069h125q14 0 14 -10q0 -4 -6 -10l-148 -144q62 -103 62 -243q0 -280 -187 -482
q-188 -203 -458 -203q-165 0 -281 93l-55 -52q-18 -18 -45 -18h-127q-15 0 -15 10q0 3 7 10l151 146q-63 105 -63 248q0 284 192 479q193 199 453 199q168 0 282 -91l54 50q18 18 45 18z" />
    <glyph glyph-name="ugrave" unicode="&#xf9;" horiz-adv-x="1347" 
d="M1208 209q14 0 24.5 -10.5t10.5 -24.5q0 -42 -76 -106q-105 -91 -209 -91q-161 0 -161 197q0 46 12 111q2 6 2 14q0 6 -3.5 6t-8.5 -6q-193 -322 -430 -322q-108 0 -169 65.5t-61 176.5q0 76 54 332q53 254 53 293q0 30 -21 47.5t-46.5 23.5t-46.5 18.5t-21 33.5
q0 47 84 59q142 16 264 59q21 7 35 7q51 0 51 -45q0 -11 -2 -17l-117 -567q-23 -118 -23 -168q0 -113 93 -113q61 0 134.5 72t141.5 201q109 202 162 444l29 133q6 31 45 37l170 23l18 2q25 0 25 -23q0 -8 -2 -14l-134 -645q-34 -173 -34 -207q0 -53 36 -53q25 0 64 28
q40 29 57 29zM743 1272l-256 180q-12 9 -12 18q0 17 27 17h239q54 0 76 -31l146 -174q10 -13 10 -18q0 -15 -19 -15h-131q-42 0 -80 23z" />
    <glyph glyph-name="uacute" unicode="&#xfa;" horiz-adv-x="1347" 
d="M1208 209q14 0 24.5 -10.5t10.5 -24.5q0 -42 -76 -106q-105 -91 -209 -91q-161 0 -161 197q0 46 12 111q2 6 2 14q0 6 -3.5 6t-8.5 -6q-193 -322 -430 -322q-108 0 -169 65.5t-61 176.5q0 76 54 332q53 254 53 293q0 30 -21 47.5t-46.5 23.5t-46.5 18.5t-21 33.5
q0 47 84 59q142 16 264 59q21 7 35 7q51 0 51 -45q0 -11 -2 -17l-117 -567q-23 -118 -23 -168q0 -113 93 -113q61 0 134.5 72t141.5 201q109 202 162 444l29 133q6 31 45 37l170 23l18 2q25 0 25 -23q0 -8 -2 -14l-134 -645q-34 -173 -34 -207q0 -53 36 -53q25 0 64 28
q40 29 57 29zM1071 1456l-326 -184q-48 -23 -92 -23h-139q-14 0 -14 11q0 4 8 12l217 184q39 31 88 31h246q24 0 24 -14q0 -8 -12 -17z" />
    <glyph glyph-name="ucircumflex" unicode="&#xfb;" horiz-adv-x="1347" 
d="M1208 209q14 0 24.5 -10.5t10.5 -24.5q0 -42 -76 -106q-105 -91 -209 -91q-161 0 -161 197q0 46 12 111q2 6 2 14q0 6 -3.5 6t-8.5 -6q-193 -322 -430 -322q-108 0 -169 65.5t-61 176.5q0 76 54 332q53 254 53 293q0 30 -21 47.5t-46.5 23.5t-46.5 18.5t-21 33.5
q0 47 84 59q142 16 264 59q21 7 35 7q51 0 51 -45q0 -11 -2 -17l-117 -567q-23 -118 -23 -168q0 -113 93 -113q61 0 134.5 72t141.5 201q109 202 162 444l29 133q6 31 45 37l170 23l18 2q25 0 25 -23q0 -8 -2 -14l-134 -645q-34 -173 -34 -207q0 -53 36 -53q25 0 64 28
q40 29 57 29zM580 1229h-113q-14 0 -14 8q0 4 4 8l227 221q21 21 45 21h160q25 0 37 -21l133 -213q6 -9 6 -14q0 -10 -14 -10h-90q-17 0 -33 16l-121 137q-6 6 -10.5 5.5t-14.5 -7.5l-161 -137q-14 -14 -41 -14z" />
    <glyph glyph-name="udieresis" unicode="&#xfc;" horiz-adv-x="1347" 
d="M1208 209q14 0 24.5 -10.5t10.5 -24.5q0 -42 -76 -106q-105 -91 -209 -91q-161 0 -161 197q0 46 12 111q2 6 2 14q0 6 -3.5 6t-8.5 -6q-193 -322 -430 -322q-108 0 -169 65.5t-61 176.5q0 76 54 332q53 254 53 293q0 30 -21 47.5t-46.5 23.5t-46.5 18.5t-21 33.5
q0 47 84 59q142 16 264 59q21 7 35 7q51 0 51 -45q0 -11 -2 -17l-117 -567q-23 -118 -23 -168q0 -113 93 -113q61 0 134.5 72t141.5 201q109 202 162 444l29 133q6 31 45 37l170 23l18 2q25 0 25 -23q0 -8 -2 -14l-134 -645q-34 -173 -34 -207q0 -53 36 -53q25 0 64 28
q40 29 57 29zM1081 1434q0 -38 -14.5 -83.5t-32.5 -58.5q-28 -22 -96 -22q-56 0 -79 14t-23 47q0 38 15.5 83.5t33.5 58.5q20 20 98 20q61 0 79.5 -11.5t18.5 -47.5zM696 1434q0 -38 -14.5 -83.5t-32.5 -58.5q-28 -22 -96 -22q-56 0 -79 14t-23 47q0 38 15.5 83.5t33.5 58.5
q20 20 98 20q61 0 79.5 -11.5t18.5 -47.5z" />
    <glyph glyph-name="yacute" unicode="&#xfd;" horiz-adv-x="1114" 
d="M977 1092q121 0 121 -129q0 -152 -133 -433q-130 -275 -351 -540q-153 -184 -313 -284.5t-297 -100.5q-96 0 -154.5 54.5t-58.5 152.5q0 96 74 96q16 0 44 -20t56 -43.5t69 -43.5t81 -20q106 0 266 133q12 12 12 20l-2 10q-2 9 -2 15q-108 557 -192 821q-24 69 -42.5 92
t-60.5 33q-5 3 -28 7.5t-34.5 15t-11.5 33.5q0 38 52 53q150 48 190 65q29 13 53 13q52 0 70 -56q42 -113 100 -370q60 -256 99 -471q7 -11 10 -11q8 0 20 15q117 163 183 323q69 163 69 254q0 37 -12.5 61.5t-30 36t-35.5 20.5t-30.5 24t-12.5 38q3 73 127 117
q52 19 105 19zM958 1456l-325 -184q-48 -23 -92 -23h-140q-14 0 -14 11q0 4 8 12l217 184q39 31 88 31h246q25 0 25 -14q0 -7 -13 -17z" />
    <glyph glyph-name="thorn" unicode="&#xfe;" 
d="M729 156q81 80 139 268q60 192 60 324q0 145 -88 145q-101 0 -265 -252q-69 -108 -116 -227q-45 -110 -45 -172q0 -61 67 -101q68 -39 129 -39q68 0 119 54zM969 1092q114 0 171.5 -81.5t57.5 -215.5q0 -122 -42 -263.5t-114 -259.5q-181 -295 -454 -295q-27 0 -59 4.5
t-58 11.5t-48 14t-35.5 11.5t-14.5 4.5q-8 0 -11 -13q-30 -147 -30 -200q0 -43 16 -68.5t35 -33t35 -21.5t16 -37q0 -45 -80 -45h-381q-67 0 -67 41q0 21 17 33.5t46.5 28t48.5 36.5q48 57 86 242l238 1171q18 83 18 123q0 31 -21 49t-46.5 23.5t-46.5 19t-21 35.5
q0 45 84 57q138 16 264 60q18 6 35 6q49 0 49 -45q0 -11 -2 -17l-141 -698q-1 -6 -2 -11l-1.5 -7.5t-0.5 -3.5q0 -9 6 -5q4 2 8 9q101 171 234 266q109 74 211 74z" />
    <glyph glyph-name="ydieresis" unicode="&#xff;" horiz-adv-x="1114" 
d="M977 1092q121 0 121 -129q0 -152 -133 -433q-130 -275 -351 -540q-153 -184 -313 -284.5t-297 -100.5q-96 0 -154.5 54.5t-58.5 152.5q0 96 74 96q16 0 44 -20t56 -43.5t69 -43.5t81 -20q106 0 266 133q12 12 12 20l-2 10q-2 9 -2 15q-108 557 -192 821q-24 69 -42.5 92
t-60.5 33q-5 3 -28 7.5t-34.5 15t-11.5 33.5q0 38 52 53q150 48 190 65q29 13 53 13q52 0 70 -56q42 -113 100 -370q60 -256 99 -471q7 -11 10 -11q8 0 20 15q117 163 183 323q69 163 69 254q0 37 -12.5 61.5t-30 36t-35.5 20.5t-30.5 24t-12.5 38q3 73 127 117
q52 19 105 19zM948 1434q0 -38 -14.5 -83.5t-32.5 -58.5q-28 -22 -96 -22q-56 0 -79.5 14t-23.5 47q0 37 16 83t34 59q20 20 98 20q61 0 79.5 -11.5t18.5 -47.5zM563 1434q0 -38 -14.5 -83.5t-32.5 -58.5q-28 -22 -96 -22q-56 0 -79.5 14t-23.5 47q0 37 16 83t34 59
q20 20 98 20q61 0 79.5 -11.5t18.5 -47.5z" />
    <glyph glyph-name="Amacron" unicode="&#x100;" horiz-adv-x="1447" 
d="M440 598h396q18 0 18 14q0 9 -2 15l-86 485q-3 14 -8 14q-3 0 -10 -10l-316 -498q-4 -8 -4 -10q0 -10 12 -10zM1262 133q16 -16 40.5 -30t36 -25t11.5 -29q0 -49 -76 -49h-395q-60 0 -60 39q0 21 16.5 35t37 22.5t37 31t16.5 56.5q0 8 -11 90l-30 168q-3 19 -27 19h-498
q-22 0 -34 -21q-125 -210 -125 -280q0 -39 37 -66q38 -25 38 -49q0 -45 -69 -45h-324q-61 0 -61 41q0 18 14.5 30t44.5 27q92 52 238 281l694 1071q18 27 41 27h104q29 0 35 -27l209 -1157q20 -83 30 -111.5t30 -48.5zM561 1700l14 74q6 24 31 24h656q24 0 24 -20
q0 -11 -2 -17l-14 -75q-3 -23 -31 -23h-657q-23 0 -23 20q0 11 2 17z" />
    <glyph glyph-name="amacron" unicode="&#x101;" horiz-adv-x="1257" 
d="M518 913q-82 -88 -141 -280q-55 -186 -55 -307q0 -150 86 -150q103 0 266 254q71 108 115.5 221.5t44.5 173.5t-68 101t-127 41q-67 0 -121 -54zM1094 1092q43 0 43 -45q0 -6 -86 -410q-80 -356 -80 -428q0 -57 37 -57q19 0 61 28q42 31 57 31q35 0 35 -37q0 -21 -18 -45
q-50 -68 -122.5 -110t-143.5 -42q-158 0 -158 181q0 65 16 153l2 13q0 4 -4 4l-10 -13q-78 -135 -197 -239q-117 -99 -245 -99q-110 0 -171 81.5t-61 224.5q0 121 40.5 258.5t109.5 253.5q91 145 213.5 221t249.5 76q79 0 182 -35q98 -33 114 -33q40 0 76 33q38 35 60 35z
M401 1364l15 74q6 24 30 24h656q24 0 24 -20q0 -11 -2 -17l-14 -75q-3 -23 -31 -23h-657q-23 0 -23 21q0 10 2 16z" />
    <glyph glyph-name="Abreve" unicode="&#x102;" horiz-adv-x="1447" 
d="M440 598h396q18 0 18 14q0 9 -2 15l-86 485q-3 14 -8 14q-3 0 -10 -10l-316 -498q-4 -8 -4 -10q0 -10 12 -10zM1262 133q16 -16 40.5 -30t36 -25t11.5 -29q0 -49 -76 -49h-395q-60 0 -60 39q0 21 16.5 35t37 22.5t37 31t16.5 56.5q0 8 -11 90l-30 168q-3 19 -27 19h-498
q-22 0 -34 -21q-125 -210 -125 -280q0 -39 37 -66q38 -25 38 -49q0 -45 -69 -45h-324q-61 0 -61 41q0 18 14.5 30t44.5 27q92 52 238 281l694 1071q18 27 41 27h104q29 0 35 -27l209 -1157q20 -83 30 -111.5t30 -48.5zM926 1612q-104 0 -166 53t-62 129t50 76q25 0 40 -35
q43 -94 156 -94q99 3 170 98q20 33 47 33q18 0 28.5 -12.5t10.5 -30.5q0 -56 -57 -119q-85 -98 -217 -98z" />
    <glyph glyph-name="abreve" unicode="&#x103;" horiz-adv-x="1257" 
d="M518 913q-82 -88 -141 -280q-55 -186 -55 -307q0 -150 86 -150q103 0 266 254q71 108 115.5 221.5t44.5 173.5t-68 101t-127 41q-67 0 -121 -54zM1094 1092q43 0 43 -45q0 -6 -86 -410q-80 -356 -80 -428q0 -57 37 -57q19 0 61 28q42 31 57 31q35 0 35 -37q0 -21 -18 -45
q-50 -68 -122.5 -110t-143.5 -42q-158 0 -158 181q0 65 16 153l2 13q0 4 -4 4l-10 -13q-78 -135 -197 -239q-117 -99 -245 -99q-110 0 -171 81.5t-61 224.5q0 121 40.5 258.5t109.5 253.5q91 145 213.5 221t249.5 76q79 0 182 -35q98 -33 114 -33q40 0 76 33q38 35 60 35z
M745 1229q-103 0 -165 53t-62 129t49 76q26 0 41 -35q43 -94 156 -94q99 3 170 98q20 33 47 33q18 0 28.5 -12.5t10.5 -30.5q0 -56 -57 -119q-85 -98 -218 -98z" />
    <glyph glyph-name="Aogonek" unicode="&#x104;" horiz-adv-x="1447" 
d="M440 596h398q18 0 18 14q0 9 -2 15l-88 483q-3 12 -5.5 16t-5.5 2t-7 -10l-310 -491q-10 -17 -10 -21q0 -8 12 -8zM1264 133q11 -11 37 -26.5t39.5 -29t9.5 -30.5q0 -47 -76 -47h-162q-180 0 -272 -47q-99 -52 -99 -137q0 -42 28.5 -70.5t70.5 -28.5q25 0 61 12.5
t39 12.5q27 0 27 -29q0 -31 -78 -75q-59 -33 -133 -33q-87 0 -145 48.5t-58 131.5q0 179 264 274q59 22 85 48t26 73q0 11 -13 94l-28 168q-3 19 -27 19h-498q-22 0 -34 -21q-127 -213 -127 -278q0 -42 39 -68q39 -23 39 -51q0 -43 -72 -43h-324q-61 0 -61 39q0 20 14.5 32
t44.5 27q58 34 109 97q44 50 131 184l692 1071q18 27 43 27h105q28 0 34 -27l209 -1157q27 -127 60 -160z" />
    <glyph glyph-name="aogonek" unicode="&#x105;" horiz-adv-x="1245" 
d="M518 913q-79 -79 -137 -270q-59 -192 -59 -317q0 -148 86 -148q100 0 264 250q76 116 119 229t43 170q0 61 -70 101q-65 39 -125 39q-67 0 -121 -54zM1157 -238q23 0 23 -22q0 -36 -74 -86q-71 -47 -156 -47q-77 0 -130.5 45.5t-53.5 118.5q0 99 104 206
q-151 12 -151 189q0 63 16 145l2 13q0 8 -8 1q-2 -2 -4 -6q-78 -135 -197 -239q-118 -103 -245 -103q-110 0 -172 81.5t-62 224.5q0 122 40.5 261t109.5 251q91 146 213 221.5t250 75.5q80 0 180 -35q98 -33 114 -33q40 0 76 33q38 35 60 35q45 0 45 -48l-4 -28
q-77 -348 -95 -436q-67 -332 -67 -373q0 -53 35 -53q22 0 61 28q39 31 59 31q35 0 35 -35q0 -30 -71 -104l-37 -37l-47 -47q-83 -105 -74 -160q0 -48 32 -75t78 -27q25 0 68.5 17t46.5 17z" />
    <glyph glyph-name="Cacute" unicode="&#x106;" horiz-adv-x="1388" 
d="M721 127q84 0 164 47q81 47 114 86q57 67 82 100q37 48 60 64t55 16q61 0 61 -67q0 -51 -24 -125q-40 -114 -119 -172q-132 -99 -381 -99q-278 0 -469 173q-190 172 -190 464q0 364 276 619q275 254 668 254q227 0 340 -76q55 -40 55 -121q0 -62 -24 -145
q-14 -48 -33 -69t-49 -21q-40 0 -56 22q-11 14 -35 75.5t-42 86.5q-76 107 -234 107q-163 0 -299 -115q-131 -110 -201.5 -281.5t-70.5 -361.5q0 -217 100 -338q102 -123 252 -123zM1280 1839l-326 -184q-48 -23 -92 -23h-139q-14 0 -14 10q0 5 8 13l217 184q39 31 88 31
h246q24 0 24 -15q0 -7 -12 -16z" />
    <glyph glyph-name="cacute" unicode="&#x107;" horiz-adv-x="1017" 
d="M938 793q-29 0 -49 14q-16 12 -55.5 48t-55.5 48q-64 49 -137 49q-79 0 -145.5 -56t-105.5 -139t-60 -168.5t-21 -154.5q0 -127 60.5 -205.5t169.5 -78.5q46 0 98.5 20t89.5 44.5t72.5 44.5t50.5 20q19 0 33 -13t14 -30q0 -47 -84 -119q-169 -140 -369 -140
q-182 0 -290 117q-107 116 -107 297q0 277 205 488q207 213 471 213q136 0 219 -45q74 -41 74 -125q0 -129 -78 -129zM944 1456l-326 -184q-48 -23 -92 -23h-139q-14 0 -14 11q0 4 8 12l217 184q39 31 88 31h246q24 0 24 -14q0 -8 -12 -17z" />
    <glyph glyph-name="Ccircumflex" unicode="&#x108;" horiz-adv-x="1388" 
d="M721 127q84 0 164 47q81 47 114 86q57 67 82 100q37 48 60 64t55 16q61 0 61 -67q0 -51 -24 -125q-40 -114 -119 -172q-132 -99 -381 -99q-278 0 -469 173q-190 172 -190 464q0 364 276 619q275 254 668 254q227 0 340 -76q55 -40 55 -121q0 -62 -24 -145
q-14 -48 -33 -69t-49 -21q-40 0 -56 22q-11 14 -35 75.5t-42 86.5q-76 107 -234 107q-163 0 -299 -115q-131 -110 -201.5 -281.5t-70.5 -361.5q0 -217 100 -338q102 -123 252 -123zM811 1612h-113q-14 0 -14 8q0 4 4 8l227 221q21 21 46 21h159q25 0 37 -21l133 -213
q6 -9 6 -14q0 -10 -14 -10h-90q-17 0 -33 16l-121 137q-6 6 -10 5.5t-14 -7.5l-162 -137q-14 -14 -41 -14z" />
    <glyph glyph-name="ccircumflex" unicode="&#x109;" horiz-adv-x="1017" 
d="M938 793q-29 0 -49 14q-16 12 -55.5 48t-55.5 48q-64 49 -137 49q-79 0 -145.5 -56t-105.5 -139t-60 -168.5t-21 -154.5q0 -127 60.5 -205.5t169.5 -78.5q46 0 98.5 20t89.5 44.5t72.5 44.5t50.5 20q19 0 33 -13t14 -30q0 -47 -84 -119q-169 -140 -369 -140
q-182 0 -290 117q-107 116 -107 297q0 277 205 488q207 213 471 213q136 0 219 -45q74 -41 74 -125q0 -129 -78 -129zM473 1229h-113q-14 0 -14 8q0 4 4 8l228 221q21 21 45 21h159q25 0 37 -21l133 -213q6 -9 6 -14q0 -10 -14 -10h-90q-17 0 -33 16l-121 137q-6 6 -10 5.5
t-14 -7.5l-162 -137q-14 -14 -41 -14z" />
    <glyph glyph-name="Cdotaccent" unicode="&#x10a;" horiz-adv-x="1388" 
d="M721 127q84 0 164 47q81 47 114 86q57 67 82 100q37 48 60 64t55 16q61 0 61 -67q0 -51 -24 -125q-40 -114 -119 -172q-132 -99 -381 -99q-278 0 -469 173q-190 172 -190 464q0 364 276 619q275 254 668 254q227 0 340 -76q55 -40 55 -121q0 -62 -24 -145
q-14 -48 -33 -69t-49 -21q-40 0 -56 22q-11 14 -35 75.5t-42 86.5q-76 107 -234 107q-163 0 -299 -115q-131 -110 -201.5 -281.5t-70.5 -361.5q0 -217 100 -338q102 -123 252 -123zM1120 1769q0 -38 -14.5 -83t-32.5 -58q-28 -22 -96 -22q-56 0 -79.5 14t-23.5 47
q0 37 16 82.5t34 58.5q21 21 98 21q60 0 79 -12t19 -48z" />
    <glyph glyph-name="cdotaccent" unicode="&#x10b;" horiz-adv-x="1017" 
d="M938 793q-29 0 -49 14q-16 12 -55.5 48t-55.5 48q-64 49 -137 49q-79 0 -145.5 -56t-105.5 -139t-60 -168.5t-21 -154.5q0 -127 60.5 -205.5t169.5 -78.5q46 0 98.5 20t89.5 44.5t72.5 44.5t50.5 20q19 0 33 -13t14 -30q0 -47 -84 -119q-169 -140 -369 -140
q-182 0 -290 117q-107 116 -107 297q0 277 205 488q207 213 471 213q136 0 219 -45q74 -41 74 -125q0 -129 -78 -129zM795 1434q0 -38 -14.5 -83.5t-32.5 -58.5q-28 -22 -97 -22q-56 0 -79 14t-23 47q0 38 15.5 83.5t33.5 58.5q20 20 98 20q61 0 80 -11.5t19 -47.5z" />
    <glyph glyph-name="Ccaron" unicode="&#x10c;" horiz-adv-x="1388" 
d="M721 127q84 0 164 47q81 47 114 86q57 67 82 100q37 48 60 64t55 16q61 0 61 -67q0 -51 -24 -125q-40 -114 -119 -172q-132 -99 -381 -99q-278 0 -469 173q-190 172 -190 464q0 364 276 619q275 254 668 254q227 0 340 -76q55 -40 55 -121q0 -62 -24 -145
q-14 -48 -33 -69t-49 -21q-40 0 -56 22q-11 14 -35 75.5t-42 86.5q-76 107 -234 107q-163 0 -299 -115q-131 -110 -201.5 -281.5t-70.5 -361.5q0 -217 100 -338q102 -123 252 -123zM1186 1870h112q15 0 15 -8q0 -5 -4 -9l-228 -221q-20 -20 -45 -20h-159q-26 0 -37 20
l-133 213q-7 11 -7 15q0 10 15 10h90q16 0 33 -17l120 -137q6 -6 10.5 -5.5t14.5 7.5l162 137q15 15 41 15z" />
    <glyph glyph-name="ccaron" unicode="&#x10d;" horiz-adv-x="1017" 
d="M938 793q-29 0 -49 14q-16 12 -55.5 48t-55.5 48q-64 49 -137 49q-79 0 -145.5 -56t-105.5 -139t-60 -168.5t-21 -154.5q0 -127 60.5 -205.5t169.5 -78.5q46 0 98.5 20t89.5 44.5t72.5 44.5t50.5 20q19 0 33 -13t14 -30q0 -47 -84 -119q-169 -140 -369 -140
q-182 0 -290 117q-107 116 -107 297q0 277 205 488q207 213 471 213q136 0 219 -45q74 -41 74 -125q0 -129 -78 -129zM848 1487h113q14 0 14 -8q0 -5 -4 -9l-228 -221q-20 -20 -45 -20h-159q-26 0 -37 20l-133 213q-7 10 -7 15q0 10 15 10h90q16 0 33 -17l121 -137
q6 -6 10 -5.5t14 7.5l162 138q14 14 41 14z" />
    <glyph glyph-name="Dcaron" unicode="&#x10e;" horiz-adv-x="1581" 
d="M977 301q114 105 178 265.5t64 334.5q0 272 -175 363q-66 35 -148.5 47t-231.5 12q-29 0 -41.5 -10t-18.5 -39l-178 -887q-31 -152 -31 -176q0 -40 28 -54t91 -14h27q264 0 436 158zM1300 1339q103 -68 160.5 -186t57.5 -266q0 -136 -47.5 -277.5t-127.5 -247.5
q-275 -362 -860 -362h-475q-61 0 -61 43q0 28 22 41q15 15 45 25q45 20 70 63q30 46 66 211l153 760q23 131 23 147q0 26 -15 45.5t-33.5 28.5t-33.5 22.5t-15 28.5q0 47 74 47h344q246 0 395.5 -26t257.5 -97zM1094 1870h112q15 0 15 -8q0 -5 -4 -9l-228 -221
q-20 -20 -45 -20h-160q-25 0 -36 20l-134 213q-6 9 -6 15q0 10 15 10h90q15 0 32 -17l121 -137q6 -6 10.5 -5.5t14.5 7.5l162 137q15 15 41 15z" />
    <glyph glyph-name="dcaron" unicode="&#x10f;" horiz-adv-x="1478" 
d="M674 428q72 113 116 224.5t44 174.5q0 52 -43 82q-76 58 -152 58q-67 0 -121 -54q-80 -86 -137 -270q-59 -189 -59 -317q0 -150 88 -150q105 0 264 252zM1221 1460l-207 -1024q-41 -202 -41 -231q0 -51 37 -51q20 0 59 28q43 29 59 29q17 0 27 -11t10 -28q0 -42 -73 -109
q-103 -86 -209 -86q-83 0 -124.5 51t-41.5 144q0 56 14 127l2 12q0 4 -6 4q-3 0 -12 -12q-73 -122 -193 -227q-114 -99 -241 -99q-109 0 -170.5 82t-61.5 224q0 121 40.5 258.5t109.5 253.5q91 145 213.5 221t249.5 76q27 0 58.5 -4.5t57.5 -11t47.5 -12.5t34.5 -10.5
t14 -4.5q12 0 15 14l20 100q19 100 19 115q0 39 -33 59q-5 3 -38 14t-51.5 24.5t-14.5 31.5q0 46 79 55q119 15 256 58q33 10 48 10q49 0 49 -49q0 -15 -2 -21zM1640 1415q33 -47 33 -96q0 -104 -133 -219q-100 -86 -147 -86q-37 0 -37 35q-4 12 6 20t36.5 21.5t45.5 29.5
q57 51 57 94q0 28 -35 78q-41 59 -41 82q0 29 50 70q53 41 81 41q44 0 84 -70z" />
    <glyph glyph-name="Dcroat" unicode="&#x110;" horiz-adv-x="1613" 
d="M1018 301q115 109 178.5 266t63.5 334q0 275 -175 363q-118 59 -354 59h-26q-29 0 -41.5 -10t-18.5 -39l-84 -422q-2 -6 -2 -14q0 -19 21 -19q66 0 137 6q70 6 84 6q71 0 71 -40q0 -6 -2 -18t-4 -21.5t-2 -10.5q-10 -44 -18 -53q-14 -14 -62 -20q-9 0 -90.5 4t-142.5 4
q-25 0 -31 -25l-53 -264q-31 -152 -31 -176q0 -42 26 -55t97 -13h33q254 0 426 158zM1339 1339q220 -140 220 -452q0 -153 -60.5 -311.5t-173.5 -282.5q-273 -293 -805 -293h-471q-61 0 -61 45q0 15 12.5 28.5t22.5 19t32 16.5q44 21 70 63q29 44 65 211l54 258q2 6 2 14
q0 21 -23 21q-36 0 -101 -6t-73 -6q-69 0 -69 45l10 45q8 40 23.5 56.5t52.5 16.5q2 0 28 -2t70 -4t88 -2q27 0 33 25l59 299q23 131 23 145q0 30 -15 50t-32.5 27t-32.5 19.5t-15 30.5q0 47 72 47h344q239 0 389 -24q144 -23 262 -99z" />
    <glyph glyph-name="dslash" unicode="&#x111;" horiz-adv-x="1286" 
d="M676 428q76 118 117 225q43 113 43 174q0 58 -68 99q-65 41 -127 41q-67 0 -121 -54q-79 -79 -137 -270q-59 -195 -59 -317q0 -150 88 -150q105 0 264 252zM1214 1335h148q22 0 22 -16q0 -4 -2 -10l-14 -68q-3 -24 -31 -24h-147q-18 0 -21 -17l-155 -768
q-41 -202 -41 -231q0 -54 39 -54q18 0 61 29q42 31 60 31q30 0 30 -37q0 -40 -73 -107q-101 -88 -207 -88q-79 0 -121.5 51t-42.5 142q0 59 14 125q2 6 2 14q0 6 -6 6q-5 0 -8 -6q-107 -172 -229 -258q-109 -74 -209 -74q-109 0 -170.5 81.5t-61.5 224.5q0 122 40.5 261
t109.5 251q90 145 213 221t250 76q30 0 62.5 -4.5t58 -11t46 -12.5t33 -10.5t13.5 -4.5q11 0 14 16l24 127q3 9 3 14q0 13 -17 13h-194q-21 0 -21 20q0 8 2 14l10 58q6 26 33 26h197q17 0 20 17l25 118q6 27 39 33l174 23q10 2 18 2q27 0 27 -21q0 -10 -2 -16l-27 -129
q-2 -6 -2 -14q0 -13 14 -13z" />
    <glyph glyph-name="Emacron" unicode="&#x112;" horiz-adv-x="1298" 
d="M1108 434q29 0 46 -16t17 -45q0 -35 -22 -84q-19 -44 -35 -101q-17 -60 -33 -104q-13 -41 -51 -69.5t-94 -28.5q-28 0 -127 8q-111 6 -229 6h-572q-61 0 -61 45q0 10 3 18t11.5 14.5t13 9.5t17.5 9.5t16 7.5q51 22 78 68q32 49 66 211l159 793q15 76 15 112q0 31 -15 50
t-32.5 25.5t-32.5 19.5t-15 32q0 47 80 47h535q137 0 254 8q132 9 151 9q76 0 76 -49q0 -14 -6 -54q-3 -20 -18 -102.5t-21 -120.5q-8 -57 -25 -79.5t-55 -22.5q-30 0 -44 16t-25 59q-27 114 -91 156q-65 41 -299 41h-77q-51 0 -60 -49l-76 -377q-4 -20 -4 -33q0 -26 43 -26
q111 0 205 4l107 8q71 6 90 6q59 0 59 -35q0 -7 -3.5 -21.5t-6.5 -25.5l-4 -12q-12 -50 -37 -65t-92 -15q-51 0 -94 2q-17 1 -35 2t-27.5 1.5t-13.5 0.5q-31 2 -201 2q-29 0 -35 -28l-53 -267q-31 -158 -31 -180q2 -20 10 -33.5t17.5 -21.5t28 -12.5t33.5 -6t44 -2.5h25
q121 0 214 29.5t140 75.5q32 30 71 83t67.5 80t60.5 27zM463 1700l14 74q6 24 31 24h655q25 0 25 -20q0 -11 -2 -17l-15 -75q-3 -23 -30 -23h-658q-22 0 -22 20q0 11 2 17z" />
    <glyph glyph-name="emacron" unicode="&#x113;" horiz-adv-x="1064" 
d="M371 618q228 0 338 82q86 62 86 146q0 51 -34.5 81.5t-90.5 30.5q-102 0 -189 -96q-84 -92 -125 -209q-4 -16 -4 -20q0 -15 19 -15zM438 483q-77 0 -100 2q-13 0 -16 -18q-5 -45 -5 -68q0 -114 56 -185t157 -71q53 0 109.5 20t95.5 48q94 70 135 70q19 0 33.5 -14
t14.5 -34q0 -44 -84 -122q-155 -134 -373 -134q-186 0 -299 113q-115 115 -115 301q0 161 88 324q85 157 242 268q157 109 328 109q146 0 234.5 -74t88.5 -191q0 -84 -57.5 -157t-167.5 -121q-153 -66 -365 -66zM301 1364l14 74q6 24 31 24h655q25 0 25 -20q0 -11 -2 -17
l-14 -75q-3 -23 -31 -23h-657q-23 0 -23 21q0 10 2 16z" />
    <glyph glyph-name="Ebreve" unicode="&#x114;" horiz-adv-x="1298" 
d="M1108 434q29 0 46 -16t17 -45q0 -35 -22 -84q-19 -44 -35 -101q-17 -60 -33 -104q-13 -41 -51 -69.5t-94 -28.5q-28 0 -127 8q-111 6 -229 6h-572q-61 0 -61 45q0 10 3 18t11.5 14.5t13 9.5t17.5 9.5t16 7.5q51 22 78 68q32 49 66 211l159 793q15 76 15 112q0 31 -15 50
t-32.5 25.5t-32.5 19.5t-15 32q0 47 80 47h535q137 0 254 8q132 9 151 9q76 0 76 -49q0 -14 -6 -54q-3 -20 -18 -102.5t-21 -120.5q-8 -57 -25 -79.5t-55 -22.5q-30 0 -44 16t-25 59q-27 114 -91 156q-65 41 -299 41h-77q-51 0 -60 -49l-76 -377q-4 -20 -4 -33q0 -26 43 -26
q111 0 205 4l107 8q71 6 90 6q59 0 59 -35q0 -7 -3.5 -21.5t-6.5 -25.5l-4 -12q-12 -50 -37 -65t-92 -15q-51 0 -94 2q-17 1 -35 2t-27.5 1.5t-13.5 0.5q-31 2 -201 2q-29 0 -35 -28l-53 -267q-31 -158 -31 -180q2 -20 10 -33.5t17.5 -21.5t28 -12.5t33.5 -6t44 -2.5h25
q121 0 214 29.5t140 75.5q32 30 71 83t67.5 80t60.5 27zM807 1612q-104 0 -166 53q-61 52 -61 129q0 76 49 76q26 0 41 -35q43 -94 155 -94q99 3 170 98q20 33 47 33q18 0 28.5 -12.5t10.5 -30.5q0 -56 -57 -119q-85 -98 -217 -98z" />
    <glyph glyph-name="ebreve" unicode="&#x115;" horiz-adv-x="1064" 
d="M371 618q228 0 338 82q86 62 86 146q0 51 -34.5 81.5t-90.5 30.5q-102 0 -189 -96q-84 -92 -125 -209q-4 -16 -4 -20q0 -15 19 -15zM438 483q-77 0 -100 2q-13 0 -16 -18q-5 -45 -5 -68q0 -114 56 -185t157 -71q53 0 109.5 20t95.5 48q94 70 135 70q19 0 33.5 -14
t14.5 -34q0 -44 -84 -122q-155 -134 -373 -134q-186 0 -299 113q-115 115 -115 301q0 161 88 324q85 157 242 268q157 109 328 109q146 0 234.5 -74t88.5 -191q0 -84 -57.5 -157t-167.5 -121q-153 -66 -365 -66zM641 1229q-104 0 -166 53q-61 52 -61 129q0 76 49 76
q26 0 41 -35q43 -94 155 -94q99 3 170 98q20 33 48 33q18 0 28 -12.5t10 -30.5q0 -56 -57 -119q-85 -98 -217 -98z" />
    <glyph glyph-name="Edotaccent" unicode="&#x116;" horiz-adv-x="1298" 
d="M1108 434q29 0 46 -16t17 -45q0 -35 -22 -84q-19 -44 -35 -101q-17 -60 -33 -104q-13 -41 -51 -69.5t-94 -28.5q-28 0 -127 8q-111 6 -229 6h-572q-61 0 -61 45q0 10 3 18t11.5 14.5t13 9.5t17.5 9.5t16 7.5q51 22 78 68q32 49 66 211l159 793q15 76 15 112q0 31 -15 50
t-32.5 25.5t-32.5 19.5t-15 32q0 47 80 47h535q137 0 254 8q132 9 151 9q76 0 76 -49q0 -14 -6 -54q-3 -20 -18 -102.5t-21 -120.5q-8 -57 -25 -79.5t-55 -22.5q-30 0 -44 16t-25 59q-27 114 -91 156q-65 41 -299 41h-77q-51 0 -60 -49l-76 -377q-4 -20 -4 -33q0 -26 43 -26
q111 0 205 4l107 8q71 6 90 6q59 0 59 -35q0 -7 -3.5 -21.5t-6.5 -25.5l-4 -12q-12 -50 -37 -65t-92 -15q-51 0 -94 2q-17 1 -35 2t-27.5 1.5t-13.5 0.5q-31 2 -201 2q-29 0 -35 -28l-53 -267q-31 -158 -31 -180q2 -20 10 -33.5t17.5 -21.5t28 -12.5t33.5 -6t44 -2.5h25
q121 0 214 29.5t140 75.5q32 30 71 83t67.5 80t60.5 27zM928 1769q0 -38 -14.5 -83t-32.5 -58q-28 -22 -97 -22q-56 0 -79 14t-23 47q0 38 15.5 83t33.5 58q21 21 98 21q61 0 80 -12t19 -48z" />
    <glyph glyph-name="edotaccent" unicode="&#x117;" horiz-adv-x="1064" 
d="M371 618q228 0 338 82q86 62 86 146q0 51 -34.5 81.5t-90.5 30.5q-102 0 -189 -96q-84 -92 -125 -209q-4 -16 -4 -20q0 -15 19 -15zM438 483q-77 0 -100 2q-13 0 -16 -18q-5 -45 -5 -68q0 -114 56 -185t157 -71q53 0 109.5 20t95.5 48q94 70 135 70q19 0 33.5 -14
t14.5 -34q0 -44 -84 -122q-155 -134 -373 -134q-186 0 -299 113q-115 115 -115 301q0 161 88 324q85 157 242 268q157 109 328 109q146 0 234.5 -74t88.5 -191q0 -84 -57.5 -157t-167.5 -121q-153 -66 -365 -66zM776 1434q0 -38 -14.5 -83.5t-32.5 -58.5q-28 -22 -96 -22
q-56 0 -79.5 14t-23.5 47q0 37 16 83t34 59q20 20 98 20q61 0 79.5 -11.5t18.5 -47.5z" />
    <glyph glyph-name="Eogonek" unicode="&#x118;" horiz-adv-x="1298" 
d="M1024 -240q23 0 23 -22q0 -34 -78 -84q-76 -49 -168 -49q-76 0 -127 38.5t-51 110.5q0 67 43 137q44 72 92 105q-126 4 -178 4h-572q-61 0 -61 45q0 10 3 18t11.5 14.5t13 9.5t17.5 9.5t16 7.5q51 22 78 68q32 49 66 211l159 793q15 76 15 112q0 31 -15 50t-32.5 25.5
t-32.5 19.5t-15 32q0 47 80 47h535q137 0 254 8q132 9 151 9q76 0 76 -49q0 -14 -6 -54q-3 -20 -18 -102.5t-21 -120.5q-8 -57 -25 -79.5t-55 -22.5q-30 0 -44 16t-25 59q-27 114 -91 156q-65 41 -299 41h-77q-51 0 -60 -49l-76 -377q-4 -20 -4 -33q0 -26 43 -26
q111 0 205 4l107 8q71 6 90 6q59 0 59 -35q0 -7 -3.5 -21.5t-6.5 -25.5l-4 -12q-12 -50 -37 -65t-92 -15q-51 0 -94 2q-17 1 -35 2t-27.5 1.5t-13.5 0.5q-31 2 -201 2q-29 0 -35 -28l-53 -267q-31 -158 -31 -180q2 -20 10 -33.5t17.5 -21.5t28 -12.5t33.5 -6t44 -2.5h25
q121 0 214 29.5t140 75.5q32 30 71 83t67.5 80t60.5 27q29 0 46 -16t17 -45q0 -35 -22 -84q-19 -44 -35 -101q-17 -60 -33 -104q-13 -41 -51 -69.5t-94 -28.5q-5 0 -16 0.5t-32 1.5t-40 2q-47 -100 -47 -156q0 -47 28.5 -76.5t75.5 -29.5q29 0 72.5 16t46.5 16z" />
    <glyph glyph-name="eogonek" unicode="&#x119;" horiz-adv-x="1067" 
d="M354 649q-2 -4 -2 -12q0 -19 23 -19q224 0 334 82q86 62 86 146q0 51 -34.5 81.5t-88.5 30.5q-105 0 -193 -98q-86 -92 -125 -211zM348 487q-23 0 -26 -24q-5 -45 -5 -62q0 -116 52 -180q60 -78 163 -78q102 0 211 74q97 66 127 66q20 0 34 -15.5t14 -36.5
q0 -46 -66 -106q-184 -169 -184 -301q0 -46 26.5 -71t69.5 -25q24 0 67.5 17t47.5 17q20 0 20 -22q0 -31 -74 -84q-70 -49 -157 -49q-77 0 -129 45.5t-52 118.5q0 107 99 209q4 4 4 6q0 4 -6 4q-9 0 -15 -2q-57 -11 -106 -11q-183 0 -301 115q-115 115 -115 301
q0 255 201 477t463 222q147 0 233 -76t86 -185q0 -87 -57 -160.5t-170 -121.5q-153 -66 -354 -66q-15 0 -101 4z" />
    <glyph glyph-name="Ecaron" unicode="&#x11a;" horiz-adv-x="1298" 
d="M1108 434q29 0 46 -16t17 -45q0 -35 -22 -84q-19 -44 -35 -101q-17 -60 -33 -104q-13 -41 -51 -69.5t-94 -28.5q-28 0 -127 8q-111 6 -229 6h-572q-61 0 -61 45q0 10 3 18t11.5 14.5t13 9.5t17.5 9.5t16 7.5q51 22 78 68q32 49 66 211l159 793q15 76 15 112q0 31 -15 50
t-32.5 25.5t-32.5 19.5t-15 32q0 47 80 47h535q137 0 254 8q132 9 151 9q76 0 76 -49q0 -14 -6 -54q-3 -20 -18 -102.5t-21 -120.5q-8 -57 -25 -79.5t-55 -22.5q-30 0 -44 16t-25 59q-27 114 -91 156q-65 41 -299 41h-77q-51 0 -60 -49l-76 -377q-4 -20 -4 -33q0 -26 43 -26
q111 0 205 4l107 8q71 6 90 6q59 0 59 -35q0 -7 -3.5 -21.5t-6.5 -25.5l-4 -12q-12 -50 -37 -65t-92 -15q-51 0 -94 2q-17 1 -35 2t-27.5 1.5t-13.5 0.5q-31 2 -201 2q-29 0 -35 -28l-53 -267q-31 -158 -31 -180q2 -20 10 -33.5t17.5 -21.5t28 -12.5t33.5 -6t44 -2.5h25
q121 0 214 29.5t140 75.5q32 30 71 83t67.5 80t60.5 27zM1016 1870h112q15 0 15 -8q0 -5 -4 -9l-228 -221q-20 -20 -45 -20h-159q-26 0 -37 20l-133 213q-7 11 -7 15q0 10 15 10h90q16 0 33 -17l120 -137q6 -6 10.5 -5.5t14.5 7.5l162 137q15 15 41 15z" />
    <glyph glyph-name="ecaron" unicode="&#x11b;" horiz-adv-x="1064" 
d="M371 618q228 0 338 82q86 62 86 146q0 51 -34.5 81.5t-90.5 30.5q-102 0 -189 -96q-84 -92 -125 -209q-4 -16 -4 -20q0 -15 19 -15zM438 483q-77 0 -100 2q-13 0 -16 -18q-5 -45 -5 -68q0 -114 56 -185t157 -71q53 0 109.5 20t95.5 48q94 70 135 70q19 0 33.5 -14
t14.5 -34q0 -44 -84 -122q-155 -134 -373 -134q-186 0 -299 113q-115 115 -115 301q0 161 88 324q85 157 242 268q157 109 328 109q146 0 234.5 -74t88.5 -191q0 -84 -57.5 -157t-167.5 -121q-153 -66 -365 -66zM856 1487h113q14 0 14 -8q0 -5 -4 -9l-227 -221
q-20 -20 -45 -20h-160q-26 0 -37 20l-133 213q-6 9 -6 15q0 10 14 10h90q16 0 33 -17l121 -137q6 -6 10 -5.5t14 7.5l162 138q14 14 41 14z" />
    <glyph glyph-name="Gcircumflex" unicode="&#x11c;" horiz-adv-x="1499" 
d="M926 709h438q58 0 61 -43q0 -22 -26 -43q-26 -15 -56 -23q-39 -20 -57 -61q-21 -48 -41 -152l-41 -194q-15 -72 -69 -105q-175 -111 -414 -111q-279 0 -465 177q-182 176 -182 462q0 362 270 617q272 254 668 254q239 0 346 -76q55 -40 55 -119q0 -65 -20 -135
q-19 -61 -34 -81.5t-48 -20.5q-31 0 -47.5 16t-34.5 59q-28 63 -53 101q-29 46 -92 80.5t-142 34.5q-173 0 -309 -121q-131 -118 -197.5 -284.5t-66.5 -350.5q0 -197 98 -328q100 -133 285 -133q58 0 120 16q31 11 41.5 20.5t16.5 35.5l39 186q18 102 18 125q0 32 -14 53
t-33.5 30t-39.5 15.5t-34 17.5t-14 29q0 52 74 52zM760 1612h-113q-14 0 -14 8q0 4 4 8l227 221q21 21 45 21h160q25 0 37 -21l133 -213q6 -9 6 -14q0 -10 -14 -10h-90q-17 0 -33 16l-121 137q-6 6 -10 5.5t-14 -7.5l-162 -137q-14 -14 -41 -14z" />
    <glyph glyph-name="gcircumflex" unicode="&#x11d;" horiz-adv-x="1157" 
d="M530 446q108 0 166 105q58 107 58 227q0 91 -37.5 142t-104.5 51q-110 0 -168 -105q-57 -102 -57 -229q0 -91 38 -141t105 -50zM1120 1094q80 0 80 -76q0 -61 -44 -98t-118 -37q-29 0 -39 2q21 -53 21 -109q0 -178 -139 -305t-336 -145q-187 -21 -187 -78q0 -47 115 -62
l141 -12q128 -10 179 -20q90 -18 139 -72t49 -125q0 -153 -164 -252q-160 -100 -403 -100q-132 0 -242 25.5t-184 84t-74 140.5q0 108 115 170q54 28 106 28q60 0 60 -41q0 -20 -33 -59q-31 -42 -31 -76q0 -68 85.5 -107.5t219.5 -39.5q140 0 231 39.5t91 109.5t-142 82
l-165 10q-65 3 -150 23q-78 18 -120 62t-42 102q0 123 160 188q21 11 2 19q-84 36 -132 106.5t-48 165.5q0 185 158 319q160 136 360 136q67 0 127.5 -15t95 -33.5t64 -33.5t41.5 -15q19 0 33.5 15.5t24 34t34 34t61.5 15.5zM477 1229h-112q-15 0 -15 8q0 4 4 8l228 221
q21 21 45 21h159q25 0 37 -21l133 -213q7 -11 7 -14q0 -10 -15 -10h-90q-17 0 -33 16l-120 137q-6 6 -10.5 5.5t-14.5 -7.5l-162 -137q-14 -14 -41 -14z" />
    <glyph glyph-name="Gbreve" unicode="&#x11e;" horiz-adv-x="1499" 
d="M926 709h438q58 0 61 -43q0 -22 -26 -43q-26 -15 -56 -23q-39 -20 -57 -61q-21 -48 -41 -152l-41 -194q-15 -72 -69 -105q-175 -111 -414 -111q-279 0 -465 177q-182 176 -182 462q0 362 270 617q272 254 668 254q239 0 346 -76q55 -40 55 -119q0 -65 -20 -135
q-19 -61 -34 -81.5t-48 -20.5q-31 0 -47.5 16t-34.5 59q-28 63 -53 101q-29 46 -92 80.5t-142 34.5q-173 0 -309 -121q-131 -118 -197.5 -284.5t-66.5 -350.5q0 -197 98 -328q100 -133 285 -133q58 0 120 16q31 11 41.5 20.5t16.5 35.5l39 186q18 102 18 125q0 32 -14 53
t-33.5 30t-39.5 15.5t-34 17.5t-14 29q0 52 74 52zM928 1612q-104 0 -166 53t-62 129t50 76q26 0 41 -35q43 -94 155 -94q99 3 170 98q20 33 47 33q18 0 28.5 -12.5t10.5 -30.5q0 -56 -57 -119q-85 -98 -217 -98z" />
    <glyph glyph-name="gbreve" unicode="&#x11f;" horiz-adv-x="1157" 
d="M530 446q108 0 166 105q58 107 58 227q0 91 -37.5 142t-104.5 51q-110 0 -168 -105q-57 -102 -57 -229q0 -91 38 -141t105 -50zM1120 1094q80 0 80 -76q0 -61 -44 -98t-118 -37q-29 0 -39 2q21 -53 21 -109q0 -178 -139 -305t-336 -145q-187 -21 -187 -78q0 -47 115 -62
l141 -12q128 -10 179 -20q90 -18 139 -72t49 -125q0 -153 -164 -252q-160 -100 -403 -100q-132 0 -242 25.5t-184 84t-74 140.5q0 108 115 170q54 28 106 28q60 0 60 -41q0 -20 -33 -59q-31 -42 -31 -76q0 -68 85.5 -107.5t219.5 -39.5q140 0 231 39.5t91 109.5t-142 82
l-165 10q-65 3 -150 23q-78 18 -120 62t-42 102q0 123 160 188q21 11 2 19q-84 36 -132 106.5t-48 165.5q0 185 158 319q160 136 360 136q67 0 127.5 -15t95 -33.5t64 -33.5t41.5 -15q19 0 33.5 15.5t24 34t34 34t61.5 15.5zM674 1229q-104 0 -166 53t-62 129t50 76
q26 0 41 -35q43 -94 155 -94q99 3 170 98q20 33 47 33q18 0 28.5 -12.5t10.5 -30.5q0 -56 -57 -119q-85 -98 -217 -98z" />
    <glyph glyph-name="Gdotaccent" unicode="&#x120;" horiz-adv-x="1499" 
d="M926 709h438q58 0 61 -43q0 -22 -26 -43q-26 -15 -56 -23q-39 -20 -57 -61q-21 -48 -41 -152l-41 -194q-15 -72 -69 -105q-175 -111 -414 -111q-279 0 -465 177q-182 176 -182 462q0 362 270 617q272 254 668 254q239 0 346 -76q55 -40 55 -119q0 -65 -20 -135
q-19 -61 -34 -81.5t-48 -20.5q-31 0 -47.5 16t-34.5 59q-28 63 -53 101q-29 46 -92 80.5t-142 34.5q-173 0 -309 -121q-131 -118 -197.5 -284.5t-66.5 -350.5q0 -197 98 -328q100 -133 285 -133q58 0 120 16q31 11 41.5 20.5t16.5 35.5l39 186q18 102 18 125q0 32 -14 53
t-33.5 30t-39.5 15.5t-34 17.5t-14 29q0 52 74 52zM1069 1769q0 -38 -14.5 -83t-32.5 -58q-28 -22 -96 -22q-56 0 -79.5 14t-23.5 47q0 38 15.5 83t33.5 58q21 21 99 21q60 0 79 -12t19 -48z" />
    <glyph glyph-name="gdotaccent" unicode="&#x121;" horiz-adv-x="1157" 
d="M530 446q108 0 166 105q58 107 58 227q0 91 -37.5 142t-104.5 51q-110 0 -168 -105q-57 -102 -57 -229q0 -91 38 -141t105 -50zM1120 1094q80 0 80 -76q0 -61 -44 -98t-118 -37q-29 0 -39 2q21 -53 21 -109q0 -178 -139 -305t-336 -145q-187 -21 -187 -78q0 -47 115 -62
l141 -12q128 -10 179 -20q90 -18 139 -72t49 -125q0 -153 -164 -252q-160 -100 -403 -100q-132 0 -242 25.5t-184 84t-74 140.5q0 108 115 170q54 28 106 28q60 0 60 -41q0 -20 -33 -59q-31 -42 -31 -76q0 -68 85.5 -107.5t219.5 -39.5q140 0 231 39.5t91 109.5t-142 82
l-165 10q-65 3 -150 23q-78 18 -120 62t-42 102q0 123 160 188q21 11 2 19q-84 36 -132 106.5t-48 165.5q0 185 158 319q160 136 360 136q67 0 127.5 -15t95 -33.5t64 -33.5t41.5 -15q19 0 33.5 15.5t24 34t34 34t61.5 15.5zM772 1434q0 -38 -14.5 -83.5t-32.5 -58.5
q-28 -22 -96 -22q-56 0 -79.5 14t-23.5 47q0 38 15.5 83.5t33.5 58.5q20 20 99 20q61 0 79.5 -11.5t18.5 -47.5z" />
    <glyph glyph-name="Gcommaaccent" unicode="&#x122;" horiz-adv-x="1499" 
d="M926 709h438q58 0 61 -43q0 -22 -26 -43q-26 -15 -56 -23q-39 -20 -57 -61q-21 -48 -41 -152l-41 -194q-15 -72 -69 -105q-175 -111 -414 -111q-279 0 -465 177q-182 176 -182 462q0 362 270 617q272 254 668 254q239 0 346 -76q55 -40 55 -119q0 -65 -20 -135
q-19 -61 -34 -81.5t-48 -20.5q-31 0 -47.5 16t-34.5 59q-28 63 -53 101q-29 46 -92 80.5t-142 34.5q-173 0 -309 -121q-131 -118 -197.5 -284.5t-66.5 -350.5q0 -197 98 -328q100 -133 285 -133q58 0 120 16q31 11 41.5 20.5t16.5 35.5l39 186q18 102 18 125q0 32 -14 53
t-33.5 30t-39.5 15.5t-34 17.5t-14 29q0 52 74 52zM756 -92q32 -46 32 -96q0 -105 -133 -220q-100 -86 -147 -86q-37 0 -37 35q-4 12 6 20t36.5 22.5t45.5 29.5q57 51 57 94q0 29 -34 78q-41 59 -41 82q0 30 49 70q52 40 82 40q44 0 84 -69z" />
    <glyph glyph-name="gcommaaccent" unicode="&#x123;" horiz-adv-x="1157" 
d="M569 1206q-32 46 -32 97q0 104 133 219q100 86 147 86q37 0 37 -35q4 -12 -6 -20t-36.5 -22.5t-45.5 -29.5q-57 -51 -57 -94q0 -29 34 -78q41 -59 41 -82q0 -30 -51 -69q-50 -41 -80 -41q-44 0 -84 69zM530 446q108 0 166 105q58 107 58 227q0 91 -37.5 142t-104.5 51
q-110 0 -168 -105q-57 -102 -57 -229q0 -91 38 -141t105 -50zM1120 1094q80 0 80 -76q0 -61 -44 -98t-118 -37q-29 0 -39 2q21 -53 21 -109q0 -178 -139 -305t-336 -145q-187 -21 -187 -78q0 -47 115 -62l141 -12q128 -10 179 -20q90 -18 139 -72t49 -125q0 -153 -164 -252
q-160 -100 -403 -100q-132 0 -242 25.5t-184 84t-74 140.5q0 108 115 170q54 28 106 28q60 0 60 -41q0 -20 -33 -59q-31 -42 -31 -76q0 -68 85.5 -107.5t219.5 -39.5q140 0 231 39.5t91 109.5t-142 82l-165 10q-65 3 -150 23q-78 18 -120 62t-42 102q0 123 160 188
q21 11 2 19q-84 36 -132 106.5t-48 165.5q0 185 158 319q160 136 360 136q67 0 127.5 -15t95 -33.5t64 -33.5t41.5 -15q19 0 33.5 15.5t24 34t34 34t61.5 15.5z" />
    <glyph glyph-name="Hcircumflex" unicode="&#x124;" horiz-adv-x="1624" 
d="M1225 1462h391q58 0 61 -43q0 -18 -10 -28q-9 -9 -34.5 -21.5t-35.5 -15.5q-38 -20 -57 -62q-22 -60 -39 -149l-153 -758q-25 -128 -25 -174q0 -37 11 -61.5t26.5 -36t31.5 -19.5t27 -19t11 -28q0 -47 -78 -47h-430q-56 0 -56 43q0 35 56 59q53 20 82 70q37 58 67 213
l57 287q2 6 2 14q0 21 -22 21h-592q-21 0 -27 -19l-61 -303q-22 -119 -22 -176q0 -36 11 -60.5t26.5 -35.5t31 -19t26.5 -19t11 -28q0 -47 -78 -47h-430q-57 0 -57 43q0 36 57 59q52 21 82 70q37 63 66 213l159 786q18 77 17 117t-25 58q-10 8 -31.5 21.5t-31 23.5t-9.5 24
q0 47 74 47h393q60 0 60 -43q0 -14 -8.5 -24.5t-17.5 -15.5t-28 -13t-26 -12q-38 -21 -55 -60q-21 -58 -41 -151l-54 -264q-2 -6 -2 -15q0 -20 27 -20h590q21 0 24 20l62 307q16 82 16 117q0 25 -9.5 42t-23.5 26t-28 16t-23.5 17.5t-9.5 25.5q0 47 74 47zM795 1612h-113
q-14 0 -14 8q0 4 4 8l227 221q21 21 45 21h160q25 0 37 -21l133 -213q6 -9 6 -14q0 -10 -14 -10h-90q-17 0 -33 16l-121 137q-6 6 -10.5 5.5t-14.5 -7.5l-161 -137q-14 -14 -41 -14z" />
    <glyph glyph-name="hcircumflex" unicode="&#x125;" horiz-adv-x="1316" 
d="M1192 209q31 0 33 -28q0 -45 -76 -115q-95 -89 -207 -89q-80 0 -127 48t-47 133q0 51 53 293t53 319q0 117 -88 117q-62 0 -137 -73t-143 -202q-112 -210 -162 -442l-29 -133q-6 -31 -45 -37l-153 -20q-18 -3 -23 -3q-35 0 -35 31q0 11 2 17l232 1130q18 91 18 121
q0 34 -21.5 52.5t-47 23t-47 18t-21.5 37.5q0 43 84 55q131 17 266 62q18 6 33 6q51 0 51 -45q0 -11 -2 -17l-137 -686q-2 -6 -2 -14q0 -16 14 3q2 3 4 7q194 314 426 314q108 0 169 -64.5t61 -175.5q0 -76 -54 -344q-53 -260 -53 -307q0 -51 37 -51q20 0 62 28q42 31 59 31
zM596 1612h-113q-14 0 -14 8q0 4 4 8l227 221q21 21 45 21h160q25 0 37 -21l133 -213q6 -9 6 -14q0 -10 -14 -10h-90q-17 0 -33 16l-121 137q-6 6 -10 5.5t-14 -7.5l-162 -137q-14 -14 -41 -14z" />
    <glyph glyph-name="Hbar" unicode="&#x126;" horiz-adv-x="1759" 
d="M1217 819l34 170l4 23q0 10 -18 10h-596q-22 0 -29 -23l-32 -165q-2 -6 -2 -15q0 -20 22 -20h592q22 0 25 20zM1585 1159h184q23 0 23 -18q0 -9 -2 -17l-14 -75q-6 -27 -33 -27h-182q-26 0 -29 -23l-125 -614q-25 -128 -25 -174q0 -37 11 -62t27 -36t31.5 -19t26.5 -18.5
t11 -26.5q0 -49 -78 -49h-430q-55 0 -55 43q0 35 55 59q52 21 82 70q30 45 65 213l50 242q0 6 2 10q2 2 2 6v4q0 15 -23 15h-594q-21 0 -24 -19l-54 -258q-24 -123 -24 -174q0 -45 17 -72.5t37 -36t37 -22t17 -33.5q0 -47 -77 -47h-431q-57 0 -57 45q0 33 55 57q57 26 84 70
q31 47 66 213l123 604q2 6 2 15q0 18 -23 18h-182q-20 0 -20 20q0 9 2 17l14 76q6 24 33 24h182q25 0 31 25q14 66 14 98q0 34 -15 55t-33 28t-33 19.5t-15 32.5q0 45 74 45h391q61 0 61 -43q0 -14 -8.5 -24.5t-17.5 -15.5t-28 -13t-26 -12q-32 -17 -50.5 -53t-35.5 -117
l-2 -13q0 -12 19 -12h592q26 0 32 25q13 70 13 102q0 29 -15 49.5t-32.5 29.5t-32.5 22t-15 30q0 45 72 45h393q60 0 60 -45q0 -10 -4.5 -18t-14 -15t-17 -11t-22 -10t-20.5 -9q-35 -20 -51 -52t-37 -118q-2 -6 -2 -13q0 -12 18 -12z" />
    <glyph glyph-name="hbar" unicode="&#x127;" horiz-adv-x="1306" 
d="M1180 207q13 0 22.5 -10.5t9.5 -24.5q0 -39 -73 -106q-95 -89 -207 -89q-75 0 -123.5 45t-48.5 136q0 62 53 307q55 241 55 309q0 113 -92 113q-62 0 -136.5 -72t-141.5 -201q-108 -208 -160 -444l-29 -133q-6 -31 -45 -37l-155 -20q-15 -3 -25 -3q-31 0 -31 29q0 1 4 29
l238 1157q2 6 2 14q0 11 -12 11h-148q-22 0 -22 20q0 8 2 16l12 58q3 24 31 24h149q14 0 17 15l22 110q9 41 55 47l156 21q10 2 21 2q28 0 28 -23q0 -8 -2 -16l-26 -129q-2 -6 -2 -14q0 -13 14 -13h188q23 0 23 -18q0 -8 -2 -14l-13 -60q-6 -26 -32 -26h-193q-13 0 -16 -15
l-86 -418q-2 -6 -2 -14q0 -6 6.5 -6t7.5 6q190 322 430 322q108 0 167.5 -63.5t59.5 -176.5q0 -92 -49 -330q-57 -278 -57 -323q0 -49 35 -49q22 0 61 28q44 29 60 29z" />
    <glyph glyph-name="Itilde" unicode="&#x128;" horiz-adv-x="704" 
d="M403 209q0 -36 11 -60.5t26.5 -35.5t31.5 -19t27 -19t11 -28q0 -47 -78 -47h-430q-55 0 -55 43q0 22 11.5 33t43.5 26q56 26 82 70q31 47 66 213l159 786q17 87 17 115q0 51 -35 72q-6 4 -25.5 13.5t-27 18.5t-7.5 25q0 47 72 47h393q62 0 62 -43q0 -18 -10 -28
q-9 -9 -34.5 -21.5t-35.5 -15.5q-38 -20 -57 -62q-22 -60 -39 -149l-154 -758q-25 -128 -25 -176zM250 1659l-37 12q-14 6 -14 19q0 21 28 75q65 127 189 127q66 0 143 -32q127 -50 170 -50q57 0 98 66q8 14 21 14q1 0 3 -0.5t6.5 -1.5t8.5 -2l29 -8q16 -3 16 -18
q0 -16 -24 -66q-67 -135 -191 -135q-64 0 -174 43q-98 39 -141 39q-57 0 -92 -68q-9 -18 -23 -18z" />
    <glyph glyph-name="itilde" unicode="&#x129;" horiz-adv-x="649" 
d="M528 209q14 0 24.5 -10.5t10.5 -24.5q0 -46 -74 -108q-103 -89 -210 -89q-78 0 -121 49t-43 136q0 38 12 106l90 449q19 87 19 119q0 52 -43 67q-10 5 -40 14.5t-42.5 20.5t-12.5 31q0 46 84 55q145 19 267 61q21 7 34 7q52 0 52 -45q0 -8 -3 -17l-118 -594
q-41 -202 -41 -235q0 -51 37 -51q21 0 63 28q42 31 55 31zM109 1278l-37 12q-15 6 -15 19q0 19 29 75q65 127 188 127q67 0 144 -32q125 -49 170 -49q57 0 98 65q8 14 21 14q1 0 3 -0.5t6.5 -1.5t8.5 -2l29 -8q16 -3 16 -18q0 -14 -25 -66q-67 -135 -190 -135q-64 0 -174 43
q-98 39 -141 39q-58 0 -93 -68q-9 -18 -22 -18z" />
    <glyph glyph-name="Imacron" unicode="&#x12a;" horiz-adv-x="704" 
d="M403 209q0 -36 11 -60.5t26.5 -35.5t31.5 -19t27 -19t11 -28q0 -47 -78 -47h-430q-55 0 -55 43q0 22 11.5 33t43.5 26q56 26 82 70q31 47 66 213l159 786q17 87 17 115q0 51 -35 72q-6 4 -25.5 13.5t-27 18.5t-7.5 25q0 47 72 47h393q62 0 62 -43q0 -18 -10 -28
q-9 -9 -34.5 -21.5t-35.5 -15.5q-38 -20 -57 -62q-22 -60 -39 -149l-154 -758q-25 -128 -25 -176zM172 1700l14 74q6 24 31 24h655q25 0 25 -20q0 -11 -2 -17l-14 -75q-3 -23 -31 -23h-657q-23 0 -23 20q0 11 2 17z" />
    <glyph glyph-name="imacron" unicode="&#x12b;" horiz-adv-x="649" 
d="M528 209q14 0 24.5 -10.5t10.5 -24.5q0 -46 -74 -108q-103 -89 -210 -89q-78 0 -121 49t-43 136q0 38 12 106l90 449q19 87 19 119q0 52 -43 67q-10 5 -40 14.5t-42.5 20.5t-12.5 31q0 46 84 55q145 19 267 61q21 7 34 7q52 0 52 -45q0 -8 -3 -17l-118 -594
q-41 -202 -41 -235q0 -51 37 -51q21 0 63 28q42 31 55 31zM43 1364l14 74q6 24 31 24h655q25 0 25 -20q0 -11 -2 -17l-14 -75q-3 -23 -31 -23h-658q-22 0 -22 21q0 10 2 16z" />
    <glyph glyph-name="Ibreve" unicode="&#x12c;" horiz-adv-x="704" 
d="M403 209q0 -36 11 -60.5t26.5 -35.5t31.5 -19t27 -19t11 -28q0 -47 -78 -47h-430q-55 0 -55 43q0 22 11.5 33t43.5 26q56 26 82 70q31 47 66 213l159 786q17 87 17 115q0 51 -35 72q-6 4 -25.5 13.5t-27 18.5t-7.5 25q0 47 72 47h393q62 0 62 -43q0 -18 -10 -28
q-9 -9 -34.5 -21.5t-35.5 -15.5q-38 -20 -57 -62q-22 -60 -39 -149l-154 -758q-25 -128 -25 -176zM545 1612q-104 0 -166 53t-62 129t50 76q26 0 41 -35q43 -94 155 -94q99 3 170 98q20 33 47 33q18 0 28.5 -12.5t10.5 -30.5q0 -56 -57 -119q-85 -98 -217 -98z" />
    <glyph glyph-name="ibreve" unicode="&#x12d;" horiz-adv-x="649" 
d="M528 209q14 0 24.5 -10.5t10.5 -24.5q0 -46 -74 -108q-103 -89 -210 -89q-78 0 -121 49t-43 136q0 38 12 106l90 449q19 87 19 119q0 52 -43 67q-10 5 -40 14.5t-42.5 20.5t-12.5 31q0 46 84 55q145 19 267 61q21 7 34 7q52 0 52 -45q0 -8 -3 -17l-118 -594
q-41 -202 -41 -235q0 -51 37 -51q21 0 63 28q42 31 55 31zM410 1229q-104 0 -166 53t-62 129t49 76q26 0 41 -35q43 -94 156 -94q99 3 170 98q20 33 47 33q18 0 28.5 -12.5t10.5 -30.5q0 -56 -57 -119q-85 -98 -217 -98z" />
    <glyph glyph-name="Iogonek" unicode="&#x12e;" horiz-adv-x="704" 
d="M428 -240q23 0 23 -22q0 -34 -78 -84q-76 -49 -168 -49q-76 0 -127 38.5t-51 110.5q0 69 45 140q44 70 96 106h-166q-55 0 -55 43q0 22 11.5 33t43.5 26q56 26 82 70q31 47 66 213l159 786q17 87 17 115q0 51 -35 72q-6 4 -25.5 13.5t-27 18.5t-7.5 25q0 47 72 47h393
q62 0 62 -43q0 -18 -10 -28q-9 -9 -34.5 -21.5t-35.5 -15.5q-38 -20 -57 -62q-22 -60 -39 -149l-154 -758q-25 -128 -25 -176q0 -36 11 -60.5t26.5 -35.5t31.5 -19t27 -19t11 -28q0 -47 -78 -47h-174q-53 -109 -53 -166q0 -47 28.5 -76.5t75.5 -29.5q29 0 72.5 16t46.5 16z
" />
    <glyph glyph-name="iogonek" unicode="&#x12f;" horiz-adv-x="679" 
d="M557 -240q23 0 23 -20q0 -35 -64 -78q-83 -57 -172 -57q-74 0 -126 46t-52 118q0 95 104 208q-155 9 -155 189q0 68 59 360q62 292 62 316q0 26 -14 42t-34.5 23.5t-41 13.5t-34.5 18t-14 32q0 43 84 55q142 16 264 59q21 7 35 7q51 0 51 -45q0 -11 -2 -17l-120 -592
q-43 -215 -43 -233q0 -51 39 -51q22 0 61 28q40 29 57 29q14 0 25.5 -11t11.5 -24q0 -38 -72 -104q-157 -148 -157 -244q0 -47 31 -73.5t73 -26.5q29 0 75 16zM657 1372q0 -41 -75 -104q-76 -64 -119 -64q-39 0 -98 68q-56 68 -56 108q0 39 76 103q77 65 119 65q41 0 96 -67
q57 -63 57 -109z" />
    <glyph glyph-name="Idot" unicode="&#x130;" horiz-adv-x="704" 
d="M403 209q0 -36 11 -60.5t26.5 -35.5t31.5 -19t27 -19t11 -28q0 -47 -78 -47h-430q-55 0 -55 43q0 22 11.5 33t43.5 26q56 26 82 70q31 47 66 213l159 786q17 87 17 115q0 51 -35 72q-6 4 -25.5 13.5t-27 18.5t-7.5 25q0 47 72 47h393q62 0 62 -43q0 -18 -10 -28
q-9 -9 -34.5 -21.5t-35.5 -15.5q-38 -20 -57 -62q-22 -60 -39 -149l-154 -758q-25 -128 -25 -176zM672 1769q0 -38 -14.5 -83t-32.5 -58q-28 -22 -97 -22q-56 0 -79 14t-23 47q0 38 15.5 83t33.5 58q21 21 98 21q61 0 80 -12t19 -48z" />
    <glyph glyph-name="dotlessi" unicode="&#x131;" horiz-adv-x="649" 
d="M528 209q14 0 24.5 -10.5t10.5 -24.5q0 -46 -74 -108q-103 -89 -210 -89q-78 0 -121 49t-43 136q0 38 12 106l90 449q19 87 19 119q0 52 -43 67q-10 5 -40 14.5t-42.5 20.5t-12.5 31q0 46 84 55q145 19 267 61q21 7 34 7q52 0 52 -45q0 -8 -3 -17l-118 -594
q-41 -202 -41 -235q0 -51 37 -51q21 0 63 28q42 31 55 31z" />
    <glyph glyph-name="IJ" unicode="&#x132;" horiz-adv-x="1492" 
d="M348 -346q-65 53 -65 162q0 112 82 112q22 2 54 -24.5t61.5 -59.5t71.5 -59.5t81 -24.5q74 0 131 72q78 96 160 516l147 727q31 152 31 205q0 33 -14.5 54t-32.5 29t-32.5 20.5t-14.5 31.5q0 47 73 47h396q59 0 59 -47q0 -28 -53 -49q-51 -20 -78 -70q-18 -42 -57 -221
l-48 -250q-83 -445 -131 -618q-56 -199 -142 -324.5t-210 -199.5q-135 -78 -287 -78q-118 0 -182 49zM403 209q0 -36 11 -60.5t26.5 -35.5t31.5 -19t27 -19t11 -28q0 -47 -78 -47h-430q-55 0 -55 43q0 22 11.5 33t43.5 26q56 26 82 70q31 47 66 213l159 786q17 87 17 115
q0 51 -35 72q-6 4 -25.5 13.5t-27 18.5t-7.5 25q0 47 72 47h393q62 0 62 -43q0 -18 -10 -28q-9 -9 -34.5 -21.5t-35.5 -15.5q-38 -20 -57 -62q-22 -60 -39 -149l-154 -758q-25 -128 -25 -176z" />
    <glyph glyph-name="ij" unicode="&#x133;" horiz-adv-x="1425" 
d="M651 1372q0 -40 -76 -104t-118 -64q-40 0 -99 68q-55 67 -55 108q0 39 76 103q77 65 119 65q41 0 96 -67q57 -63 57 -109zM530 209q14 0 24.5 -10.5t10.5 -24.5q0 -47 -73 -108q-103 -89 -211 -89q-78 0 -121 49t-43 136q0 38 12 106l90 449q19 87 19 119q0 52 -43 67
q-10 5 -40 14.5t-42.5 20.5t-12.5 31q0 46 84 55q145 19 267 61q21 7 34 7q52 0 52 -45q0 -11 -2 -17l-119 -594q-41 -202 -41 -235q0 -51 37 -51q19 0 61 28q42 31 57 31zM1425 1368q0 -39 -75 -102q-73 -64 -117 -64q-36 0 -96 66q-56 68 -56 110q0 39 76 103
q77 65 117 65q39 0 94 -67q57 -63 57 -111zM961 1026q126 14 260 57q21 9 39 9q51 0 51 -45q0 -9 -2 -17l-101 -530l-28 -152l-31 -151q-11 -49 -29 -115q-30 -121 -92 -221q-82 -125 -205.5 -189.5t-257.5 -64.5q-75 0 -139 20q-129 41 -129 172q0 107 72 107q28 0 50 -15
t66 -59l13 -12q68 -68 141 -68q103 -10 170 135q22 43 35 95q18 69 22 96l23 106l100 508q23 135 23 146q0 51 -39 65l-66 25q-30 17 -30 39q0 27 18.5 40t65.5 19z" />
    <glyph glyph-name="Jcircumflex" unicode="&#x134;" horiz-adv-x="768" 
d="M-377 -346q-65 53 -65 162q0 112 82 112q22 2 54 -24.5t61.5 -59.5t71.5 -59.5t81 -24.5q74 0 131 72q78 96 160 516l147 727q31 152 31 205q0 33 -14.5 54t-32.5 29t-32.5 20.5t-14.5 31.5q0 47 73 47h396q59 0 59 -47q0 -28 -53 -49q-51 -20 -78 -70q-18 -42 -57 -221
l-48 -250q-83 -445 -131 -618q-56 -199 -142 -324.5t-210 -199.5q-135 -78 -287 -78q-118 0 -182 49zM389 1612h-113q-14 0 -14 8q0 4 4 8l228 221q21 21 45 21h159q25 0 37 -21l133 -213q6 -9 6 -14q0 -10 -14 -10h-90q-17 0 -33 16l-121 137q-6 6 -10 5.5t-14 -7.5
l-162 -137q-14 -14 -41 -14z" />
    <glyph glyph-name="jcircumflex" unicode="&#x135;" horiz-adv-x="727" 
d="M287 1026q126 14 260 57q21 9 39 9q51 0 51 -45q0 -9 -2 -17l-100 -530l-29 -152l-31 -151q-11 -49 -29 -115q-30 -121 -92 -221q-82 -125 -205.5 -189.5t-257.5 -64.5q-75 0 -139 20q-129 41 -129 172q0 107 72 107q28 0 50.5 -15t66.5 -59l12 -12q68 -68 141 -68
q103 -10 170 135q22 43 35 95q20 79 23 96l22 106l100 508q23 135 23 146q0 51 -39 65l-66 25q-30 17 -30 39q0 27 18.5 40t65.5 19zM322 1229h-113q-14 0 -14 8q0 4 4 8l227 221q21 21 45 21h160q25 0 37 -21l133 -213q6 -9 6 -14q0 -10 -14 -10h-91q-16 0 -32 16l-121 137
q-6 6 -10.5 5.5t-14.5 -7.5l-162 -137q-14 -14 -40 -14z" />
    <glyph glyph-name="Kcommaaccent" unicode="&#x136;" horiz-adv-x="1517" 
d="M1182 1462h379q63 0 63 -45q0 -23 -14 -31q-7 -4 -26.5 -11.5t-44 -16.5t-32.5 -12q-107 -49 -383 -269l-307 -248q-12 -9 -12 -14q0 -8 8 -8q75 30 107 -25q36 -44 67 -108l39 -78q3 -7 19.5 -41t27.5 -61q110 -235 146 -287q47 -69 98 -86q3 -1 10 -3.5t10 -3.5
t9.5 -3.5t9.5 -4.5t8 -5t7.5 -6.5t5.5 -8t4 -9.5t1 -11q0 -37 -57 -52l-104 -24q-67 -13 -97 -13q-44 0 -88 29q-71 56 -215 379q-35 80 -53 115q-13 32 -43 84q-44 84 -86 84q-14 0 -23 -6q-64 -44 -141 -111q-16 -16 -22 -37l-27 -129q-25 -128 -25 -174q0 -45 17 -72.5
t37.5 -36t37.5 -22t17 -33.5q0 -47 -78 -47h-428q-57 0 -57 43q0 22 11.5 33t43.5 26q59 27 84 70q36 65 66 213l153 758q23 128 23 143q0 51 -35 72q-5 3 -26 14t-28.5 20t-7.5 23q0 47 74 47h391q60 0 60 -41q0 -14 -8.5 -25.5t-17.5 -16.5t-28 -13t-26 -12
q-38 -21 -55 -60q-21 -58 -41 -151l-74 -363q-2 -6 -2 -14q0 -10 8 -10q5 0 18 10l441 362q107 93 144.5 134.5t37.5 74.5q0 16 -23.5 42t-23.5 38q0 45 76 45zM811 -92q33 -47 33 -96q0 -105 -133 -220q-100 -86 -148 -86q-37 0 -37 35q-4 12 6 20t36.5 22.5t45.5 29.5
q58 52 58 94q0 28 -35 78q-41 59 -41 82q0 30 49 70q52 40 82 40q44 0 84 -69z" />
    <glyph glyph-name="kcommaaccent" unicode="&#x137;" horiz-adv-x="1196" 
d="M1067 1092q131 0 131 -148q0 -123 -82 -123q-20 0 -69.5 25.5t-73.5 25.5q-21 0 -39 -6q-131 -41 -320 -276q-6 -6 -6 -12q0 -11 10 -11q1 0 13 4q45 25 63 25q26 0 47 -18.5t52 -69.5q8 -13 32.5 -57.5t42.5 -75.5l78 -135q37 -64 60 -86.5t53 -28.5q49 -9 49 -43
q0 -26 -29 -45q-30 -20 -98 -43q-74 -23 -102 -23q-76 0 -140 107q-43 74 -75 135l-68 129q-52 94 -78 94q-19 0 -39 -33q-126 -200 -160 -366q-3 -31 -45 -37l-157 -20q-15 -3 -21 -3q-35 0 -35 31q0 9 2 15l230 1134q18 95 18 121q0 48 -45 65q-8 4 -36 14t-41 21t-13 29
q0 26 18.5 38.5t63.5 18.5q134 15 256 56q33 10 47 10q49 0 49 -45q0 -9 -2 -17l-184 -917l-2 -12l-1.5 -9t-0.5 -4q0 -6 6 -6q3 0 12 12q69 114 174 238q97 115 232 221q128 101 223 101zM618 -92q33 -47 33 -96q0 -105 -133 -220q-100 -86 -147 -86q-37 0 -37 35
q-4 12 6 20t36.5 22.5t45.5 29.5q57 51 57 94q0 28 -35 78q-41 59 -41 82q0 29 50 70q52 40 82 40q43 0 83 -69z" />
    <glyph glyph-name="kra" unicode="&#x138;" horiz-adv-x="1226" 
d="M1098 1092q131 0 131 -148q0 -123 -82 -123q-18 0 -67.5 25.5t-75.5 25.5q-21 0 -39 -6q-131 -41 -320 -276q-6 -6 -6 -12q0 -11 10 -11q1 0 13 4q45 25 63 25q26 0 46.5 -18.5t51.5 -69.5q7 -12 18 -31t27.5 -48.5t30.5 -53.5l78 -135q37 -64 60 -86.5t53 -28.5
q49 -9 49 -43q0 -26 -29 -45q-30 -20 -98 -43q-74 -23 -103 -23q-75 0 -139 107q-53 92 -76 135l-67 129q-52 94 -78 94q-19 0 -39 -33q-126 -200 -160 -366q-6 -31 -45 -37l-158 -20q-15 -3 -20 -3q-35 0 -35 31q0 9 2 15l144 696q18 95 18 121q0 48 -45 65q-8 4 -36 14
t-41 21t-13 29q0 26 18.5 38.5t63.5 18.5q139 15 256 55q37 11 47 11q49 0 49 -45q0 -9 -2 -17l-98 -479l-2 -12l-1.5 -9t-0.5 -4q0 -6 6 -6q3 0 12 12q69 114 174 238q99 117 231 221q128 101 224 101z" />
    <glyph glyph-name="Lacute" unicode="&#x139;" horiz-adv-x="1212" 
d="M1038 434q27 0 45.5 -17.5t18.5 -45.5q0 -25 -25 -92q-8 -20 -26.5 -82.5t-26.5 -83.5q-20 -60 -55.5 -93.5t-100.5 -33.5q-24 0 -120 8q-108 6 -218 6h-522q-61 0 -61 45q0 16 11.5 29t21.5 18t28 12q50 23 78 68q37 66 66 211l151 758q25 131 25 149q0 45 -49 72
q-48 28 -48 53q0 47 74 47h389q60 0 60 -45q0 -10 -4.5 -18t-14 -15t-17 -11t-22 -10t-20.5 -9q-40 -21 -58 -62q-19 -52 -38 -151l-152 -746q-31 -158 -31 -180q0 -46 34 -62t104 -16q99 0 179 29.5t126 75.5q29 29 69 83t69 81.5t60 27.5zM1130 1839l-325 -184
q-48 -23 -92 -23h-140q-14 0 -14 10q0 5 8 13l217 184q39 31 88 31h246q25 0 25 -15q0 -6 -13 -16z" />
    <glyph glyph-name="lacute" unicode="&#x13a;" horiz-adv-x="626" 
d="M494 209q13 0 23.5 -10.5t10.5 -24.5q0 -41 -73 -108q-95 -89 -211 -89q-78 0 -121 49t-43 136q0 41 12 106l180 889q19 87 19 119q0 52 -43 67q-10 5 -40 14.5t-42 20.5t-12 31q0 46 84 55q139 18 266 62q18 6 35 6q51 0 51 -45q0 -11 -2 -17l-209 -1034
q-41 -202 -41 -235q0 -51 37 -51q22 0 61 28q42 31 58 31zM737 1839l-325 -184q-48 -23 -93 -23h-139q-14 0 -14 10q0 5 8 13l217 184q39 31 88 31h246q25 0 25 -15q0 -6 -13 -16z" />
    <glyph glyph-name="Lcommaaccent" unicode="&#x13b;" horiz-adv-x="1171" 
d="M1038 434q27 0 45.5 -17.5t18.5 -45.5q0 -25 -25 -92q-8 -20 -26.5 -82.5t-26.5 -83.5q-20 -60 -55.5 -93.5t-100.5 -33.5q-24 0 -120 8q-108 6 -218 6h-522q-61 0 -61 45q0 16 11.5 29t21.5 18t28 12q50 23 78 68q37 66 66 211l151 758q25 131 25 149q0 45 -49 72
q-48 28 -48 53q0 47 74 47h389q60 0 60 -45q0 -10 -4.5 -18t-14 -15t-17 -11t-22 -10t-20.5 -9q-40 -21 -58 -62q-19 -52 -38 -151l-152 -746q-31 -158 -31 -180q0 -46 34 -62t104 -16q99 0 179 29.5t126 75.5q29 29 69 83t69 81.5t60 27.5zM709 -92q32 -46 32 -96
q0 -105 -133 -220q-100 -86 -147 -86q-37 0 -37 35q-4 12 6 20t36.5 22.5t45.5 29.5q57 51 57 94q0 29 -34 78q-41 59 -41 82q0 30 49 70q52 40 82 40q44 0 84 -69z" />
    <glyph glyph-name="lcommaaccent" unicode="&#x13c;" horiz-adv-x="626" 
d="M494 209q13 0 23.5 -10.5t10.5 -24.5q0 -41 -73 -108q-95 -89 -211 -89q-78 0 -121 49t-43 136q0 41 12 106l180 889q19 87 19 119q0 52 -43 67q-10 5 -40 14.5t-42 20.5t-12 31q0 46 84 55q139 18 266 62q18 6 35 6q51 0 51 -45q0 -11 -2 -17l-209 -1034
q-41 -202 -41 -235q0 -51 37 -51q22 0 61 28q42 31 58 31zM285 -92q32 -46 32 -96q0 -105 -133 -220q-100 -86 -147 -86q-37 0 -37 35q-4 12 6 20t36.5 22.5t45.5 29.5q57 51 57 94q0 29 -34 78q-41 59 -41 82q0 30 49 70q52 40 82 40q44 0 84 -69z" />
    <glyph glyph-name="Lcaron" unicode="&#x13d;" horiz-adv-x="1216" 
d="M1038 434q27 0 45.5 -17.5t18.5 -45.5q0 -25 -25 -92q-8 -20 -26.5 -82.5t-26.5 -83.5q-20 -60 -55.5 -93.5t-100.5 -33.5q-24 0 -120 8q-108 6 -218 6h-522q-61 0 -61 45q0 16 11.5 29t21.5 18t28 12q50 23 78 68q37 66 66 211l151 758q25 131 25 149q0 45 -49 72
q-48 28 -48 53q0 47 74 47h389q60 0 60 -45q0 -10 -4.5 -18t-14 -15t-17 -11t-22 -10t-20.5 -9q-40 -21 -58 -62q-19 -52 -38 -151l-152 -746q-31 -158 -31 -180q0 -46 34 -62t104 -16q99 0 179 29.5t126 75.5q29 29 69 83t69 81.5t60 27.5zM1155 1415q33 -47 33 -96
q0 -104 -133 -219q-100 -86 -148 -86q-37 0 -37 35q-4 12 6 20t36.5 21.5t45.5 29.5q58 52 58 94q0 28 -35 78q-41 59 -41 82q0 30 49 70q53 41 82 41q44 0 84 -70z" />
    <glyph glyph-name="lcaron" unicode="&#x13e;" horiz-adv-x="849" 
d="M494 209q13 0 23.5 -10.5t10.5 -24.5q0 -41 -73 -108q-95 -89 -211 -89q-78 0 -121 49t-43 136q0 41 12 106l180 889q19 87 19 119q0 52 -43 67q-10 5 -40 14.5t-42 20.5t-12 31q0 46 84 55q139 18 266 62q18 6 35 6q51 0 51 -45q0 -11 -2 -17l-209 -1034
q-41 -202 -41 -235q0 -51 37 -51q22 0 61 28q42 31 58 31zM1012 1415q32 -46 32 -96q0 -104 -133 -219q-100 -86 -147 -86q-37 0 -37 35q-4 12 6 20t36.5 21.5t45.5 29.5q57 51 57 94q0 29 -34 78q-41 59 -41 82q0 30 49 70q53 41 82 41q44 0 84 -70z" />
    <glyph glyph-name="Ldot" unicode="&#x13f;" horiz-adv-x="1171" 
d="M1038 434q27 0 45.5 -17.5t18.5 -45.5q0 -25 -25 -92q-8 -20 -26.5 -82.5t-26.5 -83.5q-20 -60 -55.5 -93.5t-100.5 -33.5q-24 0 -120 8q-108 6 -218 6h-522q-61 0 -61 45q0 16 11.5 29t21.5 18t28 12q50 23 78 68q37 66 66 211l151 758q25 131 25 149q0 45 -49 72
q-48 28 -48 53q0 47 74 47h389q60 0 60 -45q0 -10 -4.5 -18t-14 -15t-17 -11t-22 -10t-20.5 -9q-40 -21 -58 -62q-19 -52 -38 -151l-152 -746q-31 -158 -31 -180q0 -46 34 -62t104 -16q99 0 179 29.5t126 75.5q29 29 69 83t69 81.5t60 27.5zM915 819q0 -38 -14.5 -83
t-32.5 -58q-30 -23 -96 -23q-56 0 -79 14.5t-23 47.5q0 38 15.5 83t33.5 58q21 21 98 21q60 0 79 -12t19 -48z" />
    <glyph glyph-name="ldot" unicode="&#x140;" horiz-adv-x="841" 
d="M494 209q13 0 23.5 -10.5t10.5 -24.5q0 -41 -73 -108q-95 -89 -211 -89q-78 0 -121 49t-43 136q0 41 12 106l180 889q19 87 19 119q0 52 -43 67q-10 5 -40 14.5t-42 20.5t-12 31q0 46 84 55q139 18 266 62q18 6 35 6q51 0 51 -45q0 -11 -2 -17l-209 -1034
q-41 -202 -41 -235q0 -51 37 -51q22 0 61 28q42 31 58 31zM838 817q0 -38 -14.5 -83t-32.5 -58q-30 -23 -97 -23q-56 0 -79 14.5t-23 47.5q0 38 15.5 83t33.5 58q21 21 98 21q61 0 80 -12t19 -48z" />
    <glyph glyph-name="Lslash" unicode="&#x141;" horiz-adv-x="1191" 
d="M1063 434q27 0 45 -17t18 -46q0 -38 -32 -115q-7 -19 -23 -74t-22 -73q-34 -123 -156 -123q-27 0 -123 8q-105 6 -215 6h-522q-62 0 -62 45q0 16 12 29t21.5 18t28.5 12q50 23 78 68q28 46 65 211q29 155 45 223l-143 -49q-4 -2 -10 -2q-15 0 -15 14l8 95q3 21 23 28
l166 58l78 391q24 126 24 145q0 51 -37 72q-5 4 -25 13.5t-27 18.5t-7 25q0 47 74 47h389q59 0 59 -45q0 -10 -4.5 -18t-14 -15t-17 -11t-22 -10t-20.5 -9q-37 -20 -55 -62q-21 -58 -41 -151l-59 -291l198 68l11 2q14 0 14 -15l-8 -94q-3 -20 -23 -29l-221 -75l-63 -312
q-31 -158 -31 -180q0 -45 33 -61.5t104 -16.5q99 0 179 29.5t126 75.5q29 29 69 83t69 81.5t61 27.5z" />
    <glyph glyph-name="lslash" unicode="&#x142;" horiz-adv-x="763" 
d="M57 705l203 69l78 383q18 83 18 119q0 52 -43 67q-10 5 -40 14.5t-42 20.5t-12 31q0 46 84 55q139 18 266 62q18 6 35 6q51 0 51 -45q0 -11 -2 -17l-123 -602l181 62l16 4q14 0 14 -14q0 -15 -2 -33l-4 -62q-3 -23 -22 -28l-211 -74l-58 -287q-41 -202 -41 -235
q0 -51 37 -51q20 0 62 28q42 31 57 31q13 0 24 -10.5t11 -24.5q0 -40 -74 -108q-95 -89 -211 -89q-78 0 -121 49t-43 136q0 36 13 106l73 363l-174 -60l-16 -4q-14 0 -14 17l8 92q3 24 22 29z" />
    <glyph glyph-name="Nacute" unicode="&#x143;" horiz-adv-x="1644" 
d="M1276 1462h358q70 0 70 -45q0 -26 -21 -41q-6 -4 -31.5 -15t-31.5 -15q-57 -27 -87 -74t-56 -154q-58 -258 -232 -1102q-3 -30 -41 -30h-114q-29 0 -43 26l-531 1059q-3 5 -7 6.5t-7 0t-4 -6.5q-142 -647 -142 -805q0 -106 80 -153q4 -2 16.5 -8t17.5 -9t13.5 -9
t12.5 -11t7 -12.5t3 -16.5q0 -47 -76 -47h-401q-70 0 -70 49q0 19 8.5 27t32 17t39.5 20q65 33 100 81.5t60 153.5q9 37 194 912q2 6 2 16q0 28 -63 65q-12 7 -28 15.5t-24.5 13.5t-17.5 11.5t-12.5 14.5t-3.5 19q0 47 67 47h254q59 0 80 -43l514 -1026q5 -8 11 -8t10 10
q111 556 129 664t18 158q0 45 -13.5 74.5t-33 42.5t-39.5 22.5t-33.5 22.5t-13.5 34q0 49 80 49zM1309 1839l-326 -184q-48 -23 -92 -23h-139q-15 0 -15 10q0 5 8 13l218 184q39 31 88 31h245q25 0 25 -15q0 -7 -12 -16z" />
    <glyph glyph-name="nacute" unicode="&#x144;" horiz-adv-x="1349" 
d="M1225 209q31 0 33 -28q0 -45 -76 -115q-95 -89 -207 -89q-80 0 -127 48t-47 133q0 51 53 293t53 319q0 117 -88 117q-62 0 -137 -73t-143 -202q-112 -210 -162 -442l-29 -133q-6 -31 -45 -37l-153 -20q-18 -3 -23 -3q-35 0 -35 31q0 11 2 17l142 692q18 91 18 121
q0 34 -21.5 52.5t-47 23t-47 18t-21.5 37.5q0 43 84 55q142 19 268 61q21 7 33 7q51 0 51 -45q0 -11 -2 -17l-49 -248q-2 -6 -2 -14q0 -16 14 3l4 7q194 314 426 314q108 0 169 -64.5t61 -175.5q0 -76 -54 -344q-53 -260 -53 -307q0 -51 37 -51q19 0 61 28q42 31 60 31z
M1075 1456l-325 -184q-48 -23 -93 -23h-139q-14 0 -14 11q0 4 8 12l217 184q39 31 88 31h246q24 0 24 -14q0 -8 -12 -17z" />
    <glyph glyph-name="Ncommaaccent" unicode="&#x145;" horiz-adv-x="1644" 
d="M1276 1462h358q70 0 70 -45q0 -26 -21 -41q-6 -4 -31.5 -15t-31.5 -15q-57 -27 -87 -74t-56 -154q-58 -258 -232 -1102q-3 -30 -41 -30h-114q-29 0 -43 26l-531 1059q-3 5 -7 6.5t-7 0t-4 -6.5q-142 -647 -142 -805q0 -106 80 -153q4 -2 16.5 -8t17.5 -9t13.5 -9
t12.5 -11t7 -12.5t3 -16.5q0 -47 -76 -47h-401q-70 0 -70 49q0 19 8.5 27t32 17t39.5 20q65 33 100 81.5t60 153.5q9 37 194 912q2 6 2 16q0 28 -63 65q-12 7 -28 15.5t-24.5 13.5t-17.5 11.5t-12.5 14.5t-3.5 19q0 47 67 47h254q59 0 80 -43l514 -1026q5 -8 11 -8t10 10
q111 556 129 664t18 158q0 45 -13.5 74.5t-33 42.5t-39.5 22.5t-33.5 22.5t-13.5 34q0 49 80 49zM838 -92q32 -46 32 -96q0 -105 -133 -220q-100 -86 -147 -86q-37 0 -37 35q-4 12 6 20t36.5 22.5t45.5 29.5q57 51 57 94q0 29 -34 78q-41 59 -41 82q0 30 49 70q52 40 82 40
q44 0 84 -69z" />
    <glyph glyph-name="ncommaaccent" unicode="&#x146;" horiz-adv-x="1349" 
d="M1225 209q31 0 33 -28q0 -45 -76 -115q-95 -89 -207 -89q-80 0 -127 48t-47 133q0 51 53 293t53 319q0 117 -88 117q-62 0 -137 -73t-143 -202q-112 -210 -162 -442l-29 -133q-6 -31 -45 -37l-153 -20q-18 -3 -23 -3q-35 0 -35 31q0 11 2 17l142 692q18 91 18 121
q0 34 -21.5 52.5t-47 23t-47 18t-21.5 37.5q0 43 84 55q142 19 268 61q21 7 33 7q51 0 51 -45q0 -11 -2 -17l-49 -248q-2 -6 -2 -14q0 -16 14 3l4 7q194 314 426 314q108 0 169 -64.5t61 -175.5q0 -76 -54 -344q-53 -260 -53 -307q0 -51 37 -51q19 0 61 28q42 31 60 31z
M684 -92q33 -47 33 -96q0 -105 -133 -220q-100 -86 -148 -86q-37 0 -37 35q-4 12 6 20t36.5 22.5t45.5 29.5q58 52 58 94q0 28 -35 78q-41 59 -41 82q0 30 49 70q52 40 82 40q44 0 84 -69z" />
    <glyph glyph-name="Ncaron" unicode="&#x147;" horiz-adv-x="1644" 
d="M1276 1462h358q70 0 70 -45q0 -26 -21 -41q-6 -4 -31.5 -15t-31.5 -15q-57 -27 -87 -74t-56 -154q-58 -258 -232 -1102q-3 -30 -41 -30h-114q-29 0 -43 26l-531 1059q-3 5 -7 6.5t-7 0t-4 -6.5q-142 -647 -142 -805q0 -106 80 -153q4 -2 16.5 -8t17.5 -9t13.5 -9
t12.5 -11t7 -12.5t3 -16.5q0 -47 -76 -47h-401q-70 0 -70 49q0 19 8.5 27t32 17t39.5 20q65 33 100 81.5t60 153.5q9 37 194 912q2 6 2 16q0 28 -63 65q-12 7 -28 15.5t-24.5 13.5t-17.5 11.5t-12.5 14.5t-3.5 19q0 47 67 47h254q59 0 80 -43l514 -1026q5 -8 11 -8t10 10
q111 556 129 664t18 158q0 45 -13.5 74.5t-33 42.5t-39.5 22.5t-33.5 22.5t-13.5 34q0 49 80 49zM1190 1870h113q14 0 14 -8q0 -5 -4 -9l-228 -221q-20 -20 -45 -20h-159q-26 0 -37 20l-133 213q-6 9 -6 15q0 10 14 10h90q16 0 33 -17l121 -137q6 -6 10 -5.5t14 7.5l162 137
q15 15 41 15z" />
    <glyph glyph-name="ncaron" unicode="&#x148;" horiz-adv-x="1349" 
d="M1225 209q31 0 33 -28q0 -45 -76 -115q-95 -89 -207 -89q-80 0 -127 48t-47 133q0 51 53 293t53 319q0 117 -88 117q-62 0 -137 -73t-143 -202q-112 -210 -162 -442l-29 -133q-6 -31 -45 -37l-153 -20q-18 -3 -23 -3q-35 0 -35 31q0 11 2 17l142 692q18 91 18 121
q0 34 -21.5 52.5t-47 23t-47 18t-21.5 37.5q0 43 84 55q142 19 268 61q21 7 33 7q51 0 51 -45q0 -11 -2 -17l-49 -248q-2 -6 -2 -14q0 -16 14 3l4 7q194 314 426 314q108 0 169 -64.5t61 -175.5q0 -76 -54 -344q-53 -260 -53 -307q0 -51 37 -51q19 0 61 28q42 31 60 31z
M975 1487h112q15 0 15 -8q0 -5 -4 -9l-228 -221q-20 -20 -45 -20h-159q-26 0 -37 20l-133 213q-7 10 -7 15q0 10 15 10h90q16 0 33 -17l121 -137q6 -6 10 -5.5t14 7.5l162 138q14 14 41 14z" />
    <glyph glyph-name="napostrophe" unicode="&#x149;" horiz-adv-x="1533" 
d="M1409 209q31 0 33 -28q0 -45 -76 -115q-95 -89 -207 -89q-80 0 -127 48t-47 133q0 51 53 293q54 247 54 319q0 117 -88 117q-62 0 -137.5 -73t-143.5 -202q-112 -210 -162 -442l-29 -133q-6 -31 -45 -37l-153 -20q-18 -3 -23 -3q-35 0 -35 31q0 8 3 17l141 692
q18 91 18 121q0 34 -21.5 52.5t-47 23t-47 18t-21.5 37.5q0 43 84 55q142 19 268 61q21 7 33 7q51 0 51 -45q0 -11 -2 -17l-49 -248q-2 -6 -2 -14q0 -16 14 3l4 7q194 314 426 314q108 0 169 -64.5t61 -175.5q0 -81 -53 -344q-54 -265 -54 -307q0 -51 37 -51q20 0 62 28
q42 31 59 31zM324 1415q32 -46 32 -96q0 -104 -133 -219q-100 -86 -147 -86q-37 0 -37 35q-4 12 6 20t36.5 21.5t45.5 29.5q57 51 57 94q0 29 -34 78q-41 59 -41 82q0 30 49 70q53 41 82 41q44 0 84 -70z" />
    <glyph glyph-name="Eng" unicode="&#x14a;" horiz-adv-x="1636" 
d="M1268 1462h360q70 0 70 -47q0 -24 -21 -37l-65 -32q-55 -27 -84 -73t-58 -155q-47 -183 -198 -938q-38 -189 -107 -295q-83 -131 -211 -205.5t-278 -74.5q-116 0 -180 49q-62 47 -62 172q0 39 22 64.5t58 25.5q23 0 44.5 -16.5t41 -40t41.5 -47t54.5 -40t70.5 -16.5
q92 0 162 88q29 37 51 100.5t22 114.5q0 33 -20 72l-469 932q-10 16 -12 16q-12 0 -15 -20q-81 -397 -104 -543q-31 -203 -31 -250q0 -59 22.5 -99t51.5 -52q74 -30 74 -70q0 -45 -76 -45h-402q-69 0 -69 47q0 41 80 66q65 32 99.5 80t62.5 155q18 64 100 459q81 387 92 453
q2 6 2 14q0 21 -43 55q-12 9 -43 24.5t-48 30t-13 31.5q0 47 67 47h254q57 0 78 -43l506 -1009q22 -48 33 6q121 596 135 702q8 47 8 101q0 44 -13.5 73.5t-33 43t-39.5 22.5t-33.5 21.5t-13.5 31.5q0 51 80 51z" />
    <glyph glyph-name="eng" unicode="&#x14b;" horiz-adv-x="1253" 
d="M934 1092q109 0 168 -65t59 -179q0 -108 -49 -369l-43 -229q-14 -74 -53 -199q-38 -119 -80 -184q-79 -128 -199.5 -195t-249.5 -67q-86 0 -153 28q-90 41 -90 154q0 94 69 94q27 0 54 -20l61 -58q67 -67 131 -67q125 0 195 241q9 31 59 263l74 368q18 102 18 156
q0 125 -88 125q-63 0 -138 -73t-142 -202q-117 -223 -162 -444l-29 -133q-6 -31 -43 -37l-158 -20q-15 -3 -20 -3q-33 0 -33 31q0 9 2 15l142 696q19 92 18.5 123t-23.5 49q-14 12 -44 22t-49 22t-19 34q0 45 84 57q130 15 264 59q21 7 35 7q49 0 49 -45q0 -11 -2 -17
l-47 -235q-1 -6 -2 -11.5t-1.5 -8t-0.5 -3.5q0 -8 6 -8q3 0 12 12q91 153 198.5 234.5t219.5 81.5z" />
    <glyph glyph-name="Omacron" unicode="&#x14c;" horiz-adv-x="1658" 
d="M1280 883q0 215 -91.5 339t-254.5 124q-232 0 -395 -228q-162 -223 -162 -538q0 -214 91.5 -336.5t252.5 -122.5q238 0 397 225q162 226 162 537zM981 1487q279 0 442 -166q162 -165 162 -432q0 -376 -270 -643q-269 -269 -639 -269q-284 0 -443 164q-159 167 -159 432
q0 378 268 646t639 268zM639 1700l14 74q6 24 31 24h655q25 0 25 -20q0 -11 -2 -17l-14 -75q-3 -23 -31 -23h-658q-22 0 -22 20q0 11 2 17z" />
    <glyph glyph-name="omacron" unicode="&#x14d;" horiz-adv-x="1181" 
d="M524 109q142 0 234 157q92 160 92 383q0 151 -54.5 232.5t-148.5 81.5q-141 0 -233 -150q-92 -151 -92 -377q0 -152 54 -239.5t148 -87.5zM694 1092q201 0 314.5 -118t113.5 -312q0 -269 -186 -476q-185 -209 -459 -209q-197 0 -313.5 119.5t-116.5 317.5q0 269 189 473
q190 205 458 205zM358 1364l15 74q6 24 30 24h656q24 0 24 -20q0 -11 -2 -17l-14 -75q-3 -23 -31 -23h-657q-23 0 -23 21q0 10 2 16z" />
    <glyph glyph-name="Obreve" unicode="&#x14e;" horiz-adv-x="1658" 
d="M1280 883q0 215 -91.5 339t-254.5 124q-232 0 -395 -228q-162 -223 -162 -538q0 -214 91.5 -336.5t252.5 -122.5q238 0 397 225q162 226 162 537zM981 1487q279 0 442 -166q162 -165 162 -432q0 -376 -270 -643q-269 -269 -639 -269q-284 0 -443 164q-159 167 -159 432
q0 378 268 646t639 268zM1014 1612q-104 0 -166 53t-62 129t50 76q26 0 41 -35q43 -94 155 -94q99 3 170 98q20 33 47 33q18 0 28.5 -12.5t10.5 -30.5q0 -56 -57 -119q-85 -98 -217 -98z" />
    <glyph glyph-name="obreve" unicode="&#x14f;" horiz-adv-x="1181" 
d="M524 109q142 0 234 157q92 160 92 383q0 151 -54.5 232.5t-148.5 81.5q-141 0 -233 -150q-92 -151 -92 -377q0 -152 54 -239.5t148 -87.5zM694 1092q201 0 314.5 -118t113.5 -312q0 -269 -186 -476q-185 -209 -459 -209q-197 0 -313.5 119.5t-116.5 317.5q0 269 189 473
q190 205 458 205zM682 1229q-104 0 -166 53q-61 52 -61 129q0 76 49 76q26 0 41 -35q43 -94 155 -94q99 3 170 98q20 33 48 33q18 0 28 -12.5t10 -30.5q0 -56 -57 -119q-85 -98 -217 -98z" />
    <glyph glyph-name="Ohungarumlaut" unicode="&#x150;" horiz-adv-x="1658" 
d="M1280 883q0 215 -91.5 339t-254.5 124q-232 0 -395 -228q-162 -223 -162 -538q0 -214 91.5 -336.5t252.5 -122.5q238 0 397 225q162 226 162 537zM981 1487q279 0 442 -166q162 -165 162 -432q0 -376 -270 -643q-269 -269 -639 -269q-284 0 -443 164q-159 167 -159 432
q0 378 268 646t639 268zM1268 1847q48 23 96 23q50 0 86 -8q41 -9 41 -35q0 -18 -28.5 -40t-125.5 -81q-158 -96 -243 -96q-52 0 -52 20q0 18 70 88q112 109 156 129zM860 1847q48 23 96 23q50 0 86 -8q41 -9 41 -35q0 -18 -28.5 -40t-124.5 -81q-158 -96 -244 -96
q-51 0 -51 20q0 18 70 88q113 110 155 129z" />
    <glyph glyph-name="ohungarumlaut" unicode="&#x151;" horiz-adv-x="1224" 
d="M524 109q142 0 234 157q92 160 92 383q0 151 -54.5 232.5t-148.5 81.5q-141 0 -233 -150q-92 -151 -92 -377q0 -152 54 -239.5t148 -87.5zM694 1092q201 0 314.5 -118t113.5 -312q0 -269 -186 -476q-185 -209 -459 -209q-197 0 -313.5 119.5t-116.5 317.5q0 269 189 473
q190 205 458 205zM924 1464q48 23 96 23q50 0 86 -8q41 -9 41 -35q0 -18 -28.5 -40t-125.5 -81q-158 -96 -243 -96q-52 0 -52 20q0 18 70 88q112 109 156 129zM516 1464q48 23 96 23q50 0 86 -8q41 -9 41 -35q0 -18 -28.5 -40t-124.5 -81q-158 -96 -244 -96q-51 0 -51 20
q0 19 69 88q112 109 156 129z" />
    <glyph glyph-name="OE" unicode="&#x152;" horiz-adv-x="2078" 
d="M901 233l203 1004q2 6 2 18q0 91 -160 91q-233 0 -409 -226q-172 -224 -172 -534q0 -214 98.5 -337.5t263.5 -123.5q153 0 174 108zM2032 1479q42 0 58.5 -12t16.5 -46q0 -14 -2 -24l-22 -123q-21 -117 -25 -146q-9 -77 -76 -77q-29 0 -43.5 16.5t-25.5 58.5
q-27 115 -90 156q-65 41 -297 41h-80q-29 0 -42 -11t-18 -38l-77 -387q-2 -6 -2 -19q0 -30 45 -30q108 0 202 4l99 8q65 6 86 6q73 0 73 -37q0 -11 -18 -59q-12 -48 -37 -63t-94 -15q-41 0 -176 6q-47 2 -189 2q-31 0 -34 -28l-58 -279q-26 -136 -26 -168q0 -44 30.5 -61
t104.5 -17q220 0 323 70q60 42 74 57q22 23 60 72l20 26q17 25 35 46q26 26 61 26q26 0 45 -18.5t19 -44.5q0 -32 -21 -82q-19 -49 -39 -119q-21 -78 -41 -114t-57 -54q-37 -16 -80 -16q-24 0 -125 8q-111 6 -229 6h-393q-8 0 -93 -10q-83 -13 -163 -13q-271 0 -455 175
t-184 460q0 163 69.5 322t190.5 283q124 124 298 196t365 72q59 0 157 -11.5t116 -11.5h360q135 0 252 8q135 9 152 9z" />
    <glyph glyph-name="oe" unicode="&#x153;" horiz-adv-x="1841" 
d="M694 1092q245 0 365 -197q197 197 424 197q146 0 234.5 -74t88.5 -191q0 -84 -57.5 -157t-167.5 -121q-153 -66 -364 -66q-78 0 -101 2q-13 0 -16 -18q-4 -36 -4 -68q0 -114 56 -185t157 -71q53 0 109 20t95 48q94 70 136 70q19 0 33 -14t14 -34q0 -44 -84 -122
q-155 -134 -373 -134q-101 0 -191.5 46.5t-146.5 130.5q-183 -177 -424 -177q-197 0 -313.5 119.5t-116.5 317.5q0 269 189 473q190 205 458 205zM524 109q142 0 234 157q92 160 92 383q0 151 -54.5 232.5t-148.5 81.5q-141 0 -233 -150q-92 -151 -92 -377q0 -152 54 -239.5
t148 -87.5zM1149 618q228 0 338 82q86 62 86 146q0 51 -34.5 81.5t-90.5 30.5q-101 0 -188 -96q-84 -92 -125 -209l-5 -20q0 -15 19 -15z" />
    <glyph glyph-name="Racute" unicode="&#x154;" horiz-adv-x="1415" 
d="M545 817h108q166 0 268.5 84t102.5 238q0 186 -262 186h-105q-37 0 -43 -35l-90 -436q-2 -6 -2 -14q0 -23 23 -23zM1264 104l30 -24q17 -13 17 -33q0 -47 -68 -47h-153q-97 0 -132 53q-30 47 -47 119l-26 100q-6 26 -29 117q-41 157 -92 217q-48 63 -143 72q-62 4 -109 0
q-23 -3 -29 -31l-53 -260q-24 -126 -24 -176q0 -45 16.5 -72.5t36.5 -36t36.5 -22t16.5 -33.5q0 -47 -74 -47h-432q-59 0 -59 43q0 12 5 22t18 18t17.5 10t20.5 9q50 20 78 68q38 64 68 217l157 787q19 93 19 112q0 30 -15 50t-33.5 27t-33.5 20t-15 32q0 47 72 47h500
q86 0 172 -4q60 -3 147 -28q82 -21 129 -68q74 -74 74 -191q0 -177 -125 -284t-319 -125q-8 -1 -12 -7t-1.5 -11.5t9.5 -6.5q99 -17 153 -84q56 -69 101 -235q44 -160 69 -230q23 -56 62 -84zM1176 1839l-326 -184q-48 -23 -92 -23h-140q-14 0 -14 10q0 5 8 13l217 184
q39 31 89 31h245q25 0 25 -15q0 -7 -12 -16z" />
    <glyph glyph-name="racute" unicode="&#x155;" horiz-adv-x="952" 
d="M907 1092q57 0 91 -36t34 -108q0 -129 -82 -129q-18 0 -63 24.5t-70 24.5q-130 0 -274 -258q-107 -192 -166 -448l-27 -125q-9 -31 -45 -37l-155 -20q-15 -3 -21 -3q-35 0 -35 31q0 11 2 17l142 694q20 106 20 127q0 29 -21.5 46t-47 22.5t-47 19t-21.5 35.5q0 45 84 57
q142 16 264 59q21 7 35 7q49 0 49 -45q0 -11 -2 -17l-49 -246q-2 -6 -2 -14q0 -9 9 -5q5 3 11 13q90 144 195.5 229t191.5 85zM932 1456l-326 -184q-48 -23 -92 -23h-139q-15 0 -15 11q0 3 9 12l217 184q39 31 88 31h246q24 0 24 -14q0 -8 -12 -17z" />
    <glyph glyph-name="Rcommaaccent" unicode="&#x156;" horiz-adv-x="1415" 
d="M545 817h108q166 0 268.5 84t102.5 238q0 186 -262 186h-105q-37 0 -43 -35l-90 -436q-2 -6 -2 -14q0 -23 23 -23zM1264 104l30 -24q17 -13 17 -33q0 -47 -68 -47h-153q-97 0 -132 53q-30 47 -47 119l-26 100q-6 26 -29 117q-41 157 -92 217q-48 63 -143 72q-62 4 -109 0
q-23 -3 -29 -31l-53 -260q-24 -126 -24 -176q0 -45 16.5 -72.5t36.5 -36t36.5 -22t16.5 -33.5q0 -47 -74 -47h-432q-59 0 -59 43q0 12 5 22t18 18t17.5 10t20.5 9q50 20 78 68q38 64 68 217l157 787q19 93 19 112q0 30 -15 50t-33.5 27t-33.5 20t-15 32q0 47 72 47h500
q86 0 172 -4q60 -3 147 -28q82 -21 129 -68q74 -74 74 -191q0 -177 -125 -284t-319 -125q-8 -1 -12 -7t-1.5 -11.5t9.5 -6.5q99 -17 153 -84q56 -69 101 -235q44 -160 69 -230q23 -56 62 -84zM797 -92q32 -46 32 -96q0 -105 -133 -220q-100 -86 -147 -86q-37 0 -37 35
q-4 12 6 20t36.5 22.5t45.5 29.5q57 51 57 94q0 29 -34 78q-41 59 -41 82q0 30 49 70q52 40 82 40q44 0 84 -69z" />
    <glyph glyph-name="rcommaaccent" unicode="&#x157;" horiz-adv-x="952" 
d="M907 1092q57 0 91 -36t34 -108q0 -129 -82 -129q-18 0 -63 24.5t-70 24.5q-130 0 -274 -258q-107 -192 -166 -448l-27 -125q-9 -31 -45 -37l-155 -20q-15 -3 -21 -3q-35 0 -35 31q0 11 2 17l142 694q20 106 20 127q0 29 -21.5 46t-47 22.5t-47 19t-21.5 35.5q0 45 84 57
q142 16 264 59q21 7 35 7q49 0 49 -45q0 -11 -2 -17l-49 -246q-2 -6 -2 -14q0 -9 9 -5q5 3 11 13q90 144 195.5 229t191.5 85zM633 -92q33 -47 33 -96q0 -104 -134 -220q-100 -86 -147 -86q-37 0 -37 35q-4 12 6 20t36.5 22.5t45.5 29.5q58 52 58 94q0 28 -35 78
q-41 59 -41 82q0 30 49 70q52 40 82 40q44 0 84 -69z" />
    <glyph glyph-name="Rcaron" unicode="&#x158;" horiz-adv-x="1415" 
d="M545 817h108q166 0 268.5 84t102.5 238q0 186 -262 186h-105q-37 0 -43 -35l-90 -436q-2 -6 -2 -14q0 -23 23 -23zM1264 104l30 -24q17 -13 17 -33q0 -47 -68 -47h-153q-97 0 -132 53q-30 47 -47 119l-26 100q-6 26 -29 117q-41 157 -92 217q-48 63 -143 72q-62 4 -109 0
q-23 -3 -29 -31l-53 -260q-24 -126 -24 -176q0 -45 16.5 -72.5t36.5 -36t36.5 -22t16.5 -33.5q0 -47 -74 -47h-432q-59 0 -59 43q0 12 5 22t18 18t17.5 10t20.5 9q50 20 78 68q38 64 68 217l157 787q19 93 19 112q0 30 -15 50t-33.5 27t-33.5 20t-15 32q0 47 72 47h500
q86 0 172 -4q60 -3 147 -28q82 -21 129 -68q74 -74 74 -191q0 -177 -125 -284t-319 -125q-8 -1 -12 -7t-1.5 -11.5t9.5 -6.5q99 -17 153 -84q56 -69 101 -235q44 -160 69 -230q23 -56 62 -84zM1030 1870h113q14 0 14 -8q0 -5 -4 -9l-227 -221q-20 -20 -45 -20h-160
q-26 0 -37 20l-133 213q-6 9 -6 15q0 10 14 10h90q16 0 33 -17l121 -137q6 -6 10 -5.5t14 7.5l162 137q15 15 41 15z" />
    <glyph glyph-name="rcaron" unicode="&#x159;" horiz-adv-x="952" 
d="M907 1092q57 0 91 -36t34 -108q0 -129 -82 -129q-18 0 -63 24.5t-70 24.5q-130 0 -274 -258q-107 -192 -166 -448l-27 -125q-9 -31 -45 -37l-155 -20q-15 -3 -21 -3q-35 0 -35 31q0 11 2 17l142 694q20 106 20 127q0 29 -21.5 46t-47 22.5t-47 19t-21.5 35.5q0 45 84 57
q142 16 264 59q21 7 35 7q49 0 49 -45q0 -11 -2 -17l-49 -246q-2 -6 -2 -14q0 -9 9 -5q5 3 11 13q90 144 195.5 229t191.5 85zM844 1487h112q15 0 15 -8q0 -5 -4 -9l-228 -221q-20 -20 -45 -20h-159q-26 0 -37 20l-133 213q-7 10 -7 15q0 10 15 10h90q16 0 33 -17l120 -137
q6 -6 10.5 -5.5t14.5 7.5l162 138q14 14 41 14z" />
    <glyph glyph-name="Sacute" unicode="&#x15a;" horiz-adv-x="1210" 
d="M1126 1391q48 -48 48 -123q0 -217 -89 -217q-42 0 -63 34q-20 46 -49 97q-92 157 -254 157q-107 0 -178.5 -63t-71.5 -152q0 -138 213 -231q43 -18 67 -28.5t66.5 -31t68 -38t59.5 -43t54.5 -53t40.5 -61t28.5 -74t8.5 -85.5q0 -189 -168 -338q-188 -164 -483 -164
q-58 0 -115.5 7t-119 25t-108 45.5t-76.5 72.5t-30 102q0 15 6.5 66t6.5 67q3 111 78 111q35 0 55 -33q3 -4 44.5 -85.5t74.5 -116.5q98 -107 256 -107q124 0 221 66q98 67 98 186q0 58 -33.5 103.5t-86.5 77t-117.5 60.5t-129 63.5t-117.5 76.5t-86.5 108t-33.5 150
q0 195 186 338q165 127 402 127q104 0 193.5 -28t133.5 -68zM1090 1839l-326 -184q-48 -23 -92 -23h-140q-14 0 -14 10q0 5 8 13l217 184q39 31 88 31h246q25 0 25 -15q0 -7 -12 -16z" />
    <glyph glyph-name="sacute" unicode="&#x15b;" horiz-adv-x="993" 
d="M14 233q0 144 80 144q14 0 25.5 -5.5t27 -25.5t22.5 -31t30 -49q94 -149 235 -149q77 0 134 41t57 110q0 95 -170 150q-5 2 -14 5q-39 14 -59.5 21.5t-57.5 24t-57.5 30.5t-47.5 36.5t-41 46t-24.5 56t-10.5 69.5q0 94 61.5 182.5t170.5 144.5q113 58 254 58
q167 0 245 -66q50 -41 50 -119q0 -157 -84 -157q-42 0 -76 61q-32 54 -45 70q-21 30 -65.5 56t-94.5 26q-69 0 -121.5 -42t-52.5 -106q0 -38 27 -67t70 -48t94.5 -37t103.5 -41.5t95 -53.5t70 -80.5t27 -116.5q0 -88 -52 -172.5t-148 -143.5q-135 -78 -299 -78
q-97 0 -184.5 27.5t-127.5 67.5q-47 47 -47 161zM856 1456l-326 -184q-48 -23 -92 -23h-139q-14 0 -14 11q0 4 8 12l217 184q39 31 88 31h246q24 0 24 -14q0 -8 -12 -17z" />
    <glyph glyph-name="Scircumflex" unicode="&#x15c;" horiz-adv-x="1210" 
d="M1126 1391q48 -48 48 -123q0 -217 -89 -217q-42 0 -63 34q-20 46 -49 97q-92 157 -254 157q-107 0 -178.5 -63t-71.5 -152q0 -138 213 -231q43 -18 67 -28.5t66.5 -31t68 -38t59.5 -43t54.5 -53t40.5 -61t28.5 -74t8.5 -85.5q0 -189 -168 -338q-188 -164 -483 -164
q-58 0 -115.5 7t-119 25t-108 45.5t-76.5 72.5t-30 102q0 15 6.5 66t6.5 67q3 111 78 111q35 0 55 -33q3 -4 44.5 -85.5t74.5 -116.5q98 -107 256 -107q124 0 221 66q98 67 98 186q0 58 -33.5 103.5t-86.5 77t-117.5 60.5t-129 63.5t-117.5 76.5t-86.5 108t-33.5 150
q0 195 186 338q165 127 402 127q104 0 193.5 -28t133.5 -68zM612 1612h-112q-15 0 -15 8q0 4 4 8l228 221q21 21 45 21h160q24 0 36 -21l134 -213q6 -9 6 -14q0 -10 -15 -10h-90q-16 0 -32 16l-121 137q-6 6 -10.5 5.5t-14.5 -7.5l-162 -137q-14 -14 -41 -14z" />
    <glyph glyph-name="scircumflex" unicode="&#x15d;" horiz-adv-x="993" 
d="M14 233q0 144 80 144q14 0 25.5 -5.5t27 -25.5t22.5 -31t30 -49q94 -149 235 -149q77 0 134 41t57 110q0 95 -170 150q-5 2 -14 5q-39 14 -59.5 21.5t-57.5 24t-57.5 30.5t-47.5 36.5t-41 46t-24.5 56t-10.5 69.5q0 94 61.5 182.5t170.5 144.5q113 58 254 58
q167 0 245 -66q50 -41 50 -119q0 -157 -84 -157q-42 0 -76 61q-32 54 -45 70q-21 30 -65.5 56t-94.5 26q-69 0 -121.5 -42t-52.5 -106q0 -38 27 -67t70 -48t94.5 -37t103.5 -41.5t95 -53.5t70 -80.5t27 -116.5q0 -88 -52 -172.5t-148 -143.5q-135 -78 -299 -78
q-97 0 -184.5 27.5t-127.5 67.5q-47 47 -47 161zM420 1229h-113q-14 0 -14 8q0 4 4 8l227 221q21 21 45 21h160q25 0 37 -21l133 -213q6 -9 6 -14q0 -10 -14 -10h-90q-17 0 -33 16l-121 137q-6 6 -10 5.5t-14 -7.5l-162 -137q-14 -14 -41 -14z" />
    <glyph glyph-name="Scedilla" unicode="&#x15e;" horiz-adv-x="1210" 
d="M1126 1391q48 -48 48 -123q0 -217 -89 -217q-42 0 -63 34q-20 46 -49 97q-92 157 -254 157q-107 0 -178.5 -63t-71.5 -152q0 -138 213 -231q43 -18 67 -28.5t66.5 -31t68 -38t59.5 -43t54.5 -53t40.5 -61t28.5 -74t8.5 -85.5q0 -189 -168 -338q-178 -152 -440 -161
q-43 -40 -43 -66q-2 -9 13 -16t39 -11.5t52.5 -13t53 -19t40 -30t13.5 -45.5q0 -68 -84 -121q-83 -53 -199 -53q-49 0 -104 14q-58 12 -58 45q0 20 14.5 32.5t35.5 12.5q5 0 40 -8t60 -8q49 0 76 18q28 22 28 47q0 20 -25 33.5t-54.5 19.5t-54.5 21.5t-25 38.5q0 44 67 111
q-149 9 -266 69q-111 61 -111 178q0 15 6.5 66t6.5 67q3 111 78 111q35 0 55 -33q3 -4 44.5 -85.5t74.5 -116.5q98 -107 256 -107q124 0 221 66q98 67 98 186q0 58 -33.5 103.5t-86.5 77t-117.5 60.5t-129 63.5t-117.5 76.5t-86.5 108t-33.5 150q0 195 186 338
q165 127 402 127q104 0 193.5 -28t133.5 -68z" />
    <glyph glyph-name="scedilla" unicode="&#x15f;" horiz-adv-x="993" 
d="M14 233q0 144 80 144q14 0 25.5 -5.5t27 -25.5t22.5 -31t30 -49q94 -149 235 -149q77 0 134 41t57 110q0 95 -170 150q-5 2 -14 5q-39 14 -59.5 21.5t-57.5 24t-57.5 30.5t-47.5 36.5t-41 46t-24.5 56t-10.5 69.5q0 94 61.5 182.5t170.5 144.5q113 58 254 58
q167 0 245 -66q50 -41 50 -119q0 -157 -84 -157q-42 0 -76 61q-32 54 -45 70q-21 30 -65.5 56t-94.5 26q-69 0 -121.5 -42t-52.5 -106q0 -38 27 -67t70 -48t94.5 -37t103.5 -41.5t95 -53.5t70 -80.5t27 -116.5q0 -88 -52 -172.5t-148 -143.5q-105 -60 -246 -75
q-43 -40 -43 -66q-2 -9 13 -16t39 -11.5t52.5 -13t53 -19t40 -30t13.5 -45.5q0 -68 -84 -121q-83 -53 -199 -53q-49 0 -104 14q-57 12 -57 45q0 20 14 32.5t35 12.5q5 0 40 -8t60 -8q49 0 76 18q28 22 28 47q0 20 -25 33.5t-54.5 19.5t-54.5 21.5t-25 38.5q0 44 67 111
q-178 15 -250 90q-47 47 -47 161z" />
    <glyph glyph-name="Scaron" unicode="&#x160;" horiz-adv-x="1210" 
d="M1126 1391q48 -48 48 -123q0 -217 -89 -217q-42 0 -63 34q-20 46 -49 97q-92 157 -254 157q-107 0 -178.5 -63t-71.5 -152q0 -138 213 -231q43 -18 67 -28.5t66.5 -31t68 -38t59.5 -43t54.5 -53t40.5 -61t28.5 -74t8.5 -85.5q0 -189 -168 -338q-188 -164 -483 -164
q-58 0 -115.5 7t-119 25t-108 45.5t-76.5 72.5t-30 102q0 15 6.5 66t6.5 67q3 111 78 111q35 0 55 -33q3 -4 44.5 -85.5t74.5 -116.5q98 -107 256 -107q124 0 221 66q98 67 98 186q0 58 -33.5 103.5t-86.5 77t-117.5 60.5t-129 63.5t-117.5 76.5t-86.5 108t-33.5 150
q0 195 186 338q165 127 402 127q104 0 193.5 -28t133.5 -68zM975 1870h112q15 0 15 -8q0 -5 -4 -9l-228 -221q-20 -20 -45 -20h-159q-26 0 -37 20l-133 213q-7 11 -7 15q0 10 15 10h90q16 0 33 -17l121 -137q6 -6 10 -5.5t14 7.5l162 137q15 15 41 15z" />
    <glyph glyph-name="scaron" unicode="&#x161;" horiz-adv-x="993" 
d="M14 233q0 144 80 144q14 0 25.5 -5.5t27 -25.5t22.5 -31t30 -49q94 -149 235 -149q77 0 134 41t57 110q0 95 -170 150q-5 2 -14 5q-39 14 -59.5 21.5t-57.5 24t-57.5 30.5t-47.5 36.5t-41 46t-24.5 56t-10.5 69.5q0 94 61.5 182.5t170.5 144.5q113 58 254 58
q167 0 245 -66q50 -41 50 -119q0 -157 -84 -157q-42 0 -76 61q-32 54 -45 70q-21 30 -65.5 56t-94.5 26q-69 0 -121.5 -42t-52.5 -106q0 -38 27 -67t70 -48t94.5 -37t103.5 -41.5t95 -53.5t70 -80.5t27 -116.5q0 -88 -52 -172.5t-148 -143.5q-135 -78 -299 -78
q-97 0 -184.5 27.5t-127.5 67.5q-47 47 -47 161zM788 1487h113q14 0 14 -8q0 -5 -4 -9l-227 -221q-20 -20 -45 -20h-160q-26 0 -37 20l-133 213q-6 9 -6 15q0 10 14 10h91q15 0 32 -17l121 -137q6 -6 10.5 -5.5t14.5 7.5l162 138q14 14 40 14z" />
    <glyph glyph-name="Tcommaaccent" unicode="&#x162;" horiz-adv-x="1263" 
d="M1317 1477q44 0 61 -10t17 -44q0 -16 -2 -26q-1 -8 -4 -24t-8.5 -47.5t-10.5 -57.5l-24 -144q-12 -73 -74 -73q-27 0 -43.5 15.5t-28.5 55.5q0 1 -4.5 16t-9.5 30.5t-8 21.5q-7 22 -27 52t-41 42q-59 41 -172 41q-42 0 -51 -43l-182 -897q-23 -125 -23 -176q0 -37 11 -61
t26.5 -35t31 -19t26.5 -19.5t11 -29.5q0 -45 -77 -45h-158q-68 -53 -68 -86q-2 -9 13 -16t39 -11.5t52.5 -13t53 -19t40 -30t13.5 -45.5q0 -68 -84 -121q-83 -53 -198 -53q-50 0 -105 14q-57 12 -57 45q0 20 14 32.5t35 12.5q5 0 40 -8t60 -8q49 0 76 18q29 23 29 47
q0 20 -25 33.5t-55 19.5t-55 21.5t-25 38.5q0 53 88 129h-153q-58 0 -58 43q0 35 56 59q54 21 83 70q36 65 66 213l180 889q1 6 2 11.5t1.5 8.5t0.5 4q0 27 -37 27q-113 0 -184 -41q-76 -42 -151 -160q-46 -75 -88 -75q-64 0 -64 59q0 17 6 41l33 137l31 125q10 38 32 52
t72 14q28 0 154 -9q126 -6 223 -6h293q100 0 229 6q132 9 156 9z" />
    <glyph glyph-name="tcommaaccent" unicode="&#x163;" horiz-adv-x="821" 
d="M702 231q37 0 37 -32q0 -27 -34 -70q-58 -68 -143 -110t-179 -42q-120 0 -189 63.5t-69 182.5q0 68 16 156q14 78 56 239q38 146 61 250q2 6 2 15q0 14 -18 14h-123q-25 0 -25 25q0 8 2 14l15 68q6 22 34 28q131 24 191 90q33 39 86 166q9 27 35 27h108q25 0 25 -23
q0 -6 -2 -14l-39 -193q-1 -6 -2 -13.5t-1.5 -11t-0.5 -5.5q0 -23 43 -23q79 0 108 2q10 0 62 6.5t69 6.5q54 0 54 -31q0 -6 -19 -55q-14 -39 -35 -55.5t-63 -16.5q-14 0 -61.5 3t-63.5 3q-25 2 -109 2q-21 0 -28 -23q-92 -392 -92 -571q0 -147 108 -147q49 0 107 37
q55 38 77 38zM391 -92q33 -47 33 -96q0 -105 -133 -220q-100 -86 -148 -86q-37 0 -37 35q-4 12 6.5 20t37 22t45.5 30q57 51 57 94q0 28 -35 78q-41 59 -41 82q0 30 49 70q52 40 82 40q44 0 84 -69z" />
    <glyph glyph-name="Tcaron" unicode="&#x164;" horiz-adv-x="1263" 
d="M1317 1477q44 0 61 -10t17 -44q0 -16 -2 -26q-1 -8 -4 -24t-8.5 -47.5t-10.5 -57.5l-24 -144q-12 -73 -74 -73q-27 0 -43.5 15.5t-28.5 55.5q0 1 -4.5 16t-9.5 30.5t-8 21.5q-7 22 -27 52t-41 42q-59 41 -172 41q-42 0 -51 -43l-182 -897q-23 -125 -23 -176q0 -37 11 -61
t26.5 -35t31 -19t26.5 -19.5t11 -29.5q0 -45 -77 -45h-430q-58 0 -58 43q0 35 56 59q54 21 83 70q36 65 66 213l180 889q1 6 2 11.5t1.5 8.5t0.5 4q0 27 -37 27q-113 0 -184 -41q-76 -42 -151 -160q-46 -75 -88 -75q-64 0 -64 59q0 17 6 41l33 137l31 125q10 38 32 52t72 14
q28 0 154 -9q126 -6 223 -6h293q100 0 229 6q132 9 156 9zM1022 1870h113q14 0 14 -8q0 -5 -4 -9l-227 -221q-20 -20 -46 -20h-159q-26 0 -37 20l-133 213q-6 9 -6 15q0 10 14 10h90q16 0 33 -17l121 -137q6 -6 10 -5.5t14 7.5l162 137q15 15 41 15z" />
    <glyph glyph-name="tcaron" unicode="&#x165;" horiz-adv-x="831" 
d="M702 231q37 0 37 -32q0 -27 -34 -70q-58 -68 -143 -110t-179 -42q-120 0 -189 63.5t-69 182.5q0 68 16 156q14 78 56 239q38 146 61 250q2 6 2 15q0 14 -18 14h-123q-25 0 -25 25q0 8 2 14l15 68q6 22 34 28q131 24 191 90q33 39 86 166q9 27 35 27h108q25 0 25 -23
q0 -6 -2 -14l-39 -193q-1 -6 -2 -13.5t-1.5 -11t-0.5 -5.5q0 -23 43 -23q79 0 108 2q10 0 62 6.5t69 6.5q54 0 54 -31q0 -6 -19 -55q-14 -39 -35 -55.5t-63 -16.5q-14 0 -61.5 3t-63.5 3q-25 2 -109 2q-21 0 -28 -23q-92 -392 -92 -571q0 -147 108 -147q49 0 107 37
q55 38 77 38zM948 1532q33 -47 33 -96q0 -104 -133 -219q-101 -87 -148 -87q-36 0 -36 35q-4 12 6 20t36.5 22.5t45.5 29.5q57 51 57 94q0 28 -35 78q-41 59 -41 82q0 30 49 70q53 41 82 41q44 0 84 -70z" />
    <glyph glyph-name="Tbar" unicode="&#x166;" horiz-adv-x="1263" 
d="M1317 1477q27 0 41.5 -2.5t25.5 -14.5t11 -35q0 -21 -9 -67q-4 -28 -19.5 -113t-20.5 -121q-12 -73 -72 -73q-26 0 -41.5 15t-24 39.5t-16.5 53.5t-24 58t-41 53.5t-73.5 39.5t-115.5 15q-25 0 -34.5 -9t-14.5 -34l-76 -373q-2 -6 -2 -14q0 -18 20 -18h203q23 0 23 -21
q0 -8 -2 -16l-15 -78q-6 -25 -32 -25h-207q-24 0 -27 -20l-67 -332q-25 -128 -25 -174q0 -45 17 -72.5t37.5 -36t37.5 -22t17 -33.5q0 -47 -78 -47h-432q-56 0 -56 45q-4 17 11.5 31t44 27.5t34.5 17.5q45 30 66.5 84.5t46.5 179.5l66 322q2 6 2 14q0 16 -19 16h-205
q-22 0 -22 21q0 10 2 16l16 76q6 27 31 27h207q23 0 26 22l78 383q2 8 2 16q0 27 -34 27q-113 0 -187 -41q-74 -43 -149 -160q-49 -75 -90 -75q-64 0 -64 57q0 5 37 166q0 2 12 55q13 60 21 84q12 40 34.5 53t71.5 13q26 0 152 -9q126 -6 223 -6h293q100 0 229 6
q132 9 156 9z" />
    </font>
</defs>
</svg>
