<?xml version="1.0" standalone="no"?>
<!DOCTYPE svg PUBLIC "-//W3C//DTD SVG 1.1//EN" "http://www.w3.org/Graphics/SVG/1.1/DTD/svg11.dtd" >
<svg xmlns="http://www.w3.org/2000/svg" xmlns:xlink="http://www.w3.org/1999/xlink" version="1.1">
<metadata>
Created by FontForge 20170731 at Fri Sep 11 15:39:26 2020
 By Aleksey,,,
Copyright (c) 2011 by Michael D. Beens. All rights reserved.
</metadata>
<defs>
<font id="P22MackinacPro-Medium" horiz-adv-x="1290" >
  <font-face 
    font-family="P22 Mackinac Pro"
    font-weight="500"
    font-stretch="normal"
    units-per-em="2048"
    panose-1="2 0 0 0 0 0 0 0 0 0"
    ascent="1630"
    descent="-418"
    x-height="1069"
    cap-height="1462"
    bbox="-211 -494 2312 1878"
    underline-thickness="40"
    underline-position="-286"
    unicode-range="U+0020-FB07"
  />
<missing-glyph horiz-adv-x="1300" 
d="M367 82h569l-285 475zM367 1184l284 -473l285 473h-569zM1065 1266v-1266h-829v1266h829zM983 1108l-285 -475l285 -475v950zM317 158l285 475l-285 475v-950z" />
    <glyph glyph-name="Tcaron_h" unicode="&#x164;h" horiz-adv-x="2220" 
d="M805 1870h86q10 0 10 -8q0 -4 -10 -17l-176 -215q-15 -18 -37 -18h-127q-22 0 -37 18l-176 215q-10 13 -10 17q0 8 10 8h88q16 0 31 -15l151 -153q4 -4 6 -4t7 4l153 156q12 12 31 12zM2030 686v-328q0 -162 24 -208q20 -38 62 -66q43 -24 43 -45q0 -39 -58 -39h-338
q-57 0 -57 39q0 12 12 24t27.5 21t35 28t31.5 42q23 51 23 204v324q0 115 -54 183.5t-159 68.5q-104 0 -172 -68q-59 -59 -80 -168q-20 -103 -20 -340q0 -150 20 -200q16 -43 62 -70q47 -27 47 -49q0 -39 -58 -39h-338q-55 0 -55 39q0 13 14 26t32 23t38 32t29 50
q16 53 16 188v859q0 87 -29 110q-28 25 -127 25h-256q-28 0 -28 -27v-969q0 -156 24 -206q17 -38 62 -66q43 -24 43 -45q0 -39 -55 -39h-351q-57 0 -57 39q0 21 41 45q43 27 61 61q27 53 27 211v969q0 27 -27 27q-158 0 -217 -33q-47 -25 -77.5 -68.5t-41 -80t-28.5 -64
t-45 -27.5q-58 0 -58 62q0 4 1 19.5t2 45.5t2 62q0 96 6 149q5 33 23 46.5t61 13.5q17 0 131 -9q117 -6 221 -6h303q274 0 356 15q51 9 107 30q61 23 74 23q45 0 45 -55v-564q0 -8 6 -8q3 0 10 10q120 179 330 179q173 0 268 -127q66 -97 66 -279z" />
    <glyph glyph-name="Tcommaaccent_h" unicode="&#x162;h" horiz-adv-x="2220" 
d="M2030 686v-328q0 -162 24 -208q20 -38 62 -66q43 -24 43 -45q0 -39 -58 -39h-338q-57 0 -57 39q0 12 12 24t27.5 21t35 28t31.5 42q23 51 23 204v324q0 115 -54 183.5t-159 68.5q-104 0 -172 -68q-59 -59 -80 -168q-20 -103 -20 -340q0 -150 20 -200q16 -43 62 -70
q47 -27 47 -49q0 -39 -58 -39h-338q-55 0 -55 39q0 13 14 26t32 23t38 32t29 50q16 53 16 188v859q0 87 -29 110q-28 25 -127 25h-256q-28 0 -28 -27v-969q0 -156 24 -206q17 -38 62 -66q43 -24 43 -45q0 -39 -55 -39h-351q-57 0 -57 39q0 21 41 45q43 27 61 61
q27 53 27 211v969q0 27 -27 27q-158 0 -217 -33q-47 -25 -77.5 -68.5t-41 -80t-28.5 -64t-45 -27.5q-58 0 -58 62q0 4 1 19.5t2 45.5t2 62q0 96 6 149q5 33 23 46.5t61 13.5q17 0 131 -9q117 -6 221 -6h303q274 0 356 15q51 9 107 30q61 23 74 23q45 0 45 -55v-564
q0 -8 6 -8q3 0 10 10q120 179 330 179q173 0 268 -127q66 -97 66 -279zM682 -72q51 -54 51 -121q0 -96 -82 -200q-31 -39 -70 -70t-61 -31q-11 0 -21 9.5t-10 21.5q0 8 12 18.5t32 28.5t34 39q33 44 33 78q0 37 -53 90q-47 47 -47 76q0 26 41 70q40 40 67 40q34 0 74 -49z
" />
    <glyph glyph-name="f_f_j" unicode="ffj" horiz-adv-x="1925" 
d="M1575 1487q47 -41 47 -137q0 -84 -55 -84q-29 0 -74 51q-49 55 -84 72q-47 24 -98 24q-76 0 -135 -53q-91 -91 -91 -309q0 -19 23 -19q77 0 104 2q14 0 62 5t59 5q53 0 53 -34q0 -7 -6 -37q-12 -66 -73 -66q-13 0 -56.5 4t-54.5 4q-34 3 -84 3q-25 0 -25 -25v-535
q0 -166 27 -213q20 -33 62 -61q41 -24 41 -45q0 -39 -58 -39h-340q-57 0 -57 39q0 20 41 47q43 27 59 55q29 60 29 217q0 119 -2 258v283q0 19 -19 19h-419q-27 0 -27 -25v-535q0 -150 25 -208q10 -23 29 -40.5t35 -26t28 -20t12 -24.5q0 -39 -57 -39h-338q-58 0 -58 39
q0 23 45 49q46 27 64 70q20 50 20 200v543q0 17 -20 17h-127q-25 0 -25 22v70q0 22 25 22h127q22 0 22 21q6 112 41 199.5t84 138t111.5 83.5t116.5 44.5t106 11.5q84 0 131 -35q51 -39 51 -141q0 -86 -55 -86q-20 0 -44.5 22t-46 48.5t-57.5 48.5t-77 22q-168 0 -168 -356
q0 -21 20 -21h428q21 0 21 19q15 212 162 344q150 135 364 135q107 0 156 -43zM1751 1038v-833q0 -260 -76 -385q-60 -98 -166 -155.5t-225 -57.5q-90 0 -129 33q-53 44 -53 139q0 94 57 94q17 2 41.5 -20.5t47.5 -50t59 -50t73 -20.5q80 0 127 80q44 69 47 335
q0 141 -2 299v279q0 133 -20 166q-17 24 -66 41q-51 20 -51 43q0 35 58 47q101 20 184 57q29 13 47 13q47 0 47 -54z" />
    <glyph glyph-name="f_j" unicode="fj" horiz-adv-x="1257" 
d="M911 1487q47 -41 47 -137q0 -84 -55 -84q-29 0 -74 51q-49 55 -84 72q-47 24 -98 24q-76 0 -135 -53q-90 -90 -90 -309q0 -19 22 -19q78 0 105 2q14 0 62 5t59 5q53 0 53 -34q0 -7 -6 -37q-12 -66 -74 -66q-13 0 -56.5 4t-54.5 4q-35 3 -83 3q-25 0 -25 -25v-535
q0 -166 27 -213q21 -34 61 -61q41 -24 41 -45q0 -39 -57 -39h-340q-58 0 -58 39q0 20 41 47q45 28 60 55q28 58 28 217q0 119 -2 258v283q0 19 -18 19h-125q-25 0 -25 22v70q0 22 25 22h127q20 0 20 19q15 212 162 344q150 135 365 135q106 0 155 -43zM1083 1038v-833
q0 -261 -75 -385q-60 -98 -166.5 -155.5t-225.5 -57.5q-90 0 -129 33q-53 44 -53 139q0 94 58 94q17 2 41.5 -20.5t47.5 -50t59 -50t73 -20.5q80 0 127 80q44 69 47 335q0 141 -2 299v279q0 131 -21 166q-18 25 -65 41q-51 20 -51 43q0 35 57 47q101 20 184 57q29 13 47 13
q47 0 47 -54z" />
    <glyph glyph-name="ff" unicode="ff" horiz-adv-x="1490" 
d="M821 1495q51 -39 51 -141q0 -86 -55 -86q-20 0 -44.5 22t-46 48.5t-57.5 48.5t-77 22q-168 0 -168 -356q0 -21 20 -21h451q23 0 23 21q6 112 41 199.5t83.5 138t111 83.5t116.5 44.5t106 11.5q84 0 131 -35q52 -40 52 -141q0 -86 -56 -86q-20 0 -44.5 22t-46 48.5
t-57.5 48.5t-77 22q-168 0 -168 -356q0 -21 20 -21q101 0 134 2q20 0 73 6q61 7 74 7q57 0 57 -33q0 -4 -6 -41q-6 -39 -25.5 -51.5t-64.5 -12.5q-38 0 -69 2q-12 1 -26 2t-22 1.5t-12 0.5q-41 3 -106 3q-27 0 -27 -25v-535q0 -150 25 -208q10 -23 29 -40.5t35 -26t28 -20
t12 -24.5q0 -39 -57 -39h-338q-58 0 -58 39q0 23 45 49q46 27 64 70q20 50 20 200v543q0 17 -20 17h-444q-27 0 -27 -25v-535q0 -150 25 -208q10 -23 29 -40.5t35 -26t28 -20t12 -24.5q0 -39 -57 -39h-338q-58 0 -58 39q0 23 45 49q46 27 64 70q20 50 20 200v543
q0 17 -20 17h-127q-25 0 -25 22v70q0 22 25 22h127q22 0 22 21q6 112 41 199.5t84 138t111.5 83.5t116.5 44.5t106 11.5q84 0 131 -35z" />
    <glyph glyph-name="fi" unicode="fi" horiz-adv-x="1286" 
d="M911 1487q47 -41 47 -137q0 -84 -55 -84q-29 0 -74 51q-49 55 -84 72q-47 24 -98 24q-76 0 -135 -53q-90 -90 -90 -309q0 -19 22 -19q78 0 105 2q14 0 62 5t59 5q53 0 53 -34q0 -7 -6 -37q-12 -66 -74 -66q-13 0 -56.5 4t-54.5 4q-35 3 -83 3q-25 0 -25 -25v-535
q0 -166 27 -213q21 -34 61 -61q41 -24 41 -45q0 -39 -57 -39h-340q-58 0 -58 39q0 20 41 47q45 28 60 55q28 58 28 217q0 119 -2 258v283q0 19 -18 19h-125q-25 0 -25 22v70q0 22 25 22h127q20 0 20 19q15 212 162 344q150 135 365 135q106 0 155 -43zM1083 1038v-680
q0 -156 25 -208q18 -37 61 -64t43 -47q0 -39 -57 -39h-342q-55 0 -55 39q0 22 43 49q46 26 61 62q25 52 25 208v365q0 133 -21 168q-16 28 -67 43q-49 18 -49 41q0 35 57 47q113 24 194 59q29 11 39 11q43 0 43 -54z" />
    <glyph glyph-name="fl" unicode="fl" horiz-adv-x="1298" 
d="M1096 1477v-1121q0 -157 22 -209q14 -34 60 -63q45 -23 45 -45q0 -39 -56 -39h-336q-57 0 -57 39q0 21 43 45q45 25 62 63q24 56 24 209v918q0 44 -20 67q-58 76 -185 76q-33 0 -66.5 -8.5t-71.5 -34t-67 -64.5t-48 -106t-19 -153q0 -21 20 -21q63 0 121 4q6 0 47.5 5
t55.5 5q53 0 53 -34q0 -7 -6 -37q-11 -38 -25.5 -52t-48.5 -14q-9 0 -48.5 3t-47.5 3q-25 2 -98 2q-25 0 -25 -24q2 -293 2 -535q0 -158 23 -209q14 -33 59 -59t45 -47q0 -41 -55 -41h-342q-58 0 -58 39q0 20 43 47q47 28 62 61q24 52 24 209v541q0 18 -20 18h-125
q-25 0 -25 23v72q0 20 23 20h137q18 0 21 21q18 150 96 260q74 102 183 160.5t235 58.5q61 0 129 -19q18 -4 36.5 -8.5t26 -6t8.5 -1.5q7 0 46.5 17.5t54.5 17.5q43 0 43 -53z" />
    <glyph glyph-name="ffi" unicode="ffi" horiz-adv-x="1947" 
d="M1575 1487q47 -41 47 -137q0 -84 -55 -84q-29 0 -74 51q-49 55 -84 72q-47 24 -98 24q-76 0 -135 -53q-91 -91 -91 -309q0 -19 23 -19q77 0 104 2q14 0 62 5t59 5q53 0 53 -34q0 -7 -6 -37q-12 -66 -73 -66q-13 0 -56.5 4t-54.5 4q-34 3 -84 3q-25 0 -25 -25v-535
q0 -166 27 -213q20 -33 62 -61q41 -24 41 -45q0 -39 -58 -39h-340q-57 0 -57 39q0 20 41 47q43 27 59 55q29 60 29 217q0 119 -2 258v283q0 19 -19 19h-419q-27 0 -27 -25v-535q0 -150 25 -208q10 -23 29 -40.5t35 -26t28 -20t12 -24.5q0 -39 -57 -39h-338q-58 0 -58 39
q0 23 45 49q46 27 64 70q20 50 20 200v543q0 17 -20 17h-127q-25 0 -25 22v70q0 22 25 22h127q22 0 22 21q6 112 41 199.5t84 138t111.5 83.5t116.5 44.5t106 11.5q84 0 131 -35q51 -39 51 -141q0 -86 -55 -86q-20 0 -44.5 22t-46 48.5t-57.5 48.5t-77 22q-168 0 -168 -356
q0 -21 20 -21h428q21 0 21 19q15 212 162 344q150 135 364 135q107 0 156 -43zM1745 1038v-680q0 -158 24 -208q17 -36 62 -64q43 -27 43 -47q0 -39 -57 -39h-342q-56 0 -56 39q0 22 43 49q47 27 62 62q24 50 24 208v365q0 135 -20 168q-16 28 -68 43q-49 18 -49 41
q0 35 57 47q115 24 195 59q29 11 39 11q43 0 43 -54z" />
    <glyph glyph-name="ffl" unicode="ffl" horiz-adv-x="1959" 
d="M1755 1477v-1121q0 -155 23 -209q14 -35 59 -63q45 -23 45 -45q0 -39 -55 -39h-336q-57 0 -57 39q0 21 43 45q44 24 61 63q25 58 25 209v918q0 43 -21 67q-58 76 -184 76q-33 0 -66.5 -8.5t-72 -33.5t-67 -63.5t-48 -105.5t-19.5 -153q0 -21 21 -21q63 0 121 4
q6 0 47 5.5t55 5.5q53 0 53 -35q0 -9 -6 -39q-11 -38 -25 -51t-48 -13q-9 0 -49 3t-48 3q-37 3 -98 3q-25 0 -25 -25q2 -295 2 -537q0 -158 23 -209q14 -33 59 -59t45 -47q0 -41 -55 -41h-342q-57 0 -57 39q0 20 43 47q46 27 61 61q25 55 25 209v543q0 19 -21 19h-415
q-27 0 -27 -25v-535q0 -150 25 -208q10 -23 29 -40.5t35 -26t28 -20t12 -24.5q0 -39 -57 -39h-338q-58 0 -58 39q0 23 45 49q46 27 64 70q20 50 20 200v543q0 17 -20 17h-127q-25 0 -25 22v70q0 22 25 22h127q22 0 22 21q6 112 41 199.5t84 138t111.5 83.5t116.5 44.5
t106 11.5q84 0 131 -35q51 -39 51 -141q0 -86 -55 -86q-20 0 -44.5 22t-46 48.5t-57.5 48.5t-77 22q-168 0 -168 -356q0 -21 20 -21h433q17 0 20 19q18 150 96 260q74 102 183 160.5t235 58.5q61 0 129 -19q17 -4 36.5 -8.5t27 -6t8.5 -1.5q7 0 46 17.5t54 17.5q43 0 43 -53
z" />
    <glyph glyph-name="longs_i" unicode="&#x17f;i" 
d="M819 1495q51 -39 51 -141q0 -86 -55 -86q-20 0 -44.5 22t-46 48.5t-57.5 48.5t-77 22q-168 0 -168 -356v-695q0 -152 24 -208q10 -23 29 -40.5t35 -26t28.5 -20t12.5 -24.5q0 -39 -57 -39h-338q-58 0 -58 39q0 23 45 49q46 27 64 70q20 50 20 200v543q0 17 -20 17h-127
q-25 0 -25 22v70q0 22 25 22h127q22 0 22 21q6 112 41 199.5t84 138t111.5 83.5t116.5 44.5t106 11.5q84 0 131 -35zM1067 1038v-680q0 -156 25 -208q18 -37 61 -64t43 -47q0 -39 -57 -39h-342q-56 0 -56 39q0 22 43 49q47 27 62 62q24 50 24 208v365q0 135 -20 168
q-16 28 -68 43q-49 18 -49 41q0 35 58 47q113 24 194 59q29 11 39 11q43 0 43 -54z" />
    <glyph glyph-name="T_h" unicode="Th" horiz-adv-x="2220" 
d="M2030 686v-328q0 -162 24 -208q20 -38 62 -66q43 -24 43 -45q0 -39 -58 -39h-338q-57 0 -57 39q0 12 12 24t27.5 21t35 28t31.5 42q23 51 23 204v324q0 115 -54 183.5t-159 68.5q-104 0 -172 -68q-59 -59 -80 -168q-20 -103 -20 -340q0 -150 20 -200q16 -43 62 -70
q47 -27 47 -49q0 -39 -58 -39h-338q-55 0 -55 39q0 13 14 26t32 23t38 32t29 50q16 53 16 188v859q0 87 -29 110q-28 25 -127 25h-256q-28 0 -28 -27v-969q0 -156 24 -206q17 -38 62 -66q43 -24 43 -45q0 -39 -55 -39h-351q-57 0 -57 39q0 21 41 45q43 27 61 61
q27 53 27 211v969q0 27 -27 27q-158 0 -217 -33q-47 -25 -77.5 -68.5t-41 -80t-28.5 -64t-45 -27.5q-58 0 -58 62q0 4 1 19.5t2 45.5t2 62q0 96 6 149q5 33 23 46.5t61 13.5q17 0 131 -9q117 -6 221 -6h303q274 0 356 15q51 9 107 30q61 23 74 23q45 0 45 -55v-564
q0 -8 6 -8q3 0 10 10q120 179 330 179q173 0 268 -127q66 -97 66 -279z" />
    <glyph glyph-name="T_T" unicode="TT" horiz-adv-x="2160" 
d="M717 1325v-973q0 -149 20 -196q18 -43 64 -70q45 -26 45 -47q0 -39 -64 -39h-338q-63 0 -63 39q0 21 43 45q44 26 65 72t21 196v973q0 27 -27 27q-158 0 -217 -33q-47 -25 -76.5 -68.5t-39.5 -80t-28.5 -64t-47.5 -27.5q-56 0 -56 62q0 15 2.5 71.5t2.5 73.5q0 65 4 131
q6 60 86 60q17 0 131 -9q114 -6 219 -6h1233q107 0 221 6q114 9 131 9q81 0 84 -60q6 -67 6 -135q0 -15 2 -69.5t2 -71.5q0 -62 -57 -62q-24 0 -39 18.5t-26 48t-24.5 61.5t-42.5 65t-71 53q-58 27 -209 27q-26 0 -26 -27v-973q0 -149 20 -196q18 -43 64 -70q45 -26 45 -47
q0 -39 -64 -39h-338q-63 0 -63 39q0 21 43 45q44 26 65 72q21 47 21 196v973q0 27 -27 27h-670q-26 0 -26 -27z" />
    <glyph glyph-name="t_t.smcp" unicode="&#xe061;&#xe061;" horiz-adv-x="1927" 
d="M1249 946h-571q-16 0 -16 -14v-574q0 -152 22 -204q15 -42 61 -68q46 -27 46 -47q0 -39 -58 -39h-338q-55 0 -55 39q0 23 43 47q44 26 63 68q21 44 21 204v574q0 14 -16 14q-121 0 -175 -31q-32 -17 -58.5 -55.5t-41 -72t-36 -57.5t-46.5 -21q-57 0 -57 65q0 14 2 58.5
t2 56.5q0 58 4 112q6 60 82 60q27 0 131 -8q117 -6 231 -6h949q114 0 231 6q104 8 131 8q76 0 82 -60q4 -54 4 -112q0 -12 2 -56.5t2 -58.5q0 -65 -57 -65q-25 -3 -46.5 21t-36 57.5t-41 72t-58.5 55.5q-54 31 -174 31q-17 0 -17 -14v-574q0 -160 21 -204q18 -42 61 -68
q45 -23 45 -47q0 -39 -55 -39h-338q-57 0 -57 39q0 21 45 47q46 26 61 68q23 54 23 204v574q0 14 -17 14z" />
    <glyph glyph-name=".notdef" horiz-adv-x="1300" 
d="M367 82h569l-285 475zM367 1184l284 -473l285 473h-569zM1065 1266v-1266h-829v1266h829zM983 1108l-285 -475l285 -475v950zM317 158l285 475l-285 475v-950z" />
    <glyph glyph-name=".null" horiz-adv-x="0" 
 />
    <glyph glyph-name="nonmarkingreturn" horiz-adv-x="682" 
 />
    <glyph glyph-name="space" unicode=" " horiz-adv-x="452" 
 />
    <glyph glyph-name="exclam" unicode="!" horiz-adv-x="690" 
d="M215 137q0 37 59 99q61 61 101 61t98 -61q62 -59 62 -99q0 -38 -62 -100q-60 -60 -98 -60t-101 60q-59 62 -59 100zM299 657q-3 45 -27 287q-22 255 -22 363q0 101 28 140.5t97 39.5q67 0 97 -39.5t30 -130.5q0 -107 -25 -348q-24 -269 -26 -312q-6 -139 -19 -168
q-16 -31 -57 -34q-16 0 -28 4t-19.5 14.5t-12 20.5t-7 30.5t-3.5 36t-2.5 45.5t-3.5 51z" />
    <glyph glyph-name="quotedbl" unicode="&#x22;" horiz-adv-x="776" 
d="M643 1438q29 -29 29 -119q0 -143 -33 -272q-14 -64 -31 -91.5t-45 -27.5q-47 0 -74 119q-34 142 -34 272q0 91 28 119q26 25 80 25t80 -25zM293 1438q29 -29 29 -119q0 -143 -33 -272q-14 -64 -31 -91.5t-45 -27.5q-47 0 -74 119q-35 146 -35 272q0 90 29 119
q26 25 80 25t80 -25z" />
    <glyph glyph-name="numbersign" unicode="#" horiz-adv-x="1310" 
d="M504 717h217l84 260h-217zM1196 1087l-37 -110h-227l-84 -260h227l-35 -111h-229l-133 -409h-125l133 409h-219l-133 -409h-125l131 409h-225l37 111h225l84 260h-225l36 110h226l129 400h127l-129 -400h217l129 400h127l-129 -400h227z" />
    <glyph glyph-name="dollar" unicode="$" horiz-adv-x="1128" 
d="M338 1196q0 -148 235 -225q53 -16 84 -25.5t83 -29.5t83.5 -39t70 -49t60 -63t36 -78.5t14.5 -98.5q0 -148 -109 -260q-108 -111 -264 -135v-175q0 -18 -19 -18h-59q-18 0 -18 18v166h-19q-126 0 -230.5 39t-140.5 101q-26 45 -32 153q-1 13 -2 28t-1.5 23t-0.5 11
q0 28 14 43.5t35 15.5q18 0 30 -12q13 -8 35 -47l31 -47q69 -99 143 -150t174 -51q115 0 185.5 63t70.5 162q0 164 -235 238q-159 51 -210 74q-173 77 -209 207q-12 40 -11 87q0 128 88 226q89 100 225 127q31 8 60 8v182q0 18 18 18h59q19 0 19 -18v-178q89 -5 164.5 -29.5
t111.5 -62.5q43 -46 43 -172q0 -57 -10 -80t-39 -23q-30 0 -51 33q-36 57 -53 82q-109 154 -244 154q-88 0 -151.5 -54t-63.5 -139z" />
    <glyph glyph-name="percent" unicode="%" horiz-adv-x="1667" 
d="M598 1094q0 135 -44.5 224t-113.5 89q-73 0 -111 -82t-38 -231q0 -134 44 -224t111 -90q152 0 152 314zM766 1094q0 -168 -92 -283q-92 -111 -230 -111q-156 0 -238.5 108t-82.5 286q0 162 90 278q91 113 231 113q151 0 236.5 -106t85.5 -285zM1401 371q0 135 -44.5 224
t-113.5 89q-73 0 -111 -82t-38 -231q0 -134 44 -224t111 -90q152 0 152 314zM1569 371q0 -168 -92 -283q-91 -111 -230 -111q-156 0 -238.5 108t-82.5 286q0 162 90 278q91 113 231 113q151 0 236.5 -106t85.5 -285zM469 0h-125l893 1462h125z" />
    <glyph glyph-name="ampersand" unicode="&#x26;" horiz-adv-x="1454" 
d="M940 203q6 6 6 10q0 2 -6 8q-61 52 -182 144q-136 105 -213 170.5t-129 126.5q-6 6 -8 6q-5 0 -9 -4q-96 -84 -96 -218q0 -144 100 -247q102 -105 263 -105q159 0 274 109zM989 825h328q53 0 53 -39q0 -13 -6 -20t-23 -16t-24 -13q-60 -38 -86 -119l-25 -88
q-30 -125 -69 -200q-1 -3 -3 -6l-1 -5q0 -4 8 -12q65 -55 110 -131t45 -147q0 -29 -30 -29h-131q-29 0 -35 27q-15 58 -72 118q-5 5 -6 5q-3 0 -8 -5q-162 -168 -416 -168q-201 0 -350 113q-150 114 -150 303q0 118 68 214t182 132q6 3 6 9q0 4 -2 6q-57 99 -57 200
q0 131 92 234q90 100 270 100q162 0 222 -78q28 -39 28 -129q0 -70 -11.5 -97.5t-45.5 -27.5q-33 0 -51 31l-43 80q-64 113 -154 113q-66 0 -107.5 -48.5t-41.5 -123.5q0 -73 53 -150q54 -79 108 -127q45 -38 150 -119l270 -213q15 -12 19 -12q6 0 12 16q31 79 31 152
q0 112 -82 164q-1 1 -32 16t-43 26.5t-7 24.5q0 39 57 39z" />
    <glyph glyph-name="quotesingle" unicode="'" horiz-adv-x="425" 
d="M293 1438q29 -29 29 -119q0 -143 -33 -272q-14 -64 -31 -91.5t-45 -27.5q-47 0 -74 119q-35 146 -35 272q0 90 29 119q26 25 80 25t80 -25z" />
    <glyph glyph-name="parenleft" unicode="(" horiz-adv-x="757" 
d="M707 -287q0 -32 -48 -32q-55 0 -147 63q-97 63 -184 172q-244 300 -244 688q0 390 244 690q86 105 184 172q94 64 147 64q48 0 48 -33q0 -26 -41 -47q-137 -92 -226 -238q-147 -243 -147 -608q0 -363 147 -606q88 -147 226 -240q41 -21 41 -45z" />
    <glyph glyph-name="parenright" unicode=")" horiz-adv-x="757" 
d="M51 1497q0 33 47 33q52 0 146 -64q102 -66 186 -172q244 -300 244 -688q0 -390 -244 -690q-84 -102 -186 -172q-92 -63 -146 -63q-47 0 -47 32q0 26 41 47q135 91 225 238q148 245 148 608q0 361 -148 606q-89 148 -225 240q-41 21 -41 45z" />
    <glyph glyph-name="asterisk" unicode="*" horiz-adv-x="907" 
d="M393 1280q-3 10 -12.5 40t-15.5 49.5t-11.5 44.5t-5.5 40q0 76 96 76q54 0 75.5 -17t21.5 -59q0 -15 -5.5 -40t-11.5 -44.5t-15.5 -49.5t-12.5 -40q-8 -35 -12 -48.5t-14 -26.5t-26 -13q-19 0 -28.5 17.5t-22.5 70.5zM535 1137q-52 0 -52 32q0 17 20 35.5t50 32.5l43 31
q54 41 94 57q57 24 84 0q20 -18 33 -61q10 -42 10 -52q0 -71 -143 -71q-21 0 -74 -2t-65 -2zM481 1010q-22 71 -22 75q0 13 10.5 23t22.5 10q16 0 75 -47q8 -6 34 -24.5t48 -35.5t31 -28q44 -47 43 -76t-51 -67q-42 -31 -68 -31q-42 0 -72 65q-12 20 -30 74q-4 16 -9 29.5
t-8.5 22.5t-3.5 10zM354 1137q-12 0 -65 2t-74 2q-143 0 -143 71q0 14 10 52q6 19 10 28.5t11.5 22t19 17.5t27.5 5q41 0 94 -34q13 -9 49 -35t43 -31q60 -40 67 -57q3 -3 3 -11q0 -32 -52 -32zM410 1010l-23 -62q-13 -46 -29 -74q-30 -65 -71 -65q-26 0 -68 31
q-50 38 -51 67t43 76q9 11 31 28t48 35.5t34 24.5q59 47 75 47q12 0 22.5 -10t10.5 -23q0 -4 -22 -75z" />
    <glyph glyph-name="plus" unicode="+" horiz-adv-x="1413" 
d="M1241 766v-68q0 -24 -24 -24h-439q-12 0 -12 -10v-443q0 -24 -23 -24h-75q-23 0 -23 24v443q0 10 -12 10h-438q-23 0 -23 24v68q0 22 23 22h438q12 0 12 13v442q0 23 23 23h75q23 0 23 -23v-442q0 -13 12 -13h439q24 0 24 -22z" />
    <glyph glyph-name="comma" unicode="," horiz-adv-x="530" 
d="M360 207q66 -72 66 -160q0 -131 -107 -268q-34 -43 -86 -86q-51 -45 -88 -45q-15 0 -28 11.5t-13 27.5q0 13 11 24q1 1 18 15t38.5 34t37.5 41q43 58 43 109q0 45 -70 115q-65 65 -65 102q0 35 55 90t90 55q39 0 98 -65z" />
    <glyph glyph-name="hyphen" unicode="-" horiz-adv-x="677" 
d="M84 502v116q0 23 22 23h465q23 0 23 -23v-116q0 -23 -23 -23h-465q-22 0 -22 23z" />
    <glyph glyph-name="period" unicode="." horiz-adv-x="522" 
d="M420 135q0 -35 -60 -98q-60 -60 -98 -60q-37 0 -100 60q-60 63 -60 98q0 38 60 98q62 62 100 62q39 0 98 -62q60 -60 60 -98z" />
    <glyph glyph-name="slash" unicode="/" horiz-adv-x="1003" 
d="M45 -197h-125l1057 1727h125z" />
    <glyph glyph-name="zero" unicode="0" horiz-adv-x="1458" 
d="M1104 725q0 282 -109 471q-107 186 -266 186q-177 0 -276 -172q-97 -177 -97 -462q0 -290 105 -478q107 -186 272 -186q171 0 271 166.5t100 474.5zM1327 750q0 -337 -176 -555t-438 -218q-284 0 -434 209q-148 210 -148 525q0 325 176 551q178 225 445 225
q263 0 419 -203q156 -200 156 -534z" />
    <glyph glyph-name="one" unicode="1" horiz-adv-x="778" 
d="M547 1434v-1401q0 -33 -35 -33h-133q-37 0 -37 33v1114q0 114 -14 139q-16 29 -76 29q-43 0 -78 -2t-76 -2q-55 0 -55 51q0 50 39 53l84 8q116 13 227 41q90 23 103 23q51 0 51 -53z" />
    <glyph glyph-name="two" unicode="2" horiz-adv-x="1177" 
d="M209 1374q54 47 151.5 80t208.5 33q206 0 340 -113q138 -114 138 -289q0 -170 -142 -303q-82 -76 -293 -192q-214 -120 -293 -211q-71 -83 -71 -154q0 -37 41 -37h411q180 0 224 15q29 10 55 49t51 39q35 0 35 -43q0 -18 -12 -107q-3 -7 -6 -39q-1 -24 -13 -61
q-3 -12 -6 -17t-11.5 -11t-12.5 -9q-19 -12 -74 -12q-10 0 -146 4q-132 4 -159 4h-420q-55 0 -75.5 24.5t-20.5 92.5q0 223 206 411q67 61 199 160q128 96 188 156q127 121 127 264q0 114 -71 193t-185 79q-162 0 -264 -176q-3 -5 -19 -36t-22 -40q-24 -53 -63 -53
q-55 0 -55 117q0 129 59 182z" />
    <glyph glyph-name="three" unicode="3" horiz-adv-x="1202" 
d="M735 768q146 -15 250 -111q102 -91 102 -239q0 -176 -145 -309q-144 -132 -407 -132q-139 0 -249.5 40t-150.5 110q-35 59 -35 197q0 56 13 79t47 23q29 0 43 -14q10 -8 23.5 -32t29 -57t20.5 -42q121 -195 304 -195q127 0 204 92q80 95 80 236q0 143 -87 223t-245 80
q-29 0 -77.5 -4t-51.5 -4q-55 0 -55 61v23q0 47 49 47q3 0 28.5 -3t61.5 -5.5t64 -2.5q124 2 197 78.5t73 206.5q0 118 -67.5 193t-182.5 75q-112 0 -196 -84q-46 -50 -115 -178q-30 -49 -61 -49q-56 0 -56 131q0 132 74 191q49 40 145 67t205 27q217 0 344 -109t127 -262
q0 -119 -79 -208.5t-228 -123.5q-14 -2 -14 -8.5t18 -7.5z" />
    <glyph glyph-name="four" unicode="4" horiz-adv-x="1269" 
d="M944 528h191q17 0 24.5 -7.5t7.5 -24.5v-97q0 -17 -7.5 -24.5t-24.5 -7.5h-191q-22 0 -22 -23q3 -153 28 -201q17 -39 66 -61q37 -18 37 -43q0 -39 -58 -39h-342q-57 0 -57 39q0 25 37 43q47 21 65 61q26 50 29 201q0 14 -4.5 18.5t-17.5 4.5h-580q-31 0 -31 30v62
q0 21 17 45q195 245 287.5 474.5t103.5 483.5q0 25 26 25h129q27 0 27 -19q0 -10 -2 -24q-40 -406 -406 -895q-8 -8 -8 -14q0 -7 11 -7h428q20 0 20 21v680q0 31 29 31h135q31 0 31 -31v-680q0 -21 22 -21z" />
    <glyph glyph-name="five" unicode="5" horiz-adv-x="1161" 
d="M920 770q131 -131 131 -317q0 -198 -144 -336q-146 -140 -385 -140q-125 0 -228.5 38t-146.5 104q-41 62 -41 196q0 63 14 89t50 26q30 0 45 -18q19 -22 41 -74q26 -54 47 -88q102 -164 289 -164q130 0 211 84q82 85 82 213q0 134 -97 231q-174 174 -589 174h-13
q-18 0 -18 15q0 8 2 14l127 629q3 16 20 16h314q181 0 227 15q16 5 49 37t47 32q39 0 39 -43q0 -3 -10 -80q-3 -17 -5.5 -39.5t-4.5 -34t-5 -24.5t-8.5 -20.5t-13.5 -12.5q-17 -14 -86 -14h-483q-14 0 -17 -12l-55 -275l-2 -14q0 -12 12 -12q413 0 605 -195z" />
    <glyph glyph-name="six" unicode="6" horiz-adv-x="1257" 
d="M365 469q0 -182 77.5 -285.5t208.5 -103.5q133 0 214 104t81 271q0 188 -79 293.5t-212 105.5q-132 0 -211 -101t-79 -284zM1057 1257q0 -76 -14.5 -108.5t-49.5 -32.5q-33 0 -55 35q-35 79 -39 86q-78 152 -221 152q-141 0 -236 -164t-98 -471q0 -17 6 -17q1 0 10 15
q55 112 152 171.5t221 59.5q180 0 297 -129q119 -125 119 -332q0 -226 -141 -385q-139 -160 -361 -160q-229 0 -373 187q-143 186 -143 508q0 92 14.5 185t43.5 185.5t78 171.5t112.5 141t152.5 97t193 35q100 0 186.5 -32.5t118.5 -76.5q27 -38 27 -121z" />
    <glyph glyph-name="seven" unicode="7" horiz-adv-x="1120" 
d="M1042 1434q2 -10 2 -48q0 -161 -53 -270q-54 -112 -170 -242l-129 -153q-35 -42 -117 -156q-139 -193 -139 -348q0 -44 14 -76.5t31 -47t31 -29t14 -25.5q0 -39 -53 -39h-186q-43 0 -58.5 20.5t-15.5 75.5q0 162 121 357q6 11 53 79q49 68 121 156l61 72q1 2 72 84l68 74
q152 169 186 286q10 42 10 58t-22 16h-434q-159 0 -211 -10q-45 -10 -70 -45q-23 -29 -43 -29q-37 0 -37 43q0 17 8 80q15 112 37 131q14 14 88 14h785q33 0 36 -28z" />
    <glyph glyph-name="eight" unicode="8" horiz-adv-x="1292" 
d="M895 1116q0 120 -64.5 193t-179.5 73q-113 0 -183.5 -73t-70.5 -195q0 -134 80 -205q79 -67 176 -67q102 0 172 76.5t70 197.5zM338 383q0 -126 86 -215q88 -88 223 -88q123 0 215 86t92 235t-94 234q-94 88 -209 88t-215 -92q-98 -88 -98 -248zM1114 1143
q0 -117 -73.5 -203t-198.5 -123q-15 -4 -20.5 -10t0 -12t20.5 -9q148 -37 242 -136t94 -242q0 -183 -152 -308q-150 -123 -385 -123q-228 0 -377 113q-147 114 -147 289q0 143 90.5 237.5t243.5 126.5q20 3 20 17q0 8 -16 14q-115 35 -197 123t-82 213q0 159 133 268
q136 109 340 109q203 0 334 -94q131 -91 131 -250z" />
    <glyph glyph-name="nine" unicode="9" horiz-adv-x="1267" 
d="M899 989q0 184 -78.5 290.5t-210.5 106.5t-213 -106q-82 -104 -82 -270q-2 -74 14.5 -143t50.5 -127t93 -93.5t135 -36.5q132 0 211.5 102t79.5 277zM170 274q0 97 61 97q35 0 56 -37q5 -8 23.5 -41t25.5 -45q99 -164 246 -164q321 0 336 637q0 6 -5 6q-3 0 -6 -8
q-53 -115 -151.5 -177.5t-218.5 -62.5q-185 0 -304 131q-118 130 -118 334q0 223 139 383t364 160q240 0 379 -189q140 -190 140 -516q0 -297 -127 -534q-64 -126 -187 -198.5t-284 -72.5q-110 0 -201 29t-127 78q-41 56 -41 190z" />
    <glyph glyph-name="colon" unicode=":" horiz-adv-x="729" 
d="M518 911q0 -38 -59 -100q-59 -59 -99 -59q-38 0 -100 59q-59 62 -59 100t59 97q61 61 100 61q41 0 99 -61q59 -59 59 -97zM518 135q0 -36 -59 -98q-60 -60 -99 -60q-37 0 -100 60q-59 62 -59 98q0 39 59 98q62 62 100 62q40 0 99 -62q59 -59 59 -98z" />
    <glyph glyph-name="semicolon" unicode=";" horiz-adv-x="741" 
d="M530 909q0 -37 -61 -98q-59 -59 -98 -59q-40 0 -99 59q-59 62 -59 98q0 40 59 99q58 61 99 61q40 0 98 -61q61 -58 61 -99zM459 207q65 -71 65 -160q0 -133 -106 -268q-34 -43 -86 -86q-51 -45 -88 -45q-15 0 -28 11.5t-13 27.5q0 14 10 24q1 1 18 15t38.5 34t37.5 41
q43 58 43 109q0 46 -69 115q-66 66 -66 102q0 35 55 90t90 55q40 0 99 -65z" />
    <glyph glyph-name="less" unicode="&#x3c;" horiz-adv-x="1507" 
d="M436 651l828 -360q22 -9 22 -35v-106q0 -17 -14 -17q-6 0 -21 6l-1018 449q-22 9 -22 35v84q0 25 22 34l1018 447q15 6 21 6q14 0 14 -16v-107q0 -26 -22 -35l-842 -366q-12 -4 2 -13q5 -3 12 -6z" />
    <glyph glyph-name="equal" unicode="=" horiz-adv-x="1507" 
d="M219 879v69q0 23 25 23h1022q22 0 22 -23v-69q0 -23 -22 -23h-1022q-25 0 -25 23zM219 516v68q0 24 25 24h1022q22 0 22 -24v-68q0 -22 -22 -22h-1022q-25 0 -25 22z" />
    <glyph glyph-name="greater" unicode="&#x3e;" horiz-adv-x="1507" 
d="M1071 676l-827 360q-23 10 -23 35v107q0 16 15 16q5 0 20 -6l1018 -449q22 -9 22 -34v-84q0 -26 -22 -35l-1018 -447q-15 -6 -20 -6q-15 0 -15 17v106q0 25 23 35l841 366q12 4 -2 13q-5 3 -12 6z" />
    <glyph glyph-name="question" unicode="?" horiz-adv-x="1036" 
d="M950 1112q0 -83 -27 -150t-70.5 -110.5t-96 -78.5t-104.5 -62.5t-95.5 -53.5t-70.5 -60t-27 -75q0 -27 13 -41.5t29 -18t29 -13.5t13 -29q0 -47 -101 -47q-70 0 -106.5 33t-36.5 90q0 106 154 221q117 91 162 137q118 123 118 258q0 118 -64.5 193t-174.5 75
q-99 0 -158 -59q-55 -58 -55 -125q0 -36 12.5 -57t30.5 -29t36 -13.5t30.5 -17t12.5 -32.5q0 -34 -39 -63.5t-92 -29.5q-74 0 -121 54t-47 137q0 130 111 235q113 107 301 107q203 0 318 -109q116 -107 116 -266zM436 -23q-38 0 -100 62q-60 63 -60 98q0 36 60 96
q62 62 100 62q37 0 96 -62q62 -59 62 -96q0 -38 -62 -100q-60 -60 -96 -60z" />
    <glyph glyph-name="at" unicode="@" horiz-adv-x="2174" 
d="M1137 434q75 109 120 221q48 118 48 166t-66 86q-64 37 -123 37t-106 -47q-87 -87 -146 -252q-57 -159 -57 -297q0 -147 78 -147q89 0 252 233zM1790 1163q190 -230 190 -532q0 -236 -125 -416q-123 -178 -319 -178q-142 0 -224.5 95t-82.5 255v12q0 8 -4 8t-8 -10
q-86 -155 -213 -260q-101 -82 -199 -82q-89 0 -142 68.5t-53 189.5q0 224 144 455q170 268 383 268q71 0 151 -30q89 -29 101 -29q26 0 55 29q30 30 49 30q35 0 35 -39q0 -24 -8 -55l-31 -141l-47 -221q-31 -158 -31 -244q0 -197 148 -197q133 0 235 166q88 146 88 352
q0 277 -176 471q-112 123 -266 189.5t-324 66.5q-343 0 -584 -247t-241 -598t241 -598q242 -248 584 -248q188 0 356 82.5t287 232.5q15 21 39 21q19 0 31 -13t12 -28q0 -17 -12 -35q-125 -162 -314 -255t-399 -93q-384 0 -653 272q-270 270 -270 662q0 390 270 663t653 273
q194 0 372.5 -82.5t301.5 -229.5z" />
    <glyph glyph-name="A" unicode="A" horiz-adv-x="1490" 
d="M711 1184l-242 -568q-4 -12 -4 -14q0 -12 14 -12h463q12 0 12 10q0 2 -4 14l-217 568q-6 16 -12 16q-4 0 -10 -14zM1391 113q18 -18 41.5 -30.5t35 -21.5t11.5 -24q0 -37 -58 -37h-340q-51 0 -51 37q0 22 43 43t43 63q0 40 -37 138l-69 180q-9 22 -39 22h-537
q-19 0 -28 -18q-89 -213 -89 -289q0 -35 15 -58.5t32.5 -32.5t32.5 -20.5t15 -25.5q0 -39 -60 -39h-284q-62 0 -62 35q0 15 18.5 29t52.5 42t60 68q38 56 82 156l502 1128q9 21 31 21h65q22 0 31 -21l446 -1165q51 -134 97 -180z" />
    <glyph glyph-name="B" unicode="B" horiz-adv-x="1323" 
d="M1231 420q0 -119 -57.5 -206t-159.5 -132q-188 -82 -436 -82h-422q-60 0 -60 39q0 12 11.5 23t27 20t34 27.5t28.5 42.5q20 47 20 200v826q0 102 -8 133q-10 37 -43 57q-11 9 -30 17t-27.5 16t-8.5 24q0 37 56 37h450q159 0 268 -16q100 -15 183 -76q114 -86 114 -233
q0 -132 -87 -221.5t-232 -114.5q-14 -2 -14 -12q0 -11 18 -13h2q169 -21 271 -112.5t102 -243.5zM424 698v-354q0 -185 18 -209q21 -24 105 -24h57q404 0 404 317q0 295 -412 295h-147q-25 0 -25 -25zM457 831h114q175 0 276 67.5t101 203.5q0 65 -22.5 114.5t-59.5 77.5
q-33 26 -86 41q-34 11 -68 16t-57 6t-71 1h-123q-37 0 -37 -39v-457q0 -31 33 -31z" />
    <glyph glyph-name="C" unicode="C" horiz-adv-x="1398" 
d="M823 92q194 0 320 187q11 16 53 83q8 14 23 25.5t28 11.5q58 0 58 -88q0 -172 -80 -237q-129 -97 -387 -97q-345 0 -551 218q-203 218 -203 532q0 337 223 547q227 213 543 213q117 0 235 -31q114 -27 158 -80q37 -40 37 -184q0 -59 -12 -85t-43 -26q-26 0 -45 19
q-11 13 -41 67t-47 76q-105 135 -285 135q-208 0 -352 -172t-144 -458q0 -309 152 -484q153 -172 360 -172z" />
    <glyph glyph-name="D" unicode="D" horiz-adv-x="1546" 
d="M1075 270q162 162 162 461q0 184 -72 340q-71 155 -227 225q-85 40 -186 52q-102 12 -277 12q-45 0 -45 -43v-1018q0 -89 5 -120t24 -48q28 -22 116 -22h46q293 0 454 161zM1206 1292q119 -89 186.5 -229t67.5 -318q0 -291 -203 -512q-102 -108 -274 -170.5t-385 -62.5
h-436q-66 0 -66 39q0 22 41 43q41 22 60 57q28 51 28 213v826q0 97 -10 135q-10 37 -45 57q-7 4 -26 13.5t-27 18t-8 23.5q0 37 55 37h356q272 0 420 -43q149 -42 266 -127z" />
    <glyph glyph-name="E" unicode="E" horiz-adv-x="1286" 
d="M1149 401q25 0 41 -16t16 -41q0 -18 -16 -80q-11 -32 -19 -86q-5 -35 -20 -96q-8 -39 -39.5 -68.5t-75.5 -29.5q-22 0 -118 8t-226 8h-532q-64 0 -64 39q0 21 43 45q46 27 64 70q22 55 22 198v824q0 97 -10 135q-9 40 -47 59l-13 6q-13 6 -19.5 10t-16.5 11t-13 14t0 14
q0 37 56 37h532q113 0 230 6q120 9 131 9q79 0 82 -58q10 -170 10 -280q0 -60 -60 -60q-37 0 -59 60l-12 28q-9 28 -27 60q-13 27 -28 43t-46 39q-76 49 -360 49h-80q-45 0 -45 -43v-447q0 -27 9 -36t38 -9q91 0 201 4l108 9q68 8 107 8q74 0 74 -41q0 -7 -3 -21.5t-3 -21.5
q-4 -38 -24.5 -51t-76.5 -13q-4 0 -94 4q-16 1 -38 2t-37 2t-25 1q-43 2 -209 2q-27 0 -27 -27v-356q0 -104 5.5 -139.5t27.5 -51.5q35 -27 149 -27q214 0 306 56q39 21 76 65t59 82.5t48 66.5t48 25z" />
    <glyph glyph-name="F" unicode="F" horiz-adv-x="1208" 
d="M1145 1135q0 -56 -55 -56q-34 0 -62 60q-4 9 -16 38t-19 40q-17 50 -78 92q-45 31 -121.5 40t-240.5 9h-80q-43 0 -43 -43v-502q0 -29 10 -39t37 -10q109 0 203 4l113 8q77 6 98 6q76 0 76 -41q0 -9 -6 -39q-6 -40 -26.5 -53.5t-72.5 -13.5q-16 0 -110 4q-70 6 -105 6
q-43 2 -190 2q-27 0 -27 -26v-269q0 -157 25 -209q18 -35 59 -59q43 -21 43 -45q0 -39 -63 -39h-334q-64 0 -64 39q0 21 45 47q47 27 64 72q18 44 18 194v826q0 97 -10 135q-10 37 -45 57q-7 5 -26.5 14t-27.5 17.5t-8 23.5q0 37 56 37h530q115 0 232 6q117 9 131 9
q79 0 82 -58q8 -109 8 -284z" />
    <glyph glyph-name="G" unicode="G" horiz-adv-x="1492" 
d="M977 696h369q57 0 57 -34q4 -11 -5 -20.5t-33.5 -22.5t-27.5 -15q-35 -23 -44 -63t-9 -158v-205q0 -53 -37 -80q-67 -49 -179.5 -85t-238.5 -36q-336 0 -542 218q-203 218 -203 530q0 325 215 543q216 219 547 219q211 0 340 -66q55 -30 73.5 -78.5t18.5 -150.5
q0 -113 -55 -113q-12 0 -26 11t-32.5 38.5t-29 44t-33.5 56.5q-34 61 -112.5 105t-180.5 44q-230 0 -365 -176t-135 -428q0 -283 152 -485q153 -199 397 -199q103 0 176 31q45 17 45 67v195q0 122 -14 160q-13 42 -70 63q-4 2 -14.5 5t-15.5 5t-13.5 5.5t-13 6.5t-9.5 8
t-7 10.5t-2 12.5q0 37 57 37z" />
    <glyph glyph-name="H" unicode="H" horiz-adv-x="1587" 
d="M1362 1149v-797q0 -140 18 -190q10 -29 30 -49t37.5 -27.5t30.5 -19t13 -27.5q0 -39 -64 -39h-335q-64 0 -64 39q0 12 12 23t28 20t35.5 27.5t31.5 42.5q22 52 22 200v346q0 23 -24 23h-682q-19 0 -19 -19v-350q0 -161 25 -209q18 -38 59 -59q43 -21 43 -45
q0 -39 -63 -39h-334q-66 0 -66 39q0 22 45 45q46 26 64 74q20 47 20 194v797q0 122 -8 158q-9 43 -43 63q-8 5 -24 12.5t-22.5 11.5t-12.5 12.5t-6 20.5q0 35 55 35h330q55 0 55 -35q4 -11 -5.5 -20.5t-33 -22t-27.5 -14.5q-32 -23 -41.5 -64t-9.5 -157v-299q0 -23 25 -23
h682q18 0 18 19v303q0 113 -10 158q-9 43 -43 63q-10 7 -29 16t-27 17t-8 24q0 35 56 35h327q55 0 58 -35q4 -11 -5.5 -20.5t-33 -22t-27.5 -14.5q-35 -23 -44 -63t-9 -158z" />
    <glyph glyph-name="I" unicode="I" horiz-adv-x="655" 
d="M430 1149v-797q0 -146 21 -196q18 -44 63 -70t45 -47q0 -39 -63 -39h-336q-64 0 -64 39q0 21 43 45q45 26 66 72q20 44 20 196v797q0 111 -10 156q-9 42 -43 65q-7 4 -29.5 14.5t-29.5 19t-7 23.5q0 35 58 35h328q55 0 55 -35q0 -8 -3 -14.5t-11 -12.5t-13.5 -9.5
t-18.5 -10.5t-18 -10q-36 -25 -45 -65q-8 -36 -8 -156z" />
    <glyph glyph-name="J" unicode="J" horiz-adv-x="942" 
d="M66 20q-54 48 -54 187q0 92 56 92q23 0 42.5 -20t37 -48.5t38 -56.5t54.5 -48t77 -20q71 0 127 56q43 47 60.5 122t17.5 214v606q0 172 -24 219q-20 38 -66 59q-37 18 -37 43q0 37 58 37h342q55 0 55 -37q0 -28 -37 -43q-44 -20 -63 -59q-25 -55 -25 -219v-221
q2 -117 2 -256q-2 -157 -21 -256.5t-65 -175.5q-63 -100 -174 -159t-238 -59q-111 0 -163 43z" />
    <glyph glyph-name="K" unicode="K" horiz-adv-x="1486" 
d="M1438 39q0 -39 -54 -39h-139q-83 0 -129 37q-42 36 -272 362q-139 196 -182 246q-41 47 -64 47q-18 0 -59 -35l-86 -82q-23 -23 -23 -45v-178q0 -149 21 -198q18 -43 61 -70q45 -23 45 -45q0 -39 -63 -39h-334q-64 0 -64 39q0 21 45 47q48 28 62 66q20 41 20 200v797
q0 122 -8 158q-9 43 -43 63q-9 5 -24.5 12.5t-22.5 11.5t-13 12.5t-6 20.5q0 35 56 35h330q55 0 55 -35q2 -7 -1 -13.5t-11.5 -13t-16 -11t-19.5 -10.5l-18 -9q-34 -20 -43 -63q-8 -36 -8 -158v-430q0 -8 6 -8q5 0 13 8l442 428q135 135 135 184q0 31 -31 53q-30 21 -30 41
q0 37 61 37h344q53 0 53 -37q0 -14 -10 -23t-38.5 -20.5t-35.5 -15.5q-125 -58 -331 -258l-291 -277q-8 -8 -8 -12q0 -12 12 -12q2 0 15.5 4t21.5 4q37 0 82 -57q51 -64 151 -207q14 -23 45 -66q148 -215 226 -299q77 -83 124 -102q52 -21 52 -45z" />
    <glyph glyph-name="L" unicode="L" horiz-adv-x="1153" 
d="M1083 401q58 0 58 -55q0 -14 -17 -80q-14 -55 -20 -94q-8 -52 -19 -94q-8 -38 -37 -66t-71 -28q-27 0 -123 8t-227 8h-467q-64 0 -64 39q0 20 43 47q45 26 66 70q20 44 20 196v797q0 110 -10 158q-9 42 -43 63q-11 9 -30 17t-27.5 16t-8.5 24q0 35 58 35h328q57 0 57 -35
q0 -16 -8.5 -24t-27.5 -16t-30 -17q-37 -22 -45 -63q-8 -36 -8 -158v-856q0 -83 6.5 -115.5t28.5 -50.5q24 -21 133 -21q110 0 193 29.5t124 75.5q28 31 60.5 83.5t56 79.5t51.5 27z" />
    <glyph glyph-name="M" unicode="M" horiz-adv-x="1814" 
d="M1589 1149v-797q0 -161 25 -209q12 -23 31.5 -39t34.5 -23t26.5 -17.5t11.5 -24.5q0 -39 -65 -39h-334q-64 0 -64 39q0 21 45 47q47 27 62 68q20 53 20 198v883q0 10 -8 10q-5 0 -14 -18l-432 -961q-12 -28 -41 -28h-49q-29 0 -41 28l-439 973q-3 6 -8 6q-8 0 -8 -10
q0 -794 6 -893q6 -112 39 -168t98 -84q52 -21 52 -51q0 -39 -60 -39h-334q-63 0 -63 39q0 14 11.5 25.5t31 25t29.5 25.5q40 43 55 125q17 78 20 270q2 111 2 778q0 34 -13 49t-52 29q-68 24 -68 57q0 39 60 39h274q51 0 66 -37l403 -890q9 -19 12 -19q7 0 13 14l405 895
q15 37 57 37h265q55 0 55 -35q4 -11 -6 -21t-32.5 -21t-27.5 -15q-34 -20 -43 -63q-8 -36 -8 -158z" />
    <glyph glyph-name="N" unicode="N" horiz-adv-x="1595" 
d="M1133 1462h323q66 0 66 -39q0 -9 -3 -16t-11 -12.5t-12.5 -8t-17.5 -8t-16 -6.5q-51 -25 -74 -74t-30 -170q-8 -123 -8 -1118q0 -26 -29 -26h-82q-25 0 -41 22l-807 1133q-9 12 -14 12q-8 0 -8 -10q0 -684 8 -801q6 -113 38 -167.5t99 -82.5q51 -20 51 -51q0 -39 -59 -39
h-367q-61 0 -61 39q0 29 75 58q5 2 7 3q33 15 59.5 78.5t30.5 161.5q8 177 8 948q0 17 -12 29q-30 30 -60 43q-3 1 -37.5 13.5t-48.5 23t-10 24.5q0 41 64 41h215q48 0 69 -30l781 -1092q11 -14 14 -14q8 0 8 10q0 663 -6 792q-6 117 -30.5 168t-76.5 72q-1 0 -8 3
t-15.5 6.5t-10.5 4.5q-3 3 -12 9t-13 12.5t-4 17.5q0 41 68 41z" />
    <glyph glyph-name="O" unicode="O" horiz-adv-x="1636" 
d="M805 1380q-231 0 -363 -178q-129 -176 -129 -426q0 -292 144 -491q144 -197 374 -197q222 0 357 170t135 442q0 97 -20 192.5t-63 183.5t-103 155.5t-146 108t-186 40.5zM1550 743q0 -308 -207 -538q-205 -228 -526 -228q-333 0 -534 201q-197 203 -197 533
q0 317 203 546q205 230 530 230q335 0 533 -207q198 -204 198 -537z" />
    <glyph glyph-name="P" unicode="P" horiz-adv-x="1224" 
d="M463 719h88q204 5 309 79t105 244q-7 170 -108.5 244.5t-293.5 69.5h-94q-39 0 -39 -39v-569q0 -29 33 -29zM1137 856q-138 -246 -559 -246h-125q-23 0 -23 -26v-226q0 -153 23 -204q12 -23 31.5 -42t35 -28t27.5 -21t12 -24q0 -39 -57 -39h-348q-58 0 -58 39q0 23 45 49
q46 27 62 66q22 58 22 204v818q0 97 -10 135q-9 40 -47 59l-25 12q-22 10 -28 19t-6 24q0 37 55 37h371q119 0 217 -4q77 -3 170 -37q96 -29 159 -92q105 -108 105 -270q0 -115 -49 -203z" />
    <glyph glyph-name="Q" unicode="Q" horiz-adv-x="1648" 
d="M313 774q0 -284 140 -489q142 -201 378 -201q230 0 361 174q133 177 133 432q0 291 -145 492q-143 198 -373 198q-231 0 -363 -176q-131 -174 -131 -430zM1552 741q0 -252 -139 -456q-141 -205 -360 -273q29 -14 159 -98q127 -85 203 -111q30 -10 88 -10q43 0 43 -37
q0 -22 -28 -41l-123 -71q-37 -21 -74 -21q-41 0 -88 31q-31 17 -45 29l-103 75l-79 64q-53 41 -103 76q-37 27 -95 53.5t-99 30.5q-288 34 -457 227q-166 196 -166 496q0 318 203 550q206 232 530 232q340 0 537 -209q196 -205 196 -537z" />
    <glyph glyph-name="R" unicode="R" horiz-adv-x="1402" 
d="M463 803h125q106 0 185 28.5t127 95t48 165.5q0 148 -83.5 206t-268.5 58h-125q-41 0 -41 -35v-490q0 -28 33 -28zM1317 86q6 -6 19 -13t20.5 -14.5t7.5 -21.5q0 -37 -51 -37h-137q-45 0 -72 17t-53 57q-28 50 -39 78l-56 135l-49 127q-56 129 -115 193.5t-147 82.5
q-31 8 -110 8q-46 0 -82 -4q-23 -3 -23 -26v-310q0 -154 29 -217q10 -20 28.5 -35t33.5 -23t26.5 -19t11.5 -25q0 -39 -57 -39h-350q-56 0 -56 39q0 18 41 45q43 27 60 57q28 54 28 217v805q0 115 -8 148q-9 38 -49 59l-13 6q-13 6 -19.5 10t-16.5 11t-13 14t0 14
q0 37 56 37h182h158q72 2 157 2q293 0 406 -98q109 -92 109 -248q0 -91 -33 -153q-81 -164 -301 -199q-11 -1 -15.5 -6.5t0 -11.5t15.5 -7q105 -15 164 -86q63 -76 133 -243q78 -185 110 -242q35 -63 70 -84z" />
    <glyph glyph-name="S" unicode="S" horiz-adv-x="1196" 
d="M983 1380q55 -61 55 -194q0 -117 -57 -117q-30 0 -51 29q-5 11 -43 71q-28 44 -49 68q-13 18 -58 63q-80 80 -200 80q-118 0 -187 -69t-69 -160q0 -177 272 -266q75 -23 225 -76q124 -44 199.5 -135.5t75.5 -224.5q0 -178 -148 -326q-146 -146 -407 -146q-143 0 -262 43
q-120 47 -160 119q-34 58 -37 135q0 8 -3 54t-3 61q0 60 51 60q22 0 39 -17q10 -8 27 -33t38.5 -59.5t34.5 -52.5q151 -195 334 -195q148 0 227 82q82 82 82 188q0 97 -57 160q-22 25 -48.5 45t-64.5 37.5t-63 27t-78.5 27t-75.5 25.5q-112 42 -184 74q-91 39 -146 118.5
t-55 190.5q0 171 139 295q137 125 365 125q110 0 205 -29t137 -78z" />
    <glyph glyph-name="T" unicode="T" horiz-adv-x="1230" 
d="M1202 1417q6 -61 6 -155q4 -102 4 -121q0 -62 -57 -62q-48 0 -74 92q-12 41 -44.5 84t-78.5 66q-64 31 -215 31q-26 0 -26 -27v-969q0 -153 22 -202q18 -41 62 -68q45 -26 45 -47q0 -39 -58 -39h-350q-55 0 -55 39q0 14 13 26t30 21t36.5 28t29.5 44q18 46 18 198v969
q0 27 -27 27q-95 0 -141 -9q-45 -6 -90 -32q-34 -20 -57.5 -52t-35 -62t-22 -57.5t-25.5 -44t-38 -16.5q-56 0 -56 62q0 14 1 32t2 44.5t2 44.5v67l4 88q3 60 86 60q17 0 131 -9q114 -6 219 -6h303q107 0 221 6q114 9 131 9q81 0 84 -60z" />
    <glyph glyph-name="U" unicode="U" horiz-adv-x="1519" 
d="M1092 1462h323q66 0 66 -37q1 -8 -2.5 -15t-11.5 -13t-14 -9.5t-17 -8.5t-15 -7q-51 -23 -73 -72q-20 -44 -29 -172q-6 -92 -6 -303v-159q0 -171 -10 -269q-9 -84 -52 -166q-131 -254 -491 -254q-413 0 -522 269q-43 113 -43 295v659q0 86 -10 116.5t-46 53.5l-9 4.5
t-12 5.5t-13.5 7t-12.5 8.5t-10 9t-5.5 10t1.5 10.5q0 37 55 37h330q55 0 55 -37q0 -15 -6 -24q-4 -4 -16.5 -11.5t-24 -13t-12.5 -6.5q-39 -20 -49 -57q-9 -35 -9 -135v-603q0 -154 35 -247q82 -211 361 -211q396 0 399 428v231q0 268 -4 354q-9 153 -51 201q-20 24 -68 41
q-49 21 -49 49q0 41 68 41z" />
    <glyph glyph-name="V" unicode="V" horiz-adv-x="1499" 
d="M1141 1462h291q61 0 61 -35q0 -14 -11 -25.5t-36.5 -27.5t-38.5 -28q-56 -53 -133 -213l-502 -1129q-9 -20 -29 -20h-69q-20 0 -29 20l-446 1165q-51 140 -95 181q-15 13 -40 26t-37.5 23t-12.5 26q0 37 64 37h334q51 0 51 -37q0 -21 -45 -47q-45 -23 -45 -59
q0 -25 41 -137l346 -903q6 -15 12 -15q2 0 12 19l310 731q84 209 84 274q0 30 -15 52.5t-33.5 33t-33.5 24t-15 27.5q0 37 60 37z" />
    <glyph glyph-name="W" unicode="W" horiz-adv-x="2220" 
d="M1860 1462h284q64 0 64 -37q0 -16 -11.5 -27t-38 -27.5t-44.5 -33.5q-56 -50 -119 -213l-398 -1118q-6 -20 -24 -20h-70q-18 0 -24 18l-377 1141q-2 7 -9 7t-8 -7l-417 -1139q-9 -20 -25 -20h-76q-18 0 -24 18l-353 1165q-44 139 -79 174q-15 15 -40 28.5t-39 24
t-14 25.5q0 41 70 41h332q51 0 51 -37q0 -18 -14.5 -29.5t-31.5 -17t-31.5 -23.5t-14.5 -48q0 -37 27 -125l249 -848q3 -8 9 -8q3 0 6 8l413 1124q6 19 27 19h84q19 0 25 -19l368 -1124q1 -5 3.5 -7t5 0t3.5 7q221 632 236 682q59 192 59 262q0 32 -14.5 56t-32.5 35
t-32.5 25.5t-14.5 28.5q0 39 60 39z" />
    <glyph glyph-name="X" unicode="X" horiz-adv-x="1486" 
d="M1376 82q49 -21 49 -45q0 -37 -53 -37h-330q-55 0 -55 35q0 18 29 37q31 19 31 39q0 30 -46 94l-311 436q-10 13 -20 0q-150 -211 -244 -383q-43 -79 -43 -115q0 -21 13 -38t29 -25.5t29 -19t13 -21.5q0 -39 -57 -39h-289q-60 0 -60 37q-4 10 7 21.5t33.5 25.5t25.5 16
q73 52 156 164q126 168 317 465q6 12 6 19q0 9 -6 18l-332 459q-54 76 -84 106q-20 26 -57 45q-3 2 -11.5 6t-12.5 6t-10 6t-8.5 8t-4.5 10t-2 13q0 37 53 37h324q55 0 55 -35q0 -17 -29 -36q-28 -19 -28 -41q0 -29 43 -93q59 -91 301 -417q6 -9 10 -9q2 0 12 13
q271 391 271 475q0 40 -43 61t-43 45q0 37 57 37h289q59 0 59 -37q0 -16 -8 -24q-5 -6 -29 -21.5t-26 -17.5q-76 -52 -156 -164l-307 -448q-13 -17 0 -33l309 -428q61 -84 63 -88l45 -58q21 -28 76 -61z" />
    <glyph glyph-name="Y" unicode="Y" horiz-adv-x="1398" 
d="M1038 1462h283q63 0 63 -35q0 -19 -12.5 -28.5t-45.5 -31.5t-66 -60q-35 -40 -115 -162l-348 -565q-6 -9 -6 -23v-201q0 -157 28 -215q17 -33 58 -57q41 -21 41 -45q0 -39 -56 -39h-348q-57 0 -57 39q0 23 45 49q47 27 63 70q21 52 21 198v148q0 18 -8 31l-347 634
q-86 159 -106 179q-13 16 -53 34q-39 20 -39 43q0 37 61 37h344q51 0 51 -35q0 -24 -43 -45q-40 -21 -40 -61q0 -43 53 -143l266 -490q8 -11 16 0l220 363q110 180 110 252q0 44 -47 71q-45 26 -45 51q0 37 59 37z" />
    <glyph glyph-name="Z" unicode="Z" horiz-adv-x="1259" 
d="M1135 401q80 0 45 -122q-15 -64 -23 -109q-23 -134 -70 -170q-22 -16 -61 -16q-22 0 -121 8t-227 8h-543q-29 0 -39 8.5t-10 32.5q0 49 23 90l774 1196q8 13 8 16q0 11 -17 11h-163q-279 0 -349 -33q-39 -19 -66.5 -51t-41 -64t-24.5 -61t-26 -47.5t-36 -18.5
q-59 0 -59 60q0 28 4 98q2 18 2 43q0 45 4 139q3 58 82 58q12 0 129 -9q120 -6 233 -6h541q29 0 38 -7t9 -30q0 -51 -23 -92l-776 -1200q-10 -17 -10 -20q0 -7 10 -7q333 0 412 11q113 15 168 61q60 48 129 162q37 61 74 61z" />
    <glyph glyph-name="bracketleft" unicode="[" horiz-adv-x="745" 
d="M668 1423h-316q-26 0 -26 -24v-1585q0 -27 26 -27h318q26 0 26 -27v-53q0 -26 -28 -26h-500q-27 0 -27 26v1796q0 27 27 27h500q28 0 28 -25v-55q0 -27 -28 -27z" />
    <glyph glyph-name="backslash" unicode="\" horiz-adv-x="1021" 
d="M35 1530l1055 -1727h-125l-1055 1727h125z" />
    <glyph glyph-name="bracketright" unicode="]" horiz-adv-x="745" 
d="M78 -213h315q27 0 27 25v1585q0 26 -27 26h-317q-27 0 -27 27v53q0 27 29 27h500q26 0 26 -27v-1796q0 -26 -26 -26h-500q-29 0 -29 24v55q0 27 29 27z" />
    <glyph glyph-name="asciicircum" unicode="^" horiz-adv-x="987" 
d="M246 950h-127q-17 0 -17 11q0 5 7 16l290 489q12 21 43 21h103q31 0 43 -21l293 -493q1 -2 2 -4.5t1.5 -3.5t0.5 -2q0 -13 -19 -13h-125q-31 0 -43 21l-192 327q-8 12 -13 12t-12 -12l-192 -327q-12 -21 -43 -21z" />
    <glyph glyph-name="underscore" unicode="_" horiz-adv-x="1028" 
d="M1051 -227v-70q0 -22 -23 -22h-1028q-25 0 -25 22v70q0 22 25 22h1028q23 0 23 -22z" />
    <glyph glyph-name="grave" unicode="`" horiz-adv-x="1019" 
d="M575 1260l-321 198q-10 7 -10 15q0 14 22 14h189q45 0 82 -29l225 -190q16 -16 16 -19q0 -10 -14 -10h-113q-41 0 -76 21z" />
    <glyph glyph-name="a" unicode="a" horiz-adv-x="1079" 
d="M700 543v35q0 8 -6 8t-14 -8q-46 -33 -148 -76q-110 -48 -157 -80q-103 -68 -103 -170q0 -68 44 -112t120 -44q66 0 126.5 38t94.5 108q43 87 43 301zM965 125h24q35 0 35 -33q0 -35 -47 -76q-45 -39 -107 -39q-61 0 -104.5 41t-50.5 121q0 11 -4 11q-3 0 -9 -9
q-53 -78 -140 -121t-187 -43q-140 0 -230 76.5t-90 188.5q0 140 127 223q59 39 187 86q124 46 159 61q172 76 172 207q0 76 -48.5 122t-129.5 46q-58 0 -106 -26q-43 -23 -68 -48t-63 -77q-8 -10 -25 -38t-20 -32q-20 -25 -47 -25q-58 0 -58 101q0 105 35 149q42 51 137 74
q102 27 201 27q188 0 292.5 -95t104.5 -256q0 -22 -4 -256q-2 -117 -2 -256q0 -104 66 -104z" />
    <glyph glyph-name="b" unicode="b" horiz-adv-x="1224" 
d="M358 522q0 -206 80.5 -324t212.5 -118q147 0 217 129q72 135 72 305q0 181 -80 305q-79 125 -217 125q-147 0 -217 -123q-68 -124 -68 -299zM1143 588q0 -150 -58 -287q-56 -136 -174 -229q-121 -95 -278 -95q-60 0 -119.5 16t-96 34.5t-66 34.5t-36.5 16q-30 0 -53 -51
q-24 -50 -53 -50q-45 0 -45 74v1147q0 91 -19 127q-16 30 -67 47t-51 43q0 33 57 45q94 21 184 56q30 12 49 12q41 0 41 -51v-551q0 -17 11 -17q3 0 20 17q147 166 334 166q185 0 303 -142q117 -141 117 -362z" />
    <glyph glyph-name="c" unicode="c" horiz-adv-x="1036" 
d="M965 221q0 -34 -45 -88q-43 -52 -144 -104t-223 -52q-200 0 -334 134q-133 136 -133 360q0 248 154 434q156 187 403 187q181 0 254 -76q39 -39 39 -137q0 -125 -59 -125q-34 0 -50 28q-24 48 -39 72q-77 127 -202 127t-211 -115q-84 -116 -84 -301q0 -183 86 -313
q89 -129 252 -129q55 0 110.5 21.5t89.5 47t62.5 47t36.5 21.5q37 0 37 -39z" />
    <glyph glyph-name="d" unicode="d" horiz-adv-x="1259" 
d="M582 123q132 0 208 114t76 308q0 206 -80.5 324t-212.5 118q-149 0 -219 -129q-69 -123 -69 -303q0 -184 82 -309q82 -123 215 -123zM1061 1477v-1174q0 -94 14 -119t68 -47q55 -21 55 -43q0 -35 -57 -47q-109 -27 -185 -57q-29 -13 -47 -13q-43 0 -43 54v110
q0 17 -12 17q-6 0 -14 -8q-141 -173 -336 -173q-167 0 -293 129q-127 130 -127 375q-3 112 32 222t98 197t157.5 140t201.5 52q146 0 271 -82q9 -6 14 -6q8 0 8 10v194q0 95 -22 123q-20 24 -68 41q-47 18 -47 43q0 33 57 45q99 22 187 58q34 12 45 12q43 0 43 -53z" />
    <glyph glyph-name="e" unicode="e" horiz-adv-x="1105" 
d="M303 700q-2 -10 -2 -22t16 -12h334q94 0 133 26t39 92q0 79 -63 142q-62 65 -164 65q-114 0 -193 -82.5t-100 -208.5zM965 264q45 0 45 -43q0 -62 -125 -153q-126 -91 -303 -91q-227 0 -363 154q-135 153 -135 373q0 235 149 409q150 179 381 179q84 0 155.5 -26
t118.5 -67.5t80.5 -93t48.5 -101.5t15 -95q0 -83 -37 -113.5t-125 -32.5h-555q-22 0 -22 -20v-11q0 -167 92 -288q91 -119 248 -119q62 0 123.5 21.5t99.5 48t69.5 48t39.5 21.5z" />
    <glyph glyph-name="f" unicode="f" horiz-adv-x="813" 
d="M829 1495q52 -40 52 -141q0 -86 -56 -86q-20 0 -44.5 22t-46 48.5t-57.5 48.5t-77 22q-168 0 -168 -356q0 -21 21 -21q100 0 133 2q20 0 73 6q61 7 74 7q58 0 58 -33q0 -1 -1 -5.5t-2.5 -14.5t-3.5 -21q-6 -39 -25.5 -51.5t-64.5 -12.5q-38 0 -69 2q-12 1 -26 2t-22 1.5
t-12 0.5q-41 3 -106 3q-27 0 -27 -25v-535q0 -150 25 -208q10 -23 29 -40.5t35 -26t28 -20t12 -24.5q0 -39 -57 -39h-338q-57 0 -57 39q0 23 45 49t63 70q21 52 21 200v543q0 17 -21 17h-127q-24 0 -24 22v70q0 22 24 22h127q23 0 23 21q6 112 41 199.5t83.5 138t111 83.5
t116.5 44.5t106 11.5q84 0 131 -35z" />
    <glyph glyph-name="g" unicode="g" horiz-adv-x="1112" 
d="M510 991q-89 0 -141 -68t-52 -175q0 -117 56 -220q55 -102 166 -102q90 0 141 70.5t51 179.5q0 116 -57 215q-57 100 -164 100zM1051 1008q0 -105 -136 -105l-30 2q49 -79 49 -188q0 -164 -109 -273q-108 -108 -282 -120q-19 0 -37 -2l-68 -7q-71 -7 -71 -59
q0 -55 143 -70l133 -8q117 -7 166 -14q109 -17 169 -75t60 -146q0 -161 -147 -250q-143 -88 -379 -88q-278 0 -393 100q-78 66 -78 154q0 79 53 129q56 47 107 47q49 0 49 -35l-18 -43q-17 -43 -17 -72q0 -92 94 -135q91 -45 230 -45q147 0 240 49.5t93 128.5
q0 100 -178 115l-98 6q-166 11 -219 21q-87 17 -134.5 62t-47.5 106q0 57 40.5 102.5t88.5 60.5q6 3 6 6q0 4 -6 7q-99 48 -155 134t-56 199q0 162 116 275q118 115 291 115q71 0 142.5 -25t117.5 -49.5t54 -24.5q20 0 34 16t21.5 34.5t27.5 34.5t50 16q84 0 84 -86z" />
    <glyph glyph-name="h" unicode="h" horiz-adv-x="1286" 
d="M1094 686v-326q0 -174 30 -223q15 -25 58 -53q43 -27 43 -45q0 -39 -58 -39h-344q-57 0 -57 39q0 20 43 47q46 28 59 59q27 53 27 215v320q0 126 -57.5 191t-157.5 65q-104 0 -176 -72q-57 -57 -78 -162q-18 -102 -18 -342q0 -168 28 -219q16 -29 58 -57q43 -27 43 -45
q0 -39 -56 -39h-340q-55 0 -55 39q0 22 43 49q46 26 61 62q25 58 25 210v840q0 103 -20 129q-17 23 -68 41q-51 20 -51 43q0 35 57 47q107 21 191 62q27 10 38 10q46 0 46 -57v-562q0 -10 6 -10q3 0 10 10q120 179 332 179q179 0 268 -127q70 -94 70 -279z" />
    <glyph glyph-name="i" unicode="i" horiz-adv-x="624" 
d="M410 1481q56 -55 56 -90t-56 -91t-91 -56t-90 56t-55 91t55 90q55 57 90 57t91 -57zM422 1038v-680q0 -158 24 -208q17 -36 62 -64q43 -27 43 -47q0 -39 -57 -39h-342q-56 0 -56 39q0 22 43 49q47 27 62 62q24 50 24 208v365q0 135 -20 168q-16 28 -68 43q-49 18 -49 41
q0 35 57 47q115 24 195 59q29 11 39 11q43 0 43 -54z" />
    <glyph glyph-name="j" unicode="j" horiz-adv-x="634" 
d="M457 1038v-833q0 -260 -76 -385q-60 -98 -166 -155.5t-225 -57.5q-90 0 -129 33q-54 45 -54 139t58 94q16 2 40.5 -20.5t48 -50t59.5 -50t73 -20.5q80 0 127 80q44 69 47 335q0 141 -2 299v279q0 133 -20 166q-17 24 -66 41q-51 20 -51 43q0 35 57 47q101 20 184 57
q29 13 48 13q47 0 47 -54zM442 1481q56 -55 56 -90t-56 -91t-90.5 -56t-91.5 56q-56 56 -56 91t56 90q57 57 91.5 57t90.5 -57z" />
    <glyph glyph-name="k" unicode="k" horiz-adv-x="1261" 
d="M1171 86q54 -22 54 -47q0 -39 -56 -39h-135q-79 0 -123 33q-33 26 -65 67l-35 52q-10 18 -50.5 76.5t-51.5 74.5q-88 124 -115 154q-29 39 -57 39q-15 0 -56 -35l-55 -51q-8 -8 -8 -23v-22q0 -175 24 -218q15 -27 42.5 -46t45 -31.5t17.5 -30.5q0 -39 -58 -39h-348
q-57 0 -57 39q0 22 43 49q42 25 63 64q25 48 25 215v850q0 84 -20 110q-19 28 -68 43q-51 15 -51 43q0 20 12 30t47 17q114 20 199 60q27 10 39 10q45 0 45 -53v-910q0 -10 6 -10q4 0 10 6q127 111 217 197q135 132 135 176q0 28 -32 47q-33 20 -33 45q0 41 63 41h353
q53 0 53 -37q0 -13 -8.5 -23t-18 -14.5t-30.5 -12.5t-31 -13q-91 -38 -178 -111q-102 -81 -267 -235q-8 -8 -8 -15q0 -10 10 -10q3 0 16 5t21 5q39 0 81.5 -48.5t137.5 -188.5q110 -161 156 -209q53 -56 100 -76z" />
    <glyph glyph-name="l" unicode="l" horiz-adv-x="610" 
d="M406 1477v-1119q0 -158 24 -208q17 -36 62 -64q43 -27 43 -47q0 -39 -58 -39h-342q-55 0 -55 39q0 22 43 49q46 26 61 62q25 52 25 208v803q0 133 -21 168q-16 28 -67 43q-49 18 -49 41q0 35 57 47q110 23 195 60q27 10 38 10q44 0 44 -53z" />
    <glyph glyph-name="m" unicode="m" horiz-adv-x="1935" 
d="M1745 684v-326q0 -179 33 -223q24 -35 57 -53q39 -20 39 -43q0 -39 -57 -39h-338q-58 0 -58 39q0 21 41 45q42 28 62 61q26 48 26 213v320q0 117 -54 186.5t-161 69.5q-103 0 -170 -70q-53 -59 -67 -157q-15 -99 -15 -349q0 -179 31 -227q12 -18 50 -48.5t38 -43.5
q0 -39 -57 -39h-320q-55 0 -55 39q0 14 38.5 44t49.5 48q31 51 31 227v314q0 262 -203 262q-100 0 -168 -68q-59 -59 -80 -164q-18 -105 -18 -344q0 -164 29 -217q15 -27 57 -55q43 -27 43 -47q0 -39 -57 -39h-338q-58 0 -58 37q0 20 41 47q45 28 62 61q26 51 26 213v367
q0 137 -20 166q-14 22 -44.5 33t-51.5 20.5t-21 30.5q0 35 55 47q105 20 193 59q33 11 41 11q43 0 43 -54v-127q0 -8 6 -8q3 0 10 10q120 179 330 179q108 0 184 -50t113 -133q9 -14 18 2q123 181 330 181q173 0 268 -129q66 -91 66 -279z" />
    <glyph glyph-name="n" unicode="n" horiz-adv-x="1298" 
d="M1106 686v-326q0 -172 31 -223q16 -26 57 -53q43 -27 43 -45q0 -39 -57 -39h-344q-58 0 -58 39q0 20 43 47q47 29 60 59q26 51 26 215v320q0 125 -58 190.5t-157 65.5q-104 0 -176 -72q-57 -57 -78 -162q-18 -102 -18 -342q0 -166 29 -219q17 -30 57 -57q43 -27 43 -45
q0 -39 -55 -39h-340q-56 0 -56 39q0 22 43 49q47 27 62 62q24 56 24 210v400q0 103 -20 129q-17 23 -68 41q-51 20 -51 43q0 35 57 47q111 21 191 61q29 11 39 11q45 0 45 -58v-121q0 -10 6 -10q3 0 10 10q120 179 332 179q176 0 268 -127q70 -94 70 -279z" />
    <glyph glyph-name="o" unicode="o" horiz-adv-x="1210" 
d="M918 481q0 123 -35 236q-34 118 -114 195t-185 77q-132 0 -211.5 -107t-79.5 -280q0 -218 92 -369q94 -149 242 -149q143 0 217 115q74 118 74 282zM612 1092q237 0 375 -156q139 -157 139 -395q0 -237 -147 -400q-147 -164 -373 -164q-235 0 -379 150q-143 149 -143 399
q0 238 149 400q150 166 379 166z" />
    <glyph glyph-name="p" unicode="p" horiz-adv-x="1259" 
d="M688 80q134 0 211.5 118.5t77.5 315.5q0 200 -88 313q-85 117 -211 117q-130 0 -206.5 -112t-76.5 -308q0 -207 80.5 -325.5t212.5 -118.5zM758 1092q177 0 299 -140q121 -139 121 -366q0 -144 -54 -283q-53 -135 -168 -231q-115 -95 -268 -95q-43 0 -88.5 9t-79.5 21.5
t-61.5 25t-42 21.5t-13.5 9q-8 0 -8 -10v-96q0 -148 25 -203q15 -35 59 -59q45 -26 45 -49q0 -41 -55 -41h-340q-57 0 -57 39q0 21 49 51t61 67q19 52 19 201v780q0 113 -21 148q-16 25 -67 43q-50 18 -50 45q0 31 58 43q105 23 192 59q29 11 41 11q41 0 41 -54v-112
q0 -17 11 -17q5 0 16 11q141 172 336 172z" />
    <glyph glyph-name="q" unicode="q" horiz-adv-x="1212" 
d="M582 125q146 0 213 119q69 117 69 301q0 207 -79 324.5t-214 117.5q-74 0 -130.5 -36.5t-89.5 -98.5t-49.5 -137t-16.5 -160q0 -196 84 -315q86 -115 213 -115zM1059 1018v-1055q0 -168 26 -213q21 -35 62 -59q41 -27 41 -47q0 -39 -58 -39h-337q-58 0 -58 39q0 20 41 47
q42 25 60 55q28 54 28 217v182q0 15 -10 15q-7 0 -23 -19q-138 -164 -327 -164q-168 0 -295 127q-125 128 -125 377q0 248 137 428q139 183 369 183q74 0 148 -26t119.5 -51.5t51.5 -25.5q31 0 54 51q24 52 53 52q43 0 43 -74z" />
    <glyph glyph-name="r" unicode="r" horiz-adv-x="833" 
d="M705 1092q59 0 94 -38t35 -100q0 -94 -70 -94q-20 0 -64 23q-42 22 -73 22q-70 0 -117 -71q-44 -65 -64 -164q-20 -97 -20 -312q0 -156 25 -208q18 -40 61 -64t43 -47q0 -39 -57 -39h-338q-58 0 -58 39q0 21 45 47q47 27 62 68q22 55 22 204v367q0 125 -26 164
q-18 24 -68 45q-49 21 -49 45q0 36 55 45q90 20 168 55q29 13 49 13q48 0 48 -58v-162q0 -8 4 -8q1 0 8 10q41 81 117 148q76 70 168 70z" />
    <glyph glyph-name="s" unicode="s" horiz-adv-x="970" 
d="M78 274q0 88 55 88q23 0 37 -14q18 -15 43 -57l35 -55q109 -152 254 -152q91 0 149 49.5t58 122.5q0 128 -209 188q-149 46 -197 68q-156 70 -181 194q-5 26 -5 54q0 146 119 237q121 95 290 95q162 0 244 -60q66 -48 66 -155q0 -119 -62 -119q-24 0 -35 8
q-9 8 -32.5 49.5t-28.5 48.5q-83 121 -203 121q-71 0 -124.5 -44t-53.5 -110t70 -118q31 -20 104 -47q18 -5 68 -21.5t59 -19.5q124 -40 201 -101q92 -73 92 -205q0 -140 -121 -243q-120 -99 -307 -99q-102 0 -195 29.5t-135 71.5q-55 55 -55 196z" />
    <glyph glyph-name="t" unicode="t" horiz-adv-x="854" 
d="M762 215q37 0 37 -35q0 -49 -74 -114q-100 -89 -233 -89q-144 0 -224 109q-57 75 -57 244q0 86 6 274q8 167 8 293q0 21 -20 21h-129q-23 0 -23 24v66q0 18 21 24q123 34 159 94q24 46 48 164q6 25 26 25h84q25 0 25 -23v-213q0 -29 9 -38t36 -9q42 0 104 4
q132 11 144 11q65 0 65 -37q0 -4 -3 -20t-3 -19q-9 -64 -88 -64q-14 0 -66 4t-65 4q-41 3 -111 3q-24 0 -24 -25q0 -2 -0.5 -18t-1.5 -51t-2 -74q-2 -90 -2 -170q0 -154 8 -238q18 -207 162 -207q63 0 116 39q59 41 68 41z" />
    <glyph glyph-name="u" unicode="u" horiz-adv-x="1286" 
d="M1096 176q12 -20 63 -41q53 -18 53 -43q0 -38 -55 -47q-110 -25 -188 -57q-33 -11 -43 -11q-45 0 -45 56v127q0 6 -7 6q-3 0 -10 -10q-56 -82 -143 -130.5t-189 -48.5q-161 0 -256 115q-75 90 -75 289v344q0 136 -21 166q-18 25 -65 41q-52 21 -52 49q0 34 56 43
q101 22 184 55q33 13 47 13q45 0 45 -54v-653q0 -116 55 -184t158 -68q102 0 172 70q57 57 78 164q23 118 23 340q0 154 -21 184q-17 27 -67 41q-50 18 -50 45q0 35 56 47q110 24 192 59q29 11 39 11q45 0 45 -56v-694q0 -134 21 -168z" />
    <glyph glyph-name="v" unicode="v" horiz-adv-x="1198" 
d="M829 1069h291q66 0 66 -37q0 -24 -39 -47q-91 -53 -180 -258l-314 -725q-10 -16 -30 -16h-107q-22 0 -31 22l-278 758q-53 148 -96 188q-13 11 -38.5 25t-39 25t-13.5 26q0 39 66 39h336q55 0 55 -39q0 -16 -15 -27.5t-33 -18.5t-33 -27t-15 -50q0 -42 31 -127l206 -559
q4 -10 8.5 -10t6.5 8l155 387q82 204 82 279q0 31 -10.5 52.5t-25 32t-29 19t-25 18t-10.5 23.5q0 39 59 39z" />
    <glyph glyph-name="w" unicode="w" horiz-adv-x="1863" 
d="M1847 1032q0 -15 -13.5 -27t-42 -31.5t-48.5 -39.5q-62 -62 -115 -207l-262 -725q-6 -16 -25 -16h-120q-17 0 -23 14l-276 813q-3 8 -7 8q-5 0 -8 -8l-301 -809q-9 -18 -26 -18h-119q-25 0 -31 18l-227 762q-44 145 -88 186q-13 13 -38.5 25.5t-41 24t-15.5 28.5
q0 39 66 39h336q55 0 55 -37q0 -17 -14.5 -28.5t-32.5 -19t-32.5 -29t-14.5 -54.5q0 -43 27 -135l155 -526q9 -20 17 0l307 829q6 14 22 14h111q16 0 22 -14l283 -829q5 -12 8 -12t8 12q55 151 127 368q68 207 68 271q0 32 -10.5 54.5t-26 33.5t-31 20t-26 19.5t-10.5 25.5
q0 37 63 37h289q61 0 61 -37z" />
    <glyph glyph-name="x" unicode="x" horiz-adv-x="1204" 
d="M1073 109q13 -10 41 -23.5t41.5 -24t9.5 -24.5q0 -37 -55 -37h-336q-57 0 -57 33q0 20 28 39q31 19 31 43q0 29 -47 94l-170 227q-10 13 -14 13q-5 0 -15 -13l-84 -125q-84 -128 -84 -170q0 -38 44 -59q45 -20 45 -43q0 -39 -60 -39h-289q-61 0 -61 37q0 6 1.5 11.5
t6 10.5t8 8.5t11.5 8.5l12 7.5t14.5 8.5t14.5 8q70 47 178 183l182 241q8 8 8 17q0 10 -8 18l-166 217q-110 145 -174 187q-12 8 -38.5 20t-39 22.5t-8.5 24.5q0 39 55 39h330q57 0 57 -37q0 -11 -27.5 -36.5t-27.5 -39.5q0 -32 51 -100l164 -221q10 -13 14.5 -13.5
t14.5 11.5q108 159 137 213q31 54 31 82q0 33 -43 57t-43 45q0 39 57 39h289q61 0 61 -37q0 -16 -8 -24q-5 -6 -32 -22l-27 -17q-87 -62 -178 -183l-183 -243q-6 -9 -6 -15q0 -5 6 -14l168 -221q101 -136 170 -184z" />
    <glyph glyph-name="y" unicode="y" horiz-adv-x="1173" 
d="M815 1069h285q63 0 63 -37q3 -16 -14 -29.5t-48.5 -33t-49.5 -41.5q-46 -52 -107 -195l-282 -684q-66 -156 -131.5 -252t-153.5 -147q-74 -45 -154 -45q-74 0 -118 40.5t-44 114.5q0 45 18 73t52 28q26 0 72 -43t100 -43q45 0 86 35q38 30 60 61.5t51 91.5q6 12 6 21
q0 2 -4 18l-301 768q-59 161 -105 195q-10 7 -33.5 18.5t-35 21.5t-11.5 25q0 39 64 39h334q53 0 53 -37q0 -13 -15 -26t-33 -23t-33 -29t-15 -43q0 -53 32 -127l211 -522q3 -12 9 -12q7 0 10 12l145 369q76 195 76 254q0 27 -10.5 48t-25 33t-29 21.5t-25 20t-10.5 22.5
q0 39 61 39z" />
    <glyph glyph-name="z" unicode="z" horiz-adv-x="1019" 
d="M899 375q25 0 41 -15.5t16 -40.5q0 -18 -8 -49q-5 -20 -17.5 -81.5t-17.5 -82.5q-11 -57 -38.5 -92t-77.5 -30q-19 0 -115 8t-227 8h-338q-30 0 -38.5 8.5t-8.5 38.5q0 59 18 86l588 807l4 6t3 5t2 3t1 2q0 11 -14 11h-174q-138 0 -185 -27q-34 -20 -58 -56.5t-34 -67
t-28.5 -54t-45.5 -23.5q-57 0 -57 64q0 14 1 56t1 54q0 75 4 111q9 59 80 59q26 0 133 -8q123 -6 244 -6h334q27 0 36 -7.5t9 -31.5q0 -60 -23 -90l-592 -811q-6 -9 -6 -14q0 -9 13 -9q268 0 338 27q42 16 80 56.5t59 82.5q47 103 98 103z" />
    <glyph glyph-name="braceleft" unicode="{" horiz-adv-x="741" 
d="M88 553q-27 6 -27 31v41q0 24 27 30q110 23 150.5 70t40.5 143q0 27 -11 152q-10 113 -10 156q0 181 89 265.5t294 88.5q33 0 33 -25v-51q0 -21 -27 -24q-111 -7 -158 -64t-47 -180q0 -46 9 -148q10 -113 10 -155q0 -108 -41.5 -172.5t-143.5 -98.5q-8 -2 -8 -8t8 -8
q102 -34 143.5 -98t41.5 -172q0 -35 -10 -148q-9 -102 -9 -155q0 -119 46.5 -175t158.5 -69q27 -3 27 -25v-51q0 -25 -33 -25q-205 4 -294 88.5t-89 266.5q0 36 10 149q11 125 11 158q0 96 -40.5 143t-150.5 70z" />
    <glyph glyph-name="bar" unicode="|" horiz-adv-x="550" 
d="M317 -395h-84q-22 0 -22 24v2134q0 23 22 23h84q23 0 23 -23v-2134q0 -24 -23 -24z" />
    <glyph glyph-name="braceright" unicode="}" horiz-adv-x="741" 
d="M653 655q27 -6 27 -30v-41q0 -25 -27 -31q-110 -23 -150 -70t-40 -143q0 -39 10 -152t10 -155q0 -181 -89 -266t-294 -89q-32 0 -32 25v51q0 22 26 25q111 7 158 64t47 180q0 34 -10 147q-8 91 -8 156q0 108 41 172t143 98q7 2 7 8t-7 8q-102 34 -143 98t-41 173
q0 56 8 147q10 113 10 156q0 119 -46.5 175t-158.5 69q-26 3 -26 24v51q0 25 32 25q205 -4 294 -88t89 -266q0 -37 -10 -150t-10 -158q0 -96 40 -143t150 -70z" />
    <glyph glyph-name="asciitilde" unicode="~" horiz-adv-x="1304" 
d="M172 467l-45 14q-18 6 -18 21l4 16q95 268 299 268q89 0 270 -69q183 -70 254 -70q96 0 158 117q11 20 26 20q9 0 13 -2l38 -12q23 -10 23 -22q0 -7 -2 -13q-94 -266 -297 -266q-99 0 -279 70q-178 69 -245 69q-98 0 -162 -125q-9 -18 -25 -18q-8 0 -12 2z" />
    <glyph glyph-name="uni00A0" unicode="&#xa0;" horiz-adv-x="436" 
 />
    <glyph glyph-name="exclamdown" unicode="&#xa1;" horiz-adv-x="690" 
d="M475 954q0 -37 -61 -98q-58 -61 -99 -61q-38 0 -100 59q-59 62 -59 100q0 40 59 99q61 61 100 61q41 0 99 -61q61 -58 61 -99zM391 434l25 -287q24 -243 24 -362q0 -101 -28 -140.5t-97 -39.5q-67 0 -97 39.5t-30 130.5q0 95 23 348q27 262 29 311q6 141 18 168
q15 35 57 35q16 0 28 -4t19.5 -14.5t12 -21t7 -31t3.5 -36t2.5 -45.5t3.5 -51z" />
    <glyph glyph-name="cent" unicode="&#xa2;" horiz-adv-x="1079" 
d="M954 258q14 0 24.5 -11t10.5 -24q0 -24 -18 -51q-81 -124 -246 -174q-39 -12 -90 -16v-160q0 -19 -19 -19h-59q-18 0 -18 19v158q-192 12 -312 147q-118 133 -118 346q0 209 114 379q113 172 316 225v183q0 18 18 18h59q19 0 19 -18v-170q6 2 33 2q181 0 254 -76
q39 -39 39 -137q0 -125 -60 -125q-30 0 -51 30l-41 74q-76 123 -199 123q-142 0 -219 -127q-76 -125 -76 -293q0 -109 31 -207q34 -100 115.5 -165.5t191.5 -65.5q127 0 246 104q39 31 55 31z" />
    <glyph glyph-name="sterling" unicode="&#xa3;" horiz-adv-x="1239" 
d="M1040 262q43 0 43 -41q0 -19 -28 -100q-21 -84 -60 -115q-40 -29 -131 -29q-131 0 -385 74q-250 76 -299 76q-19 0 -50.5 -14.5t-41.5 -14.5q-12 0 -23.5 11t-11.5 24q0 37 74 96q36 25 86 25q10 0 23.5 -1t27 -2.5t27 -3.5t25.5 -4l21 -3.5t14 -2.5l5 -1q1 0 17 4
q149 64 149 202q0 62 -30 138h-238q-21 0 -21 18v53q0 21 21 21h188l-36 67l-44 78q-40 97 -40 160q0 135 110 217q116 84 270 84q122 0 181 -39q55 -34 55 -127q0 -113 -64 -113q-42 0 -81 76q-67 107 -162 107q-57 0 -96 -40t-39 -100q0 -48 28 -112q24 -55 74 -137
q52 -85 68 -121h290q19 0 19 -21v-53q0 -18 -19 -18h-258q11 -57 11 -91q0 -193 -211 -272q-4 -1 -5.5 -3.5t0.5 -5t9 -3.5q171 -43 319 -43q48 0 86.5 15.5t58 34.5t39.5 34.5t35 15.5z" />
    <glyph glyph-name="currency" unicode="&#xa4;" horiz-adv-x="1507" 
d="M754 885q-122 0 -205 -86q-84 -84 -84 -205q0 -120 84 -207q87 -84 205 -84t202 84q84 87 84 207q0 121 -84 205q-83 86 -202 86zM1114 301l232 -231q8 -8 8 -17q0 -6 -6 -12l-39 -39q-8 -8 -17 -8q-6 0 -12 6l-236 233q-124 -100 -290 -100q-167 0 -291 100l-236 -233
q-6 -6 -14 -6q-6 0 -12 6l-39 39q-8 8 -8 16q0 7 6 13l233 233q-108 129 -108 293t108 293l-231 231q-8 8 -8 15q0 8 8 16l35 35q10 10 18 10q6 0 14 -8l234 -232q125 101 291 101q165 0 290 -101l236 234q6 6 14 6q7 0 15 -8l37 -37q8 -8 8 -16q0 -7 -8 -15l-232 -231
q107 -125 107 -293t-107 -293z" />
    <glyph glyph-name="yen" unicode="&#xa5;" horiz-adv-x="1431" 
d="M969 1266h250q55 0 55 -31q3 -13 -10 -24t-44.5 -32.5t-56.5 -48.5q-35 -38 -98 -139l-139 -227q-6 -9 -6 -12q0 -7 8 -7h235q13 0 13 -12v-55q0 -14 -15 -14h-284q-12 0 -23 -11l-82 -135q-6 -9 -6 -14q0 -6 8 -6h387q15 0 15 -13v-57q0 -14 -15 -14h-395q-10 0 -10 -11
v-94q0 -138 22 -184q16 -30 51 -49q37 -21 37 -43q0 -33 -49 -33h-305q-49 0 -49 33q0 22 39 45q36 21 53 55q18 40 18 176v94q0 11 -14 11h-375q-16 0 -16 16v53q0 15 14 15h350q13 0 13 6q0 2 -6 14l-72 133q-7 13 -25 13h-260q-14 0 -14 12v59q0 10 12 10h221q9 0 9 7
l-7 14l-135 248q-71 130 -92 151q-15 15 -36.5 27t-32.5 20t-11 21q0 33 51 33h297q45 0 45 -31q0 -19 -36 -39q-37 -21 -37 -51q0 -36 47 -125l233 -432q2 -4 7 -4t6 4l194 323q94 155 94 219q0 36 -41 60q-38 23 -38 43q0 33 51 33z" />
    <glyph glyph-name="brokenbar" unicode="&#xa6;" horiz-adv-x="550" 
d="M317 784h-84q-22 0 -22 25v954q0 23 22 23h84q23 0 23 -23v-954q0 -25 -23 -25zM317 -395h-84q-22 0 -22 22v955q0 24 22 24h84q23 0 23 -24v-955q0 -22 -23 -22z" />
    <glyph glyph-name="section" unicode="&#xa7;" horiz-adv-x="1077" 
d="M524 399q95 0 159.5 50t64.5 133q0 81 -71.5 136.5t-172.5 55.5q-99 0 -159 -50.5t-60 -129.5q0 -81 70 -138t169 -57zM657 303q252 -111 252 -328q0 -151 -121 -260q-119 -110 -309 -110q-104 0 -198 33t-136 83q-49 58 -49 193q0 86 60 86q32 0 55 -37q7 -9 25.5 -42
t25.5 -42q107 -162 250 -162q104 0 164 66q59 65 59 131q0 84 -65 137q-67 54 -197 109q-143 63 -190 96q-168 110 -168 283q0 100 63.5 185t169.5 128q8 3 8 8q0 3 -6 6q-98 45 -157.5 131t-59.5 189q0 154 119 248q122 96 278 96q145 0 246 -70q74 -53 74 -180
q0 -62 -11 -87t-42 -26q-40 0 -64 52q-51 108 -101 154t-136 46q-77 0 -133 -51t-56 -127q0 -55 26 -94t77 -70q11 -6 33 -18.5t32 -16.5q63 -28 78 -34l76 -33q274 -126 274 -336q0 -109 -65 -194.5t-176 -127.5q-7 -4 -9 -6t-1.5 -3t5.5 -5z" />
    <glyph glyph-name="dieresis" unicode="&#xa8;" horiz-adv-x="1046" 
d="M786 1442q19 -19 19 -80q0 -60 -18 -78t-78 -18q-62 0 -80 18q-21 18 -21 78q0 62 21 80q20 20 78 20q59 0 79 -20zM420 1442q18 -18 18 -80q0 -60 -18 -78t-78 -18q-61 0 -82 18q-18 18 -18 78q0 62 18 80q20 20 80 20t80 -20z" />
    <glyph glyph-name="copyright" unicode="&#xa9;" horiz-adv-x="1894" 
d="M948 70q269 0 463 194q193 193 193 467q0 276 -193 469q-195 195 -463 195q-270 0 -465 -195q-192 -192 -192 -469t192 -469t465 -192zM193 731q0 314 221 535t534 221q312 0 533 -221t221 -535q0 -311 -221 -532q-222 -222 -533 -222q-312 0 -534 222q-221 221 -221 532
zM993 395q56 0 98.5 22.5t66 54.5t40.5 63.5t34 54t36 22.5q45 0 45 -57q0 -153 -70 -193q-83 -47 -233 -47q-229 0 -361 123q-131 122 -131 303q0 190 144 310q144 123 354 123q151 0 219 -39q40 -20 49 -60q10 -38 10 -108q0 -74 -45 -74q-19 0 -30.5 11t-25 38.5
t-22.5 40.5q-70 113 -184 113q-129 0 -215 -99q-84 -96 -84 -249q0 -156 88 -254q88 -99 217 -99z" />
    <glyph glyph-name="ordfeminine" unicode="&#xaa;" horiz-adv-x="800" 
d="M307 315q-22 19 -22 84q0 64 22 86q24 21 86 21q60 0 84 -21q21 -24 21 -86q0 -63 -21 -84q-22 -22 -84 -22q-64 0 -86 22zM492 1096v22q0 4 -5 4q-4 0 -12 -8q-31 -21 -92 -49q-68 -32 -94 -49q-53 -38 -53 -98q0 -45 28.5 -74t75.5 -29q87 0 127 82q25 48 25 199z
M715 819q33 0 33 -28q0 -33 -36 -62t-85 -29q-45 0 -75 31.5t-38 77.5q-3 12 -4 12q-5 0 -10 -8q-82 -113 -221 -113q-93 0 -159.5 56t-66.5 141q0 98 92 160q38 25 125 57l107 43q115 50 115 137q0 48 -28 77.5t-77 29.5q-87 0 -151 -94l-33 -47q-21 -33 -53 -33
q-30 0 -41 19.5t-11 64.5q0 66 25 102q24 34 95.5 54t150.5 20q129 0 212 -66.5t83 -185.5q0 -19 -2 -78t-3 -94q-4 -156 -4 -164q0 -80 60 -80z" />
    <glyph glyph-name="guillemotleft" unicode="&#xab;" horiz-adv-x="1118" 
d="M965 225v-108q0 -11 -9 -11q-5 0 -10 5l-514 450q-12 12 -12 18.5t12 18.5l510 446q9 9 14 9q9 0 9 -11v-108q0 -25 -19 -41l-348 -305q-8 -8 0 -17l350 -307q17 -17 17 -39zM559 225v-108q0 -11 -10 -11q-5 0 -12 7l-443 389q-10 10 -10 30v95q0 23 12 32l428 377
q24 17 25 17q10 0 10 -11v-108q0 -24 -20 -41l-349 -305q-8 -8 0 -17l351 -307q18 -15 18 -39z" />
    <glyph glyph-name="logicalnot" unicode="&#xac;" horiz-adv-x="1675" 
d="M156 1069h1284v-633h-129v502h-1155v131z" />
    <glyph glyph-name="softhyphen" unicode="&#xad;" horiz-adv-x="677" 
d="M84 502v116q0 23 22 23h465q23 0 23 -23v-116q0 -23 -23 -23h-465q-22 0 -22 23z" />
    <glyph glyph-name="registered" unicode="&#xae;" horiz-adv-x="1101" 
d="M246 1288q-123 -123 -123 -299q0 -175 123 -301q123 -123 297 -123t297 123q123 126 123 301q0 176 -123 299q-122 125 -297 125t-297 -125zM190 637q-145 145 -145 352t145 352q146 146 353 146q206 0 352 -146q145 -145 145 -352t-145 -352t-352 -145q-208 0 -353 145z
M479 1032h45q117 0 117 94q0 82 -117 82h-43q-14 0 -14 -12v-154q0 -10 12 -10zM815 758q25 -22 25 -27q0 -20 -27 -20h-68q-41 0 -59 24q-10 14 -59 123q-44 96 -99 105q-28 4 -51 4q-10 0 -10 -11v-79q0 -70 10 -93q5 -12 27 -29t22 -24q0 -20 -28 -20h-170q-29 0 -29 20
q0 6 22 24.5t27 32.5q8 19 8 86v275q0 43 -3.5 56.5t-20.5 23.5q-2 2 -15.5 8.5t-13.5 17.5q0 19 27 19h227q117 0 160 -37q45 -36 45 -100q0 -52 -34 -85t-93 -44q-10 -3 -10 -7q0 -5 12 -8q66 -12 115 -125q45 -97 63 -110z" />
    <glyph glyph-name="overscore" unicode="&#xaf;" horiz-adv-x="1112" 
d="M242 1366v78q0 18 18 18h592q18 0 18 -18v-78q0 -18 -18 -18h-592q-18 0 -18 18z" />
    <glyph glyph-name="degree" unicode="&#xb0;" horiz-adv-x="604" 
d="M193 1395q-41 -41 -41 -100.5t41 -102.5q41 -41 100 -41t100 41q43 43 43 102.5t-43 100.5q-41 43 -100 43t-100 -43zM125 1128q-69 69 -69 166t69 166t168 69t168 -69q72 -69 72 -166t-72 -166q-69 -69 -168 -69t-168 69z" />
    <glyph glyph-name="plusminus" unicode="&#xb1;" horiz-adv-x="1382" 
d="M1186 862v-69q0 -23 -23 -23h-399q-12 0 -12 -12v-375q0 -23 -23 -23h-76q-22 0 -22 23v375q0 12 -13 12h-397q-24 0 -24 23v69q0 23 24 23h397q13 0 13 12v375q0 22 22 22h76q23 0 23 -22v-375q0 -12 12 -12h399q23 0 23 -23zM197 152v69q0 23 22 23h942q23 0 23 -23
v-69q0 -23 -23 -23h-942q-22 0 -22 23z" />
    <glyph glyph-name="two.superior" unicode="&#xb2;" horiz-adv-x="684" 
d="M115 1794q65 59 209 59q126 0 202 -62t76 -155q0 -88 -67 -149q-47 -38 -170 -86q-120 -47 -162 -94q-27 -35 -27 -54q0 -12 14 -12h185q102 0 123 6q17 4 45 30t39 26q32 0 32 -37l-10 -72l-6 -33q-1 -9 -1.5 -14.5t-1.5 -10.5t-1.5 -6.5t-3.5 -7t-4 -8.5
q-9 -29 -64 -29q-4 0 -59.5 3.5t-85.5 3.5h-248q-68 0 -68 79q0 133 113 224q40 31 98 65q76 48 90 60q72 60 72 131q0 60 -31.5 92.5t-78.5 32.5q-70 0 -129 -95q-32 -69 -68 -69q-43 0 -43 82q0 69 31 100z" />
    <glyph glyph-name="three.superior" unicode="&#xb3;" horiz-adv-x="704" 
d="M428 1479q90 -6 147.5 -53.5t57.5 -129.5q0 -95 -85 -161t-233 -66q-79 0 -143 21t-88 57q-23 33 -23 104q0 74 45 74q15 4 28 -10t28.5 -45t19.5 -37q60 -84 146 -84q67 0 103 39.5t36 111.5q0 142 -143 142q-18 0 -50.5 -4t-33.5 -4q-19 0 -26 10t-7 39q0 47 33 47
q2 0 37 -4t53 -4q112 3 112 135q0 50 -30 83.5t-84 33.5q-80 0 -135 -105q-9 -19 -15 -29t-18.5 -20t-26.5 -10q-47 0 -47 84t45 110q74 51 209 51q120 0 193 -54.5t73 -137.5q0 -61 -45.5 -107.5t-128.5 -64.5q-12 -3 -12 -6q0 -6 8 -6z" />
    <glyph glyph-name="acute" unicode="&#xb4;" horiz-adv-x="940" 
d="M715 1452l-305 -192q-34 -21 -74 -21h-113q-14 0 -14 12q0 8 14 19l215 188q32 29 80 29h191q22 0 22 -14q0 -11 -16 -21z" />
    <glyph glyph-name="mu" unicode="&#xb5;" horiz-adv-x="1574" 
d="M657 1055l-129 -633q-24 -126 -24 -186q0 -119 90 -119q140 0 297 280q138 250 194 496l33 145q6 25 33 31l123 18q15 3 20 3q29 0 29 -21q0 -8 -2 -16l-117 -576q-49 -235 -49 -274q0 -60 39 -60q24 0 63 31q42 31 60 31q31 0 31 -33q0 -41 -66 -104q-97 -91 -197 -91
q-135 0 -135 156q0 58 23 186l2 13q0 9 -10 5q-6 -4 -11 -11q-109 -174 -208 -261.5t-216 -87.5q-111 0 -168 91q-3 6 -6 6t-6 -8l-45 -191q-17 -75 -20 -133q-3 -69 -9 -90q-15 -47 -92 -47q-73 0 -73 49q-3 14 9 48t32.5 87t31.5 90q74 240 140 553l49 248q16 80 33 167.5
t26.5 134.5t11.5 56q7 23 39 29l133 23q10 2 19 2q24 0 24 -21q0 -10 -2 -16z" />
    <glyph glyph-name="pilcrow" unicode="&#xb6;" horiz-adv-x="1343" 
d="M649 719h8q21 0 21 22v596q0 19 -27 19q-157 0 -252.5 -85t-95.5 -231q0 -141 93 -227t253 -94zM762 1462h385q57 0 57 -39q0 -12 -10.5 -23t-19 -16t-25.5 -14q-40 -24 -49 -59q-8 -31 -8 -137v-1344q0 -27 -29 -27h-64q-28 0 -28 27v1489q0 23 -8 31t-31 8h-113
q-22 0 -22 -23v-1505q0 -27 -27 -27h-68q-24 0 -24 25v760q0 26 -29 26q-88 0 -168 13.5t-153 45t-126 79t-84.5 118.5t-31.5 160q0 180 117 291q62 60 170 96q96 33 182 39q79 6 207 6z" />
    <glyph glyph-name="middot" unicode="&#xb7;" horiz-adv-x="579" 
d="M449 575q0 -35 -60 -98q-59 -59 -98 -59t-101 59q-59 62 -59 98q0 40 59 99q61 61 101 61t98 -61q60 -60 60 -99z" />
    <glyph glyph-name="cedilla" unicode="&#xb8;" horiz-adv-x="866" 
d="M362 2h107q-55 -55 -55 -90q0 -17 21.5 -27t52.5 -16.5t62.5 -16.5t53 -34.5t21.5 -61.5q0 -62 -64.5 -106.5t-161.5 -44.5q-62 0 -109.5 18.5t-47.5 44.5q0 13 9 23t25 10q4 0 41.5 -8t61.5 -8q44 0 65 18q19 16 19 39q0 27 -25.5 43t-56.5 22.5t-56.5 23.5t-25.5 46
q0 39 63 125z" />
    <glyph glyph-name="one.superior" unicode="&#xb9;" horiz-adv-x="509" 
d="M354 1831v-696q0 -27 -26 -27h-99q-26 0 -26 27v518q0 75 -8 88q-10 16 -54 16q-9 0 -39 -2t-36 -2q-11 0 -17 2t-11 13t-5 32q0 23 20 29l82 10q67 9 117 21q52 12 61 12q41 0 41 -41z" />
    <glyph glyph-name="ordmasculine" unicode="&#xba;" horiz-adv-x="897" 
d="M369 315q-21 18 -21 84q0 65 21 86q24 21 86 21t86 -21q20 -23 20 -86q0 -64 -20 -84q-22 -22 -86 -22t-86 22zM639 1051q0 69 -16 147q-14 69 -66 137q-51 66 -125 66q-80 0 -128 -70t-48 -188q-2 -59 10.5 -119.5t37 -114t66.5 -87t95 -34.5q81 0 127.5 76t46.5 187z
M82 1087q0 169 108 283q108 117 263 117q165 0 264 -111q98 -110 98 -278t-106 -283t-265 -115q-160 0 -262 105q-100 106 -100 282z" />
    <glyph glyph-name="guillemotright" unicode="&#xbb;" horiz-adv-x="1118" 
d="M154 936v108q0 11 8 11q6 0 10 -4l514 -451q12 -12 12 -18.5t-12 -18.5l-510 -446q-8 -8 -14 -8q-8 0 -8 10v108q0 26 18 41l348 305q8 9 0 17l-350 307q-16 16 -16 39zM559 936v108q0 11 10 11q7 0 13 -6l442 -390q10 -10 10 -30v-94q0 -24 -12 -33l-428 -377
q-22 -16 -25 -16q-10 0 -10 10v108q0 23 21 41l348 305q8 9 0 17l-350 307q-19 16 -19 39z" />
    <glyph glyph-name="onequarter" unicode="&#xbc;" horiz-adv-x="1466" 
d="M1288 272h72q24 0 24 -22v-68q0 -22 -24 -22h-74q-16 0 -16 -17v-120q0 -23 -23 -23h-104q-25 0 -25 25v118q0 17 -16 17h-322q-24 0 -24 26v68q0 36 20 53q190 181 199 436q0 19 20 19h101q18 0 18 -19q-3 -241 -240 -456q-8 -8 -8 -11q0 -4 6 -4h230q16 0 16 17v332
q0 20 21 20h108q23 0 23 -20v-332q0 -17 18 -17zM471 1462v-696q0 -27 -27 -27h-98q-27 0 -27 27v518q0 75 -8 88q-10 17 -53 17q-10 0 -40 -2.5t-36 -2.5q-16 0 -24 8.5t-8 39.5q0 22 20 28l82 10q68 9 117 21q53 12 61 12q41 0 41 -41zM244 197l819 1069h135l-821 -1069
h-133z" />
    <glyph glyph-name="onehalf" unicode="&#xbd;" horiz-adv-x="1517" 
d="M926 702q66 60 209 60q126 0 202 -62t76 -155q0 -89 -67 -150q-47 -38 -170 -86q-120 -47 -162 -94q-27 -35 -27 -53q0 -12 14 -12h185q102 0 123 6q17 4 45 29.5t39 25.5q32 0 32 -37l-10 -72l-6 -32q-1 -9 -1.5 -14.5t-1.5 -10.5t-1.5 -6.5t-3.5 -7t-4 -8.5
q-9 -29 -64 -29q-4 0 -59.5 3t-85.5 3h-248q-68 0 -68 80q0 132 113 223q45 35 98 66q83 52 91 59q71 59 71 131q0 60 -31.5 92.5t-78.5 32.5q-71 0 -129 -94q-32 -70 -68 -70q-43 0 -43 82q0 69 31 100zM471 1466v-696q0 -27 -27 -27h-98q-27 0 -27 27v518q0 75 -8 88
q-10 17 -53 17q-10 0 -40 -2t-36 -2q-11 0 -16.5 2t-10.5 13t-5 32q0 22 20 28l82 11q77 10 117 20q53 12 61 12q41 0 41 -41zM217 197l819 1069h135l-821 -1069h-133z" />
    <glyph glyph-name="threequarters" unicode="&#xbe;" horiz-adv-x="1570" 
d="M489 1110q91 -6 148 -53.5t57 -128.5q0 -96 -85 -162t-232 -66q-80 0 -144 21t-88 57q-22 31 -22 105q0 73 45 73q15 4 28 -10t28.5 -45t19.5 -37q60 -84 145 -84q67 0 103 40t36 112q0 141 -143 141q-18 0 -50.5 -4t-33.5 -4q-19 0 -26 10t-7 39q0 47 33 47q2 0 37 -4
t53 -4q113 3 113 135q0 50 -30 83.5t-85 33.5q-79 0 -135 -105q-10 -20 -15.5 -29.5t-17.5 -19.5t-26 -10q-48 0 -48 84t46 111q74 51 208 51q120 0 193.5 -55t73.5 -138q0 -61 -45.5 -107.5t-128.5 -64.5q-13 -3 -13 -6q0 -6 8 -6zM1393 272h71q25 0 25 -22v-68
q0 -22 -25 -22h-73q-17 0 -17 -17v-120q0 -23 -22 -23h-105q-24 0 -24 25v118q0 17 -17 17h-321q-25 0 -25 26v68q0 35 21 53q189 180 198 436q0 19 21 19h100q19 0 19 -19q-3 -241 -240 -456q-8 -8 -8 -11q0 -4 6 -4h229q17 0 17 17v332q0 20 20 20h109q22 0 22 -20v-332
q0 -17 19 -17zM362 197l820 1069h135l-821 -1069h-134z" />
    <glyph glyph-name="questiondown" unicode="&#xbf;" horiz-adv-x="1036" 
d="M86 -20q0 83 27 150t70.5 110.5t96 78.5t105 62t96 53.5t70.5 60t27 74.5q0 27 -13 42t-29 18.5t-29 13.5t-13 29q0 47 100 47q70 0 106.5 -33t36.5 -90q0 -103 -153 -223q-49 -36 -78 -59t-72.5 -64.5t-68 -78t-43.5 -87.5t-19 -104q0 -118 65 -193.5t175 -75.5
q98 0 155 60q58 58 58 125q0 36 -12.5 57t-31 29t-36.5 13.5t-30.5 17t-12.5 32.5q0 34 39 63t92 29q74 0 121 -54t47 -136q0 -132 -113 -236q-109 -106 -299 -106q-202 0 -319 108q-115 109 -115 267zM600 1114q40 0 98 -61q62 -62 62 -99q0 -36 -62 -98q-59 -59 -98 -59
q-36 0 -98 59q-60 63 -60 98q0 39 60 99q61 61 98 61z" />
    <glyph glyph-name="Agrave" unicode="&#xc0;" horiz-adv-x="1490" 
d="M711 1184l-242 -568q-4 -12 -4 -14q0 -12 14 -12h463q12 0 12 10q0 2 -4 14l-217 568q-6 16 -12 16q-4 0 -10 -14zM1391 113q18 -18 41.5 -30.5t35 -21.5t11.5 -24q0 -37 -58 -37h-340q-51 0 -51 37q0 22 43 43t43 63q0 40 -37 138l-69 180q-9 22 -39 22h-537
q-19 0 -28 -18q-89 -213 -89 -289q0 -35 15 -58.5t32.5 -32.5t32.5 -20.5t15 -25.5q0 -39 -60 -39h-284q-62 0 -62 35q0 15 18.5 29t52.5 42t60 68q38 56 82 156l502 1128q9 21 31 21h65q22 0 31 -21l446 -1165q51 -134 97 -180zM850 1642l-322 199q-10 7 -10 14q0 15 23 15
h188q45 0 82 -29l225 -190q17 -17 17 -19q0 -10 -15 -10h-112q-43 0 -76 20z" />
    <glyph glyph-name="Aacute" unicode="&#xc1;" horiz-adv-x="1490" 
d="M711 1184l-242 -568q-4 -12 -4 -14q0 -12 14 -12h463q12 0 12 10q0 2 -4 14l-217 568q-6 16 -12 16q-4 0 -10 -14zM1391 113q18 -18 41.5 -30.5t35 -21.5t11.5 -24q0 -37 -58 -37h-340q-51 0 -51 37q0 22 43 43t43 63q0 40 -37 138l-69 180q-9 22 -39 22h-537
q-19 0 -28 -18q-89 -213 -89 -289q0 -35 15 -58.5t32.5 -32.5t32.5 -20.5t15 -25.5q0 -39 -60 -39h-284q-62 0 -62 35q0 15 18.5 29t52.5 42t60 68q38 56 82 156l502 1128q9 21 31 21h65q22 0 31 -21l446 -1165q51 -134 97 -180zM1026 1835l-305 -193q-33 -20 -74 -20h-112
q-15 0 -15 12q0 7 15 19l215 188q32 29 79 29h191q22 0 22 -15q0 -10 -16 -20z" />
    <glyph glyph-name="Acircumflex" unicode="&#xc2;" horiz-adv-x="1490" 
d="M711 1184l-242 -568q-4 -12 -4 -14q0 -12 14 -12h463q12 0 12 10q0 2 -4 14l-217 568q-6 16 -12 16q-4 0 -10 -14zM1391 113q18 -18 41.5 -30.5t35 -21.5t11.5 -24q0 -37 -58 -37h-340q-51 0 -51 37q0 22 43 43t43 63q0 40 -37 138l-69 180q-9 22 -39 22h-537
q-19 0 -28 -18q-89 -213 -89 -289q0 -35 15 -58.5t32.5 -32.5t32.5 -20.5t15 -25.5q0 -39 -60 -39h-284q-62 0 -62 35q0 15 18.5 29t52.5 42t60 68q38 56 82 156l502 1128q9 21 31 21h65q22 0 31 -21l446 -1165q51 -134 97 -180zM586 1612h-86q-11 0 -11 8q0 1 11 16
l176 215q16 19 37 19h127q21 0 37 -19l176 -215q10 -13 10 -16q0 -8 -10 -8h-88q-17 0 -31 14l-152 154q-4 4 -6 4t-6 -4l-154 -156q-12 -12 -30 -12z" />
    <glyph glyph-name="Atilde" unicode="&#xc3;" horiz-adv-x="1490" 
d="M711 1184l-242 -568q-4 -12 -4 -14q0 -12 14 -12h463q12 0 12 10q0 2 -4 14l-217 568q-6 16 -12 16q-4 0 -10 -14zM1391 113q18 -18 41.5 -30.5t35 -21.5t11.5 -24q0 -37 -58 -37h-340q-51 0 -51 37q0 22 43 43t43 63q0 40 -37 138l-69 180q-9 22 -39 22h-537
q-19 0 -28 -18q-89 -213 -89 -289q0 -35 15 -58.5t32.5 -32.5t32.5 -20.5t15 -25.5q0 -39 -60 -39h-284q-62 0 -62 35q0 15 18.5 29t52.5 42t60 68q38 56 82 156l502 1128q9 21 31 21h65q22 0 31 -21l446 -1165q51 -134 97 -180zM475 1620l-26 8q-19 6 -19 19q0 8 2 12
q64 178 201 178q57 0 170 -43t155 -43q60 0 101 72q9 12 18 12q4 0 10 -2l23 -6q23 -7 23 -17q0 -4 -3 -10q-61 -178 -198 -178q-68 0 -178 43t-152 43q-58 0 -98 -76q-8 -14 -19 -14q-6 0 -10 2z" />
    <glyph glyph-name="Adieresis" unicode="&#xc4;" horiz-adv-x="1490" 
d="M711 1184l-242 -568q-4 -12 -4 -14q0 -12 14 -12h463q12 0 12 10q0 2 -4 14l-217 568q-6 16 -12 16q-4 0 -10 -14zM1391 113q18 -18 41.5 -30.5t35 -21.5t11.5 -24q0 -37 -58 -37h-340q-51 0 -51 37q0 22 43 43t43 63q0 40 -37 138l-69 180q-9 22 -39 22h-537
q-19 0 -28 -18q-89 -213 -89 -289q0 -35 15 -58.5t32.5 -32.5t32.5 -20.5t15 -25.5q0 -39 -60 -39h-284q-62 0 -62 35q0 15 18.5 29t52.5 42t60 68q38 56 82 156l502 1128q9 21 31 21h65q22 0 31 -21l446 -1165q51 -134 97 -180zM1047 1786q18 -18 18 -80q0 -60 -18 -78
t-78 -18q-62 0 -80 18q-21 18 -21 78q0 62 21 80q20 20 78 20q60 0 80 -20zM680 1786q18 -18 18 -80q0 -60 -18 -78t-78 -18q-61 0 -82 18q-18 18 -18 78q0 62 18 80q20 20 80 20t80 -20z" />
    <glyph glyph-name="Aring" unicode="&#xc5;" horiz-adv-x="1490" 
d="M711 1184l-242 -568q-4 -12 -4 -14q0 -12 14 -12h463q12 0 12 10q0 2 -4 14l-217 568q-6 16 -12 16q-4 0 -10 -14zM1391 113q18 -18 41.5 -30.5t35 -21.5t11.5 -24q0 -37 -58 -37h-340q-51 0 -51 37q0 22 43 43t43 63q0 40 -37 138l-69 180q-9 22 -39 22h-537
q-19 0 -28 -18q-89 -213 -89 -289q0 -35 15 -58.5t32.5 -32.5t32.5 -20.5t15 -25.5q0 -39 -60 -39h-284q-62 0 -62 35q0 15 18.5 29t52.5 42t60 68q38 56 82 156l502 1128q9 21 31 21h65q22 0 31 -21l446 -1165q51 -134 97 -180zM707 1759q-31 -31 -31 -75.5t31 -75.5
q32 -31 75 -31t74 31q32 31 32 75.5t-32 75.5q-31 32 -74 32t-75 -32zM649 1554q-54 54 -54 129t54 129q55 56 132.5 56t131.5 -56q55 -54 55 -129t-55 -129q-54 -54 -131 -54t-133 54z" />
    <glyph glyph-name="AE" unicode="&#xc6;" horiz-adv-x="2082" 
d="M535 588h471q16 0 16 16v680q0 12 -6 12q-3 0 -12 -12l-472 -674q-8 -11 -8 -16q0 -6 11 -6zM1946 399q57 0 57 -55q0 -28 -14 -74q-18 -75 -23 -102q-13 -67 -20 -96q-8 -36 -38 -63t-71 -27q-29 0 -125 8t-223 8h-533q-63 0 -63 39q0 21 45 47q49 31 63 70
q21 50 21 170v139q0 18 -18 18h-537q-21 0 -35 -20q-26 -48 -61 -92q-5 -9 -27 -41t-27 -41q-24 -43 -35 -63.5t-21.5 -46.5t-10.5 -42q0 -38 41 -59t41 -41q0 -37 -58 -37h-290q-58 0 -58 35q0 31 54 57q27 15 74 62t93 112l734 1030q18 27 18 39q0 28 -57 43
q-56 15 -56 45q0 39 56 39h649q112 0 229 6q120 9 131 9q81 0 84 -60q4 -86 4 -135q1 -24 3 -74t2 -67q0 -60 -58 -60q-39 0 -61 60l-10 26q-4 12 -7.5 19.5t-7.5 15.5t-8 17q-15 48 -78 92q-68 45 -307 45h-135q-45 0 -45 -43v-441q0 -30 9 -39.5t38 -9.5q109 0 203 4
q217 15 221 15q65 0 65 -39q0 -6 -2 -17.5t-4 -20.5l-2 -9q-5 -38 -21.5 -49t-72.5 -11q-4 0 -94 4t-105 4q-64 3 -207 3q-28 0 -28 -27v-361q0 -102 6.5 -139.5t28.5 -54.5q27 -21 151 -21q207 0 301 58q38 22 75.5 66.5t60.5 83t49 66t47 23.5z" />
    <glyph glyph-name="Ccedilla" unicode="&#xc7;" horiz-adv-x="1398" 
d="M823 92q194 0 320 187q11 16 53 83q8 14 23 25.5t28 11.5q58 0 58 -88q0 -172 -80 -237q-129 -97 -387 -97q-4 0 -16.5 1.5t-16.5 1.5q-32 -47 -32 -68t32 -33q13 -5 51 -14.5t61.5 -17.5t44.5 -31.5t21 -59.5q0 -63 -64 -107t-161 -44q-62 0 -110 18.5t-48 44.5
q0 13 9.5 23t25.5 10q4 0 41 -8t61 -8q45 0 66 18q18 15 18 39q0 27 -25.5 43t-56.5 22.5t-56.5 23.5t-25.5 46q0 32 52 111q-287 40 -459 248q-166 205 -166 491q0 337 223 547q227 213 543 213q117 0 235 -31q114 -27 158 -80q37 -40 37 -184q0 -59 -12 -85t-43 -26
q-26 0 -45 19q-11 13 -41 67t-47 76q-105 135 -285 135q-208 0 -352 -172t-144 -458q0 -309 152 -484q153 -172 360 -172z" />
    <glyph glyph-name="Egrave" unicode="&#xc8;" horiz-adv-x="1286" 
d="M1149 401q25 0 41 -16t16 -41q0 -18 -16 -80q-11 -32 -19 -86q-5 -35 -20 -96q-8 -39 -39.5 -68.5t-75.5 -29.5q-22 0 -118 8t-226 8h-532q-64 0 -64 39q0 21 43 45q46 27 64 70q22 55 22 198v824q0 97 -10 135q-9 40 -47 59l-13 6q-13 6 -19.5 10t-16.5 11t-13 14t0 14
q0 37 56 37h532q113 0 230 6q120 9 131 9q79 0 82 -58q10 -170 10 -280q0 -60 -60 -60q-37 0 -59 60l-12 28q-9 28 -27 60q-13 27 -28 43t-46 39q-76 49 -360 49h-80q-45 0 -45 -43v-447q0 -27 9 -36t38 -9q91 0 201 4l108 9q68 8 107 8q74 0 74 -41q0 -7 -3 -21.5t-3 -21.5
q-4 -38 -24.5 -51t-76.5 -13q-4 0 -94 4q-16 1 -38 2t-37 2t-25 1q-43 2 -209 2q-27 0 -27 -27v-356q0 -104 5.5 -139.5t27.5 -51.5q35 -27 149 -27q214 0 306 56q39 21 76 65t59 82.5t48 66.5t48 25zM684 1642l-322 199q-10 7 -10 14q0 15 23 15h188q45 0 82 -29l225 -190
q17 -17 17 -19q0 -10 -15 -10h-112q-43 0 -76 20z" />
    <glyph glyph-name="Eacute" unicode="&#xc9;" horiz-adv-x="1286" 
d="M1149 401q25 0 41 -16t16 -41q0 -18 -16 -80q-11 -32 -19 -86q-5 -35 -20 -96q-8 -39 -39.5 -68.5t-75.5 -29.5q-22 0 -118 8t-226 8h-532q-64 0 -64 39q0 21 43 45q46 27 64 70q22 55 22 198v824q0 97 -10 135q-9 40 -47 59l-13 6q-13 6 -19.5 10t-16.5 11t-13 14t0 14
q0 37 56 37h532q113 0 230 6q120 9 131 9q79 0 82 -58q10 -170 10 -280q0 -60 -60 -60q-37 0 -59 60l-12 28q-9 28 -27 60q-13 27 -28 43t-46 39q-76 49 -360 49h-80q-45 0 -45 -43v-447q0 -27 9 -36t38 -9q91 0 201 4l108 9q68 8 107 8q74 0 74 -41q0 -7 -3 -21.5t-3 -21.5
q-4 -38 -24.5 -51t-76.5 -13q-4 0 -94 4q-16 1 -38 2t-37 2t-25 1q-43 2 -209 2q-27 0 -27 -27v-356q0 -104 5.5 -139.5t27.5 -51.5q35 -27 149 -27q214 0 306 56q39 21 76 65t59 82.5t48 66.5t48 25zM907 1835l-305 -193q-33 -20 -74 -20h-112q-15 0 -15 12q0 7 15 19
l215 188q32 29 80 29h190q23 0 23 -15q0 -10 -17 -20z" />
    <glyph glyph-name="Ecircumflex" unicode="&#xca;" horiz-adv-x="1286" 
d="M1149 401q25 0 41 -16t16 -41q0 -18 -16 -80q-11 -32 -19 -86q-5 -35 -20 -96q-8 -39 -39.5 -68.5t-75.5 -29.5q-22 0 -118 8t-226 8h-532q-64 0 -64 39q0 21 43 45q46 27 64 70q22 55 22 198v824q0 97 -10 135q-9 40 -47 59l-13 6q-13 6 -19.5 10t-16.5 11t-13 14t0 14
q0 37 56 37h532q113 0 230 6q120 9 131 9q79 0 82 -58q10 -170 10 -280q0 -60 -60 -60q-37 0 -59 60l-12 28q-9 28 -27 60q-13 27 -28 43t-46 39q-76 49 -360 49h-80q-45 0 -45 -43v-447q0 -27 9 -36t38 -9q91 0 201 4l108 9q68 8 107 8q74 0 74 -41q0 -7 -3 -21.5t-3 -21.5
q-4 -38 -24.5 -51t-76.5 -13q-4 0 -94 4q-16 1 -38 2t-37 2t-25 1q-43 2 -209 2q-27 0 -27 -27v-356q0 -104 5.5 -139.5t27.5 -51.5q35 -27 149 -27q214 0 306 56q39 21 76 65t59 82.5t48 66.5t48 25zM449 1612h-87q-10 0 -10 8q0 3 10 16l177 215q16 19 36 19h127
q21 0 37 -19l176 -215q11 -15 11 -16q0 -8 -11 -8h-88q-16 0 -30 14l-152 154q-5 4 -6 4t-6 -4l-154 -156q-12 -12 -30 -12z" />
    <glyph glyph-name="Edieresis" unicode="&#xcb;" horiz-adv-x="1286" 
d="M1149 401q25 0 41 -16t16 -41q0 -18 -16 -80q-11 -32 -19 -86q-5 -35 -20 -96q-8 -39 -39.5 -68.5t-75.5 -29.5q-22 0 -118 8t-226 8h-532q-64 0 -64 39q0 21 43 45q46 27 64 70q22 55 22 198v824q0 97 -10 135q-9 40 -47 59l-13 6q-13 6 -19.5 10t-16.5 11t-13 14t0 14
q0 37 56 37h532q113 0 230 6q120 9 131 9q79 0 82 -58q10 -170 10 -280q0 -60 -60 -60q-37 0 -59 60l-12 28q-9 28 -27 60q-13 27 -28 43t-46 39q-76 49 -360 49h-80q-45 0 -45 -43v-447q0 -27 9 -36t38 -9q91 0 201 4l108 9q68 8 107 8q74 0 74 -41q0 -7 -3 -21.5t-3 -21.5
q-4 -38 -24.5 -51t-76.5 -13q-4 0 -94 4q-16 1 -38 2t-37 2t-25 1q-43 2 -209 2q-27 0 -27 -27v-356q0 -104 5.5 -139.5t27.5 -51.5q35 -27 149 -27q214 0 306 56q39 21 76 65t59 82.5t48 66.5t48 25zM879 1786q18 -18 18 -80q0 -60 -18 -78t-78 -18q-62 0 -80 18
q-21 18 -21 78q0 62 21 80q20 20 78 20q60 0 80 -20zM512 1786q18 -18 18 -80q0 -60 -18 -78t-78 -18q-61 0 -82 18q-18 18 -18 78q0 62 18 80q20 20 80 20t80 -20z" />
    <glyph glyph-name="Igrave" unicode="&#xcc;" horiz-adv-x="655" 
d="M430 1149v-797q0 -146 21 -196q18 -44 63 -70t45 -47q0 -39 -63 -39h-336q-64 0 -64 39q0 21 43 45q45 26 66 72q20 44 20 196v797q0 111 -10 156q-9 42 -43 65q-7 4 -29.5 14.5t-29.5 19t-7 23.5q0 35 58 35h328q55 0 55 -35q0 -8 -3 -14.5t-11 -12.5t-13.5 -9.5
t-18.5 -10.5t-18 -10q-36 -25 -45 -65q-8 -36 -8 -156zM395 1642l-321 199q-11 7 -11 14q0 15 23 15h188q45 0 82 -29l226 -190q16 -16 16 -19q0 -10 -14 -10h-113q-43 0 -76 20z" />
    <glyph glyph-name="Iacute" unicode="&#xcd;" horiz-adv-x="655" 
d="M430 1149v-797q0 -146 21 -196q18 -44 63 -70t45 -47q0 -39 -63 -39h-336q-64 0 -64 39q0 21 43 45q45 26 66 72q20 44 20 196v797q0 111 -10 156q-9 42 -43 65q-7 4 -29.5 14.5t-29.5 19t-7 23.5q0 35 58 35h328q55 0 55 -35q0 -8 -3 -14.5t-11 -12.5t-13.5 -9.5
t-18.5 -10.5t-18 -10q-36 -25 -45 -65q-8 -36 -8 -156zM571 1835l-305 -193q-33 -20 -73 -20h-113q-14 0 -14 12q0 8 14 19l215 188q32 29 80 29h190q23 0 23 -15q0 -10 -17 -20z" />
    <glyph glyph-name="Icircumflex" unicode="&#xce;" horiz-adv-x="655" 
d="M430 1149v-797q0 -146 21 -196q18 -44 63 -70t45 -47q0 -39 -63 -39h-336q-64 0 -64 39q0 21 43 45q45 26 66 72q20 44 20 196v797q0 111 -10 156q-9 42 -43 65q-7 4 -29.5 14.5t-29.5 19t-7 23.5q0 35 58 35h328q55 0 55 -35q0 -8 -3 -14.5t-11 -12.5t-13.5 -9.5
t-18.5 -10.5t-18 -10q-36 -25 -45 -65q-8 -36 -8 -156zM135 1612h-86q-10 0 -10 8q0 3 10 16l176 215q16 19 37 19h127q21 0 37 -19l176 -215q10 -13 10 -16q0 -8 -10 -8h-88q-17 0 -31 14l-151 154q-4 4 -6 4t-7 -4l-153 -156q-12 -12 -31 -12z" />
    <glyph glyph-name="Idieresis" unicode="&#xcf;" horiz-adv-x="655" 
d="M430 1149v-797q0 -146 21 -196q18 -44 63 -70t45 -47q0 -39 -63 -39h-336q-64 0 -64 39q0 21 43 45q45 26 66 72q20 44 20 196v797q0 111 -10 156q-9 42 -43 65q-7 4 -29.5 14.5t-29.5 19t-7 23.5q0 35 58 35h328q55 0 55 -35q0 -8 -3 -14.5t-11 -12.5t-13.5 -9.5
t-18.5 -10.5t-18 -10q-36 -25 -45 -65q-8 -36 -8 -156zM592 1786q18 -18 18 -80q0 -60 -18 -78t-78 -18q-62 0 -80 18q-20 17 -20 78q0 63 20 80q20 20 78 20q60 0 80 -20zM225 1786q19 -19 19 -80q0 -59 -19 -78q-18 -18 -78 -18t-81 18q-19 19 -19 78q0 61 19 80
q20 20 79 20q60 0 80 -20z" />
    <glyph glyph-name="Eth" unicode="&#xd0;" horiz-adv-x="1662" 
d="M1192 270q162 162 162 461q0 117 -27 219q-28 109 -99 203.5t-173 142.5q-84 40 -187 52q-102 12 -276 12q-45 0 -45 -43v-490q0 -20 22 -20q66 0 165.5 6t109.5 6q61 0 61 -35q0 -6 -2 -16.5t-4 -18t-2 -8.5q-7 -37 -24 -49t-60 -12q-3 0 -13.5 0.5l-31.5 1.5t-43 2
q-98 4 -156 4q-22 0 -22 -18v-371q0 -90 5 -120.5t23 -47.5q28 -25 119 -25q322 0 498 164zM1323 1292q119 -89 186.5 -227.5t67.5 -312.5q0 -298 -203 -519q-102 -108 -273 -170.5t-386 -62.5h-436q-66 0 -66 39q0 22 41 43q40 21 61 61q27 50 27 209v318q0 18 -23 18
q-62 0 -136.5 -5t-78.5 -5q-61 0 -61 33q0 6 2 16.5t4 18.5l2 8q6 34 21 47.5t51 13.5q5 0 34.5 -2t74 -4t87.5 -2q23 0 23 20v336q0 115 -8 148q-9 38 -49 59l-25 12q-22 10 -28.5 19t-6.5 24q0 37 56 37h356q272 0 420 -43q149 -42 266 -127z" />
    <glyph glyph-name="Ntilde" unicode="&#xd1;" horiz-adv-x="1595" 
d="M1133 1462h323q66 0 66 -39q0 -9 -3 -16t-11 -12.5t-12.5 -8t-17.5 -8t-16 -6.5q-51 -25 -74 -74t-30 -170q-8 -123 -8 -1118q0 -26 -29 -26h-82q-25 0 -41 22l-807 1133q-9 12 -14 12q-8 0 -8 -10q0 -684 8 -801q6 -113 38 -167.5t99 -82.5q51 -20 51 -51q0 -39 -59 -39
h-367q-61 0 -61 39q0 29 75 58q5 2 7 3q33 15 59.5 78.5t30.5 161.5q8 177 8 948q0 17 -12 29q-30 30 -60 43q-3 1 -37.5 13.5t-48.5 23t-10 24.5q0 41 64 41h215q48 0 69 -30l781 -1092q11 -14 14 -14q8 0 8 10q0 663 -6 792q-6 117 -30.5 168t-76.5 72q-1 0 -8 3
t-15.5 6.5t-10.5 4.5q-3 3 -12 9t-13 12.5t-4 17.5q0 41 68 41zM522 1620l-26 8q-19 6 -19 19q0 8 2 12q64 178 201 178q57 0 170 -43t156 -43q59 0 100 72q9 12 18 12q5 0 11 -2l22 -6q23 -7 23 -17q0 -6 -2 -10q-61 -178 -199 -178q-68 0 -178 43t-152 43q-58 0 -98 -76
q-8 -14 -19 -14q-6 0 -10 2z" />
    <glyph glyph-name="Ograve" unicode="&#xd2;" horiz-adv-x="1636" 
d="M805 1380q-231 0 -363 -178q-129 -176 -129 -426q0 -292 144 -491q144 -197 374 -197q222 0 357 170t135 442q0 97 -20 192.5t-63 183.5t-103 155.5t-146 108t-186 40.5zM1550 743q0 -308 -207 -538q-205 -228 -526 -228q-333 0 -534 201q-197 203 -197 533
q0 317 203 546q205 230 530 230q335 0 533 -207q198 -204 198 -537zM874 1642l-321 199q-10 7 -10 14q0 15 22 15h189q45 0 82 -29l225 -190q16 -16 16 -19q0 -10 -14 -10h-113q-43 0 -76 20z" />
    <glyph glyph-name="Oacute" unicode="&#xd3;" horiz-adv-x="1636" 
d="M805 1380q-231 0 -363 -178q-129 -176 -129 -426q0 -292 144 -491q144 -197 374 -197q222 0 357 170t135 442q0 97 -20 192.5t-63 183.5t-103 155.5t-146 108t-186 40.5zM1550 743q0 -308 -207 -538q-205 -228 -526 -228q-333 0 -534 201q-197 203 -197 533
q0 317 203 546q205 230 530 230q335 0 533 -207q198 -204 198 -537zM1114 1835l-305 -193q-33 -20 -74 -20h-112q-15 0 -15 12q0 7 15 19l215 188q32 29 80 29h190q22 0 22 -15q0 -10 -16 -20z" />
    <glyph glyph-name="Ocircumflex" unicode="&#xd4;" horiz-adv-x="1636" 
d="M805 1380q-231 0 -363 -178q-129 -176 -129 -426q0 -292 144 -491q144 -197 374 -197q222 0 357 170t135 442q0 97 -20 192.5t-63 183.5t-103 155.5t-146 108t-186 40.5zM1550 743q0 -308 -207 -538q-205 -228 -526 -228q-333 0 -534 201q-197 203 -197 533
q0 317 203 546q205 230 530 230q335 0 533 -207q198 -204 198 -537zM631 1612h-86q-10 0 -10 8q0 3 10 16l176 215q16 19 37 19h127q21 0 37 -19l176 -215q10 -13 10 -16q0 -8 -10 -8h-88q-17 0 -31 14l-152 154q-5 4 -6 4t-6 -4l-153 -156q-12 -12 -31 -12z" />
    <glyph glyph-name="Otilde" unicode="&#xd5;" horiz-adv-x="1636" 
d="M508 1620l-27 8q-18 6 -18 19q0 8 2 12q64 178 201 178q57 0 170 -43t155 -43q60 0 101 72q9 12 18 12q4 0 10 -2l23 -6q22 -6 22 -17q0 -6 -2 -10q-61 -178 -198 -178q-69 0 -179 43t-151 43q-58 0 -98 -76q-8 -14 -19 -14q-6 0 -10 2zM805 1380q-231 0 -363 -178
q-129 -176 -129 -426q0 -292 144 -491q144 -197 374 -197q222 0 357 170t135 442q0 97 -20 192.5t-63 183.5t-103 155.5t-146 108t-186 40.5zM1550 743q0 -308 -207 -538q-205 -228 -526 -228q-333 0 -534 201q-197 203 -197 533q0 317 203 546q205 230 530 230
q335 0 533 -207q198 -204 198 -537z" />
    <glyph glyph-name="Odieresis" unicode="&#xd6;" horiz-adv-x="1636" 
d="M805 1380q-231 0 -363 -178q-129 -176 -129 -426q0 -292 144 -491q144 -197 374 -197q222 0 357 170t135 442q0 97 -20 192.5t-63 183.5t-103 155.5t-146 108t-186 40.5zM1550 743q0 -308 -207 -538q-205 -228 -526 -228q-333 0 -534 201q-197 203 -197 533
q0 317 203 546q205 230 530 230q335 0 533 -207q198 -204 198 -537zM1083 1786q19 -19 19 -80q0 -60 -18 -78t-78 -18q-62 0 -80 18q-21 18 -21 78q0 62 21 80q20 20 78 20q59 0 79 -20zM717 1786q18 -18 18 -80q0 -60 -18 -78t-78 -18q-61 0 -82 18q-18 18 -18 78
q0 62 18 80q20 20 80 20t80 -20z" />
    <glyph glyph-name="multiply" unicode="&#xd7;" horiz-adv-x="1239" 
d="M197 1065l90 88l331 -334l334 334l90 -88l-333 -334l333 -334l-90 -88l-334 334l-331 -334l-90 88l333 334z" />
    <glyph glyph-name="Oslash" unicode="&#xd8;" horiz-adv-x="1654" 
d="M416 377q8 -13 20 0l740 799q6 6 6 10q0 8 -8 16q-150 176 -359 176q-228 0 -360 -176q-131 -174 -131 -428q0 -208 92 -397zM842 88q226 0 358 172q133 174 133 430q0 205 -92 397q-8 13 -18 3l-736 -797q-10 -10 -10.5 -15t6.5 -12q138 -178 359 -178zM1386 1251
q173 -197 173 -501q0 -322 -207 -549q-205 -224 -525 -224q-273 0 -469 146q-8 8 -16 8q-4 0 -8 -4l-107 -115q-12 -12 -30 -12h-88q-11 0 -11 8q0 4 4 8l162 177q8 8 -2 20q-166 193 -166 498q-4 152 50 294t149 248.5t234.5 170t297.5 61.5q272 0 467 -148q8 -8 17 -8
q4 0 12 8l107 115q10 10 26 10h90q10 0 10 -8q0 -4 -6 -10l-164 -176q-8 -8 0 -17z" />
    <glyph glyph-name="Ugrave" unicode="&#xd9;" horiz-adv-x="1519" 
d="M1092 1462h323q66 0 66 -37q1 -8 -2.5 -15t-11.5 -13t-14 -9.5t-17 -8.5t-15 -7q-51 -23 -73 -72q-20 -44 -29 -172q-6 -92 -6 -303v-159q0 -171 -10 -269q-9 -84 -52 -166q-131 -254 -491 -254q-413 0 -522 269q-43 113 -43 295v659q0 86 -10 116.5t-46 53.5l-9 4.5
t-12 5.5t-13.5 7t-12.5 8.5t-10 9t-5.5 10t1.5 10.5q0 37 55 37h330q55 0 55 -37q0 -15 -6 -24q-4 -4 -16.5 -11.5t-24 -13t-12.5 -6.5q-39 -20 -49 -57q-9 -35 -9 -135v-603q0 -154 35 -247q82 -211 361 -211q396 0 399 428v231q0 268 -4 354q-9 153 -51 201q-20 24 -68 41
q-49 21 -49 49q0 41 68 41zM825 1642l-321 199q-10 7 -10 14q0 15 22 15h189q44 0 81 -29l226 -190q16 -16 16 -19q0 -10 -14 -10h-113q-43 0 -76 20z" />
    <glyph glyph-name="Uacute" unicode="&#xda;" horiz-adv-x="1519" 
d="M1092 1462h323q66 0 66 -37q1 -8 -2.5 -15t-11.5 -13t-14 -9.5t-17 -8.5t-15 -7q-51 -23 -73 -72q-20 -44 -29 -172q-6 -92 -6 -303v-159q0 -171 -10 -269q-9 -84 -52 -166q-131 -254 -491 -254q-413 0 -522 269q-43 113 -43 295v659q0 86 -10 116.5t-46 53.5l-9 4.5
t-12 5.5t-13.5 7t-12.5 8.5t-10 9t-5.5 10t1.5 10.5q0 37 55 37h330q55 0 55 -37q0 -15 -6 -24q-4 -4 -16.5 -11.5t-24 -13t-12.5 -6.5q-39 -20 -49 -57q-9 -35 -9 -135v-603q0 -154 35 -247q82 -211 361 -211q396 0 399 428v231q0 268 -4 354q-9 153 -51 201q-20 24 -68 41
q-49 21 -49 49q0 41 68 41zM1044 1835l-305 -193q-33 -20 -73 -20h-113q-14 0 -14 12q0 8 14 19l215 188q32 29 80 29h190q23 0 23 -15q0 -10 -17 -20z" />
    <glyph glyph-name="Ucircumflex" unicode="&#xdb;" horiz-adv-x="1519" 
d="M1092 1462h323q66 0 66 -37q1 -8 -2.5 -15t-11.5 -13t-14 -9.5t-17 -8.5t-15 -7q-51 -23 -73 -72q-20 -44 -29 -172q-6 -92 -6 -303v-159q0 -171 -10 -269q-9 -84 -52 -166q-131 -254 -491 -254q-413 0 -522 269q-43 113 -43 295v659q0 86 -10 116.5t-46 53.5l-9 4.5
t-12 5.5t-13.5 7t-12.5 8.5t-10 9t-5.5 10t1.5 10.5q0 37 55 37h330q55 0 55 -37q0 -15 -6 -24q-4 -4 -16.5 -11.5t-24 -13t-12.5 -6.5q-39 -20 -49 -57q-9 -35 -9 -135v-603q0 -154 35 -247q82 -211 361 -211q396 0 399 428v231q0 268 -4 354q-9 153 -51 201q-20 24 -68 41
q-49 21 -49 49q0 41 68 41zM586 1612h-86q-11 0 -11 8q0 1 11 16l176 215q16 19 37 19h127q21 0 37 -19l176 -215q10 -13 10 -16q0 -8 -10 -8h-88q-17 0 -31 14l-152 154q-4 4 -6 4t-6 -4l-154 -156q-12 -12 -30 -12z" />
    <glyph glyph-name="Udieresis" unicode="&#xdc;" horiz-adv-x="1519" 
d="M1092 1462h323q66 0 66 -37q1 -8 -2.5 -15t-11.5 -13t-14 -9.5t-17 -8.5t-15 -7q-51 -23 -73 -72q-20 -44 -29 -172q-6 -92 -6 -303v-159q0 -171 -10 -269q-9 -84 -52 -166q-131 -254 -491 -254q-413 0 -522 269q-43 113 -43 295v659q0 86 -10 116.5t-46 53.5l-9 4.5
t-12 5.5t-13.5 7t-12.5 8.5t-10 9t-5.5 10t1.5 10.5q0 37 55 37h330q55 0 55 -37q0 -15 -6 -24q-4 -4 -16.5 -11.5t-24 -13t-12.5 -6.5q-39 -20 -49 -57q-9 -35 -9 -135v-603q0 -154 35 -247q82 -211 361 -211q396 0 399 428v231q0 268 -4 354q-9 153 -51 201q-20 24 -68 41
q-49 21 -49 49q0 41 68 41zM1040 1786q19 -19 19 -80q0 -60 -18 -78t-78 -18q-62 0 -80 18q-21 18 -21 78q0 62 21 80q20 20 78 20q59 0 79 -20zM674 1786q18 -18 18 -80q0 -60 -18 -78t-78 -18q-61 0 -82 18q-18 18 -18 78q0 62 18 80q20 20 80 20t80 -20z" />
    <glyph glyph-name="Yacute" unicode="&#xdd;" horiz-adv-x="1398" 
d="M1038 1462h283q63 0 63 -35q0 -19 -12.5 -28.5t-45.5 -31.5t-66 -60q-35 -40 -115 -162l-348 -565q-6 -9 -6 -23v-201q0 -157 28 -215q17 -33 58 -57q41 -21 41 -45q0 -39 -56 -39h-348q-57 0 -57 39q0 23 45 49q47 27 63 70q21 52 21 198v148q0 18 -8 31l-347 634
q-86 159 -106 179q-13 16 -53 34q-39 20 -39 43q0 37 61 37h344q51 0 51 -35q0 -24 -43 -45q-40 -21 -40 -61q0 -43 53 -143l266 -490q8 -11 16 0l220 363q110 180 110 252q0 44 -47 71q-45 26 -45 51q0 37 59 37zM977 1835l-305 -193q-33 -20 -74 -20h-113q-14 0 -14 12
q0 8 14 19l215 188q32 29 80 29h191q22 0 22 -15q0 -10 -16 -20z" />
    <glyph glyph-name="Thorn" unicode="&#xde;" horiz-adv-x="1269" 
d="M922 580q43 73 43 174q0 110 -54 186q-52 72 -133 99.5t-217 27.5h-106q-25 0 -25 -23v-591q0 -23 25 -23h94q147 2 236 36t137 114zM1081 1040q105 -105 105 -268q0 -113 -51 -205q-137 -245 -560 -245h-122q-23 0 -23 -19q0 -101 19 -147q18 -44 63 -70q47 -27 47 -47
q0 -39 -65 -39h-334q-64 0 -64 39q0 16 12.5 26.5t29 17.5t37 27.5t32.5 51.5q18 47 18 190v797q0 110 -10 158q-9 42 -43 63q-11 9 -30 17t-27.5 16t-8.5 24q0 35 58 35h328q55 0 55 -35q0 -7 -3 -14t-6.5 -11t-11.5 -9t-12.5 -7.5t-16.5 -8t-16 -7.5q-30 -18 -39.5 -52
t-11.5 -122q0 -22 25 -22h86q144 -4 164 -5q60 -4 131 -14q82 -10 139 -38t106 -77z" />
    <glyph glyph-name="scharfess" unicode="&#xdf;" horiz-adv-x="1249" 
d="M983 647q63 -44 96 -74q44 -37 78.5 -99t34.5 -124q0 -150 -129 -264q-124 -106 -315 -106q-179 0 -179 129q0 84 62 84q14 0 45.5 -22.5t77 -45.5t92.5 -23q74 0 126 47.5t52 116.5q0 62 -47.5 116.5t-161.5 127.5q-121 76 -176 141t-55 146q0 56 31 110.5t116 147.5
q123 132 123 223q0 64 -47.5 102.5t-118.5 38.5q-105 0 -176 -71q-50 -50 -69 -123.5t-19 -214.5v-652q0 -153 25 -208q18 -37 61 -64t43 -47q0 -39 -57 -39h-340q-56 0 -56 39q0 24 47 51t62 68q18 49 18 200q0 117 -2 254v279q0 16 -18 16h-125q-25 0 -25 23v71
q0 21 25 21h137q17 0 17 16q21 179 90 279q67 99 182.5 157t243.5 58q131 0 217 -57q90 -59 90 -162q0 -58 -36.5 -111t-119.5 -125q-81 -70 -112 -111.5t-31 -84.5q0 -54 45 -99q48 -48 178 -135z" />
    <glyph glyph-name="agrave" unicode="&#xe0;" horiz-adv-x="1079" 
d="M700 543v35q0 8 -6 8t-14 -8q-46 -33 -148 -76q-110 -48 -157 -80q-103 -68 -103 -170q0 -68 44 -112t120 -44q66 0 126.5 38t94.5 108q43 87 43 301zM965 125h24q35 0 35 -33q0 -35 -47 -76q-45 -39 -107 -39q-61 0 -104.5 41t-50.5 121q0 11 -4 11q-3 0 -9 -9
q-53 -78 -140 -121t-187 -43q-140 0 -230 76.5t-90 188.5q0 140 127 223q59 39 187 86q124 46 159 61q172 76 172 207q0 76 -48.5 122t-129.5 46q-58 0 -106 -26q-43 -23 -68 -48t-63 -77q-8 -10 -25 -38t-20 -32q-20 -25 -47 -25q-58 0 -58 101q0 105 35 149q42 51 137 74
q102 27 201 27q188 0 292.5 -95t104.5 -256q0 -22 -4 -256q-2 -117 -2 -256q0 -104 66 -104zM578 1260l-322 198q-10 7 -10 15q0 14 22 14h189q45 0 82 -29l225 -190q16 -16 16 -19q0 -10 -14 -10h-113q-41 0 -75 21z" />
    <glyph glyph-name="aacute" unicode="&#xe1;" horiz-adv-x="1079" 
d="M700 543v35q0 8 -6 8t-14 -8q-46 -33 -148 -76q-110 -48 -157 -80q-103 -68 -103 -170q0 -68 44 -112t120 -44q66 0 126.5 38t94.5 108q43 87 43 301zM965 125h24q35 0 35 -33q0 -35 -47 -76q-45 -39 -107 -39q-61 0 -104.5 41t-50.5 121q0 11 -4 11q-3 0 -9 -9
q-53 -78 -140 -121t-187 -43q-140 0 -230 76.5t-90 188.5q0 140 127 223q59 39 187 86q124 46 159 61q172 76 172 207q0 76 -48.5 122t-129.5 46q-58 0 -106 -26q-43 -23 -68 -48t-63 -77q-8 -10 -25 -38t-20 -32q-20 -25 -47 -25q-58 0 -58 101q0 105 35 149q42 51 137 74
q102 27 201 27q188 0 292.5 -95t104.5 -256q0 -22 -4 -256q-2 -117 -2 -256q0 -104 66 -104zM772 1452l-305 -192q-34 -21 -74 -21h-112q-15 0 -15 12q0 7 15 19l215 188q32 29 79 29h191q22 0 22 -14q0 -11 -16 -21z" />
    <glyph glyph-name="acircumflex" unicode="&#xe2;" horiz-adv-x="1079" 
d="M700 543v35q0 8 -6 8t-14 -8q-46 -33 -148 -76q-110 -48 -157 -80q-103 -68 -103 -170q0 -68 44 -112t120 -44q66 0 126.5 38t94.5 108q43 87 43 301zM965 125h24q35 0 35 -33q0 -35 -47 -76q-45 -39 -107 -39q-61 0 -104.5 41t-50.5 121q0 11 -4 11q-3 0 -9 -9
q-53 -78 -140 -121t-187 -43q-140 0 -230 76.5t-90 188.5q0 140 127 223q59 39 187 86q124 46 159 61q172 76 172 207q0 76 -48.5 122t-129.5 46q-58 0 -106 -26q-43 -23 -68 -48t-63 -77q-8 -10 -25 -38t-20 -32q-20 -25 -47 -25q-58 0 -58 101q0 105 35 149q42 51 137 74
q102 27 201 27q188 0 292.5 -95t104.5 -256q0 -22 -4 -256q-2 -117 -2 -256q0 -104 66 -104zM328 1229h-86q-11 0 -11 8q0 1 11 16l176 215q16 19 37 19h127q20 0 36 -19l177 -215q10 -13 10 -16q0 -8 -10 -8h-88q-17 0 -31 14l-152 154q-4 5 -6 5t-6 -5l-154 -156
q-12 -12 -30 -12z" />
    <glyph glyph-name="atilde" unicode="&#xe3;" horiz-adv-x="1079" 
d="M700 543v35q0 8 -6 8t-14 -8q-46 -33 -148 -76q-110 -48 -157 -80q-103 -68 -103 -170q0 -68 44 -112t120 -44q66 0 126.5 38t94.5 108q43 87 43 301zM965 125h24q35 0 35 -33q0 -35 -47 -76q-45 -39 -107 -39q-61 0 -104.5 41t-50.5 121q0 11 -4 11q-3 0 -9 -9
q-53 -78 -140 -121t-187 -43q-140 0 -230 76.5t-90 188.5q0 140 127 223q59 39 187 86q124 46 159 61q172 76 172 207q0 76 -48.5 122t-129.5 46q-58 0 -106 -26q-43 -23 -68 -48t-63 -77q-8 -10 -25 -38t-20 -32q-20 -25 -47 -25q-58 0 -58 101q0 105 35 149q42 51 137 74
q102 27 201 27q188 0 292.5 -95t104.5 -256q0 -22 -4 -256q-2 -117 -2 -256q0 -104 66 -104zM219 1270l-26 8q-19 6 -19 18q0 9 2 13q64 178 201 178q57 0 170 -43t155 -43q60 0 101 72q9 12 18 12q4 0 10 -2l23 -6q23 -7 23 -17q0 -4 -3 -10q-61 -178 -198 -178
q-68 0 -178 43t-152 43q-58 0 -98 -76q-8 -14 -19 -14q-6 0 -10 2z" />
    <glyph glyph-name="adieresis" unicode="&#xe4;" horiz-adv-x="1079" 
d="M700 543v35q0 8 -6 8t-14 -8q-46 -33 -148 -76q-110 -48 -157 -80q-103 -68 -103 -170q0 -68 44 -112t120 -44q66 0 126.5 38t94.5 108q43 87 43 301zM965 125h24q35 0 35 -33q0 -35 -47 -76q-45 -39 -107 -39q-61 0 -104.5 41t-50.5 121q0 11 -4 11q-3 0 -9 -9
q-53 -78 -140 -121t-187 -43q-140 0 -230 76.5t-90 188.5q0 140 127 223q59 39 187 86q124 46 159 61q172 76 172 207q0 76 -48.5 122t-129.5 46q-58 0 -106 -26q-43 -23 -68 -48t-63 -77q-8 -10 -25 -38t-20 -32q-20 -25 -47 -25q-58 0 -58 101q0 105 35 149q42 51 137 74
q102 27 201 27q188 0 292.5 -95t104.5 -256q0 -22 -4 -256q-2 -117 -2 -256q0 -104 66 -104zM782 1442q19 -19 19 -80q0 -60 -18 -78t-78 -18q-62 0 -80 18q-21 18 -21 78q0 62 21 80q20 20 77 20q60 0 80 -20zM416 1442q18 -18 18 -80q0 -60 -18 -78t-78 -18q-61 0 -82 18
q-18 18 -18 78q0 62 18 80q20 20 80 20t80 -20z" />
    <glyph glyph-name="aring" unicode="&#xe5;" horiz-adv-x="1079" 
d="M700 543v35q0 8 -6 8t-14 -8q-46 -33 -148 -76q-110 -48 -157 -80q-103 -68 -103 -170q0 -68 44 -112t120 -44q66 0 126.5 38t94.5 108q43 87 43 301zM965 125h24q35 0 35 -33q0 -35 -47 -76q-45 -39 -107 -39q-61 0 -104.5 41t-50.5 121q0 11 -4 11q-3 0 -9 -9
q-53 -78 -140 -121t-187 -43q-140 0 -230 76.5t-90 188.5q0 140 127 223q59 39 187 86q124 46 159 61q172 76 172 207q0 76 -48.5 122t-129.5 46q-58 0 -106 -26q-43 -23 -68 -48t-63 -77q-8 -10 -25 -38t-20 -32q-20 -25 -47 -25q-58 0 -58 101q0 105 35 149q42 51 137 74
q102 27 201 27q188 0 292.5 -95t104.5 -256q0 -22 -4 -256q-2 -117 -2 -256q0 -104 66 -104zM438 1421q-31 -31 -31 -75.5t31 -75.5q32 -31 75.5 -31t74.5 31q32 31 32 75.5t-32 75.5q-31 32 -74.5 32t-75.5 -32zM381 1217q-54 54 -54 129t54 129q55 55 132.5 55t131.5 -55
q55 -54 55 -129t-55 -129q-54 -54 -131.5 -54t-132.5 54z" />
    <glyph glyph-name="ae" unicode="&#xe6;" horiz-adv-x="1712" 
d="M655 244q45 89 45 331q0 11 -8 11q-6 0 -14 -8q-45 -33 -146 -76q-110 -48 -157 -80q-103 -68 -103 -170q0 -69 45 -112.5t117 -43.5q144 0 221 148zM911 696q-2 -8 -2 -18q0 -12 17 -12h334q111 0 143 32q29 29 29 86q0 78 -64 142q-62 65 -166 65q-111 0 -190.5 -82
t-100.5 -213zM1479 563h-555q-23 0 -23 -20v-15q0 -168 88 -278q94 -125 252 -125q64 0 126.5 21t98.5 49q10 7 27 20t26.5 20.5t21 15.5t19.5 11.5t13 3.5q19 0 32 -12.5t13 -32.5q0 -62 -125 -153q-130 -91 -303 -91q-137 0 -251.5 65.5t-180.5 190.5
q-36 -115 -143.5 -185.5t-239.5 -70.5q-130 0 -225 68q-95 71 -95 199q0 140 127 223q50 33 185 84q110 41 161 61q172 76 172 213q0 73 -49.5 117.5t-128.5 44.5q-134 0 -229 -139l-49 -76q-7 -12 -22.5 -21.5t-31.5 -9.5q-55 0 -55 101q0 105 35 149q40 52 141 76
q106 25 199 25q241 0 342 -168q156 170 367 170q192 0 307 -121q114 -120 114 -264q0 -79 -32 -111q-35 -35 -129 -35z" />
    <glyph glyph-name="ccedilla" unicode="&#xe7;" horiz-adv-x="1036" 
d="M965 221q0 -57 -107 -145q-110 -87 -268 -96q-32 -47 -32 -68t32 -33q13 -5 51 -14.5t61.5 -17.5t44.5 -31.5t21 -59.5q0 -63 -64 -107t-161 -44q-63 0 -110.5 18.5t-47.5 44.5q0 13 9.5 23t25.5 10q4 0 41 -8t61 -8q45 0 66 18q18 15 18 39t-24 41t-58 24q-6 3 -21.5 9
t-22 9t-17.5 10t-14 14.5t-5.5 20t3 27.5t16.5 36.5t29 48.5q-181 21 -293 151q-113 131 -113 338q0 248 154 434q156 187 403 187q181 0 254 -76q39 -39 39 -137q0 -125 -59 -125q-34 0 -50 28q-24 48 -39 72q-77 127 -202 127t-211 -115q-84 -116 -84 -301q0 -183 86 -313
q89 -129 252 -129q55 0 110.5 21.5t89.5 47t62.5 47t36.5 21.5q37 0 37 -39z" />
    <glyph glyph-name="egrave" unicode="&#xe8;" horiz-adv-x="1103" 
d="M303 700q-2 -10 -2 -22t16 -12h334q94 0 133 26t39 92q0 79 -63 142q-62 65 -164 65q-114 0 -193 -82.5t-100 -208.5zM965 264q45 0 45 -43q0 -62 -125 -153q-126 -91 -303 -91q-227 0 -363 154q-135 153 -135 373q0 235 149 409q150 179 381 179q84 0 155.5 -26
t118.5 -67.5t80.5 -93t48.5 -101.5t15 -95q0 -83 -37 -113.5t-125 -32.5h-555q-22 0 -22 -20v-11q0 -167 92 -288q91 -119 248 -119q62 0 123.5 21.5t99.5 48t69.5 48t39.5 21.5zM651 1260l-321 198q-11 7 -11 15q0 14 23 14h188q45 0 82 -29l226 -190q16 -16 16 -19
q0 -10 -14 -10h-113q-41 0 -76 21z" />
    <glyph glyph-name="eacute" unicode="&#xe9;" horiz-adv-x="1103" 
d="M303 700q-2 -10 -2 -22t16 -12h334q94 0 133 26t39 92q0 79 -63 142q-62 65 -164 65q-114 0 -193 -82.5t-100 -208.5zM965 264q45 0 45 -43q0 -62 -125 -153q-126 -91 -303 -91q-227 0 -363 154q-135 153 -135 373q0 235 149 409q150 179 381 179q84 0 155.5 -26
t118.5 -67.5t80.5 -93t48.5 -101.5t15 -95q0 -83 -37 -113.5t-125 -32.5h-555q-22 0 -22 -20v-11q0 -167 92 -288q91 -119 248 -119q62 0 123.5 21.5t99.5 48t69.5 48t39.5 21.5zM840 1452l-305 -192q-35 -21 -74 -21h-113q-14 0 -14 12q0 8 14 19l215 188q32 29 80 29h191
q22 0 22 -14q0 -11 -16 -21z" />
    <glyph glyph-name="ecircumflex" unicode="&#xea;" horiz-adv-x="1103" 
d="M303 700q-2 -10 -2 -22t16 -12h334q94 0 133 26t39 92q0 79 -63 142q-62 65 -164 65q-114 0 -193 -82.5t-100 -208.5zM965 264q45 0 45 -43q0 -62 -125 -153q-126 -91 -303 -91q-227 0 -363 154q-135 153 -135 373q0 235 149 409q150 179 381 179q84 0 155.5 -26
t118.5 -67.5t80.5 -93t48.5 -101.5t15 -95q0 -83 -37 -113.5t-125 -32.5h-555q-22 0 -22 -20v-11q0 -167 92 -288q91 -119 248 -119q62 0 123.5 21.5t99.5 48t69.5 48t39.5 21.5zM395 1229h-86q-10 0 -10 8q0 3 10 16l176 215q16 19 37 19h127q21 0 37 -19l176 -215
q10 -13 10 -16q0 -8 -10 -8h-88q-17 0 -31 14l-151 154q-4 5 -6 5t-6 -5l-154 -156q-12 -12 -31 -12z" />
    <glyph glyph-name="edieresis" unicode="&#xeb;" horiz-adv-x="1103" 
d="M303 700q-2 -10 -2 -22t16 -12h334q94 0 133 26t39 92q0 79 -63 142q-62 65 -164 65q-114 0 -193 -82.5t-100 -208.5zM965 264q45 0 45 -43q0 -62 -125 -153q-126 -91 -303 -91q-227 0 -363 154q-135 153 -135 373q0 235 149 409q150 179 381 179q84 0 155.5 -26
t118.5 -67.5t80.5 -93t48.5 -101.5t15 -95q0 -83 -37 -113.5t-125 -32.5h-555q-22 0 -22 -20v-11q0 -167 92 -288q91 -119 248 -119q62 0 123.5 21.5t99.5 48t69.5 48t39.5 21.5zM846 1442q18 -18 18 -80q0 -60 -18 -78t-78 -18q-62 0 -80 18q-20 17 -20 78q0 63 20 80
q20 20 78 20q60 0 80 -20zM479 1442q19 -19 19 -80q0 -60 -18.5 -78t-78.5 -18q-61 0 -82 18q-18 18 -18 78q0 62 18 80q20 20 80 20t80 -20z" />
    <glyph glyph-name="igrave" unicode="&#xec;" horiz-adv-x="624" 
d="M422 1038v-680q0 -158 24 -208q17 -36 62 -64q43 -27 43 -47q0 -39 -57 -39h-342q-56 0 -56 39q0 22 43 49q47 27 62 62q24 50 24 208v365q0 135 -20 168q-16 28 -68 43q-49 18 -49 41q0 35 57 47q115 24 195 59q29 11 39 11q43 0 43 -54zM379 1260l-322 198
q-10 7 -10 15q0 14 23 14h188q45 0 82 -29l225 -190q17 -17 17 -19q0 -10 -15 -10h-112q-41 0 -76 21z" />
    <glyph glyph-name="iacute" unicode="&#xed;" horiz-adv-x="624" 
d="M422 1038v-680q0 -158 24 -208q17 -36 62 -64q43 -27 43 -47q0 -39 -57 -39h-342q-56 0 -56 39q0 22 43 49q47 27 62 62q24 50 24 208v365q0 135 -20 168q-16 28 -68 43q-49 18 -49 41q0 35 57 47q115 24 195 59q29 11 39 11q43 0 43 -54zM555 1452l-305 -192
q-35 -21 -74 -21h-113q-14 0 -14 12q0 8 14 19l216 188q32 29 79 29h191q22 0 22 -14q0 -11 -16 -21z" />
    <glyph glyph-name="icircumflex" unicode="&#xee;" horiz-adv-x="624" 
d="M422 1038v-680q0 -158 24 -208q17 -36 62 -64q43 -27 43 -47q0 -39 -57 -39h-342q-56 0 -56 39q0 22 43 49q47 27 62 62q24 50 24 208v365q0 135 -20 168q-16 28 -68 43q-49 18 -49 41q0 35 57 47q115 24 195 59q29 11 39 11q43 0 43 -54zM125 1229h-86q-10 0 -10 8
q0 3 10 16l176 215q16 19 37 19h127q21 0 37 -19l176 -215q10 -13 10 -16q0 -8 -10 -8h-88q-17 0 -31 14l-151 154q-6 7 -13 0l-153 -156q-12 -12 -31 -12z" />
    <glyph glyph-name="idieresis" unicode="&#xef;" horiz-adv-x="624" 
d="M422 1038v-680q0 -158 24 -208q17 -36 62 -64q43 -27 43 -47q0 -39 -57 -39h-342q-56 0 -56 39q0 22 43 49q47 27 62 62q24 50 24 208v365q0 135 -20 168q-16 28 -68 43q-49 18 -49 41q0 35 57 47q115 24 195 59q29 11 39 11q43 0 43 -54zM578 1442q18 -18 18 -80
q0 -60 -18 -78t-78 -18q-62 0 -80 18q-21 18 -21 78q0 62 21 80q20 20 78 20q60 0 80 -20zM211 1442q18 -18 18 -80q0 -60 -18 -78t-78 -18q-61 0 -82 18q-18 18 -18 78q0 62 18 80q20 20 80 20t80 -20z" />
    <glyph glyph-name="eth" unicode="&#xf0;" horiz-adv-x="1150" 
d="M596 90q132 0 203 109q69 106 69 262q0 180 -86 295q-82 116 -213 116q-129 0 -200 -102q-70 -101 -70 -254q0 -160 74 -293q77 -133 223 -133zM1042 1436l-227 -129q250 -306 250 -719q0 -286 -141 -449q-140 -162 -365 -162q-203 0 -342 142q-135 144 -135 366
q0 210 131 353q133 145 326 145q58 0 108.5 -14.5t82.5 -34.5t55 -40.5t35 -35t14 -14.5q6 0 6 8q0 6 -2 12q-51 201 -187 355l-239 -136q-12 -4 -13 -4q-5 0 -16 11l-31 51q-4 8 -4 14q0 9 10 16l217 121q-120 99 -225 99q-16 0 -49 -5.5t-43 -5.5q-43 0 -43 39q0 22 25 41
q94 70 192 70q162 -3 311 -146l242 138q12 4 14 4q10 0 17 -10l33 -54q4 -8 4 -12q0 -7 -11 -14z" />
    <glyph glyph-name="ntilde" unicode="&#xf1;" horiz-adv-x="1298" 
d="M1106 686v-326q0 -172 31 -223q16 -26 57 -53q43 -27 43 -45q0 -39 -57 -39h-344q-58 0 -58 39q0 20 43 47q47 29 60 59q26 51 26 215v320q0 125 -58 190.5t-157 65.5q-104 0 -176 -72q-57 -57 -78 -162q-18 -102 -18 -342q0 -166 29 -219q17 -30 57 -57q43 -27 43 -45
q0 -39 -55 -39h-340q-56 0 -56 39q0 22 43 49q47 27 62 62q24 56 24 210v400q0 103 -20 129q-17 23 -68 41q-51 20 -51 43q0 35 57 47q111 21 191 61q29 11 39 11q45 0 45 -58v-121q0 -10 6 -10q3 0 10 10q120 179 332 179q176 0 268 -127q70 -94 70 -279zM360 1270l-26 8
q-19 6 -19 18q0 9 2 13q64 178 201 178q57 0 170 -43t156 -43q59 0 100 72q9 12 19 12q4 0 10 -2l22 -6q23 -7 23 -17q0 -6 -2 -10q-61 -178 -199 -178q-68 0 -178 43t-152 43q-58 0 -98 -76q-8 -14 -18 -14q-7 0 -11 2z" />
    <glyph glyph-name="ograve" unicode="&#xf2;" horiz-adv-x="1210" 
d="M918 481q0 123 -35 236q-34 118 -114 195t-185 77q-132 0 -211.5 -107t-79.5 -280q0 -218 92 -369q94 -149 242 -149q143 0 217 115q74 118 74 282zM612 1092q237 0 375 -156q139 -157 139 -395q0 -237 -147 -400q-147 -164 -373 -164q-235 0 -379 150q-143 149 -143 399
q0 238 149 400q150 166 379 166zM682 1260l-322 198q-10 7 -10 15q0 14 23 14h188q45 0 82 -29l225 -190q17 -17 17 -19q0 -10 -15 -10h-112q-42 0 -76 21z" />
    <glyph glyph-name="oacute" unicode="&#xf3;" horiz-adv-x="1210" 
d="M918 481q0 123 -35 236q-34 118 -114 195t-185 77q-132 0 -211.5 -107t-79.5 -280q0 -218 92 -369q94 -149 242 -149q143 0 217 115q74 118 74 282zM612 1092q237 0 375 -156q139 -157 139 -395q0 -237 -147 -400q-147 -164 -373 -164q-235 0 -379 150q-143 149 -143 399
q0 238 149 400q150 166 379 166zM858 1452l-305 -192q-34 -21 -74 -21h-112q-15 0 -15 12q0 7 15 19l215 188q32 29 80 29h190q22 0 22 -14q0 -11 -16 -21z" />
    <glyph glyph-name="ocircumflex" unicode="&#xf4;" horiz-adv-x="1210" 
d="M918 481q0 123 -35 236q-34 118 -114 195t-185 77q-132 0 -211.5 -107t-79.5 -280q0 -218 92 -369q94 -149 242 -149q143 0 217 115q74 118 74 282zM612 1092q237 0 375 -156q139 -157 139 -395q0 -237 -147 -400q-147 -164 -373 -164q-235 0 -379 150q-143 149 -143 399
q0 238 149 400q150 166 379 166zM418 1229h-86q-10 0 -10 8q0 3 10 16l176 215q16 19 37 19h127q21 0 37 -19l176 -215q10 -13 10 -16q0 -8 -10 -8h-88q-17 0 -31 14l-152 154q-4 5 -6 5t-6 -5l-153 -156q-12 -12 -31 -12z" />
    <glyph glyph-name="otilde" unicode="&#xf5;" horiz-adv-x="1210" 
d="M303 1270l-27 8q-18 6 -18 18q0 9 2 13q64 178 201 178q57 0 170 -43t155 -43q60 0 101 72q9 12 18 12q4 0 10 -2l23 -6q23 -7 23 -17q0 -4 -3 -10q-61 -178 -198 -178q-68 0 -178 43t-152 43q-58 0 -98 -76q-8 -14 -19 -14q-6 0 -10 2zM918 481q0 123 -35 236
q-34 118 -114 195t-185 77q-132 0 -211.5 -107t-79.5 -280q0 -218 92 -369q94 -149 242 -149q143 0 217 115q74 118 74 282zM612 1092q237 0 375 -156q139 -157 139 -395q0 -237 -147 -400q-147 -164 -373 -164q-235 0 -379 150q-143 149 -143 399q0 238 149 400
q150 166 379 166z" />
    <glyph glyph-name="odieresis" unicode="&#xf6;" horiz-adv-x="1210" 
d="M918 481q0 123 -35 236q-34 118 -114 195t-185 77q-132 0 -211.5 -107t-79.5 -280q0 -218 92 -369q94 -149 242 -149q143 0 217 115q74 118 74 282zM612 1092q237 0 375 -156q139 -157 139 -395q0 -237 -147 -400q-147 -164 -373 -164q-235 0 -379 150q-143 149 -143 399
q0 238 149 400q150 166 379 166zM877 1442q18 -18 18 -80q0 -60 -18 -78t-78 -18q-62 0 -80 18q-21 18 -21 78q0 62 21 80q20 20 78 20q60 0 80 -20zM510 1442q18 -18 18 -80q0 -60 -18 -78t-78 -18q-61 0 -82 18q-18 18 -18 78q0 62 18 80q20 20 80 20t80 -20z" />
    <glyph glyph-name="divide" unicode="&#xf7;" horiz-adv-x="1462" 
d="M852 416q0 -50 -36 -85.5t-87 -35.5q-49 0 -85 35.5t-36 85.5q0 51 35.5 87t85.5 36q51 0 87 -36t36 -87zM729 928q-50 0 -85.5 35t-35.5 86t35.5 86.5t85.5 35.5q51 0 87 -35.5t36 -86.5t-36 -86t-87 -35zM197 696v70q0 22 22 22h1022q25 0 25 -22v-70q0 -22 -25 -22
h-1022q-22 0 -22 22z" />
    <glyph glyph-name="oslash" unicode="&#xf8;" horiz-adv-x="1220" 
d="M346 334q3 -12 10 -12q5 0 9 4l446 512q13 13 4 26q-88 125 -225 125q-141 0 -217 -110q-76 -107 -76 -277q0 -143 49 -268zM922 477q0 140 -50 273q-3 6 -6 6q-2 0 -6 -4l-450 -519q-5 -7 -6 -8.5t-1.5 -5.5t1.5 -7t8 -9q85 -119 221 -119q135 0 211 113q78 116 78 280z
M1020 903q110 -152 110 -362q0 -237 -147 -400q-147 -164 -373 -164q-187 0 -321 101q-8 4 -10 4q-3 0 -7 -4l-55 -64q-14 -14 -33 -14h-84q-10 0 -10 8q0 4 4 8l107 123q6 6 6 13q0 2 -4 10q-115 145 -115 364q0 235 148 400q150 163 374 166q181 0 314 -95q10 -7 14 -7.5
t10 5.5l53 60q11 14 29 14h86q12 0 12 -8q0 -4 -6 -10l-102 -117q-6 -9 -6 -16q0 -6 6 -15z" />
    <glyph glyph-name="ugrave" unicode="&#xf9;" horiz-adv-x="1286" 
d="M1096 176q12 -20 63 -41q53 -18 53 -43q0 -38 -55 -47q-110 -25 -188 -57q-33 -11 -43 -11q-45 0 -45 56v127q0 6 -7 6q-3 0 -10 -10q-56 -82 -143 -130.5t-189 -48.5q-161 0 -256 115q-75 90 -75 289v344q0 136 -21 166q-18 25 -65 41q-52 21 -52 49q0 34 56 43
q101 22 184 55q33 13 47 13q45 0 45 -54v-653q0 -116 55 -184t158 -68q102 0 172 70q57 57 78 164q23 118 23 340q0 154 -21 184q-17 27 -67 41q-50 18 -50 45q0 35 56 47q110 24 192 59q29 11 39 11q45 0 45 -56v-694q0 -134 21 -168zM682 1260l-322 198q-10 7 -10 15
q0 14 23 14h188q45 0 82 -29l225 -190q17 -17 17 -19q0 -10 -15 -10h-112q-42 0 -76 21z" />
    <glyph glyph-name="uacute" unicode="&#xfa;" horiz-adv-x="1286" 
d="M1096 176q12 -20 63 -41q53 -18 53 -43q0 -38 -55 -47q-110 -25 -188 -57q-33 -11 -43 -11q-45 0 -45 56v127q0 6 -7 6q-3 0 -10 -10q-56 -82 -143 -130.5t-189 -48.5q-161 0 -256 115q-75 90 -75 289v344q0 136 -21 166q-18 25 -65 41q-52 21 -52 49q0 34 56 43
q101 22 184 55q33 13 47 13q45 0 45 -54v-653q0 -116 55 -184t158 -68q102 0 172 70q57 57 78 164q23 118 23 340q0 154 -21 184q-17 27 -67 41q-50 18 -50 45q0 35 56 47q110 24 192 59q29 11 39 11q45 0 45 -56v-694q0 -134 21 -168zM893 1452l-305 -192q-34 -21 -74 -21
h-113q-14 0 -14 12q0 8 14 19l215 188q32 29 80 29h191q22 0 22 -14q0 -11 -16 -21z" />
    <glyph glyph-name="ucircumflex" unicode="&#xfb;" horiz-adv-x="1286" 
d="M1096 176q12 -20 63 -41q53 -18 53 -43q0 -38 -55 -47q-110 -25 -188 -57q-33 -11 -43 -11q-45 0 -45 56v127q0 6 -7 6q-3 0 -10 -10q-56 -82 -143 -130.5t-189 -48.5q-161 0 -256 115q-75 90 -75 289v344q0 136 -21 166q-18 25 -65 41q-52 21 -52 49q0 34 56 43
q101 22 184 55q33 13 47 13q45 0 45 -54v-653q0 -116 55 -184t158 -68q102 0 172 70q57 57 78 164q23 118 23 340q0 154 -21 184q-17 27 -67 41q-50 18 -50 45q0 35 56 47q110 24 192 59q29 11 39 11q45 0 45 -56v-694q0 -134 21 -168zM434 1229h-86q-10 0 -10 8q0 3 10 16
l176 215q16 19 37 19h127q21 0 37 -19l176 -215q10 -13 10 -16q0 -8 -10 -8h-88q-17 0 -31 14l-151 154q-7 7 -13 0l-153 -156q-12 -12 -31 -12z" />
    <glyph glyph-name="udieresis" unicode="&#xfc;" horiz-adv-x="1286" 
d="M1096 176q12 -20 63 -41q53 -18 53 -43q0 -38 -55 -47q-110 -25 -188 -57q-33 -11 -43 -11q-45 0 -45 56v127q0 6 -7 6q-3 0 -10 -10q-56 -82 -143 -130.5t-189 -48.5q-161 0 -256 115q-75 90 -75 289v344q0 136 -21 166q-18 25 -65 41q-52 21 -52 49q0 34 56 43
q101 22 184 55q33 13 47 13q45 0 45 -54v-653q0 -116 55 -184t158 -68q102 0 172 70q57 57 78 164q23 118 23 340q0 154 -21 184q-17 27 -67 41q-50 18 -50 45q0 35 56 47q110 24 192 59q29 11 39 11q45 0 45 -56v-694q0 -134 21 -168zM889 1442q18 -18 18 -80
q0 -60 -18 -78t-78 -18q-62 0 -80 18q-20 17 -20 78q0 63 20 80q20 20 78 20q60 0 80 -20zM522 1442q19 -19 19 -80q0 -59 -19 -78q-18 -18 -78 -18q-61 0 -82 18q-18 18 -18 78q0 62 18 80q20 20 80 20t80 -20z" />
    <glyph glyph-name="yacute" unicode="&#xfd;" horiz-adv-x="1173" 
d="M815 1069h285q63 0 63 -37q3 -16 -14 -29.5t-48.5 -33t-49.5 -41.5q-46 -52 -107 -195l-282 -684q-66 -156 -131.5 -252t-153.5 -147q-74 -45 -154 -45q-74 0 -118 40.5t-44 114.5q0 45 18 73t52 28q26 0 72 -43t100 -43q45 0 86 35q38 30 60 61.5t51 91.5q6 12 6 21
q0 2 -4 18l-301 768q-59 161 -105 195q-10 7 -33.5 18.5t-35 21.5t-11.5 25q0 39 64 39h334q53 0 53 -37q0 -13 -15 -26t-33 -23t-33 -29t-15 -43q0 -53 32 -127l211 -522q3 -12 9 -12q7 0 10 12l145 369q76 195 76 254q0 27 -10.5 48t-25 33t-29 21.5t-25 20t-10.5 22.5
q0 39 61 39zM864 1452l-305 -192q-34 -21 -74 -21h-112q-15 0 -15 12q0 7 15 19l215 188q32 29 80 29h190q23 0 23 -14q0 -11 -17 -21z" />
    <glyph glyph-name="thorn" unicode="&#xfe;" horiz-adv-x="1259" 
d="M688 80q134 0 211.5 118.5t77.5 315.5q0 200 -88 313q-85 117 -211 117q-130 0 -206.5 -112t-76.5 -308q0 -207 80.5 -325.5t212.5 -118.5zM758 1092q177 0 299 -140q121 -139 121 -366q0 -144 -54 -283q-53 -135 -168 -231q-115 -95 -268 -95q-43 0 -88.5 9t-79.5 21.5
t-61.5 25t-42 21.5t-13.5 9q-8 0 -8 -10v-96q0 -148 25 -203q15 -35 59 -59q45 -26 45 -49q0 -41 -55 -41h-340q-57 0 -57 39q0 21 49 51t61 67q19 52 19 201v1219q0 112 -21 147q-17 27 -67 41q-52 18 -52 45q0 33 60 45q100 22 192 60q16 8 41 8q41 0 41 -53v-549
q0 -17 11 -17q5 0 16 11q141 172 336 172z" />
    <glyph glyph-name="ydieresis" unicode="&#xff;" horiz-adv-x="1173" 
d="M815 1069h285q63 0 63 -37q3 -16 -14 -29.5t-48.5 -33t-49.5 -41.5q-46 -52 -107 -195l-282 -684q-66 -156 -131.5 -252t-153.5 -147q-74 -45 -154 -45q-74 0 -118 40.5t-44 114.5q0 45 18 73t52 28q26 0 72 -43t100 -43q45 0 86 35q38 30 60 61.5t51 91.5q6 12 6 21
q0 2 -4 18l-301 768q-59 161 -105 195q-10 7 -33.5 18.5t-35 21.5t-11.5 25q0 39 64 39h334q53 0 53 -37q0 -13 -15 -26t-33 -23t-33 -29t-15 -43q0 -53 32 -127l211 -522q3 -12 9 -12q7 0 10 12l145 369q76 195 76 254q0 27 -10.5 48t-25 33t-29 21.5t-25 20t-10.5 22.5
q0 39 61 39zM879 1442q18 -18 18 -80q0 -60 -18 -78t-78 -18q-62 0 -80 18q-21 18 -21 78q0 62 21 80q20 20 78 20q60 0 80 -20zM512 1442q18 -18 18 -80q0 -60 -18 -78t-78 -18q-61 0 -82 18q-18 18 -18 78q0 62 18 80q20 20 80 20t80 -20z" />
    <glyph glyph-name="Amacron" unicode="&#x100;" horiz-adv-x="1490" 
d="M711 1184l-242 -568q-4 -12 -4 -14q0 -12 14 -12h463q12 0 12 10q0 2 -4 14l-217 568q-6 16 -12 16q-4 0 -10 -14zM1391 113q18 -18 41.5 -30.5t35 -21.5t11.5 -24q0 -37 -58 -37h-340q-51 0 -51 37q0 22 43 43t43 63q0 40 -37 138l-69 180q-9 22 -39 22h-537
q-19 0 -28 -18q-89 -213 -89 -289q0 -35 15 -58.5t32.5 -32.5t32.5 -20.5t15 -25.5q0 -39 -60 -39h-284q-62 0 -62 35q0 15 18.5 29t52.5 42t60 68q38 56 82 156l502 1128q9 21 31 21h65q22 0 31 -21l446 -1165q51 -134 97 -180zM467 1702v78q0 18 18 18h592q19 0 19 -18
v-78q0 -19 -19 -19h-592q-18 0 -18 19z" />
    <glyph glyph-name="amacron" unicode="&#x101;" horiz-adv-x="1079" 
d="M700 543v35q0 8 -6 8t-14 -8q-46 -33 -148 -76q-110 -48 -157 -80q-103 -68 -103 -170q0 -68 44 -112t120 -44q66 0 126.5 38t94.5 108q43 87 43 301zM965 125h24q35 0 35 -33q0 -35 -47 -76q-45 -39 -107 -39q-61 0 -104.5 41t-50.5 121q0 11 -4 11q-3 0 -9 -9
q-53 -78 -140 -121t-187 -43q-140 0 -230 76.5t-90 188.5q0 140 127 223q59 39 187 86q124 46 159 61q172 76 172 207q0 76 -48.5 122t-129.5 46q-58 0 -106 -26q-43 -23 -68 -48t-63 -77q-8 -10 -25 -38t-20 -32q-20 -25 -47 -25q-58 0 -58 101q0 105 35 149q42 51 137 74
q102 27 201 27q188 0 292.5 -95t104.5 -256q0 -22 -4 -256q-2 -117 -2 -256q0 -104 66 -104zM203 1366v78q0 18 18 18h592q18 0 18 -18v-78q0 -18 -18 -18h-592q-18 0 -18 18z" />
    <glyph glyph-name="Abreve" unicode="&#x102;" horiz-adv-x="1490" 
d="M711 1184l-242 -568q-4 -12 -4 -14q0 -12 14 -12h463q12 0 12 10q0 2 -4 14l-217 568q-6 16 -12 16q-4 0 -10 -14zM1391 113q18 -18 41.5 -30.5t35 -21.5t11.5 -24q0 -37 -58 -37h-340q-51 0 -51 37q0 22 43 43t43 63q0 40 -37 138l-69 180q-9 22 -39 22h-537
q-19 0 -28 -18q-89 -213 -89 -289q0 -35 15 -58.5t32.5 -32.5t32.5 -20.5t15 -25.5q0 -39 -60 -39h-284q-62 0 -62 35q0 15 18.5 29t52.5 42t60 68q38 56 82 156l502 1128q9 21 31 21h65q22 0 31 -21l446 -1165q51 -134 97 -180zM778 1612q-103 0 -173 59.5t-70 149.5
q0 47 38 47q24 0 37 -29q52 -119 170 -119t170 119q16 29 37 29q37 0 37 -47q0 -86 -74 -148q-70 -61 -172 -61z" />
    <glyph glyph-name="abreve" unicode="&#x103;" horiz-adv-x="1079" 
d="M700 543v35q0 8 -6 8t-14 -8q-46 -33 -148 -76q-110 -48 -157 -80q-103 -68 -103 -170q0 -68 44 -112t120 -44q66 0 126.5 38t94.5 108q43 87 43 301zM965 125h24q35 0 35 -33q0 -35 -47 -76q-45 -39 -107 -39q-61 0 -104.5 41t-50.5 121q0 11 -4 11q-3 0 -9 -9
q-53 -78 -140 -121t-187 -43q-140 0 -230 76.5t-90 188.5q0 140 127 223q59 39 187 86q124 46 159 61q172 76 172 207q0 76 -48.5 122t-129.5 46q-58 0 -106 -26q-43 -23 -68 -48t-63 -77q-8 -10 -25 -38t-20 -32q-20 -25 -47 -25q-58 0 -58 101q0 105 35 149q42 51 137 74
q102 27 201 27q188 0 292.5 -95t104.5 -256q0 -22 -4 -256q-2 -117 -2 -256q0 -104 66 -104zM514 1227q-103 0 -173.5 59.5t-70.5 149.5q0 47 39 47q24 0 37 -29q52 -119 170 -119t170 119q16 29 37 29q37 0 37 -47q0 -86 -74 -148q-70 -61 -172 -61z" />
    <glyph glyph-name="Aogonek" unicode="&#x104;" horiz-adv-x="1492" 
d="M481 590h461q14 0 14 10q0 2 -4 14l-221 576q-1 8 -8 8t-8 -8l-244 -574q-4 -12 -4 -14q0 -12 14 -12zM1450 74q31 -16 31 -37q0 -37 -60 -37h-84q-117 -1 -178 -50t-61 -116q0 -52 39.5 -90.5t95.5 -38.5q23 0 58 11.5t36 11.5q21 0 21 -23q0 -28 -54 -63
q-55 -37 -137 -37q-91 0 -155 54.5t-64 143.5q0 86 62 154.5t163 101.5l-153 402q-9 24 -39 24h-537q-19 0 -28 -20q-91 -234 -91 -291q0 -35 15.5 -58t34 -31t34 -20t15.5 -28q0 -37 -60 -37h-284q-64 0 -64 35q-3 13 13.5 25.5t50.5 38.5t59 61q38 46 92 170l502 1128
q9 21 29 21h67q22 0 31 -21l444 -1165q56 -139 97 -180q17 -17 59 -39z" />
    <glyph glyph-name="aogonek" unicode="&#x105;" horiz-adv-x="1099" 
d="M659 244q23 47 31 96q3 15 5 27.5t3.5 28.5t2 24t1 29t0.5 28.5v38.5v43v19q0 10 -6 10q-4 0 -8 -4q-37 -32 -153 -82q-104 -45 -158 -80q-103 -68 -103 -170q0 -69 46 -112.5t118 -43.5q68 0 127.5 38t93.5 110zM913 -20q-114 -58 -114 -144q0 -55 38 -92t99 -37
q24 0 57.5 10.5t34.5 10.5q21 0 21 -23q0 -14 -17 -31q-67 -67 -174 -67q-99 0 -160 56t-61 142q0 122 133 211q-53 47 -53 123q0 11 -4 11q-2 0 -8 -9q-53 -78 -140.5 -121t-187.5 -43q-131 0 -225 70q-95 71 -95 197q0 140 127 223q50 33 185 84q110 41 161 61
q172 76 172 213q0 73 -48.5 117.5t-129.5 44.5q-129 0 -217 -123q-18 -23 -35 -55q-21 -39 -37 -53.5t-42 -14.5q-56 0 -56 101q0 105 35 149q42 51 139 74q102 27 199 27q187 0 293 -99t106 -303q0 -17 -4 -229q-4 -208 -4 -232q0 -106 64 -106q3 0 14.5 2t15.5 2
q29 0 29 -33q0 -62 -111 -114z" />
    <glyph glyph-name="Cacute" unicode="&#x106;" horiz-adv-x="1398" 
d="M823 92q194 0 320 187q11 16 53 83q8 14 23 25.5t28 11.5q58 0 58 -88q0 -172 -80 -237q-129 -97 -387 -97q-345 0 -551 218q-203 218 -203 532q0 337 223 547q227 213 543 213q117 0 235 -31q114 -27 158 -80q37 -40 37 -184q0 -59 -12 -85t-43 -26q-26 0 -45 19
q-11 13 -41 67t-47 76q-105 135 -285 135q-208 0 -352 -172t-144 -458q0 -309 152 -484q153 -172 360 -172zM1051 1835l-306 -193q-33 -20 -73 -20h-113q-14 0 -14 12q0 8 14 19l215 188q32 29 80 29h190q23 0 23 -15q0 -10 -16 -20z" />
    <glyph glyph-name="cacute" unicode="&#x107;" horiz-adv-x="1036" 
d="M965 221q0 -34 -45 -88q-43 -52 -144 -104t-223 -52q-200 0 -334 134q-133 136 -133 360q0 248 154 434q156 187 403 187q181 0 254 -76q39 -39 39 -137q0 -125 -59 -125q-34 0 -50 28q-24 48 -39 72q-77 127 -202 127t-211 -115q-84 -116 -84 -301q0 -183 86 -313
q89 -129 252 -129q55 0 110.5 21.5t89.5 47t62.5 47t36.5 21.5q37 0 37 -39zM819 1452l-305 -192q-35 -21 -74 -21h-112q-15 0 -15 12q0 7 15 19l215 188q32 29 80 29h190q23 0 23 -14q0 -11 -17 -21z" />
    <glyph glyph-name="Ccircumflex" unicode="&#x108;" horiz-adv-x="1398" 
d="M823 92q194 0 320 187q11 16 53 83q8 14 23 25.5t28 11.5q58 0 58 -88q0 -172 -80 -237q-129 -97 -387 -97q-345 0 -551 218q-203 218 -203 532q0 337 223 547q227 213 543 213q117 0 235 -31q114 -27 158 -80q37 -40 37 -184q0 -59 -12 -85t-43 -26q-26 0 -45 19
q-11 13 -41 67t-47 76q-105 135 -285 135q-208 0 -352 -172t-144 -458q0 -309 152 -484q153 -172 360 -172zM596 1612h-86q-10 0 -10 8q0 3 10 16l176 215q16 19 37 19h127q21 0 37 -19l176 -215q10 -13 10 -16q0 -8 -10 -8h-88q-17 0 -31 14l-151 154q-3 3 -5 4t-3.5 0
t-4.5 -4l-153 -156q-12 -12 -31 -12z" />
    <glyph glyph-name="ccircumflex" unicode="&#x109;" horiz-adv-x="1036" 
d="M965 221q0 -34 -45 -88q-43 -52 -144 -104t-223 -52q-200 0 -334 134q-133 136 -133 360q0 248 154 434q156 187 403 187q181 0 254 -76q39 -39 39 -137q0 -125 -59 -125q-34 0 -50 28q-24 48 -39 72q-77 127 -202 127t-211 -115q-84 -116 -84 -301q0 -183 86 -313
q89 -129 252 -129q55 0 110.5 21.5t89.5 47t62.5 47t36.5 21.5q37 0 37 -39zM360 1229h-86q-10 0 -10 8q0 3 10 16l177 215q16 19 36 19h127q21 0 37 -19l176 -215q11 -15 11 -16q0 -8 -11 -8h-88q-16 0 -30 14l-152 154q-5 5 -6 5t-6 -5l-154 -156q-12 -12 -31 -12z" />
    <glyph glyph-name="Cdotaccent" unicode="&#x10a;" horiz-adv-x="1398" 
d="M823 92q194 0 320 187q11 16 53 83q8 14 23 25.5t28 11.5q58 0 58 -88q0 -172 -80 -237q-129 -97 -387 -97q-345 0 -551 218q-203 218 -203 532q0 337 223 547q227 213 543 213q117 0 235 -31q114 -27 158 -80q37 -40 37 -184q0 -59 -12 -85t-43 -26q-26 0 -45 19
q-11 13 -41 67t-47 76q-105 135 -285 135q-208 0 -352 -172t-144 -458q0 -309 152 -484q153 -172 360 -172zM877 1786q18 -18 18 -80q0 -60 -18 -78t-78 -18q-61 0 -82 18q-19 19 -19 78q0 61 19 80q20 20 80 20t80 -20z" />
    <glyph glyph-name="cdotaccent" unicode="&#x10b;" horiz-adv-x="1036" 
d="M965 221q0 -34 -45 -88q-43 -52 -144 -104t-223 -52q-200 0 -334 134q-133 136 -133 360q0 248 154 434q156 187 403 187q181 0 254 -76q39 -39 39 -137q0 -125 -59 -125q-34 0 -50 28q-24 48 -39 72q-77 127 -202 127t-211 -115q-84 -116 -84 -301q0 -183 86 -313
q89 -129 252 -129q55 0 110.5 21.5t89.5 47t62.5 47t36.5 21.5q37 0 37 -39zM662 1442q18 -18 18 -80q0 -60 -18 -78t-78 -18q-61 0 -82 18q-19 19 -19 78q0 61 19 80q20 20 80 20t80 -20z" />
    <glyph glyph-name="Ccaron" unicode="&#x10c;" horiz-adv-x="1398" 
d="M823 92q194 0 320 187q11 16 53 83q8 14 23 25.5t28 11.5q58 0 58 -88q0 -172 -80 -237q-129 -97 -387 -97q-345 0 -551 218q-203 218 -203 532q0 337 223 547q227 213 543 213q117 0 235 -31q114 -27 158 -80q37 -40 37 -184q0 -59 -12 -85t-43 -26q-26 0 -45 19
q-11 13 -41 67t-47 76q-105 135 -285 135q-208 0 -352 -172t-144 -458q0 -309 152 -484q153 -172 360 -172zM987 1870h86q10 0 10 -8q0 -4 -10 -17l-176 -215q-15 -18 -37 -18h-127q-22 0 -37 18l-176 215q-10 13 -10 17q0 8 10 8h88q16 0 31 -15l152 -153q5 -4 6 -4t6 4
l153 156q12 12 31 12z" />
    <glyph glyph-name="ccaron" unicode="&#x10d;" horiz-adv-x="1036" 
d="M965 221q0 -34 -45 -88q-43 -52 -144 -104t-223 -52q-200 0 -334 134q-133 136 -133 360q0 248 154 434q156 187 403 187q181 0 254 -76q39 -39 39 -137q0 -125 -59 -125q-34 0 -50 28q-24 48 -39 72q-77 127 -202 127t-211 -115q-84 -116 -84 -301q0 -183 86 -313
q89 -129 252 -129q55 0 110.5 21.5t89.5 47t62.5 47t36.5 21.5q37 0 37 -39zM760 1487h86q10 0 10 -8q0 -4 -10 -17l-176 -215q-15 -18 -37 -18h-127q-22 0 -37 18l-176 215q-10 13 -10 17q0 8 10 8h88q17 0 31 -14l151 -154q5 -5 6 -5t6 5l154 156q12 12 31 12z" />
    <glyph glyph-name="Dcaron" unicode="&#x10e;" horiz-adv-x="1546" 
d="M1075 270q162 162 162 461q0 184 -72 340q-71 155 -227 225q-85 40 -186 52q-102 12 -277 12q-45 0 -45 -43v-1018q0 -89 5 -120t24 -48q28 -22 116 -22h46q293 0 454 161zM1206 1292q119 -89 186.5 -229t67.5 -318q0 -291 -203 -512q-102 -108 -274 -170.5t-385 -62.5
h-436q-66 0 -66 39q0 22 41 43q41 22 60 57q28 51 28 213v826q0 97 -10 135q-10 37 -45 57q-7 4 -26 13.5t-27 18t-8 23.5q0 37 55 37h356q272 0 420 -43q149 -42 266 -127zM930 1870h86q10 0 10 -8q0 -4 -10 -17l-176 -215q-15 -18 -37 -18h-127q-22 0 -37 18l-176 215
q-10 13 -10 17q0 8 10 8h88q16 0 31 -15l151 -153q5 -4 6 -4t6 4l154 156q12 12 31 12z" />
    <glyph glyph-name="dcaron" unicode="&#x10f;" horiz-adv-x="1423" 
d="M582 123q132 0 208 114t76 308q0 206 -80.5 324t-212.5 118q-149 0 -219 -129q-69 -123 -69 -303q0 -184 82 -309q82 -123 215 -123zM1061 1477v-1174q0 -94 14 -119t68 -47q55 -21 55 -43q0 -35 -57 -47q-109 -27 -185 -57q-29 -13 -47 -13q-43 0 -43 54v110
q0 17 -12 17q-6 0 -14 -8q-141 -173 -336 -173q-167 0 -293 129q-127 130 -127 375q-3 112 32 222t98 197t157.5 140t201.5 52q146 0 271 -82q9 -6 14 -6q8 0 8 10v194q0 95 -22 123q-20 24 -68 41q-47 18 -47 43q0 33 57 45q99 22 187 58q34 12 45 12q43 0 43 -53z
M1456 1438q51 -57 51 -121q0 -97 -82 -201q-31 -39 -70 -69.5t-61 -30.5q-11 0 -20.5 9.5t-9.5 21.5q0 8 11.5 18.5t31.5 28.5t34 39q33 44 33 77q0 37 -53 90q-47 47 -47 76q0 27 41 68q40 43 67 43q34 0 74 -49z" />
    <glyph glyph-name="Dcroat" unicode="&#x110;" horiz-adv-x="1662" 
d="M1192 270q162 162 162 461q0 117 -27 219q-28 109 -99 203.5t-173 142.5q-84 40 -187 52q-102 12 -276 12q-45 0 -45 -43v-490q0 -20 22 -20q66 0 165.5 6t109.5 6q61 0 61 -35q0 -6 -2 -16.5t-4 -18t-2 -8.5q-7 -37 -24 -49t-60 -12q-3 0 -13.5 0.5l-31.5 1.5t-43 2
q-98 4 -156 4q-22 0 -22 -18v-371q0 -90 5 -120.5t23 -47.5q28 -25 119 -25q322 0 498 164zM1323 1292q119 -89 186.5 -227.5t67.5 -312.5q0 -298 -203 -519q-102 -108 -273 -170.5t-386 -62.5h-436q-66 0 -66 39q0 22 41 43q40 21 61 61q27 50 27 209v318q0 18 -23 18
q-62 0 -136.5 -5t-78.5 -5q-61 0 -61 33q0 6 2 16.5t4 18.5l2 8q6 34 21 47.5t51 13.5q5 0 34.5 -2t74 -4t87.5 -2q23 0 23 20v336q0 115 -8 148q-9 38 -49 59l-25 12q-22 10 -28.5 19t-6.5 24q0 37 56 37h356q272 0 420 -43q149 -42 266 -127z" />
    <glyph glyph-name="dslash" unicode="&#x111;" horiz-adv-x="1271" 
d="M582 123q133 0 207.5 115t74.5 307q0 207 -79 324.5t-214 117.5q-137 0 -213 -125q-75 -124 -75 -313q0 -171 79 -299q83 -127 220 -127zM1059 1325h203q22 0 22 -22v-54q0 -22 -22 -22h-203v-881q0 -135 20 -168q17 -23 66 -43q51 -20 51 -43q0 -18 -11.5 -28t-45.5 -17
q-104 -24 -183 -57q-29 -13 -49 -13q-43 0 -43 54v110q0 17 -12 17q-6 0 -14 -8q-141 -173 -336 -173q-167 0 -293 129q-125 128 -125 373q0 149 53 285q51 134 168 231q115 95 268 95q43 0 88 -9t79 -21.5t61 -25t41.5 -21.5t13.5 -9q8 0 8 10v213h-270q-23 0 -23 22v54
q0 22 23 22h270v150q0 21 19 24l145 29q6 2 14 2q17 0 17 -19v-186z" />
    <glyph glyph-name="Emacron" unicode="&#x112;" horiz-adv-x="1286" 
d="M1149 401q25 0 41 -16t16 -41q0 -18 -16 -80q-11 -32 -19 -86q-5 -35 -20 -96q-8 -39 -39.5 -68.5t-75.5 -29.5q-22 0 -118 8t-226 8h-532q-64 0 -64 39q0 21 43 45q46 27 64 70q22 55 22 198v824q0 97 -10 135q-9 40 -47 59l-13 6q-13 6 -19.5 10t-16.5 11t-13 14t0 14
q0 37 56 37h532q113 0 230 6q120 9 131 9q79 0 82 -58q10 -170 10 -280q0 -60 -60 -60q-37 0 -59 60l-12 28q-9 28 -27 60q-13 27 -28 43t-46 39q-76 49 -360 49h-80q-45 0 -45 -43v-447q0 -27 9 -36t38 -9q91 0 201 4l108 9q68 8 107 8q74 0 74 -41q0 -7 -3 -21.5t-3 -21.5
q-4 -38 -24.5 -51t-76.5 -13q-4 0 -94 4q-16 1 -38 2t-37 2t-25 1q-43 2 -209 2q-27 0 -27 -27v-356q0 -104 5.5 -139.5t27.5 -51.5q35 -27 149 -27q214 0 306 56q39 21 76 65t59 82.5t48 66.5t48 25zM317 1702v78q0 18 19 18h592q18 0 18 -18v-78q0 -19 -18 -19h-592
q-19 0 -19 19z" />
    <glyph glyph-name="emacron" unicode="&#x113;" horiz-adv-x="1103" 
d="M303 700q-2 -10 -2 -22t16 -12h334q94 0 133 26t39 92q0 79 -63 142q-62 65 -164 65q-114 0 -193 -82.5t-100 -208.5zM965 264q45 0 45 -43q0 -62 -125 -153q-126 -91 -303 -91q-227 0 -363 154q-135 153 -135 373q0 235 149 409q150 179 381 179q84 0 155.5 -26
t118.5 -67.5t80.5 -93t48.5 -101.5t15 -95q0 -83 -37 -113.5t-125 -32.5h-555q-22 0 -22 -20v-11q0 -167 92 -288q91 -119 248 -119q62 0 123.5 21.5t99.5 48t69.5 48t39.5 21.5zM266 1366v78q0 18 19 18h592q18 0 18 -18v-78q0 -18 -18 -18h-592q-19 0 -19 18z" />
    <glyph glyph-name="Ebreve" unicode="&#x114;" horiz-adv-x="1286" 
d="M1149 401q25 0 41 -16t16 -41q0 -18 -16 -80q-11 -32 -19 -86q-5 -35 -20 -96q-8 -39 -39.5 -68.5t-75.5 -29.5q-22 0 -118 8t-226 8h-532q-64 0 -64 39q0 21 43 45q46 27 64 70q22 55 22 198v824q0 97 -10 135q-9 40 -47 59l-13 6q-13 6 -19.5 10t-16.5 11t-13 14t0 14
q0 37 56 37h532q113 0 230 6q120 9 131 9q79 0 82 -58q10 -170 10 -280q0 -60 -60 -60q-37 0 -59 60l-12 28q-9 28 -27 60q-13 27 -28 43t-46 39q-76 49 -360 49h-80q-45 0 -45 -43v-447q0 -27 9 -36t38 -9q91 0 201 4l108 9q68 8 107 8q74 0 74 -41q0 -7 -3 -21.5t-3 -21.5
q-4 -38 -24.5 -51t-76.5 -13q-4 0 -94 4q-16 1 -38 2t-37 2t-25 1q-43 2 -209 2q-27 0 -27 -27v-356q0 -104 5.5 -139.5t27.5 -51.5q35 -27 149 -27q214 0 306 56q39 21 76 65t59 82.5t48 66.5t48 25zM647 1612q-103 0 -173.5 59.5t-70.5 149.5q0 47 39 47q24 0 37 -29
q52 -119 170 -119t170 119q16 29 37 29q37 0 37 -47q0 -86 -74 -148q-70 -61 -172 -61z" />
    <glyph glyph-name="ebreve" unicode="&#x115;" horiz-adv-x="1103" 
d="M303 700q-2 -10 -2 -22t16 -12h334q94 0 133 26t39 92q0 79 -63 142q-62 65 -164 65q-114 0 -193 -82.5t-100 -208.5zM965 264q45 0 45 -43q0 -62 -125 -153q-126 -91 -303 -91q-227 0 -363 154q-135 153 -135 373q0 235 149 409q150 179 381 179q84 0 155.5 -26
t118.5 -67.5t80.5 -93t48.5 -101.5t15 -95q0 -83 -37 -113.5t-125 -32.5h-555q-22 0 -22 -20v-11q0 -167 92 -288q91 -119 248 -119q62 0 123.5 21.5t99.5 48t69.5 48t39.5 21.5zM586 1227q-104 0 -174 59.5t-70 149.5q0 47 39 47q24 0 37 -29q52 -119 170 -119t170 119
q16 29 37 29q36 0 36 -47q0 -87 -73 -148q-70 -61 -172 -61z" />
    <glyph glyph-name="Edotaccent" unicode="&#x116;" horiz-adv-x="1286" 
d="M1149 401q25 0 41 -16t16 -41q0 -18 -16 -80q-11 -32 -19 -86q-5 -35 -20 -96q-8 -39 -39.5 -68.5t-75.5 -29.5q-22 0 -118 8t-226 8h-532q-64 0 -64 39q0 21 43 45q46 27 64 70q22 55 22 198v824q0 97 -10 135q-9 40 -47 59l-13 6q-13 6 -19.5 10t-16.5 11t-13 14t0 14
q0 37 56 37h532q113 0 230 6q120 9 131 9q79 0 82 -58q10 -170 10 -280q0 -60 -60 -60q-37 0 -59 60l-12 28q-9 28 -27 60q-13 27 -28 43t-46 39q-76 49 -360 49h-80q-45 0 -45 -43v-447q0 -27 9 -36t38 -9q91 0 201 4l108 9q68 8 107 8q74 0 74 -41q0 -7 -3 -21.5t-3 -21.5
q-4 -38 -24.5 -51t-76.5 -13q-4 0 -94 4q-16 1 -38 2t-37 2t-25 1q-43 2 -209 2q-27 0 -27 -27v-356q0 -104 5.5 -139.5t27.5 -51.5q35 -27 149 -27q214 0 306 56q39 21 76 65t59 82.5t48 66.5t48 25zM719 1786q18 -18 18 -80q0 -60 -18 -78t-78 -18q-61 0 -82 18
q-18 18 -18 78q0 62 18 80q20 20 80 20t80 -20z" />
    <glyph glyph-name="edotaccent" unicode="&#x117;" horiz-adv-x="1103" 
d="M303 700q-2 -10 -2 -22t16 -12h334q94 0 133 26t39 92q0 79 -63 142q-62 65 -164 65q-114 0 -193 -82.5t-100 -208.5zM965 264q45 0 45 -43q0 -62 -125 -153q-126 -91 -303 -91q-227 0 -363 154q-135 153 -135 373q0 235 149 409q150 179 381 179q84 0 155.5 -26
t118.5 -67.5t80.5 -93t48.5 -101.5t15 -95q0 -83 -37 -113.5t-125 -32.5h-555q-22 0 -22 -20v-11q0 -167 92 -288q91 -119 248 -119q62 0 123.5 21.5t99.5 48t69.5 48t39.5 21.5zM666 1442q18 -18 18 -80q0 -60 -18 -78t-78 -18q-61 0 -82 18q-19 19 -19 78q0 61 19 80
q20 20 80 20t80 -20z" />
    <glyph glyph-name="Eogonek" unicode="&#x118;" 
d="M1221 -270q22 0 22 -23q0 -13 -16 -29q-71 -71 -185 -71q-92 0 -149 47.5t-57 128.5q0 96 98 209q-101 8 -244 8h-530q-64 0 -64 39q0 16 13.5 28t31 19.5t38 28.5t30.5 53q16 50 16 184v811q0 115 -8 148q-9 38 -49 59l-13 6q-13 6 -19.5 10t-16.5 11t-13 14t0 14
q0 37 56 37h530q127 0 234 8q120 9 131 9q77 0 80 -60q6 -55 6 -170q1 -27 2 -52.5t1.5 -38.5t0.5 -17q0 -62 -60 -62q-22 0 -36.5 17.5t-25 45.5t-23 59t-38.5 63.5t-63 52.5q-80 41 -348 41h-80q-43 0 -43 -43v-447q0 -26 10 -35.5t37 -9.5q109 0 203 4l115 9q77 6 100 6
q72 0 72 -37q0 -5 -4.5 -24t-4.5 -23q-6 -38 -24.5 -50t-73.5 -12q-4 0 -94 4q-16 1 -38 2t-37 2t-25 1q-43 2 -209 2q-27 0 -27 -25v-389q0 -86 6.5 -119.5t28.5 -46.5q30 -21 151 -21q183 0 273 41q48 22 90 65.5t65 86.5q22 45 49.5 73.5t55.5 28.5q24 0 40.5 -15.5
t16.5 -39.5t-12 -65l-25 -109q-12 -73 -27.5 -112.5t-41.5 -59.5q-22 -16 -64 -16h-16q-27 -86 -27 -129q0 -66 39 -105t96 -39q22 0 43.5 4.5t35 9.5t14.5 5z" />
    <glyph glyph-name="eogonek" unicode="&#x119;" horiz-adv-x="1112" 
d="M301 696q-2 -6 -2 -16q0 -14 18 -14h334q110 0 144 34q30 30 30 86q0 77 -65 142q-63 63 -166 63q-113 0 -192.5 -82.5t-100.5 -212.5zM1087 -252q21 0 21 -20q0 -18 -27 -45q-78 -78 -184 -78q-91 0 -147 49.5t-56 140.5q0 104 86 219q-90 -37 -200 -37q-220 0 -359 148
q-137 149 -137 377q0 243 152 418q153 172 376 172q196 0 306 -119q112 -118 112 -262q0 -63 -29 -107q-35 -41 -131 -41h-557q-20 0 -20 -20v-11q0 -169 88 -282q94 -125 252 -125q63 0 125 21t98 49q7 5 26.5 20t27.5 21t21.5 14.5t21 12t12.5 3.5q19 0 32 -12t13 -31
q0 -30 -43 -82q-123 -147 -123 -272q0 -71 39.5 -110.5t101.5 -39.5q29 0 65 15z" />
    <glyph glyph-name="Ecaron" unicode="&#x11a;" horiz-adv-x="1286" 
d="M1149 401q25 0 41 -16t16 -41q0 -18 -16 -80q-11 -32 -19 -86q-5 -35 -20 -96q-8 -39 -39.5 -68.5t-75.5 -29.5q-22 0 -118 8t-226 8h-532q-64 0 -64 39q0 21 43 45q46 27 64 70q22 55 22 198v824q0 97 -10 135q-9 40 -47 59l-13 6q-13 6 -19.5 10t-16.5 11t-13 14t0 14
q0 37 56 37h532q113 0 230 6q120 9 131 9q79 0 82 -58q10 -170 10 -280q0 -60 -60 -60q-37 0 -59 60l-12 28q-9 28 -27 60q-13 27 -28 43t-46 39q-76 49 -360 49h-80q-45 0 -45 -43v-447q0 -27 9 -36t38 -9q91 0 201 4l108 9q68 8 107 8q74 0 74 -41q0 -7 -3 -21.5t-3 -21.5
q-4 -38 -24.5 -51t-76.5 -13q-4 0 -94 4q-16 1 -38 2t-37 2t-25 1q-43 2 -209 2q-27 0 -27 -27v-356q0 -104 5.5 -139.5t27.5 -51.5q35 -27 149 -27q214 0 306 56q39 21 76 65t59 82.5t48 66.5t48 25zM829 1870h86q11 0 11 -8q0 -2 -11 -17l-176 -215q-15 -18 -37 -18h-127
q-21 0 -36 18l-177 215q-10 13 -10 17q0 8 10 8h89q15 0 30 -15l152 -153q5 -4 6 -4t6 4l154 156q12 12 30 12z" />
    <glyph glyph-name="ecaron" unicode="&#x11b;" horiz-adv-x="1103" 
d="M303 700q-2 -10 -2 -22t16 -12h334q94 0 133 26t39 92q0 79 -63 142q-62 65 -164 65q-114 0 -193 -82.5t-100 -208.5zM965 264q45 0 45 -43q0 -62 -125 -153q-126 -91 -303 -91q-227 0 -363 154q-135 153 -135 373q0 235 149 409q150 179 381 179q84 0 155.5 -26
t118.5 -67.5t80.5 -93t48.5 -101.5t15 -95q0 -83 -37 -113.5t-125 -32.5h-555q-22 0 -22 -20v-11q0 -167 92 -288q91 -119 248 -119q62 0 123.5 21.5t99.5 48t69.5 48t39.5 21.5zM772 1487h86q10 0 10 -8q0 -4 -10 -17l-176 -215q-15 -18 -37 -18h-127q-22 0 -37 18
l-176 215q-10 13 -10 17q0 8 10 8h88q17 0 31 -14l151 -154q7 -7 13 0l153 156q12 12 31 12z" />
    <glyph glyph-name="Gcircumflex" unicode="&#x11c;" horiz-adv-x="1492" 
d="M977 696h369q57 0 57 -34q4 -11 -5 -20.5t-33.5 -22.5t-27.5 -15q-35 -23 -44 -63t-9 -158v-205q0 -53 -37 -80q-67 -49 -179.5 -85t-238.5 -36q-336 0 -542 218q-203 218 -203 530q0 325 215 543q216 219 547 219q211 0 340 -66q55 -30 73.5 -78.5t18.5 -150.5
q0 -113 -55 -113q-12 0 -26 11t-32.5 38.5t-29 44t-33.5 56.5q-34 61 -112.5 105t-180.5 44q-230 0 -365 -176t-135 -428q0 -283 152 -485q153 -199 397 -199q103 0 176 31q45 17 45 67v195q0 122 -14 160q-13 42 -70 63q-4 2 -14.5 5t-15.5 5t-13.5 5.5t-13 6.5t-9.5 8
t-7 10.5t-2 12.5q0 37 57 37zM598 1612h-86q-10 0 -10 8q0 3 10 16l176 215q16 19 37 19h127q21 0 37 -19l176 -215q10 -13 10 -16q0 -8 -10 -8h-88q-17 0 -31 14l-151 154q-3 3 -5 4t-3.5 0t-4.5 -4l-153 -156q-12 -12 -31 -12z" />
    <glyph glyph-name="gcircumflex" unicode="&#x11d;" horiz-adv-x="1112" 
d="M510 991q-89 0 -141 -68t-52 -175q0 -117 56 -220q55 -102 166 -102q90 0 141 70.5t51 179.5q0 116 -57 215q-57 100 -164 100zM1051 1008q0 -105 -136 -105l-30 2q49 -79 49 -188q0 -164 -109 -273q-108 -108 -282 -120q-19 0 -37 -2l-68 -7q-71 -7 -71 -59
q0 -55 143 -70l133 -8q117 -7 166 -14q109 -17 169 -75t60 -146q0 -161 -147 -250q-143 -88 -379 -88q-278 0 -393 100q-78 66 -78 154q0 79 53 129q56 47 107 47q49 0 49 -35l-18 -43q-17 -43 -17 -72q0 -92 94 -135q91 -45 230 -45q147 0 240 49.5t93 128.5
q0 100 -178 115l-98 6q-166 11 -219 21q-87 17 -134.5 62t-47.5 106q0 57 40.5 102.5t88.5 60.5q6 3 6 6q0 4 -6 7q-99 48 -155 134t-56 199q0 162 116 275q118 115 291 115q71 0 142.5 -25t117.5 -49.5t54 -24.5q20 0 34 16t21.5 34.5t27.5 34.5t50 16q84 0 84 -86z
M342 1229h-86q-10 0 -10 8q0 3 10 16l176 215q16 19 37 19h127q21 0 37 -19l176 -215q10 -13 10 -16q0 -8 -10 -8h-88q-17 0 -31 14l-151 154q-7 7 -13 0l-153 -156q-12 -12 -31 -12z" />
    <glyph glyph-name="Gbreve" unicode="&#x11e;" horiz-adv-x="1492" 
d="M977 696h369q57 0 57 -34q4 -11 -5 -20.5t-33.5 -22.5t-27.5 -15q-35 -23 -44 -63t-9 -158v-205q0 -53 -37 -80q-67 -49 -179.5 -85t-238.5 -36q-336 0 -542 218q-203 218 -203 530q0 325 215 543q216 219 547 219q211 0 340 -66q55 -30 73.5 -78.5t18.5 -150.5
q0 -113 -55 -113q-12 0 -26 11t-32.5 38.5t-29 44t-33.5 56.5q-34 61 -112.5 105t-180.5 44q-230 0 -365 -176t-135 -428q0 -283 152 -485q153 -199 397 -199q103 0 176 31q45 17 45 67v195q0 122 -14 160q-13 42 -70 63q-4 2 -14.5 5t-15.5 5t-13.5 5.5t-13 6.5t-9.5 8
t-7 10.5t-2 12.5q0 37 57 37zM811 1612q-103 0 -173.5 59.5t-70.5 149.5q0 47 39 47q24 0 37 -29q52 -119 170 -119t170 119q16 29 37 29q37 0 37 -47q0 -86 -74 -148q-70 -61 -172 -61z" />
    <glyph glyph-name="gbreve" unicode="&#x11f;" horiz-adv-x="1112" 
d="M510 991q-89 0 -141 -68t-52 -175q0 -117 56 -220q55 -102 166 -102q90 0 141 70.5t51 179.5q0 116 -57 215q-57 100 -164 100zM1051 1008q0 -105 -136 -105l-30 2q49 -79 49 -188q0 -164 -109 -273q-108 -108 -282 -120q-19 0 -37 -2l-68 -7q-71 -7 -71 -59
q0 -55 143 -70l133 -8q117 -7 166 -14q109 -17 169 -75t60 -146q0 -161 -147 -250q-143 -88 -379 -88q-278 0 -393 100q-78 66 -78 154q0 79 53 129q56 47 107 47q49 0 49 -35l-18 -43q-17 -43 -17 -72q0 -92 94 -135q91 -45 230 -45q147 0 240 49.5t93 128.5
q0 100 -178 115l-98 6q-166 11 -219 21q-87 17 -134.5 62t-47.5 106q0 57 40.5 102.5t88.5 60.5q6 3 6 6q0 4 -6 7q-99 48 -155 134t-56 199q0 162 116 275q118 115 291 115q71 0 142.5 -25t117.5 -49.5t54 -24.5q20 0 34 16t21.5 34.5t27.5 34.5t50 16q84 0 84 -86z
M545 1227q-103 0 -173.5 59.5t-70.5 149.5q0 47 39 47q24 0 37 -29q52 -119 170 -119t170 119q16 29 37 29q37 0 37 -47q0 -86 -74 -148q-70 -61 -172 -61z" />
    <glyph glyph-name="Gdotaccent" unicode="&#x120;" horiz-adv-x="1492" 
d="M977 696h369q57 0 57 -34q4 -11 -5 -20.5t-33.5 -22.5t-27.5 -15q-35 -23 -44 -63t-9 -158v-205q0 -53 -37 -80q-67 -49 -179.5 -85t-238.5 -36q-336 0 -542 218q-203 218 -203 530q0 325 215 543q216 219 547 219q211 0 340 -66q55 -30 73.5 -78.5t18.5 -150.5
q0 -113 -55 -113q-12 0 -26 11t-32.5 38.5t-29 44t-33.5 56.5q-34 61 -112.5 105t-180.5 44q-230 0 -365 -176t-135 -428q0 -283 152 -485q153 -199 397 -199q103 0 176 31q45 17 45 67v195q0 122 -14 160q-13 42 -70 63q-4 2 -14.5 5t-15.5 5t-13.5 5.5t-13 6.5t-9.5 8
t-7 10.5t-2 12.5q0 37 57 37zM854 1786q18 -18 18 -80q0 -60 -18 -78t-78 -18q-61 0 -82 18q-18 18 -18 78q0 62 18 80q20 20 80 20t80 -20z" />
    <glyph glyph-name="gdotaccent" unicode="&#x121;" horiz-adv-x="1112" 
d="M510 991q-89 0 -141 -68t-52 -175q0 -117 56 -220q55 -102 166 -102q90 0 141 70.5t51 179.5q0 116 -57 215q-57 100 -164 100zM1051 1008q0 -105 -136 -105l-30 2q49 -79 49 -188q0 -164 -109 -273q-108 -108 -282 -120q-19 0 -37 -2l-68 -7q-71 -7 -71 -59
q0 -55 143 -70l133 -8q117 -7 166 -14q109 -17 169 -75t60 -146q0 -161 -147 -250q-143 -88 -379 -88q-278 0 -393 100q-78 66 -78 154q0 79 53 129q56 47 107 47q49 0 49 -35l-18 -43q-17 -43 -17 -72q0 -92 94 -135q91 -45 230 -45q147 0 240 49.5t93 128.5
q0 100 -178 115l-98 6q-166 11 -219 21q-87 17 -134.5 62t-47.5 106q0 57 40.5 102.5t88.5 60.5q6 3 6 6q0 4 -6 7q-99 48 -155 134t-56 199q0 162 116 275q118 115 291 115q71 0 142.5 -25t117.5 -49.5t54 -24.5q20 0 34 16t21.5 34.5t27.5 34.5t50 16q84 0 84 -86z
M616 1442q19 -19 19 -80q0 -59 -19 -78q-18 -18 -77 -18q-61 0 -82 18q-19 19 -19 78q0 61 19 80q20 20 80 20q59 0 79 -20z" />
    <glyph glyph-name="Gcommaaccent" unicode="&#x122;" horiz-adv-x="1492" 
d="M977 696h369q57 0 57 -34q4 -11 -5 -20.5t-33.5 -22.5t-27.5 -15q-35 -23 -44 -63t-9 -158v-205q0 -53 -37 -80q-67 -49 -179.5 -85t-238.5 -36q-336 0 -542 218q-203 218 -203 530q0 325 215 543q216 219 547 219q211 0 340 -66q55 -30 73.5 -78.5t18.5 -150.5
q0 -113 -55 -113q-12 0 -26 11t-32.5 38.5t-29 44t-33.5 56.5q-34 61 -112.5 105t-180.5 44q-230 0 -365 -176t-135 -428q0 -283 152 -485q153 -199 397 -199q103 0 176 31q45 17 45 67v195q0 122 -14 160q-13 42 -70 63q-4 2 -14.5 5t-15.5 5t-13.5 5.5t-13 6.5t-9.5 8
t-7 10.5t-2 12.5q0 37 57 37zM862 -72q51 -54 51 -121q0 -96 -82 -200q-31 -39 -70 -70t-61 -31q-11 0 -20.5 9.5t-9.5 21.5q0 8 12 18.5t32 28.5t34 39q32 43 32 78q0 37 -53 90q-47 47 -47 76q0 26 41 70q40 40 67 40q34 0 74 -49z" />
    <glyph glyph-name="gcommaaccent" unicode="&#x123;" horiz-adv-x="1112" 
d="M473 1186q-51 54 -51 121q0 96 82 200q31 39 70 70t61 31q11 0 21 -9.5t10 -21.5q0 -8 -12 -18.5t-32 -28.5t-34 -39q-33 -44 -33 -78q0 -37 53 -90q47 -47 47 -76q0 -25 -41 -69q-41 -41 -67 -41q-34 0 -74 49zM510 991q-89 0 -141 -68t-52 -175q0 -117 56 -220
q55 -102 166 -102q90 0 141 70.5t51 179.5q0 116 -57 215q-57 100 -164 100zM1051 1008q0 -105 -136 -105l-30 2q49 -79 49 -188q0 -164 -109 -273q-108 -108 -282 -120q-19 0 -37 -2l-68 -7q-71 -7 -71 -59q0 -55 143 -70l133 -8q117 -7 166 -14q109 -17 169 -75t60 -146
q0 -161 -147 -250q-143 -88 -379 -88q-278 0 -393 100q-78 66 -78 154q0 79 53 129q56 47 107 47q49 0 49 -35l-18 -43q-17 -43 -17 -72q0 -92 94 -135q91 -45 230 -45q147 0 240 49.5t93 128.5q0 100 -178 115l-98 6q-166 11 -219 21q-87 17 -134.5 62t-47.5 106
q0 57 40.5 102.5t88.5 60.5q6 3 6 6q0 4 -6 7q-99 48 -155 134t-56 199q0 162 116 275q118 115 291 115q71 0 142.5 -25t117.5 -49.5t54 -24.5q20 0 34 16t21.5 34.5t27.5 34.5t50 16q84 0 84 -86z" />
    <glyph glyph-name="Hcircumflex" unicode="&#x124;" horiz-adv-x="1587" 
d="M1362 1149v-797q0 -140 18 -190q10 -29 30 -49t37.5 -27.5t30.5 -19t13 -27.5q0 -39 -64 -39h-335q-64 0 -64 39q0 12 12 23t28 20t35.5 27.5t31.5 42.5q22 52 22 200v346q0 23 -24 23h-682q-19 0 -19 -19v-350q0 -161 25 -209q18 -38 59 -59q43 -21 43 -45
q0 -39 -63 -39h-334q-66 0 -66 39q0 22 45 45q46 26 64 74q20 47 20 194v797q0 122 -8 158q-9 43 -43 63q-8 5 -24 12.5t-22.5 11.5t-12.5 12.5t-6 20.5q0 35 55 35h330q55 0 55 -35q4 -11 -5.5 -20.5t-33 -22t-27.5 -14.5q-32 -23 -41.5 -64t-9.5 -157v-299q0 -23 25 -23
h682q18 0 18 19v303q0 113 -10 158q-9 43 -43 63q-10 7 -29 16t-27 17t-8 24q0 35 56 35h327q55 0 58 -35q4 -11 -5.5 -20.5t-33 -22t-27.5 -14.5q-35 -23 -44 -63t-9 -158zM598 1612h-86q-10 0 -10 8q0 3 10 16l176 215q16 19 37 19h127q21 0 37 -19l176 -215
q10 -13 10 -16q0 -8 -10 -8h-88q-17 0 -31 14l-151 154q-3 3 -5 4t-3.5 0t-4.5 -4l-153 -156q-12 -12 -31 -12z" />
    <glyph glyph-name="hcircumflex" unicode="&#x125;" horiz-adv-x="1286" 
d="M1094 686v-326q0 -174 30 -223q15 -25 58 -53q43 -27 43 -45q0 -39 -58 -39h-344q-57 0 -57 39q0 20 43 47q46 28 59 59q27 53 27 215v320q0 126 -57.5 191t-157.5 65q-104 0 -176 -72q-57 -57 -78 -162q-18 -102 -18 -342q0 -168 28 -219q16 -29 58 -57q43 -27 43 -45
q0 -39 -56 -39h-340q-55 0 -55 39q0 22 43 49q46 26 61 62q25 58 25 210v840q0 103 -20 129q-17 23 -68 41q-51 20 -51 43q0 35 57 47q107 21 191 62q27 10 38 10q46 0 46 -57v-562q0 -10 6 -10q3 0 10 10q120 179 332 179q179 0 268 -127q70 -94 70 -279zM453 1612h-86
q-11 0 -11 8q0 1 11 16l176 215q16 19 37 19h127q20 0 36 -19l177 -215q10 -13 10 -16q0 -8 -10 -8h-89q-16 0 -30 14l-152 154q-5 4 -6 4t-6 -4l-154 -156q-12 -12 -30 -12z" />
    <glyph glyph-name="Hbar" unicode="&#x126;" horiz-adv-x="1714" 
d="M1219 801v219q0 18 -19 18h-686q-20 0 -20 -18v-215q0 -21 26 -21h680q19 0 19 17zM1444 1145h182q23 0 23 -23v-63q0 -21 -23 -21h-182q-19 0 -19 -20v-666q0 -148 19 -194q18 -46 63 -72t45 -47q0 -39 -63 -39h-334q-65 0 -65 39q0 15 19.5 28t47.5 36t43 59
q19 49 19 190v303q0 23 -25 23h-682q-18 0 -18 -21v-305q0 -140 18 -190q12 -31 32 -51t37 -26.5t29.5 -17.5t12.5 -28q0 -39 -66 -39h-334q-63 0 -63 39q0 14 13 25t30 20t37 29.5t30 48.5q17 53 17 190v666q0 20 -21 20h-178q-22 0 -22 21v63q0 23 22 23h178q21 0 21 22
q0 105 -9.5 144t-41.5 59q-9 5 -24.5 12.5t-22.5 11.5t-13 12.5t-6 20.5q0 35 55 35h330q55 0 55 -35q2 -7 -1 -13.5t-11 -13t-16 -10.5t-19.5 -10.5t-17.5 -9.5q-32 -20 -41.5 -59t-9.5 -144q0 -22 20 -22h686q19 0 19 22q0 105 -10 144t-42 59q-8 5 -24 12.5t-22.5 11.5
t-12.5 12.5t-6 20.5q0 35 55 35h330q55 0 55 -35q2 -7 -1 -13.5t-11 -13t-16 -10.5t-19.5 -10.5t-17.5 -9.5q-32 -20 -42 -59t-10 -144q0 -22 19 -22z" />
    <glyph glyph-name="hbar" unicode="&#x127;" horiz-adv-x="1255" 
d="M1063 686v-326q0 -172 31 -223q16 -26 57 -53q43 -27 43 -45q0 -39 -57 -39h-344q-58 0 -58 39q0 20 43 47q47 29 60 59q26 51 26 215v320q0 126 -57.5 191t-157.5 65q-104 0 -176 -72q-57 -57 -78 -162q-18 -102 -18 -342q0 -166 29 -219q17 -30 57 -57q43 -27 43 -45
q0 -39 -55 -39h-340q-56 0 -56 39q0 22 43 49q47 27 62 62q24 56 24 210v854q0 13 -12 13h-180q-23 0 -23 22v54q0 22 23 22h180q12 0 12 12v140q0 17 19 20l145 31q6 2 14 2q15 0 15 -17v-174q0 -14 12 -14h268q23 0 23 -22v-54q0 -22 -23 -22h-270q-10 0 -10 -13v-301
q0 -10 6 -10q3 0 10 10q120 179 332 179q179 0 270 -125q68 -92 68 -281z" />
    <glyph glyph-name="Itilde" unicode="&#x128;" horiz-adv-x="655" 
d="M430 1149v-797q0 -146 21 -196q18 -44 63 -70t45 -47q0 -39 -63 -39h-336q-64 0 -64 39q0 21 43 45q45 26 66 72q20 44 20 196v797q0 111 -10 156q-9 42 -43 65q-7 4 -29.5 14.5t-29.5 19t-7 23.5q0 35 58 35h328q55 0 55 -35q0 -8 -3 -14.5t-11 -12.5t-13.5 -9.5
t-18.5 -10.5t-18 -10q-36 -25 -45 -65q-8 -36 -8 -156zM23 1620l-27 8q-19 6 -19 19q0 6 3 12q64 178 200 178q57 0 170 -43t156 -43q59 0 100 72q9 12 19 12q4 0 10 -2l22 -6q23 -7 23 -17q0 -6 -2 -10q-61 -178 -199 -178q-68 0 -178 43t-151 43q-59 0 -99 -76
q-8 -14 -18 -14q-6 0 -10 2z" />
    <glyph glyph-name="itilde" unicode="&#x129;" horiz-adv-x="624" 
d="M422 1038v-680q0 -158 24 -208q17 -36 62 -64q43 -27 43 -47q0 -39 -57 -39h-342q-56 0 -56 39q0 22 43 49q47 27 62 62q24 50 24 208v365q0 135 -20 168q-16 28 -68 43q-49 18 -49 41q0 35 57 47q115 24 195 59q29 11 39 11q43 0 43 -54zM6 1270l-26 8q-19 6 -19 18
q0 9 2 13q64 178 201 178q57 0 170 -43t155 -43q60 0 101 72q9 12 18 12q4 0 10 -2l23 -6q23 -7 23 -17q0 -6 -2 -10q-61 -178 -199 -178q-68 0 -178 43t-152 43q-58 0 -98 -76q-8 -14 -19 -14q-6 0 -10 2z" />
    <glyph glyph-name="Imacron" unicode="&#x12a;" horiz-adv-x="655" 
d="M430 1149v-797q0 -146 21 -196q18 -44 63 -70t45 -47q0 -39 -63 -39h-336q-64 0 -64 39q0 21 43 45q45 26 66 72q20 44 20 196v797q0 111 -10 156q-9 42 -43 65q-7 4 -29.5 14.5t-29.5 19t-7 23.5q0 35 58 35h328q55 0 55 -35q0 -8 -3 -14.5t-11 -12.5t-13.5 -9.5
t-18.5 -10.5t-18 -10q-36 -25 -45 -65q-8 -36 -8 -156zM14 1702v78q0 18 19 18h592q18 0 18 -18v-78q0 -19 -18 -19h-592q-19 0 -19 19z" />
    <glyph glyph-name="imacron" unicode="&#x12b;" horiz-adv-x="624" 
d="M422 1038v-680q0 -158 24 -208q17 -36 62 -64q43 -27 43 -47q0 -39 -57 -39h-342q-56 0 -56 39q0 22 43 49q47 27 62 62q24 50 24 208v365q0 135 -20 168q-16 28 -68 43q-49 18 -49 41q0 35 57 47q115 24 195 59q29 11 39 11q43 0 43 -54zM-8 1366v78q0 18 18 18h592
q19 0 19 -18v-78q0 -18 -19 -18h-592q-18 0 -18 18z" />
    <glyph glyph-name="Ibreve" unicode="&#x12c;" horiz-adv-x="655" 
d="M430 1149v-797q0 -146 21 -196q18 -44 63 -70t45 -47q0 -39 -63 -39h-336q-64 0 -64 39q0 21 43 45q45 26 66 72q20 44 20 196v797q0 111 -10 156q-9 42 -43 65q-7 4 -29.5 14.5t-29.5 19t-7 23.5q0 35 58 35h328q55 0 55 -35q0 -8 -3 -14.5t-11 -12.5t-13.5 -9.5
t-18.5 -10.5t-18 -10q-36 -25 -45 -65q-8 -36 -8 -156zM328 1612q-104 0 -174 59.5t-70 149.5q0 47 39 47q24 0 37 -29q52 -119 170 -119t170 119q16 29 37 29q36 0 36 -47q0 -87 -73 -148q-70 -61 -172 -61z" />
    <glyph glyph-name="ibreve" unicode="&#x12d;" horiz-adv-x="624" 
d="M422 1038v-680q0 -158 24 -208q17 -36 62 -64q43 -27 43 -47q0 -39 -57 -39h-342q-56 0 -56 39q0 22 43 49q47 27 62 62q24 50 24 208v365q0 135 -20 168q-16 28 -68 43q-49 18 -49 41q0 35 57 47q115 24 195 59q29 11 39 11q43 0 43 -54zM315 1227q-103 0 -173 59.5
t-70 149.5q0 47 39 47q23 0 36 -29q52 -119 170 -119t170 119q16 29 37 29q37 0 37 -47q0 -86 -74 -148q-70 -61 -172 -61z" />
    <glyph glyph-name="Iogonek" unicode="&#x12e;" horiz-adv-x="655" 
d="M559 -270q23 0 23 -23q0 -28 -58 -65q-56 -39 -137 -39q-79 0 -147 45q-68 44 -68 135q0 104 107 217h-119q-64 0 -64 39q0 21 43 45q45 26 66 72q20 44 20 196v797q0 111 -10 156q-9 42 -43 65q-7 4 -29.5 14.5t-29.5 19t-7 23.5q0 35 58 35h328q55 0 55 -35
q0 -8 -3 -14.5t-11 -12.5t-13.5 -9.5t-18.5 -10.5t-18 -10q-36 -25 -45 -65q-8 -36 -8 -156v-797q0 -146 21 -196q18 -44 63 -70t45 -47q0 -39 -63 -39h-134q-30 -70 -30 -143q0 -64 37.5 -106t101.5 -42q18 0 38.5 5.5t34 10.5t15.5 5z" />
    <glyph glyph-name="iogonek" unicode="&#x12f;" horiz-adv-x="622" 
d="M555 -270q23 0 23 -23q0 -28 -58 -65q-56 -39 -137 -39q-79 0 -147 45q-68 44 -68 135q0 105 106 217h-124q-56 0 -56 39q0 22 43 49q47 27 62 62q24 50 24 208v365q0 135 -20 168q-16 28 -68 43q-49 18 -49 41q0 35 57 47q115 24 195 59q29 11 39 11q43 0 43 -54v-680
q0 -158 24 -208q17 -36 62 -64q43 -27 43 -47q0 -39 -57 -39h-134q-30 -70 -30 -143q0 -64 37.5 -106t101.5 -42q18 0 38.5 5.5t34 10.5t15.5 5zM408 1481q56 -55 56 -90t-56 -91t-91 -56t-90 56t-55 91t55 90q56 57 91 57t90 -57z" />
    <glyph glyph-name="Idot" unicode="&#x130;" horiz-adv-x="655" 
d="M430 1149v-797q0 -146 21 -196q18 -44 63 -70t45 -47q0 -39 -63 -39h-336q-64 0 -64 39q0 21 43 45q45 26 66 72q20 44 20 196v797q0 111 -10 156q-9 42 -43 65q-7 4 -29.5 14.5t-29.5 19t-7 23.5q0 35 58 35h328q55 0 55 -35q0 -8 -3 -14.5t-11 -12.5t-13.5 -9.5
t-18.5 -10.5t-18 -10q-36 -25 -45 -65q-8 -36 -8 -156zM408 1786q18 -18 18 -80q0 -60 -18 -78t-78 -18q-61 0 -82 18q-19 19 -19 78q0 61 19 80q20 20 80 20t80 -20z" />
    <glyph glyph-name="dotlessi" unicode="&#x131;" horiz-adv-x="624" 
d="M422 1038v-680q0 -158 24 -208q17 -36 62 -64q43 -27 43 -47q0 -39 -57 -39h-342q-56 0 -56 39q0 22 43 49q47 27 62 62q24 50 24 208v365q0 135 -20 168q-16 28 -68 43q-49 18 -49 41q0 35 57 47q115 24 195 59q29 11 39 11q43 0 43 -54z" />
    <glyph glyph-name="IJ" unicode="&#x132;" horiz-adv-x="1259" 
d="M770 1462h342q57 0 57 -37q0 -26 -39 -43q-43 -21 -63 -59q-23 -51 -23 -219v-342q3 -243 3 -322q-3 -337 -70 -489q-48 -111 -131 -176q-81 -66 -123 -66q-19 0 -33 21t-14 45q0 21 39 47q35 21 59 55q66 97 66 414v813q0 167 -25 219q-16 36 -63 59q-37 15 -37 43
q0 37 55 37zM430 1149v-797q0 -146 21 -196q18 -44 63 -70t45 -47q0 -39 -63 -39h-336q-64 0 -64 39q0 21 43 45q45 26 66 72q20 44 20 196v797q0 111 -10 156q-9 42 -43 65q-7 4 -29.5 14.5t-29.5 19t-7 23.5q0 35 58 35h328q55 0 55 -35q0 -8 -3 -14.5t-11 -12.5
t-13.5 -9.5t-18.5 -10.5t-18 -10q-36 -25 -45 -65q-8 -36 -8 -156z" />
    <glyph glyph-name="ij" unicode="&#x133;" horiz-adv-x="1251" 
d="M408 1481q56 -55 56 -90t-56 -91t-91 -56t-90 56t-55 91t55 90q56 57 91 57t90 -57zM420 1038v-680q0 -158 24 -208q17 -36 62 -64q43 -27 43 -47q0 -39 -57 -39h-342q-56 0 -56 39q0 22 43 49q47 27 62 62q24 50 24 208v365q0 135 -20 168q-16 28 -68 43q-49 18 -49 41
q0 35 57 47q115 24 195 59q29 11 39 11q43 0 43 -54zM1073 1038v-833q0 -260 -76 -385q-60 -98 -166 -155.5t-225 -57.5q-90 0 -129 33q-53 44 -53 139q0 94 57 94q17 2 41.5 -20.5t47.5 -50t59 -50t73 -20.5q80 0 127 80q45 71 48 335q0 62 -3 299v279q0 133 -20 166
q-17 24 -66 41q-51 20 -51 43q0 35 58 47q101 20 184 57q29 13 47 13q47 0 47 -54zM1059 1481q55 -55 55 -90t-55 -91t-90 -56t-92 56q-55 56 -55 91t55 90q57 57 92 57t90 -57z" />
    <glyph glyph-name="Jcircumflex" unicode="&#x134;" horiz-adv-x="1032" 
d="M57 20q-53 47 -53 187q0 92 55 92q23 0 43 -20t37 -48.5t38 -56.5t55 -48t77 -20q71 0 127 56q43 47 60.5 122t17.5 214v606q0 171 -25 219q-20 39 -65 59q-37 18 -37 43q0 37 57 37h342q56 0 56 -37q0 -28 -37 -43q-46 -21 -64 -59q-24 -53 -24 -219v-221q2 -117 2 -256
q-2 -157 -21 -256.5t-65 -175.5q-63 -100 -174 -159t-238 -59q-112 0 -164 43zM420 1612h-86q-10 0 -10 8q0 3 10 16l176 215q16 19 37 19h127q21 0 37 -19l176 -215q10 -13 10 -16q0 -8 -10 -8h-88q-17 0 -31 14l-152 154q-4 4 -6 4t-6 -4l-153 -156q-12 -12 -31 -12z" />
    <glyph glyph-name="jcircumflex" unicode="&#x135;" horiz-adv-x="630" 
d="M457 1038v-833q0 -260 -76 -385q-60 -98 -166 -155.5t-225 -57.5q-90 0 -129 33q-54 45 -54 139t58 94q16 2 40.5 -20.5t48 -50t59.5 -50t73 -20.5q80 0 127 80q44 69 47 335q0 141 -2 299v279q0 133 -20 166q-17 24 -66 41q-51 20 -51 43q0 35 57 47q101 20 184 57
q29 13 48 13q47 0 47 -54zM160 1229h-86q-11 0 -11 8q0 1 11 16l176 215q16 19 37 19h127q21 0 37 -19l176 -215q10 -13 10 -16q0 -8 -10 -8h-88q-17 0 -31 14l-152 154q-4 5 -6 5t-6 -5l-154 -156q-12 -12 -30 -12z" />
    <glyph glyph-name="Kcommaaccent" unicode="&#x136;" horiz-adv-x="1486" 
d="M1438 39q0 -39 -54 -39h-139q-83 0 -129 37q-42 36 -272 362q-139 196 -182 246q-41 47 -64 47q-18 0 -59 -35l-86 -82q-23 -23 -23 -45v-178q0 -149 21 -198q18 -43 61 -70q45 -23 45 -45q0 -39 -63 -39h-334q-64 0 -64 39q0 21 45 47q48 28 62 66q20 41 20 200v797
q0 122 -8 158q-9 43 -43 63q-9 5 -24.5 12.5t-22.5 11.5t-13 12.5t-6 20.5q0 35 56 35h330q55 0 55 -35q2 -7 -1 -13.5t-11.5 -13t-16 -11t-19.5 -10.5l-18 -9q-34 -20 -43 -63q-8 -36 -8 -158v-430q0 -8 6 -8q5 0 13 8l442 428q135 135 135 184q0 31 -31 53q-30 21 -30 41
q0 37 61 37h344q53 0 53 -37q0 -14 -10 -23t-38.5 -20.5t-35.5 -15.5q-125 -58 -331 -258l-291 -277q-8 -8 -8 -12q0 -12 12 -12q2 0 15.5 4t21.5 4q37 0 82 -57q51 -64 151 -207q14 -23 45 -66q148 -215 226 -299q77 -83 124 -102q52 -21 52 -45zM844 -72q51 -54 51 -121
q0 -96 -82 -200q-31 -39 -70 -70t-61 -31q-11 0 -21 9.5t-10 21.5q0 8 12 18.5t32 28.5t34 39q33 44 33 78q0 37 -53 90q-47 47 -47 76q0 27 40 70q40 40 68 40q34 0 74 -49z" />
    <glyph glyph-name="kcommaaccent" unicode="&#x137;" horiz-adv-x="1261" 
d="M1171 86q54 -22 54 -47q0 -39 -56 -39h-135q-79 0 -123 33q-33 26 -65 67l-35 52q-10 18 -50.5 76.5t-51.5 74.5q-88 124 -115 154q-29 39 -57 39q-15 0 -56 -35l-55 -51q-8 -8 -8 -23v-22q0 -175 24 -218q15 -27 42.5 -46t45 -31.5t17.5 -30.5q0 -39 -58 -39h-348
q-57 0 -57 39q0 22 43 49q42 25 63 64q25 48 25 215v850q0 84 -20 110q-19 28 -68 43q-51 15 -51 43q0 20 12 30t47 17q114 20 199 60q27 10 39 10q45 0 45 -53v-910q0 -10 6 -10q4 0 10 6q127 111 217 197q135 132 135 176q0 28 -32 47q-33 20 -33 45q0 41 63 41h353
q53 0 53 -37q0 -13 -8.5 -23t-18 -14.5t-30.5 -12.5t-31 -13q-91 -38 -178 -111q-102 -81 -267 -235q-8 -8 -8 -15q0 -10 10 -10q3 0 16 5t21 5q39 0 81.5 -48.5t137.5 -188.5q110 -161 156 -209q53 -56 100 -76zM741 -72q52 -55 52 -121q0 -96 -82 -200q-31 -39 -70 -70
t-61 -31q-11 0 -21 9.5t-10 21.5q0 8 12 18.5t32 28.5t34 39q32 43 32 78q0 37 -53 90q-47 47 -47 76q0 26 41 70q40 40 68 40q33 0 73 -49z" />
    <glyph glyph-name="kra" unicode="&#x138;" horiz-adv-x="1273" 
d="M1184 86q53 -21 53 -47q0 -39 -55 -39h-135q-79 0 -123 33q-36 28 -66 67l-35 52q-10 18 -50.5 76.5t-51.5 74.5q-88 124 -115 154q-29 39 -57 39q-14 0 -55 -35l-56 -51q-8 -8 -8 -23v-22q0 -173 25 -218q12 -22 31.5 -38.5t34.5 -24.5t26.5 -19.5t11.5 -25.5
q0 -39 -57 -39h-348q-58 0 -58 39q0 22 43 49q44 25 64 64q24 46 24 215v411q0 85 -20 111q-19 28 -68 43q-51 15 -51 43q0 20 12 30t47 17q118 21 199 59q29 11 39 11q45 0 45 -54v-471q0 -10 6 -10q4 0 10 6q138 120 218 197q135 132 135 176q0 27 -33 47t-33 45
q0 41 64 41h352q53 0 53 -37q0 -13 -8.5 -23t-18 -14.5t-30.5 -12.5t-31 -13q-91 -38 -178 -111q-95 -76 -266 -235q-8 -8 -8 -15q0 -10 10 -10q3 0 16 5t21 5q39 0 81.5 -48.5t137.5 -188.5q113 -164 155 -209q52 -55 101 -76z" />
    <glyph glyph-name="Lacute" unicode="&#x139;" horiz-adv-x="1153" 
d="M1083 401q58 0 58 -55q0 -14 -17 -80q-14 -55 -20 -94q-8 -52 -19 -94q-8 -38 -37 -66t-71 -28q-27 0 -123 8t-227 8h-467q-64 0 -64 39q0 20 43 47q45 26 66 70q20 44 20 196v797q0 110 -10 158q-9 42 -43 63q-11 9 -30 17t-27.5 16t-8.5 24q0 35 58 35h328q57 0 57 -35
q0 -16 -8.5 -24t-27.5 -16t-30 -17q-37 -22 -45 -63q-8 -36 -8 -158v-856q0 -83 6.5 -115.5t28.5 -50.5q24 -21 133 -21q110 0 193 29.5t124 75.5q28 31 60.5 83.5t56 79.5t51.5 27zM575 1835l-305 -193q-33 -20 -73 -20h-113q-14 0 -14 12q0 8 14 19l215 188q32 29 80 29
h190q23 0 23 -15q0 -10 -17 -20z" />
    <glyph glyph-name="lacute" unicode="&#x13a;" horiz-adv-x="610" 
d="M406 1477v-1119q0 -158 24 -208q17 -36 62 -64q43 -27 43 -47q0 -39 -58 -39h-342q-55 0 -55 39q0 22 43 49q46 26 61 62q25 52 25 208v803q0 133 -21 168q-16 28 -67 43q-49 18 -49 41q0 35 57 47q110 23 195 60q27 10 38 10q44 0 44 -53zM543 1835l-305 -193
q-33 -20 -74 -20h-113q-14 0 -14 12q0 8 14 19l215 188q32 29 80 29h191q22 0 22 -15q0 -10 -16 -20z" />
    <glyph glyph-name="Lcommaaccent" unicode="&#x13b;" horiz-adv-x="1153" 
d="M1083 401q58 0 58 -55q0 -14 -17 -80q-14 -55 -20 -94q-8 -52 -19 -94q-8 -38 -37 -66t-71 -28q-27 0 -123 8t-227 8h-467q-64 0 -64 39q0 20 43 47q45 26 66 70q20 44 20 196v797q0 110 -10 158q-9 42 -43 63q-11 9 -30 17t-27.5 16t-8.5 24q0 35 58 35h328q57 0 57 -35
q0 -16 -8.5 -24t-27.5 -16t-30 -17q-37 -22 -45 -63q-8 -36 -8 -158v-856q0 -83 6.5 -115.5t28.5 -50.5q24 -21 133 -21q110 0 193 29.5t124 75.5q28 31 60.5 83.5t56 79.5t51.5 27zM647 -72q51 -54 51 -121q0 -96 -82 -200q-31 -39 -70 -70t-61 -31q-11 0 -20.5 9.5
t-9.5 21.5q0 8 11.5 18.5t31.5 28.5t34 39q33 44 33 78q0 37 -53 90q-47 47 -47 76q0 26 41 70q40 40 67 40q34 0 74 -49z" />
    <glyph glyph-name="lcommaaccent" unicode="&#x13c;" horiz-adv-x="610" 
d="M406 1477v-1119q0 -158 24 -208q17 -36 62 -64q43 -27 43 -47q0 -39 -58 -39h-342q-55 0 -55 39q0 22 43 49q46 26 61 62q25 52 25 208v803q0 133 -21 168q-16 28 -67 43q-49 18 -49 41q0 35 57 47q110 23 195 60q27 10 38 10q44 0 44 -53zM371 -72q51 -54 51 -121
q0 -96 -82 -200q-31 -39 -70 -70t-61 -31q-11 0 -21 9.5t-10 21.5q0 8 12 18.5t32 28.5t34 39q33 44 33 78q0 37 -53 90q-48 48 -48 76q0 26 41 70q40 40 68 40q34 0 74 -49z" />
    <glyph glyph-name="Lcaron" unicode="&#x13d;" horiz-adv-x="1153" 
d="M1083 401q58 0 58 -55q0 -14 -17 -80q-14 -55 -20 -94q-8 -52 -19 -94q-8 -38 -37 -66t-71 -28q-27 0 -123 8t-227 8h-467q-64 0 -64 39q0 20 43 47q45 26 66 70q20 44 20 196v797q0 110 -10 158q-9 42 -43 63q-11 9 -30 17t-27.5 16t-8.5 24q0 35 58 35h328q57 0 57 -35
q0 -16 -8.5 -24t-27.5 -16t-30 -17q-37 -22 -45 -63q-8 -36 -8 -158v-856q0 -83 6.5 -115.5t28.5 -50.5q24 -21 133 -21q110 0 193 29.5t124 75.5q28 31 60.5 83.5t56 79.5t51.5 27zM913 1438q52 -58 52 -121q0 -97 -82 -201q-31 -39 -70 -69.5t-61 -30.5q-11 0 -21 9.5
t-10 21.5q0 8 12 18.5t32 28.5t34 39q32 43 32 77q0 37 -53 90q-47 47 -47 76q0 27 41 68q40 43 68 43q33 0 73 -49z" />
    <glyph glyph-name="lcaron" unicode="&#x13e;" horiz-adv-x="751" 
d="M406 1477v-1119q0 -158 24 -208q17 -36 62 -64q43 -27 43 -47q0 -39 -58 -39h-342q-55 0 -55 39q0 22 43 49q46 26 61 62q25 52 25 208v803q0 133 -21 168q-16 28 -67 43q-49 18 -49 41q0 35 57 47q110 23 195 60q27 10 38 10q44 0 44 -53zM784 1438q52 -58 52 -121
q0 -97 -82 -201q-31 -39 -70 -69.5t-61 -30.5q-11 0 -21 9.5t-10 21.5q0 8 12 18.5t32 28.5t34 39q32 43 32 77q0 37 -53 90q-47 47 -47 76q0 27 41 68q40 43 68 43q33 0 73 -49z" />
    <glyph glyph-name="Ldot" unicode="&#x13f;" horiz-adv-x="1153" 
d="M1083 401q58 0 58 -55q0 -14 -17 -80q-14 -55 -20 -94q-8 -52 -19 -94q-8 -38 -37 -66t-71 -28q-27 0 -123 8t-227 8h-467q-64 0 -64 39q0 20 43 47q45 26 66 70q20 44 20 196v797q0 110 -10 158q-9 42 -43 63q-11 9 -30 17t-27.5 16t-8.5 24q0 35 58 35h328q57 0 57 -35
q0 -16 -8.5 -24t-27.5 -16t-30 -17q-37 -22 -45 -63q-8 -36 -8 -158v-856q0 -83 6.5 -115.5t28.5 -50.5q24 -21 133 -21q110 0 193 29.5t124 75.5q28 31 60.5 83.5t56 79.5t51.5 27zM879 852q18 -18 18 -80q0 -60 -18 -78t-78 -18q-61 0 -82 18q-19 19 -19 78q0 61 19 80
q20 20 80 20t80 -20z" />
    <glyph glyph-name="ldot" unicode="&#x140;" horiz-adv-x="712" 
d="M406 1477v-1119q0 -158 24 -208q17 -36 62 -64q43 -27 43 -47q0 -39 -58 -39h-342q-55 0 -55 39q0 22 43 49q46 26 61 62q25 52 25 208v803q0 133 -21 168q-16 28 -67 43q-49 18 -49 41q0 35 57 47q110 23 195 60q27 10 38 10q44 0 44 -53zM723 811q18 -18 18 -80
q0 -60 -18 -78t-78 -18q-61 0 -82 18q-18 18 -18 78q0 62 18 80q20 20 80 20t80 -20z" />
    <glyph glyph-name="Lslash" unicode="&#x141;" horiz-adv-x="1175" 
d="M1104 401q59 0 59 -57q0 -22 -12 -63q-10 -29 -45 -203q-8 -38 -37.5 -66t-71.5 -28q-26 0 -125 8q-96 8 -225 8h-467q-63 0 -63 39q0 21 45 47q46 27 65 76t19 190v269l-99 -52q-13 -8 -22 -8q-10 0 -10 12v74q0 17 16 27l115 57v418q0 110 -10 158q-9 42 -43 63
q-11 9 -30 17t-27.5 16t-8.5 24q0 35 57 35h328q57 0 57 -35q0 -16 -8 -24t-27 -16t-30 -17q-37 -22 -45 -63q-8 -39 -8 -158v-320l215 109q12 6 16 6q10 0 10 -10v-76q0 -19 -14 -27l-227 -112v-379q0 -121 5.5 -159t28.5 -54q27 -21 117 -21q171 0 268 54q58 30 99 92
q9 13 23 34.5t21.5 32.5t18.5 26.5t19 23.5t17.5 16.5t18 12t17.5 3.5z" />
    <glyph glyph-name="lslash" unicode="&#x142;" horiz-adv-x="675" 
d="M434 872l160 80q12 4 14 4q10 0 10 -14v-72q0 -16 -16 -26l-168 -82v-404q0 -148 23 -202q10 -23 29.5 -42t35.5 -28.5t28.5 -21.5t12.5 -25q0 -39 -55 -39h-342q-57 0 -57 39q0 22 43 49q44 26 63 62q23 51 23 208v308l-154 -76q-12 -6 -16 -6q-11 0 -11 12v72
q0 17 15 26l166 82v422q0 103 -23 133q-23 27 -68 41q-47 18 -47 41q0 35 58 47q126 28 196 60q27 10 39 10q41 0 41 -53v-605z" />
    <glyph glyph-name="Nacute" unicode="&#x143;" horiz-adv-x="1595" 
d="M1133 1462h323q66 0 66 -39q0 -9 -3 -16t-11 -12.5t-12.5 -8t-17.5 -8t-16 -6.5q-51 -25 -74 -74t-30 -170q-8 -123 -8 -1118q0 -26 -29 -26h-82q-25 0 -41 22l-807 1133q-9 12 -14 12q-8 0 -8 -10q0 -684 8 -801q6 -113 38 -167.5t99 -82.5q51 -20 51 -51q0 -39 -59 -39
h-367q-61 0 -61 39q0 29 75 58q5 2 7 3q33 15 59.5 78.5t30.5 161.5q8 177 8 948q0 17 -12 29q-30 30 -60 43q-3 1 -37.5 13.5t-48.5 23t-10 24.5q0 41 64 41h215q48 0 69 -30l781 -1092q11 -14 14 -14q8 0 8 10q0 663 -6 792q-6 117 -30.5 168t-76.5 72q-1 0 -8 3
t-15.5 6.5t-10.5 4.5q-3 3 -12 9t-13 12.5t-4 17.5q0 41 68 41zM1122 1835l-305 -193q-33 -20 -74 -20h-112q-15 0 -15 12q0 7 15 19l215 188q32 29 80 29h190q23 0 23 -15q0 -10 -17 -20z" />
    <glyph glyph-name="nacute" unicode="&#x144;" horiz-adv-x="1298" 
d="M1106 686v-326q0 -172 31 -223q16 -26 57 -53q43 -27 43 -45q0 -39 -57 -39h-344q-58 0 -58 39q0 20 43 47q47 29 60 59q26 51 26 215v320q0 125 -58 190.5t-157 65.5q-104 0 -176 -72q-57 -57 -78 -162q-18 -102 -18 -342q0 -166 29 -219q17 -30 57 -57q43 -27 43 -45
q0 -39 -55 -39h-340q-56 0 -56 39q0 22 43 49q47 27 62 62q24 56 24 210v400q0 103 -20 129q-17 23 -68 41q-51 20 -51 43q0 35 57 47q111 21 191 61q29 11 39 11q45 0 45 -58v-121q0 -10 6 -10q3 0 10 10q120 179 332 179q176 0 268 -127q70 -94 70 -279zM913 1446
l-305 -193q-33 -20 -73 -20h-113q-14 0 -14 12q0 8 14 19l215 188q32 29 80 29h190q23 0 23 -15q0 -10 -17 -20z" />
    <glyph glyph-name="Ncommaaccent" unicode="&#x145;" horiz-adv-x="1595" 
d="M1133 1462h323q66 0 66 -39q0 -9 -3 -16t-11 -12.5t-12.5 -8t-17.5 -8t-16 -6.5q-51 -25 -74 -74t-30 -170q-8 -123 -8 -1118q0 -26 -29 -26h-82q-25 0 -41 22l-807 1133q-9 12 -14 12q-8 0 -8 -10q0 -684 8 -801q6 -113 38 -167.5t99 -82.5q51 -20 51 -51q0 -39 -59 -39
h-367q-61 0 -61 39q0 29 75 58q5 2 7 3q33 15 59.5 78.5t30.5 161.5q8 177 8 948q0 17 -12 29q-30 30 -60 43q-3 1 -37.5 13.5t-48.5 23t-10 24.5q0 41 64 41h215q48 0 69 -30l781 -1092q11 -14 14 -14q8 0 8 10q0 663 -6 792q-6 117 -30.5 168t-76.5 72q-1 0 -8 3
t-15.5 6.5t-10.5 4.5q-3 3 -12 9t-13 12.5t-4 17.5q0 41 68 41zM913 -72q52 -55 52 -121q0 -96 -82 -200q-31 -39 -70 -70t-61 -31q-11 0 -21 9.5t-10 21.5q0 8 12 18.5t32 28.5t34 39q32 43 32 78q0 37 -53 90q-47 47 -47 76q0 26 41 70q40 40 68 40q33 0 73 -49z" />
    <glyph glyph-name="ncommaaccent" unicode="&#x146;" horiz-adv-x="1298" 
d="M1106 686v-326q0 -172 31 -223q16 -26 57 -53q43 -27 43 -45q0 -39 -57 -39h-344q-58 0 -58 39q0 20 43 47q47 29 60 59q26 51 26 215v320q0 125 -58 190.5t-157 65.5q-104 0 -176 -72q-57 -57 -78 -162q-18 -102 -18 -342q0 -166 29 -219q17 -30 57 -57q43 -27 43 -45
q0 -39 -55 -39h-340q-56 0 -56 39q0 22 43 49q47 27 62 62q24 56 24 210v400q0 103 -20 129q-17 23 -68 41q-51 20 -51 43q0 35 57 47q111 21 191 61q29 11 39 11q45 0 45 -58v-121q0 -10 6 -10q3 0 10 10q120 179 332 179q176 0 268 -127q70 -94 70 -279zM729 -70
q51 -54 51 -120q0 -97 -82 -201q-31 -39 -70 -70t-61 -31q-11 0 -20.5 9.5t-9.5 21.5q0 8 11.5 18.5t31.5 28.5t34 39q33 44 33 78q0 37 -53 90q-47 47 -47 76q0 26 41 70q41 41 67 41q33 0 74 -50z" />
    <glyph glyph-name="Ncaron" unicode="&#x147;" horiz-adv-x="1595" 
d="M1133 1462h323q66 0 66 -39q0 -9 -3 -16t-11 -12.5t-12.5 -8t-17.5 -8t-16 -6.5q-51 -25 -74 -74t-30 -170q-8 -123 -8 -1118q0 -26 -29 -26h-82q-25 0 -41 22l-807 1133q-9 12 -14 12q-8 0 -8 -10q0 -684 8 -801q6 -113 38 -167.5t99 -82.5q51 -20 51 -51q0 -39 -59 -39
h-367q-61 0 -61 39q0 29 75 58q5 2 7 3q33 15 59.5 78.5t30.5 161.5q8 177 8 948q0 17 -12 29q-30 30 -60 43q-3 1 -37.5 13.5t-48.5 23t-10 24.5q0 41 64 41h215q48 0 69 -30l781 -1092q11 -14 14 -14q8 0 8 10q0 663 -6 792q-6 117 -30.5 168t-76.5 72q-1 0 -8 3
t-15.5 6.5t-10.5 4.5q-3 3 -12 9t-13 12.5t-4 17.5q0 41 68 41zM1004 1870h86q10 0 10 -8q0 -4 -10 -17l-177 -215q-15 -18 -36 -18h-127q-22 0 -37 18l-176 215q-11 15 -11 17q0 8 11 8h88q15 0 30 -15l152 -153q5 -4 6 -4t6 4l154 156q12 12 31 12z" />
    <glyph glyph-name="ncaron" unicode="&#x148;" horiz-adv-x="1298" 
d="M1106 686v-326q0 -172 31 -223q16 -26 57 -53q43 -27 43 -45q0 -39 -57 -39h-344q-58 0 -58 39q0 20 43 47q47 29 60 59q26 51 26 215v320q0 125 -58 190.5t-157 65.5q-104 0 -176 -72q-57 -57 -78 -162q-18 -102 -18 -342q0 -166 29 -219q17 -30 57 -57q43 -27 43 -45
q0 -39 -55 -39h-340q-56 0 -56 39q0 22 43 49q47 27 62 62q24 56 24 210v400q0 103 -20 129q-17 23 -68 41q-51 20 -51 43q0 35 57 47q111 21 191 61q29 11 39 11q45 0 45 -58v-121q0 -10 6 -10q3 0 10 10q120 179 332 179q176 0 268 -127q70 -94 70 -279zM854 1487h86
q10 0 10 -8q0 -4 -10 -17l-176 -215q-15 -18 -37 -18h-127q-22 0 -37 18l-176 215q-10 13 -10 17q0 8 10 8h88q17 0 31 -14l151 -154q7 -7 13 0l153 156q12 12 31 12z" />
    <glyph glyph-name="napostrophe" unicode="&#x149;" horiz-adv-x="1378" 
d="M1186 686v-326q0 -172 31 -223q16 -26 57 -53q43 -27 43 -45q0 -39 -57 -39h-345q-57 0 -57 39q0 20 43 47q47 29 60 59q26 51 26 215v320q0 125 -58 190.5t-157 65.5q-104 0 -176 -72q-57 -57 -78 -162q-18 -102 -18 -342q0 -168 28 -219q16 -29 58 -57q43 -27 43 -45
q0 -39 -56 -39h-340q-55 0 -55 39q0 22 43 49q47 27 62 62q24 56 24 210v400q0 103 -20 129q-17 23 -68 41q-51 20 -51 43q0 35 57 47q111 21 191 61q29 11 39 11q45 0 45 -58v-121q0 -10 6 -10q3 0 10 10q120 179 332 179q176 0 268 -127q70 -94 70 -279zM147 1438
q52 -58 52 -121q0 -97 -82 -201q-31 -39 -70 -69.5t-61 -30.5q-11 0 -21 9.5t-10 21.5q0 8 12 18.5t32 28.5t34 39q33 44 33 77q0 36 -54 90q-47 47 -47 76q0 27 41 68q40 43 68 43q33 0 73 -49z" />
    <glyph glyph-name="Eng" unicode="&#x14a;" horiz-adv-x="1597" 
d="M1135 1462h325q66 0 66 -37q1 -8 -2.5 -15t-11.5 -13t-14 -9.5t-17 -8.5t-15 -7q-34 -15 -52 -34t-32.5 -69.5t-21.5 -140.5q-6 -111 -6 -559v-293q0 -253 -25 -348q-38 -143 -155 -229q-119 -90 -271 -90q-90 0 -129 33q-53 47 -53 165q0 68 57 68q18 0 36.5 -14.5
t35.5 -35.5t37 -42.5t49 -36t63 -14.5q94 0 140 88q30 62 30 198q0 32 -16 54l-764 1073q-6 6 -10 6q-8 0 -8 -12q0 -680 8 -797q6 -113 39 -169.5t98 -84.5q51 -20 51 -49q0 -39 -59 -39h-365q-63 0 -63 41q0 8 2.5 14t11 12t12 8t17 8t14.5 7q109 53 115 250q8 177 8 948
q0 19 -12 31q-21 21 -60 41q-11 6 -40.5 15.5t-44.5 19.5t-11 26q0 41 66 41h213q50 0 71 -30l779 -1092q21 -25 22 -4q0 663 -6 792q-6 115 -29 165.5t-75 74.5q-5 3 -17 8t-18.5 8t-14 8.5t-11 12.5t-3.5 16q0 41 66 41z" />
    <glyph glyph-name="eng" unicode="&#x14b;" horiz-adv-x="1267" 
d="M1106 686v-481q0 -260 -76 -385q-60 -98 -166 -155.5t-225 -57.5q-90 0 -129 33q-53 44 -53 139q0 94 57 94q17 2 41.5 -20.5t47.5 -50t59 -50t73 -20.5q80 0 127 80q45 74 45 335v533q0 125 -58 190.5t-157 65.5q-104 0 -176 -72q-57 -57 -78 -162q-18 -102 -18 -342
q0 -166 29 -219q17 -30 57 -57q43 -27 43 -45q0 -39 -55 -39h-340q-56 0 -56 39q0 22 43 49q47 27 62 62q24 56 24 210v400q0 103 -20 129q-17 23 -68 41q-51 20 -51 43q0 35 57 47q111 21 191 61q29 11 39 11q45 0 45 -58v-121q0 -10 6 -10q3 0 10 10q120 179 332 179
q176 0 268 -127q70 -94 70 -279z" />
    <glyph glyph-name="Omacron" unicode="&#x14c;" horiz-adv-x="1636" 
d="M805 1380q-231 0 -363 -178q-129 -176 -129 -426q0 -292 144 -491q144 -197 374 -197q222 0 357 170t135 442q0 97 -20 192.5t-63 183.5t-103 155.5t-146 108t-186 40.5zM1550 743q0 -308 -207 -538q-205 -228 -526 -228q-333 0 -534 201q-197 203 -197 533
q0 317 203 546q205 230 530 230q335 0 533 -207q198 -204 198 -537zM512 1702v78q0 18 18 18h592q19 0 19 -18v-78q0 -19 -19 -19h-592q-18 0 -18 19z" />
    <glyph glyph-name="omacron" unicode="&#x14d;" horiz-adv-x="1210" 
d="M918 481q0 123 -35 236q-34 118 -114 195t-185 77q-132 0 -211.5 -107t-79.5 -280q0 -218 92 -369q94 -149 242 -149q143 0 217 115q74 118 74 282zM612 1092q237 0 375 -156q139 -157 139 -395q0 -237 -147 -400q-147 -164 -373 -164q-235 0 -379 150q-143 149 -143 399
q0 238 149 400q150 166 379 166zM293 1366v78q0 18 18 18h592q19 0 19 -18v-78q0 -18 -19 -18h-592q-18 0 -18 18z" />
    <glyph glyph-name="Obreve" unicode="&#x14e;" horiz-adv-x="1636" 
d="M805 1380q-231 0 -363 -178q-129 -176 -129 -426q0 -292 144 -491q144 -197 374 -197q222 0 357 170t135 442q0 97 -20 192.5t-63 183.5t-103 155.5t-146 108t-186 40.5zM1550 743q0 -308 -207 -538q-205 -228 -526 -228q-333 0 -534 201q-197 203 -197 533
q0 317 203 546q205 230 530 230q335 0 533 -207q198 -204 198 -537zM825 1610q-103 0 -173 59.5t-70 149.5q0 47 39 47q23 0 36 -29q52 -119 170 -119t170 119q16 29 37 29q37 0 37 -47q0 -86 -74 -148q-70 -61 -172 -61z" />
    <glyph glyph-name="obreve" unicode="&#x14f;" horiz-adv-x="1210" 
d="M918 481q0 123 -35 236q-34 118 -114 195t-185 77q-132 0 -211.5 -107t-79.5 -280q0 -218 92 -369q94 -149 242 -149q143 0 217 115q74 118 74 282zM612 1092q237 0 375 -156q139 -157 139 -395q0 -237 -147 -400q-147 -164 -373 -164q-235 0 -379 150q-143 149 -143 399
q0 238 149 400q150 166 379 166zM606 1227q-104 0 -174 59.5t-70 149.5q0 47 39 47q24 0 37 -29q52 -119 170 -119t170 119q16 29 37 29q37 0 37 -47q0 -86 -74 -148q-70 -61 -172 -61z" />
    <glyph glyph-name="Ohungarumlaut" unicode="&#x150;" horiz-adv-x="1636" 
d="M805 1380q-231 0 -363 -178q-129 -176 -129 -426q0 -292 144 -491q144 -197 374 -197q222 0 357 170t135 442q0 97 -20 192.5t-63 183.5t-103 155.5t-146 108t-186 40.5zM1550 743q0 -308 -207 -538q-205 -228 -526 -228q-333 0 -534 201q-197 203 -197 533
q0 317 203 546q205 230 530 230q335 0 533 -207q198 -204 198 -537zM649 1853q27 15 80 15q117 0 117 -39q0 -17 -25 -39.5t-100 -75.5q-131 -94 -207 -94q-51 0 -51 27q0 26 74 106q74 83 112 100zM1024 1853q27 15 80 15q117 0 117 -39q0 -17 -25 -39.5t-100 -75.5
q-131 -94 -207 -94q-51 0 -51 27t73 106q73 82 113 100z" />
    <glyph glyph-name="ohungarumlaut" unicode="&#x151;" horiz-adv-x="1210" 
d="M918 481q0 123 -35 236q-34 118 -114 195t-185 77q-132 0 -211.5 -107t-79.5 -280q0 -218 92 -369q94 -149 242 -149q143 0 217 115q74 118 74 282zM612 1092q237 0 375 -156q139 -157 139 -395q0 -237 -147 -400q-147 -164 -373 -164q-235 0 -379 150q-143 149 -143 399
q0 238 149 400q150 166 379 166zM449 1470q27 15 79 15q117 0 117 -39q0 -17 -25 -39.5t-100 -75.5q-131 -94 -207 -94q-51 0 -51 27q0 26 74 106q73 82 113 100zM823 1470q27 15 80 15q117 0 117 -39q0 -17 -25 -39.5t-100 -75.5q-131 -94 -207 -94q-51 0 -51 27
q0 26 74 106q74 83 112 100z" />
    <glyph glyph-name="OE" unicode="&#x152;" horiz-adv-x="2136" 
d="M313 745q0 -104 20 -199.5t63.5 -180t106.5 -147t155 -98.5t202 -36q126 0 176 41q24 20 31.5 66.5t7.5 162.5v795q0 100 -8 131q-6 36 -39 59q-57 45 -188 45q-232 0 -379 -176q-148 -177 -148 -463zM1999 401q24 0 40.5 -14.5t16.5 -38.5q0 -26 -12 -69l-25 -109
q-9 -49 -22 -100q-8 -34 -37 -60t-70 -26q-27 0 -123 8t-225 8h-457q-15 0 -110.5 -11.5t-147.5 -11.5q-341 0 -542 216q-199 217 -199 530q0 116 31.5 227t95 207.5t151 170t207.5 115.5t256 42q65 0 148 -12q101 -11 115 -11h454q116 0 236 6q120 9 131 9q75 0 78 -58
q8 -161 8 -276q0 -62 -55 -62q-42 0 -64 60l-12 30q-10 33 -25 60q-22 46 -74 80q-71 47 -331 47h-111q-43 0 -43 -43v-445q0 -27 9 -36t38 -9q154 0 201 2l129 9q74 6 102 6q58 0 58 -37q0 -8 -4.5 -25t-4.5 -20q-6 -40 -25.5 -52t-74.5 -12q-4 0 -94 4q-16 1 -38 2t-37 2
t-25 1q-51 2 -207 2q-27 0 -27 -25v-393q0 -87 5.5 -116t27.5 -46q33 -23 147 -23q193 0 299 56q44 23 83.5 66t60.5 83q51 92 94 92z" />
    <glyph glyph-name="oe" unicode="&#x153;" horiz-adv-x="1933" 
d="M1133 694q-3 -9 -3 -16q0 -14 17 -14h334q109 0 141 32q31 31 31 86q0 80 -64 144q-62 65 -164 65q-114 0 -193.5 -84.5t-98.5 -212.5zM625 84q140 0 217 115q76 113 76 276q0 170 -72 330q-38 84 -107 134t-155 50q-142 0 -217 -112q-76 -110 -76 -275
q0 -79 18.5 -163.5t55.5 -166.5t105 -135t155 -53zM1698 563h-553q-23 0 -23 -24q0 -176 88 -289q94 -125 252 -125q69 0 130.5 22t96 48.5t63.5 48.5t42 22q20 0 32.5 -12t12.5 -31q0 -64 -125 -155q-126 -91 -301 -91q-265 0 -403 209q-150 -209 -406 -209
q-233 0 -377 150q-143 149 -143 399q0 236 147 400q147 163 373 166q285 0 428 -220q70 101 179.5 160.5t232.5 59.5q194 0 305 -123q113 -122 113 -260q0 -81 -39 -117q-32 -29 -125 -29z" />
    <glyph glyph-name="Racute" unicode="&#x154;" horiz-adv-x="1402" 
d="M463 803h125q106 0 185 28.5t127 95t48 165.5q0 148 -83.5 206t-268.5 58h-125q-41 0 -41 -35v-490q0 -28 33 -28zM1317 86q6 -6 19 -13t20.5 -14.5t7.5 -21.5q0 -37 -51 -37h-137q-45 0 -72 17t-53 57q-28 50 -39 78l-56 135l-49 127q-56 129 -115 193.5t-147 82.5
q-31 8 -110 8q-46 0 -82 -4q-23 -3 -23 -26v-310q0 -154 29 -217q10 -20 28.5 -35t33.5 -23t26.5 -19t11.5 -25q0 -39 -57 -39h-350q-56 0 -56 39q0 18 41 45q43 27 60 57q28 54 28 217v805q0 115 -8 148q-9 38 -49 59l-13 6q-13 6 -19.5 10t-16.5 11t-13 14t0 14
q0 37 56 37h182h158q72 2 157 2q293 0 406 -98q109 -92 109 -248q0 -91 -33 -153q-81 -164 -301 -199q-11 -1 -15.5 -6.5t0 -11.5t15.5 -7q105 -15 164 -86q63 -76 133 -243q78 -185 110 -242q35 -63 70 -84zM909 1835l-305 -193q-33 -20 -74 -20h-112q-15 0 -15 12
q0 7 15 19l215 188q32 29 80 29h190q23 0 23 -15q0 -10 -17 -20z" />
    <glyph glyph-name="racute" unicode="&#x155;" horiz-adv-x="833" 
d="M705 1092q59 0 94 -38t35 -100q0 -94 -70 -94q-20 0 -64 23q-42 22 -73 22q-70 0 -117 -71q-44 -65 -64 -164q-20 -97 -20 -312q0 -156 25 -208q18 -40 61 -64t43 -47q0 -39 -57 -39h-338q-58 0 -58 39q0 21 45 47q47 27 62 68q22 55 22 204v367q0 125 -26 164
q-18 24 -68 45q-49 21 -49 45q0 36 55 45q90 20 168 55q29 13 49 13q48 0 48 -58v-162q0 -8 4 -8q1 0 8 10q41 81 117 148q76 70 168 70zM690 1452l-305 -192q-35 -21 -74 -21h-112q-15 0 -15 12q0 7 15 19l215 188q32 29 80 29h190q23 0 23 -14q0 -11 -17 -21z" />
    <glyph glyph-name="Rcommaaccent" unicode="&#x156;" horiz-adv-x="1402" 
d="M463 803h125q106 0 185 28.5t127 95t48 165.5q0 148 -83.5 206t-268.5 58h-125q-41 0 -41 -35v-490q0 -28 33 -28zM1317 86q6 -6 19 -13t20.5 -14.5t7.5 -21.5q0 -37 -51 -37h-137q-45 0 -72 17t-53 57q-28 50 -39 78l-56 135l-49 127q-56 129 -115 193.5t-147 82.5
q-31 8 -110 8q-46 0 -82 -4q-23 -3 -23 -26v-310q0 -154 29 -217q10 -20 28.5 -35t33.5 -23t26.5 -19t11.5 -25q0 -39 -57 -39h-350q-56 0 -56 39q0 18 41 45q43 27 60 57q28 54 28 217v805q0 115 -8 148q-9 38 -49 59l-13 6q-13 6 -19.5 10t-16.5 11t-13 14t0 14
q0 37 56 37h182h158q72 2 157 2q293 0 406 -98q109 -92 109 -248q0 -91 -33 -153q-81 -164 -301 -199q-11 -1 -15.5 -6.5t0 -11.5t15.5 -7q105 -15 164 -86q63 -76 133 -243q78 -185 110 -242q35 -63 70 -84zM819 -72q51 -54 51 -121q0 -96 -82 -200q-31 -39 -70 -70
t-61 -31q-11 0 -20.5 9.5t-9.5 21.5q0 8 12 18.5t32 28.5t34 39q32 43 32 78q0 37 -53 90q-47 47 -47 76q0 26 41 70q40 40 67 40q34 0 74 -49z" />
    <glyph glyph-name="rcommaaccent" unicode="&#x157;" horiz-adv-x="833" 
d="M705 1092q59 0 94 -38t35 -100q0 -94 -70 -94q-20 0 -64 23q-42 22 -73 22q-70 0 -117 -71q-44 -65 -64 -164q-20 -97 -20 -312q0 -156 25 -208q18 -40 61 -64t43 -47q0 -39 -57 -39h-338q-58 0 -58 39q0 21 45 47q47 27 62 68q22 55 22 204v367q0 125 -26 164
q-18 24 -68 45q-49 21 -49 45q0 36 55 45q90 20 168 55q29 13 49 13q48 0 48 -58v-162q0 -8 4 -8q1 0 8 10q41 81 117 148q76 70 168 70zM401 -70q52 -58 52 -120q0 -97 -82 -201q-31 -39 -70 -70t-61 -31q-11 0 -21 9.5t-10 21.5q0 8 12 18.5t32 28.5t34 39q32 43 32 78
q0 37 -53 90q-47 47 -47 76q0 26 41 70q41 41 68 41q32 0 73 -50z" />
    <glyph glyph-name="Rcaron" unicode="&#x158;" horiz-adv-x="1402" 
d="M463 803h125q106 0 185 28.5t127 95t48 165.5q0 148 -83.5 206t-268.5 58h-125q-41 0 -41 -35v-490q0 -28 33 -28zM1317 86q6 -6 19 -13t20.5 -14.5t7.5 -21.5q0 -37 -51 -37h-137q-45 0 -72 17t-53 57q-28 50 -39 78l-56 135l-49 127q-56 129 -115 193.5t-147 82.5
q-31 8 -110 8q-46 0 -82 -4q-23 -3 -23 -26v-310q0 -154 29 -217q10 -20 28.5 -35t33.5 -23t26.5 -19t11.5 -25q0 -39 -57 -39h-350q-56 0 -56 39q0 18 41 45q43 27 60 57q28 54 28 217v805q0 115 -8 148q-9 38 -49 59l-13 6q-13 6 -19.5 10t-16.5 11t-13 14t0 14
q0 37 56 37h182h158q72 2 157 2q293 0 406 -98q109 -92 109 -248q0 -91 -33 -153q-81 -164 -301 -199q-11 -1 -15.5 -6.5t0 -11.5t15.5 -7q105 -15 164 -86q63 -76 133 -243q78 -185 110 -242q35 -63 70 -84zM827 1870h86q11 0 11 -8q0 -2 -11 -17l-176 -215
q-15 -18 -37 -18h-127q-21 0 -36 18l-177 215q-10 13 -10 17q0 8 10 8h89q15 0 30 -15l152 -153q5 -4 6 -4t6 4l154 156q12 12 30 12z" />
    <glyph glyph-name="rcaron" unicode="&#x159;" horiz-adv-x="833" 
d="M705 1092q59 0 94 -38t35 -100q0 -94 -70 -94q-20 0 -64 23q-42 22 -73 22q-70 0 -117 -71q-44 -65 -64 -164q-20 -97 -20 -312q0 -156 25 -208q18 -40 61 -64t43 -47q0 -39 -57 -39h-338q-58 0 -58 39q0 21 45 47q47 27 62 68q22 55 22 204v367q0 125 -26 164
q-18 24 -68 45q-49 21 -49 45q0 36 55 45q90 20 168 55q29 13 49 13q48 0 48 -58v-162q0 -8 4 -8q1 0 8 10q41 81 117 148q76 70 168 70zM641 1487h86q10 0 10 -8q0 -4 -10 -17l-176 -215q-15 -18 -37 -18h-127q-22 0 -37 18l-176 215q-10 13 -10 17q0 8 10 8h88
q17 0 31 -14l151 -154q6 -7 13 0l153 156q12 12 31 12z" />
    <glyph glyph-name="Sacute" unicode="&#x15a;" horiz-adv-x="1196" 
d="M983 1380q55 -61 55 -194q0 -117 -57 -117q-30 0 -51 29q-5 11 -43 71q-28 44 -49 68q-13 18 -58 63q-80 80 -200 80q-118 0 -187 -69t-69 -160q0 -177 272 -266q75 -23 225 -76q124 -44 199.5 -135.5t75.5 -224.5q0 -178 -148 -326q-146 -146 -407 -146q-143 0 -262 43
q-120 47 -160 119q-34 58 -37 135q0 8 -3 54t-3 61q0 60 51 60q22 0 39 -17q10 -8 27 -33t38.5 -59.5t34.5 -52.5q151 -195 334 -195q148 0 227 82q82 82 82 188q0 97 -57 160q-22 25 -48.5 45t-64.5 37.5t-63 27t-78.5 27t-75.5 25.5q-112 42 -184 74q-91 39 -146 118.5
t-55 190.5q0 171 139 295q137 125 365 125q110 0 205 -29t137 -78zM862 1835l-305 -193q-33 -20 -74 -20h-112q-15 0 -15 12q0 7 15 19l215 188q32 29 80 29h190q23 0 23 -15q0 -10 -17 -20z" />
    <glyph glyph-name="sacute" unicode="&#x15b;" horiz-adv-x="970" 
d="M78 274q0 88 55 88q23 0 37 -14q18 -15 43 -57l35 -55q109 -152 254 -152q91 0 149 49.5t58 122.5q0 128 -209 188q-149 46 -197 68q-156 70 -181 194q-5 26 -5 54q0 146 119 237q121 95 290 95q162 0 244 -60q66 -48 66 -155q0 -119 -62 -119q-24 0 -35 8
q-9 8 -32.5 49.5t-28.5 48.5q-83 121 -203 121q-71 0 -124.5 -44t-53.5 -110t70 -118q31 -20 104 -47q18 -5 68 -21.5t59 -19.5q124 -40 201 -101q92 -73 92 -205q0 -140 -121 -243q-120 -99 -307 -99q-102 0 -195 29.5t-135 71.5q-55 55 -55 196zM754 1452l-305 -192
q-34 -21 -74 -21h-113q-14 0 -14 12q0 8 14 19l215 188q32 29 80 29h191q22 0 22 -14q0 -11 -16 -21z" />
    <glyph glyph-name="Scircumflex" unicode="&#x15c;" horiz-adv-x="1196" 
d="M983 1380q55 -61 55 -194q0 -117 -57 -117q-30 0 -51 29q-5 11 -43 71q-28 44 -49 68q-13 18 -58 63q-80 80 -200 80q-118 0 -187 -69t-69 -160q0 -177 272 -266q75 -23 225 -76q124 -44 199.5 -135.5t75.5 -224.5q0 -178 -148 -326q-146 -146 -407 -146q-143 0 -262 43
q-120 47 -160 119q-34 58 -37 135q0 8 -3 54t-3 61q0 60 51 60q22 0 39 -17q10 -8 27 -33t38.5 -59.5t34.5 -52.5q151 -195 334 -195q148 0 227 82q82 82 82 188q0 97 -57 160q-22 25 -48.5 45t-64.5 37.5t-63 27t-78.5 27t-75.5 25.5q-112 42 -184 74q-91 39 -146 118.5
t-55 190.5q0 171 139 295q137 125 365 125q110 0 205 -29t137 -78zM412 1612h-86q-11 0 -11 8q0 1 11 16l176 215q16 19 37 19h127q20 0 36 -19l177 -215q10 -13 10 -16q0 -8 -10 -8h-88q-17 0 -31 14l-152 154q-4 4 -6 4t-6 -4l-154 -156q-12 -12 -30 -12z" />
    <glyph glyph-name="scircumflex" unicode="&#x15d;" horiz-adv-x="970" 
d="M78 274q0 88 55 88q23 0 37 -14q18 -15 43 -57l35 -55q109 -152 254 -152q91 0 149 49.5t58 122.5q0 128 -209 188q-149 46 -197 68q-156 70 -181 194q-5 26 -5 54q0 146 119 237q121 95 290 95q162 0 244 -60q66 -48 66 -155q0 -119 -62 -119q-24 0 -35 8
q-9 8 -32.5 49.5t-28.5 48.5q-83 121 -203 121q-71 0 -124.5 -44t-53.5 -110t70 -118q31 -20 104 -47q18 -5 68 -21.5t59 -19.5q124 -40 201 -101q92 -73 92 -205q0 -140 -121 -243q-120 -99 -307 -99q-102 0 -195 29.5t-135 71.5q-55 55 -55 196zM289 1229h-86q-10 0 -10 8
q0 3 10 16l176 215q16 19 37 19h127q21 0 37 -19l176 -215q10 -13 10 -16q0 -8 -10 -8h-88q-17 0 -31 14l-152 154q-5 5 -6 5t-6 -5l-154 -156q-12 -12 -30 -12z" />
    <glyph glyph-name="Scedilla" unicode="&#x15e;" horiz-adv-x="1196" 
d="M983 1380q55 -61 55 -194q0 -117 -57 -117q-30 0 -51 29q-5 11 -43 71q-28 44 -49 68q-13 18 -58 63q-80 80 -200 80q-118 0 -187 -69t-69 -160q0 -177 272 -266q75 -23 225 -76q124 -44 199.5 -135.5t75.5 -224.5q0 -164 -127 -306q-125 -140 -357 -161q-34 -43 -34 -70
q0 -17 21.5 -27t52.5 -16.5t62 -16.5t52.5 -34.5t21.5 -61.5q0 -63 -64 -107t-161 -44q-62 0 -109.5 18.5t-47.5 44.5q0 13 9 23t25 10q4 0 41.5 -8t61.5 -8q44 0 65 18q19 16 19 39q0 27 -25.5 43t-56.5 22.5t-56.5 23.5t-25.5 46q0 32 47 100q-129 3 -244 48
q-108 47 -147 114q-34 58 -37 135q0 8 -3 54t-3 61q0 60 51 60q22 0 39 -17q10 -8 27 -33t38.5 -59.5t34.5 -52.5q151 -195 334 -195q148 0 227 82q82 82 82 188q0 97 -57 160q-22 25 -48.5 45t-64.5 37.5t-63 27t-78.5 27t-75.5 25.5q-112 42 -184 74q-91 39 -146 118.5
t-55 190.5q0 171 139 295q137 125 365 125q110 0 205 -29t137 -78z" />
    <glyph glyph-name="scedilla" unicode="&#x15f;" horiz-adv-x="970" 
d="M78 274q0 88 55 88q23 0 37 -14q18 -15 43 -57l35 -55q109 -152 254 -152q91 0 149 49.5t58 122.5q0 128 -209 188q-149 46 -197 68q-156 70 -181 194q-5 26 -5 54q0 146 119 237q121 95 290 95q162 0 244 -60q66 -48 66 -155q0 -119 -62 -119q-24 0 -35 8
q-9 8 -32.5 49.5t-28.5 48.5q-83 121 -203 121q-71 0 -124.5 -44t-53.5 -110t70 -118q31 -20 104 -47q18 -5 68 -21.5t59 -19.5q124 -40 201 -101q92 -73 92 -205q0 -137 -107 -231q-110 -96 -278 -108q-32 -47 -32 -68t32 -33q13 -5 51 -14.5t61.5 -17.5t44.5 -31.5
t21 -59.5q0 -63 -64 -107t-161 -44q-63 0 -110.5 18.5t-47.5 44.5q0 13 9.5 23t25.5 10q4 0 41 -8t61 -8q45 0 66 18q18 15 18 39q0 27 -25.5 43t-56.5 22.5t-56.5 23.5t-25.5 46q0 33 48 103q-196 15 -273 98q-55 55 -55 196z" />
    <glyph glyph-name="Scaron" unicode="&#x160;" horiz-adv-x="1196" 
d="M983 1380q55 -61 55 -194q0 -117 -57 -117q-30 0 -51 29q-5 11 -43 71q-28 44 -49 68q-13 18 -58 63q-80 80 -200 80q-118 0 -187 -69t-69 -160q0 -177 272 -266q75 -23 225 -76q124 -44 199.5 -135.5t75.5 -224.5q0 -178 -148 -326q-146 -146 -407 -146q-143 0 -262 43
q-120 47 -160 119q-34 58 -37 135q0 8 -3 54t-3 61q0 60 51 60q22 0 39 -17q10 -8 27 -33t38.5 -59.5t34.5 -52.5q151 -195 334 -195q148 0 227 82q82 82 82 188q0 97 -57 160q-22 25 -48.5 45t-64.5 37.5t-63 27t-78.5 27t-75.5 25.5q-112 42 -184 74q-91 39 -146 118.5
t-55 190.5q0 171 139 295q137 125 365 125q110 0 205 -29t137 -78zM797 1870h86q10 0 10 -8q0 -4 -10 -17l-176 -215q-15 -18 -37 -18h-127q-22 0 -37 18l-176 215q-11 15 -11 17q0 8 11 8h88q16 0 31 -15l151 -153q4 -4 6 -4t6 4l154 156q12 12 31 12z" />
    <glyph glyph-name="scaron" unicode="&#x161;" horiz-adv-x="970" 
d="M78 274q0 88 55 88q23 0 37 -14q18 -15 43 -57l35 -55q109 -152 254 -152q91 0 149 49.5t58 122.5q0 128 -209 188q-149 46 -197 68q-156 70 -181 194q-5 26 -5 54q0 146 119 237q121 95 290 95q162 0 244 -60q66 -48 66 -155q0 -119 -62 -119q-24 0 -35 8
q-9 8 -32.5 49.5t-28.5 48.5q-83 121 -203 121q-71 0 -124.5 -44t-53.5 -110t70 -118q31 -20 104 -47q18 -5 68 -21.5t59 -19.5q124 -40 201 -101q92 -73 92 -205q0 -140 -121 -243q-120 -99 -307 -99q-102 0 -195 29.5t-135 71.5q-55 55 -55 196zM696 1487h86q11 0 11 -8
q0 -2 -11 -17l-176 -215q-15 -18 -37 -18h-127q-21 0 -36 18l-177 215q-10 13 -10 17q0 8 10 8h88q17 0 31 -14l152 -154q4 -5 6 -5t6 5l154 156q12 12 30 12z" />
    <glyph glyph-name="Tcommaaccent" unicode="&#x162;" horiz-adv-x="1230" 
d="M1202 1417q6 -61 6 -155q4 -102 4 -121q0 -62 -57 -62q-48 0 -74 92q-12 41 -44.5 84t-78.5 66q-64 31 -215 31q-26 0 -26 -27v-969q0 -153 22 -202q18 -41 62 -68q45 -26 45 -47q0 -39 -58 -39h-129q-51 -51 -51 -86q0 -17 21.5 -27t53 -16.5t62.5 -16.5t52.5 -34.5
t21.5 -61.5q0 -63 -64 -107t-161 -44q-62 0 -110 18.5t-48 44.5q0 13 9.5 23t25.5 10q4 0 41 -8t61 -8q45 0 66 18q18 15 18 39q0 27 -25.5 43t-56 22.5t-56 23.5t-25.5 46q0 38 59 121h-115q-55 0 -55 39q0 14 13 26t30 21t36.5 28t29.5 44q18 46 18 198v969q0 27 -27 27
q-95 0 -141 -9q-45 -6 -90 -32q-34 -20 -57.5 -52t-35 -62t-22 -57.5t-25.5 -44t-38 -16.5q-56 0 -56 62q0 14 1 32t2 44.5t2 44.5v67l4 88q3 60 86 60q17 0 131 -9q114 -6 219 -6h303q107 0 221 6q114 9 131 9q81 0 84 -60z" />
    <glyph glyph-name="tcommaaccent" unicode="&#x163;" horiz-adv-x="854" 
d="M762 215q37 0 37 -35q0 -49 -74 -114q-100 -89 -233 -89q-144 0 -224 109q-57 75 -57 244q0 86 6 274q8 167 8 293q0 21 -20 21h-129q-23 0 -23 24v66q0 18 21 24q123 34 159 94q24 46 48 164q6 25 26 25h84q25 0 25 -23v-213q0 -29 9 -38t36 -9q42 0 104 4
q132 11 144 11q65 0 65 -37q0 -4 -3 -20t-3 -19q-9 -64 -88 -64q-14 0 -66 4t-65 4q-41 3 -111 3q-24 0 -24 -25q0 -2 -0.5 -18t-1.5 -51t-2 -74q-2 -90 -2 -170q0 -154 8 -238q18 -207 162 -207q63 0 116 39q59 41 68 41zM524 -72q51 -54 51 -121q0 -97 -81 -200
q-31 -39 -70.5 -70t-61.5 -31q-11 0 -20.5 9.5t-9.5 21.5q0 8 12 18.5t32 28.5t34 39q32 43 32 78q0 37 -53 90q-47 47 -47 76q0 26 41 70q40 40 68 40q33 0 73 -49z" />
    <glyph glyph-name="Tcaron" unicode="&#x164;" horiz-adv-x="1230" 
d="M1202 1417q6 -61 6 -155q4 -102 4 -121q0 -62 -57 -62q-48 0 -74 92q-12 41 -44.5 84t-78.5 66q-64 31 -215 31q-26 0 -26 -27v-969q0 -153 22 -202q18 -41 62 -68q45 -26 45 -47q0 -39 -58 -39h-350q-55 0 -55 39q0 14 13 26t30 21t36.5 28t29.5 44q18 46 18 198v969
q0 27 -27 27q-95 0 -141 -9q-45 -6 -90 -32q-34 -20 -57.5 -52t-35 -62t-22 -57.5t-25.5 -44t-38 -16.5q-56 0 -56 62q0 14 1 32t2 44.5t2 44.5v67l4 88q3 60 86 60q17 0 131 -9q114 -6 219 -6h303q107 0 221 6q114 9 131 9q81 0 84 -60zM805 1870h86q10 0 10 -8
q0 -4 -10 -17l-176 -215q-15 -18 -37 -18h-127q-22 0 -37 18l-176 215q-10 13 -10 17q0 8 10 8h88q16 0 31 -15l151 -153q4 -4 6 -4t7 4l153 156q12 12 31 12z" />
    <glyph glyph-name="tcaron" unicode="&#x165;" horiz-adv-x="854" 
d="M762 215q37 0 37 -35q0 -49 -74 -114q-100 -89 -233 -89q-144 0 -224 109q-57 75 -57 244q0 86 6 274q8 167 8 293q0 21 -20 21h-129q-23 0 -23 24v66q0 18 21 24q123 34 159 94q24 46 48 164q6 25 26 25h84q25 0 25 -23v-213q0 -29 9 -38t36 -9q42 0 104 4
q132 11 144 11q65 0 65 -37q0 -4 -3 -20t-3 -19q-9 -64 -88 -64q-14 0 -66 4t-65 4q-41 3 -111 3q-24 0 -24 -25q0 -2 -0.5 -18t-1.5 -51t-2 -74q-2 -90 -2 -170q0 -154 8 -238q18 -207 162 -207q63 0 116 39q59 41 68 41zM729 1559q51 -54 51 -121q0 -97 -82 -201
q-31 -39 -70 -69.5t-61 -30.5q-11 0 -20.5 9t-9.5 21q0 8 11.5 18.5t31.5 28.5t34 39q33 44 33 78q0 37 -53 90q-47 47 -47 76q0 27 41 68q40 43 67 43q34 0 74 -49z" />
    <glyph glyph-name="Tbar" unicode="&#x166;" horiz-adv-x="1230" 
d="M1204 1417q4 -58 4 -129q0 -41 2 -76t2 -71q0 -62 -55 -62q-29 0 -47.5 28t-28.5 65t-38.5 79.5t-73.5 65.5q-65 35 -224 35q-28 0 -28 -27v-442q0 -17 16 -17h215q23 0 23 -20v-68q0 -20 -23 -20h-215q-16 0 -16 -17v-383q0 -163 28 -217q16 -31 64 -59q37 -21 37 -43
q0 -39 -58 -39h-348q-57 0 -57 39q0 22 37 43q46 27 63 59q29 53 29 217v383q0 17 -16 17h-213q-23 0 -23 20v68q0 20 23 20h213q16 0 16 17v442q0 27 -27 27q-78 0 -98 -2q-86 -4 -145 -47q-37 -26 -62 -68t-34.5 -74.5t-26.5 -57t-43 -24.5q-58 0 -58 62q0 15 1 36t2 51.5
t2 51.5q3 122 6 137q5 33 23 46.5t61 13.5q17 0 131 -9q117 -6 221 -6h303q105 0 219 6q117 9 133 9q81 0 84 -60z" />
    <glyph glyph-name="tbar" unicode="&#x167;" horiz-adv-x="868" 
d="M772 215q14 0 24.5 -10.5t10.5 -24.5q0 -20 -19 -49q-40 -65 -118 -109.5t-168 -44.5q-123 0 -199 76q-84 84 -84 289q0 64 2 119q4 110 4 133h-135q-22 0 -22 22v58q0 22 22 22h139q4 184 4 201q0 21 -20 21h-129q-23 0 -23 24v66q0 18 21 24q109 29 151 84
q29 37 56 174q6 25 26 25h84q25 0 25 -23v-213q0 -29 9 -38t36 -9q47 0 109 4q39 3 74 6.5t49.5 5t15.5 1.5q65 0 65 -35q0 -2 -6 -39q-6 -38 -26 -53t-62 -15q-12 0 -63.5 4t-67.5 4q-41 3 -111 3q-24 0 -24 -25q-2 -43 -2 -197h311q23 0 23 -22v-58q0 -22 -23 -22h-313
q0 -279 31 -361q40 -98 137 -98q60 0 116 39q59 41 70 41z" />
    <glyph glyph-name="Utilde" unicode="&#x168;" horiz-adv-x="1519" 
d="M1092 1462h323q66 0 66 -37q1 -8 -2.5 -15t-11.5 -13t-14 -9.5t-17 -8.5t-15 -7q-51 -23 -73 -72q-20 -44 -29 -172q-6 -92 -6 -303v-159q0 -171 -10 -269q-9 -84 -52 -166q-131 -254 -491 -254q-413 0 -522 269q-43 113 -43 295v659q0 86 -10 116.5t-46 53.5l-9 4.5
t-12 5.5t-13.5 7t-12.5 8.5t-10 9t-5.5 10t1.5 10.5q0 37 55 37h330q55 0 55 -37q0 -15 -6 -24q-4 -4 -16.5 -11.5t-24 -13t-12.5 -6.5q-39 -20 -49 -57q-9 -35 -9 -135v-603q0 -154 35 -247q82 -211 361 -211q396 0 399 428v231q0 268 -4 354q-9 153 -51 201q-20 24 -68 41
q-49 21 -49 49q0 41 68 41zM485 1620l-26 8q-19 6 -19 19q0 8 2 12q64 178 201 178q57 0 170 -43t156 -43q59 0 100 72q9 12 18 12q5 0 11 -2l22 -6q23 -7 23 -17q0 -6 -2 -10q-61 -178 -199 -178q-68 0 -178 43t-152 43q-58 0 -98 -76q-8 -14 -18 -14q-7 0 -11 2z" />
    <glyph glyph-name="utilde" unicode="&#x169;" horiz-adv-x="1286" 
d="M1096 176q12 -20 63 -41q53 -18 53 -43q0 -38 -55 -47q-110 -25 -188 -57q-33 -11 -43 -11q-45 0 -45 56v127q0 6 -7 6q-3 0 -10 -10q-56 -82 -143 -130.5t-189 -48.5q-161 0 -256 115q-75 90 -75 289v344q0 136 -21 166q-18 25 -65 41q-52 21 -52 49q0 34 56 43
q101 22 184 55q33 13 47 13q45 0 45 -54v-653q0 -116 55 -184t158 -68q102 0 172 70q57 57 78 164q23 118 23 340q0 154 -21 184q-17 27 -67 41q-50 18 -50 45q0 35 56 47q110 24 192 59q29 11 39 11q45 0 45 -56v-694q0 -134 21 -168zM311 1270l-26 8q-19 6 -19 18
q0 9 2 13q64 178 201 178q57 0 170 -43t156 -43q59 0 100 72q9 12 18 12q5 0 11 -2l22 -6q23 -7 23 -17q0 -6 -2 -10q-61 -178 -199 -178q-68 0 -178 43t-152 43q-58 0 -98 -76q-8 -14 -18 -14q-7 0 -11 2z" />
    <glyph glyph-name="Umacron" unicode="&#x16a;" horiz-adv-x="1519" 
d="M1092 1462h323q66 0 66 -37q1 -8 -2.5 -15t-11.5 -13t-14 -9.5t-17 -8.5t-15 -7q-51 -23 -73 -72q-20 -44 -29 -172q-6 -92 -6 -303v-159q0 -171 -10 -269q-9 -84 -52 -166q-131 -254 -491 -254q-413 0 -522 269q-43 113 -43 295v659q0 86 -10 116.5t-46 53.5l-9 4.5
t-12 5.5t-13.5 7t-12.5 8.5t-10 9t-5.5 10t1.5 10.5q0 37 55 37h330q55 0 55 -37q0 -15 -6 -24q-4 -4 -16.5 -11.5t-24 -13t-12.5 -6.5q-39 -20 -49 -57q-9 -35 -9 -135v-603q0 -154 35 -247q82 -211 361 -211q396 0 399 428v231q0 268 -4 354q-9 153 -51 201q-20 24 -68 41
q-49 21 -49 49q0 41 68 41zM453 1702v78q0 18 18 18h592q18 0 18 -18v-78q0 -19 -18 -19h-592q-18 0 -18 19z" />
    <glyph glyph-name="umacron" unicode="&#x16b;" horiz-adv-x="1286" 
d="M1096 176q12 -20 63 -41q53 -18 53 -43q0 -38 -55 -47q-110 -25 -188 -57q-33 -11 -43 -11q-45 0 -45 56v127q0 6 -7 6q-3 0 -10 -10q-56 -82 -143 -130.5t-189 -48.5q-161 0 -256 115q-75 90 -75 289v344q0 136 -21 166q-18 25 -65 41q-52 21 -52 49q0 34 56 43
q101 22 184 55q33 13 47 13q45 0 45 -54v-653q0 -116 55 -184t158 -68q102 0 172 70q57 57 78 164q23 118 23 340q0 154 -21 184q-17 27 -67 41q-50 18 -50 45q0 35 56 47q110 24 192 59q29 11 39 11q45 0 45 -56v-694q0 -134 21 -168zM295 1366v78q0 18 18 18h592
q19 0 19 -18v-78q0 -18 -19 -18h-592q-18 0 -18 18z" />
    <glyph glyph-name="Ubreve" unicode="&#x16c;" horiz-adv-x="1519" 
d="M1092 1462h323q66 0 66 -37q1 -8 -2.5 -15t-11.5 -13t-14 -9.5t-17 -8.5t-15 -7q-51 -23 -73 -72q-20 -44 -29 -172q-6 -92 -6 -303v-159q0 -171 -10 -269q-9 -84 -52 -166q-131 -254 -491 -254q-413 0 -522 269q-43 113 -43 295v659q0 86 -10 116.5t-46 53.5l-9 4.5
t-12 5.5t-13.5 7t-12.5 8.5t-10 9t-5.5 10t1.5 10.5q0 37 55 37h330q55 0 55 -37q0 -15 -6 -24q-4 -4 -16.5 -11.5t-24 -13t-12.5 -6.5q-39 -20 -49 -57q-9 -35 -9 -135v-603q0 -154 35 -247q82 -211 361 -211q396 0 399 428v231q0 268 -4 354q-9 153 -51 201q-20 24 -68 41
q-49 21 -49 49q0 41 68 41zM784 1612q-103 0 -173 59.5t-70 149.5q0 47 39 47q23 0 36 -29q52 -119 170 -119t170 119q16 29 37 29q37 0 37 -47q0 -86 -74 -148q-70 -61 -172 -61z" />
    <glyph glyph-name="ubreve" unicode="&#x16d;" horiz-adv-x="1286" 
d="M1096 176q12 -20 63 -41q53 -18 53 -43q0 -38 -55 -47q-110 -25 -188 -57q-33 -11 -43 -11q-45 0 -45 56v127q0 6 -7 6q-3 0 -10 -10q-56 -82 -143 -130.5t-189 -48.5q-161 0 -256 115q-75 90 -75 289v344q0 136 -21 166q-18 25 -65 41q-52 21 -52 49q0 34 56 43
q101 22 184 55q33 13 47 13q45 0 45 -54v-653q0 -116 55 -184t158 -68q102 0 172 70q57 57 78 164q23 118 23 340q0 154 -21 184q-17 27 -67 41q-50 18 -50 45q0 35 56 47q110 24 192 59q29 11 39 11q45 0 45 -56v-694q0 -134 21 -168zM627 1227q-103 0 -173.5 59.5
t-70.5 149.5q0 47 39 47q24 0 37 -29q52 -119 170 -119t170 119q16 29 37 29q36 0 36 -47q0 -87 -73 -148q-70 -61 -172 -61z" />
    <glyph glyph-name="Uring" unicode="&#x16e;" horiz-adv-x="1519" 
d="M1092 1462h323q66 0 66 -37q1 -8 -2.5 -15t-11.5 -13t-14 -9.5t-17 -8.5t-15 -7q-51 -23 -73 -72q-20 -44 -29 -172q-6 -92 -6 -303v-159q0 -171 -10 -269q-9 -84 -52 -166q-131 -254 -491 -254q-413 0 -522 269q-43 113 -43 295v659q0 86 -10 116.5t-46 53.5l-9 4.5
t-12 5.5t-13.5 7t-12.5 8.5t-10 9t-5.5 10t1.5 10.5q0 37 55 37h330q55 0 55 -37q0 -15 -6 -24q-4 -4 -16.5 -11.5t-24 -13t-12.5 -6.5q-39 -20 -49 -57q-9 -35 -9 -135v-603q0 -154 35 -247q82 -211 361 -211q396 0 399 428v231q0 268 -4 354q-9 153 -51 201q-20 24 -68 41
q-49 21 -49 49q0 41 68 41zM698 1759q-31 -31 -31 -75.5t31 -75.5q32 -31 75.5 -31t74.5 31q32 31 32 75.5t-32 75.5q-31 32 -74.5 32t-75.5 -32zM641 1554q-54 54 -54 129t54 129q55 56 132.5 56t131.5 -56q55 -54 55 -129t-55 -129q-54 -54 -131 -54t-133 54z" />
    <glyph glyph-name="uring" unicode="&#x16f;" horiz-adv-x="1286" 
d="M1096 176q12 -20 63 -41q53 -18 53 -43q0 -38 -55 -47q-110 -25 -188 -57q-33 -11 -43 -11q-45 0 -45 56v127q0 6 -7 6q-3 0 -10 -10q-56 -82 -143 -130.5t-189 -48.5q-161 0 -256 115q-75 90 -75 289v344q0 136 -21 166q-18 25 -65 41q-52 21 -52 49q0 34 56 43
q101 22 184 55q33 13 47 13q45 0 45 -54v-653q0 -116 55 -184t158 -68q102 0 172 70q57 57 78 164q23 118 23 340q0 154 -21 184q-17 27 -67 41q-50 18 -50 45q0 35 56 47q110 24 192 59q29 11 39 11q45 0 45 -56v-694q0 -134 21 -168zM547 1421q-31 -31 -31 -75.5t31 -75.5
q32 -31 75 -31t74 31q32 31 32 75.5t-32 75.5q-31 32 -74 32t-75 -32zM489 1217q-54 54 -54 129t54 129q55 55 133 55t132 -55q56 -54 56 -129t-56 -129q-54 -54 -132 -54t-133 54z" />
    <glyph glyph-name="Uhungarumlaut" unicode="&#x170;" horiz-adv-x="1519" 
d="M1092 1462h323q66 0 66 -37q1 -8 -2.5 -15t-11.5 -13t-14 -9.5t-17 -8.5t-15 -7q-51 -23 -73 -72q-20 -44 -29 -172q-6 -92 -6 -303v-159q0 -171 -10 -269q-9 -84 -52 -166q-131 -254 -491 -254q-413 0 -522 269q-43 113 -43 295v659q0 86 -10 116.5t-46 53.5l-9 4.5
t-12 5.5t-13.5 7t-12.5 8.5t-10 9t-5.5 10t1.5 10.5q0 37 55 37h330q55 0 55 -37q0 -15 -6 -24q-4 -4 -16.5 -11.5t-24 -13t-12.5 -6.5q-39 -20 -49 -57q-9 -35 -9 -135v-603q0 -154 35 -247q82 -211 361 -211q396 0 399 428v231q0 268 -4 354q-9 153 -51 201q-20 24 -68 41
q-49 21 -49 49q0 41 68 41zM629 1853q27 15 80 15q116 0 116 -39q0 -17 -25 -39.5t-100 -75.5q-131 -94 -206 -94q-52 0 -52 27q0 26 74 106q73 82 113 100zM1004 1853q27 15 79 15q117 0 117 -39q0 -17 -25 -39.5t-100 -75.5q-131 -94 -207 -94q-51 0 -51 27q0 26 74 106
q73 82 113 100z" />
    <glyph glyph-name="uhungarumlaut" unicode="&#x171;" horiz-adv-x="1286" 
d="M1096 176q12 -20 63 -41q53 -18 53 -43q0 -38 -55 -47q-110 -25 -188 -57q-33 -11 -43 -11q-45 0 -45 56v127q0 6 -7 6q-3 0 -10 -10q-56 -82 -143 -130.5t-189 -48.5q-161 0 -256 115q-75 90 -75 289v344q0 136 -21 166q-18 25 -65 41q-52 21 -52 49q0 34 56 43
q101 22 184 55q33 13 47 13q45 0 45 -54v-653q0 -116 55 -184t158 -68q102 0 172 70q57 57 78 164q23 118 23 340q0 154 -21 184q-17 27 -67 41q-50 18 -50 45q0 35 56 47q110 24 192 59q29 11 39 11q45 0 45 -56v-694q0 -134 21 -168zM444 1470q27 15 80 15q117 0 117 -39
q0 -17 -25 -39.5t-100 -75.5q-131 -94 -207 -94q-51 0 -51 27q0 26 74 106q74 83 112 100zM819 1470q27 15 80 15q117 0 117 -39q0 -17 -25 -39.5t-100 -75.5q-131 -94 -207 -94q-51 0 -51 27q0 26 74 106q74 83 112 100z" />
    <glyph glyph-name="Uogonek" unicode="&#x172;" horiz-adv-x="1519" 
d="M1004 -270q22 0 22 -23q0 -28 -57 -65q-56 -39 -138 -39q-79 0 -147 45q-68 44 -68 135q0 88 89 197q-368 18 -467 266q-43 113 -43 295v659q0 86 -10 116.5t-46 53.5l-9 4.5t-12 5.5t-13.5 7t-12.5 8.5t-10 9t-5.5 10t1.5 10.5q0 37 55 37h330q55 0 55 -37q0 -15 -6 -24
q-4 -4 -16.5 -11.5t-24 -13t-12.5 -6.5q-39 -20 -49 -57q-9 -35 -9 -135v-603q0 -154 35 -247q82 -211 361 -211q396 0 399 428v231q0 268 -4 354q-9 153 -51 201q-20 24 -68 41q-49 21 -49 49q0 41 68 41h323q66 0 66 -37q1 -8 -2.5 -15t-11.5 -13t-14 -9.5t-17 -8.5
t-15 -7q-51 -23 -73 -72q-20 -44 -29 -172q-6 -92 -6 -303v-159q0 -171 -10 -269q-9 -84 -52 -166q-126 -236 -452 -251q-17 -46 -20 -93.5t8 -87.5t44 -65t84 -25q18 0 39 5.5t34.5 10.5t15.5 5z" />
    <glyph glyph-name="uogonek" unicode="&#x173;" horiz-adv-x="1286" 
d="M1096 178q17 -24 65 -43q51 -17 51 -43q0 -32 -57 -47q-248 -58 -248 -209q0 -55 36.5 -92t90.5 -37q25 0 62.5 13.5t40.5 13.5q22 0 22 -25q0 -15 -16 -31q-70 -73 -187 -73q-94 0 -153.5 58t-59.5 136q0 123 138 211v148q0 8 -7 8q-1 0 -14 -16q-117 -173 -328 -173
q-168 0 -256 113q-75 93 -75 291v364q0 119 -21 146q-17 24 -67 41q-50 21 -50 45q0 35 56 47q112 26 188 57q33 11 43 11q45 0 45 -54v-653q0 -118 56.5 -185t156.5 -67q104 0 172 68q57 57 78 166q23 118 23 340v41q0 116 -21 143q-17 24 -67 41q-50 21 -50 43q0 37 56 49
q113 27 190 57q26 11 41 11q45 0 45 -54v-694q0 -136 21 -166z" />
    <glyph glyph-name="Wcircumflex" unicode="&#x174;" horiz-adv-x="2220" 
d="M1860 1462h284q64 0 64 -37q0 -16 -11.5 -27t-38 -27.5t-44.5 -33.5q-56 -50 -119 -213l-398 -1118q-6 -20 -24 -20h-70q-18 0 -24 18l-377 1141q-2 7 -9 7t-8 -7l-417 -1139q-9 -20 -25 -20h-76q-18 0 -24 18l-353 1165q-44 139 -79 174q-15 15 -40 28.5t-39 24
t-14 25.5q0 41 70 41h332q51 0 51 -37q0 -18 -14.5 -29.5t-31.5 -17t-31.5 -23.5t-14.5 -48q0 -37 27 -125l249 -848q3 -8 9 -8q3 0 6 8l413 1124q6 19 27 19h84q19 0 25 -19l368 -1124q1 -5 3.5 -7t5 0t3.5 7q221 632 236 682q59 192 59 262q0 32 -14.5 56t-32.5 35
t-32.5 25.5t-14.5 28.5q0 39 60 39zM961 1612h-87q-10 0 -10 8q0 3 10 16l177 215q16 19 36 19h127q21 0 37 -19l176 -215q11 -15 11 -16q0 -8 -11 -8h-88q-16 0 -30 14l-152 154q-5 4 -6 4t-6 -4l-154 -156q-12 -12 -30 -12z" />
    <glyph glyph-name="wcircumflex" unicode="&#x175;" horiz-adv-x="1863" 
d="M1847 1032q0 -15 -13.5 -27t-42 -31.5t-48.5 -39.5q-62 -62 -115 -207l-262 -725q-6 -16 -25 -16h-120q-17 0 -23 14l-276 813q-3 8 -7 8q-5 0 -8 -8l-301 -809q-9 -18 -26 -18h-119q-25 0 -31 18l-227 762q-44 145 -88 186q-13 13 -38.5 25.5t-41 24t-15.5 28.5
q0 39 66 39h336q55 0 55 -37q0 -17 -14.5 -28.5t-32.5 -19t-32.5 -29t-14.5 -54.5q0 -43 27 -135l155 -526q9 -20 17 0l307 829q6 14 22 14h111q16 0 22 -14l283 -829q5 -12 8 -12t8 12q55 151 127 368q68 207 68 271q0 32 -10.5 54.5t-26 33.5t-31 20t-26 19.5t-10.5 25.5
q0 37 63 37h289q61 0 61 -37zM770 1229h-86q-10 0 -10 8q0 3 10 16l176 215q16 19 37 19h127q21 0 37 -19l176 -215q10 -13 10 -16q0 -8 -10 -8h-88q-17 0 -31 14l-151 154q-7 7 -13 0l-153 -156q-12 -12 -31 -12z" />
    <glyph glyph-name="Ycircumflex" unicode="&#x176;" horiz-adv-x="1398" 
d="M1038 1462h283q63 0 63 -35q0 -19 -12.5 -28.5t-45.5 -31.5t-66 -60q-35 -40 -115 -162l-348 -565q-6 -9 -6 -23v-201q0 -157 28 -215q17 -33 58 -57q41 -21 41 -45q0 -39 -56 -39h-348q-57 0 -57 39q0 23 45 49q47 27 63 70q21 52 21 198v148q0 18 -8 31l-347 634
q-86 159 -106 179q-13 16 -53 34q-39 20 -39 43q0 37 61 37h344q51 0 51 -35q0 -24 -43 -45q-40 -21 -40 -61q0 -43 53 -143l266 -490q8 -11 16 0l220 363q110 180 110 252q0 44 -47 71q-45 26 -45 51q0 37 59 37zM545 1612h-86q-10 0 -10 8q0 3 10 16l176 215q16 19 37 19
h127q21 0 37 -19l176 -215q10 -13 10 -16q0 -8 -10 -8h-88q-17 0 -31 14l-152 154q-5 4 -6 4t-6 -4l-154 -156q-12 -12 -30 -12z" />
    <glyph glyph-name="ycircumflex" unicode="&#x177;" horiz-adv-x="1173" 
d="M815 1069h285q63 0 63 -37q3 -16 -14 -29.5t-48.5 -33t-49.5 -41.5q-46 -52 -107 -195l-282 -684q-66 -156 -131.5 -252t-153.5 -147q-74 -45 -154 -45q-74 0 -118 40.5t-44 114.5q0 45 18 73t52 28q26 0 72 -43t100 -43q45 0 86 35q38 30 60 61.5t51 91.5q6 12 6 21
q0 2 -4 18l-301 768q-59 161 -105 195q-10 7 -33.5 18.5t-35 21.5t-11.5 25q0 39 64 39h334q53 0 53 -37q0 -13 -15 -26t-33 -23t-33 -29t-15 -43q0 -53 32 -127l211 -522q3 -12 9 -12q7 0 10 12l145 369q76 195 76 254q0 27 -10.5 48t-25 33t-29 21.5t-25 20t-10.5 22.5
q0 39 61 39zM418 1229h-86q-10 0 -10 8q0 3 10 16l176 215q16 19 37 19h127q21 0 37 -19l176 -215q10 -13 10 -16q0 -8 -10 -8h-88q-17 0 -31 14l-152 154q-4 5 -6 5t-6 -5l-153 -156q-12 -12 -31 -12z" />
    </font>
</defs>
</svg>
