<?xml version="1.0" standalone="no"?>
<!DOCTYPE svg PUBLIC "-//W3C//DTD SVG 1.1//EN" "http://www.w3.org/Graphics/SVG/1.1/DTD/svg11.dtd" >
<svg xmlns="http://www.w3.org/2000/svg" xmlns:xlink="http://www.w3.org/1999/xlink" version="1.1">
<metadata>
Created by FontForge 20170731 at Fri Sep 11 15:39:23 2020
 By Aleksey,,,
Copyright (c) 2011 by Case Studio, Inc. All rights reserved.
</metadata>
<defs>
<font id="P22Mackinac-MediumItalicSC" horiz-adv-x="1431" >
  <font-face 
    font-family="P22 Mackinac"
    font-weight="450"
    font-style="italic"
    font-stretch="normal"
    units-per-em="2048"
    panose-1="2 0 0 0 0 0 0 0 0 0"
    ascent="1513"
    descent="-535"
    x-height="1047"
    cap-height="1462"
    bbox="-406 -395.237 2470 1880"
    underline-thickness="40"
    underline-position="-286"
    unicode-range="U+0020-FB02"
  />
<missing-glyph horiz-adv-x="1259" 
d="M346 82h569l-284 475zM346 1184l285 -473l284 473h-569zM1044 1266v-1266h-829v1266h829zM963 1108l-285 -475l285 -475v950zM297 158l285 475l-285 475v-950z" />
    <glyph glyph-name=".notdef" horiz-adv-x="1259" 
d="M346 82h569l-284 475zM346 1184l285 -473l284 473h-569zM1044 1266v-1266h-829v1266h829zM963 1108l-285 -475l285 -475v950zM297 158l285 475l-285 475v-950z" />
    <glyph glyph-name=".null" horiz-adv-x="0" 
 />
    <glyph glyph-name="nonmarkingreturn" horiz-adv-x="682" 
 />
    <glyph glyph-name="space" unicode=" " horiz-adv-x="436" 
 />
    <glyph glyph-name="exclam" unicode="!" horiz-adv-x="651" 
d="M504 657l-12 -51q-4 -18 -25 -82q-18 -71 -74 -71q-34 0 -46.5 15.5t-12.5 49.5q0 11 16 139q16 117 31 267l25 223q22 152 37.5 210t48.5 91q36 39 102 39q102 0 102 -98q0 -62 -49 -242q-6 -23 -69 -234q-59 -198 -74 -256zM299 -23q-35 0 -88 62q-51 60 -51 100
q0 42 69 99q71 59 111 59q34 0 86 -61q53 -62 53 -103q0 -39 -71 -98q-70 -58 -109 -58z" />
    <glyph glyph-name="quotedbl" unicode="&#x22;" horiz-adv-x="796" 
d="M731 1487q90 0 90 -72q0 -112 -100 -344q-52 -119 -96 -119q-31 0 -43.5 33t-12.5 113q0 83 13 182q21 149 63 182q36 25 86 25zM375 1487q90 0 90 -72q0 -112 -100 -344q-52 -119 -97 -119q-31 0 -43 33t-12 113q0 90 12 182q21 148 64 182q36 25 86 25z" />
    <glyph glyph-name="numbersign" unicode="#" horiz-adv-x="1310" 
d="M504 717h217l84 260h-217zM1196 1087l-37 -110h-227l-84 -260h227l-35 -111h-229l-133 -409h-125l133 409h-219l-133 -409h-125l131 409h-225l37 111h225l84 260h-225l36 110h226l129 400h127l-129 -400h217l129 400h127l-129 -400h227z" />
    <glyph glyph-name="dollar" unicode="$" horiz-adv-x="1146" 
d="M1008 1405q39 -39 39 -119q0 -164 -68 -164q-30 0 -47 29q-24 55 -33 72q-85 155 -229 155q-91 0 -162 -59q-70 -58 -70 -145q0 -126 185 -213q43 -18 67 -28.5t65.5 -32t66 -39.5t55 -46.5t47 -57.5t28 -68t11.5 -83q0 -170 -144 -287q-141 -117 -327 -129l-35 -170
q-3 -20 -25 -20h-53q-21 0 -21 16q0 9 2 15l31 155q-57 2 -145 21q-70 18 -133 69q-64 52 -64 127q0 13 5 54.5t5 52.5q3 88 58 88q27 0 39 -18q8 -11 29 -62.5t34 -73.5q89 -147 268 -147q107 0 199 65t92 175q0 70 -50 123t-134 88q-132 61 -174 88q-148 92 -161 232
q-1 15 -1 30q0 149 121 258t278 127l35 168q3 20 25 20h55q19 0 19 -14q0 -8 -3 -17l-30 -153q174 -6 250 -82z" />
    <glyph glyph-name="percent" unicode="%" horiz-adv-x="1753" 
d="M340 0l1049 1462h131l-1049 -1462h-131zM657 1223q0 82 -27.5 130t-76.5 48q-75 0 -131 -86q-96 -147 -96 -344q0 -86 26.5 -135.5t75.5 -49.5q77 0 133 86q96 152 96 351zM412 700q-130 0 -198.5 76t-68.5 207q0 202 129 352q134 152 297 152q126 0 195.5 -77.5
t69.5 -209.5q0 -203 -131 -352q-133 -148 -293 -148zM1534 500q0 82 -27.5 130t-76.5 48q-76 0 -132 -86q-96 -147 -96 -344q0 -86 27 -135.5t76 -49.5q77 0 133 87q96 152 96 350zM1288 -23q-130 0 -198 76t-68 207q0 202 129 352q134 152 297 152q126 0 195 -77.5
t69 -209.5q0 -203 -131 -352q-133 -148 -293 -148z" />
    <glyph glyph-name="ampersand" unicode="&#x26;" horiz-adv-x="1519" 
d="M299 399q0 -131 111 -219q110 -88 280 -88q144 0 262 74q-63 74 -241 225q-169 144 -244 240q-72 -23 -120 -88.5t-48 -143.5zM1153 199q51 -92 51 -201q0 -152 -102 -266q-103 -115 -252 -115q-85 0 -139 43t-54 102q0 51 35.5 83t75.5 32q25 0 43 -13t18 -32
q0 -5 -3 -18t-3 -17q0 -21 22 -39t58 -18q63 0 110.5 52t47.5 136q0 80 -49 162q-183 -113 -410 -113q-219 0 -360 111q-140 113 -140 274q0 124 86.5 219t225.5 134q-56 95 -56 198q0 158 109 261q111 102 252 102q122 0 199 -68t77 -155q0 -58 -36.5 -99t-92.5 -41
q-35 0 -63.5 21.5t-28.5 42.5q0 6 13 18t26.5 30.5t13.5 39.5q0 45 -38.5 78t-92.5 33q-73 0 -124.5 -56t-51.5 -141q-10 -83 84 -211q13 -21 60 -68q31 -27 59 -55l68 -59l61 -51q158 -137 240 -244q77 92 77 203q0 70 -31.5 117.5t-80.5 47.5q-9 0 -24 -4t-17 -4
q-39 0 -39 54q0 44 36.5 78t96.5 34q86 0 143.5 -72.5t57.5 -189.5q0 -195 -158 -356z" />
    <glyph glyph-name="quotesingle" unicode="'" horiz-adv-x="436" 
d="M373 1487q90 0 90 -72q0 -109 -101 -344q-52 -119 -96 -119q-31 0 -43 33t-12 113q0 90 12 182q21 148 64 182q36 25 86 25z" />
    <glyph glyph-name="parenleft" unicode="(" horiz-adv-x="862" 
d="M655 -287q0 -32 -39 -32q-62 0 -151 83q-85 79 -152 201q-125 226 -125 502q0 226 99 457q100 232 307 413q101 88 206.5 140.5t168.5 52.5q49 0 49 -33q0 -19 -25 -35q-3 -2 -33.5 -17.5t-52.5 -27.5t-55 -34t-59 -44q-182 -150 -295 -421q-111 -270 -111 -556
q0 -392 231 -598q37 -34 37 -51z" />
    <glyph glyph-name="parenright" unicode=")" horiz-adv-x="864" 
d="M242 1497q0 33 39 33q61 0 151 -84q85 -79 152 -201q125 -226 125 -502q0 -225 -99 -456q-100 -234 -307 -414q-101 -88 -206 -140t-169 -52q-49 0 -49 32q0 19 25 35q3 2 33.5 17.5t52.5 27.5t55 34t59 44q182 151 293 420q113 271 113 557q0 392 -231 598
q-37 34 -37 51z" />
    <glyph glyph-name="asterisk" unicode="*" horiz-adv-x="907" 
d="M412 1280q-3 10 -12.5 40t-15.5 49.5t-11.5 44.5t-5.5 40q0 76 96 76q54 0 75 -17t21 -59q0 -15 -5.5 -40t-11.5 -44.5t-15.5 -49.5t-12.5 -40q-15 -64 -26 -77q-10 -11 -25 -11q-19 0 -28.5 17.5t-22.5 70.5zM553 1137q-51 0 -51 32q0 17 19.5 35.5t49.5 32.5l43 31
q53 40 95 57q57 24 84 0q13 -11 18.5 -22.5t13.5 -38.5q11 -46 11 -52q0 -71 -144 -71q-21 0 -74 -2t-65 -2zM500 1010q-23 74 -23 75q0 13 10.5 23t22.5 10q17 0 76 -47q8 -6 34 -24.5t47.5 -35.5t30.5 -28q44 -47 43 -76t-51 -67q-42 -31 -67 -31q-42 0 -72 65
q-14 25 -31 74q-4 14 -20 62zM373 1137q-12 0 -65.5 2t-74.5 2q-143 0 -143 71q0 14 10 52q6 19 10 28.5t11.5 22t19 17.5t27.5 5q41 0 94 -34q13 -9 49 -35t43 -31q61 -40 68 -57q2 -2 2 -11q0 -32 -51 -32zM428 1010l-22 -62q-13 -46 -29 -74q-30 -65 -72 -65
q-25 0 -67 31q-50 38 -51.5 67t42.5 76q9 11 31 28t48 35.5t34 24.5q59 47 76 47q12 0 22.5 -10t10.5 -23q0 -1 -23 -75z" />
    <glyph glyph-name="plus" unicode="+" horiz-adv-x="1413" 
d="M1241 766v-68q0 -24 -24 -24h-439q-12 0 -12 -10v-443q0 -24 -23 -24h-75q-23 0 -23 24v443q0 10 -12 10h-438q-23 0 -23 24v68q0 22 23 22h438q12 0 12 13v442q0 23 23 23h75q23 0 23 -23v-442q0 -13 12 -13h439q24 0 24 -22z" />
    <glyph glyph-name="comma" unicode="," horiz-adv-x="591" 
d="M375 211q43 -70 43 -133q0 -148 -164 -301q-118 -109 -193 -109q-19 0 -33 13t-14 30t13 27l43 24q31 16 77 56q64 58 64 121q0 40 -53 114q-49 64 -49 109q0 40 61 86q65 47 106 47q46 0 99 -84z" />
    <glyph glyph-name="hyphen" unicode="-" horiz-adv-x="780" 
d="M109 512l22 106q3 23 27 23h460q23 0 23 -18q0 -9 -2 -15l-23 -106q-3 -23 -26 -23h-463q-21 0 -21 19q0 5 3 14z" />
    <glyph glyph-name="period" unicode="." horiz-adv-x="538" 
d="M188 -23q-35 0 -88 62q-51 60 -51 100q0 41 70 99q71 59 110 59q34 0 86 -61q54 -63 54 -103q0 -38 -72 -98q-70 -58 -109 -58z" />
    <glyph glyph-name="slash" unicode="/" horiz-adv-x="1122" 
d="M1167 1530h95q12 0 12 -8q0 -4 -6 -13l-1215 -1693q-12 -15 -28 -15h-93q-10 0 -10 9q0 3 6 12l1213 1696q9 12 26 12z" />
    <glyph glyph-name="zero" unicode="0" horiz-adv-x="1245" 
d="M571 84q118 -1 212.5 85t141 212.5t42.5 259.5q0 168 -69 258t-185 90q-170 0 -285 -158q-113 -155 -113 -395q0 -164 68.5 -258t187.5 -94zM758 1092q198 0 309 -111.5t111 -300.5q0 -293 -199 -498q-196 -205 -455 -205q-194 0 -306 111.5t-112 302.5q0 287 201 494
t451 207z" />
    <glyph glyph-name="one" unicode="1" horiz-adv-x="720" 
d="M627 1034l-203 -1001q-6 -33 -43 -33h-127q-35 0 -35 33q0 10 2 16l139 690q23 118 23 131q0 21 -12 33.5t-27 14.5q-8 2 -35 2q-15 0 -72 -3.5t-77 -3.5q-54 0 -54 39q0 26 13 45q16 19 55 25q201 19 322 51q78 19 88 19q45 0 45 -41q0 -11 -2 -17z" />
    <glyph glyph-name="two" unicode="2" horiz-adv-x="1161" 
d="M1016 287q41 0 41 -37q0 -14 -5.5 -33.5t-15.5 -46t-12 -33.5q-29 -92 -55 -121q-21 -24 -103 -24q-10 0 -27.5 0.5t-50 1.5t-57.5 2q-136 4 -162 4h-454q-80 0 -80 63q0 218 246 359q47 27 211 94q172 70 190 78q197 89 197 227q0 68 -60.5 118t-146.5 50
q-146 0 -260 -135q-15 -17 -45 -66q-30 -47 -48.5 -66.5t-39.5 -19.5q-52 0 -52 58t21.5 125t62.5 102q55 47 155.5 76t205.5 29q185 0 303 -86q119 -82 119 -218q0 -142 -127 -225q-94 -61 -344 -129q-247 -64 -342 -135q-65 -47 -81 -92q-10 -26 9 -25h4h506q129 0 166 15
q35 12 71 51t60 39z" />
    <glyph glyph-name="three" unicode="3" horiz-adv-x="1120" 
d="M676 377q127 -25 204.5 -109t77.5 -205q0 -180 -165 -317q-167 -141 -422 -141q-116 0 -216 34t-147 91q-45 54 -45 145q0 100 66 100q27 0 41 -14q18 -15 49 -63l41 -64q94 -125 252 -125q150 0 241 105q92 106 92 262q0 120 -73 188t-199 70q-29 0 -81 -4l-52 -4
q-47 0 -47 34q0 2 3 17t3 20q9 54 51 54q3 0 25.5 -2.5t54 -4.5t55.5 -2q163 0 254 76q111 94 111 246q0 101 -62.5 164t-169.5 63q-160 0 -274 -170q-7 -9 -27.5 -44t-27.5 -44q-8 -15 -25 -27t-33 -12q-55 0 -55 68q0 58 24.5 123.5t73.5 105.5q122 101 344 101
q171 0 304 -91q131 -88 131 -253q0 -130 -97.5 -228.5t-275.5 -126.5q-18 -1 -18 -7.5t14 -8.5z" />
    <glyph glyph-name="four" unicode="4" horiz-adv-x="1208" 
d="M901 164h184q21 0 21 -17q0 -6 -2 -12l-23 -112q-3 -23 -26 -23h-191q-19 0 -22 -18l-68 -332q-3 -21 -24 -21h-154q-21 0 -21 19q0 5 3 14l63 311q2 6 2 15q0 12 -18 12h-598q-27 0 -27 23q0 10 2 16l12 59q6 24 19 37q249 261 385 483q132 215 192 453q6 21 31 21h133
q17 0 17 -13q0 -4 -3 -10q-124 -422 -585 -895q-4 -4 -4 -6q0 -4 8 -4h450q21 0 27 18l129 643q6 25 33 25h141q25 0 25 -19q0 -10 -2 -16l-125 -622q-2 -6 -2 -15q0 -14 18 -14z" />
    <glyph glyph-name="five" unicode="5" horiz-adv-x="1079" 
d="M856 377q88 -113 88 -250q0 -92 -38 -182t-109 -164q-71 -80 -187 -128t-250 -48q-120 0 -218 35.5t-138 97.5q-35 53 -35 129q0 115 70 115q33 0 55 -39q7 -9 25.5 -41t25.5 -43q109 -154 291 -154q163 0 252 109q90 110 90 225q0 98 -59 178q-132 178 -567 184
q-19 0 -19 13q0 2 4 14l250 623q9 18 27 18h305q179 0 219 12q32 10 66 39q33 33 55 33q37 0 37 -35q0 -3 -31 -88q-40 -117 -59 -129q-20 -14 -88 -14h-476q-12 0 -18 -15l-111 -272q-4 -12 -4 -14q0 -13 17 -13q380 -12 530 -196z" />
    <glyph glyph-name="six" unicode="6" horiz-adv-x="1269" 
d="M367 373q0 -135 64 -215t169 -80q150 0 254 155t104 355q0 131 -61 207q-60 75 -174 75q-112 0 -211 -102q-70 -74 -107.5 -183t-37.5 -212zM1167 1188q-24 0 -42 15t-58 61q-52 63 -96 89.5t-109 26.5q-71 0 -138.5 -41t-117.5 -106q-35 -46 -84 -146q-56 -120 -98 -284
l-2 -10q0 -7 4 -7q1 0 2 1.5t3.5 4.5t4.5 5q144 202 371 202q175 0 272 -112q101 -113 101 -279q0 -247 -172 -440t-410 -193q-201 0 -322 148q-116 149 -116 387q0 164 53.5 335.5t148.5 315.5q97 147 243.5 236.5t309.5 89.5q172 0 273 -78q45 -39 45 -109
q0 -112 -66 -112z" />
    <glyph glyph-name="seven" unicode="7" horiz-adv-x="1042" 
d="M1126 1038q-34 -222 -161 -376q-49 -61 -199 -205q-138 -132 -258 -258q-124 -131 -174 -217q-64 -110 -64 -183q0 -54 41 -92q29 -23 29 -43q0 -37 -57 -37h-195q-63 0 -63 60q0 66 51 173t143 218q84 101 213 217l133 119l125 110q129 118 186 191.5t76 144.5l2 12
q0 13 -18 13h-434q-168 0 -215 -13q-39 -9 -68 -43q-30 -30 -51 -30q-35 0 -35 41q0 6 13.5 43.5t17.5 56.5q27 91 55 113q22 16 92 16h795q22 0 22 -14q0 -7 -2 -17z" />
    <glyph glyph-name="eight" unicode="8" horiz-adv-x="1222" 
d="M285 307q0 -104 66.5 -167.5t176.5 -63.5q158 0 265 125q110 125 110 282q0 108 -69 173t-166 65q-149 0 -267 -127q-116 -125 -116 -287zM991 1196q0 91 -50 142t-136 51q-139 0 -225 -115t-86 -238q0 -90 55.5 -143t142.5 -53q120 0 209 108q90 110 90 248zM866 813
q-18 -6 -18 -14q0 -12 16 -15q118 -31 186 -111t68 -190q0 -205 -180 -354q-181 -152 -434 -152q-193 0 -316 97q-116 94 -116 243q0 166 125 285q126 120 295 150q7 1 9 5t-1.5 9t-12.5 8q-91 33 -148.5 101.5t-57.5 162.5q0 173 155 310q157 139 391 139q171 0 274 -82
t103 -213q0 -141 -98 -242q-95 -95 -240 -137z" />
    <glyph glyph-name="nine" unicode="9" horiz-adv-x="1255" 
d="M346 489q0 -126 60 -202t172 -76q149 0 253 149q105 150 105 340q0 135 -64.5 213t-173.5 78q-138 0 -245 -149t-107 -353zM115 -35q28 0 41 -18q22 -25 49 -78q95 -160 233 -160q296 0 443 570q3 16 -2 16q-1 0 -11 -10q-147 -203 -376 -203q-165 0 -267 108
q-100 109 -100 281q0 245 172 432q174 189 408 189q203 0 321 -148q117 -144 117 -348q2 -133 -25.5 -262.5t-78 -238.5t-122.5 -202t-155.5 -157t-180.5 -99t-196 -32q-95 0 -176 28.5t-119 77.5q-47 59 -47 150q0 104 72 104z" />
    <glyph glyph-name="colon" unicode=":" horiz-adv-x="735" 
d="M410 750q-36 0 -88 61t-52 100q0 41 70 99q71 59 111 59q34 0 86 -61q53 -62 53 -103q0 -38 -72 -98q-69 -57 -108 -57zM250 -23q-35 0 -88 62q-51 60 -51 100q0 42 69 99q71 59 111 59q34 0 86 -61q53 -62 53 -103q0 -38 -72 -98q-70 -58 -108 -58z" />
    <glyph glyph-name="semicolon" unicode=";" horiz-adv-x="729" 
d="M430 750q-36 0 -88 61q-51 63 -51 102q0 38 71 97t109 59q34 0 86 -61q53 -62 53 -103q0 -39 -71 -98q-69 -57 -109 -57zM403 211q43 -70 43 -133q0 -148 -163 -301q-118 -109 -193 -109q-19 0 -33 13t-14 30q0 18 12 27l43 24q33 17 78 56q64 58 64 121q0 38 -54 114
q-49 64 -49 109q0 39 62 86q65 47 106 47q45 0 98 -84z" />
    <glyph glyph-name="less" unicode="&#x3c;" horiz-adv-x="1507" 
d="M436 651l828 -360q22 -9 22 -35v-106q0 -17 -14 -17q-6 0 -21 6l-1018 449q-22 9 -22 35v84q0 25 22 34l1018 447q15 6 21 6q14 0 14 -16v-107q0 -26 -22 -35l-842 -366q-12 -4 2 -13q5 -3 12 -6z" />
    <glyph glyph-name="equal" unicode="=" horiz-adv-x="1507" 
d="M219 879v69q0 23 25 23h1022q22 0 22 -23v-69q0 -23 -22 -23h-1022q-25 0 -25 23zM219 516v68q0 24 25 24h1022q22 0 22 -24v-68q0 -22 -22 -22h-1022q-25 0 -25 22z" />
    <glyph glyph-name="greater" unicode="&#x3e;" horiz-adv-x="1507" 
d="M1071 676l-827 360q-23 10 -23 35v107q0 16 15 16q5 0 20 -6l1018 -449q22 -9 22 -34v-84q0 -26 -22 -35l-1018 -447q-15 -6 -20 -6q-15 0 -15 17v106q0 25 23 35l841 366q12 4 -2 13q-5 3 -12 6z" />
    <glyph glyph-name="question" unicode="?" horiz-adv-x="1062" 
d="M858 803q-49 -34 -162 -92q-103 -53 -139 -76q-98 -64 -98 -127q0 -35 39 -49q30 -9 30 -33q0 -29 -33 -43t-75 -14q-52 0 -90.5 28.5t-38.5 71.5q0 87 125 188q49 37 143 99q115 79 176 137q137 131 137 272q0 100 -56.5 158.5t-153.5 58.5q-104 0 -173 -63
q-71 -62 -71 -143q0 -56 51 -76q5 -2 17 -6t17 -6.5t10 -10t5 -18.5q0 -39 -46.5 -72t-102.5 -33q-63 0 -102.5 40t-39.5 112q0 136 140 258q141 123 346 123q169 0 272 -92q102 -89 102 -224q0 -213 -229 -368zM342 -23q-35 0 -88 62q-51 60 -51 100q0 42 69 99
q71 59 111 59q34 0 86 -61q53 -62 53 -103q0 -39 -71 -98q-70 -58 -109 -58z" />
    <glyph glyph-name="at" unicode="@" horiz-adv-x="2174" 
d="M1137 434q75 109 120 221q48 118 48 166t-66 86q-64 37 -123 37t-106 -47q-87 -87 -146 -252q-57 -159 -57 -297q0 -147 78 -147q89 0 252 233zM1790 1163q190 -230 190 -532q0 -236 -125 -416q-123 -178 -319 -178q-142 0 -224.5 95t-82.5 255v12q0 8 -4 8t-8 -10
q-86 -155 -213 -260q-101 -82 -199 -82q-89 0 -142 68.5t-53 189.5q0 224 144 455q170 268 383 268q71 0 151 -30q89 -29 101 -29q26 0 55 29q30 30 49 30q35 0 35 -39q0 -24 -8 -55l-31 -141l-47 -221q-31 -158 -31 -244q0 -197 148 -197q133 0 235 166q88 146 88 352
q0 277 -176 471q-112 123 -266 189.5t-324 66.5q-343 0 -584 -247t-241 -598t241 -598q242 -248 584 -248q188 0 356 82.5t287 232.5q15 21 39 21q19 0 31 -13t12 -28q0 -17 -12 -35q-125 -162 -314 -255t-399 -93q-384 0 -653 272q-270 270 -270 662q0 390 270 663t653 273
q194 0 372.5 -82.5t301.5 -229.5z" />
    <glyph glyph-name="A" unicode="A" 
d="M418 590h463q16 0 16 12q0 8 -2 14l-102 564q-3 14 -9 14q-3 0 -10 -10l-360 -574q-6 -9 -6 -12q0 -8 10 -8zM1235 115q13 -13 35.5 -25t34.5 -23t12 -28q0 -39 -64 -39h-333q-52 0 -52 33q0 19 16 30.5t35.5 18t35.5 28t16 56.5q0 17 -17 121l-32 180q-3 16 -23 16h-545
q-20 0 -28 -14q-154 -251 -154 -326q0 -35 37 -59q39 -23 39 -45q0 -39 -62 -39h-290q-54 0 -54 35q0 7 2.5 13t4.5 10t9 8.5t10 6.5t13 7t13 6q39 19 94 80q46 53 118 164l730 1126q12 21 32 21h70q22 0 25 -21l211 -1163q35 -149 61 -178z" />
    <glyph glyph-name="B" unicode="B" horiz-adv-x="1327" 
d="M485 831h113q191 0 313 82q125 82 125 250q0 192 -288 195q-121 0 -154 -2q-36 0 -45 -37l-88 -434q-4 -28 -4 -31q0 -23 28 -23zM422 696l-70 -352q-30 -144 -30 -180q0 -31 22.5 -42t75.5 -11h63q281 0 398 147q80 103 80 229q0 236 -361 236q-131 0 -147 -2
q-25 -3 -31 -25zM1065 201q-183 -201 -629 -201h-422q-55 0 -55 35q-1 9 1.5 15.5t9 12.5t10 8.5t15 8t13.5 6.5q54 29 72 59q36 54 65 207l162 797q23 131 23 154q0 42 -27 63q-6 5 -25.5 14.5t-30.5 19t-7 21.5q0 41 67 41h387q214 0 323.5 -22t174.5 -90q68 -71 68 -179
q0 -154 -117 -253q-119 -98 -275 -119q-8 -1 -12 -6.5t-1 -11t11 -5.5q148 -11 232 -87.5t84 -205.5q0 -156 -117 -282z" />
    <glyph glyph-name="C" unicode="C" horiz-adv-x="1388" 
d="M702 92q185 0 338 166l82 98q45 45 76 45q45 0 45 -47q0 -61 -43 -159q-40 -93 -123 -140q-147 -78 -348 -78q-281 0 -463 173q-180 174 -180 458q0 168 69.5 328t192.5 283q124 124 298.5 196t367.5 72q212 0 325 -70q98 -58 33 -284q-15 -54 -53 -54q-25 0 -37.5 15
t-32.5 65q-41 108 -110.5 163.5t-190.5 55.5q-188 0 -338 -123q-146 -120 -224.5 -299t-78.5 -370q0 -193 103 -344q102 -150 292 -150z" />
    <glyph glyph-name="D" unicode="D" horiz-adv-x="1550" 
d="M983 270q129 113 200.5 276.5t71.5 346.5q0 298 -208 403q-123 60 -385 60h-60q-44 0 -53 -43l-195 -967q-30 -150 -30 -172q0 -40 28 -52.5t97 -12.5h45q304 0 489 161zM1307 1313q174 -140 174 -418q0 -168 -63.5 -324.5t-184.5 -285.5q-124 -132 -328 -208.5
t-452 -76.5h-441q-53 0 -53 41q0 5 1.5 9.5t3 8t6 7t7 5.5t9 5.5t9.5 5t10.5 5.5t10.5 5q43 21 64 51q37 54 67 209l162 797q23 118 23 151q0 26 -14 46.5t-31 30t-31 21t-14 23.5q0 41 61 41h367q245 0 391 -35q149 -36 246 -114z" />
    <glyph glyph-name="E" unicode="E" horiz-adv-x="1263" 
d="M1061 401q53 0 53 -51q0 -34 -27 -92q-10 -25 -35 -98t-30 -88q-13 -34 -50 -59t-89 -25q-13 0 -121 6t-215 6h-535q-53 0 -53 39q-1 8 1.5 14.5t9 12t10 8t14.5 8t14 6.5q46 21 70 55q37 54 67 209l162 797q23 118 23 151q0 53 -45 76t-45 47q0 39 67 39h537
q130 0 237 8q120 9 133 9q64 0 64 -47q1 -16 -5.5 -54.5t-18.5 -103.5t-19 -119q-9 -74 -64 -74q-27 0 -39.5 16.5t-17.5 43.5t-11 57t-27 62.5t-58 54.5q-68 41 -338 41h-80q-42 0 -51 -43l-86 -422q-6 -30 -6 -39q0 -27 39 -27q157 0 202 2l129 9q73 6 101 6q55 0 55 -31
q0 -1 -16 -47q-14 -42 -36 -55t-81 -13q-4 0 -90 4q-15 1 -50 3t-48 2q-43 2 -209 2q-27 0 -33 -27l-68 -338q-26 -136 -26 -160q0 -45 33.5 -61.5t107.5 -16.5q206 0 299 43q101 50 168 134q12 13 37.5 47t32.5 41q28 32 57 32z" />
    <glyph glyph-name="F" unicode="F" horiz-adv-x="1206" 
d="M367 0h-359q-49 0 -49 37q0 28 47 49q47 19 72 57q38 49 69 211l160 795q23 131 23 151q0 32 -15 50q-10 15 -29.5 25.5t-32.5 20.5t-13 27q0 39 67 39h537q130 0 237 8q120 9 133 9q66 0 66 -47q0 -18 -6 -52l-39 -225q-12 -74 -66 -74q-31 0 -44 25.5t-15.5 60
t-23.5 77t-64 69.5q-40 28 -111 35.5t-231 7.5h-80q-42 0 -51 -43l-103 -504q-2 -8 -2 -18q0 -27 39 -27q152 0 203 2q49 0 117 8t108 8q60 0 60 -32l-17 -50q-12 -38 -34.5 -51.5t-73.5 -13.5q-6 0 -92 4q-64 6 -105 6q-43 2 -207 2q-28 0 -34 -26l-54 -267
q-24 -117 -24 -172q0 -37 15.5 -60.5t34.5 -32t34.5 -20.5t15.5 -28q0 -41 -63 -41z" />
    <glyph glyph-name="G" unicode="G" horiz-adv-x="1488" 
d="M989 698h361q53 0 53 -36q3 -9 -1.5 -18t-16.5 -16t-22 -12t-24 -10t-16 -6q-32 -17 -49.5 -58.5t-42.5 -158.5l-43 -217q-9 -50 -58 -82q-71 -45 -180 -76t-217 -31q-303 0 -477 183q-170 185 -170 450q-4 169 68 331.5t194.5 283.5t293.5 193.5t353 68.5q234 0 344 -70
q62 -38 62 -117q0 -42 -12 -104q-21 -117 -70 -117q-25 0 -37.5 15t-32.5 65q-41 109 -110 164t-191 55q-185 0 -336 -121q-146 -119 -224.5 -298.5t-78.5 -378.5q0 -226 127 -359q126 -129 318 -129q111 0 186 37q32 14 41 51l43 203q20 90 20 143q0 37 -19 57.5t-41 25
t-41 15.5t-19 31q0 43 65 43z" />
    <glyph glyph-name="H" unicode="H" horiz-adv-x="1574" 
d="M1239 1462h326q51 0 51 -35q3 -9 -1.5 -17.5t-14.5 -15t-20 -11t-22.5 -10t-17.5 -7.5q-34 -18 -49 -59q-20 -55 -41 -158l-162 -795q-22 -113 -22 -168q0 -36 15.5 -61t33.5 -35t33.5 -23t15.5 -28q0 -39 -64 -39h-358q-49 0 -49 37q0 9 2 15.5t8.5 12t9.5 7.5t14 7.5
l13 6.5q52 28 72 57q31 42 67 211l70 334q2 6 2 14q0 19 -23 19h-677q-20 0 -23 -19q0 -1 -3.5 -16t-8 -37t-8.5 -47l-33 -164q-15 -76 -19 -84q-24 -117 -24 -170q0 -38 15.5 -62t34.5 -32t34.5 -20t15.5 -29q0 -41 -63 -41h-361q-49 0 -49 39q0 13 9 23t17.5 14.5
t24.5 11.5q50 29 70 55q31 42 67 211l162 795q23 118 23 149q0 52 -33 72q-4 3 -22 12.5t-28.5 19.5t-6.5 21q0 39 65 39h324q53 0 53 -37q4 -14 -8.5 -24.5t-39 -21.5t-30.5 -13q-32 -19 -47 -59q-19 -52 -41 -158l-59 -291q-2 -6 -2 -14q0 -19 22 -19h678q20 0 23 19
l61 305q23 118 23 149q0 52 -33 72q-4 3 -22 12.5t-28.5 19.5t-6.5 21q0 39 65 39z" />
    <glyph glyph-name="I" unicode="I" horiz-adv-x="643" 
d="M332 182q0 -36 15.5 -59t33.5 -31.5t33.5 -21t15.5 -29.5q0 -41 -61 -41h-361q-49 0 -49 39q0 5 1 9.5t2.5 7.5t5.5 6.5t6 5.5t7.5 5t8 4.5t9.5 4.5t9 4q46 21 72 57q31 42 67 211l160 795q25 128 25 151q0 31 -14 50.5t-31 25.5t-31 17t-14 28q0 41 63 41h326
q53 0 53 -37q4 -13 -9.5 -24t-39.5 -22t-29 -13q-32 -22 -49 -61q-22 -49 -41 -156l-160 -795q-24 -117 -24 -172z" />
    <glyph glyph-name="J" unicode="J" horiz-adv-x="770" 
d="M-330 -350q-59 53 -59 153q0 86 63 86q16 2 46 -22.5t59.5 -55t71 -55t79.5 -22.5q80 0 144 82q54 66 92 202q35 119 100 435l131 651q29 155 29 192q0 32 -14 52t-31 26.5t-31 18t-14 30.5q0 39 59 39h334q53 0 53 -39q0 -26 -41 -41q-48 -19 -69 -53q-26 -39 -66 -225
l-45 -227q-38 -205 -69 -361q-33 -167 -56 -258q-57 -231 -141.5 -369t-214.5 -213q-121 -71 -250 -71q-109 0 -160 45z" />
    <glyph glyph-name="K" unicode="K" horiz-adv-x="1470" 
d="M1171 1462h342q54 0 54 -37q0 -16 -13 -26q-9 -6 -44.5 -20t-41.5 -17q-120 -55 -372 -256l-373 -295q-6 -3 -6 -8q0 -8 8 -8q2 0 14.5 5t20.5 5q43 0 94 -90l55 -99l74 -143q115 -227 164 -295q49 -64 108 -76q56 -9 56 -43q0 -30 -47 -45q-113 -39 -166 -39
q-49 0 -88 39q-20 20 -80 111q-10 16 -34.5 61t-25.5 47q-52 100 -61 123q-24 43 -37 72q-46 94 -67 133q-70 131 -111 131q-20 0 -35 -12l-147 -117q-15 -12 -21 -33l-37 -176q-22 -119 -22 -164q0 -41 15.5 -66.5t33.5 -33t33.5 -19.5t15.5 -30q0 -41 -63 -41h-359
q-49 0 -49 41q0 5 1 9.5t4.5 8.5t5.5 6.5t8.5 6t9 4.5t10.5 5l10 5q50 26 72 57q32 46 67 211l162 795q23 118 23 151q0 30 -14 50t-31 27t-31 18.5t-14 27.5q0 39 63 39h326q53 0 53 -37q4 -13 -9.5 -24t-39.5 -22t-29 -13q-32 -22 -49 -61q-22 -49 -41 -156l-84 -412
q-2 -6 -2 -14q0 -6 6 -6l17 10q424 335 522 418q90 78 96 84q82 78 82 119q0 16 -24.5 39.5t-24.5 35.5q0 39 67 39z" />
    <glyph glyph-name="L" unicode="L" horiz-adv-x="1132" 
d="M997 401q23 0 37 -14q13 -9 16 -21t-3 -39t-25 -75q-7 -20 -27.5 -80.5t-27.5 -79.5q-22 -50 -54.5 -77t-93.5 -27q-17 0 -119 6t-208 6h-480q-53 0 -53 39q0 7 2.5 13t5 10t10 9t9.5 6.5t11.5 6t10.5 4.5q50 23 70 55q32 43 67 209q21 107 41.5 207.5t36 177.5t29 144.5
t23.5 114.5t17 81t11 52.5t4 19.5q23 118 23 149q0 36 -17 56q-14 14 -41 28q-32 19 -32 41q0 39 65 39h324q53 0 53 -37q3 -9 -2 -17t-15.5 -14.5t-21 -11t-23 -9.5t-16.5 -7q-32 -22 -49 -61q-22 -49 -41 -156l-158 -787q-32 -147 -32 -184q0 -74 143 -74q111 0 200 29.5
t136 75.5q33 31 73.5 83.5t68 80.5t52.5 28z" />
    <glyph glyph-name="M" unicode="M" horiz-adv-x="1830" 
d="M1520 188q0 -40 15.5 -65t33.5 -32.5t33.5 -19.5t15.5 -30q0 -41 -68 -41h-348q-55 0 -55 39q1 8 3.5 14.5t9.5 12t10 8t14.5 8t13.5 6.5q46 24 68 55q26 38 41 95q19 61 53 235l151 752l2 12q0 8 -8 8q-5 0 -14 -12l-631 -971q-15 -24 -43 -24h-53q-26 0 -35 26
l-237 973q-2 7 -9 7t-8 -7q-62 -292 -113 -559q-63 -333 -63 -432q0 -65 20.5 -99t65.5 -55q49 -21 49 -49q0 -43 -69 -43h-338q-58 0 -58 41q0 14 12.5 25.5t38.5 26t37 22.5q53 41 82 118q32 74 74 277l162 780q4 28 4 31q0 30 -55 51q-54 25 -54 51q0 39 64 39h262
q50 0 59 -37l226 -901q3 -12 10 -12q3 0 10 10l594 903q24 37 70 37h252q55 0 55 -37q0 -17 -14 -28l-54 -27q-38 -17 -59 -63q-21 -52 -41 -158l-162 -797q-22 -119 -22 -164z" />
    <glyph glyph-name="N" unicode="N" horiz-adv-x="1624" 
d="M1284 1462h328q61 0 61 -39q0 -36 -78 -61q-54 -22 -82 -70t-57 -164q-20 -78 -233 -1118q-6 -24 -29 -24h-80q-22 0 -33 20l-579 1133q-6 12 -10 12q-8 0 -11 -16q-125 -591 -151 -793q-11 -75 -11 -96q0 -109 80 -150q8 -5 23.5 -12t20.5 -11t10.5 -12t5.5 -20
q0 -41 -66 -41h-362q-62 0 -62 41q0 17 15 29q4 4 13.5 8.5t22 9.5t17.5 8q62 27 98 78.5t66 165.5q23 93 198 942q2 8 2 21q0 22 -53 57q-6 3 -22 10t-26.5 12t-21.5 12t-15 15t-1 16q0 37 53 37h207q49 0 64 -35l565 -1101q10 -17 14 -17q10 0 13 19l133 680
q28 149 28 227q0 44 -13 73t-31.5 41.5t-37.5 21.5t-32 20.5t-13 29.5q0 41 72 41z" />
    <glyph glyph-name="O" unicode="O" horiz-adv-x="1669" 
d="M1350 885q0 224 -107 358q-105 135 -293 135q-266 0 -448 -237q-185 -241 -185 -555q0 -225 105 -363q104 -137 291 -137q272 0 454 238q183 239 183 561zM987 1487q277 0 436 -166q160 -168 160 -428q0 -372 -270 -645q-268 -271 -633 -271q-277 0 -436 164
q-158 169 -158 430q0 369 268 643q267 273 633 273z" />
    <glyph glyph-name="P" unicode="P" horiz-adv-x="1241" 
d="M961 866q75 93 75 244q0 132 -86 190t-258 58h-92q-40 0 -49 -41l-115 -559q-2 -8 -2 -21q0 -22 29 -22h84q299 0 414 151zM1176 848q-170 -238 -625 -238h-119q-28 0 -31 -26l-45 -226q-24 -114 -24 -170q0 -32 10.5 -54t25 -32.5t29 -19t25 -18.5t10.5 -25
q0 -39 -65 -39h-359q-49 0 -49 35q-1 10 1 16.5t9 12.5t10.5 8.5t15.5 8t15 7.5q45 23 68 53q35 44 69 217l160 791q25 128 25 151q0 30 -14.5 49t-31.5 26.5t-31.5 19t-14.5 28.5q0 39 61 39h383q297 0 414 -63q164 -89 164 -281q0 -149 -86 -270z" />
    <glyph glyph-name="Q" unicode="Q" horiz-adv-x="1667" 
d="M713 88q175 -4 325 112t232.5 301t77.5 384q0 226 -105.5 359.5t-292.5 133.5q-183 0 -334 -121q-145 -116 -223 -295t-78 -376q0 -225 105 -363q108 -135 293 -135zM807 -12q-5 -1 -7 -3.5t0 -5.5t7 -4q35 -10 231 -86q187 -75 256 -75q24 0 58.5 11t38.5 11
q14 0 26.5 -11t12.5 -24q2 -5 0 -11.5t-8.5 -16t-13.5 -17t-17.5 -20t-16.5 -19.5l-18 -22q-22 -31 -43 -44.5t-64 -19.5q-49 0 -166 45l-106 50l-98 47q-225 102 -312 102q-40 0 -92 -22.5t-55 -22.5q-31 0 -31 29q0 27 55 67q49 37 95 56q7 2 3 7q-4 4 -14 5
q-205 40 -325 196q-117 156 -117 383q0 347 227 601q129 148 303.5 230.5t368.5 82.5q277 0 436 -166q160 -168 160 -430q0 -328 -221 -590q-217 -257 -553 -313z" />
    <glyph glyph-name="R" unicode="R" horiz-adv-x="1363" 
d="M483 803h125q252 0 361 145q67 91 67 211q0 108 -77.5 152.5t-231.5 44.5h-123q-40 0 -49 -37l-96 -479q-2 -8 -2 -17q0 -20 26 -20zM1192 86q39 -36 41 -45q0 -41 -57 -41h-123q-81 0 -107 51q-14 25 -33 84l-18 62l-23 90l-26 108q-43 160 -100 227t-171 74
q-18 2 -59 2q-27 0 -63 -4q-22 -3 -29 -26l-64 -310q-24 -123 -24 -172q0 -39 15.5 -63.5t33.5 -32.5t33.5 -20t15.5 -29q0 -41 -61 -41h-365q-49 0 -49 37q-1 7 1.5 13t8 10.5t10 7.5t14 8t13.5 8q52 25 74 57q37 45 72 217l149 746q12 56 12 57q23 131 23 142q0 30 -14 49
t-31 25t-31 17.5t-14 28.5q0 39 61 39h451q343 0 440 -106q66 -72 66 -180q0 -173 -129 -287q-129 -111 -324 -129q-14 0 -14 -12q0 -10 10 -13q92 -15 147 -82q54 -66 103 -243q47 -175 71 -242q24 -58 64 -82z" />
    <glyph glyph-name="S" unicode="S" horiz-adv-x="1179" 
d="M1090 1395q45 -45 45 -144q0 -6 -1 -15.5t-2 -23.5t-2 -24q-15 -117 -67 -117q-30 0 -53 29q-4 8 -19 42.5t-18 41.5q-88 186 -266 186q-125 0 -201 -76q-78 -78 -78 -172q0 -24 5 -45.5t11.5 -39t21 -35.5t25 -30.5t33 -28.5t35.5 -24.5t41 -24t41 -22t45.5 -22
t44.5 -21.5q68 -31 114.5 -59t94 -71.5t72 -103t24.5 -134.5q0 -197 -174 -340q-176 -144 -436 -144q-52 0 -108 7.5t-115.5 26t-105.5 46t-75.5 70.5t-29.5 96q0 17 6 66t6 61q3 101 66 101q41 0 55 -41q5 -9 22 -51.5t25 -59.5q99 -203 322 -203q134 0 241 82
q109 83 109 205q0 152 -215 250q-149 67 -205 101q-174 109 -187 273q-1 17 -1 35q0 103 57.5 196t155.5 155q149 94 335 94q97 0 182 -26.5t124 -65.5z" />
    <glyph glyph-name="T" unicode="T" horiz-adv-x="1228" 
d="M1268 1477q71 0 71 -47q0 -13 -2 -23l-20 -123l-23 -137q-9 -66 -61 -66q-44 0 -59 60q0 1 -4 18.5t-9.5 38.5t-9.5 29q-18 53 -59 84q-57 45 -224 45q-26 0 -32 -27l-197 -975q-25 -122 -25 -170q0 -39 16 -62.5t34.5 -31t34.5 -19.5t16 -30q0 -41 -64 -41h-360
q-49 0 -49 39q0 26 47 47q46 19 71 57q39 51 70 211l195 965q1 6 2 11l1.5 7.5t0.5 3.5q0 15 -21 15q-165 0 -239 -47q-68 -43 -144 -168q-38 -62 -71 -62q-24 0 -41 13.5t-17 37.5q0 11 35 154l14 66l19 69q18 58 96 58q15 0 129 -9q114 -6 219 -6h303q107 0 224 6
q117 9 133 9z" />
    <glyph glyph-name="U" unicode="U" horiz-adv-x="1511" 
d="M1229 1462h327q62 0 62 -39q0 -14 -8 -24t-15.5 -14t-27 -11.5t-27.5 -11.5q-55 -25 -82 -72q-28 -48 -57 -162q-15 -52 -127 -591q-30 -158 -86 -258q-83 -144 -228 -223t-335 -79q-211 0 -351 93q-135 94 -135 290q0 65 23 193l121 596q22 113 22 147q0 49 -33 72
q-3 2 -13.5 7t-18 9t-16 10.5t-11.5 13.5t0 15q0 39 66 39h325q53 0 53 -37q4 -13 -9 -24t-39 -22t-29 -13q-33 -23 -50 -61q-22 -49 -41 -156l-114 -574q-23 -118 -23 -174q0 -136 85.5 -210t238.5 -74q398 0 487 428q106 535 113 583q10 75 10 103q0 96 -74 137
q-4 2 -15.5 7.5t-15.5 8t-10.5 8t-9 12t-2.5 15.5q0 43 70 43z" />
    <glyph glyph-name="V" unicode="V" horiz-adv-x="1413" 
d="M1241 1462h293q53 0 53 -32q0 -20 -12 -30.5t-39 -23.5q-46 -24 -96 -80q-31 -35 -109 -151l-739 -1139q-11 -20 -31 -20h-69q-21 0 -27 20l-211 1163q-20 99 -29.5 128t-31.5 51q-17 17 -54 36q-28 16 -28 39q0 39 63 39h334q51 0 51 -35q0 -17 -15.5 -28.5t-34.5 -18.5
t-34.5 -27.5t-15.5 -52.5q0 -47 14 -124l162 -891q2 -17 8 -16.5t14 14.5l459 733q141 234 141 297q0 42 -38 65q-39 26 -39 47q0 37 61 37z" />
    <glyph glyph-name="W" unicode="W" horiz-adv-x="2177" 
d="M1964 1462h305q60 0 60 -39q0 -18 -11.5 -27.5t-42.5 -23.5q-61 -28 -110 -90q-59 -74 -107 -158l-624 -1118q-14 -20 -31 -20h-66q-21 0 -24 20l-146 1137q-3 10 -8 10q-3 0 -10 -10l-645 -1137q-11 -20 -31 -20h-70q-21 0 -24 20l-117 1163q-12 144 -45 177
q-13 13 -36 25t-35.5 22.5t-12.5 27.5q0 41 72 41h319q56 0 56 -37q0 -18 -12 -28.5t-29 -16.5t-34.5 -15.5t-29.5 -35t-12 -65.5q0 -20 6 -90l76 -828q3 -24 10 -24q4 0 14 16l639 1120q10 19 31 19h72q21 0 24 -19l140 -1118q3 -23 8 -23q2 0 12 13q1 1 373 692
q121 233 121 287q0 42 -45 65q-43 27 -43 47q0 41 63 41z" />
    <glyph glyph-name="X" unicode="X" horiz-adv-x="1449" 
d="M1219 82q34 -19 38 -37q3 -3 3 -8q0 -37 -62 -37h-309q-49 0 -49 33q0 12 11.5 22.5t26 17.5t26 20.5t11.5 31.5q0 29 -26 80l-217 420q-7 13 -12 14t-15 -10q-293 -336 -354 -439q-21 -34 -21 -61q0 -29 31 -51q33 -20 33 -39q0 -39 -62 -39h-305q-53 0 -53 37
q-3 8 1 15.5t15 14.5t19.5 12t23.5 12t19 9q89 57 188 164q154 159 414 465q11 16 12 21t-6 16l-240 459q-42 77 -59 104q-16 29 -49 49q-43 19 -43 47q0 37 61 37h305q50 0 50 -32q0 -20 -37 -41q-37 -18 -37 -50q0 -23 24 -75q79 -160 209 -410q6 -12 10.5 -12.5
t14.5 10.5q260 298 324 395q38 58 38 88t-32 47q-33 20 -33 41q0 39 61 39h306q51 0 51 -37q0 -6 -2 -11t-7 -10t-9 -8.5t-13.5 -9t-13.5 -8t-16.5 -8.5t-16.5 -8q-92 -58 -189 -164l-397 -446q-10 -13 -10 -21q0 -2 4 -14l223 -428q22 -43 82 -150q25 -36 60 -57z" />
    <glyph glyph-name="Y" unicode="Y" horiz-adv-x="1372" 
d="M1145 1462h301q57 0 57 -35q0 -26 -49 -47q-48 -21 -102 -73q-60 -60 -144 -162l-465 -567q-7 -11 -10 -25l-41 -201q-22 -110 -22 -168q0 -28 10 -49.5t24.5 -33t29 -20.5t24.5 -18.5t10 -21.5q0 -41 -63 -41h-361q-47 0 -47 37q-2 31 49 49q41 20 70 57q31 45 67 209
l29 144q1 4 2 9l1.5 7.5t0.5 3.5q0 7 -6 25l-215 630q-48 136 -74 175q-7 10 -43.5 34.5t-36.5 42.5q0 39 66 39h323q48 0 48 -35q0 -16 -15.5 -27.5t-34 -18t-34 -26.5t-15.5 -50q0 -35 29 -127l166 -482q6 -18 12 -18q5 0 14 12l293 363q164 212 164 270q0 33 -37 57
q-35 24 -35 43q0 39 60 39z" />
    <glyph glyph-name="Z" unicode="Z" horiz-adv-x="1292" 
d="M1102 401q20 0 35.5 -13t15.5 -32q0 -29 -33 -96q-19 -41 -63 -154q-25 -57 -58 -89.5t-84 -32.5q-26 0 -122 8t-224 8h-561q-43 0 -43 33q0 18 15 59q5 14 24 39l1018 1198q14 14 14 21q0 8 -12 8h-127q-181 0 -279 -10q-91 -9 -143 -39q-35 -18 -69 -64l-25 -33
q-5 -7 -23.5 -38t-21.5 -35q-38 -60 -72 -60q-55 0 -55 51q0 23 14 72q2 8 7 27.5t10.5 40.5t9.5 43q15 75 24 104q15 60 95 60q13 0 127 -9q117 -6 231 -6h569q31 0 31 -22q0 -29 -8 -60q-3 -18 -29 -47l-1022 -1200q-12 -15 -12 -18q0 -9 10 -9q311 0 412 11
q110 15 176 61q75 53 160 162q49 61 88 61z" />
    <glyph glyph-name="bracketleft" unicode="[" horiz-adv-x="1001" 
d="M987 1425h-311q-27 0 -33 -26l-315 -1555q-6 -30 -6 -32q0 -25 28 -25h303q27 0 27 -23q0 -8 -2 -14l-8 -45q-6 -24 -35 -24h-500q-22 0 -22 20q0 2 0.5 5.5t1.5 10t2 11.5l360 1777q6 25 31 25h500q24 0 24 -19q0 -10 -2 -18l-8 -43q-6 -25 -35 -25z" />
    <glyph glyph-name="backslash" unicode="\" horiz-adv-x="1048" 
d="M899 -197l-868 1727h119l868 -1727h-119z" />
    <glyph glyph-name="bracketright" unicode="]" horiz-adv-x="962" 
d="M-12 -215h311q27 0 33 27l315 1554q6 30 6 33q0 24 -28 24h-303q-27 0 -27 23q0 8 2 14l8 45q6 25 35 25h500q22 0 22 -21q0 -2 -0.5 -5l-1.5 -9l-2 -12l-360 -1778q-6 -24 -31 -24h-500q-24 0 -24 18q0 10 2 18l8 43q6 25 35 25z" />
    <glyph glyph-name="asciicircum" unicode="^" horiz-adv-x="968" 
d="M285 950h-138q-16 0 -16 11q0 5 12 20l387 485q18 21 48 21h100q30 0 39 -21l192 -487q1 -3 2 -6.5t1.5 -5t0.5 -2.5q0 -15 -22 -15h-111q-30 0 -39 21l-127 329q-4 11 -10 11q-5 0 -14 -15l-258 -325q-15 -21 -47 -21z" />
    <glyph glyph-name="underscore" unicode="_" horiz-adv-x="1290" 
d="M-25 -309l11 55q3 21 24 21h1288q19 0 19 -15q0 -8 -2 -16l-12 -55q-3 -21 -23 -21h-1290q-17 0 -17 16q0 9 2 15z" />
    <glyph glyph-name="grave" unicode="`" horiz-adv-x="1024" 
d="M543 1270l-260 184q-13 10 -13 16q0 17 23 17h180q48 0 72 -27l176 -180q12 -12 12 -18q0 -13 -16 -13h-105q-39 0 -69 21z" />
    <glyph glyph-name="a" unicode="a" horiz-adv-x="1247" 
d="M399 410h349q18 0 18 14q0 6 -2 12l-92 367q-3 11 -6 14.5t-6.5 1.5t-8.5 -10l-258 -377q-6 -9 -6 -14q0 -8 12 -8zM1063 106q6 -8 42 -32t36 -39q0 -35 -58 -35h-295q-45 0 -45 33q0 19 41 43q41 27 41 74q0 29 -26 139q-6 22 -31 22h-432q-26 0 -35 -18
q-82 -125 -82 -170q0 -29 33 -49q35 -21 35 -41q0 -33 -54 -33h-262q-51 0 -51 33q0 24 47 49q47 28 84 72q48 51 129 165l510 715q16 19 35 19h63q22 0 29 -23l197 -786q26 -106 49 -138z" />
    <glyph glyph-name="b" unicode="b" horiz-adv-x="1167" 
d="M446 104h21q169 0 260.5 61.5t91.5 182.5q0 160 -278 160h-109q-23 -3 -26 -23l-48 -227q-16 -88 -16 -113t19 -33t85 -8zM492 913l-54 -256q-4 -24 -4 -26q0 -21 25 -21h106q103 0 195 35q52 21 82 64.5t30 103.5q0 131 -229 131h-115q-30 0 -36 -31zM780 557
q118 -6 190 -60.5t72 -150.5q0 -111 -88 -199q-147 -147 -516 -147h-393q-53 0 -53 39q0 26 49 47t70 55q36 51 67 205l78 385q20 97 20 150q0 32 -14 53t-31 27.5t-31 18t-14 28.5q0 39 58 39h479q217 0 301 -66q68 -56 68 -145q0 -110 -93 -179q-87 -67 -217 -82
q-13 -1 -13.5 -9.5t11.5 -8.5z" />
    <glyph glyph-name="c" unicode="c" horiz-adv-x="1193" 
d="M594 80q167 0 299 176q5 7 21 29t22.5 29.5t19 20t23 17t22.5 4.5q46 0 46 -51q0 -47 -39 -151q-34 -88 -105 -123q-111 -54 -303 -54q-232 0 -381 125q-147 126 -147 334q0 267 209 449q211 184 516 184q219 0 301 -55q43 -27 43 -101q0 -47 -15 -108q-9 -35 -13.5 -49
t-16 -26.5t-31.5 -16.5q-25 0 -41 16q-9 13 -27.5 60t-23.5 57q-64 119 -223 119q-200 0 -332 -166q-131 -162 -131 -379q0 -146 82 -244q84 -96 225 -96z" />
    <glyph glyph-name="d" unicode="d" horiz-adv-x="1310" 
d="M1030 563q35 257 -156 340q-90 41 -354 41q-21 0 -24 -20l-134 -656q-24 -121 -16 -137q4 -8 8 -10q17 -17 131 -17q229 12 353 107q165 128 192 352zM1114 926q82 -63 116.5 -169.5t8.5 -234.5q-44 -221 -250 -372q-205 -150 -551 -150h-391q-55 0 -55 39q3 25 47 45
q45 21 74 57q29 41 65 205l78 385q23 116 21 157t-31 64q-3 2 -13.5 8t-18 11t-15.5 11.5t-11 13.5t0 14q0 37 58 37h342q211 0 332 -31q115 -29 194 -90z" />
    <glyph glyph-name="e" unicode="e" horiz-adv-x="1191" 
d="M1081 1061q78 0 78 -47q0 -15 -39 -232q-12 -73 -63 -73q-47 0 -62 49q-11 46 -18 61q-22 63 -68 88q-61 37 -258 37h-108q-45 0 -54 -43l-53 -266q-2 -8 -2 -17q0 -28 39 -28q111 0 148 2q39 0 102 8t102 8q49 0 49 -30q0 -8 -12 -43q-12 -33 -33.5 -45.5t-68.5 -12.5
q-2 0 -88 4t-88 4q-35 2 -152 2q-28 0 -31 -26l-22 -105q-31 -152 -31 -184q0 -31 23 -51q16 -11 35 -15.5t31 -5t55 -0.5q38 0 139 11q71 12 123 36q51 26 80 52l86 88q63 69 94 69q21 0 36 -13.5t15 -35.5q0 -25 -27 -84q-7 -15 -26 -64t-27 -67q-45 -108 -135 -108
q-19 0 -115 8q-93 8 -221 8h-469q-53 0 -53 39q0 23 47 47q51 25 72 55q31 42 67 205l78 385q20 97 20 148q0 34 -14 55t-31 28t-31 19t-14 29q0 37 58 37h477q110 0 227 6q107 8 133 8z" />
    <glyph glyph-name="f" unicode="f" horiz-adv-x="1148" 
d="M1083 1061q25 0 38.5 -2t25.5 -13t12 -32q0 -10 -39 -232q-12 -73 -65 -73q-45 0 -60 49q0 1 -4 17.5t-10 36t-10 26.5q-6 15 -23 36t-39 33q-61 37 -258 37h-108q-42 0 -51 -43l-64 -317q-2 -8 -2 -17q0 -28 39 -28q108 0 141 2q39 0 96 8q60 8 97 8q67 0 67 -33
q0 -2 -12 -37q-12 -36 -33.5 -48.5t-70.5 -12.5q-9 0 -91 4q-78 4 -79 4q-39 2 -156 2q-27 0 -33 -28l-14 -70q-21 -108 -21 -152q0 -40 14.5 -64t32 -31.5t32 -20t14.5 -31.5q0 -39 -62 -39h-340q-53 0 -53 37q0 26 47 47q50 26 72 57q30 37 65 205l80 385q21 102 21 148
q0 29 -9.5 48t-22.5 27.5t-26.5 15t-23 16t-9.5 24.5q0 37 58 37h477q110 0 227 6q107 8 133 8z" />
    <glyph glyph-name="g" unicode="g" horiz-adv-x="1253" 
d="M758 481h350q55 0 55 -37q0 -16 -7.5 -24t-28 -17t-31.5 -16q-37 -20 -56.5 -63t-42.5 -154l-12 -59q-12 -57 -65 -78q-127 -56 -299 -56q-249 0 -400 127q-149 128 -149 336q0 251 200 439q199 190 525 190q216 0 299 -53q43 -27 43 -98q0 -40 -13 -107q-18 -96 -63 -96
q-26 0 -39 14.5t-27 56.5q-42 112 -114 150q-63 29 -133 29q-196 0 -330 -158q-131 -155 -131 -369q0 -158 96 -254q101 -96 254 -96q145 0 154 53q22 123 22 158q0 31 -12 52t-28.5 30.5t-33.5 16.5t-29 17t-12 25q0 41 58 41z" />
    <glyph glyph-name="h" unicode="h" horiz-adv-x="1320" 
d="M950 1047h322q55 0 55 -35q0 -17 -7 -25.5t-30 -18.5t-30 -14q-36 -20 -56 -64t-43 -155l-78 -385q-23 -115 -23 -163.5t23 -73.5q11 -12 30.5 -26t29.5 -24t10 -22q0 -41 -63 -41h-338q-56 0 -56 39q0 24 47 45q51 25 72 55q33 44 68 207l22 115q2 6 2 14q0 14 -16 14
h-467q-18 0 -21 -18l-24 -121q-25 -122 -25 -166q0 -37 14.5 -60.5t31.5 -32t31.5 -20.5t14.5 -28q0 -43 -61 -43h-340q-53 0 -53 37q0 17 12 27.5t28.5 16.5t40 22t40.5 40q29 39 65 203l78 385q20 97 20 150q0 29 -14 50t-30 30t-30 21t-14 26q0 39 56 39h323q56 0 56 -37
q0 -12 -6.5 -20.5t-13.5 -12.5t-24 -11.5t-24 -11.5q-36 -20 -55 -63.5t-43 -155.5l-25 -117q-2 -6 -2 -14q0 -14 14 -14h469q20 0 23 18l25 123q20 97 20 148q0 45 -20 65q-7 7 -25.5 16.5t-30.5 20.5t-12 27q0 39 57 39z" />
    <glyph glyph-name="i" unicode="i" horiz-adv-x="616" 
d="M457 735l-78 -385q-25 -122 -25 -166q0 -38 14.5 -62t31.5 -32t31.5 -20.5t14.5 -28.5q0 -41 -61 -41h-340q-53 0 -53 39q0 24 47 45q46 21 72 57q32 46 67 205l78 385q20 97 20 148q0 35 -14 56.5t-31 27.5t-31 17.5t-14 29.5q0 37 58 37h323q56 0 56 -37
q0 -12 -6.5 -20.5t-14 -12.5t-23 -10.5t-22.5 -10.5q-37 -20 -56.5 -64t-43.5 -157z" />
    <glyph glyph-name="j" unicode="j" horiz-adv-x="708" 
d="M285 412q15 62 65 317q21 108 21 148q0 35 -14.5 56t-31.5 27.5t-31.5 18t-14.5 27.5q0 41 59 41h326q53 0 53 -37q0 -24 -47 -45q-48 -21 -73.5 -68t-45.5 -160l-25 -127q-46 -250 -71 -356q-55 -223 -136.5 -355t-207.5 -208q-118 -68 -244 -68q-100 0 -152 43
q-59 50 -59 158q0 32 16.5 53t44.5 21q16 2 43.5 -21.5t54.5 -53.5t67.5 -53.5t80.5 -21.5q77 0 143 78q56 68 89 190q35 126 90 396z" />
    <glyph glyph-name="k" unicode="k" horiz-adv-x="1294" 
d="M924 1047h342q49 0 49 -35q0 -11 -5.5 -19t-17.5 -15t-23.5 -11.5t-32 -12.5t-34.5 -14q-94 -41 -190 -109q-89 -62 -310 -235l-20 -16q-12 -9 -12 -15t6 -6l10 5q10 6 24.5 11t24.5 5q40 0 99 -95q141 -241 155 -262q42 -66 64.5 -88.5t52.5 -28.5q49 0 49 -32
q0 -28 -37 -49q-91 -54 -147 -54q-42 0 -72 27.5t-65 89.5l-70 121l-62 113q-92 157 -133 157q-17 0 -32 -12l-140 -109q-21 -15 -24 -39q-19 -111 -19 -135q0 -37 14.5 -60.5t31.5 -32t31.5 -21t14.5 -29.5q0 -41 -61 -41h-340q-53 0 -53 39q0 18 13.5 28.5t32 16.5
t43 24.5t40.5 47.5q32 58 57 190l78 385q20 97 20 148q0 49 -30 73q-8 5 -21 12.5t-19.5 11.5t-12 12.5t-5.5 19.5q0 39 56 39h323q56 0 56 -37q3 -7 0 -14t-13 -13.5t-16.5 -10t-22 -10.5t-16.5 -8q-36 -20 -55 -63.5t-43 -155.5l-43 -207l-2 -12q0 -8 8 -8q6 0 14 8
l242 189l43 32l86 70q98 84 100 123q0 12 -24.5 37t-24.5 37q0 43 68 43z" />
    <glyph glyph-name="l" unicode="l" horiz-adv-x="1089" 
d="M975 356q21 0 36 -14t15 -37q0 -29 -18 -67q-1 -2 -56 -136q-24 -55 -56 -86.5t-83 -31.5q-21 0 -117 8q-93 8 -221 8h-428q-55 0 -55 39q0 24 47 45q50 26 72 57q31 42 67 205l78 385q20 97 20 150q0 29 -14 50t-30 30t-30 21t-14 26q0 39 56 39h323q56 0 56 -37
q3 -7 0 -14t-13 -13.5t-16.5 -10t-22 -10.5t-16.5 -8q-36 -20 -55 -63.5t-43 -155.5l-76 -379q-31 -152 -31 -186q0 -40 30.5 -55t100.5 -15q47 0 111 11q103 15 156 53q58 39 133 123q63 69 94 69z" />
    <glyph glyph-name="m" unicode="m" horiz-adv-x="1501" 
d="M1204 1047h250q53 0 53 -37q3 -7 0 -14t-13 -13.5t-18 -10.5t-22 -10t-18 -8q-39 -20 -58 -63q-20 -55 -41 -158l-77 -383q-25 -122 -25 -166q0 -37 14.5 -60.5t31.5 -31.5t31.5 -21.5t14.5 -31.5q0 -39 -61 -39h-340q-54 0 -54 39q0 23 50 47q49 24 73 61q37 57 64 199
l92 463l2 14q0 6 -6 6q-5 0 -10 -8l-426 -628q-15 -27 -45 -27h-50q-26 0 -36 29l-174 626q-3 8 -9 8q-9 0 -12 -16q-94 -455 -94 -569q0 -50 12.5 -83t30 -48t34.5 -24.5t29.5 -20.5t12.5 -27q0 -41 -60 -41h-311q-62 0 -62 43q-4 12 9.5 23.5t39.5 25.5t37 23
q56 46 84 118q33 83 72 277l76 362q4 28 4 31q0 30 -55 51q-54 22 -54 50q0 43 64 43h246q48 0 57 -39l158 -564q9 -28 16 -28t19 18l389 576q24 37 65 37z" />
    <glyph glyph-name="n" unicode="n" horiz-adv-x="1368" 
d="M993 1047h342q64 0 64 -41q0 -20 -18 -32t-49 -25.5t-48 -28.5q-64 -52 -104 -215q-40 -154 -150 -697q-3 -22 -31 -22h-69q-25 0 -41 22l-467 752q-7 12 -12 15.5t-8.5 0t-6.5 -15.5q-86 -401 -86 -518q0 -107 80 -148q22 -10 30 -14t17.5 -15t9.5 -26q0 -39 -59 -39
h-344q-61 0 -61 39q0 32 57 55q59 26 94 76q37 56 66 172q50 191 116 532q2 6 2 15q0 35 -63 61q-8 4 -22.5 9.5t-21.5 9t-16 9t-12.5 12.5t-3.5 16q0 41 60 41h192q46 0 66 -33l458 -740q10 -16 17 -16q9 0 12 18q86 442 86 529q0 48 -14 80.5t-33.5 47t-39.5 24t-34 20.5
t-14 29q0 41 59 41z" />
    <glyph glyph-name="o" unicode="o" horiz-adv-x="1296" 
d="M291 432q0 -158 78 -253t209 -95q184 0 311 154q129 156 129 372q0 161 -78.5 258t-208.5 97q-175 0 -307 -150q-133 -148 -133 -383zM770 1069q218 0 342.5 -118t124.5 -312q0 -269 -205 -465q-203 -197 -495 -197q-215 0 -340 117.5t-125 311.5q0 271 207 466
q209 197 491 197z" />
    <glyph glyph-name="p" unicode="p" horiz-adv-x="1099" 
d="M827 606q68 74 68 170q0 38 -16 78q-25 53 -87 72.5t-186 19.5h-84q-20 0 -26 -20l-78 -385q-2 -6 -2 -15q0 -16 20 -16h74q123 2 194 22t123 74zM1055 942q57 -63 57 -160q0 -119 -76 -207q-141 -169 -520 -169h-102q-24 0 -27 -23q-31 -149 -31 -201q0 -37 14.5 -60.5
t32 -32t32 -20.5t14.5 -28q0 -41 -62 -41h-340q-53 0 -53 37q0 26 47 47q50 26 72 57q35 47 65 205l78 385q23 118 23 150t-14 52.5t-31.5 27.5t-31.5 19t-14 30q0 37 58 37h368l185 -7q72 -5 144.5 -30t111.5 -68z" />
    <glyph glyph-name="q" unicode="q" horiz-adv-x="1312" 
d="M289 436q0 -161 78 -257.5t211 -96.5q176 0 309 151q131 152 131 381q0 142 -72 246q-70 105 -215 105q-183 0 -313 -154q-129 -153 -129 -375zM1243 -164q15 0 27 -10.5t12 -26.5q0 -11 -8 -25t-25.5 -35t-23.5 -30q-56 -80 -125 -80t-324 123q-254 121 -354 121
q-43 0 -96 -22.5t-54 -22.5q-12 0 -21 10t-9 23q0 50 151 121q8 3 8 6t-8 6q-151 35 -236 145.5t-85 266.5q0 276 207 471q207 192 491 192q218 0 342.5 -118t124.5 -312q0 -145 -63 -274q-65 -138 -199.5 -241t-306.5 -134q-17 -1 -17 -7q-1 -4 6 -6q67 -20 158 -57
q261 -106 334 -106q20 0 55 11t39 11z" />
    <glyph glyph-name="r" unicode="r" horiz-adv-x="1200" 
d="M449 588h120q158 0 231.5 58.5t73.5 156.5q0 141 -221 141h-133q-23 0 -26 -20l-62 -308q-2 -6 -2 -14q0 -14 19 -14zM1036 92q3 -3 17.5 -15.5t22 -21.5t7.5 -18q0 -37 -59 -37h-106q-66 0 -99 33q-20 20 -33 57q-4 11 -20 72l-31 106q-32 113 -77.5 159t-125.5 54
q-50 4 -104 4q-21 0 -27 -20l-22 -115q-25 -122 -25 -166q0 -37 14.5 -60.5t31.5 -32t31.5 -21t14.5 -29.5q0 -41 -61 -41h-340q-53 0 -53 39q0 23 47 47q51 25 72 55q31 42 67 205l78 385q20 97 20 148q0 34 -14 55t-31 28t-31 19t-14 29q0 37 58 37h461q261 0 344 -86
q49 -52 49 -132q0 -117 -90 -193t-244 -93q-25 -3 -25 -8q0 -7 11 -11q74 -14 116 -60.5t78 -160.5q55 -174 92 -211z" />
    <glyph glyph-name="s" unicode="s" horiz-adv-x="1085" 
d="M39 219v19q0 118 63 118q22 0 33 -14q10 -9 41.5 -53.5t42.5 -57.5q119 -143 289 -143q117 0 186.5 53.5t69.5 126.5q0 119 -207 168q-151 40 -206 64q-159 70 -170 207q-1 11 -1 22q0 137 131 238q132 102 330 102q158 0 266 -57q49 -24 65.5 -54.5t16.5 -91.5v-18
q0 -107 -59 -107q-36 0 -82 70q-111 156 -266 156q-78 0 -146 -41q-67 -40 -67 -119q0 -112 206 -160q164 -37 234 -72q149 -76 149 -229q0 -152 -135 -260q-136 -109 -372 -109q-111 0 -211.5 26t-145.5 65q-55 43 -55 151z" />
    <glyph glyph-name="t" unicode="t" horiz-adv-x="1118" 
d="M1092 1061q77 0 77 -55q0 -34 -14 -105l-14 -96q-5 -49 -18.5 -72.5t-51.5 -23.5q-40 0 -55 49q-9 37 -23 61q-21 62 -59 88q-51 39 -174 39q-16 0 -19 -14l-118 -582q-23 -125 -23 -164q0 -31 9.5 -52.5t23 -32t27 -19t23 -18t9.5 -23.5q0 -41 -63 -41h-338
q-55 0 -55 39q0 23 51 49t75 64q34 53 60 194l117 576q2 6 2 14q0 12 -15 12q-145 0 -215 -43q-14 -10 -41 -37q-20 -22 -53 -80l-16 -32q-27 -49 -60 -49q-59 0 -59 61q0 21 24 135q14 64 25 98q12 33 34 46.5t64 13.5q24 0 125 -8q114 -6 226 -6h161q112 0 226 6
q101 8 125 8z" />
    <glyph glyph-name="u" unicode="u" horiz-adv-x="1339" 
d="M1016 1047h299q65 0 65 -39q0 -12 -6.5 -21.5t-13 -13t-21.5 -10t-20 -9.5q-55 -25 -87 -77t-58 -162q-6 -26 -13 -57t-15 -68.5t-13 -59.5q-50 -234 -107 -323q-140 -230 -461 -230q-191 0 -296 85t-105 262q0 90 26 217l39 190q21 102 21 152q0 32 -14 52t-30 27
t-30 18t-14 28q0 39 57 39h322q55 0 55 -37q0 -12 -6.5 -20.5t-13.5 -12.5t-24 -11.5t-24 -11.5q-36 -18 -54.5 -60t-43.5 -159l-35 -172q-30 -150 -30 -223q0 -113 69.5 -172t190.5 -59q170 0 258 92.5t133 292.5q49 215 49 323q0 54 -15 82.5t-49 50.5q-6 4 -20 11.5
t-20 11.5t-11.5 12.5t-5.5 20.5q0 41 72 41z" />
    <glyph glyph-name="v" unicode="v" horiz-adv-x="1236" 
d="M1008 1047h264q51 0 51 -33q3 -12 -8 -23t-28.5 -20.5t-45.5 -30.5t-51 -47q-53 -60 -127 -166l-512 -719q-16 -16 -35 -16h-63q-25 0 -31 22l-193 774q-26 117 -53 150q-6 8 -41 34.5t-35 41.5q0 33 56 33h297q45 0 45 -31q0 -17 -13 -27.5t-28 -17t-28 -26.5t-13 -52
q0 -39 14 -94l137 -551q4 -15 7.5 -19.5t6.5 -2t9 11.5l305 442q86 134 102 166q25 48 25 78q0 31 -35 49q-33 20 -33 39q0 35 54 35z" />
    <glyph glyph-name="w" unicode="w" horiz-adv-x="1898" 
d="M1985 1012q0 -25 -48 -47q-52 -24 -98 -70q-50 -53 -127 -180l-416 -701q-13 -22 -39 -22h-94q-25 0 -28 20l-131 768q-3 11 -6 14.5t-6.5 1t-8.5 -11.5l-465 -772q-11 -20 -35 -20h-102q-28 0 -31 20l-106 740q-24 156 -47 182q-14 17 -36 28.5t-34 21t-12 28.5
q0 35 63 35h330q47 0 47 -33q0 -18 -12 -28.5t-29 -18.5t-34.5 -19.5t-29.5 -38.5t-12 -69q0 -36 6 -88q8 -75 72 -506q3 -12 6 -16t6 -2t7 10l483 809q8 14 26 14h93q17 0 20 -14l137 -803q1 -12 3.5 -15.5t6.5 0t11 15.5l221 381q119 204 119 270q0 21 -13 38.5t-29 27
t-29 23t-13 26.5q0 37 61 37h297q53 0 56 -35z" />
    <glyph glyph-name="x" unicode="x" horiz-adv-x="1308" 
d="M985 1047h281q59 0 59 -37q0 -12 -7 -21.5t-15.5 -14t-27 -14t-30.5 -16.5q-75 -40 -203 -168l-239 -248q-15 -15 -2 -32q21 -31 52.5 -80t54 -85t24.5 -38q107 -161 145 -189q7 -5 21 -14.5t20.5 -14.5t14.5 -12t11 -12.5t3 -11.5q0 -39 -60 -39h-327q-55 0 -55 31
q0 20 34 41q35 21 35 45q0 19 -22 61l-160 268q-13 21 -27 7q-203 -211 -246 -285q-14 -20 -14 -43t31 -45q33 -20 33 -43q0 -37 -62 -37h-280q-62 0 -62 39q0 14 8.5 22.5t34.5 20.5t39 20q75 40 203 168l239 248l17 19q10 11 10.5 18t-6.5 14l-121 185q-98 149 -143 188
q-9 7 -32 22t-32.5 25t-5.5 19q0 39 60 39h325q55 0 55 -33q0 -18 -34 -39q-33 -20 -33 -45q0 -31 41 -99l133 -217q10 -12 20 -2q180 185 230 267q12 24 12 41q0 25 -31 47q-30 21 -30 39q0 41 61 41z" />
    <glyph glyph-name="y" unicode="y" horiz-adv-x="1204" 
d="M938 1047h297q57 0 57 -37q0 -21 -15.5 -31t-55.5 -26.5t-74 -41.5q-79 -53 -160 -137l-311 -315q-16 -15 -19 -33l-16 -82q-23 -125 -23 -160q0 -37 14.5 -60.5t32 -31.5t32 -21.5t14.5 -31.5q0 -39 -62 -39h-340q-53 0 -53 39q0 19 18 29t49 26.5t52 46.5q37 56 76 250
q2 6 2 15q0 8 -7 22l-151 307q-63 128 -105 183q-17 24 -41 39t-36.5 25t-12.5 28q0 37 64 37h321q47 0 47 -33q0 -24 -43 -45t-43 -60q0 -37 50 -137l110 -215q3 -10 10 -10q5 0 15 10l149 154q164 164 164 217q0 26 -33 43q-30 18 -30 39q0 37 57 37z" />
    <glyph glyph-name="z" unicode="z" horiz-adv-x="1218" 
d="M1047 356q21 0 37 -13.5t16 -33.5q0 -27 -25 -82q-8 -17 -28.5 -69.5t-28.5 -69.5q-46 -104 -135 -104q-26 0 -117 8t-219 8h-492q-43 0 -43 31l4 20l13 39q10 27 24 41l832 795q6 6 6 10q0 8 -12 8h-185q-178 0 -252 -41q-29 -14 -80 -65q-6 -7 -18 -23.5t-22.5 -32.5
t-12.5 -18q-39 -57 -69 -57q-54 0 -54 53q0 20 19 98l12 64q5 22 23 82q18 57 94 57q26 0 127 -8q114 -6 225 -6h481q39 0 39 -29q0 -8 -2 -14l-8 -31q-10 -30 -31 -51l-835 -799q-8 -8 -8 -12q0 -9 10 -9q200 0 286 9q119 9 189 49q68 39 149 129q61 67 91 67z" />
    <glyph glyph-name="braceleft" unicode="{" horiz-adv-x="1017" 
d="M184 553q-22 3 -22 27q0 8 2 16l6 31q3 22 35 28q88 13 137 46.5t72 89.5q13 25 30 141l27 203q31 207 138.5 301t324.5 94q27 0 27 -19q0 -4 -3 -16l-8 -43q-3 -22 -30 -22q-132 -6 -185 -80q-52 -69 -73 -242q-8 -78 -19 -135q-18 -143 -53 -203q-73 -132 -225 -166
q-11 -4 -11 -8q0 -5 8 -8q84 -30 120 -77t36 -120q0 -70 -47 -244q-45 -164 -45 -231q0 -68 37.5 -100t120.5 -37q22 0 22 -19q0 -8 -2 -16l-8 -41q-6 -22 -37 -22q-166 0 -244.5 59.5t-78.5 183.5q0 84 47 252q49 165 49 225q0 117 -148 152z" />
    <glyph glyph-name="bar" unicode="|" horiz-adv-x="557" 
d="M317 -395h-84q-22 0 -22 24v2134q0 23 22 23h84q23 0 23 -23v-2134q0 -24 -23 -24z" />
    <glyph glyph-name="braceright" unicode="}" horiz-adv-x="1040" 
d="M838 657q22 -3 22 -26q0 -9 -2 -17l-6 -30q-3 -23 -35 -29q-88 -13 -137.5 -46t-71.5 -89q-13 -25 -30 -141l-27 -203q-31 -207 -138.5 -301t-324.5 -94q-27 0 -27 18q0 8 2 16l9 43q3 23 30 23q132 6 185 80q52 69 73 241q2 20 17 136q23 148 55 202q71 131 225 166
q11 4 11 8q0 6 -9 9q-84 30 -119.5 76.5t-35.5 119.5q0 78 45 242q47 174 47 233q0 68 -38 100.5t-120 37.5q-22 0 -22 18q0 8 2 16l8 41q7 23 37 23q166 0 244.5 -60t78.5 -184q0 -87 -49 -252q-47 -168 -47 -225q0 -117 148 -152z" />
    <glyph glyph-name="asciitilde" unicode="~" horiz-adv-x="1269" 
d="M156 467l-45 14q-19 6 -19 21l4 16q95 268 299 268q90 0 271 -69q183 -70 254 -70q96 0 157 117q11 20 27 20q8 0 12 -2l39 -12q23 -10 23 -22q0 -7 -2 -13q-94 -266 -297 -266q-99 0 -279 70q-178 69 -246 69q-97 0 -161 -125q-9 -18 -25 -18q-8 0 -12 2z" />
    <glyph glyph-name="uni00A0" unicode="&#xa0;" horiz-adv-x="436" 
 />
    <glyph glyph-name="exclamdown" unicode="&#xa1;" horiz-adv-x="657" 
d="M127 434l12 49q6 25 13 49t10 35q13 37 30.5 54.5t45.5 17.5q34 0 46.5 -16t12.5 -50q0 -11 -16 -139q-16 -121 -31 -268l-25 -221q-22 -152 -37.5 -210t-48.5 -91q-36 -39 -102 -39q-103 0 -103 98q0 59 50 242l67 233q73 243 76 256zM293 797q-36 0 -88 61
q-51 60 -51 100q0 42 69 99q71 59 111 59q34 0 86 -61q53 -62 53 -103q0 -38 -72 -98q-69 -57 -108 -57z" />
    <glyph glyph-name="cent" unicode="&#xa2;" horiz-adv-x="1038" 
d="M928 1053q78 -38 78 -127q0 -109 -64 -109q-16 -4 -34.5 10.5t-45.5 44t-45 43.5q-71 62 -151 62q-157 0 -265 -182q-108 -181 -108 -381q0 -134 62 -214.5t175 -80.5q51 0 107 20.5t94 45t71 45t44 20.5q35 0 35 -33q0 -49 -101 -125q-127 -97 -270 -112l-33 -156
q-3 -23 -26 -23h-54q-18 0 -18 19q0 8 2 14l29 146q-151 20 -236.5 129t-85.5 272q0 237 154 444q157 207 391 256l35 174q7 23 28 23h52q20 0 20 -18q0 -9 -2 -15l-31 -153q119 0 193 -39z" />
    <glyph glyph-name="sterling" unicode="&#xa3;" horiz-adv-x="1200" 
d="M1010 1233q37 -27 37 -90q0 -40 -11 -86q-15 -53 -55 -53q-18 0 -30.5 13t-37.5 52q-62 102 -145 102q-73 0 -121.5 -51.5t-48.5 -132.5q0 -61 37 -168q38 -101 45 -137h289q18 0 18 -16q0 -7 -2 -13l-10 -45q-3 -20 -25 -20h-250q2 -10 2 -49q0 -103 -68 -192t-175 -128
q-17 -7 -17 -10t15 -6q178 -39 280 -39q47 0 82 10.5t54.5 25.5t34.5 30t31 25.5t34 10.5t30.5 -11t12.5 -28q0 -15 -23 -59l-24 -41q-44 -101 -101 -127q-51 -23 -116 -23q-136 0 -371 76q-242 78 -281 78q-22 0 -60.5 -15.5t-43.5 -15.5q-29 0 -29 29q0 39 92 104
q36 25 91 25q18 0 63.5 -6t50.5 -6t33 4q93 21 153 87.5t60 156.5q0 37 -14 94h-238q-16 0 -16 16q0 6 2 12l10 46q3 20 22 20h189q-55 162 -55 240q0 149 131 262q110 94 276 94q136 0 193 -45z" />
    <glyph glyph-name="currency" unicode="&#xa4;" horiz-adv-x="1507" 
d="M754 885q-122 0 -205 -86q-84 -84 -84 -205q0 -120 84 -207q87 -84 205 -84t202 84q84 87 84 207q0 121 -84 205q-83 86 -202 86zM1114 301l232 -231q8 -8 8 -17q0 -6 -6 -12l-39 -39q-8 -8 -17 -8q-6 0 -12 6l-236 233q-124 -100 -290 -100q-167 0 -291 100l-236 -233
q-6 -6 -14 -6q-6 0 -12 6l-39 39q-8 8 -8 16q0 7 6 13l233 233q-108 129 -108 293t108 293l-231 231q-8 8 -8 15q0 8 8 16l35 35q10 10 18 10q6 0 14 -8l234 -232q125 101 291 101q165 0 290 -101l236 234q6 6 14 6q7 0 15 -8l37 -37q8 -8 8 -16q0 -7 -8 -15l-232 -231
q107 -125 107 -293t-107 -293z" />
    <glyph glyph-name="yen" unicode="&#xa5;" horiz-adv-x="1507" 
d="M1128 1266h271q49 0 49 -31q0 -22 -41 -43q-48 -25 -94 -68q-58 -54 -129 -143l-170 -209q-13 -16 -13 -18q0 -9 11 -9h227q18 0 18 -14q0 -6 -2 -12l-8 -41q-3 -19 -22 -19h-287q-18 0 -29 -14l-96 -119q-10 -13 -10 -16q0 -8 12 -8h377q16 0 16 -15q0 -6 -2 -12l-8 -41
q-3 -20 -24 -20h-388q-17 0 -20 -15l-18 -86q-21 -95 -21 -145q0 -36 13.5 -58t30.5 -29t30.5 -18.5t13.5 -27.5q0 -35 -57 -35h-328q-45 0 -45 35q0 22 43 43q42 19 66 53q27 40 57 182l16 76l2 12q0 13 -14 13h-377q-16 0 -16 16q0 6 2 12l8 41q3 19 23 19h348q14 0 14 10
q0 6 -2 10l-41 121q-6 16 -27 16h-260q-16 0 -16 15q0 8 2 14l8 39q3 18 23 18h213q16 0 16 13q0 5 -6 20l-82 236q-46 123 -61 145q-7 9 -39.5 32.5t-32.5 37.5q0 37 59 37h293q45 0 45 -31q0 -13 -13.5 -24t-29.5 -18.5t-29.5 -24t-13.5 -40.5q0 -28 23 -102l141 -416
q6 -16 10 -16q2 0 6 4l258 320q136 174 136 223q0 29 -33 49q-31 22 -31 41q0 35 55 35z" />
    <glyph glyph-name="brokenbar" unicode="&#xa6;" horiz-adv-x="550" 
d="M317 784h-84q-22 0 -22 25v954q0 23 22 23h84q23 0 23 -23v-954q0 -25 -23 -25zM317 -395h-84q-22 0 -22 22v955q0 24 22 24h84q23 0 23 -24v-955q0 -22 -23 -22z" />
    <glyph glyph-name="section" unicode="&#xa7;" horiz-adv-x="1191" 
d="M567 397q91 0 168 56q78 60 78 147q0 78 -70 127q-66 51 -151 51q-93 0 -170 -59q-74 -59 -74 -139q0 -75 60.5 -127t158.5 -56zM664 295q182 -111 182 -289q0 -159 -133 -280t-332 -121q-108 0 -198 35.5t-122 91.5q-28 51 -28 135q0 73 14 104t53 31q37 0 64 -59
q50 -113 112 -168.5t156 -55.5q101 0 165.5 63t64.5 148q0 65 -47.5 122t-125.5 98q-11 6 -45.5 26.5t-49 29t-46 29t-46.5 34t-39 35.5t-36.5 42t-26 45.5t-19 53.5t-5.5 59q0 120 88 221q85 98 223 137q24 8 5 19q-177 112 -177 286q0 159 125 260q127 103 295 103
q173 0 269 -84q45 -39 45 -109q0 -41 -9 -84q-15 -88 -65 -88q-27 0 -41 23q-14 20 -39 84q-64 149 -197 149q-76 0 -141 -53q-63 -51 -63 -133q0 -50 27 -91.5t70.5 -72.5t95.5 -60.5t104.5 -62.5t96 -70t70.5 -91.5t27 -120.5q0 -126 -94 -224q-94 -97 -223 -131
q-19 -7 -4 -16z" />
    <glyph glyph-name="dieresis" unicode="&#xa8;" horiz-adv-x="1034" 
d="M756 1296q-24 -18 -84 -18q-47 0 -66.5 10t-19.5 41q0 88 41 123q21 18 84 18q49 0 67.5 -11t18.5 -42q0 -35 -11.5 -72.5t-29.5 -48.5zM401 1296q-24 -18 -84 -18q-47 0 -66.5 10t-19.5 41q0 88 41 123q21 18 84 18q49 0 67.5 -11t18.5 -42q0 -35 -11.5 -72.5
t-29.5 -48.5z" />
    <glyph glyph-name="copyright" unicode="&#xa9;" horiz-adv-x="1804" 
d="M903 1395q-270 0 -465 -195q-192 -192 -192 -469t192 -469t465 -192t465 192q193 193 193 469q0 274 -195 469t-463 195zM147 731q0 313 222 535q221 221 534 221q312 0 533 -221t221 -535q0 -311 -221 -532q-222 -222 -533 -222q-312 0 -534 222t-222 532zM860 395
q59 0 107.5 22.5t78 54.5t52.5 63.5t44 54t40 22.5q37 0 37 -41q0 -16 -17 -82q-26 -95 -96 -131q-82 -43 -232 -43q-175 0 -296 95q-119 94 -119 266q0 213 164 354q167 144 405 144q164 0 229 -44q35 -21 35 -79q0 -26 -10 -84q-15 -74 -51 -74q-16 -4 -28.5 14t-26 54
t-21.5 49q-47 84 -162 84q-146 0 -256 -119t-110 -311q0 -118 63 -193.5t170 -75.5z" />
    <glyph glyph-name="ordfeminine" unicode="&#xaa;" horiz-adv-x="972" 
d="M395 297q-59 0 -76.5 12t-17.5 45q0 39 12.5 79t30.5 52q21 21 92 21q57 0 74.5 -12t17.5 -43q0 -38 -12.5 -79.5t-30.5 -54.5q-20 -20 -90 -20zM446 1364q-63 -69 -104 -197q-39 -121 -39 -225q0 -111 64 -111q70 0 184 175q54 82 89.5 170t35.5 131q0 41 -51 67
q-49 27 -90 27q-52 0 -89 -37zM846 1487q28 0 28 -35q0 -7 -10 -59l-28 -125l-33 -152q-45 -210 -45 -260q0 -41 26 -41q13 0 43 22.5t41 22.5q27 0 27 -24q0 -41 -72 -95q-56 -41 -118 -41q-107 0 -107 121q0 53 18 142q0 4 -4 4q-3 0 -6 -6q-65 -118 -147.5 -189.5
t-173.5 -71.5q-75 0 -118.5 56t-43.5 157q0 188 104 359q132 215 326 215q53 0 123 -25q71 -22 80 -22q16 0 47 23.5t43 23.5z" />
    <glyph glyph-name="guillemotleft" unicode="&#xab;" horiz-adv-x="1171" 
d="M895 193l-18 -97q-3 -10 -11 -10q-6 0 -14 8l-412 445q-12 13 -11.5 22t13.5 21l594 436q13 10 19 10q8 0 8 -8t-2 -14l-23 -109q-7 -27 -26 -41l-400 -293q-14 -8 -14 -16q0 -4 6 -10l283 -306q10 -10 10 -24q0 -8 -2 -14zM498 227l-19 -90q-3 -18 -12 -18q-6 0 -14 8
l-357 389q-8 8 -8 23q0 10 2 18l19 88q3 22 18 31l506 375q15 12 22 12q9 0 9 -8q0 -9 -2 -15l-21 -106q-5 -24 -29 -41l-399 -293q-12 -9 -12 -14q0 -7 6 -13l282 -307q11 -15 11 -24t-2 -15z" />
    <glyph glyph-name="logicalnot" unicode="&#xac;" horiz-adv-x="1654" 
d="M145 1069h1285v-633h-130v502h-1155v131z" />
    <glyph glyph-name="registered" unicode="&#xae;" horiz-adv-x="1161" 
d="M268 1341q146 146 353 146q206 0 352 -146q145 -145 145 -352t-145 -352t-352 -145q-208 0 -353 145t-145 352t145 352zM621 578q166 0 286 120q121 121 121 291t-121 291q-120 123 -286 123q-169 0 -289 -123q-119 -119 -119 -291q0 -151 92 -260q0 10 29.5 30.5
t34.5 26.5q19 28 34 111l43 207q11 57 11 80q0 17 -11.5 30.5t-23.5 23t-12 15.5q0 21 30 21h228q121 0 166 -31q47 -35 47 -90q0 -41 -27 -76q-55 -67 -160 -76q-5 0 -6 -3q-1 -5 14 -7q60 -9 95 -117q26 -91 49 -114q2 -2 7 -6t8 -7t6 -7.5t3 -8.5q0 -20 -30 -20h-66
q-35 0 -51 16q-15 15 -45 127q-22 92 -68 107q-19 8 -65 8q-11 0 -15 -11l-12 -59q-12 -68 -12 -88q0 -25 24.5 -50t24.5 -30q0 -20 -33 -20h-188q-15 0 -17 2q123 -135 304 -135zM655 1038q99 15 99 101q0 53 -70 65q-32 4 -90 4q-11 0 -14 -10l-31 -143l-2 -13q0 -8 10 -8
h41q33 0 57 4z" />
    <glyph glyph-name="overscore" unicode="&#xaf;" horiz-adv-x="1081" 
d="M272 1356l13 61q3 21 26 21h588q16 0 16 -13q0 -6 -2 -12l-14 -72q-6 -20 -27 -20h-581q-21 0 -21 18q0 9 2 17z" />
    <glyph glyph-name="degree" unicode="&#xb0;" horiz-adv-x="616" 
d="M248 1395q-41 -41 -41 -100.5t41 -102.5q41 -41 100.5 -41t100.5 41q43 43 43 102.5t-43 100.5q-41 43 -100.5 43t-100.5 -43zM180 1128q-69 69 -69 166t69 166t168 69t168 -69q72 -69 72 -166t-72 -166q-69 -69 -168 -69t-168 69z" />
    <glyph glyph-name="plusminus" unicode="&#xb1;" horiz-adv-x="1382" 
d="M1186 862v-69q0 -23 -23 -23h-399q-12 0 -12 -12v-375q0 -23 -23 -23h-76q-22 0 -22 23v375q0 12 -13 12h-397q-24 0 -24 23v69q0 23 24 23h397q13 0 13 12v375q0 22 22 22h76q23 0 23 -22v-375q0 -12 12 -12h399q23 0 23 -23zM197 152v69q0 23 22 23h942q23 0 23 -23
v-69q0 -23 -23 -23h-942q-22 0 -22 23z" />
    <glyph glyph-name="twosuperior" unicode="&#xb2;" horiz-adv-x="702" 
d="M186 1798q76 55 203 55q125 0 192.5 -57t67.5 -141q0 -117 -127 -191q-58 -34 -164 -69q-95 -31 -147 -60q-51 -29 -72 -68q-15 -27 5 -27q3 0 6 1h202q88 0 121 10q13 4 44 26.5t40 22.5q31 0 31 -30q0 -12 -23 -76q-5 -10 -16 -38.5t-19 -37.5q-20 -33 -75 -33
q-1 0 -61 3.5t-95 3.5h-238q-49 0 -49 43q0 147 133 247q46 34 127 74q77 38 119 68q98 64 98 151q0 43 -29.5 72t-76.5 29q-48 0 -88 -37q-18 -16 -41 -49.5t-41.5 -55.5t-34.5 -22q-24 0 -31.5 13t-7.5 50q0 85 47 123z" />
    <glyph glyph-name="threesuperior" unicode="&#xb3;" horiz-adv-x="684" 
d="M420 1479q70 -8 116 -48t46 -106q0 -94 -95 -174t-254 -80q-137 0 -196 62q-37 40 -37 114t49 74q35 0 57 -64q58 -104 148 -104q80 0 121 59q41 62 41 123q0 50 -30 79.5t-85 29.5q-18 0 -50 -4t-34 -4q-29 0 -29 26q0 4 5 29q9 41 40 41q1 0 33.5 -4t55.5 -4
q63 0 104 45.5t41 113.5q0 40 -24 67.5t-66 27.5q-80 0 -154 -92q-6 -6 -22.5 -30.5t-28.5 -35t-22 -6.5q-41 0 -41 43q0 96 65 143q82 55 199 55q124 0 192 -47.5t68 -124.5q0 -67 -58 -120t-155 -70q-17 -3 -17 -8q0 -3 17 -6z" />
    <glyph glyph-name="acute" unicode="&#xb4;" horiz-adv-x="944" 
d="M737 1460l-340 -190q-38 -21 -75 -21h-111q-14 0 -14 11q0 8 14 16l246 184q35 27 82 27h188q21 0 21 -12q0 -8 -11 -15z" />
    <glyph glyph-name="mu" unicode="&#xb5;" horiz-adv-x="1544" 
d="M641 1055l-129 -633q-25 -131 -25 -186q0 -119 91 -119q139 0 296 280q140 253 195 496l33 145q6 25 33 31l122 18q15 3 21 3q29 0 29 -21q0 -8 -2 -16l-117 -576q-49 -235 -49 -274q0 -60 39 -60q24 0 63 31q42 31 59 31q31 0 31 -33q0 -42 -65 -104q-97 -91 -197 -91
q-135 0 -135 156q0 63 22 186l2 13q0 9 -9 5q-6 -3 -11 -11q-109 -174 -208 -261.5t-216 -87.5q-111 0 -168 91q-3 6 -6 6t-6 -8l-45 -191q-19 -80 -21 -133q-3 -73 -8 -90q-15 -47 -92 -47q-74 0 -74 49q-3 13 9.5 47.5t33 87.5t31.5 90q70 229 139 553l49 248
q16 79 33.5 167.5t26.5 134.5t12 56q7 23 39 29l133 23q10 2 18 2q25 0 25 -21q0 -10 -2 -16z" />
    <glyph glyph-name="paragraph" unicode="&#xb6;" horiz-adv-x="1540" 
d="M727 715q18 0 21 14l20 127l23 127l24 109q16 62 37 106q58 110 125 162h-141q-225 0 -344 -125q-99 -105 -99 -252q0 -134 87.5 -201t246.5 -67zM629 -106q121 19 192 68.5t111 141.5q24 53 47 148q7 29 13 62t10 58.5t10.5 68t9.5 67t10.5 82t11.5 86.5q3 15 3 20
q45 338 71 445q34 140 113 229q-93 7 -159 -47.5t-105 -146.5q-24 -52 -45 -144q-20 -86 -33 -164q-2 -16 -11.5 -80.5t-15.5 -111.5l-28 -211q-11 -70 -27 -162q-14 -96 -31 -145q-4 -13 -35 -105q-37 -97 -112 -159zM936 1462h516q92 0 92 -43q0 -21 -8 -45
q-6 -18 -20 -18q-1 0 -33 10t-53 10q-90 0 -146 -106q-24 -46 -45 -135q-16 -67 -35 -172q-16 -111 -28 -220q-52 -419 -99 -567q-77 -235 -254 -317q-136 -62 -360 -62q-170 0 -170 45q0 13 2 19l10 49q3 18 21 18l34 -12q38 -12 78 -12q101 0 160 98q25 40 47 121
q26 95 35 145q20 112 29 181l18 131q2 10 2 18q0 14 -20 14q-268 0 -398.5 94t-130.5 267q0 208 168 348q70 59 189 96q120 36 192 39q79 6 207 6z" />
    <glyph glyph-name="middot" unicode="&#xb7;" horiz-adv-x="610" 
d="M285 434q-35 0 -88 62q-52 61 -52 100q0 40 70 98q72 60 111 60q33 0 86 -62t53 -102q0 -38 -72 -98q-70 -58 -108 -58z" />
    <glyph glyph-name="cedilla" unicode="&#xb8;" horiz-adv-x="876" 
d="M426 2h106q-73 -64 -73 -94q0 -18 28 -28t62 -15t62 -27.5t28 -62.5q0 -65 -76 -117q-74 -53 -178 -53q-56 0 -101.5 15.5t-45.5 43.5q0 39 43 39q5 0 43 -9t57 -9q43 0 69.5 20t26.5 47q0 21 -22 35t-48.5 20.5t-48.5 21t-22 36.5q0 33 90 137z" />
    <glyph glyph-name="onesuperior" unicode="&#xb9;" horiz-adv-x="446" 
d="M387 1804l-139 -690q-3 -20 -29 -20h-108q-19 0 -19 12q0 6 2 12l105 518q12 62 12 76q0 25 -39 25q-15 0 -46 -2t-36 -2q-37 0 -37 26q0 48 33 51q95 9 203 33q53 12 63 12q37 0 37 -34q0 -11 -2 -17z" />
    <glyph glyph-name="ordmasculine" unicode="&#xba;" horiz-adv-x="946" 
d="M360 297q-59 0 -76.5 12t-17.5 45q0 39 12.5 79t30.5 52q21 21 92 21q57 0 75 -12t18 -43q0 -38 -12.5 -79.5t-30.5 -54.5q-20 -20 -91 -20zM451 788q107 0 172 111q67 113 67 270q0 111 -40 170.5t-109 59.5q-115 0 -179 -117q-63 -111 -63 -256q0 -110 41.5 -174
t110.5 -64zM571 1487q139 0 218 -82t79 -219q0 -186 -129 -336t-319 -150q-138 0 -217.5 83t-79.5 221q0 201 135 342t313 141z" />
    <glyph glyph-name="guillemotright" unicode="&#xbb;" horiz-adv-x="1144" 
d="M244 956l18 97q3 10 10 10t15 -8l411 -445q13 -16 13 -22q0 -9 -15 -21l-594 -436q-13 -10 -18 -10q-8 0 -8 8t2 14l22 109q7 26 27 41l399 293q15 9 15 16q0 4 -6 10l-283 306q-10 10 -10 24q0 8 2 14zM641 922l18 90q3 18 13 18q6 0 14 -8l356 -389q9 -9 9 -23
q0 -10 -2 -18l-19 -88q-3 -22 -18 -31l-506 -375q-15 -12 -23 -12t-8 8q0 9 2 15l21 106q6 25 28 41l400 293q20 12 6 26l-283 308q-10 13 -10 24q0 9 2 15z" />
    <glyph glyph-name="onequarter" unicode="&#xbc;" horiz-adv-x="1513" 
d="M635 1436l-139 -691q-3 -20 -29 -20h-109q-18 0 -18 12q0 7 2 13l104 518q13 67 13 75q0 25 -39 25q-15 0 -46 -2t-36 -2q-37 0 -37 27q0 48 33 51q95 9 203 33q53 12 63 12q37 0 37 -35q0 -10 -2 -16zM1272 270h71q21 0 21 -18q0 -8 -2 -14l-12 -58q-3 -20 -27 -20h-74
q-17 0 -20 -17l-25 -120q-6 -25 -28 -25h-105q-20 0 -20 20q0 9 2 15l20 100q2 6 2 14q0 13 -14 13h-334q-22 0 -22 18q0 7 2 15l12 59q5 31 31 53q241 192 297 436q6 21 24 21h109q12 0 12 -8q0 -7 -2 -13q-53 -240 -344 -456q-6 -3 -6 -9t8 -6h235q18 0 21 17l67 331
q3 23 25 23h109q20 0 20 -18q0 -9 -2 -15l-63 -311q-3 -9 -3 -14q0 -13 15 -13zM199 197l934 1069h141l-934 -1069h-141z" />
    <glyph glyph-name="onehalf" unicode="&#xbd;" horiz-adv-x="1585" 
d="M1008 707q76 55 202 55q124 0 192 -57t68 -142q0 -116 -127 -190q-63 -37 -163 -70q-102 -33 -148 -59q-52 -29 -73 -68q-14 -27 6 -27q3 0 6 1h203q87 0 120 10q13 4 44 26.5t40 22.5q31 0 31 -31q0 -12 -23 -76q-5 -10 -15.5 -38t-18.5 -37q-20 -33 -76 -33q-1 0 -61 3
t-95 3h-237q-49 0 -49 43q0 148 133 248q46 34 127 74q78 38 118 67q99 64 99 152q0 43 -30 71.5t-77 28.5q-48 0 -88 -37q-18 -16 -41 -49.5t-41.5 -55.5t-34.5 -22q-24 0 -31 13.5t-7 50.5q0 85 47 123zM616 1436l-139 -691q-3 -20 -28 -20h-109q-18 0 -18 12q0 7 2 13
l104 518q12 62 12 75q0 25 -39 25q-15 0 -46 -2t-36 -2q-36 0 -36 27q0 48 32 51q95 9 203 33q53 12 64 12q36 0 36 -35q0 -10 -2 -16zM199 197l934 1069h141l-934 -1069h-141z" />
    <glyph glyph-name="threequarters" unicode="&#xbe;" horiz-adv-x="1658" 
d="M1417 270h72q20 0 20 -18q0 -8 -2 -14l-12 -58q-3 -20 -27 -20h-73q-18 0 -21 -17l-24 -120q-6 -25 -29 -25h-104q-21 0 -21 20q0 9 2 15l21 100q2 6 2 14q0 13 -15 13h-334q-22 0 -22 18q0 7 2 15l12 59q5 31 31 53q241 192 297 436q6 21 25 21h108q12 0 12 -8
q0 -7 -2 -13q-53 -240 -344 -456q-6 -3 -6 -9t8 -6h236q17 0 20 17l68 331q3 23 24 23h109q20 0 20 -18q0 -9 -2 -15l-63 -311q-2 -6 -2 -14q0 -13 14 -13zM569 1112q70 -8 116 -48t46 -106q0 -95 -94 -174t-254 -79q-139 0 -197 61q-36 39 -36 115q0 73 49 73q35 0 57 -63
q58 -105 147 -105q79 0 121 60q41 62 41 123q0 50 -29.5 79t-84.5 29q-15 0 -47 -4t-37 -4q-29 0 -29 27q0 8 4 28q9 41 41 41q1 0 33 -4t55 -4q63 0 104 46t41 114q0 40 -23.5 67t-66.5 27q-79 0 -153 -92q-5 -6 -22.5 -30.5t-29.5 -35t-22 -6.5q-41 0 -41 43q0 96 66 144
q82 55 198 55q124 0 192 -47.5t68 -124.5q0 -67 -58 -120.5t-155 -70.5q-16 -3 -16 -8q0 -3 16 -6zM352 197l934 1069h141l-933 -1069h-142z" />
    <glyph glyph-name="questiondown" unicode="&#xbf;" horiz-adv-x="1067" 
d="M205 289q37 26 162 90q87 45 139 78q98 64 98 127q0 35 -39 49q-30 9 -30 33q0 29 33 43t75 14q52 0 90.5 -28.5t38.5 -71.5q0 -88 -125 -189l-143 -100q-112 -74 -176 -135q-138 -132 -138 -273q0 -100 57 -158.5t154 -58.5q102 0 172 64q72 63 72 143q0 56 -51 76
q-5 2 -17 6t-17 6.5t-10 10t-5 18.5q0 39 46 71.5t103 32.5q63 0 102.5 -39.5t39.5 -111.5q0 -137 -142 -258q-138 -123 -344 -123q-169 0 -272 92q-103 89 -103 223q0 214 230 369zM684 797q-36 0 -88 61q-51 60 -51 100q0 42 69 99q71 59 111 59q34 0 86 -61
q53 -62 53 -103q0 -39 -71 -98q-69 -57 -109 -57z" />
    <glyph glyph-name="Agrave" unicode="&#xc0;" 
d="M954 1653l-260 184q-12 9 -12 16q0 17 23 17h180q47 0 71 -27l177 -180q12 -12 12 -18q0 -13 -17 -13h-104q-40 0 -70 21zM418 590h463q16 0 16 12q0 8 -2 14l-102 564q-3 14 -9 14q-3 0 -10 -10l-360 -574q-6 -9 -6 -12q0 -8 10 -8zM1235 115q13 -13 35.5 -25t34.5 -23
t12 -28q0 -39 -64 -39h-333q-52 0 -52 33q0 19 16 30.5t35.5 18t35.5 28t16 56.5q0 17 -17 121l-32 180q-3 16 -23 16h-545q-20 0 -28 -14q-154 -251 -154 -326q0 -35 37 -59q39 -23 39 -45q0 -39 -62 -39h-290q-54 0 -54 35q0 7 2.5 13t4.5 10t9 8.5t10 6.5t13 7t13 6
q39 19 94 80q46 53 118 164l730 1126q12 21 32 21h70q22 0 25 -21l211 -1163q35 -149 61 -178z" />
    <glyph glyph-name="Aacute" unicode="&#xc1;" 
d="M418 590h463q16 0 16 12q0 8 -2 14l-102 564q-3 14 -9 14q-3 0 -10 -10l-360 -574q-6 -9 -6 -12q0 -8 10 -8zM1235 115q13 -13 35.5 -25t34.5 -23t12 -28q0 -39 -64 -39h-333q-52 0 -52 33q0 19 16 30.5t35.5 18t35.5 28t16 56.5q0 17 -17 121l-32 180q-3 16 -23 16h-545
q-20 0 -28 -14q-154 -251 -154 -326q0 -35 37 -59q39 -23 39 -45q0 -39 -62 -39h-290q-54 0 -54 35q0 7 2.5 13t4.5 10t9 8.5t10 6.5t13 7t13 6q39 19 94 80q46 53 118 164l730 1126q12 21 32 21h70q22 0 25 -21l211 -1163q35 -149 61 -178zM1178 1843l-340 -190
q-38 -21 -76 -21h-111q-14 0 -14 10q0 9 14 17l246 184q35 27 82 27h188q21 0 21 -12q0 -8 -10 -15z" />
    <glyph glyph-name="Acircumflex" unicode="&#xc2;" 
d="M715 1612h-94q-13 0 -13 8q0 4 10 14l224 217q19 19 39 19h127q19 0 32 -19l136 -217q6 -9 6 -12q0 -10 -13 -10h-77q-18 0 -29 14l-115 141q-10 12 -16.5 12.5t-16.5 -10.5l-165 -145q-15 -12 -35 -12zM418 590h463q16 0 16 12q0 8 -2 14l-102 564q-3 14 -9 14
q-3 0 -10 -10l-360 -574q-6 -9 -6 -12q0 -8 10 -8zM1235 115q13 -13 35.5 -25t34.5 -23t12 -28q0 -39 -64 -39h-333q-52 0 -52 33q0 19 16 30.5t35.5 18t35.5 28t16 56.5q0 17 -17 121l-32 180q-3 16 -23 16h-545q-20 0 -28 -14q-154 -251 -154 -326q0 -35 37 -59
q39 -23 39 -45q0 -39 -62 -39h-290q-54 0 -54 35q0 7 2.5 13t4.5 10t9 8.5t10 6.5t13 7t13 6q39 19 94 80q46 53 118 164l730 1126q12 21 32 21h70q22 0 25 -21l211 -1163q35 -149 61 -178z" />
    <glyph glyph-name="Atilde" unicode="&#xc3;" 
d="M418 590h463q16 0 16 12q0 8 -2 14l-102 564q-3 14 -9 14q-3 0 -10 -10l-360 -574q-6 -9 -6 -12q0 -8 10 -8zM1235 115q13 -13 35.5 -25t34.5 -23t12 -28q0 -39 -64 -39h-333q-52 0 -52 33q0 19 16 30.5t35.5 18t35.5 28t16 56.5q0 17 -17 121l-32 180q-3 16 -23 16h-545
q-20 0 -28 -14q-154 -251 -154 -326q0 -35 37 -59q39 -23 39 -45q0 -39 -62 -39h-290q-54 0 -54 35q0 7 2.5 13t4.5 10t9 8.5t10 6.5t13 7t13 6q39 19 94 80q46 53 118 164l730 1126q12 21 32 21h70q22 0 25 -21l211 -1163q35 -149 61 -178zM612 1663l-26 8q-19 6 -19 19
q0 8 2 12q64 178 201 178q57 0 170 -43t156 -43q59 0 100 72q9 12 18 12q5 0 11 -2l22 -6q23 -7 23 -17q0 -6 -2 -10q-61 -178 -199 -178q-68 0 -178 43t-152 43q-58 0 -98 -76q-8 -14 -18 -14q-7 0 -11 2z" />
    <glyph glyph-name="Adieresis" unicode="&#xc4;" 
d="M1163 1632q-24 -18 -84 -18q-47 0 -66.5 10t-19.5 41q0 88 41 123q21 18 84 18q49 0 67.5 -11t18.5 -42q0 -35 -11.5 -72.5t-29.5 -48.5zM809 1632q-24 -18 -84 -18q-47 0 -66.5 10t-19.5 41q0 88 41 123q21 18 84 18q49 0 67.5 -11t18.5 -42q0 -35 -11.5 -72.5
t-29.5 -48.5zM418 590h463q16 0 16 12q0 8 -2 14l-102 564q-3 14 -9 14q-3 0 -10 -10l-360 -574q-6 -9 -6 -12q0 -8 10 -8zM1235 115q13 -13 35.5 -25t34.5 -23t12 -28q0 -39 -64 -39h-333q-52 0 -52 33q0 19 16 30.5t35.5 18t35.5 28t16 56.5q0 17 -17 121l-32 180
q-3 16 -23 16h-545q-20 0 -28 -14q-154 -251 -154 -326q0 -35 37 -59q39 -23 39 -45q0 -39 -62 -39h-290q-54 0 -54 35q0 7 2.5 13t4.5 10t9 8.5t10 6.5t13 7t13 6q39 19 94 80q46 53 118 164l730 1126q12 21 32 21h70q22 0 25 -21l211 -1163q35 -149 61 -178z" />
    <glyph glyph-name="Aring" unicode="&#xc5;" 
d="M418 590h463q16 0 16 12q0 8 -2 14l-102 564q-3 14 -9 14q-3 0 -10 -10l-360 -574q-6 -9 -6 -12q0 -8 10 -8zM1235 115q13 -13 35.5 -25t34.5 -23t12 -28q0 -39 -64 -39h-333q-52 0 -52 33q0 19 16 30.5t35.5 18t35.5 28t16 56.5q0 17 -17 121l-32 180q-3 16 -23 16h-545
q-20 0 -28 -14q-154 -251 -154 -326q0 -35 37 -59q39 -23 39 -45q0 -39 -62 -39h-290q-54 0 -54 35q0 7 2.5 13t4.5 10t9 8.5t10 6.5t13 7t13 6q39 19 94 80q46 53 118 164l730 1126q12 21 32 21h70q22 0 25 -21l211 -1163q35 -149 61 -178zM913 1577q43 0 74 31t31 75
t-31 76.5t-74 32.5q-44 0 -75 -32t-31 -77q0 -44 31 -75t75 -31zM780 1554q-54 54 -54 129t54 129q56 56 133 56t131 -56q56 -54 56 -129t-56 -129q-54 -54 -131 -54t-133 54z" />
    <glyph glyph-name="AE" unicode="&#xc6;" horiz-adv-x="2056" 
d="M991 612l135 668l2 12q0 6 -6 6q-4 0 -14 -10l-596 -670q-14 -14 -14 -20q0 -8 10 -8h453q24 0 30 22zM2007 1479q64 0 64 -47q0 -1 -5 -41l-38 -236q-9 -74 -62 -74q-26 0 -38.5 14t-20.5 50q0 5 -6 26q-5 26 -17 56q-14 47 -59 80q-39 31 -113.5 40t-238.5 9h-80
q-43 0 -52 -43l-90 -443q-2 -8 -2 -18q0 -27 37 -27q158 0 205 2l125 9q63 8 94 8q66 0 66 -33q0 -4 -13 -45q-14 -43 -36 -56.5t-82 -13.5q-11 0 -113 4q-21 1 -44.5 2t-38 2t-22.5 1q-41 2 -182 2q-27 0 -33 -27l-63 -318q-33 -152 -33 -186q0 -42 35.5 -57t108.5 -15
q108 0 188 15q122 21 180 65q62 47 144 154q48 63 81 63q24 0 39 -14.5t15 -38.5q0 -30 -25 -88q-8 -18 -55 -156q-40 -116 -152 -116q-18 0 -123 6t-213 6h-534q-53 0 -53 39q0 7 2.5 13t5 10t10 9t9.5 6.5t11.5 6t10.5 4.5q48 25 69 55q25 37 39 84q13 44 49 226q3 9 3 14
q0 16 -21 16h-518q-23 0 -39 -16q-155 -183 -201 -248q-39 -51 -39 -88q0 -29 33 -49q35 -21 35 -43q0 -39 -59 -39h-312q-59 0 -59 37q0 22 16 31q4 4 13 9.5t22.5 12.5t22.5 12q76 43 198 174l936 1041q12 15 12 24q0 22 -55 37t-55 45q0 39 57 39h688q131 0 238 8
q120 9 133 9z" />
    <glyph glyph-name="Ccedilla" unicode="&#xc7;" horiz-adv-x="1388" 
d="M702 92q185 0 338 166l82 98q45 45 76 45q45 0 45 -47q0 -61 -43 -159q-40 -93 -123 -140q-147 -78 -348 -78h-8q-45 -45 -45 -69q0 -18 28 -28t62 -15t62 -27.5t28 -62.5q0 -65 -76 -117q-74 -53 -178 -53q-56 0 -101.5 15.5t-45.5 43.5q0 39 43 39q5 0 43 -9t57 -9
q43 0 69.5 20t26.5 47q0 21 -22 35t-48.5 20.5t-48.5 21t-22 36.5q0 36 74 119q-242 30 -391 198q-150 170 -150 426q0 168 69.5 328t192.5 283q124 124 298.5 196t367.5 72q212 0 325 -70q98 -58 33 -284q-15 -54 -53 -54q-25 0 -37.5 15t-32.5 65q-41 108 -110.5 163.5
t-190.5 55.5q-188 0 -338 -123q-146 -120 -224.5 -299t-78.5 -370q0 -193 103 -344q102 -150 292 -150z" />
    <glyph glyph-name="Egrave" unicode="&#xc8;" horiz-adv-x="1263" 
d="M795 1653l-260 184q-13 10 -13 16q0 17 23 17h180q48 0 72 -27l176 -180q12 -12 12 -18q0 -13 -16 -13h-105q-39 0 -69 21zM1061 401q53 0 53 -51q0 -34 -27 -92q-10 -25 -35 -98t-30 -88q-13 -34 -50 -59t-89 -25q-13 0 -121 6t-215 6h-535q-53 0 -53 39q-1 8 1.5 14.5
t9 12t10 8t14.5 8t14 6.5q46 21 70 55q37 54 67 209l162 797q23 118 23 151q0 53 -45 76t-45 47q0 39 67 39h537q130 0 237 8q120 9 133 9q64 0 64 -47q1 -16 -5.5 -54.5t-18.5 -103.5t-19 -119q-9 -74 -64 -74q-27 0 -39.5 16.5t-17.5 43.5t-11 57t-27 62.5t-58 54.5
q-68 41 -338 41h-80q-42 0 -51 -43l-86 -422q-6 -30 -6 -39q0 -27 39 -27q157 0 202 2l129 9q73 6 101 6q55 0 55 -31q0 -1 -16 -47q-14 -42 -36 -55t-81 -13q-4 0 -90 4q-15 1 -50 3t-48 2q-43 2 -209 2q-27 0 -33 -27l-68 -338q-26 -136 -26 -160q0 -45 33.5 -61.5
t107.5 -16.5q206 0 299 43q101 50 168 134q12 13 37.5 47t32.5 41q28 32 57 32z" />
    <glyph glyph-name="Eacute" unicode="&#xc9;" horiz-adv-x="1263" 
d="M1096 1843l-340 -190q-35 -21 -76 -21h-111q-14 0 -14 10q0 9 14 17l246 184q35 27 82 27h188q21 0 21 -12q0 -8 -10 -15zM1061 401q53 0 53 -51q0 -34 -27 -92q-10 -25 -35 -98t-30 -88q-13 -34 -50 -59t-89 -25q-13 0 -121 6t-215 6h-535q-53 0 -53 39q-1 8 1.5 14.5
t9 12t10 8t14.5 8t14 6.5q46 21 70 55q37 54 67 209l162 797q23 118 23 151q0 53 -45 76t-45 47q0 39 67 39h537q130 0 237 8q120 9 133 9q64 0 64 -47q1 -16 -5.5 -54.5t-18.5 -103.5t-19 -119q-9 -74 -64 -74q-27 0 -39.5 16.5t-17.5 43.5t-11 57t-27 62.5t-58 54.5
q-68 41 -338 41h-80q-42 0 -51 -43l-86 -422q-6 -30 -6 -39q0 -27 39 -27q157 0 202 2l129 9q73 6 101 6q55 0 55 -31q0 -1 -16 -47q-14 -42 -36 -55t-81 -13q-4 0 -90 4q-15 1 -50 3t-48 2q-43 2 -209 2q-27 0 -33 -27l-68 -338q-26 -136 -26 -160q0 -45 33.5 -61.5
t107.5 -16.5q206 0 299 43q101 50 168 134q12 13 37.5 47t32.5 41q28 32 57 32z" />
    <glyph glyph-name="Ecircumflex" unicode="&#xca;" horiz-adv-x="1263" 
d="M606 1612h-94q-12 0 -12 8q0 4 10 14l223 217q19 19 39 19h127q20 0 33 -19l135 -217q6 -9 6 -12q0 -10 -12 -10h-78q-18 0 -29 14l-114 141q-10 12 -16.5 12.5t-16.5 -10.5l-166 -145q-15 -12 -35 -12zM1061 401q53 0 53 -51q0 -34 -27 -92q-10 -25 -35 -98t-30 -88
q-13 -34 -50 -59t-89 -25q-13 0 -121 6t-215 6h-535q-53 0 -53 39q-1 8 1.5 14.5t9 12t10 8t14.5 8t14 6.5q46 21 70 55q37 54 67 209l162 797q23 118 23 151q0 53 -45 76t-45 47q0 39 67 39h537q130 0 237 8q120 9 133 9q64 0 64 -47q1 -16 -5.5 -54.5t-18.5 -103.5
t-19 -119q-9 -74 -64 -74q-27 0 -39.5 16.5t-17.5 43.5t-11 57t-27 62.5t-58 54.5q-68 41 -338 41h-80q-42 0 -51 -43l-86 -422q-6 -30 -6 -39q0 -27 39 -27q157 0 202 2l129 9q73 6 101 6q55 0 55 -31q0 -1 -16 -47q-14 -42 -36 -55t-81 -13q-4 0 -90 4q-15 1 -50 3t-48 2
q-43 2 -209 2q-27 0 -33 -27l-68 -338q-26 -136 -26 -160q0 -45 33.5 -61.5t107.5 -16.5q206 0 299 43q101 50 168 134q12 13 37.5 47t32.5 41q28 32 57 32z" />
    <glyph glyph-name="Edieresis" unicode="&#xcb;" horiz-adv-x="1263" 
d="M1061 401q53 0 53 -51q0 -34 -27 -92q-10 -25 -35 -98t-30 -88q-13 -34 -50 -59t-89 -25q-13 0 -121 6t-215 6h-535q-53 0 -53 39q-1 8 1.5 14.5t9 12t10 8t14.5 8t14 6.5q46 21 70 55q37 54 67 209l162 797q23 118 23 151q0 53 -45 76t-45 47q0 39 67 39h537
q130 0 237 8q120 9 133 9q64 0 64 -47q1 -16 -5.5 -54.5t-18.5 -103.5t-19 -119q-9 -74 -64 -74q-27 0 -39.5 16.5t-17.5 43.5t-11 57t-27 62.5t-58 54.5q-68 41 -338 41h-80q-42 0 -51 -43l-86 -422q-6 -30 -6 -39q0 -27 39 -27q157 0 202 2l129 9q73 6 101 6q55 0 55 -31
q0 -1 -16 -47q-14 -42 -36 -55t-81 -13q-4 0 -90 4q-15 1 -50 3t-48 2q-43 2 -209 2q-27 0 -33 -27l-68 -338q-26 -136 -26 -160q0 -45 33.5 -61.5t107.5 -16.5q206 0 299 43q101 50 168 134q12 13 37.5 47t32.5 41q28 32 57 32zM1038 1632q-24 -18 -84 -18q-47 0 -66.5 10
t-19.5 41q0 88 41 123q21 18 84 18q49 0 67.5 -11t18.5 -42q0 -35 -11.5 -72.5t-29.5 -48.5zM684 1632q-24 -18 -84 -18q-47 0 -66.5 10t-19.5 41q0 88 41 123q21 18 84 18q49 0 67.5 -11t18.5 -42q0 -35 -11.5 -72.5t-29.5 -48.5z" />
    <glyph glyph-name="Igrave" unicode="&#xcc;" horiz-adv-x="643" 
d="M543 1653l-260 184q-13 10 -13 16q0 17 23 17h180q48 0 72 -27l176 -180q12 -12 12 -18q0 -13 -16 -13h-105q-39 0 -69 21zM332 182q0 -36 15.5 -59t33.5 -31.5t33.5 -21t15.5 -29.5q0 -41 -61 -41h-361q-49 0 -49 39q0 5 1 9.5t2.5 7.5t5.5 6.5t6 5.5t7.5 5t8 4.5
t9.5 4.5t9 4q46 21 72 57q31 42 67 211l160 795q25 128 25 151q0 31 -14 50.5t-31 25.5t-31 17t-14 28q0 41 63 41h326q53 0 53 -37q4 -13 -9.5 -24t-39.5 -22t-29 -13q-32 -22 -49 -61q-22 -49 -41 -156l-160 -795q-24 -117 -24 -172z" />
    <glyph glyph-name="Iacute" unicode="&#xcd;" horiz-adv-x="643" 
d="M332 182q0 -36 15.5 -59t33.5 -31.5t33.5 -21t15.5 -29.5q0 -41 -61 -41h-361q-49 0 -49 39q0 5 1 9.5t2.5 7.5t5.5 6.5t6 5.5t7.5 5t8 4.5t9.5 4.5t9 4q46 21 72 57q31 42 67 211l160 795q25 128 25 151q0 31 -14 50.5t-31 25.5t-31 17t-14 28q0 41 63 41h326
q53 0 53 -37q4 -13 -9.5 -24t-39.5 -22t-29 -13q-32 -22 -49 -61q-22 -49 -41 -156l-160 -795q-24 -117 -24 -172zM772 1843l-340 -190q-37 -21 -76 -21h-110q-15 0 -15 10q0 8 15 17l246 184q34 27 81 27h189q20 0 20 -12q0 -8 -10 -15z" />
    <glyph glyph-name="Icircumflex" unicode="&#xce;" horiz-adv-x="643" 
d="M315 1612h-94q-12 0 -12 8q0 4 10 14l223 217q19 19 39 19h127q20 0 33 -19l135 -217q6 -9 6 -12q0 -10 -12 -10h-78q-17 0 -28 14l-115 141q-10 12 -16.5 12.5t-16.5 -10.5l-166 -145q-15 -12 -35 -12zM332 182q0 -36 15.5 -59t33.5 -31.5t33.5 -21t15.5 -29.5
q0 -41 -61 -41h-361q-49 0 -49 39q0 5 1 9.5t2.5 7.5t5.5 6.5t6 5.5t7.5 5t8 4.5t9.5 4.5t9 4q46 21 72 57q31 42 67 211l160 795q25 128 25 151q0 31 -14 50.5t-31 25.5t-31 17t-14 28q0 41 63 41h326q53 0 53 -37q4 -13 -9.5 -24t-39.5 -22t-29 -13q-32 -22 -49 -61
q-22 -49 -41 -156l-160 -795q-24 -117 -24 -172z" />
    <glyph glyph-name="Idieresis" unicode="&#xcf;" horiz-adv-x="643" 
d="M332 182q0 -36 15.5 -59t33.5 -31.5t33.5 -21t15.5 -29.5q0 -41 -61 -41h-361q-49 0 -49 39q0 5 1 9.5t2.5 7.5t5.5 6.5t6 5.5t7.5 5t8 4.5t9.5 4.5t9 4q46 21 72 57q31 42 67 211l160 795q25 128 25 151q0 31 -14 50.5t-31 25.5t-31 17t-14 28q0 41 63 41h326
q53 0 53 -37q4 -13 -9.5 -24t-39.5 -22t-29 -13q-32 -22 -49 -61q-22 -49 -41 -156l-160 -795q-24 -117 -24 -172zM756 1632q-24 -18 -84 -18q-47 0 -66.5 10t-19.5 41q0 88 41 123q21 18 84 18q49 0 67.5 -11t18.5 -42q0 -35 -11.5 -72.5t-29.5 -48.5zM401 1632
q-24 -18 -84 -18q-47 0 -66.5 10t-19.5 41q0 88 41 123q21 18 84 18q49 0 67.5 -11t18.5 -42q0 -35 -11.5 -72.5t-29.5 -48.5z" />
    <glyph glyph-name="Eth" unicode="&#xd0;" horiz-adv-x="1607" 
d="M1040 270q129 113 201 276.5t72 346.5q0 300 -211 405q-116 58 -383 58h-60q-44 0 -53 -43l-96 -479q-2 -6 -2 -15q0 -12 14 -12q64 0 140 6q68 8 104 8q74 0 74 -37q0 -4 -6 -41q-6 -36 -23.5 -49.5t-58.5 -13.5q-8 0 -98 4t-156 4q-18 0 -21 -16l-65 -326
q-31 -158 -31 -174q0 -39 30 -51t113 -12h21q310 0 495 161zM1364 1313q174 -137 174 -414q0 -161 -65.5 -325t-176.5 -281q-279 -293 -786 -293h-440q-54 0 -54 41q0 6 1.5 10.5t5.5 9t6.5 7.5t9.5 7t10.5 5.5t12.5 6t12 5.5q41 18 61 51q40 57 70 209l61 310q2 6 2 14
q0 12 -16 12q-37 0 -108 -5t-89 -5q-61 0 -61 33q0 8 5 26.5t5 20.5q6 33 22 46t52 13q7 0 80 -5t121 -5q17 0 20 18l66 324q24 123 24 151q0 49 -35 70q-20 9 -28.5 14t-17.5 15t-9 22q0 41 61 41h367q245 0 391 -35q149 -36 246 -114z" />
    <glyph glyph-name="Ntilde" unicode="&#xd1;" horiz-adv-x="1624" 
d="M1284 1462h328q61 0 61 -39q0 -36 -78 -61q-54 -22 -82 -70t-57 -164q-20 -78 -233 -1118q-6 -24 -29 -24h-80q-22 0 -33 20l-579 1133q-6 12 -10 12q-8 0 -11 -16q-125 -591 -151 -793q-11 -75 -11 -96q0 -109 80 -150q8 -5 23.5 -12t20.5 -11t10.5 -12t5.5 -20
q0 -41 -66 -41h-362q-62 0 -62 41q0 17 15 29q4 4 13.5 8.5t22 9.5t17.5 8q62 27 98 78.5t66 165.5q23 93 198 942q2 8 2 21q0 22 -53 57q-6 3 -22 10t-26.5 12t-21.5 12t-15 15t-1 16q0 37 53 37h207q49 0 64 -35l565 -1101q10 -17 14 -17q10 0 13 19l133 680
q28 149 28 227q0 44 -13 73t-31.5 41.5t-37.5 21.5t-32 20.5t-13 29.5q0 41 72 41zM690 1663l-26 8q-19 6 -19 19q0 8 2 12q64 178 201 178q57 0 170 -43t156 -43q59 0 100 72q9 12 18 12q5 0 11 -2l22 -6q23 -7 23 -17q0 -6 -2 -10q-61 -178 -199 -178q-68 0 -178 43
t-152 43q-58 0 -98 -76q-8 -14 -19 -14q-6 0 -10 2z" />
    <glyph glyph-name="Ograve" unicode="&#xd2;" horiz-adv-x="1669" 
d="M1081 1653l-260 184q-12 9 -12 16q0 17 22 17h181q47 0 71 -27l177 -180q12 -12 12 -18q0 -13 -17 -13h-104q-40 0 -70 21zM1350 885q0 224 -107 358q-105 135 -293 135q-266 0 -448 -237q-185 -241 -185 -555q0 -225 105 -363q104 -137 291 -137q272 0 454 238
q183 239 183 561zM987 1487q277 0 436 -166q160 -168 160 -428q0 -372 -270 -645q-268 -271 -633 -271q-277 0 -436 164q-158 169 -158 430q0 369 268 643q267 273 633 273z" />
    <glyph glyph-name="Oacute" unicode="&#xd3;" horiz-adv-x="1669" 
d="M1350 885q0 224 -107 358q-105 135 -293 135q-266 0 -448 -237q-185 -241 -185 -555q0 -225 105 -363q104 -137 291 -137q272 0 454 238q183 239 183 561zM987 1487q277 0 436 -166q160 -168 160 -428q0 -372 -270 -645q-268 -271 -633 -271q-277 0 -436 164
q-158 169 -158 430q0 369 268 643q267 273 633 273zM1286 1843l-340 -190q-37 -21 -76 -21h-110q-15 0 -15 10q0 8 15 17l246 184q34 27 81 27h189q20 0 20 -12q0 -8 -10 -15z" />
    <glyph glyph-name="Ocircumflex" unicode="&#xd4;" horiz-adv-x="1669" 
d="M840 1612h-95q-12 0 -12 8q0 4 10 14l224 217q19 19 39 19h127q19 0 32 -19l135 -217q7 -11 7 -12q0 -10 -13 -10h-77q-18 0 -29 14l-115 141q-10 12 -16.5 12.5t-16.5 -10.5l-166 -145q-15 -12 -34 -12zM1350 885q0 224 -107 358q-105 135 -293 135q-266 0 -448 -237
q-185 -241 -185 -555q0 -225 105 -363q104 -137 291 -137q272 0 454 238q183 239 183 561zM987 1487q277 0 436 -166q160 -168 160 -428q0 -372 -270 -645q-268 -271 -633 -271q-277 0 -436 164q-158 169 -158 430q0 369 268 643q267 273 633 273z" />
    <glyph glyph-name="Otilde" unicode="&#xd5;" horiz-adv-x="1669" 
d="M1350 885q0 224 -107 358q-105 135 -293 135q-266 0 -448 -237q-185 -241 -185 -555q0 -225 105 -363q104 -137 291 -137q272 0 454 238q183 239 183 561zM987 1487q277 0 436 -166q160 -168 160 -428q0 -372 -270 -645q-268 -271 -633 -271q-277 0 -436 164
q-158 169 -158 430q0 369 268 643q267 273 633 273zM729 1663l-27 8q-18 6 -18 19q0 8 2 12q64 178 201 178q57 0 170 -43t155 -43q60 0 101 72q9 12 18 12q4 0 10 -2l23 -6q22 -6 22 -17q0 -6 -2 -10q-61 -178 -198 -178q-68 0 -178 43t-152 43q-58 0 -98 -76
q-8 -14 -19 -14q-6 0 -10 2z" />
    <glyph glyph-name="Odieresis" unicode="&#xd6;" horiz-adv-x="1669" 
d="M1249 1632q-24 -18 -84 -18q-47 0 -66.5 10t-19.5 41q0 88 41 123q21 18 84 18q49 0 67.5 -11t18.5 -42q0 -35 -11.5 -72.5t-29.5 -48.5zM895 1632q-24 -18 -84 -18q-47 0 -66.5 10t-19.5 41q0 88 41 123q21 18 84 18q49 0 67.5 -11t18.5 -42q0 -35 -11.5 -72.5
t-29.5 -48.5zM1350 885q0 224 -107 358q-105 135 -293 135q-266 0 -448 -237q-185 -241 -185 -555q0 -225 105 -363q104 -137 291 -137q272 0 454 238q183 239 183 561zM987 1487q277 0 436 -166q160 -168 160 -428q0 -372 -270 -645q-268 -271 -633 -271q-277 0 -436 164
q-158 169 -158 430q0 369 268 643q267 273 633 273z" />
    <glyph glyph-name="multiply" unicode="&#xd7;" horiz-adv-x="1239" 
d="M197 1065l90 88l331 -334l334 334l90 -88l-333 -334l333 -334l-90 -88l-334 334l-331 -334l-90 88l333 334z" />
    <glyph glyph-name="Oslash" unicode="&#xd8;" horiz-adv-x="1705" 
d="M1622 1462h111q14 0 14 -10q0 -4 -6 -10l-223 -197q-7 -7 -7 -12q0 -6 2 -8q86 -148 86 -334q0 -373 -270 -643q-268 -271 -633 -271q-249 0 -420 154q-12 12 -24 0l-127 -113q-21 -18 -49 -18h-103q-14 0 -14 10q0 7 6 13l219 192q11 11 2 27q-82 140 -82 327
q0 239 117 447q120 211 328 340q207 131 455 131q250 0 421 -154q8 -8 13 -8q6 0 12 6l127 113q21 18 45 18zM362 395q3 -10 11 -10q4 0 12 8l897 791q8 8 8 14q0 1 -0.5 2.5l-1.5 4.5t-2 5q-108 170 -317 170q-183 0 -330 -118q-145 -115 -225 -291.5t-80 -366.5
q0 -97 28 -209zM731 86q180 0 330 117q146 115 225.5 290.5t79.5 368.5q0 90 -29 209q-3 13 -16 0l-899 -792q-8 -8 -8 -15q0 -6 2 -8q108 -170 315 -170z" />
    <glyph glyph-name="Ugrave" unicode="&#xd9;" horiz-adv-x="1511" 
d="M989 1653l-260 184q-12 9 -12 16q0 17 22 17h181q47 0 71 -27l176 -180q13 -13 13 -18q0 -13 -17 -13h-104q-40 0 -70 21zM1229 1462h327q62 0 62 -39q0 -14 -8 -24t-15.5 -14t-27 -11.5t-27.5 -11.5q-55 -25 -82 -72q-28 -48 -57 -162q-15 -52 -127 -591
q-30 -158 -86 -258q-83 -144 -228 -223t-335 -79q-211 0 -351 93q-135 94 -135 290q0 65 23 193l121 596q22 113 22 147q0 49 -33 72q-3 2 -13.5 7t-18 9t-16 10.5t-11.5 13.5t0 15q0 39 66 39h325q53 0 53 -37q4 -13 -9 -24t-39 -22t-29 -13q-33 -23 -50 -61
q-22 -49 -41 -156l-114 -574q-23 -118 -23 -174q0 -136 85.5 -210t238.5 -74q398 0 487 428q106 535 113 583q10 75 10 103q0 96 -74 137q-4 2 -15.5 7.5t-15.5 8t-10.5 8t-9 12t-2.5 15.5q0 43 70 43z" />
    <glyph glyph-name="Uacute" unicode="&#xda;" horiz-adv-x="1511" 
d="M1264 1843l-340 -190q-34 -21 -76 -21h-111q-14 0 -14 10q0 9 14 17l246 184q35 27 82 27h188q21 0 21 -12q0 -8 -10 -15zM1229 1462h327q62 0 62 -39q0 -14 -8 -24t-15.5 -14t-27 -11.5t-27.5 -11.5q-55 -25 -82 -72q-28 -48 -57 -162q-15 -52 -127 -591
q-30 -158 -86 -258q-83 -144 -228 -223t-335 -79q-211 0 -351 93q-135 94 -135 290q0 65 23 193l121 596q22 113 22 147q0 49 -33 72q-3 2 -13.5 7t-18 9t-16 10.5t-11.5 13.5t0 15q0 39 66 39h325q53 0 53 -37q4 -13 -9 -24t-39 -22t-29 -13q-33 -23 -50 -61
q-22 -49 -41 -156l-114 -574q-23 -118 -23 -174q0 -136 85.5 -210t238.5 -74q398 0 487 428q106 535 113 583q10 75 10 103q0 96 -74 137q-4 2 -15.5 7.5t-15.5 8t-10.5 8t-9 12t-2.5 15.5q0 43 70 43z" />
    <glyph glyph-name="Ucircumflex" unicode="&#xdb;" horiz-adv-x="1511" 
d="M762 1612h-94q-13 0 -13 8q0 3 11 14l223 217q19 19 39 19h127q19 0 32 -19l136 -217q6 -9 6 -12q0 -10 -12 -10h-78q-18 0 -29 14l-115 141q-10 12 -16 12.5t-16 -10.5l-166 -145q-15 -12 -35 -12zM1229 1462h327q62 0 62 -39q0 -14 -8 -24t-15.5 -14t-27 -11.5
t-27.5 -11.5q-55 -25 -82 -72q-28 -48 -57 -162q-15 -52 -127 -591q-30 -158 -86 -258q-83 -144 -228 -223t-335 -79q-211 0 -351 93q-135 94 -135 290q0 65 23 193l121 596q22 113 22 147q0 49 -33 72q-3 2 -13.5 7t-18 9t-16 10.5t-11.5 13.5t0 15q0 39 66 39h325
q53 0 53 -37q4 -13 -9 -24t-39 -22t-29 -13q-33 -23 -50 -61q-22 -49 -41 -156l-114 -574q-23 -118 -23 -174q0 -136 85.5 -210t238.5 -74q398 0 487 428q106 535 113 583q10 75 10 103q0 96 -74 137q-4 2 -15.5 7.5t-15.5 8t-10.5 8t-9 12t-2.5 15.5q0 43 70 43z" />
    <glyph glyph-name="Udieresis" unicode="&#xdc;" horiz-adv-x="1511" 
d="M1212 1632q-24 -18 -84 -18q-47 0 -66.5 10t-19.5 41q0 88 41 123q21 18 84 18q49 0 67.5 -11t18.5 -42q0 -35 -11.5 -72.5t-29.5 -48.5zM858 1632q-24 -18 -84 -18q-47 0 -66.5 10t-19.5 41q0 88 41 123q21 18 84 18q49 0 67.5 -11t18.5 -42q0 -35 -11.5 -72.5
t-29.5 -48.5zM1229 1462h327q62 0 62 -39q0 -14 -8 -24t-15.5 -14t-27 -11.5t-27.5 -11.5q-55 -25 -82 -72q-28 -48 -57 -162q-15 -52 -127 -591q-30 -158 -86 -258q-83 -144 -228 -223t-335 -79q-211 0 -351 93q-135 94 -135 290q0 65 23 193l121 596q22 113 22 147
q0 49 -33 72q-3 2 -13.5 7t-18 9t-16 10.5t-11.5 13.5t0 15q0 39 66 39h325q53 0 53 -37q4 -13 -9 -24t-39 -22t-29 -13q-33 -23 -50 -61q-22 -49 -41 -156l-114 -574q-23 -118 -23 -174q0 -136 85.5 -210t238.5 -74q398 0 487 428q106 535 113 583q10 75 10 103
q0 96 -74 137q-4 2 -15.5 7.5t-15.5 8t-10.5 8t-9 12t-2.5 15.5q0 43 70 43z" />
    <glyph glyph-name="Yacute" unicode="&#xdd;" horiz-adv-x="1351" 
d="M1145 1462h301q57 0 57 -35q0 -26 -49 -47q-48 -21 -102 -73q-60 -60 -144 -162l-465 -567q-7 -11 -10 -25l-41 -201q-22 -110 -22 -168q0 -28 10 -49.5t24.5 -33t29 -20.5t24.5 -18.5t10 -21.5q0 -41 -63 -41h-361q-47 0 -47 37q-2 31 49 49q41 20 70 57q31 45 67 209
l29 144q1 4 2 9l1.5 7.5t0.5 3.5q0 7 -6 25l-215 630q-48 136 -74 175q-7 10 -43.5 34.5t-36.5 42.5q0 39 66 39h323q48 0 48 -35q0 -16 -15.5 -27.5t-34 -18t-34 -26.5t-15.5 -50q0 -35 29 -127l166 -482q6 -18 12 -18q5 0 14 12l293 363q164 212 164 270q0 33 -37 57
q-35 24 -35 43q0 39 60 39zM1161 1843l-340 -190q-38 -21 -76 -21h-110q-14 0 -14 10q0 9 14 17l246 184q35 27 82 27h188q20 0 20 -12q0 -8 -10 -15z" />
    <glyph glyph-name="Thorn" unicode="&#xde;" horiz-adv-x="1257" 
d="M903 567q76 101 76 242q0 61 -23 115q-36 73 -113.5 104t-209.5 31h-94q-39 0 -45 -39l-115 -563q-2 -6 -2 -19q0 -22 26 -22h89q156 2 251.5 35t159.5 116zM1147 1010q55 -76 55 -191q0 -148 -84 -270q-170 -235 -622 -238h-121q-25 0 -31 -26q-10 -68 -10 -92
q0 -34 10.5 -57t25 -33.5t29 -19t25 -19t10.5 -25.5q0 -39 -65 -39h-357q-51 0 -51 39q0 17 18 29t49 30.5t52 42.5q36 46 70 217q22 105 159 791q23 118 23 151q0 39 -21 60q-8 8 -27 18t-30.5 20t-11.5 25q0 39 65 39h326q53 0 53 -37q4 -13 -9.5 -24t-39.5 -22t-29 -13
q-29 -17 -45 -49.5t-33 -110.5q-2 -6 -2 -18q0 -25 31 -25q246 0 383 -28q136 -28 205 -125z" />
    <glyph glyph-name="germandbls" unicode="&#xdf;" horiz-adv-x="2170" 
d="M1124 219v19q0 118 64 118q22 0 33 -14q10 -9 41.5 -53.5t42.5 -57.5q119 -143 288 -143q117 0 186.5 53.5t69.5 126.5q0 119 -207 168q-153 40 -210 65q-158 71 -166 212v16q0 137 131 238q132 102 329 102q159 0 267 -57q49 -24 65.5 -54.5t16.5 -91.5v-18
q0 -107 -60 -107q-36 0 -82 70q-111 156 -266 156q-77 0 -145 -41t-68 -119q0 -111 207 -160q164 -37 234 -72q148 -77 149 -229q0 -152 -135 -260q-136 -109 -373 -109q-111 0 -211 26t-145 65q-56 44 -56 151zM39 219v19q0 118 63 118q22 0 33 -14q10 -9 41.5 -53.5
t42.5 -57.5q119 -143 289 -143q117 0 186.5 53.5t69.5 126.5q0 119 -207 168q-151 40 -206 64q-159 70 -170 207q-1 11 -1 22q0 137 131 238q132 102 330 102q158 0 266 -57q49 -24 65.5 -54.5t16.5 -91.5v-18q0 -107 -59 -107q-36 0 -82 70q-111 156 -266 156
q-78 0 -146 -41q-67 -40 -67 -119q0 -112 206 -160q164 -37 234 -72q149 -76 149 -229q0 -152 -135 -260q-136 -109 -372 -109q-111 0 -211.5 26t-145.5 65q-55 43 -55 151z" />
    <glyph glyph-name="agrave" unicode="&#xe0;" horiz-adv-x="1247" 
d="M399 410h349q18 0 18 14q0 6 -2 12l-92 367q-3 11 -6 14.5t-6.5 1.5t-8.5 -10l-258 -377q-6 -9 -6 -14q0 -8 12 -8zM1063 106q6 -8 42 -32t36 -39q0 -35 -58 -35h-295q-45 0 -45 33q0 19 41 43q41 27 41 74q0 29 -26 139q-6 22 -31 22h-432q-26 0 -35 -18
q-82 -125 -82 -170q0 -29 33 -49q35 -21 35 -41q0 -33 -54 -33h-262q-51 0 -51 33q0 24 47 49q47 28 84 72q48 51 129 165l510 715q16 19 35 19h63q22 0 29 -23l197 -786q26 -106 49 -138zM803 1270l-260 184q-13 10 -13 16q0 17 23 17h180q48 0 72 -27l176 -180
q12 -12 12 -18q0 -13 -16 -13h-105q-39 0 -69 21z" />
    <glyph glyph-name="aacute" unicode="&#xe1;" horiz-adv-x="1247" 
d="M1051 1460l-340 -190q-34 -21 -76 -21h-111q-14 0 -14 11q0 8 14 16l246 184q35 27 82 27h188q21 0 21 -12q0 -8 -10 -15zM399 410h349q18 0 18 14q0 6 -2 12l-92 367q-3 11 -6 14.5t-6.5 1.5t-8.5 -10l-258 -377q-6 -9 -6 -14q0 -8 12 -8zM1063 106q6 -8 42 -32t36 -39
q0 -35 -58 -35h-295q-45 0 -45 33q0 19 41 43q41 27 41 74q0 29 -26 139q-6 22 -31 22h-432q-26 0 -35 -18q-82 -125 -82 -170q0 -29 33 -49q35 -21 35 -41q0 -33 -54 -33h-262q-51 0 -51 33q0 24 47 49q47 28 84 72q48 51 129 165l510 715q16 19 35 19h63q22 0 29 -23
l197 -786q26 -106 49 -138z" />
    <glyph glyph-name="acircumflex" unicode="&#xe2;" horiz-adv-x="1247" 
d="M399 410h349q18 0 18 14q0 6 -2 12l-92 367q-3 11 -6 14.5t-6.5 1.5t-8.5 -10l-258 -377q-6 -9 -6 -14q0 -8 12 -8zM1063 106q6 -8 42 -32t36 -39q0 -35 -58 -35h-295q-45 0 -45 33q0 19 41 43q41 27 41 74q0 29 -26 139q-6 22 -31 22h-432q-26 0 -35 -18
q-82 -125 -82 -170q0 -29 33 -49q35 -21 35 -41q0 -33 -54 -33h-262q-51 0 -51 33q0 24 47 49q47 28 84 72q48 51 129 165l510 715q16 19 35 19h63q22 0 29 -23l197 -786q26 -106 49 -138zM592 1229h-94q-13 0 -13 8q0 3 11 14l223 217q19 19 39 19h127q20 0 33 -19
l135 -217q6 -9 6 -12q0 -10 -12 -10h-78q-18 0 -29 14l-115 141q-10 12 -16 12.5t-16 -10.5l-166 -145q-15 -12 -35 -12z" />
    <glyph glyph-name="atilde" unicode="&#xe3;" horiz-adv-x="1247" 
d="M399 410h349q18 0 18 14q0 6 -2 12l-92 367q-3 11 -6 14.5t-6.5 1.5t-8.5 -10l-258 -377q-6 -9 -6 -14q0 -8 12 -8zM1063 106q6 -8 42 -32t36 -39q0 -35 -58 -35h-295q-45 0 -45 33q0 19 41 43q41 27 41 74q0 29 -26 139q-6 22 -31 22h-432q-26 0 -35 -18
q-82 -125 -82 -170q0 -29 33 -49q35 -21 35 -41q0 -33 -54 -33h-262q-51 0 -51 33q0 24 47 49q47 28 84 72q48 51 129 165l510 715q16 19 35 19h63q22 0 29 -23l197 -786q26 -106 49 -138zM483 1282l-26 8q-19 6 -19 19q0 8 2 12q64 178 201 178q57 0 170 -43t156 -43
q59 0 100 72q9 12 18 12q5 0 11 -2l22 -6q23 -7 23 -16q0 -7 -2 -11q-61 -178 -199 -178q-68 0 -178 43t-152 43q-58 0 -98 -76q-8 -14 -18 -14q-7 0 -11 2z" />
    <glyph glyph-name="adieresis" unicode="&#xe4;" horiz-adv-x="1247" 
d="M399 410h349q18 0 18 14q0 6 -2 12l-92 367q-3 11 -6 14.5t-6.5 1.5t-8.5 -10l-258 -377q-6 -9 -6 -14q0 -8 12 -8zM1063 106q6 -8 42 -32t36 -39q0 -35 -58 -35h-295q-45 0 -45 33q0 19 41 43q41 27 41 74q0 29 -26 139q-6 22 -31 22h-432q-26 0 -35 -18
q-82 -125 -82 -170q0 -29 33 -49q35 -21 35 -41q0 -33 -54 -33h-262q-51 0 -51 33q0 24 47 49q47 28 84 72q48 51 129 165l510 715q16 19 35 19h63q22 0 29 -23l197 -786q26 -106 49 -138zM1022 1296q-24 -18 -84 -18q-47 0 -66.5 10t-19.5 41q0 88 41 123q21 18 84 18
q49 0 67.5 -11t18.5 -42q0 -35 -11.5 -72.5t-29.5 -48.5zM668 1296q-24 -18 -84 -18q-47 0 -66.5 10t-19.5 41q0 88 41 123q21 18 84 18q49 0 67.5 -11t18.5 -42q0 -35 -11.5 -72.5t-29.5 -48.5z" />
    <glyph glyph-name="aring" unicode="&#xe5;" horiz-adv-x="1247" 
d="M399 410h349q18 0 18 14q0 6 -2 12l-92 367q-3 11 -6 14.5t-6.5 1.5t-8.5 -10l-258 -377q-6 -9 -6 -14q0 -8 12 -8zM1063 106q6 -8 42 -32t36 -39q0 -35 -58 -35h-295q-45 0 -45 33q0 19 41 43q41 27 41 74q0 29 -26 139q-6 22 -31 22h-432q-26 0 -35 -18
q-82 -125 -82 -170q0 -29 33 -49q35 -21 35 -41q0 -33 -54 -33h-262q-51 0 -51 33q0 24 47 49q47 28 84 72q48 51 129 165l510 715q16 19 35 19h63q22 0 29 -23l197 -786q26 -106 49 -138zM780 1239q43 0 74 31.5t31 75.5t-31 76t-74 32q-44 0 -75 -32t-31 -76t31 -75.5
t75 -31.5zM647 1217q-54 54 -54 129t54 129q55 55 132.5 55t131.5 -55q55 -54 55 -129t-55 -129q-54 -54 -131.5 -54t-132.5 54z" />
    <glyph glyph-name="ae" unicode="&#xe6;" horiz-adv-x="1802" 
d="M813 438l90 441q2 6 2 14t-6 8q-4 0 -12 -8l-428 -459q-6 -6 -6 -10q0 -8 14 -8h319q24 0 27 22zM1692 1061q77 0 77 -47q0 -11 -6.5 -49.5t-16.5 -92.5t-15 -90q-12 -73 -68 -73q-40 0 -55 49q-10 40 -19 61q-21 62 -69 88q-61 37 -252 37h-107q-44 0 -53 -43l-53 -266
q-2 -8 -2 -19q0 -26 39 -26q67 0 157 4l84 8q59 6 90 6q70 0 70 -33l-12 -36q-11 -36 -32.5 -49t-72.5 -13q-4 0 -82 4t-88 4q-41 2 -155 2q-30 0 -33 -28l-21 -103q-30 -147 -30 -184q0 -52 49 -63q39 -9 98 -9q63 0 127 11q103 15 156 53q58 41 131 123q63 69 96 69
q21 0 37 -14.5t16 -36.5q0 -35 -26 -86q-10 -18 -33 -78q-20 -59 -33 -82q-13 -29 -47.5 -52t-75.5 -23q-21 0 -112 8t-217 8h-469q-54 0 -54 37q0 28 47 49q46 21 72 53q30 42 53 148q2 6 2 14q0 16 -18 16h-387q-21 0 -39 -18q-75 -81 -100 -116.5t-25 -65.5
q0 -16 26.5 -41.5t26.5 -38.5q0 -37 -57 -37h-279q-51 0 -51 35q0 28 51 51q69 37 142 107q97 92 344 348q238 247 356 377q8 8 8 16q0 12 -26 24q-5 2 -17.5 7.5t-18 8.5t-13.5 8.5t-11.5 12.5t-3.5 15q0 37 53 37h590q112 0 226 6q104 8 131 8z" />
    <glyph glyph-name="ccedilla" unicode="&#xe7;" horiz-adv-x="1193" 
d="M594 80q167 0 299 176q5 7 21 29t22.5 29.5t19 20t23 17t22.5 4.5q46 0 46 -51q0 -47 -39 -151q-34 -88 -105 -123q-111 -54 -303 -54q-7 0 -29.5 1.5t-29.5 1.5q-47 -47 -47 -72q0 -18 28 -28t62 -15t62 -27.5t28 -62.5q0 -65 -76 -117q-74 -53 -178 -53
q-57 0 -102.5 15.5t-45.5 43.5q0 39 43 39q6 0 45 -9t56 -9q43 0 69.5 20t26.5 47q0 21 -22 35t-48.5 20.5t-48.5 21t-22 36.5q0 38 80 127q-174 37 -276.5 155t-102.5 289q0 267 209 449q211 184 516 184q219 0 301 -55q43 -27 43 -101q0 -47 -15 -108q-9 -35 -13.5 -49
t-16 -26.5t-31.5 -16.5q-25 0 -41 16q-9 13 -27.5 60t-23.5 57q-64 119 -223 119q-200 0 -332 -166q-131 -162 -131 -379q0 -146 82 -244q84 -96 225 -96z" />
    <glyph glyph-name="egrave" unicode="&#xe8;" horiz-adv-x="1191" 
d="M1081 1061q78 0 78 -47q0 -15 -39 -232q-12 -73 -63 -73q-47 0 -62 49q-11 46 -18 61q-22 63 -68 88q-61 37 -258 37h-108q-45 0 -54 -43l-53 -266q-2 -8 -2 -17q0 -28 39 -28q111 0 148 2q39 0 102 8t102 8q49 0 49 -30q0 -8 -12 -43q-12 -33 -33.5 -45.5t-68.5 -12.5
q-2 0 -88 4t-88 4q-35 2 -152 2q-28 0 -31 -26l-22 -105q-31 -152 -31 -184q0 -31 23 -51q16 -11 35 -15.5t31 -5t55 -0.5q38 0 139 11q71 12 123 36q51 26 80 52l86 88q63 69 94 69q21 0 36 -13.5t15 -35.5q0 -25 -27 -84q-7 -15 -26 -64t-27 -67q-45 -108 -135 -108
q-19 0 -115 8q-93 8 -221 8h-469q-53 0 -53 39q0 23 47 47q51 25 72 55q31 42 67 205l78 385q20 97 20 148q0 34 -14 55t-31 28t-31 19t-14 29q0 37 58 37h477q110 0 227 6q107 8 133 8zM750 1270l-261 184q-12 9 -12 16q0 17 23 17h180q48 0 72 -27l176 -180q12 -12 12 -18
q0 -13 -16 -13h-105q-39 0 -69 21z" />
    <glyph glyph-name="eacute" unicode="&#xe9;" horiz-adv-x="1191" 
d="M1081 1061q78 0 78 -47q0 -15 -39 -232q-12 -73 -63 -73q-47 0 -62 49q-11 46 -18 61q-22 63 -68 88q-61 37 -258 37h-108q-45 0 -54 -43l-53 -266q-2 -8 -2 -17q0 -28 39 -28q111 0 148 2q39 0 102 8t102 8q49 0 49 -30q0 -8 -12 -43q-12 -33 -33.5 -45.5t-68.5 -12.5
q-2 0 -88 4t-88 4q-35 2 -152 2q-28 0 -31 -26l-22 -105q-31 -152 -31 -184q0 -31 23 -51q16 -11 35 -15.5t31 -5t55 -0.5q38 0 139 11q71 12 123 36q51 26 80 52l86 88q63 69 94 69q21 0 36 -13.5t15 -35.5q0 -25 -27 -84q-7 -15 -26 -64t-27 -67q-45 -108 -135 -108
q-19 0 -115 8q-93 8 -221 8h-469q-53 0 -53 39q0 23 47 47q51 25 72 55q31 42 67 205l78 385q20 97 20 148q0 34 -14 55t-31 28t-31 19t-14 29q0 37 58 37h477q110 0 227 6q107 8 133 8zM1020 1460l-340 -190q-38 -21 -76 -21h-110q-15 0 -15 11q0 7 15 16l245 184
q34 27 82 27h189q20 0 20 -12q0 -8 -10 -15z" />
    <glyph glyph-name="ecircumflex" unicode="&#xea;" horiz-adv-x="1191" 
d="M1081 1061q78 0 78 -47q0 -15 -39 -232q-12 -73 -63 -73q-47 0 -62 49q-11 46 -18 61q-22 63 -68 88q-61 37 -258 37h-108q-45 0 -54 -43l-53 -266q-2 -8 -2 -17q0 -28 39 -28q111 0 148 2q39 0 102 8t102 8q49 0 49 -30q0 -8 -12 -43q-12 -33 -33.5 -45.5t-68.5 -12.5
q-2 0 -88 4t-88 4q-35 2 -152 2q-28 0 -31 -26l-22 -105q-31 -152 -31 -184q0 -31 23 -51q16 -11 35 -15.5t31 -5t55 -0.5q38 0 139 11q71 12 123 36q51 26 80 52l86 88q63 69 94 69q21 0 36 -13.5t15 -35.5q0 -25 -27 -84q-7 -15 -26 -64t-27 -67q-45 -108 -135 -108
q-19 0 -115 8q-93 8 -221 8h-469q-53 0 -53 39q0 23 47 47q51 25 72 55q31 42 67 205l78 385q20 97 20 148q0 34 -14 55t-31 28t-31 19t-14 29q0 37 58 37h477q110 0 227 6q107 8 133 8zM516 1229h-94q-12 0 -12 8q0 4 10 14l223 217q19 19 39 19h127q20 0 33 -19l135 -217
q6 -9 6 -12q0 -10 -12 -10h-78q-18 0 -29 14l-114 141q-10 12 -16.5 12.5t-16.5 -10.5l-166 -145q-15 -12 -35 -12z" />
    <glyph glyph-name="edieresis" unicode="&#xeb;" horiz-adv-x="1191" 
d="M965 1296q-24 -18 -84 -18q-47 0 -66.5 10t-19.5 41q0 88 41 123q21 18 84 18q49 0 67.5 -11t18.5 -42q0 -35 -11.5 -72.5t-29.5 -48.5zM610 1296q-24 -18 -84 -18q-47 0 -66.5 10t-19.5 41q0 88 41 123q21 18 84 18q49 0 67.5 -11t18.5 -42q0 -35 -11.5 -72.5
t-29.5 -48.5zM1081 1061q78 0 78 -47q0 -15 -39 -232q-12 -73 -63 -73q-47 0 -62 49q-11 46 -18 61q-22 63 -68 88q-61 37 -258 37h-108q-45 0 -54 -43l-53 -266q-2 -8 -2 -17q0 -28 39 -28q111 0 148 2q39 0 102 8t102 8q49 0 49 -30q0 -8 -12 -43q-12 -33 -33.5 -45.5
t-68.5 -12.5q-2 0 -88 4t-88 4q-35 2 -152 2q-28 0 -31 -26l-22 -105q-31 -152 -31 -184q0 -31 23 -51q16 -11 35 -15.5t31 -5t55 -0.5q38 0 139 11q71 12 123 36q51 26 80 52l86 88q63 69 94 69q21 0 36 -13.5t15 -35.5q0 -25 -27 -84q-7 -15 -26 -64t-27 -67
q-45 -108 -135 -108q-19 0 -115 8q-93 8 -221 8h-469q-53 0 -53 39q0 23 47 47q51 25 72 55q31 42 67 205l78 385q20 97 20 148q0 34 -14 55t-31 28t-31 19t-14 29q0 37 58 37h477q110 0 227 6q107 8 133 8z" />
    <glyph glyph-name="igrave" unicode="&#xec;" horiz-adv-x="614" 
d="M457 735l-78 -385q-25 -122 -25 -166q0 -38 14.5 -62t31.5 -32t31.5 -20.5t14.5 -28.5q0 -41 -61 -41h-340q-53 0 -53 39q0 24 47 45q46 21 72 57q32 46 67 205l78 385q20 97 20 148q0 35 -14 56.5t-31 27.5t-31 17.5t-14 29.5q0 37 58 37h323q56 0 56 -37
q0 -12 -6.5 -20.5t-14 -12.5t-23 -10.5t-22.5 -10.5q-37 -20 -56.5 -64t-43.5 -157zM473 1270l-260 184q-12 9 -12 16q0 17 22 17h180q48 0 72 -27l176 -180q13 -13 13 -18q0 -13 -17 -13h-104q-40 0 -70 21z" />
    <glyph glyph-name="iacute" unicode="&#xed;" horiz-adv-x="614" 
d="M457 735l-78 -385q-25 -122 -25 -166q0 -38 14.5 -62t31.5 -32t31.5 -20.5t14.5 -28.5q0 -41 -61 -41h-340q-53 0 -53 39q0 24 47 45q46 21 72 57q32 46 67 205l78 385q20 97 20 148q0 35 -14 56.5t-31 27.5t-31 17.5t-14 29.5q0 37 58 37h323q56 0 56 -37
q0 -12 -6.5 -20.5t-14 -12.5t-23 -10.5t-22.5 -10.5q-37 -20 -56.5 -64t-43.5 -157zM737 1460l-340 -190q-38 -21 -75 -21h-111q-14 0 -14 11q0 8 14 16l246 184q35 27 82 27h188q21 0 21 -12q0 -8 -11 -15z" />
    <glyph glyph-name="icircumflex" unicode="&#xee;" horiz-adv-x="614" 
d="M457 735l-78 -385q-25 -122 -25 -166q0 -38 14.5 -62t31.5 -32t31.5 -20.5t14.5 -28.5q0 -41 -61 -41h-340q-53 0 -53 39q0 24 47 45q46 21 72 57q32 46 67 205l78 385q20 97 20 148q0 35 -14 56.5t-31 27.5t-31 17.5t-14 29.5q0 37 58 37h323q56 0 56 -37
q0 -12 -6.5 -20.5t-14 -12.5t-23 -10.5t-22.5 -10.5q-37 -20 -56.5 -64t-43.5 -157zM266 1229h-94q-12 0 -12 8q0 4 10 14l223 217q19 19 39 19h127q20 0 33 -19l135 -217q6 -9 6 -12q0 -10 -12 -10h-78q-18 0 -29 14l-114 141q-10 12 -16.5 12.5t-16.5 -10.5l-166 -145
q-15 -12 -35 -12z" />
    <glyph glyph-name="idieresis" unicode="&#xef;" horiz-adv-x="614" 
d="M709 1296q-24 -18 -84 -18q-47 0 -66.5 10t-19.5 41q0 88 41 123q21 18 84 18q49 0 67.5 -11t18.5 -42q0 -35 -11.5 -72.5t-29.5 -48.5zM354 1296q-24 -18 -84 -18q-47 0 -66.5 10t-19.5 41q0 88 41 123q21 18 84 18q49 0 67.5 -11t18.5 -42q0 -35 -11.5 -72.5
t-29.5 -48.5zM457 735l-78 -385q-25 -122 -25 -166q0 -38 14.5 -62t31.5 -32t31.5 -20.5t14.5 -28.5q0 -41 -61 -41h-340q-53 0 -53 39q0 24 47 45q46 21 72 57q32 46 67 205l78 385q20 97 20 148q0 35 -14 56.5t-31 27.5t-31 17.5t-14 29.5q0 37 58 37h323q56 0 56 -37
q0 -12 -6.5 -20.5t-14 -12.5t-23 -10.5t-22.5 -10.5q-37 -20 -56.5 -64t-43.5 -157z" />
    <glyph glyph-name="eth" unicode="&#xf0;" horiz-adv-x="1359" 
d="M889 211q93 72 144.5 182.5t51.5 235.5q0 203 -159 274q-90 41 -355 41q-18 0 -24 -20l-64 -314q-2 -6 -2 -14q0 -10 13 -10q44 0 108 6t86 6q55 0 55 -33q0 -3 -6 -33q-6 -32 -20 -45.5t-45 -13.5q-8 0 -82 4t-113 4q-21 0 -24 -14l-39 -199q-21 -99 -21 -114
q0 -30 23 -40t86 -10q250 0 387 107zM1165 926q135 -105 135 -299q0 -230 -190 -420q-95 -95 -258.5 -151t-362.5 -56h-391q-55 0 -55 39q0 17 20.5 29.5t51.5 30t49 42.5q30 37 65 205l23 115l2 12q0 8 -12 8q-20 0 -77 -5t-73 -5q-47 0 -47 33q0 2 4 22l4 15q6 29 21 41
t47 12q6 0 58.5 -4t74.5 -4q24 0 27 16l26 129q21 102 21 150q0 30 -14 51t-30 29.5t-30 21t-14 27.5q0 37 55 37h344q211 0 332 -31q115 -29 194 -90z" />
    <glyph glyph-name="ntilde" unicode="&#xf1;" horiz-adv-x="1368" 
d="M993 1047h342q64 0 64 -41q0 -20 -18 -32t-49 -25.5t-48 -28.5q-64 -52 -104 -215q-40 -154 -150 -697q-3 -22 -31 -22h-69q-25 0 -41 22l-467 752q-7 12 -12 15.5t-8.5 0t-6.5 -15.5q-86 -401 -86 -518q0 -107 80 -148q22 -10 30 -14t17.5 -15t9.5 -26q0 -39 -59 -39
h-344q-61 0 -61 39q0 32 57 55q59 26 94 76q37 56 66 172q50 191 116 532q2 6 2 15q0 35 -63 61q-8 4 -22.5 9.5t-21.5 9t-16 9t-12.5 12.5t-3.5 16q0 41 60 41h192q46 0 66 -33l458 -740q10 -16 17 -16q9 0 12 18q86 442 86 529q0 48 -14 80.5t-33.5 47t-39.5 24t-34 20.5
t-14 29q0 41 59 41zM508 1282l-27 8q-18 6 -18 19q0 8 2 12q64 178 201 178q57 0 170 -43t155 -43q60 0 101 72q9 12 18 12q4 0 10 -2l23 -6q22 -6 22 -16q0 -7 -2 -11q-61 -178 -198 -178q-69 0 -179 43t-151 43q-58 0 -98 -76q-8 -14 -19 -14q-6 0 -10 2z" />
    <glyph glyph-name="ograve" unicode="&#xf2;" horiz-adv-x="1296" 
d="M291 432q0 -158 78 -253t209 -95q184 0 311 154q129 156 129 372q0 161 -78.5 258t-208.5 97q-175 0 -307 -150q-133 -148 -133 -383zM770 1069q218 0 342.5 -118t124.5 -312q0 -269 -205 -465q-203 -197 -495 -197q-215 0 -340 117.5t-125 311.5q0 271 207 466
q209 197 491 197zM788 1270l-260 184q-12 9 -12 16q0 17 23 17h180q48 0 72 -27l176 -180q12 -12 12 -18q0 -13 -16 -13h-105q-40 0 -70 21z" />
    <glyph glyph-name="oacute" unicode="&#xf3;" horiz-adv-x="1296" 
d="M1042 1460l-340 -190q-34 -21 -75 -21h-111q-14 0 -14 11q0 8 14 16l246 184q34 27 82 27h188q21 0 21 -12q0 -8 -11 -15zM291 432q0 -158 78 -253t209 -95q184 0 311 154q129 156 129 372q0 161 -78.5 258t-208.5 97q-175 0 -307 -150q-133 -148 -133 -383zM770 1069
q218 0 342.5 -118t124.5 -312q0 -269 -205 -465q-203 -197 -495 -197q-215 0 -340 117.5t-125 311.5q0 271 207 466q209 197 491 197z" />
    <glyph glyph-name="ocircumflex" unicode="&#xf4;" horiz-adv-x="1296" 
d="M291 432q0 -158 78 -253t209 -95q184 0 311 154q129 156 129 372q0 161 -78.5 258t-208.5 97q-175 0 -307 -150q-133 -148 -133 -383zM770 1069q218 0 342.5 -118t124.5 -312q0 -269 -205 -465q-203 -197 -495 -197q-215 0 -340 117.5t-125 311.5q0 271 207 466
q209 197 491 197zM563 1229h-94q-12 0 -12 8q0 4 10 14l223 217q19 19 39 19h127q20 0 33 -19l135 -217q6 -9 6 -12q0 -10 -12 -10h-78q-18 0 -29 14l-114 141q-10 12 -16.5 12.5t-16.5 -10.5l-166 -145q-15 -12 -35 -12z" />
    <glyph glyph-name="otilde" unicode="&#xf5;" horiz-adv-x="1296" 
d="M455 1282l-27 8q-18 6 -18 19q0 8 2 12q64 178 200 178q57 0 170 -43t156 -43q59 0 100 72q9 12 19 12q4 0 10 -2l23 -6q22 -6 22 -16q0 -7 -2 -11q-61 -178 -199 -178q-68 0 -178 43t-151 43q-59 0 -99 -76q-8 -14 -18 -14q-6 0 -10 2zM291 432q0 -158 78 -253t209 -95
q184 0 311 154q129 156 129 372q0 161 -78.5 258t-208.5 97q-175 0 -307 -150q-133 -148 -133 -383zM770 1069q218 0 342.5 -118t124.5 -312q0 -269 -205 -465q-203 -197 -495 -197q-215 0 -340 117.5t-125 311.5q0 271 207 466q209 197 491 197z" />
    <glyph glyph-name="odieresis" unicode="&#xf6;" horiz-adv-x="1296" 
d="M1004 1296q-24 -18 -84 -18q-47 0 -66.5 10t-19.5 41q0 89 40 123q21 18 84 18q49 0 67.5 -11t18.5 -42q0 -35 -11 -72.5t-29 -48.5zM649 1296q-24 -18 -84 -18q-47 0 -66.5 10t-19.5 41q0 88 41 123q21 18 84 18q49 0 67.5 -11t18.5 -42q0 -35 -11.5 -72.5t-29.5 -48.5z
M291 432q0 -158 78 -253t209 -95q184 0 311 154q129 156 129 372q0 161 -78.5 258t-208.5 97q-175 0 -307 -150q-133 -148 -133 -383zM770 1069q218 0 342.5 -118t124.5 -312q0 -269 -205 -465q-203 -197 -495 -197q-215 0 -340 117.5t-125 311.5q0 271 207 466
q209 197 491 197z" />
    <glyph glyph-name="divide" unicode="&#xf7;" horiz-adv-x="1462" 
d="M852 416q0 -50 -36 -85.5t-87 -35.5q-49 0 -85 35.5t-36 85.5q0 51 35.5 87t85.5 36q51 0 87 -36t36 -87zM729 928q-50 0 -85.5 35t-35.5 86t35.5 86.5t85.5 35.5q51 0 87 -35.5t36 -86.5t-36 -86t-87 -35zM197 696v70q0 22 22 22h1022q25 0 25 -22v-70q0 -22 -25 -22
h-1022q-22 0 -22 22z" />
    <glyph glyph-name="oslash" unicode="&#xf8;" horiz-adv-x="1355" 
d="M334 315q3 -12 8 -12q3 0 18 12l613 523q6 6 6 10l-4 8q-77 109 -219 109q-186 0 -314 -158q-127 -157 -127 -358q0 -53 19 -134zM1026 729q-3 14 -8 14t-19 -14l-608 -516q-14 -14 -2 -29q81 -100 211 -100q193 0 318 158q124 154 124 362q0 56 -16 125zM1243 1047h92
q15 0 15 -11q0 -4 -4 -8l-148 -125q-6 -6 -6 -12q0 -5 6 -14q64 -98 64 -236q0 -273 -205 -469q-204 -195 -492 -195q-186 0 -315 97q-5 5 -10.5 4.5t-16.5 -10.5l-57 -50q-24 -18 -49 -18h-94q-13 0 -13 8q0 4 6 10l144 123q13 13 0 33q-62 103 -62 232q0 268 205 464
q205 199 492 199q188 0 309 -92q18 -13 29 -2l61 53q22 19 49 19z" />
    <glyph glyph-name="ugrave" unicode="&#xf9;" horiz-adv-x="1339" 
d="M1016 1047h299q65 0 65 -39q0 -12 -6.5 -21.5t-13 -13t-21.5 -10t-20 -9.5q-55 -25 -87 -77t-58 -162q-6 -26 -13 -57t-15 -68.5t-13 -59.5q-50 -234 -107 -323q-140 -230 -461 -230q-191 0 -296 85t-105 262q0 90 26 217l39 190q21 102 21 152q0 32 -14 52t-30 27
t-30 18t-14 28q0 39 57 39h322q55 0 55 -37q0 -12 -6.5 -20.5t-13.5 -12.5t-24 -11.5t-24 -11.5q-36 -18 -54.5 -60t-43.5 -159l-35 -172q-30 -150 -30 -223q0 -113 69.5 -172t190.5 -59q170 0 258 92.5t133 292.5q49 215 49 323q0 54 -15 82.5t-49 50.5q-6 4 -20 11.5
t-20 11.5t-11.5 12.5t-5.5 20.5q0 41 72 41zM791 1270l-261 184q-12 9 -12 16q0 17 23 17h180q48 0 72 -27l176 -180q12 -12 12 -18q0 -13 -16 -13h-105q-39 0 -69 21z" />
    <glyph glyph-name="uacute" unicode="&#xfa;" horiz-adv-x="1339" 
d="M1071 1460l-340 -190q-35 -21 -76 -21h-110q-15 0 -15 11q0 7 15 16l246 184q35 27 81 27h189q20 0 20 -12q0 -8 -10 -15zM1016 1047h299q65 0 65 -39q0 -12 -6.5 -21.5t-13 -13t-21.5 -10t-20 -9.5q-55 -25 -87 -77t-58 -162q-6 -26 -13 -57t-15 -68.5t-13 -59.5
q-50 -234 -107 -323q-140 -230 -461 -230q-191 0 -296 85t-105 262q0 90 26 217l39 190q21 102 21 152q0 32 -14 52t-30 27t-30 18t-14 28q0 39 57 39h322q55 0 55 -37q0 -12 -6.5 -20.5t-13.5 -12.5t-24 -11.5t-24 -11.5q-36 -18 -54.5 -60t-43.5 -159l-35 -172
q-30 -150 -30 -223q0 -113 69.5 -172t190.5 -59q170 0 258 92.5t133 292.5q49 215 49 323q0 54 -15 82.5t-49 50.5q-6 4 -20 11.5t-20 11.5t-11.5 12.5t-5.5 20.5q0 41 72 41z" />
    <glyph glyph-name="ucircumflex" unicode="&#xfb;" horiz-adv-x="1339" 
d="M1016 1047h299q65 0 65 -39q0 -12 -6.5 -21.5t-13 -13t-21.5 -10t-20 -9.5q-55 -25 -87 -77t-58 -162q-6 -26 -13 -57t-15 -68.5t-13 -59.5q-50 -234 -107 -323q-140 -230 -461 -230q-191 0 -296 85t-105 262q0 90 26 217l39 190q21 102 21 152q0 32 -14 52t-30 27
t-30 18t-14 28q0 39 57 39h322q55 0 55 -37q0 -12 -6.5 -20.5t-13.5 -12.5t-24 -11.5t-24 -11.5q-36 -18 -54.5 -60t-43.5 -159l-35 -172q-30 -150 -30 -223q0 -113 69.5 -172t190.5 -59q170 0 258 92.5t133 292.5q49 215 49 323q0 54 -15 82.5t-49 50.5q-6 4 -20 11.5
t-20 11.5t-11.5 12.5t-5.5 20.5q0 41 72 41zM606 1229h-94q-12 0 -12 8q0 4 10 14l223 217q19 19 39 19h127q20 0 33 -19l135 -217q6 -9 6 -12q0 -10 -12 -10h-78q-18 0 -29 14l-114 141q-10 12 -16.5 12.5t-16.5 -10.5l-166 -145q-15 -12 -35 -12z" />
    <glyph glyph-name="udieresis" unicode="&#xfc;" horiz-adv-x="1339" 
d="M1077 1296q-24 -18 -84 -18q-47 0 -66.5 10t-19.5 41q0 88 41 123q21 18 84 18q49 0 67.5 -11t18.5 -42q0 -35 -11.5 -72.5t-29.5 -48.5zM723 1296q-24 -18 -84 -18q-47 0 -66.5 10t-19.5 41q0 88 41 123q21 18 84 18q49 0 67.5 -11t18.5 -42q0 -35 -11.5 -72.5
t-29.5 -48.5zM1016 1047h299q65 0 65 -39q0 -12 -6.5 -21.5t-13 -13t-21.5 -10t-20 -9.5q-55 -25 -87 -77t-58 -162q-6 -26 -13 -57t-15 -68.5t-13 -59.5q-50 -234 -107 -323q-140 -230 -461 -230q-191 0 -296 85t-105 262q0 90 26 217l39 190q21 102 21 152q0 32 -14 52
t-30 27t-30 18t-14 28q0 39 57 39h322q55 0 55 -37q0 -12 -6.5 -20.5t-13.5 -12.5t-24 -11.5t-24 -11.5q-36 -18 -54.5 -60t-43.5 -159l-35 -172q-30 -150 -30 -223q0 -113 69.5 -172t190.5 -59q170 0 258 92.5t133 292.5q49 215 49 323q0 54 -15 82.5t-49 50.5
q-6 4 -20 11.5t-20 11.5t-11.5 12.5t-5.5 20.5q0 41 72 41z" />
    <glyph glyph-name="yacute" unicode="&#xfd;" horiz-adv-x="1204" 
d="M1040 1460l-340 -190q-34 -21 -75 -21h-111q-14 0 -14 11q0 8 14 16l246 184q34 27 82 27h188q21 0 21 -12q0 -8 -11 -15zM938 1047h297q57 0 57 -37q0 -21 -15.5 -31t-55.5 -26.5t-74 -41.5q-79 -53 -160 -137l-311 -315q-16 -15 -19 -33l-16 -82q-23 -125 -23 -160
q0 -37 14.5 -60.5t32 -31.5t32 -21.5t14.5 -31.5q0 -39 -62 -39h-340q-53 0 -53 39q0 19 18 29t49 26.5t52 46.5q37 56 76 250q2 6 2 15q0 8 -7 22l-151 307q-63 128 -105 183q-17 24 -41 39t-36.5 25t-12.5 28q0 37 64 37h321q47 0 47 -33q0 -24 -43 -45t-43 -60
q0 -37 50 -137l110 -215q3 -10 10 -10q5 0 15 10l149 154q164 164 164 217q0 26 -33 43q-30 18 -30 39q0 37 57 37z" />
    <glyph glyph-name="thorn" unicode="&#xfe;" horiz-adv-x="1103" 
d="M770 422q64 67 64 160q0 111 -89 135q-72 22 -186 22h-80q-21 0 -24 -20l-74 -359q-2 -6 -2 -14q0 -14 16 -14h70q215 0 305 90zM993 741q56 -62 56 -149q0 -114 -74 -203q-137 -162 -510 -162h-86q-18 0 -21 -16l-2 -31q0 -36 14.5 -59t32 -31t32 -20.5t14.5 -30.5
q0 -39 -64 -39h-338q-53 0 -53 39q0 25 45 45q54 25 74 57q38 57 65 205l78 385q23 109 23 150t-23 61q-10 8 -30 21t-29 23t-9 24q0 37 58 37h321q58 0 58 -39q2 -7 -2 -14t-13 -12.5t-18 -10t-20.5 -10t-16.5 -7.5q-45 -23 -63 -88q-3 -9 -3 -12q0 -12 15 -12h71l173 -6
q69 -5 138 -29.5t107 -65.5z" />
    <glyph glyph-name="ydieresis" unicode="&#xff;" horiz-adv-x="1204" 
d="M979 1296q-24 -18 -84 -18q-47 0 -66.5 10t-19.5 41q0 88 41 123q21 18 84 18q49 0 67.5 -11t18.5 -42q0 -35 -11.5 -72.5t-29.5 -48.5zM625 1296q-24 -18 -84 -18q-47 0 -66.5 10t-19.5 41q0 88 41 123q21 18 84 18q49 0 67.5 -11t18.5 -42q0 -35 -11.5 -72.5
t-29.5 -48.5zM938 1047h297q57 0 57 -37q0 -21 -15.5 -31t-55.5 -26.5t-74 -41.5q-79 -53 -160 -137l-311 -315q-16 -15 -19 -33l-16 -82q-23 -125 -23 -160q0 -37 14.5 -60.5t32 -31.5t32 -21.5t14.5 -31.5q0 -39 -62 -39h-340q-53 0 -53 39q0 19 18 29t49 26.5t52 46.5
q37 56 76 250q2 6 2 15q0 8 -7 22l-151 307q-63 128 -105 183q-17 24 -41 39t-36.5 25t-12.5 28q0 37 64 37h321q47 0 47 -33q0 -24 -43 -45t-43 -60q0 -37 50 -137l110 -215q3 -10 10 -10q5 0 15 10l149 154q164 164 164 217q0 26 -33 43q-30 18 -30 39q0 37 57 37z" />
    <glyph glyph-name="dotlessi" unicode="&#x131;" horiz-adv-x="616" 
d="M457 735l-78 -385q-25 -122 -25 -166q0 -38 14.5 -62t31.5 -32t31.5 -20.5t14.5 -28.5q0 -41 -61 -41h-340q-53 0 -53 39q0 24 47 45q46 21 72 57q32 46 67 205l78 385q20 97 20 148q0 35 -14 56.5t-31 27.5t-31 17.5t-14 29.5q0 37 58 37h323q56 0 56 -37
q0 -12 -6.5 -20.5t-14 -12.5t-23 -10.5t-22.5 -10.5q-37 -20 -56.5 -64t-43.5 -157z" />
    <glyph glyph-name="Lslash" unicode="&#x141;" horiz-adv-x="1157" 
d="M1022 401q53 0 53 -51q0 -33 -20 -80q-28 -72 -41 -116q-24 -71 -42 -101.5t-50 -48.5q-37 -16 -80 -16q-12 0 -117 6q-102 6 -209 6h-479q-53 0 -53 37q0 6 1.5 11t2.5 8.5t5 7.5t6 5.5t8 5t7.5 4.5t9 4.5t9.5 4.5q48 25 69 55q38 56 68 209l57 279l-137 -49
q-3 -1 -6.5 -2t-5 -1.5t-2.5 -0.5q-13 0 -13 14l9 72q3 18 18 24l160 57l82 404q22 113 22 151q0 30 -14 49.5t-31 26t-31 18.5t-14 29q0 39 66 39h323q54 0 54 -37q3 -9 -2 -17t-15.5 -14.5t-21 -11t-23 -9.5t-16.5 -7q-31 -19 -49 -59q-19 -52 -41 -158q-28 -172 -66 -324
l186 68q3 1 6.5 2t5.5 1.5t3 0.5q10 0 10 -12l-8 -74q-3 -22 -19 -25l-206 -73l-70 -351q-33 -152 -33 -186q0 -42 35.5 -57t108.5 -15q180 0 278 64q46 33 69.5 55.5t63.5 71.5l51 65q33 41 68 41z" />
    <glyph glyph-name="lslash" unicode="&#x142;" horiz-adv-x="1118" 
d="M1004 356q19 0 35 -14.5t16 -34.5q0 -21 -25 -76l-31 -77q-20 -64 -32 -86q-15 -33 -50 -58.5t-79 -25.5q-20 0 -113 8t-221 8h-430q-54 0 -54 39q-3 15 17.5 28t53 32t48.5 42q35 53 78 267l-111 -50q-12 -4 -14 -4q-10 0 -10 8q0 9 2 15l14 69q3 16 21 27l123 55
q1 2 6 29t12.5 64t13.5 63l9 47q22 113 22 152q0 29 -14 49.5t-31 29t-31 21t-14 27.5q0 37 57 37h322q57 0 57 -39q2 -7 -1.5 -14t-13 -12.5t-18 -10t-20 -10t-16.5 -7.5q-36 -20 -56 -64t-43 -155q-20 -97 -20 -110l209 96q12 4 14 4q10 0 10 -10q0 -7 -2 -13l-16 -71
q-3 -14 -21 -25l-219 -100l-30 -150q-31 -152 -31 -184q0 -43 29.5 -57.5t101.5 -14.5q46 0 110 11q70 12 123 36q58 30 82 54l84 86q8 8 21.5 23t19 21t15.5 13.5t19.5 10t21.5 1.5z" />
    <glyph glyph-name="OE" unicode="&#x152;" horiz-adv-x="2080" 
d="M932 197l217 1075q2 8 2 16q0 88 -184 88q-192 0 -344 -119q-151 -117 -232.5 -297t-81.5 -385q0 -221 115 -354t301 -133q48 0 90 10t75.5 35.5t41.5 63.5zM2034 1479q61 0 61 -47q0 -20 -6 -54l-37 -223q-9 -74 -63 -74q-27 0 -40.5 16t-18 43t-10.5 56.5t-26 62
t-55 54.5q-67 43 -342 43h-80q-42 0 -51 -43l-90 -443q-2 -6 -2 -16q0 -29 37 -29q135 0 188 2q23 0 109 7q68 8 108 8q84 0 84 -35q0 -5 -14 -43q-17 -43 -40 -55.5t-83 -12.5q-15 0 -109 4q-19 1 -41.5 2t-37 2t-23.5 1q-41 2 -182 2q-27 0 -33 -27l-68 -336
q-26 -124 -26 -166t34 -58t107 -16q197 0 293 41q96 42 172 134q8 11 31 39.5t28 37.5q38 45 70 45q53 0 53 -51q0 -33 -20 -80q-25 -55 -43 -116q-24 -72 -41.5 -102t-48.5 -48q-37 -16 -80 -16q-11 0 -119 6t-215 6h-403q-20 0 -64 -8q-95 -15 -170 -15q-295 0 -467 181
t-172 448q0 222 117 422q122 206 327 330q210 127 453 127q71 0 154 -12q101 -11 121 -11h401q133 0 240 8q120 9 133 9z" />
    <glyph glyph-name="oe" unicode="&#x153;" horiz-adv-x="1839" 
d="M760 965q-184 0 -330 -152q-141 -150 -141 -391q0 -155 84 -248.5t223 -93.5q77 0 133 29t72 102l129 637l2 12l1.5 9t0.5 5q0 41 -53 68q-57 23 -121 23zM1731 1061q77 0 77 -47q0 -26 -20 -123q-19 -116 -26 -137q-19 -50 -58 -45q-42 0 -57 45q-9 37 -19 63
q-21 64 -69 90q-61 37 -259 37h-108q-42 0 -51 -43l-54 -266q-2 -8 -2 -19q0 -26 39 -26q64 0 142 4q6 1 86 8q71 6 102 6q72 0 72 -33q0 -7 -13 -36q-18 -38 -36.5 -50t-61.5 -12q-12 0 -90 4t-86 4q-41 2 -156 2q-29 0 -32 -26l-33 -164q-19 -93 -19 -121
q0 -45 33.5 -60.5t112.5 -15.5q41 0 135 11q103 15 156 53q58 39 133 123q63 69 96 69q19 0 35 -14.5t16 -34.5q0 -30 -20 -69q-12 -22 -35 -82q-25 -66 -35 -86q-15 -34 -49.5 -60t-75.5 -26q-30 0 -121 8t-217 8h-309q-9 0 -97.5 -11.5t-146.5 -11.5q-248 0 -393 127
t-145 334q0 257 204 443q206 188 527 188q52 0 141 -11t107 -11h321q110 0 227 6q104 8 132 8z" />
    <glyph glyph-name="Scaron" unicode="&#x160;" horiz-adv-x="1173" 
d="M956 1870h95q12 0 12 -8q0 -5 -10 -15l-224 -217q-18 -18 -38 -18h-127q-21 0 -33 18l-135 217q-7 11 -7 13q0 10 13 10h78q16 0 28 -15l115 -141q10 -12 16.5 -12.5t16.5 10.5l166 146q15 12 34 12zM1083 1395q45 -45 45 -144q0 -9 -4 -63q-15 -117 -67 -117
q-30 0 -53 29q-4 8 -19 42.5t-18 41.5q-88 186 -267 186q-124 0 -200 -76q-78 -78 -78 -172q0 -150 213 -250q153 -67 214 -106q175 -111 181 -285v-20q0 -197 -174 -340q-176 -144 -436 -144q-52 0 -108 7.5t-115.5 26t-105.5 46t-75.5 70.5t-29.5 96q0 17 6 66t6 61
q3 101 65 101q20 0 35 -11.5t21 -29.5q5 -9 22 -51.5t25 -59.5q99 -203 321 -203q135 0 242 82q109 83 109 205q0 152 -215 250q-149 67 -204 101q-174 108 -189 270q-1 18 -1 38q0 103 57.5 196t155.5 155q149 94 336 94q97 0 181.5 -26.5t123.5 -65.5z" />
    <glyph glyph-name="scaron" unicode="&#x161;" horiz-adv-x="1085" 
d="M39 219v19q0 118 63 118q22 0 33 -14q10 -9 41.5 -53.5t42.5 -57.5q119 -143 289 -143q117 0 186.5 53.5t69.5 126.5q0 119 -207 168q-151 40 -206 64q-159 70 -170 207q-1 11 -1 22q0 137 131 238q132 102 330 102q158 0 266 -57q49 -24 65.5 -54.5t16.5 -91.5v-18
q0 -107 -59 -107q-36 0 -82 70q-111 156 -266 156q-78 0 -146 -41q-67 -40 -67 -119q0 -112 206 -160q164 -37 234 -72q149 -76 149 -229q0 -152 -135 -260q-136 -109 -372 -109q-111 0 -211.5 26t-145.5 65q-55 43 -55 151zM860 1487h94q13 0 13 -8q0 -4 -11 -15l-223 -217
q-18 -18 -39 -18h-127q-20 0 -32 18l-136 217q-6 9 -6 13q0 10 13 10h77q18 0 29 -14l115 -142q10 -12 16 -12.5t16 10.5l166 146q15 12 35 12z" />
    <glyph glyph-name="Ydieresis" unicode="&#x178;" horiz-adv-x="1351" 
d="M1145 1462h301q57 0 57 -35q0 -26 -49 -47q-48 -21 -102 -73q-60 -60 -144 -162l-465 -567q-7 -11 -10 -25l-41 -201q-22 -110 -22 -168q0 -28 10 -49.5t24.5 -33t29 -20.5t24.5 -18.5t10 -21.5q0 -41 -63 -41h-361q-47 0 -47 37q-2 31 49 49q41 20 70 57q31 45 67 209
l29 144q1 4 2 9l1.5 7.5t0.5 3.5q0 7 -6 25l-215 630q-48 136 -74 175q-7 10 -43.5 34.5t-36.5 42.5q0 39 66 39h323q48 0 48 -35q0 -16 -15.5 -27.5t-34 -18t-34 -26.5t-15.5 -50q0 -35 29 -127l166 -482q6 -18 12 -18q5 0 14 12l293 363q164 212 164 270q0 33 -37 57
q-35 24 -35 43q0 39 60 39zM1104 1632q-24 -18 -84 -18q-47 0 -66.5 10t-19.5 41q0 88 41 123q21 18 84 18q49 0 67.5 -11t18.5 -42q0 -35 -11.5 -72.5t-29.5 -48.5zM750 1632q-24 -18 -84 -18q-47 0 -66.5 10t-19.5 41q0 88 41 123q21 18 84 18q49 0 67.5 -11t18.5 -42
q0 -35 -11.5 -72.5t-29.5 -48.5z" />
    <glyph glyph-name="Zcaron" unicode="&#x17d;" horiz-adv-x="1292" 
d="M1022 1870h94q12 0 12 -8q0 -5 -10 -15l-223 -217q-18 -18 -39 -18h-127q-21 0 -33 18l-135 217q-6 9 -6 13q0 10 12 10h78q17 0 29 -15l114 -141q10 -12 16.5 -12.5t16.5 10.5l166 146q15 12 35 12zM1102 401q20 0 35.5 -13t15.5 -32q0 -29 -33 -96q-19 -41 -63 -154
q-25 -57 -58 -89.5t-84 -32.5q-26 0 -122 8t-224 8h-561q-43 0 -43 33q0 18 15 59q5 14 24 39l1018 1198q14 14 14 21q0 8 -12 8h-127q-181 0 -279 -10q-91 -9 -143 -39q-35 -18 -69 -64l-25 -33q-5 -7 -23.5 -38t-21.5 -35q-38 -60 -72 -60q-55 0 -55 51q0 23 14 72
q2 8 7 27.5t10.5 40.5t9.5 43q15 75 24 104q15 60 95 60q13 0 127 -9q117 -6 231 -6h569q31 0 31 -22q0 -29 -8 -60q-3 -18 -29 -47l-1022 -1200q-12 -15 -12 -18q0 -9 10 -9q311 0 412 11q110 15 176 61q75 53 160 162q49 61 88 61z" />
    <glyph glyph-name="zcaron" unicode="&#x17e;" horiz-adv-x="1218" 
d="M1047 356q21 0 37 -13.5t16 -33.5q0 -27 -25 -82q-8 -17 -28.5 -69.5t-28.5 -69.5q-46 -104 -135 -104q-26 0 -117 8t-219 8h-492q-43 0 -43 31l4 20l13 39q10 27 24 41l832 795q6 6 6 10q0 8 -12 8h-185q-178 0 -252 -41q-29 -14 -80 -65q-6 -7 -18 -23.5t-22.5 -32.5
t-12.5 -18q-39 -57 -69 -57q-54 0 -54 53q0 20 19 98l12 64q5 22 23 82q18 57 94 57q26 0 127 -8q114 -6 225 -6h481q39 0 39 -29q0 -8 -2 -14l-8 -31q-10 -30 -31 -51l-835 -799q-8 -8 -8 -12q0 -9 10 -9q200 0 286 9q119 9 189 49q68 39 149 129q61 67 91 67zM961 1487h94
q12 0 12 -8q0 -5 -10 -15l-223 -217q-18 -18 -39 -18h-127q-21 0 -33 18l-135 217q-6 9 -6 13q0 10 12 10h78q17 0 28 -14l115 -142q10 -12 16.5 -12.5t16.5 10.5l166 146q15 12 35 12z" />
    <glyph glyph-name="florin" unicode="&#x192;" horiz-adv-x="1169" 
d="M1004 1530q131 0 131 -105q0 -65 -48 -65q-20 0 -53 33q-28 32 -67 32t-68.5 -38t-58.5 -107q-20 -58 -29 -94l-25 -96l-20 -105q-2 -6 -2 -14q0 -10 12 -10h158q27 0 27 -21q0 -7 -3 -16l-8 -43q-7 -23 -30 -23h-162q-16 0 -19 -14l-47 -277q-67 -391 -127 -569
q-58 -170 -147 -270q-108 -123 -254 -123q-123 0 -129 84q0 86 47 86q24 0 53 -33q35 -35 64 -35q88 0 137 172q47 153 133 637q21 133 59 320l2 12q0 10 -12 10h-153q-27 0 -27 23q0 8 2 14l10 43q7 23 31 23h160q15 0 18 16q77 299 193 430q108 123 252 123z" />
    <glyph glyph-name="circumflex" unicode="&#x2c6;" horiz-adv-x="1064" 
d="M367 1229h-95q-12 0 -12 8q0 4 10 14l224 217q19 19 38 19h127q20 0 33 -19l135 -217q7 -11 7 -12q0 -10 -13 -10h-78q-17 0 -28 14l-115 141q-10 12 -16.5 12.5t-16.5 -10.5l-166 -145q-15 -12 -34 -12z" />
    <glyph glyph-name="caron" unicode="&#x2c7;" horiz-adv-x="1064" 
d="M1034 1487h94q13 0 13 -8q0 -4 -11 -15l-223 -217q-18 -18 -39 -18h-127q-20 0 -32 18l-136 217q-6 9 -6 13q0 10 13 10h77q18 0 29 -14l115 -142q10 -12 16.5 -12.5t16.5 10.5l165 146q15 12 35 12z" />
    <glyph glyph-name="breve" unicode="&#x2d8;" horiz-adv-x="927" 
d="M610 1229q-102 0 -164.5 52.5t-62.5 135.5q0 70 45 70q26 0 35 -37q30 -113 153 -113q115 0 185 119q19 31 39 31q34 0 34 -39q0 -68 -75 -143q-73 -76 -189 -76z" />
    <glyph glyph-name="dotaccent" unicode="&#x2d9;" horiz-adv-x="684" 
d="M406 1296q-24 -18 -84 -18q-47 0 -66.5 10t-19.5 41q0 89 40 123q21 18 84 18q49 0 67.5 -11t18.5 -42q0 -35 -11 -72.5t-29 -48.5z" />
    <glyph glyph-name="ring" unicode="&#x2da;" horiz-adv-x="856" 
d="M428 1239q43 0 73.5 31.5t30.5 75.5t-30.5 76t-73.5 32q-44 0 -75 -32t-31 -76t31 -75.5t75 -31.5zM295 1217q-54 54 -54 129t54 129q55 55 132.5 55t131.5 -55q55 -54 55 -129t-55 -129q-54 -54 -131 -54t-133 54z" />
    <glyph glyph-name="ogonek" unicode="&#x2db;" horiz-adv-x="911" 
d="M643 -252q19 0 19 -18q0 -39 -70 -82t-156 -43q-77 0 -128.5 41.5t-51.5 113.5q0 116 135 242h82q-53 -109 -53 -172q0 -54 30.5 -82.5t79.5 -28.5q29 0 71 15z" />
    <glyph glyph-name="tilde" unicode="&#x2dc;" horiz-adv-x="1208" 
d="M297 1282l-27 8q-18 6 -18 19q0 8 2 12q64 178 201 178q57 0 170 -43t155 -43q60 0 101 72q9 12 18 12q4 0 10 -2l23 -6q22 -6 22 -16q0 -7 -2 -11q-61 -178 -198 -178q-69 0 -179 43t-151 43q-58 0 -98 -76q-8 -14 -19 -14q-6 0 -10 2z" />
    <glyph glyph-name="hungarumlaut" unicode="&#x2dd;" horiz-adv-x="1241" 
d="M782 1466q36 19 92 19q107 0 107 -33q0 -30 -150 -121q-152 -94 -225 -94q-47 0 -47 20q0 31 88 107q92 83 135 102zM397 1466q36 19 92 19q107 0 107 -33q0 -30 -150 -121q-152 -94 -225 -94q-47 0 -47 20q0 31 88 107q92 83 135 102z" />
    <glyph glyph-name="pi" unicode="&#x3c0;" horiz-adv-x="1300" 
d="M1247 1157q27 0 27 -24q0 -10 -17 -56q-4 -11 -11 -31t-15 -43t-10 -30q-19 -43 -54 -64q-41 -24 -190 -24q-8 0 -12 -11q-111 -344 -111 -552q0 -166 78 -166q32 0 59 30q29 33 47 33q29 0 29 -31q0 -57 -72 -135q-70 -76 -161 -76q-73 0 -116.5 59t-43.5 177
q0 227 172 659q2 4 2 11q0 8 -12 8q-205 10 -281 10q-7 0 -10 -10q-39 -220 -109 -453q-42 -140 -103.5 -255t-127.5 -171q-41 -35 -74 -35q-30 0 -60 31t-30 58q0 22 14 30q8 6 24 11t32 9l16 3q81 31 176 280q96 257 139 486l2 10q0 6 -14 6q-60 0 -110 -12t-76 -27
t-47 -27t-29 -12q-27 0 -27 27q0 14 15 41q70 112 137 156q55 38 164 38q59 0 215 -8t303 -8q93 0 142.5 12.5t86.5 48.5q27 27 43 27z" />
    <glyph glyph-name="endash" unicode="&#x2013;" horiz-adv-x="1542" 
d="M109 512l22 106q3 23 27 23h1222q23 0 23 -18q0 -9 -2 -15l-23 -106q-3 -23 -26 -23h-1225q-21 0 -21 19q0 5 3 14z" />
    <glyph glyph-name="emdash" unicode="&#x2014;" horiz-adv-x="2127" 
d="M109 512l22 106q3 23 27 23h1808q23 0 23 -18q0 -9 -2 -15l-23 -106q-3 -23 -27 -23h-1810q-21 0 -21 19q0 5 3 14z" />
    <glyph glyph-name="quoteleft" unicode="&#x2018;" horiz-adv-x="544" 
d="M227 944q-43 70 -43 133q0 148 164 301q118 109 193 109q19 0 33 -13t14 -30t-13 -27l-43 -24q-31 -16 -77 -56q-64 -58 -64 -120q0 -41 53 -115q50 -65 50 -109q0 -40 -64 -86q-62 -47 -104 -47q-46 0 -99 84z" />
    <glyph glyph-name="quoteright" unicode="&#x2019;" horiz-adv-x="618" 
d="M526 1403q43 -70 43 -133q0 -148 -163 -301q-118 -109 -193 -109q-30 0 -42.5 27.5t7.5 42.5l43 24q33 17 78 56q63 57 63 120q0 41 -53 115q-49 64 -49 109q0 39 62 86q65 47 106 47q45 0 98 -84z" />
    <glyph glyph-name="quotesinglbase" unicode="&#x201a;" horiz-adv-x="591" 
d="M375 211q43 -70 43 -133q0 -148 -164 -301q-118 -109 -193 -109q-19 0 -33 13t-14 30t13 27l43 24q31 16 77 56q64 58 64 121q0 40 -53 114q-49 64 -49 109q0 40 61 86q65 47 106 47q46 0 99 -84z" />
    <glyph glyph-name="quotedblleft" unicode="&#x201c;" horiz-adv-x="993" 
d="M676 944q-43 70 -43 133q0 148 164 301q118 109 192 109q19 0 33 -13t14 -30q0 -18 -12 -27l-45 -24q-32 -18 -76 -56q-63 -57 -63 -120q0 -41 53 -115q49 -64 49 -109q0 -41 -63 -86q-62 -47 -105 -47q-45 0 -98 84zM227 944q-43 70 -43 133q0 148 164 301
q118 109 193 109q19 0 33 -13t14 -30t-13 -27l-43 -24q-31 -16 -77 -56q-64 -58 -64 -120q0 -41 53 -115q50 -65 50 -109q0 -40 -64 -86q-62 -47 -104 -47q-46 0 -99 84z" />
    <glyph glyph-name="quotedblright" unicode="&#x201d;" horiz-adv-x="1067" 
d="M975 1403q43 -70 43 -133q0 -148 -164 -301q-118 -109 -192 -109q-30 0 -42.5 27.5t7.5 42.5l45 24q32 18 76 56q63 57 63 120q0 41 -53 115q-49 64 -49 109q0 40 61 86q65 47 107 47q45 0 98 -84zM526 1403q43 -70 43 -133q0 -148 -163 -301q-118 -109 -193 -109
q-30 0 -42.5 27.5t7.5 42.5l43 24q33 17 78 56q63 57 63 120q0 41 -53 115q-49 64 -49 109q0 39 62 86q65 47 106 47q45 0 98 -84z" />
    <glyph glyph-name="quotedblbase" unicode="&#x201e;" horiz-adv-x="1040" 
d="M823 211q43 -70 43 -133q0 -148 -164 -301q-118 -109 -192 -109q-19 0 -33 13t-14 30q0 18 12 27l45 24q32 18 76 56q63 57 63 121q0 40 -53 114q-49 64 -49 109q0 40 61 86q65 47 107 47q45 0 98 -84zM375 211q43 -70 43 -133q0 -148 -164 -301q-118 -109 -193 -109
q-19 0 -33 13t-14 30t13 27l43 24q31 16 77 56q64 58 64 121q0 40 -53 114q-49 64 -49 109q0 40 61 86q65 47 106 47q46 0 99 -84z" />
    <glyph glyph-name="dagger" unicode="&#x2020;" horiz-adv-x="1001" 
d="M864 1239q27 0 44.5 -14.5t17.5 -38.5q0 -9 -7.5 -36t-7.5 -30q-9 -114 -82 -114q-43 0 -112 34q-70 37 -109 37q-26 0 -26 -43q0 -47 14 -104q14 -55 14 -88q0 -52 -39 -170q-88 -266 -133 -441q-8 -26 -20.5 -76.5t-18.5 -68.5q-23 -86 -75 -86q-43 0 -43 63q0 15 9 78
t11 90q33 251 45 441q9 131 37 186q6 13 36.5 60.5t53.5 89t19 55.5q0 14 -19 14q-40 0 -121 -37q-81 -34 -123 -34q-22 0 -37.5 14t-15.5 39q0 13 6.5 37t7.5 32q12 68 25 84q24 27 64 27q38 0 108 -37q72 -35 105 -35q26 0 26 40t-13 101.5t-13 80.5q0 98 94 98h78
q65 0 65 -55q0 -43 -59 -132q-60 -91 -60 -118q0 -15 17 -15q38 0 116 35q78 37 121 37z" />
    <glyph glyph-name="daggerdbl" unicode="&#x2021;" horiz-adv-x="1083" 
d="M694 1169q41 0 119 35t117 35q61 0 61 -55q0 -8 -7 -36.5t-7 -35.5q-3 -106 -82 -106q-38 0 -107 34q-72 35 -112 35q-29 0 -29 -41q0 -28 10 -133q11 -115 11 -133q0 -46 -74 -182q-72 -138 -72 -162q0 -14 17 -14q40 0 118 34q78 37 121 37q60 0 60 -51q0 -10 -7.5 -39
t-7.5 -33q-9 -110 -82 -110q-30 0 -108 35q-72 34 -113 34q-26 0 -26 -53q0 -39 14 -94t14 -82q0 -88 -90 -88q-41 3 -80 0q-67 0 -67 55q0 39 59 125q59 89 59 123q0 14 -18 14q-44 0 -119 -34q-78 -35 -123 -35q-55 0 -55 51q0 8 14 68q0 2 3.5 25t9 40.5t14.5 22.5
q21 24 57 24q37 0 109 -35q65 -32 111 -32q26 0 26 37q0 35 -10 133q-10 102 -10 133q0 43 73 186q74 145 74 162q0 12 -18 12q-42 0 -123 -35q-78 -34 -121 -34q-55 0 -55 51q0 13 6 37q12 48 12 51q6 43 23 67q22 25 59 25q35 0 107 -35q67 -33 110 -33q17 -3 23 13
t2.5 44t-9.5 57.5t-12 60.5t-6 47q0 96 92 96h84q62 0 62 -53q0 -43 -60 -134q-59 -89 -59 -116q0 -15 18 -15z" />
    <glyph glyph-name="bullet" unicode="&#x2022;" horiz-adv-x="763" 
d="M354 354q-53 0 -131 90t-78 150q0 57 103 143q104 88 162 88q53 0 131 -90q77 -89 77 -149q0 -58 -102 -146q-103 -86 -162 -86z" />
    <glyph glyph-name="ellipsis" unicode="&#x2026;" horiz-adv-x="1564" 
d="M188 -23q-35 0 -88 62q-51 60 -51 100q0 41 70 99q71 59 110 59q34 0 86 -61q54 -63 54 -103q0 -38 -72 -98q-70 -58 -109 -58zM702 -23q-35 0 -88 62q-51 60 -51 100q0 41 70 99q71 59 110 59q34 0 86 -61q54 -63 54 -103q0 -38 -72 -98q-70 -58 -109 -58zM1210 -23
q-35 0 -88 62q-51 60 -51 100q0 41 70 99q71 59 110 59q34 0 86 -61q54 -63 54 -103q0 -38 -72 -98q-70 -58 -109 -58z" />
    <glyph glyph-name="perthousand" unicode="&#x2030;" horiz-adv-x="2510" 
d="M332 0l1048 1462h131l-1048 -1462h-131zM657 1223q0 82 -27.5 130t-76.5 48q-75 0 -131 -86q-96 -147 -96 -344q0 -86 26.5 -135.5t75.5 -49.5q77 0 133 86q96 152 96 351zM412 700q-130 0 -198.5 76t-68.5 207q0 202 129 352q134 152 297 152q126 0 195.5 -77.5
t69.5 -209.5q0 -203 -131 -352q-133 -148 -293 -148zM1518 500q0 82 -28 130t-77 48q-75 0 -131 -86q-96 -147 -96 -344q0 -86 26.5 -135.5t75.5 -49.5q77 0 133 87q97 153 97 350zM1272 -23q-130 0 -198 76t-68 207q0 202 129 352q134 152 297 152q126 0 195 -77.5
t69 -209.5q0 -203 -131 -352q-133 -148 -293 -148zM2292 500q0 82 -28 130t-77 48q-75 0 -131 -86q-96 -147 -96 -344q0 -86 26.5 -135.5t75.5 -49.5q77 0 133 87q97 153 97 350zM2046 -23q-130 0 -198 76t-68 207q0 202 129 352q134 152 297 152q126 0 195 -77.5t69 -209.5
q0 -203 -131 -352q-133 -148 -293 -148z" />
    <glyph glyph-name="guilsinglleft" unicode="&#x2039;" horiz-adv-x="831" 
d="M555 211l-18 -96q-4 -11 -11 -11q-5 0 -14 9l-412 444q-12 15 -12 23q0 9 14 20l594 436q15 11 19 11q8 0 8 -9q0 -8 -2 -14l-23 -109q-7 -27 -26 -41l-400 -292q-14 -8 -14 -17q0 -4 6 -10l283 -305q10 -10 10 -25q0 -8 -2 -14z" />
    <glyph glyph-name="guilsinglright" unicode="&#x203a;" horiz-adv-x="804" 
d="M244 940l18 96q4 11 10 11t15 -9l411 -444q13 -16 13 -23q0 -8 -15 -20l-594 -436q-15 -11 -18 -11q-8 0 -8 9q0 8 2 14l22 109q6 25 27 40l399 293q15 9 15 17q0 4 -6 10l-283 305q-10 10 -10 25q0 8 2 14z" />
    <glyph glyph-name="fraction" unicode="&#x2044;" horiz-adv-x="243" 
d="M-406 197l934 1069h142l-934 -1069h-142z" />
    <glyph glyph-name="Euro" unicode="&#x20ac;" horiz-adv-x="1296" 
d="M1155 1231q29 -29 29 -70q0 -49 -15 -96q-11 -34 -22 -45.5t-35 -11.5q-15 -4 -28.5 9t-29.5 39.5t-24 35.5q-54 69 -143 69q-119 0 -213 -98q-94 -102 -146 -232q-4 -12 -4 -16q0 -8 17 -8h417q19 0 19 -14q0 -3 -4 -15l-19 -43q-9 -20 -28 -20h-418q-16 0 -23 -17
l-24 -106q-2 -8 -2 -17q0 -12 16 -12h383q19 0 19 -14q0 -1 -1 -3t-2 -5.5t-2 -5.5l-18 -43q-9 -21 -29 -21h-360q-21 0 -21 -16v-35q0 -64 17 -144q21 -76 73 -130t125 -54q47 -2 97.5 24.5t84 59.5t64.5 59t45 23q20 0 34.5 -12.5t14.5 -32.5q0 -39 -24 -94
q-26 -63 -72 -99q-58 -43 -176 -43q-210 0 -346 127q-135 129 -141 351q0 16 -21 16h-123q-18 0 -18 16q0 9 2 15l8 41q3 20 25 20h112q18 0 21 19q7 59 20 108q2 6 2 12q0 13 -14 13h-109q-18 0 -18 16q0 8 2 14l8 41q3 21 25 21h129q16 0 22 14q101 216 283 336
q183 121 383 121q123 0 176 -47z" />
    <glyph glyph-name="uni2117" unicode="&#x2117;" horiz-adv-x="1804" 
d="M438 1200q-192 -192 -192 -469t192 -469t465 -192t465 192q193 193 193 469t-193 469q-195 195 -465 195t-465 -195zM147 731q0 313 222 535q226 221 534 221q312 0 533 -221t221 -535q0 -311 -221 -532q-222 -222 -533 -222q-307 0 -534 222q-222 222 -222 532z
M1135 797q53 59 53 137q0 34 -12 61q-20 43 -70 58.5t-152 15.5h-67q-18 0 -21 -14l-63 -312q-2 -6 -2 -14q0 -12 14 -12h62q99 2 157.5 19.5t100.5 60.5zM1317 1067q47 -53 47 -129q0 -92 -61 -168q-116 -137 -422 -137h-80q-20 0 -23 -17q-26 -133 -26 -165
q0 -28 11.5 -46t26 -25t26 -17.5t11.5 -24.5q0 -33 -51 -33h-272q-45 0 -45 31q0 20 39 37q39 20 57 47q32 49 55 166l62 311q16 98 16 123q0 40 -37 61q-35 21 -35 39q0 31 48 31h299q152 0 229.5 -16.5t124.5 -67.5z" />
    <glyph glyph-name="trademark" unicode="&#x2122;" horiz-adv-x="1486" 
d="M1321 1462h158q32 0 32 -22q0 -5 -2 -8.5t-7.5 -7.5t-8 -5.5t-12 -6t-11.5 -5.5q-25 -14 -36 -37t-21 -84l-41 -205q-14 -66 -14 -96q0 -36 26 -53q27 -15 27 -31q0 -24 -39 -24h-203q-32 0 -32 24q0 9 30 29t39 33q22 25 37 114l49 242l2 12q0 8 -6 3q-4 -2 -8 -9
l-219 -340q-8 -14 -29 -14h-31q-19 0 -22 16l-74 334q-3 14 -6 14q-5 0 -8 -14q-49 -229 -49 -305q0 -31 10 -51.5t22.5 -27.5t22.5 -15.5t10 -18.5q0 -26 -37 -26h-174q-39 0 -39 26q0 7 6 13t22 16t24 16q50 41 84 209l41 199q2 6 2 16q0 23 -27 35q-10 0 -21.5 10
t-11.5 21q0 24 39 24h156q29 0 35 -24l65 -291q3 -12 8 -12q3 0 8 8l195 297q16 22 39 22zM690 1470q41 0 41 -30l-18 -133q-6 -43 -37 -43t-39 32q-25 67 -43 82q-30 23 -70 23q-9 0 -12 -10l-63 -310q-13 -67 -13 -96q0 -20 13 -37.5t26.5 -29t13.5 -17.5q0 -24 -38 -24
h-205q-31 0 -31 22q0 12 32 33t40 33q20 30 35 112l61 303q2 6 2 15q0 6 -8 6q-56 0 -92 -25q-27 -18 -54 -65q-24 -47 -45 -47q-36 0 -36 32q0 1 1 8.5t3.5 25t5.5 36.5q10 58 14 70q12 34 49 34q1 0 9.5 -0.5t25 -1.5t35.5 -2q86 -4 127 -4h84q36 0 80 2t74 4t32 2z" />
    <glyph glyph-name="Omega" unicode="&#x2126;" horiz-adv-x="1732" 
d="M1546 293q35 0 35 -33q0 -14 -35 -117l-14 -43q-4 -16 -8 -25t-9 -19t-8 -17q-23 -47 -123 -47q-1 0 -137 4t-157 4h-148q-47 0 -62.5 11t-15.5 42q0 34 8.5 49t34.5 27q222 132 357 352q139 227 139 471q0 195 -95.5 311.5t-269.5 116.5q-172 0 -313 -120
q-136 -115 -209.5 -285.5t-73.5 -347.5q0 -155 62.5 -285.5t167.5 -212.5q23 -17 23.5 -37.5t-17.5 -52.5q-20 -39 -92 -39h-148q-26 0 -162 -4q-25 -1 -57.5 -2t-50 -1.5t-27.5 -0.5q-66 0 -86 13.5t-20 57.5q0 5 0.5 15.5t1.5 29.5t2 35q2 66 8 105q6 43 43 43
q21 0 41 -39t47 -49q34 -15 156 -15h147q11 0 11 9q0 7 -15 16q-252 175 -252 465q0 194 115 383q117 187 313 307q195 119 412 119q261 0 410 -162q153 -163 153 -387q0 -225 -139 -420q-135 -189 -363 -311q-12 -9 -12 -12q0 -7 10 -7h140q98 0 132.5 6t63.5 29
q13 11 31 30.5t30.5 29.5t24.5 10z" />
    <glyph glyph-name="partialdiff" unicode="&#x2202;" horiz-adv-x="1441" 
d="M686 821q-128 0 -211 -102q-82 -101 -82 -262q0 -145 78 -258q79 -111 236 -111q114 0 196 102q86 103 86 269q0 164 -92 264q-91 98 -211 98zM305 1145q-61 0 -61 86q0 72 49 127q52 56 153.5 92.5t215.5 36.5q256 0 425 -217q170 -218 170 -559q0 -313 -161 -521
q-165 -213 -443 -213q-201 0 -344 140q-141 138 -141 346q0 200 131 334q132 135 340 135q138 0 240.5 -67t144.5 -189q3 -12 8 -12q6 0 6 14q0 275 -82 475q-44 107 -123 168t-182 61q-60 0 -109.5 -22.5t-87.5 -61t-81 -100.5q-38 -53 -68 -53z" />
    <glyph glyph-name="increment" unicode="&#x2206;" horiz-adv-x="1409" 
d="M809 1176l-659 -1049l-5 -10q0 -11 13 -11h848q14 0 14 13q0 8 -2 14l-189 1036q-3 19 -8 19q-3 0 -12 -12zM1221 0h-1252q-16 0 -16 10q0 6 6 15l899 1431q15 21 33 21h70q21 0 24 -21l258 -1419q2 -6 2 -14q0 -23 -24 -23z" />
    <glyph glyph-name="product" unicode="&#x220f;" horiz-adv-x="1679" 
d="M379 1462h1259q52 0 52 -37q3 -9 -1 -17t-15 -14.5t-19.5 -11t-23 -10t-17.5 -6.5q-34 -18 -49 -59q-20 -55 -41 -158l-201 -991q-25 -122 -25 -170q0 -39 15.5 -63t34 -31t34 -19.5t15.5 -30.5q0 -41 -62 -41h-360q-49 0 -49 41q0 23 47 47q50 21 71 56q35 49 70 211
l236 1163q2 6 2 14q0 21 -25 21h-670q-24 0 -30 -25l-238 -1173q-22 -113 -22 -168q0 -36 15.5 -61t33.5 -35.5t33.5 -23.5t15.5 -28q0 -39 -64 -39h-358q-49 0 -49 37q0 27 47 51q48 22 72 56q37 55 67 211l201 991q22 113 22 158q0 24 -13.5 42t-30.5 27.5t-30.5 21
t-13.5 23.5q0 41 64 41z" />
    <glyph glyph-name="summation" unicode="&#x2211;" horiz-adv-x="1173" 
d="M958 291q33 0 33 -33q0 -8 -41 -133q-27 -88 -53 -111q-22 -22 -102 -22l-136 4q-136 4 -157 4h-471q-25 0 -25 23q0 8 2 16l8 43q6 30 25 49l506 563q12 13 12 24.5t-12 37.5l-254 544q-8 16 -8 33q0 2 0.5 6t1.5 11.5t2 13.5l12 66q6 32 41 32h401q115 0 232 6
q120 9 133 9q72 0 72 -50q0 -21 -9 -61l-36 -215q-12 -72 -60 -72q-25 0 -38.5 14t-20.5 52q-10 51 -17 69q-3 26 -19.5 54.5t-41.5 44.5q-64 43 -274 43h-140q-22 0 -22 -17q0 -2 4 -14l235 -508q11 -29 11 -37q0 -21 -23 -47l-465 -518q-10 -10 -10 -18q0 -11 16 -11h342
q175 0 228 17q32 13 61 49q33 39 57 39z" />
    <glyph glyph-name="minus" unicode="&#x2212;" horiz-adv-x="1462" 
d="M197 686v92q0 31 30 31h1008q12 0 21.5 -9.5t9.5 -21.5v-92q0 -31 -31 -31h-1008q-30 0 -30 31z" />
    <glyph glyph-name="radical" unicode="&#x221a;" horiz-adv-x="1435" 
d="M1305 1616v-74q0 -16 -17 -16h-100q-16 0 -19 -17l-333 -1509q-3 -14 -19 -14h-115q-16 0 -22 12l-336 803q-10 16 -25 16h-182q-16 0 -16 17v73q0 17 16 17h352q23 0 29 -19l258 -612q3 -12 8 -12q6 0 9 12l290 1321q3 18 25 18h180q17 0 17 -16z" />
    <glyph glyph-name="infinity" unicode="&#x221e;" horiz-adv-x="1804" 
d="M510 485q79 0 141 45q61 44 168 154q-103 106 -164 150q-65 47 -145 47q-86 0 -142.5 -56t-56.5 -141t57 -142t142 -57zM1495 682q0 86 -57 142.5t-142 56.5q-79 0 -141 -45q-61 -46 -166 -154q99 -110 164 -153.5t143 -43.5q82 0 140.5 57.5t58.5 139.5zM510 1004
q81 0 154 -37q68 -31 120 -76q41 -36 121 -119q90 94 119 119q53 47 126.5 80t145.5 33q138 0 232 -91q94 -88 94 -231q0 -134 -96 -227t-230 -93q-115 0 -200 58q-88 60 -193 174q-67 -72 -123 -121q-49 -44 -123 -77.5t-147 -33.5q-138 0 -234 93q-94 94 -94 229
q0 134 94 225q95 95 234 95z" />
    <glyph glyph-name="integral" unicode="&#x222b;" horiz-adv-x="1155" 
d="M997 1530q129 0 129 -100q0 -70 -47 -70q-22 0 -55 33q-30 34 -61 34q-95 0 -154 -200q-58 -199 -123 -658q-56 -395 -119 -563q-62 -171 -155 -274q-114 -123 -256 -123q-127 0 -127 100q0 70 47 70q20 0 53 -33q35 -35 61 -35q97 0 156 191q62 201 125 667
q52 388 115 561q61 170 157 277q114 123 254 123z" />
    <glyph glyph-name="approxequal" unicode="&#x2248;" horiz-adv-x="1665" 
d="M526 719q106 0 312 -96q208 -97 299 -97q112 0 215 92q16 16 32 0l54 -55q14 -14 0 -28q-139 -127 -301 -127q-96 0 -217 47q-34 14 -111 48.5t-114.5 49.5t-86.5 30t-80 15q-98 0 -190 -127q-10 -10 -16 -10q-4 0 -21 10l-47 37q-16 13 -16 22q0 6 6 15q29 38 67 82
q35 37 93.5 64.5t121.5 27.5zM1139 735q-103 0 -312 96q-211 97 -299 97q-112 0 -215 -92q-16 -16 -32 0l-54 55q-6 6 -6 14.5t6 14.5q139 127 301 127q65 2 159 -28.5t171.5 -68t157.5 -67.5t121 -27q98 0 190 127q10 10 16 10q4 0 21 -10l47 -37q16 -13 16 -22
q0 -6 -6 -15q-29 -38 -67 -82q-35 -37 -93.5 -64.5t-121.5 -27.5z" />
    <glyph glyph-name="notequal" unicode="&#x2260;" horiz-adv-x="1509" 
d="M1266 856h-348q-16 0 -25 -12l-135 -219q-4 -8 -4 -11q0 -6 10 -6h502q24 0 24 -22v-70q0 -22 -24 -22h-578q-8 0 -18 -13l-187 -295q-10 -16 -28 -16h-88q-11 0 -11 8q0 6 6 15l177 284q4 8 4 10q0 7 -11 7h-288q-25 0 -25 22v70q0 22 25 22h362q14 0 21 10l137 220
q6 9 6 12q0 6 -10 6h-516q-25 0 -25 23v69q0 23 25 23h585q18 0 27 12l182 295q8 14 29 14h88q12 0 12 -8q0 -3 -6 -12l-172 -277q-10 -17 -10 -18q0 -6 10 -6h277q24 0 24 -23v-69q0 -23 -24 -23z" />
    <glyph glyph-name="lessequal" unicode="&#x2264;" horiz-adv-x="1402" 
d="M1192 1274v-96q0 -24 -21 -33l-751 -328q-19 -7 -19 -12t19 -12l751 -328q21 -9 21 -33v-98q0 -15 -12 -15q-2 0 -19 7l-930 409q-20 9 -20 31v78q0 21 20 30l928 408q15 6 21 6q12 0 12 -14zM1192 231v-84q0 -22 -23 -22h-933q-23 0 -23 22v84q0 23 23 23h933
q23 0 23 -23z" />
    <glyph glyph-name="greaterequal" unicode="&#x2265;" horiz-adv-x="1402" 
d="M211 1178v96q0 14 12 14q6 0 21 -6l927 -408q21 -9 21 -30v-78q0 -22 -21 -31l-929 -409q-17 -7 -19 -7q-12 0 -12 15v98q0 24 20 33l752 328q19 7 19 12t-19 12l-752 328q-20 9 -20 33zM211 147v84q0 23 22 23h934q23 0 23 -23v-84q0 -22 -23 -22h-934q-22 0 -22 22z
" />
    <glyph glyph-name="lozenge" unicode="&#x25ca;" horiz-adv-x="1245" 
d="M496 72l491 663q8 8 8 19q0 8 -2 12l-209 620q-3 13 -10 13q-5 0 -14 -15l-490 -657q-8 -8 -8 -18q0 -3 4 -19l209 -620q4 -11 8 -11q3 0 13 13zM860 1511l258 -761q1 -3 2 -6.5t1.5 -5.5t0.5 -3q0 -7 -12 -22l-565 -762q-13 -19 -37 -19h-78q-26 0 -33 17l-254 758
q-4 16 -4 20q0 7 17 31l559 753q9 19 37 19h77q25 0 31 -19z" />
    <glyph glyph-name="apple" unicode="&#xf8ff;" horiz-adv-x="1677" 
d="M1237 -23q-112 0 -186 86q-72 84 -72 220v96h-281v-96q0 -139 -69 -220q-74 -86 -187 -86q-108 0 -184 76t-76 183q0 115 85 186.5t220 71.5h97v280h-97q-135 0 -220 71.5t-85 186.5q0 106 76 182t184 76q111 0 185 -86q71 -83 71 -219v-96h281v96q0 135 72 219
q77 86 186 86q106 0 182 -76t76 -182q0 -115 -84.5 -186.5t-218.5 -71.5h-96v-280h96q134 0 218.5 -71.5t84.5 -186.5q0 -107 -76 -183t-182 -76zM487 889h97v96q0 85 -39.5 137t-102.5 52q-60 0 -101.5 -41t-41.5 -101q0 -66 51 -104.5t137 -38.5zM584 283v96h-97
q-86 0 -137 -38.5t-51 -104.5q0 -60 41.5 -101t101.5 -41q63 0 102.5 52t39.5 137zM698 494h281v280h-281v-280zM1237 1174q-63 0 -102 -52t-39 -137v-96h96q85 0 135.5 38.5t50.5 104.5q0 57 -42 99.5t-99 42.5zM1192 379h-96v-96q0 -85 39 -137t102 -52q58 0 99.5 41.5
t41.5 100.5q0 66 -50.5 104.5t-135.5 38.5z" />
    <glyph glyph-name="fi" unicode="&#xfb01;" horiz-adv-x="1765" 
d="M1083 1061q25 0 38.5 -2t25.5 -13t12 -32q0 -10 -39 -232q-12 -73 -65 -73q-45 0 -60 49q0 1 -4 17.5t-10 36t-10 26.5q-6 15 -23 36t-39 33q-61 37 -258 37h-108q-42 0 -51 -43l-64 -317q-2 -8 -2 -17q0 -28 39 -28q108 0 141 2q39 0 96 8q60 8 97 8q67 0 67 -33
q0 -2 -12 -37q-12 -36 -33.5 -48.5t-70.5 -12.5q-9 0 -91 4q-78 4 -79 4q-39 2 -156 2q-27 0 -33 -28l-14 -70q-21 -108 -21 -152q0 -40 14.5 -64t32 -31.5t32 -20t14.5 -31.5q0 -39 -62 -39h-340q-53 0 -53 37q0 26 47 47q50 26 72 57q30 37 65 205l80 385q21 102 21 148
q0 29 -9.5 48t-22.5 27.5t-26.5 15t-23 16t-9.5 24.5q0 37 58 37h477q110 0 227 6q107 8 133 8zM1606 735l-78 -385q-25 -122 -25 -166q0 -38 14.5 -62t31.5 -32t31.5 -20.5t14.5 -28.5q0 -41 -61 -41h-340q-53 0 -53 39q0 24 47 45q46 21 72 57q32 46 67 205l78 385
q20 97 20 148q0 35 -14 56.5t-31 27.5t-31 17.5t-14 29.5q0 37 58 37h323q56 0 56 -37q0 -12 -6.5 -20.5t-14 -12.5t-23 -10.5t-22.5 -10.5q-37 -20 -56.5 -64t-43.5 -157z" />
    <glyph glyph-name="fl" unicode="&#xfb02;" horiz-adv-x="2238" 
d="M1083 1061q25 0 38.5 -2t25.5 -13t12 -32q0 -10 -39 -232q-12 -73 -65 -73q-45 0 -60 49q0 1 -4 17.5t-10 36t-10 26.5q-6 15 -23 36t-39 33q-61 37 -258 37h-108q-42 0 -51 -43l-64 -317q-2 -8 -2 -17q0 -28 39 -28q108 0 141 2q39 0 96 8q60 8 97 8q67 0 67 -33
q0 -2 -12 -37q-12 -36 -33.5 -48.5t-70.5 -12.5q-9 0 -91 4q-78 4 -79 4q-39 2 -156 2q-27 0 -33 -28l-14 -70q-21 -108 -21 -152q0 -40 14.5 -64t32 -31.5t32 -20t14.5 -31.5q0 -39 -62 -39h-340q-53 0 -53 37q0 26 47 47q50 26 72 57q30 37 65 205l80 385q21 102 21 148
q0 29 -9.5 48t-22.5 27.5t-26.5 15t-23 16t-9.5 24.5q0 37 58 37h477q110 0 227 6q107 8 133 8zM2124 356q21 0 36 -14t15 -37q0 -29 -18 -67q-1 -2 -56 -136q-24 -55 -56 -86.5t-83 -31.5q-21 0 -117 8q-93 8 -221 8h-428q-55 0 -55 39q0 24 47 45q50 26 72 57
q31 42 67 205l78 385q20 97 20 150q0 29 -13.5 50t-30.5 30t-30.5 21t-13.5 26q0 39 56 39h323q56 0 56 -37q3 -7 0 -14t-13 -13.5t-16.5 -10t-22 -10.5t-16.5 -8q-36 -20 -55 -63.5t-43 -155.5l-76 -379q-31 -152 -31 -186q0 -40 30.5 -55t100.5 -15q47 0 111 11
q102 15 155 53q61 41 134 123q63 69 94 69z" />
    <glyph glyph-name="NULL" horiz-adv-x="0" 
 />
    <glyph glyph-name="CR" horiz-adv-x="681" 
 />
    </font>
</defs>
</svg>
