<svg width="156" height="93" viewBox="0 0 156 93" fill="none" xmlns="http://www.w3.org/2000/svg">
  <g clip-path="url(#clip0)">
    <path opacity="0.1" d="M11.8155 51.0865C16.189 68.8327 32.9776 92.753 62.1461 92.753C77.4886 92.753 93.6776 94.4465 109.197 88.9074C123.199 83.8976 137.166 72.1138 140.728 64.0345C144.361 55.8141 146.477 43.7128 140.023 33.1991C133.11 21.9446 117.273 12.4188 112.336 9.03184C102.848 2.46963 58.2664 -7.7265 39.7848 9.52577C21.3032 26.7781 7.44204 33.305 11.8155 51.0865Z" fill="#95C5D1"/>
    <path d="M73.7147 68.8327L70.752 69.1855L36.8573 73.3134C35.6934 73.4545 34.6353 72.6078 34.4942 71.4788L30.4029 37.7151L29.8033 32.67C29.6622 31.5057 30.5087 30.4473 31.6373 30.3062L41.3014 29.1419L68.5652 25.8255C68.7768 26.6017 69.5175 29.8122 70.1877 32.8816C70.7872 35.563 71.281 38.1385 71.2105 38.7735C71.1399 39.6908 71.4574 41.7018 69.9055 42.3369C69.059 42.6897 67.6482 42.6191 65.2851 41.7018C60.3825 39.832 58.8307 43.3248 58.4779 46.2531C58.3369 47.3115 58.3721 48.2993 58.4427 48.9344C58.8659 52.6036 61.3348 56.3433 65.6378 53.9795C68.3183 52.4977 68.9179 51.5099 70.2582 51.3335C71.5985 51.1571 73.2209 52.2155 73.503 53.9443C74.2437 57.8251 73.9616 65.1283 73.7147 68.8327Z" fill="#95C5D1"/>
    <path d="M69.5528 38.8441L69.976 42.3369C69.1296 42.6897 67.7188 42.5839 65.3557 41.7019C60.4531 39.832 58.9012 43.3248 58.5485 46.2531L37.9507 48.758L37.2101 42.7603L69.5528 38.8441Z" fill="#205350"/>
    <path d="M70.2229 32.8464L30.4381 37.6798L29.1331 37.8562" stroke="black" stroke-width="2" stroke-miterlimit="10"/>
    <path d="M39.9258 64.9871L42.8533 67.2803" stroke="black" stroke-width="2" stroke-miterlimit="10"/>
    <path d="M42.5358 64.6696L40.2433 67.5978" stroke="black" stroke-width="2" stroke-miterlimit="10"/>
    <path d="M44.9342 64.3873L47.8617 66.6806" stroke="black" stroke-width="2" stroke-miterlimit="10"/>
    <path d="M47.5443 64.0698L45.2517 66.9981" stroke="black" stroke-width="2" stroke-miterlimit="10"/>
    <path d="M49.9073 63.7875L52.8347 66.0808" stroke="black" stroke-width="2" stroke-miterlimit="10"/>
    <path d="M52.5173 63.47L50.2247 66.3983" stroke="black" stroke-width="2" stroke-miterlimit="10"/>
    <path d="M120.624 21.5212L125.421 60.33C125.562 61.4943 124.751 62.5527 123.587 62.6938L94.2066 66.3277C94.4183 62.6233 94.7004 55.3201 94.0656 51.404C93.7834 49.7105 92.1257 48.6168 90.8207 48.8285C89.4804 49.0402 88.8808 50.028 86.2003 51.4745C81.8973 53.8384 79.3932 50.0986 78.9699 46.4647C78.8994 45.8296 78.8641 44.8418 79.0052 43.7833C79.3579 40.855 80.8745 37.3623 85.7771 39.1969C88.1402 40.0789 89.551 40.1494 90.3975 39.7966C91.9493 39.1616 91.5966 37.1506 91.6672 36.2333C91.7377 35.5982 91.2087 33.058 90.6091 30.3414C89.9389 27.3073 89.163 24.0967 88.9867 23.2852L118.296 19.6513C119.425 19.5455 120.483 20.3922 120.624 21.5212Z" fill="#95C5D1"/>
    <path d="M90.3622 39.8319L90.6796 42.3368L78.9699 43.7833C79.3226 40.855 80.8392 37.3622 85.7418 39.1968C88.1049 40.1141 89.5157 40.1847 90.3622 39.8319Z" fill="#205350"/>
    <path d="M122 26.4605L121.259 26.5664L90.6091 30.3767" stroke="black" stroke-width="2" stroke-miterlimit="10"/>
    <path d="M105.775 47.7347L100.873 43.9244C100.485 43.6069 100.414 43.0424 100.696 42.619L104.506 37.7503C104.823 37.3622 105.387 37.2917 105.811 37.5739L110.678 41.3842C111.066 41.7017 111.136 42.2662 110.854 42.6896L107.045 47.5583C106.763 47.9817 106.163 48.0523 105.775 47.7347Z" fill="white"/>
    <path d="M106.481 47.7347L101.578 43.9244C101.19 43.6069 101.12 43.0424 101.402 42.619L105.211 37.7503C105.528 37.3622 106.093 37.2917 106.516 37.5739L111.383 41.3842C111.771 41.7017 111.842 42.2662 111.56 42.6896L107.75 47.5583C107.468 47.9817 106.869 48.0523 106.481 47.7347Z" fill="#F5813B"/>
    <path d="M112.582 46.9586L107.715 43.1483C107.327 42.8308 107.257 42.2663 107.539 41.8429L111.348 36.9742C111.665 36.5861 112.23 36.5155 112.653 36.7978L117.52 40.6081C117.908 40.9256 117.979 41.4901 117.697 41.9135L113.887 46.7822C113.57 47.2056 112.97 47.2761 112.582 46.9586Z" stroke="black" stroke-width="2" stroke-miterlimit="10"/>
    <path d="M69.7644 24.2379C69.7644 24.2379 73.1151 37.8916 72.974 39.3381C72.8329 40.7846 73.75 44.8066 67.0486 42.2664C60.3473 39.7262 59.9241 47.0645 60.2062 49.4989C60.6295 53.1681 63.0984 56.9079 67.4013 54.5441C70.0819 53.0623 70.6815 52.0744 72.0217 51.898C73.362 51.7216 74.9844 52.78 75.2666 54.5088C76.1483 59.8714 75.2313 71.6905 75.2313 71.6905" stroke="black" stroke-width="2" stroke-miterlimit="10"/>
    <path opacity="0.3" d="M70.7873 69.1855L36.8926 73.3134C35.7287 73.4545 34.6706 72.6078 34.5295 71.4788L30.4382 37.7151L29.8386 32.67C29.6975 31.5057 30.544 30.4473 31.6726 30.3062L41.3367 29.1419L46.2392 35.7747L50.2248 41.1726L54.3161 46.747L70.7873 69.1855Z" fill="#95C5D1"/>
    <path d="M27.9693 54.0854C27.5108 54.1207 27.0523 54.1912 26.5585 54.2971" stroke="black" stroke-width="2" stroke-miterlimit="10"/>
    <path d="M24.5481 54.8616C22.3966 55.6025 20.3862 56.8373 19.0812 58.0368C17.494 59.5186 16.189 61.6708 15.6953 63.7876C14.4961 68.9386 18.5521 70.1734 20.104 70.1028C21.6559 69.997 23.0667 69.0444 23.8779 67.739C25.2887 65.3752 24.7597 62.0236 22.9256 60.0478C19.2928 56.1317 13.579 58.2132 9.91094 60.824C6.31339 63.3642 3.35069 67.6332 1.55191 70.8085" stroke="black" stroke-width="2" stroke-miterlimit="10" stroke-dasharray="7.92 7.92"/>
    <path d="M0.952323 71.6905C0.705431 72.1491 0.49381 72.5725 0.317459 72.9253" stroke="black" stroke-width="2" stroke-miterlimit="10"/>
    <path d="M130.253 44.5595C130.711 44.4537 131.135 44.2773 131.593 44.1009" stroke="black" stroke-width="2" stroke-miterlimit="10"/>
    <path d="M133.462 43.0425C134.626 42.2663 135.543 41.3843 136.108 40.6434C137.906 38.2091 138.047 35.4219 137.589 34.0459C136.778 31.7174 135.261 30.9412 133.427 31.1882C131.946 31.3999 130.888 32.4583 130.817 34.0812C130.711 35.8452 131.946 37.0448 133.462 37.5034C139.317 39.2322 145.807 36.0922 149.546 31.2587C152.79 27.0956 154.342 21.9094 155.295 16.6525" stroke="black" stroke-width="2" stroke-miterlimit="10" stroke-dasharray="8.13 8.13"/>
    <path d="M155.436 15.5941C155.506 15.1354 155.577 14.6768 155.647 14.2181" stroke="black" stroke-width="2" stroke-miterlimit="10"/>
  </g>
  <defs>
    <clipPath id="clip0">
      <rect width="156" height="93" fill="white"/>
    </clipPath>
  </defs>
</svg>
