<svg width="127" height="94" viewBox="0 0 127 94" fill="none" xmlns="http://www.w3.org/2000/svg">
  <g clip-path="url(#clip0)">
    <path opacity="0.1" d="M0.744313 59.0374C4.93931 76.0453 13.3631 89.0633 41.3748 89.0633C50.7798 89.0633 69.0483 96.8065 79.5696 92.8504C105.754 83.0446 120.403 73.1374 125.207 62.3173C132.447 45.9856 116.411 21.0655 107.311 14.7425C103.285 11.9698 91.072 3.44894 76.9646 0.980595C59.1697 -2.09638 38.4992 1.96117 28.5869 11.1921C10.8258 27.7943 -3.45068 42.0295 0.744313 59.0374Z" fill="#95C5D1"/>
    <path d="M45.2653 86.4259C41.341 85.2763 37.4505 82.977 35.7928 79.2576C35.2853 78.1756 35.0485 76.9583 34.9808 75.7748C45.9758 79.8662 65.902 77.2964 78.2502 75.8087C80.2123 76.4173 82.2083 76.9583 84.2043 77.3979C84.272 77.4317 84.3735 77.4317 84.4412 77.4655C73.0403 79.359 54.3319 89.0971 45.2653 86.4259Z" fill="#38858B"/>
    <path d="M39.9878 66.9496C36.7062 68.5388 34.8455 72.2245 34.9808 75.8086C30.0416 73.9827 26.8953 70.8043 27.0983 65.5633C27.2336 61.9791 28.9928 58.9022 31.1918 57.1777C32.0376 56.5014 32.9172 55.9604 33.8644 55.4871C38.6345 56.9748 44.0136 56.5691 48.9867 55.6899C50.1708 55.487 51.321 55.2504 52.5051 54.9799C58.2563 56.4676 63.6353 58.8345 67.3905 60.3561C73.886 62.9935 88.0949 67.7611 99.5634 67.5245C101.898 67.4906 104.097 67.1187 106.093 66.5101C105.247 69.7899 103.555 72.8331 101.018 74.8619C96.4848 78.446 90.1247 78.7165 84.475 77.4655C84.4073 77.4655 84.3058 77.4316 84.2382 77.3978C82.2422 76.9583 80.28 76.4173 78.284 75.8086C70.4691 73.4417 62.7896 70.128 55.1777 67.423C50.4076 65.8 44.6564 64.6842 39.9878 66.9496Z" fill="#95C5D1"/>
    <path d="M33.8306 55.487C39.3111 52.7482 46.1111 53.323 52.4374 54.9798C51.2872 55.2504 50.1031 55.487 48.919 55.6899C44.0136 56.5691 38.6007 56.9748 33.8306 55.487Z" fill="#95C5D1"/>
    <path d="M57.8503 16.9741C59.7786 17.4813 61.707 17.9547 63.5 18.428C63.6015 18.4619 63.703 18.4619 63.7707 18.4957C67.7965 19.5101 71.9238 20.1863 76.0173 20.8964C77.0322 21.0655 78.0472 21.2007 79.0621 21.3021C82.3098 21.5726 85.7605 21.4374 88.7715 20.0511C89.7864 19.5777 90.8013 18.9691 91.6132 18.1575C94.7933 22.2489 94.4888 28.7072 90.9028 31.987C88.5346 34.1511 85.8282 35.4698 82.9526 36.2137C77.878 37.4985 72.2621 36.9575 67.0522 35.9093C57.4443 34.0158 48.1071 30.7698 38.2624 30.195C32.4774 29.8906 27.4028 31.7503 24.9331 37.2619C23.0386 41.4885 23.2754 46.5604 26.0496 50.246C22.159 48.8597 18.6068 46.7295 16.1034 43.2467C13.9044 40.2036 13.1263 36.6532 13.3293 32.9338C13.5999 28.4029 15.5621 24.1762 18.6745 20.8964C22.159 17.2446 26.557 15.182 31.4286 14.0662C37.6534 12.6122 43.4385 13.2547 49.6295 14.8439C52.2344 15.5201 55.0762 16.264 57.8503 16.9741Z" fill="#95C5D1"/>
    <path d="M76.4233 48.4878C68.3716 50.3475 60.5229 53.154 52.4374 54.9461C46.0773 53.2893 39.3111 52.7145 33.8306 55.4533C31.3609 54.6756 29.0605 53.3907 27.0983 51.4296C26.7262 51.0576 26.354 50.6519 26.0495 50.2123C26.8953 50.5166 27.7749 50.7871 28.6545 51.0238C32.6127 52.072 36.8077 52.0382 40.7997 51.3281C47.0583 50.2123 52.9449 47.4734 58.8314 45.1065C64.3119 42.9087 69.8263 40.7447 75.4084 38.885C77.675 38.1411 80.28 37.3634 83.0541 36.6533C89.3127 35.0641 96.3833 33.813 101.965 34.2526C118.001 35.5037 124.023 50.8886 114.956 61.1001C112.96 63.3655 109.848 65.3267 106.025 66.4763C106.837 63.2979 106.905 59.8828 106.194 56.9073C103.014 43.6526 86.3695 46.2224 76.4233 48.4878Z" fill="#38858B"/>
    <path d="M87.858 15.2497C81.3287 12.477 69.7925 16.2641 63.8045 18.4957C63.703 18.4619 63.6015 18.4619 63.5338 18.4281C61.707 17.9547 59.8125 17.4813 57.8841 16.9741C59.8801 15.8921 62.6204 14.4382 63.094 14.2353C64.8871 13.39 66.7139 12.6461 68.5746 11.936C70.9427 11.023 73.3785 10.2453 75.8482 9.63671C78.3178 9.02808 80.8889 8.62233 83.4262 8.65614C86.6401 8.68995 90.26 9.29859 92.3237 11.9698C93.3724 13.3223 93.5078 15.4187 92.5943 16.9741C92.3237 17.4137 92.0192 17.8194 91.6471 18.1914C90.666 16.9403 89.4143 15.9259 87.858 15.2497Z" fill="#38858B"/>
    <path d="M89.2112 25.3935C89.2112 25.3935 91.5455 24.6158 93.0003 22.7899C94.5565 20.8288 95.1316 17.7856 93.1694 15.1144C89.3466 9.97482 80.2461 10.3806 76.9646 11.5302" stroke="black" stroke-width="2" stroke-miterlimit="10"/>
    <path d="M81.5994 30.0597C81.5994 30.0597 85.9635 29.9921 89.9555 28.5043C93.3724 27.2195 96.4848 24.8187 96.5187 21.5051" stroke="black" stroke-width="2" stroke-miterlimit="10"/>
    <path d="M42.4236 19.2058C42.4236 19.2058 13.7691 16.1288 11.4686 34.2525C9.98004 46.1547 23.6138 49.7389 35.4206 49.536C41.6116 49.4007 47.5996 47.8453 50.6106 46.5266" stroke="black" stroke-width="2" stroke-miterlimit="10"/>
    <path d="M75.6114 45.7151C80.28 43.9569 85.2192 42.7734 89.651 42.0633C94.5903 41.2518 99.2251 41.8943 102.913 43.1453C108.461 45.0389 112.588 49.2993 113.129 55.2842C113.569 60.0856 111.641 65.0561 108.055 68.2684C106.025 70.0943 103.454 71.2439 100.747 71.6159" stroke="black" stroke-width="2" stroke-miterlimit="10"/>
    <path d="M32.8157 53.3568C32.8157 53.3568 35.4883 53.8302 41.7131 52.8835C47.4305 52.0043 56.0573 49.9079 69.082 44.7007C98.4132 32.9338 108.326 40.305 108.326 40.305" stroke="black" stroke-width="2" stroke-miterlimit="10"/>
    <path d="M33.4585 80.4072C40.4614 88.1841 58.5608 82.605 58.5608 82.605" stroke="black" stroke-width="2" stroke-miterlimit="10"/>
    <path d="M40.9688 80.3057C37.0445 80.2043 32.0037 77.4316 31.6316 72.0892C30.9211 62.0129 40.4614 60.4913 45.13 60.7956C49.7986 61.1 52.7419 62.2834 58.7975 65.428" stroke="black" stroke-width="2" stroke-miterlimit="10"/>
    <path d="M19.5203 10.1777L19.6556 10.6849C19.9939 11.9698 20.9411 13.018 22.2267 13.4237C20.9411 13.8633 19.9601 14.8777 19.6556 16.1964L19.5203 16.7036L19.3849 16.1964C19.0466 14.9115 18.0994 13.8633 16.8138 13.4575C18.0994 13.0518 19.0805 12.0036 19.3849 10.7187L19.5203 10.1777Z" fill="#F5813B"/>
    <path d="M56.9707 73.3741L57.1061 73.8813C57.4444 75.1662 58.3916 76.2144 59.6772 76.6201C58.3916 77.0259 57.4105 78.0741 57.1061 79.359L56.9707 79.8662L56.8354 79.359C56.4971 78.0741 55.5498 77.0259 54.2643 76.6201C55.5498 76.2144 56.5309 75.1662 56.8354 73.8813L56.9707 73.3741Z" fill="#F5813B"/>
    <path d="M14.3442 17.9208L14.4119 18.2252C14.6148 19.0367 15.2238 19.6791 16.0019 19.9158C15.2238 20.1525 14.6148 20.7949 14.4119 21.6064L14.3442 21.9108L14.2427 21.6403C14.0397 20.8288 13.4308 20.1863 12.6527 19.9496C13.4308 19.7129 14.0397 19.0705 14.2427 18.259L14.3442 17.9208Z" fill="#F5813B"/>
    <path d="M117.527 36.2475L117.595 36.5518C117.798 37.3633 118.407 38.0058 119.185 38.2425C118.407 38.4792 117.798 39.1216 117.595 39.9331L117.527 40.2374L117.46 39.9331C117.257 39.1216 116.648 38.4792 115.87 38.2425C116.648 38.0058 117.257 37.3633 117.46 36.5518L117.527 36.2475Z" fill="#F5813B"/>
    <path d="M120.268 42.4352L120.471 43.2468C120.978 45.2755 122.501 46.8647 124.463 47.5072C122.467 48.1496 120.978 49.7388 120.471 51.7676L120.268 52.5791L120.065 51.7676C119.557 49.7388 118.035 48.1496 116.073 47.5072C118.069 46.8647 119.557 45.2755 120.065 43.2468L120.268 42.4352Z" fill="#F5813B"/>
    <path d="M84.8715 17.4948L82.9109 16.4996L79.3264 23.5542L81.287 24.5494L84.8715 17.4948Z" fill="#1F5350"/>
    <path d="M79.0384 17.7588L78.0427 19.7184L85.1009 23.3011L86.0966 21.3415L79.0384 17.7588Z" fill="#1F5350"/>
    <path d="M55.4342 52.2388L54.9409 54.3806L62.6554 56.1553L63.1486 54.0135L55.4342 52.2388Z" fill="#1F5350"/>
    <path d="M59.711 52.4439C60.3089 52.4439 60.7936 51.9594 60.7936 51.3619C60.7936 50.7643 60.3089 50.2798 59.711 50.2798C59.1131 50.2798 58.6284 50.7643 58.6284 51.3619C58.6284 51.9594 59.1131 52.4439 59.711 52.4439Z" fill="#1F5350"/>
    <path d="M58.3916 58.1245C58.9895 58.1245 59.4742 57.6401 59.4742 57.0425C59.4742 56.4449 58.9895 55.9604 58.3916 55.9604C57.7937 55.9604 57.309 56.4449 57.309 57.0425C57.309 57.6401 57.7937 58.1245 58.3916 58.1245Z" fill="#1F5350"/>
    <path d="M78.7576 80.4411C78.7576 80.4411 84.6103 79.4943 89.0759 80.272L89.2451 84.9382C89.2451 84.9382 83.9675 84.1267 79.0959 85.6144L78.7576 80.4411Z" fill="#1F5350"/>
    <path d="M84.1705 83.5856C84.9366 83.5856 85.5576 82.965 85.5576 82.1993C85.5576 81.4337 84.9366 80.813 84.1705 80.813C83.4045 80.813 82.7834 81.4337 82.7834 82.1993C82.7834 82.965 83.4045 83.5856 84.1705 83.5856Z" fill="#95C5D1"/>
    <path d="M68.9467 75.2C68.9467 75.2 74.089 72.2582 78.5546 71.4467L80.3476 75.7748C80.3476 75.7748 75.1377 76.8568 71.078 79.9L68.9467 75.2Z" fill="#1F5350"/>
    <path d="M74.5965 76.3496C75.3625 76.3496 75.9835 75.7289 75.9835 74.9633C75.9835 74.1976 75.3625 73.577 74.5965 73.577C73.8304 73.577 73.2094 74.1976 73.2094 74.9633C73.2094 75.7289 73.8304 76.3496 74.5965 76.3496Z" fill="#95C5D1"/>
    <path d="M35.353 11.7331C35.0823 11.7331 34.8455 11.564 34.744 11.2935C34.6425 11.023 34.6763 10.7525 34.8793 10.5497L35.1838 10.2453L34.1012 9.16332L33.7968 9.46764C33.5938 9.67051 33.3231 9.70433 33.0525 9.60289C32.7818 9.50145 32.6127 9.26476 32.6127 8.99426V8.55469H31.0903V8.99426C31.0903 9.26476 30.9212 9.50145 30.6505 9.60289C30.3799 9.70433 30.1092 9.67051 29.9062 9.46764L29.6018 9.16332L28.5192 10.2453L28.8237 10.5497C29.0266 10.7525 29.0605 11.0568 28.959 11.2935C28.8575 11.564 28.6207 11.7331 28.35 11.7331H27.9102V13.2547H28.35C28.6207 13.2547 28.8575 13.4238 28.959 13.6943C29.0605 13.9648 29.0266 14.2353 28.8237 14.4381L28.4854 14.7763L29.5679 15.8583L29.9062 15.5202C30.1092 15.3173 30.3799 15.2835 30.6505 15.3849C30.9212 15.4863 31.0903 15.723 31.0903 15.9935V16.4331H32.6127V15.9935C32.6127 15.723 32.7818 15.4863 33.0525 15.3849C33.3231 15.2835 33.5938 15.3173 33.7968 15.5202L34.1012 15.8245L35.1838 14.7425L34.8793 14.4381C34.6763 14.2353 34.6425 13.9648 34.744 13.6943C34.8455 13.4576 35.0823 13.2547 35.353 13.2547H35.7928V11.7331H35.353ZM31.8346 13.6943C31.1918 13.6943 30.6505 13.1532 30.6505 12.5108C30.6505 11.8684 31.1918 11.3273 31.8346 11.3273C32.4774 11.3273 33.0186 11.8684 33.0186 12.5108C33.0186 13.1532 32.5112 13.6943 31.8346 13.6943Z" fill="#1F5350"/>
  </g>
  <defs>
    <clipPath id="clip0">
      <rect width="127" height="94" fill="white"/>
    </clipPath>
  </defs>
</svg>
