<svg width="429" height="429" viewBox="0 0 429 429" fill="none" xmlns="http://www.w3.org/2000/svg">
<circle cx="214.5" cy="214.5" r="206" fill="white" stroke="#F9F9F9" stroke-width="17"/>
<path d="M337.329 120.37C317.421 78.6266 269.41 61.9876 230.331 83.2518C221.78 87.9061 214.345 93.9857 208.163 101.113L208.109 101.054L104.189 212.059L104.325 212.204C82.2665 237.599 76.0846 275.939 91.6345 308.548C101.302 328.794 117.724 343.775 137.957 350.785C158.164 357.825 179.705 355.992 198.659 345.694C205.304 342.058 211.323 337.491 216.66 332.197L216.742 332.284L218.457 330.452C218.594 330.306 218.73 330.161 218.866 330.015C218.975 329.928 219.029 329.812 219.138 329.725L320.662 221.28L320.58 221.193C321.288 220.495 321.996 219.826 322.677 219.098C346.397 193.762 353.369 153.997 337.329 120.37ZM310.314 191.056C310.314 194.285 307.89 196.874 304.867 196.874H278.07V167.552H253.697V196.874H228.016C225.021 196.874 222.57 194.285 222.57 191.056V142.157C222.57 140.528 223.223 138.987 224.34 137.881L262.765 100.065C264.835 98 268.048 98 270.145 100.065L308.571 137.881C309.687 138.987 310.314 140.528 310.314 142.157V191.056Z" fill="#F9F9F9"/>
</svg>
