<svg width="183" height="36" viewBox="0 0 183 36" fill="none" xmlns="http://www.w3.org/2000/svg">
<path d="M8.61195 25.0609C8.61195 26.0562 8.76212 26.7418 9.06944 27.1142C9.37326 27.49 9.90409 27.678 10.6584 27.678V28.4401C8.03223 28.3427 6.30356 28.2939 5.47589 28.2939C4.64822 28.2939 2.82525 28.3427 0 28.4401V27.678C0.754331 27.678 1.28166 27.49 1.58898 27.1142C1.89281 26.7383 2.04647 26.0527 2.04647 25.0609V4.36416C2.04647 3.2505 1.89281 2.43613 1.58898 1.92803C1.28166 1.41992 0.754331 1.16238 0 1.16238V0.400222C0.754331 0.473306 1.50866 0.508108 2.26299 0.508108C4.79489 0.508108 6.91121 0.337578 8.61195 0V25.0609Z" fill="white"/>
<path d="M21.4219 25.0605C21.4219 26.0558 21.5721 26.7414 21.8794 27.1138C22.1832 27.4896 22.714 27.6776 23.4684 27.6776V28.4397C20.8422 28.3423 15.6317 28.3423 12.8099 28.4397V27.6776C13.5643 27.6776 14.0916 27.4896 14.3989 27.1138C14.7027 26.7379 14.8564 26.0523 14.8564 25.0605V13.5306C14.8564 12.4169 14.7027 11.6026 14.3989 11.0945C14.0951 10.5864 13.5643 10.3323 12.8099 10.3323V9.57014C13.5887 9.64323 14.343 9.67803 15.0729 9.67803C17.6048 9.67803 19.7211 9.5075 21.4219 9.16992V25.0605Z" fill="white"/>
<path d="M42.3156 12.7127C41.9385 12.3612 41.7499 11.8705 41.7499 11.2406C41.7499 10.6594 41.921 10.0295 42.2598 9.35083C41.1876 9.78586 40.3984 10.4053 39.8885 11.2058C40.7895 12.1524 41.24 13.3774 41.24 14.8809C41.24 16.795 40.5276 18.2462 39.1062 19.2276C37.6814 20.209 35.7781 20.6997 33.3929 20.6997C32.9319 20.6997 32.5897 20.6893 32.3696 20.6649C31.7375 21.1 31.4197 21.6115 31.4197 22.1927C31.4197 22.9688 31.8563 23.3551 32.7328 23.3551H36.274C38.757 23.3551 40.6952 23.7727 42.0956 24.6115C43.496 25.4467 44.1945 26.7518 44.1945 28.5197C44.1945 29.7795 43.7859 30.921 42.9722 31.9373C42.1585 32.957 40.9048 33.7678 39.2145 34.3734C37.5242 34.979 35.4114 35.2817 32.883 35.2817C30.3756 35.2817 28.4059 35.0033 26.9706 34.4465C25.5353 33.8897 24.8159 33.0996 24.8159 32.0834C24.8159 31.3804 25.1686 30.7366 25.874 30.1554C26.5795 29.5742 27.6481 29.1114 29.0869 28.7738L29.4501 29.355C28.7936 30.1554 28.4653 30.9315 28.4653 31.6832C28.4653 32.6298 28.8983 33.3607 29.7609 33.8827C30.6235 34.4047 31.8353 34.6657 33.3929 34.6657C34.9993 34.6657 36.2321 34.3456 37.0982 33.7017C37.9608 33.0579 38.3938 32.2052 38.3938 31.1368C38.3938 30.3851 38.1075 29.7865 37.5347 29.3376C36.962 28.8886 35.9597 28.6659 34.5244 28.6659H32.5547C30.8994 28.6659 29.6352 28.3527 28.7586 27.7193C27.8821 27.0894 27.4455 26.2402 27.4455 25.1718C27.4455 24.2008 27.7913 23.3516 28.4862 22.6243C29.1812 21.8969 30.1835 21.2183 31.4966 20.5884C29.6457 20.3448 28.1929 19.7462 27.1347 18.7891C26.0766 17.8321 25.5457 16.527 25.5457 14.8809C25.5457 12.9667 26.2582 11.5155 27.6795 10.5341C29.1044 9.55268 31.0077 9.06198 33.3929 9.06198C35.9492 9.06198 37.9189 9.59445 39.3053 10.6629C39.7663 10.0329 40.3285 9.53528 40.9851 9.17334C41.6416 8.8114 42.3366 8.62695 43.0665 8.62695C43.8697 8.62695 44.4913 8.85316 44.9279 9.29863C45.3644 9.74757 45.5844 10.3218 45.5844 11.0248C45.5844 11.7034 45.4028 12.2429 45.0361 12.6431C44.6694 13.0433 44.2085 13.2417 43.6497 13.2417C43.1398 13.2382 42.6928 13.0642 42.3156 12.7127ZM34.5069 18.8587C34.7619 18.0722 34.8911 16.7428 34.8911 14.8774C34.8911 13.012 34.7619 11.6826 34.5069 10.896C34.252 10.1095 33.8818 9.71277 33.3929 9.71277C32.9075 9.71277 32.5338 10.106 32.2788 10.896C32.0239 11.686 31.8947 13.012 31.8947 14.8774C31.8947 16.7462 32.0239 18.0722 32.2788 18.8587C32.5338 19.6487 32.904 20.042 33.3929 20.042C33.8783 20.0385 34.252 19.6452 34.5069 18.8587Z" fill="white"/>
<path d="M54.8912 11.7839C55.9878 9.96379 57.919 9.05546 60.6954 9.05546C62.6406 9.05546 64.0166 9.5392 64.8198 10.5102C65.183 10.9452 65.4519 11.5334 65.623 12.2746C65.7941 13.0159 65.8779 13.9904 65.8779 15.2015V25.0574C65.8779 26.0527 66.0281 26.7383 66.3354 27.1107C66.6393 27.4865 67.1701 27.6745 67.9244 27.6745V28.4366C65.2982 28.3392 60.2589 28.3392 57.6327 28.4366V27.6745C58.2648 27.6745 58.7013 27.4865 58.9458 27.1107C59.1902 26.7348 59.309 26.0492 59.309 25.0574V13.2386C59.309 12.4626 59.1693 11.8883 58.8899 11.5125C58.6105 11.1366 58.153 10.9487 57.5209 10.9487C56.8155 10.9487 56.2008 11.1993 55.677 11.6934C55.1532 12.1911 54.8912 12.8141 54.8912 13.5658V25.0574C54.8912 26.0527 55.0135 26.7383 55.2579 27.1107C55.5024 27.4865 55.9389 27.6745 56.571 27.6745V28.4366C54.1369 28.3392 49.1011 28.3392 46.2793 28.4366V27.6745C47.0336 27.6745 47.561 27.4865 47.8683 27.1107C48.1721 26.7348 48.3258 26.0492 48.3258 25.0574V4.36416C48.3258 3.2505 48.1721 2.43613 47.8683 1.92803C47.5645 1.41992 47.0336 1.16586 46.2793 1.16586V0.400222C47.0336 0.473306 47.788 0.508108 48.5423 0.508108C51.0742 0.508108 53.1905 0.337578 54.8912 0V11.7839Z" fill="white"/>
<path d="M78.2477 9.56732H81.8238V10.2947H78.2477V25.3883C78.2477 25.872 78.3316 26.2131 78.5027 26.408C78.6738 26.6028 78.9532 26.7003 79.3408 26.7003C79.6342 26.7003 79.9625 26.6168 80.3256 26.4462C80.6888 26.2757 81.0206 26.0112 81.3105 25.6458L81.8588 26.0808C80.7377 27.9949 79.0126 28.9555 76.6762 28.9555C74.9964 28.9555 73.7427 28.5413 72.9185 27.72C72.4087 27.2119 72.0734 26.582 71.9163 25.8302C71.7591 25.0785 71.6788 24.024 71.6788 22.6668V10.2947H68.9059V9.56732H71.6788V5.27276C72.9919 5.27276 74.1792 5.144 75.2374 4.88994C76.2956 4.63589 77.2978 4.22871 78.2477 3.67188V9.56732Z" fill="white"/>
<path d="M91.5748 11.8542C92.6714 10.0341 94.6026 9.12577 97.379 9.12577C99.3242 9.12577 100.7 9.60951 101.503 10.5805C101.867 11.0155 102.135 11.6037 102.307 12.3449C102.478 13.0862 102.561 14.0607 102.561 15.2718V25.1277C102.561 26.123 102.712 26.8086 103.019 27.181C103.323 27.5569 103.854 27.7448 104.608 27.7448V28.507C101.982 28.4095 96.9424 28.4095 94.3162 28.507V27.7448C94.9483 27.7448 95.3849 27.5569 95.6293 27.181C95.8738 26.8051 95.9925 26.1195 95.9925 25.1277V13.309C95.9925 12.5329 95.8528 11.9586 95.5735 11.5828C95.2941 11.2069 94.8366 11.019 94.2045 11.019C93.4991 11.019 92.8844 11.2696 92.3606 11.7638C91.8367 12.2614 91.5748 12.8844 91.5748 13.6361V25.1277C91.5748 26.123 91.697 26.8086 91.9415 27.181C92.186 27.5569 92.6225 27.7448 93.2546 27.7448V28.507C90.8205 28.4095 85.7846 28.4095 82.9629 28.507V27.7448C83.7172 27.7448 84.2445 27.5569 84.5518 27.181C84.8557 26.8051 85.0093 26.1195 85.0093 25.1277V4.43447C85.0093 3.32081 84.8557 2.50645 84.5518 1.99834C84.248 1.49023 83.7172 1.23618 82.9629 1.23618V0.470534C83.7172 0.543618 84.4715 0.57842 85.2259 0.57842C87.7578 0.57842 89.8741 0.407891 91.5748 0.0703125V11.8542Z" fill="white"/>
<path d="M122.453 11.4706C124.084 13.0333 124.898 15.5738 124.898 19.0888C124.898 22.6038 124.081 25.1374 122.453 26.6895C120.822 28.2417 118.51 29.0178 115.518 29.0178C112.525 29.0178 110.213 28.2417 108.582 26.6895C106.951 25.1374 106.137 22.6038 106.137 19.0888C106.137 15.5738 106.951 13.0333 108.582 11.4706C110.213 9.90804 112.525 9.125 115.518 9.125C118.51 9.125 120.822 9.90804 122.453 11.4706ZM113.656 12.1458C113.195 13.6736 112.961 15.9879 112.961 19.0923C112.961 22.1966 113.192 24.5074 113.656 26.0213C114.117 27.5352 114.739 28.2939 115.518 28.2939C116.296 28.2939 116.918 27.5352 117.379 26.0213C117.84 24.5074 118.074 22.1966 118.074 19.0923C118.074 15.9879 117.843 13.6736 117.379 12.1458C116.918 10.618 116.296 9.85584 115.518 9.85584C114.739 9.85236 114.117 10.618 113.656 12.1458Z" fill="white"/>
<path d="M145.299 24.5461C145.299 25.6633 145.449 26.4741 145.757 26.9822C146.061 27.4904 146.591 27.7444 147.346 27.7444V28.5066C146.591 28.4335 145.837 28.3987 145.083 28.3987C142.551 28.3987 140.434 28.5692 138.734 28.9068V26.2897C137.637 28.1098 135.706 29.0182 132.93 29.0182C130.981 29.0182 129.608 28.5344 128.805 27.5634C128.442 27.1284 128.173 26.5403 128.002 25.799C127.831 25.0612 127.747 24.0832 127.747 22.8721V13.6009C127.747 12.4873 127.593 11.6729 127.29 11.1648C126.986 10.6567 126.455 10.4026 125.701 10.4026V9.29244C126.455 9.36552 132.612 9.58129 134.313 9.24023V24.8419C134.313 25.618 134.452 26.1922 134.732 26.5681C135.011 26.944 135.468 27.1319 136.101 27.1319C136.806 27.1319 137.421 26.8848 137.944 26.3871C138.468 25.8895 138.73 25.2665 138.73 24.5148V13.6009C138.73 12.4873 138.577 11.6729 138.273 11.1648C137.969 10.6567 137.438 10.4026 136.684 10.4026V9.29244C137.438 9.36552 143.595 9.58129 145.296 9.24023V24.5461H145.299Z" fill="white"/>
<path d="M159.111 9.43525C159.95 9.64058 160.589 9.86679 161.029 10.1069C161.298 10.2531 161.514 10.3262 161.685 10.3262C162.195 10.3262 162.499 9.93987 162.597 9.16379H163.327C163.229 10.4236 163.18 12.6057 163.18 15.71H162.45C162.255 14.1091 161.801 12.7588 161.081 11.6556C160.362 10.5524 159.325 10.0025 157.959 10.0025C157.351 10.0025 156.838 10.1835 156.426 10.5489C156.01 10.9108 155.804 11.4085 155.804 12.0384C155.804 12.8389 156.073 13.5488 156.608 14.1648C157.142 14.7843 157.983 15.543 159.125 16.4374C159.174 16.4618 159.527 16.7402 160.184 17.2726C161.546 18.3898 162.544 19.3747 163.176 20.2378C163.809 21.0974 164.126 22.1588 164.126 23.4187C164.126 24.4871 163.798 25.4511 163.142 26.3107C162.485 27.1703 161.591 27.8385 160.46 28.3118C159.328 28.7851 158.092 29.0218 156.754 29.0218C155.221 29.0218 153.967 28.719 152.997 28.1134C152.581 27.8942 152.242 27.7376 151.973 27.6401C151.704 27.5427 151.439 27.494 151.17 27.494C150.709 27.494 150.367 27.9185 150.147 28.7677H149.417C149.515 27.3861 149.564 24.9604 149.564 21.4941H150.293C150.513 23.4813 151.048 25.0822 151.9 26.2933C152.752 27.5044 153.821 28.1134 155.113 28.1134C155.72 28.1134 156.227 27.9429 156.628 27.6053C157.03 27.2677 157.229 26.7701 157.229 26.1158C157.229 25.4372 157.089 24.8316 156.81 24.2957C156.531 23.7632 156.188 23.2829 155.787 22.8583C155.385 22.4338 154.736 21.8212 153.835 21.0208C152.811 20.0742 152.033 19.3225 151.498 18.7656C150.964 18.2088 150.507 17.5615 150.129 16.8202C149.752 16.0824 149.564 15.2611 149.564 14.3667C149.564 13.3261 149.878 12.4038 150.513 11.6034C151.146 10.803 151.984 10.1904 153.031 9.76587C154.079 9.34128 155.207 9.12899 156.426 9.12899C157.379 9.12551 158.273 9.22992 159.111 9.43525Z" fill="white"/>
<path d="M181.794 22.6216L182.415 22.8409C181.881 24.5392 180.973 25.9939 179.695 27.205C178.417 28.4161 176.782 29.0252 174.785 29.0252C172.228 29.0252 170.185 28.2386 168.652 26.6621C167.119 25.0856 166.354 22.5659 166.354 19.0962C166.354 15.7761 167.214 13.2843 168.928 11.6207C170.643 9.96067 172.913 9.12891 175.735 9.12891C180.334 9.12891 182.632 11.8435 182.632 17.276H173.217C173.192 17.5684 173.182 18.0034 173.182 18.5846C173.182 20.9128 173.59 22.5729 174.404 23.5682C175.218 24.5636 176.21 25.0577 177.38 25.0577C179.154 25.0577 180.627 24.2434 181.794 22.6216ZM173.074 16.5835H177.306C177.331 14.645 177.191 13.0546 176.887 11.8191C176.583 10.5836 176.115 9.96415 175.483 9.96415C174.118 9.96415 173.315 12.1706 173.074 16.5835Z" fill="white"/>
<path d="M17.9851 7.99372C15.5684 8.06681 11.1298 3.82794 18.7918 0.0275693C19.0677 -0.111638 19.1201 0.285103 19.6823 1.01942C20.5868 2.20269 24.0826 7.80579 17.9851 7.99372Z" fill="white"/>
</svg>
