<svg width="320" height="182" viewBox="0 0 320 182" fill="none" xmlns="http://www.w3.org/2000/svg">
<path d="M253.602 102.957L141.589 160.233L67.188 160.321L86.1774 129.356L95.2312 66.3494L172.962 60.5254L253.602 102.957Z" fill="#C4C4C4" fill-opacity="0.45"/>
<path d="M163.529 90.7897L67.1846 146.485L62.9997 144.068L61.506 143.218L0.0131836 107.864L96.3574 52.1689L157.85 87.5176L157.894 89.2022L159.344 88.372L163.529 90.7897Z" fill="#FFF5B0"/>
<path d="M147.238 92.4883L70.097 137.086L16.3096 106.165L93.4556 61.5674L147.238 92.4883Z" fill="#E8F1FF"/>
<path d="M157.894 89.2032L62.9998 144.069L61.5062 143.219L157.85 87.5186L157.894 89.2032Z" fill="#FF8F17"/>
<path d="M163.52 90.7847L163.496 104.665L67.1567 160.365L67.181 146.49L163.52 90.7847Z" fill="#FF8F17"/>
<path d="M0.0242697 107.874L67.1809 146.49L67.1566 160.365L0 121.749L0.0242697 107.874Z" fill="#EDCE70"/>
<path d="M0.0712891 117.89L0.0857917 111.666L63.8627 148.412L63.848 154.636L0.0712891 117.89Z" fill="#F2F2F2"/>
<path d="M0.0712891 113.303L0.0857917 112.4L63.8627 149.147L63.848 150.05L0.0712891 113.303Z" fill="#D1D1D1"/>
<path d="M0.0712891 115.389L0.0857917 114.486L63.8627 151.233L63.848 152.136L0.0712891 115.389Z" fill="#D1D1D1"/>
<path d="M0.0712891 117.477L0.0857917 116.569L63.8627 153.321L63.848 154.224L0.0712891 117.477Z" fill="#D1D1D1"/>
<path d="M35.48 133.634C35.1815 133.815 34.9032 134.026 34.6498 134.266C33.8776 135.06 33.229 135.967 32.7257 136.955C32.5406 137.3 32.3747 137.654 32.2286 138.018C31.2001 140.177 30.4373 142.467 29.2434 144.56C27.4561 147.574 24.7627 149.945 21.5483 151.334L20.188 145.589L11.9623 145.721C15.1678 144.332 17.8504 141.961 19.624 138.948C20.8183 136.889 21.5812 134.598 22.5763 132.439C22.7426 132.074 22.9079 131.708 23.1067 131.343C23.6102 130.355 24.2589 129.448 25.031 128.653C25.2621 128.426 25.5177 128.226 25.7932 128.055L35.48 133.634Z" fill="#4F4F4F"/>
<g style="mix-blend-mode:multiply">
<g style="mix-blend-mode:multiply">
<path d="M41.4832 98.8941C41.6285 98.25 41.8373 97.6219 42.1064 97.0191C43.1735 94.953 44.651 93.1269 46.448 91.6527C48.245 90.1784 50.3237 89.0871 52.5569 88.4457C56.5851 87.0111 60.849 86.3829 64.9777 85.2741C68.0611 84.5691 71.0035 83.3477 73.6806 81.6615C75.1331 80.7068 76.2773 79.3503 76.9742 77.7567C77.1788 77.2494 77.9422 74.6088 76.9646 74.4049C76.4142 74.2898 74.8343 77.4761 74.3862 77.9703C73.1856 79.2486 71.7536 80.2873 70.1664 81.0314C67.71 82.1082 65.1618 82.9614 62.5526 83.5807C58.825 84.6264 55.1505 85.8427 51.529 87.2296C47.2427 88.8716 42.0763 91.0757 40.7296 95.9782C40.4784 96.7648 40.3946 97.5954 40.4835 98.4165C40.5725 99.2375 40.8322 100.031 41.2461 100.745C41.0424 100.433 41.4041 99.2436 41.4832 98.8941Z" fill="#C4C4C4"/>
</g>
<g style="mix-blend-mode:multiply">
<path d="M120.039 102.322C119.515 102.16 117.685 105.224 117.196 105.664C115.886 106.839 114.37 107.761 112.725 108.385C110.193 109.259 107.586 109.897 104.937 110.292C101.137 111.052 97.3633 111.944 93.6449 113.042C90.345 113.779 87.2528 115.25 84.5967 117.344C83.7879 116.934 82.978 116.524 82.1357 116.112C80.2867 115.245 78.2739 114.337 76.2241 113.493C74.681 112.839 73.1013 112.274 71.4932 111.803C69.5359 111.202 67.5043 110.878 65.4574 110.842C64.2227 110.299 63.1021 109.526 62.1551 108.565C62.4276 108.406 62.6653 108.194 62.8543 107.941C63.0433 107.688 63.1798 107.4 63.2554 107.093C63.331 106.787 63.3443 106.468 63.2946 106.156C63.2449 105.844 63.1331 105.546 62.9659 105.278C61.5527 103.161 59.5839 101.476 57.2759 100.407C55.0121 99.1126 52.6155 98.0669 50.1277 97.2874C48.5919 96.7709 44.8449 95.3347 44.3925 96.3091C44.3455 96.5727 44.7567 96.9617 44.6747 97.2568C44.5356 97.6498 44.2717 97.9864 43.9235 98.2151C43.1181 98.9901 42.4214 99.8709 41.8525 100.833C41.4549 101.382 41.2432 102.043 41.2484 102.72C41.2535 103.398 41.4752 104.056 41.881 104.598C43.4895 106.48 45.6322 107.828 48.0241 108.462C50.7221 109.423 53.5615 109.927 56.4252 109.951C57.4956 109.955 58.5628 109.834 59.6054 109.592C60.7775 110.053 61.8386 110.758 62.7195 111.659C62.0149 112.138 61.4866 112.834 61.2154 113.642C60.7397 115.048 61.3821 116.681 63.3174 118.418C65.9314 120.505 68.9345 122.05 72.1513 122.962C75.3111 124.014 78.6078 124.597 81.9364 124.693C82.1009 124.719 82.2676 124.727 82.4339 124.72C82.834 124.708 83.2651 124.732 83.6666 124.687C85.5453 124.417 87.4426 124.297 89.3403 124.33C90.3023 124.382 91.4224 124.576 92.3544 124.561C95.6558 124.406 92.2575 122.058 90.7164 121.041C89.3561 120.068 87.9383 119.179 86.4705 118.379C88.8268 116.434 91.5987 115.058 94.5716 114.357C98.723 113.251 103.03 112.953 107.23 112.182C110.361 111.718 113.393 110.735 116.202 109.273C117.716 108.439 118.961 107.19 119.79 105.672C120.016 105.184 120.988 102.606 120.039 102.322ZM51.5489 108.487C48.8735 108.051 46.3421 106.976 44.1684 105.355C43.556 104.967 43.1133 104.36 42.9292 103.658C42.7451 102.957 42.8334 102.211 43.1763 101.571C43.2078 101.493 43.245 101.417 43.2878 101.344C43.7077 100.62 44.2745 99.9934 44.9516 99.5032C46.0447 98.7597 47.3471 98.3869 48.6675 98.4394C50.0851 98.5052 51.472 98.8762 52.7336 99.5269C57.1153 101.53 60.1505 103.827 60.0355 105.952C60.0282 107.916 56.8782 109.576 51.5489 108.487ZM85.2877 123.01C84.5054 123.274 83.6915 123.431 82.8675 123.478C82.8006 123.474 82.7332 123.503 82.6662 123.501L81.7653 123.551C79.6436 123.587 77.5241 123.393 75.4438 122.974C72.9619 122.52 70.5539 121.728 68.2869 120.62C66.9052 120.028 65.7229 119.051 64.8809 117.804C64.3354 117.031 64.1128 116.075 64.2602 115.14C64.2459 114.762 64.3308 114.386 64.5066 114.051C64.6824 113.715 64.9427 113.432 65.2619 113.229C66.7318 112.448 68.4499 112.278 70.0438 112.757C72.4909 113.415 74.8706 114.302 77.1513 115.407C79.3193 116.334 81.4281 117.394 83.4655 118.582C83.851 118.836 84.2359 119.09 84.5554 119.34C84.7465 119.484 84.9367 119.661 85.0953 119.803C86.4919 121.045 86.819 122.361 85.2877 123.01Z" fill="#C4C4C4"/>
</g>
</g>
<path d="M101.857 104.218C103.336 103.396 104.816 102.576 106.295 101.756C107.841 100.834 109.471 100.062 111.163 99.4497C112.866 98.8371 114.708 98.7253 116.473 99.1273C117.35 99.3372 118.166 99.7507 118.854 100.334C119.542 100.918 120.084 101.655 120.435 102.487C120.493 102.612 120.512 102.751 120.489 102.887C120.462 102.947 120.422 103.001 120.374 103.045C120.325 103.09 120.268 103.125 120.206 103.147C120.144 103.169 120.078 103.179 120.012 103.175C119.946 103.172 119.882 103.155 119.822 103.126C119.587 102.999 119.385 102.818 119.233 102.598C118.733 101.929 118.06 101.408 117.287 101.092C116.413 100.937 115.514 100.977 114.657 101.21C112.915 101.647 111.25 102.346 109.717 103.283C103.862 106.545 98.298 110.32 92.347 113.403C91.1681 114.051 89.9294 114.582 88.6481 114.99C87.7859 115.294 86.8555 115.347 85.9645 115.144C85.5226 115.034 85.1243 114.792 84.8219 114.452C84.5194 114.111 84.3269 113.687 84.2696 113.234C84.1765 111.376 86.2074 111.791 87.3514 111.597C89.0128 111.219 90.5986 110.564 92.0424 109.659C95.3138 107.844 98.5852 106.031 101.857 104.218Z" fill="#665861"/>
<path d="M58.7477 76.1814C60.2263 75.3599 61.7055 74.5395 63.1857 73.72C64.7311 72.7976 66.361 72.0253 68.0532 71.4135C69.7563 70.8004 71.5992 70.6885 73.3637 71.0911C74.2407 71.3009 75.0561 71.7143 75.7442 72.2977C76.4323 72.8811 76.9738 73.6182 77.325 74.4497C77.3841 74.574 77.4028 74.7137 77.3787 74.8492C77.3514 74.9094 77.3124 74.9635 77.2639 75.0083C77.2154 75.0532 77.1585 75.0878 77.0964 75.1103C77.0343 75.1327 76.9683 75.1425 76.9024 75.139C76.8364 75.1355 76.7719 75.1189 76.7125 75.0901C76.4771 74.9627 76.2753 74.7814 76.1234 74.5609C75.6231 73.8922 74.9509 73.3719 74.1784 73.0558C73.3034 72.9008 72.4049 72.9409 71.5472 73.1733C69.8058 73.6108 68.1404 74.3096 66.6077 75.2459C60.7533 78.5089 55.1878 82.284 49.2374 85.3659C48.0584 86.0137 46.8194 86.5456 45.5379 86.954C45.0215 87.1164 44.4862 87.211 43.9454 87.2356C43.5522 87.2453 43.223 87.0968 42.8287 87.0992C41.8456 87.1059 40.8627 87.0629 39.8838 86.9705C39.1627 86.9025 37.9344 86.3685 38.3335 85.415C38.5838 84.8198 39.3334 84.6591 39.9697 84.5562C40.4575 84.478 40.9427 84.3871 41.4254 84.2833C47.5637 82.4442 53.3998 79.7145 58.7477 76.1814Z" fill="#665861"/>
<path d="M83.9354 108.836C81.2945 106.801 78.3743 105.158 75.265 103.957C73.4744 103.28 71.6476 102.703 69.7932 102.228C68.4571 101.849 67.0722 101.672 65.684 101.703C64.8552 101.712 64.0367 101.887 63.2761 102.216C62.5155 102.546 61.8281 103.024 61.2542 103.623C59.8376 103.073 58.5977 102.147 57.6677 100.944C57.8516 98.3255 57.2745 95.7098 56.006 93.4126C54.4344 90.5684 52.0613 88.2502 49.1827 86.7472C47.1722 85.6006 44.9288 84.9239 42.6202 84.7679C41.3061 84.7067 38.0101 84.111 38.3548 86.4268C38.4989 87.0638 39.009 87.6216 39.1531 88.2586C39.309 89.0944 39.362 89.9461 39.3111 90.7948C39.3135 93.11 39.4511 95.4231 39.7233 97.7223C39.912 100.55 40.7642 103.293 42.2105 105.728C42.8924 106.874 43.8277 107.847 44.9443 108.574C46.061 109.3 47.3294 109.761 48.6517 109.919C49.8041 110.066 50.9749 109.937 52.0672 109.541C53.1595 109.144 54.1419 108.493 54.9328 107.641C55.68 106.785 56.284 105.813 56.7212 104.763C58.0304 105.214 59.1843 106.028 60.0478 107.112C59.9251 108.862 60.0421 110.62 60.3958 112.338C60.9802 115.641 62.5351 118.695 64.8616 121.109C67.1234 123.463 70.1915 124.872 73.4489 125.053C75.056 125.133 76.6588 124.826 78.1229 124.158C79.5871 123.49 80.87 122.48 81.8639 121.213C83.016 119.769 83.7147 117.804 85.2137 116.715C85.957 116.309 86.6513 115.819 87.2828 115.254C89.2836 112.795 85.5792 110.031 83.9354 108.836ZM50.8838 107.635C49.7024 107.984 48.4473 107.999 47.2583 107.676C46.0692 107.354 44.9928 106.707 44.1491 105.809C42.3511 103.749 41.2606 101.166 41.0375 98.4393C41.0161 98.2131 40.9802 98.0534 40.9583 97.8266C40.7446 96.1919 40.6982 94.5397 40.8197 92.8955C40.8165 91.1902 41.3905 89.5342 42.448 88.1974C42.9044 87.8286 43.4573 87.5992 44.0404 87.5364C44.6236 87.4736 45.2125 87.5802 45.7368 87.8435C47.8319 88.48 49.7373 89.6252 51.2836 91.1771C52.8299 92.729 53.969 94.6395 54.5997 96.7386C55.8716 100.935 54.9687 106.49 50.8838 107.635ZM80.4439 119.291C79.2522 121.006 77.5212 122.274 75.5268 122.891C73.5418 123.556 71.3793 123.447 69.4712 122.585C67.7633 121.758 66.3519 120.424 65.4299 118.764C64.4532 117.139 63.7378 115.37 63.3098 113.522C62.7831 112.012 62.5734 110.409 62.6939 108.813C62.8214 107.22 63.6458 105.001 65.4041 104.672C67.5398 104.541 69.677 104.901 71.6528 105.723C74.288 106.397 76.7606 107.595 78.9232 109.246C80.0016 110.103 80.8353 111.23 81.3406 112.512C81.8458 113.794 82.0047 115.187 81.8013 116.551C81.5479 117.55 81.0852 118.484 80.4439 119.291Z" fill="#665861"/>
<path d="M320 143.936L276.373 181.938H219.744V123.32H231.678L320 143.936Z" fill="#C4C4C4" fill-opacity="0.45"/>
<path d="M241.377 176.505C234.203 180.132 226.276 182.014 218.239 182C210.203 181.985 202.283 180.074 195.122 176.421C182.309 169.014 182.245 157.044 194.977 149.685C202.151 146.057 210.078 144.174 218.115 144.189C226.151 144.203 234.072 146.114 241.232 149.768C254.045 157.174 254.11 169.144 241.377 176.505Z" fill="#B58249"/>
<path d="M243.787 171.99C235.868 175.994 227.119 178.072 218.248 178.056C209.377 178.04 200.635 175.93 192.732 171.898C178.589 163.724 178.518 150.511 192.572 142.387C200.49 138.383 209.24 136.305 218.111 136.321C226.981 136.337 235.723 138.447 243.627 142.48C257.769 150.654 257.841 163.866 243.787 171.99Z" fill="#664929"/>
<path d="M235.793 162.713C230.68 165.298 225.031 166.64 219.303 166.629C213.575 166.619 207.93 165.257 202.827 162.653C193.695 157.375 193.649 148.844 202.724 143.598C207.836 141.013 213.486 139.671 219.214 139.681C224.941 139.692 230.586 141.054 235.689 143.658C244.821 148.936 244.868 157.467 235.793 162.713Z" fill="#FFCE99"/>
<path d="M252.648 92.165L218.103 94.2886L183.538 92.165C176.691 102.23 174.092 114.595 176.305 126.569C178.518 138.543 185.364 149.158 195.354 156.104H195.356C196.19 156.763 197.067 157.366 197.981 157.908C204.331 161.155 211.357 162.854 218.487 162.867C225.618 162.88 232.65 161.206 239.012 157.982C239.987 157.419 240.922 156.79 241.811 156.1L241.823 156.104C241.823 156.104 242.129 155.879 242.656 155.445L242.84 155.29C248.188 150.817 272.309 127.794 252.648 92.165Z" fill="#664929"/>
<path d="M209.432 105.072C209.317 108.912 208.534 112.703 207.119 116.274C206.484 117.808 205.685 119.269 204.736 120.631C200.985 125.8 196.138 130.073 190.543 133.146C187.142 135.096 183.444 136.474 179.597 137.226C174.313 126.301 172.31 111.02 183.534 92.1768L199.211 93.1448C199.907 93.5682 200.634 93.9381 201.386 94.2513C204.287 95.4961 207.223 96.2913 208.604 99.5062C209.278 101.28 209.56 103.179 209.432 105.072Z" fill="#996D3E"/>
<path d="M242.829 155.308C242.795 155.342 242.725 155.376 242.656 155.446C242.392 155.68 242.115 155.899 241.827 156.102C240.938 156.788 240.004 157.412 239.03 157.97C232.667 161.206 225.629 162.887 218.492 162.875C211.355 162.863 204.322 161.158 197.97 157.901L197.66 157.694C209.564 155.313 220.45 149.326 228.843 140.545C229.845 139.473 230.777 138.401 231.709 137.26C237.776 129.768 241.946 120.92 243.865 111.469C245.108 105.211 244.59 95.9796 250.011 92.3496L252.636 92.1768C272.319 127.787 248.182 150.813 242.829 155.308Z" fill="#3D2719"/>
<path d="M243.787 112.927C235.868 116.931 227.119 119.009 218.248 118.993C209.377 118.977 200.635 116.867 192.732 112.835C178.589 104.661 178.518 91.4474 192.572 83.3247C200.49 79.3207 209.24 77.2424 218.111 77.2584C226.981 77.2744 235.723 79.3843 243.627 83.4169C257.769 91.5911 257.841 104.804 243.787 112.927Z" fill="#FFCE99"/>
<path d="M236.213 108.552C230.636 111.371 224.474 112.834 218.227 112.823C211.98 112.812 205.823 111.326 200.257 108.486C190.297 102.729 190.247 93.4241 200.145 87.703C205.721 84.8834 211.883 83.4199 218.13 83.4312C224.378 83.4425 230.534 84.9283 236.1 87.7681C246.06 93.5251 246.11 102.83 236.213 108.552Z" fill="#3D2719"/>
<path d="M224.731 46.4417C223.109 45.3738 221.717 43.9903 220.64 42.3733L221.604 41.731C222.596 43.2165 223.875 44.4879 225.366 45.4698L224.731 46.4417Z" fill="#5B705D"/>
<path d="M216.488 32.7966C216.354 32.7994 216.222 32.8338 216.104 32.8972C215.986 32.9605 215.884 33.0509 215.807 33.1611C214.954 34.7271 214.757 36.5682 215.259 38.2797C215.539 39.6137 216.194 40.8398 217.146 41.8136C218.076 42.7955 219.237 43.5283 220.523 43.9449C221.507 44.227 222.674 44.5352 222.741 43.1919C222.773 41.9545 222.55 40.7238 222.088 39.5759C221.526 38.1869 220.783 36.8789 219.877 35.6862C219.382 35.0104 217.682 32.7733 216.488 32.7966Z" fill="#5B705D"/>
<path d="M217.383 61.5132C217.935 61.8145 218.422 62.2239 218.813 62.7173C219.205 63.2106 219.493 63.7777 219.661 64.3848C219.756 65.0266 219.64 65.6819 219.33 66.2515C219.085 66.7469 218.705 67.163 218.235 67.4521C218.041 67.556 217.837 67.6412 217.627 67.7065C217.417 67.7813 217.458 67.924 217.612 68.074C217.434 68.0536 217.265 67.9804 217.128 67.8638C216.992 67.7469 216.875 67.6103 216.78 67.4584C216.722 67.3824 216.684 67.2923 216.671 67.1972C216.663 67.0661 216.74 66.9472 216.879 66.7661C216.961 66.7161 217.148 66.7409 217.243 66.7268C217.407 66.7025 217.565 66.6462 217.708 66.5612C218.01 66.3653 218.254 66.0918 218.415 65.7694C218.617 65.4014 218.697 64.9781 218.641 64.5615C218.347 63.6391 217.706 62.867 216.855 62.4079L217.383 61.5132Z" fill="#5B705D"/>
<path d="M202.579 59.0965C201.885 56.9758 201.962 54.6776 202.797 52.6084C203.223 51.2918 204.028 50.1309 205.112 49.2721C206.196 48.4132 207.509 47.895 208.887 47.7826C211.447 47.6489 213.993 48.2255 216.246 49.4488C218.578 50.641 220.35 52.7001 221.183 55.1849C222.401 59.4028 219.278 62.5129 216.444 65.0923C215.549 66.1115 214.343 66.8075 213.013 67.0728C211.684 67.3381 210.304 67.1581 209.086 66.5604C207.559 65.8146 206.196 64.7698 205.078 63.4879C203.961 62.2059 203.111 60.7127 202.579 59.0965Z" fill="#5B705D"/>
<path d="M236.162 20.8174C227.53 40.892 221.261 61.9038 217.48 83.4292C216.548 88.6497 215.788 93.9051 215.166 99.1256C214.821 102.03 214.545 104.934 214.372 107.873C214.269 109.256 214.235 110.673 214.235 112.056C214.205 112.239 214.193 112.424 214.199 112.609C213.551 112.565 212.905 112.484 212.265 112.367C212.162 111.123 212.093 109.878 212.059 108.633C211.955 106.628 211.92 104.588 211.92 102.583C211.892 96.2701 212.296 89.9629 213.129 83.7055C215.906 61.256 223.785 39.7424 236.162 20.8174Z" fill="#9DC2A1"/>
<path d="M244.173 21.1294C245.728 21.1772 247.223 21.738 248.427 22.7246C249.631 23.7111 250.475 25.0682 250.829 26.5848C251.188 27.7854 251.333 29.0396 251.26 30.2906C251.332 31.9956 250.795 33.6706 249.744 35.0144C249.23 35.6715 248.582 36.2102 247.841 36.594C247.101 36.9777 246.287 37.1975 245.455 37.2384C243.109 37.1544 241.686 35.0061 240.776 33.5846C239.663 31.7279 239.046 29.6156 238.985 27.451C238.85 25.927 239.318 24.411 240.288 23.2289C241.259 22.0468 242.653 21.2929 244.173 21.1294Z" fill="#5B705D"/>
<path d="M258.563 53.2494C259.445 54.5325 259.878 56.0716 259.796 57.6269C259.713 59.1823 259.12 60.6667 258.108 61.8494C257.352 62.8489 256.428 63.7083 255.377 64.3889C254.047 65.4559 252.38 66.013 250.677 65.96C249.844 65.9336 249.026 65.7282 248.279 65.3578C247.533 64.9874 246.874 64.4607 246.349 63.8132C245.898 62.8823 245.678 61.856 245.709 60.8219C245.739 59.7878 246.019 58.7764 246.524 57.8737C247.36 55.8769 248.697 54.1295 250.404 52.7998C251.552 51.79 253.049 51.2714 254.575 51.3555C256.101 51.4396 257.533 52.1196 258.563 53.2494Z" fill="#5B705D"/>
<path d="M223.255 25.1218C224.202 24.9625 225.176 25.121 226.024 25.5727C226.872 26.0244 227.547 26.744 227.945 27.6197C228.306 28.304 228.546 29.0463 228.653 29.8131C228.902 30.8367 228.779 31.916 228.305 32.8567C228.073 33.3166 227.745 33.7213 227.343 34.0432C226.941 34.3652 226.475 34.597 225.976 34.7229C225.338 34.7324 224.707 34.5875 224.137 34.3007C223.567 34.0138 223.074 33.5934 222.701 33.0752C221.803 32.0856 221.174 30.8808 220.876 29.5772C220.61 28.6705 220.711 27.6959 221.156 26.8628C221.601 26.0297 222.355 25.4046 223.255 25.1218Z" fill="#5B705D"/>
<path d="M226.535 24.5264C227.181 24.4974 227.817 24.6827 228.346 25.0535C228.876 25.4243 229.268 25.9597 229.461 26.5766C229.647 27.0627 229.746 27.5774 229.755 28.0976C229.838 28.8013 229.667 29.5116 229.274 30.1007C229.082 30.3887 228.83 30.632 228.536 30.8139C228.241 30.9958 227.911 31.1123 227.568 31.1553C226.594 31.1936 225.937 30.3488 225.517 29.7886C224.998 29.0544 224.677 28.1991 224.584 27.3048C224.481 26.6782 224.628 26.0362 224.993 25.5166C225.358 24.9971 225.912 24.6415 226.535 24.5264Z" fill="#9DC2A1"/>
<path d="M251.571 68.2091C252.126 69.0171 252.399 69.9862 252.347 70.9655C252.295 71.9448 251.922 72.8795 251.284 73.6243C250.809 74.2535 250.227 74.7948 249.565 75.224C248.727 75.8953 247.678 76.2457 246.605 76.2124C246.081 76.1958 245.566 76.0665 245.096 75.8333C244.626 75.6001 244.211 75.2685 243.88 74.8608C243.596 74.2747 243.458 73.6286 243.478 72.9776C243.497 72.3266 243.673 71.6899 243.99 71.1216C244.517 69.8643 245.359 68.7639 246.433 67.926C247.156 67.2903 248.099 66.9639 249.06 67.0168C250.02 67.0697 250.922 67.4978 251.571 68.2091Z" fill="#5B705D"/>
<path d="M208.324 74.8721C209.682 74.9134 210.989 75.4029 212.04 76.2646C213.092 77.1263 213.83 78.3118 214.139 79.6367C214.452 80.6857 214.579 81.7814 214.515 82.8744C214.578 84.3637 214.109 85.8267 213.191 87.0001C212.742 87.5739 212.175 88.0445 211.529 88.3797C210.883 88.715 210.172 88.9071 209.445 88.943C207.395 88.8697 206.152 86.9928 205.357 85.7509C204.385 84.1292 203.846 82.2842 203.792 80.3935C203.675 79.0624 204.084 77.7382 204.931 76.7057C205.779 75.6732 206.997 75.0148 208.324 74.8721Z" fill="#5B705D"/>
<path d="M245.706 52.8922C247.117 52.2081 248.376 51.2468 249.408 50.0658L248.704 49.4507C247.754 50.5354 246.597 51.4187 245.3 52.0485L245.706 52.8922Z" fill="#5B705D"/>
<path d="M256.488 32.871C256.862 32.7355 257.291 32.9249 257.773 33.6759C258.894 35.9029 259.263 38.4341 258.824 40.8889C258.532 42.8984 257.672 44.7824 256.346 46.3191C255.054 47.8651 253.396 49.0621 251.524 49.8005C250.907 50.019 249.452 50.5598 248.832 50.1821C248.253 49.8301 248.643 49.0854 248.917 48.6455C249.432 47.8188 250.005 47.0259 250.477 46.1719C251.374 44.5426 252.225 42.8847 252.974 41.1811C253.724 39.5005 254.352 37.7678 254.852 35.9966C255.087 35.1465 255.643 33.1769 256.488 32.871Z" fill="#5B705D"/>
<path d="M233.553 91.9855C235.111 91.8052 236.616 91.3132 237.979 90.5387L237.517 89.7261C236.263 90.4362 234.88 90.8878 233.448 91.0543L233.553 91.9855Z" fill="#5B705D"/>
<path d="M250.325 76.6426C250.722 76.6383 251.065 76.9582 251.273 77.8258C251.598 80.2986 251.113 82.8104 249.89 84.9834C248.951 86.7836 247.519 88.2781 245.761 89.2911C244.033 90.3243 242.074 90.9069 240.062 90.9859C239.407 90.9893 237.857 91.0195 237.395 90.4583C236.964 89.933 237.579 89.3596 237.982 89.0353C238.74 88.424 239.543 87.8657 240.269 87.2147C241.653 85.9728 243.001 84.6882 244.27 83.3269C245.532 81.9885 246.695 80.5599 247.75 79.0526C248.253 78.3273 249.427 76.6523 250.325 76.6426Z" fill="#5B705D"/>
<path d="M201.829 86.0792C200.272 85.8989 198.766 85.4069 197.402 84.6325L197.865 83.8193C199.119 84.5299 200.503 84.9815 201.934 85.1475L201.829 86.0792Z" fill="#5B705D"/>
<path d="M185.056 70.7354C184.659 70.7315 184.316 71.0509 184.108 71.9195C183.783 74.3921 184.268 76.9037 185.492 79.0761C186.43 80.8764 187.862 82.371 189.62 83.3839C191.348 84.4172 193.308 84.9998 195.319 85.0787C195.974 85.0821 197.525 85.1122 197.986 84.551C198.417 84.0266 197.803 83.4528 197.4 83.128C196.641 82.5173 195.839 81.9585 195.113 81.3074C193.728 80.0665 192.38 78.781 191.111 77.4196C189.849 76.0811 188.686 74.6526 187.631 73.1454C187.129 72.421 185.955 70.7451 185.056 70.7354Z" fill="#5B705D"/>
<path d="M237.371 88.5811C235.437 94.2852 233.399 99.9207 231.396 105.487C230.706 107.492 229.912 109.463 229.014 111.434C227.587 111.839 226.133 112.139 224.663 112.333C227.287 104.278 230.108 96.2796 233.123 88.3389C233.331 87.751 233.572 87.1635 233.779 86.5756C237.267 77.5737 239.87 68.2524 241.549 58.7443C244.447 41.7742 244.971 24.4827 243.103 7.36816C243.379 8.1634 243.621 8.92366 243.897 9.68443C252.496 36.0986 246.004 63.0307 237.371 88.5811Z" fill="#9DC2A1"/>
<path d="M186.765 17.5273C188.32 17.5748 189.815 18.1353 191.019 19.1217C192.223 20.1082 193.067 21.4653 193.421 22.9819C193.779 24.1828 193.925 25.4373 193.852 26.6886C193.924 28.3934 193.386 30.0681 192.335 31.4115C191.822 32.0686 191.173 32.6073 190.433 32.9913C189.693 33.3752 188.879 33.5952 188.047 33.6365C185.701 33.5515 184.277 31.4032 183.368 29.9817C182.255 28.1249 181.638 26.0126 181.576 23.848C181.442 22.3239 181.91 20.8079 182.88 19.626C183.85 18.444 185.245 17.6905 186.765 17.5273Z" fill="#5B705D"/>
<path d="M192.594 56.2101C189.727 55.831 186.966 54.8781 184.474 53.4079L185.35 51.9229C187.643 53.2707 190.182 54.1453 192.817 54.4954L192.594 56.2101Z" fill="#5B705D"/>
<path d="M172.711 43.2574C172.533 43.3481 172.378 43.4796 172.261 43.6413C172.143 43.8029 172.065 43.9901 172.033 44.1877C171.902 46.8416 172.829 49.4389 174.61 51.4089C175.849 53.0162 177.521 54.2357 179.429 54.9238C181.311 55.6379 183.343 55.8673 185.337 55.5909C186.839 55.3307 188.604 54.9884 187.824 53.142C187.065 51.4623 185.97 49.9562 184.607 48.7168C182.956 47.217 181.113 45.9451 179.125 44.9348C178.025 44.3484 174.297 42.4515 172.711 43.2574Z" fill="#5B705D"/>
<path d="M189.267 46.5594C190.618 45.7627 191.794 44.7021 192.727 43.4406L191.976 42.8853C191.117 44.0438 190.034 45.0182 188.793 45.7511L189.267 46.5594Z" fill="#5B705D"/>
<path d="M198.389 25.7264C198.75 25.5618 199.192 25.7143 199.734 26.4246C201.033 28.5527 201.606 31.0458 201.366 33.5283C201.238 35.5546 200.534 37.502 199.337 39.141C198.175 40.7871 196.62 42.1152 194.813 43.0036C194.215 43.272 192.809 43.9294 192.161 43.6032C191.554 43.2983 191.883 42.5249 192.12 42.0641C192.567 41.198 193.074 40.3621 193.474 39.4722C194.238 37.7749 194.95 36.0533 195.56 34.2943C196.171 32.5584 196.656 30.7806 197.011 28.9749C197.176 28.1083 197.571 26.1002 198.389 25.7264Z" fill="#5B705D"/>
<path d="M195.35 59.3777C195.844 57.3168 197.016 55.482 198.678 54.1689C199.54 53.4971 200.568 53.0722 201.652 52.9393C202.736 52.8064 203.836 52.9707 204.835 53.4144C205.813 54.0098 206.594 54.8815 207.079 55.9201C207.733 57.1253 208.135 58.4511 208.261 59.8168C208.386 61.1825 208.233 62.5595 207.811 63.8641C207.319 65.2498 206.52 66.506 205.474 67.5385C204.428 68.5709 203.163 69.3529 201.772 69.8255C195.314 71.95 194.325 63.1073 195.35 59.3777Z" fill="#9DC2A1"/>
<path d="M216.619 112.782C215.962 112.748 215.271 112.713 214.615 112.644C214.477 112.456 214.35 112.26 214.236 112.057C213.476 110.916 212.75 109.775 212.06 108.634C207.82 101.816 204.036 94.7246 200.734 87.4052C193.686 72.0623 189.206 55.6636 187.473 38.8653C186.555 30.1771 187.045 21.3975 188.924 12.8657C188.958 13.3502 188.958 13.7993 188.958 14.2489C188.878 28.2152 190.384 42.1454 193.447 55.771C196.112 64.6688 199.283 73.4069 202.944 81.9424C203.427 83.2222 203.945 84.467 204.463 85.7113C206.777 91.4163 209.332 97.017 211.922 102.583C212.716 104.346 213.545 106.11 214.374 107.873C215.134 109.498 215.894 111.157 216.619 112.782Z" fill="#809E83"/>
<path d="M206.408 106.706C201.684 108.325 195.457 100.753 193.277 97.1191C192.789 96.4157 192.49 95.5981 192.41 94.7455C192.33 93.8928 192.471 93.0339 192.819 92.2516C193.27 91.4151 193.953 90.7274 194.787 90.2719C195.62 89.8164 196.568 89.6126 197.514 89.6853C201.069 90.079 204.343 91.809 206.673 94.5257C208.577 96.4837 211.264 100.627 210.229 103.458C209.861 104.241 209.329 104.936 208.67 105.497C208.011 106.057 207.24 106.469 206.408 106.706Z" fill="#B1CB4E"/>
<path d="M183.618 11.5392C183.693 9.40405 184.484 7.35625 185.861 5.72493C186.579 4.8884 187.509 4.26242 188.554 3.91375C189.599 3.56508 190.718 3.50677 191.794 3.74507C192.88 4.13686 193.826 4.84139 194.513 5.77005C195.4 6.82938 196.062 8.05838 196.46 9.38219C196.857 10.706 196.982 12.097 196.826 13.4704C196.618 14.9381 196.08 16.3395 195.254 17.5694C194.427 18.7994 193.333 19.8258 192.053 20.5717C186.1 23.9662 183.352 15.4294 183.618 11.5392Z" fill="#9DC2A1"/>
<path d="M239.578 5.00972C239.326 3.93112 239.444 2.79904 239.913 1.79577C240.158 1.27975 240.539 0.840177 241.014 0.523892C241.49 0.207607 242.042 0.0265417 242.612 0C243.209 0.0481876 243.778 0.271969 244.248 0.643234C244.835 1.05294 245.333 1.57808 245.711 2.18661C246.09 2.79515 246.34 3.47433 246.448 4.18291C246.542 4.94547 246.463 5.71965 246.216 6.44723C245.97 7.17481 245.561 7.83694 245.022 8.3839C242.503 10.891 239.972 6.99245 239.578 5.00972Z" fill="#9DC2A1"/>
<path d="M233.615 18.2676C233.952 17.2126 234.634 16.3019 235.551 15.6819C236.026 15.3653 236.578 15.1837 237.148 15.1564C237.719 15.1292 238.286 15.2572 238.789 15.527C239.276 15.8754 239.649 16.36 239.862 16.9199C240.156 17.5733 240.314 18.2798 240.327 18.9965C240.34 19.7131 240.207 20.4248 239.936 21.0883C239.626 21.7915 239.161 22.4152 238.576 22.9128C237.991 23.4104 237.301 23.7689 236.558 23.9615C233.11 24.8179 232.937 20.1717 233.615 18.2676Z" fill="#809E83"/>
<path d="M246.591 10.9634C247.167 10.0183 248.044 9.29477 249.081 8.90891C249.617 8.71358 250.196 8.66767 250.757 8.77609C251.318 8.8845 251.838 9.14316 252.264 9.52451C252.654 9.97827 252.902 10.5375 252.977 11.132C253.108 11.8366 253.096 12.5606 252.939 13.26C252.782 13.9594 252.485 14.6196 252.065 15.2004C251.598 15.8102 250.999 16.3061 250.314 16.6511C249.628 16.9961 248.873 17.1811 248.105 17.1923C244.553 17.2088 245.482 12.6529 246.591 10.9634Z" fill="#9DC2A1"/>
<path d="M240.407 43.9522C239.831 43.007 238.953 42.2834 237.916 41.8976C237.38 41.7023 236.8 41.6564 236.24 41.7649C235.679 41.8734 235.159 42.1322 234.734 42.5137C234.342 42.9672 234.094 43.5266 234.02 44.1212C233.888 44.8257 233.901 45.5496 234.058 46.249C234.214 46.9483 234.512 47.6084 234.931 48.189C235.398 48.7989 235.997 49.295 236.683 49.6399C237.369 49.9848 238.124 50.1696 238.892 50.1805C242.444 50.198 241.515 45.6422 240.407 43.9522Z" fill="#9DC2A1"/>
<path d="M218.933 47.193C218.357 46.2478 217.48 45.5241 216.443 45.1384C215.906 44.943 215.327 44.8971 214.766 45.0056C214.206 45.1142 213.685 45.373 213.26 45.7545C212.869 46.2082 212.621 46.7675 212.546 47.362C212.415 48.0665 212.428 48.7905 212.584 49.4898C212.741 50.1891 213.038 50.8492 213.458 51.4299C213.925 52.0398 214.524 52.5359 215.21 52.8808C215.896 53.2258 216.651 53.4105 217.418 53.4214C220.971 53.4384 220.042 48.883 218.933 47.193Z" fill="#9DC2A1"/>
<path d="M217.668 91.9303C217.985 90.6078 218.737 89.4303 219.802 88.5872C220.355 88.1564 221.015 87.8838 221.711 87.7987C222.406 87.7135 223.112 87.819 223.752 88.1037C224.38 88.4858 224.881 89.045 225.193 89.7111C225.612 90.4845 225.87 91.3352 225.951 92.2116C226.032 93.088 225.933 93.9717 225.661 94.8087C225.346 95.6977 224.834 96.5036 224.163 97.1659C223.492 97.8282 222.68 98.3298 221.788 98.633C217.644 99.9962 217.011 94.3223 217.668 91.9303Z" fill="#9DC2A1"/>
<path d="M228.398 55.4639C230.159 55.5173 231.853 56.152 233.217 57.2693C234.58 58.3866 235.536 59.9239 235.937 61.6418C236.343 63.0016 236.509 64.4222 236.426 65.8393C236.482 67.1285 236.222 68.4119 235.669 69.5777C235.117 70.7435 234.288 71.7565 233.255 72.5284C232.075 73.0484 230.775 73.233 229.497 73.0622C228.219 72.8914 227.013 72.3715 226.011 71.5598C223.771 69.1237 222.525 65.9343 222.522 62.6229C222.37 60.8969 222.9 59.1802 223.999 57.8415C225.098 56.5029 226.677 55.6491 228.398 55.4639Z" fill="#5B705D"/>
<path d="M229.706 66.3853C230.768 67.1781 231.538 68.3002 231.898 69.5768C232.257 70.8535 232.185 72.2133 231.693 73.4447C231.357 74.4579 230.847 75.4047 230.186 76.2421C229.666 77.0606 228.953 77.7393 228.111 78.2191C227.269 78.699 226.322 78.9654 225.353 78.9953C224.403 78.8067 223.522 78.3597 222.808 77.7031C222.095 77.0465 221.575 76.2057 221.307 75.2731C220.976 72.8057 221.581 70.3035 223.004 68.2617C223.653 67.1325 224.719 66.3032 225.972 65.9523C227.225 65.6015 228.566 65.7569 229.706 66.3853Z" fill="#9DC2A1"/>
<path d="M240.475 90.7915C238.87 90.8406 237.326 91.4192 236.084 92.4373C234.841 93.4554 233.97 94.8559 233.604 96.4212C233.234 97.6609 233.084 98.9558 233.159 100.247C233.108 101.422 233.345 102.592 233.848 103.654C234.352 104.716 235.107 105.639 236.049 106.343C237.124 106.816 238.309 106.985 239.473 106.829C240.638 106.673 241.737 106.199 242.65 105.46C244.692 103.24 245.826 100.333 245.829 97.316C245.968 95.7431 245.484 94.1785 244.483 92.9585C243.482 91.7385 242.043 90.9605 240.475 90.7915Z" fill="#5B705D"/>
<path d="M227.703 94.3341C226.735 95.0563 226.033 96.0786 225.706 97.242C225.378 98.4053 225.444 99.6445 225.893 100.766C226.199 101.69 226.663 102.553 227.265 103.316C227.739 104.062 228.389 104.68 229.156 105.118C229.924 105.555 230.787 105.798 231.67 105.825C232.536 105.653 233.338 105.245 233.988 104.647C234.639 104.049 235.112 103.283 235.356 102.433C235.66 100.184 235.108 97.9039 233.81 96.0435C233.219 95.0145 232.248 94.259 231.106 93.9394C229.964 93.6197 228.742 93.7615 227.703 94.3341Z" fill="#B1CB4E"/>
<path d="M213.241 94.7839C212.951 94.2245 212.777 93.6126 212.729 92.9846C212.68 92.3565 212.758 91.725 212.958 91.1277C213.238 90.5427 213.701 90.0651 214.276 89.7673C214.756 89.4934 215.303 89.3611 215.855 89.3858C216.074 89.4072 216.29 89.4506 216.5 89.5154C216.716 89.5698 216.762 89.429 216.719 89.2183C216.855 89.3356 216.954 89.4908 217.002 89.6644C217.05 89.8372 217.071 90.0163 217.065 90.1955C217.07 90.2912 217.051 90.3866 217.009 90.4727C216.942 90.5859 216.811 90.6417 216.595 90.7126C216.5 90.7082 216.358 90.5834 216.271 90.5421C216.122 90.4704 215.96 90.4286 215.794 90.4189C215.434 90.4116 215.079 90.5011 214.765 90.6781C214.391 90.8698 214.089 91.1767 213.902 91.5535C213.63 92.4827 213.729 93.4813 214.179 94.3387L213.241 94.7839Z" fill="#5B705D"/>
<path d="M224.157 105.08C223.548 107.227 222.199 109.089 220.351 110.336C219.262 111.188 217.946 111.699 216.567 111.804C215.189 111.908 213.811 111.602 212.606 110.923C210.411 109.6 208.623 107.695 207.439 105.42C206.173 103.125 205.855 100.425 206.553 97.8985C207.903 93.7218 212.229 92.894 216.019 92.3435C217.331 92.0007 218.719 92.0996 219.969 92.6248C221.219 93.15 222.262 94.0723 222.937 95.2496C223.786 96.7234 224.332 98.3527 224.542 100.041C224.751 101.73 224.62 103.443 224.157 105.08Z" fill="#5B705D"/>
<path d="M234.712 86.0239C231.279 85.2141 230.399 78.342 230.461 75.349C230.433 74.7447 230.561 74.1435 230.833 73.6034C231.105 73.0633 231.512 72.6027 232.014 72.2661C232.598 71.9358 233.265 71.7821 233.934 71.8235C234.604 71.865 235.247 72.0998 235.786 72.4996C237.764 74.0727 239.072 76.3391 239.445 78.8406C239.847 80.7277 239.899 84.217 238.217 85.521C237.702 85.8504 237.123 86.0656 236.519 86.1524C235.914 86.2391 235.298 86.1953 234.712 86.0239Z" fill="#B1CB4E"/>
<path d="M192.102 52.7354C190.413 50.0327 194.21 45.0661 196.147 43.1844C196.513 42.7793 196.977 42.4755 197.494 42.3022C198.012 42.129 198.565 42.0922 199.1 42.1954C199.684 42.355 200.21 42.6806 200.613 43.1329C201.016 43.5852 201.279 44.1447 201.371 44.7438C201.642 47.011 201.042 49.2965 199.694 51.1381C198.756 52.6043 196.575 54.8749 194.669 54.6414C194.13 54.5255 193.622 54.2955 193.179 53.9668C192.737 53.638 192.369 53.2181 192.102 52.7354Z" fill="#B1CB4E"/>
<path d="M203.396 85.4409C202.018 83.2353 205.116 79.1813 206.698 77.6462C206.996 77.3154 207.375 77.0673 207.797 76.9258C208.219 76.7844 208.671 76.7544 209.108 76.8389C209.585 76.969 210.014 77.2347 210.343 77.6038C210.672 77.973 210.887 78.4297 210.962 78.9187C211.183 80.769 210.693 82.6342 209.593 84.1373C208.827 85.3345 207.047 87.1877 205.491 86.9969C205.051 86.9021 204.636 86.7142 204.275 86.4459C203.914 86.1775 203.614 85.8348 203.396 85.4409Z" fill="#B1CB4E"/>
</svg>
