<svg width="612" height="264" viewBox="0 0 612 264" fill="none" xmlns="http://www.w3.org/2000/svg">
  <g clip-path="url(#clip0)">
    <path d="M105.178 51.625H14.2617V289.004H105.178V51.625Z" fill="#FBEFE5"/>
    <path d="M105.178 232.647H14.2617V289.003H105.178V232.647Z" fill="#FBEFE5"/>
    <path d="M105.178 51.625H14.2617V172.782H105.178V51.625Z" fill="#FBEFE5"/>
    <path d="M32.3849 134.227C30.0963 134.227 27.9012 135.135 26.282 136.752C24.6629 138.369 23.7522 140.562 23.75 142.849H29.7092C29.7476 142.167 30.0457 141.525 30.5425 141.056C31.0393 140.586 31.6971 140.325 32.3807 140.325C33.0644 140.325 33.7221 140.586 34.2189 141.056C34.7157 141.525 35.0139 142.167 35.0523 142.849H41.0114C41.0092 140.563 40.0996 138.371 38.4823 136.755C36.865 135.138 34.6722 134.229 32.3849 134.227Z" fill="#F3D0B2"/>
    <path d="M32.3839 137.205C30.8855 137.205 29.4483 137.799 28.3879 138.858C27.3276 139.916 26.7308 141.351 26.7285 142.849V164.784H38.0308V142.849C38.0308 141.352 37.4358 139.917 36.3768 138.858C35.3178 137.8 33.8816 137.205 32.3839 137.205Z" fill="#262536"/>
    <path d="M33.3715 138.96C32.1372 138.962 30.9543 139.454 30.0823 140.327C29.2104 141.2 28.7207 142.383 28.7207 143.617V164.767H38.0056V143.617C38.0056 142.386 37.5182 141.206 36.6498 140.333C35.7815 139.46 34.6028 138.967 33.3715 138.96Z" fill="#585661"/>
    <path d="M38.0321 150.881H28.7051V152.846H38.0321V150.881Z" fill="#262536"/>
    <path d="M38.0321 164.767H24.0879V166.446H38.0321V164.767Z" fill="#F3D0B2"/>
    <path d="M38.0316 164.767H36.4785V166.446H38.0316V164.767Z" fill="#262536"/>
    <path d="M60.5334 134.227C58.2447 134.227 56.0496 135.135 54.4305 136.752C52.8114 138.369 51.9007 140.562 51.8984 142.849H57.8661C57.8661 142.142 58.1471 141.464 58.6473 140.964C59.1475 140.464 59.826 140.183 60.5334 140.183C61.2408 140.183 61.9193 140.464 62.4195 140.964C62.9197 141.464 63.2007 142.142 63.2007 142.849H69.1683C69.1661 140.562 68.2554 138.369 66.6363 136.752C65.0172 135.135 62.8221 134.227 60.5334 134.227Z" fill="#F3D0B2"/>
    <path d="M60.5342 137.205C59.0358 137.205 57.5986 137.799 56.5382 138.858C55.4779 139.916 54.8811 141.351 54.8789 142.849V164.784H66.1895V142.849C66.1873 141.351 65.5906 139.916 64.5302 138.858C63.4699 137.799 62.0327 137.205 60.5342 137.205Z" fill="#262536"/>
    <path d="M61.5129 138.96C60.2771 138.96 59.0919 139.451 58.2181 140.324C57.3443 141.197 56.8535 142.382 56.8535 143.617V164.767H66.1384V143.617C66.1385 142.388 65.6522 141.208 64.7856 140.336C63.9191 139.463 62.7427 138.969 61.5129 138.96Z" fill="#585661"/>
    <path d="M66.1729 150.881H56.8457V152.846H66.1729V150.881Z" fill="#262536"/>
    <path d="M66.1728 164.767H52.2285V166.446H66.1728V164.767Z" fill="#F3D0B2"/>
    <path d="M66.1723 164.767H64.6191V166.446H66.1723V164.767Z" fill="#262536"/>
    <path d="M88.6507 134.227C86.362 134.227 84.1669 135.135 82.5478 136.752C80.9286 138.369 80.0179 140.562 80.0156 142.849H85.9833C86.0217 142.167 86.3199 141.525 86.8167 141.056C87.3135 140.586 87.9712 140.325 88.6548 140.325C89.3384 140.325 89.9962 140.586 90.493 141.056C90.9898 141.525 91.288 142.167 91.3264 142.849H97.2856C97.2834 140.562 96.3726 138.369 94.7535 136.752C93.1343 135.135 90.9393 134.227 88.6507 134.227Z" fill="#F3D0B2"/>
    <path d="M88.6509 137.205C87.1532 137.205 85.7169 137.8 84.6579 138.858C83.5989 139.917 83.0039 141.352 83.0039 142.849V164.784H94.2977V142.849C94.2955 141.353 93.6998 139.919 92.6413 138.861C91.5828 137.803 90.1478 137.207 88.6509 137.205Z" fill="#262536"/>
    <path d="M89.6476 138.96C88.4119 138.96 87.2268 139.451 86.353 140.324C85.4792 141.197 84.9883 142.382 84.9883 143.617V164.767H94.2732V143.617C94.2732 142.388 93.787 141.208 92.9205 140.336C92.054 139.463 90.8775 138.969 89.6476 138.96Z" fill="#FA8946"/>
    <path d="M94.3057 150.881H84.9785V152.846H94.3057V150.881Z" fill="#262536"/>
    <path d="M94.3075 164.767H80.3633V166.446H94.3075V164.767Z" fill="#F3D0B2"/>
    <path d="M94.307 164.767H92.7539V166.446H94.307V164.767Z" fill="#262536"/>
    <path d="M38.0308 90.8296H26.7285V118.392H38.0308V90.8296Z" fill="#262536"/>
    <path d="M38.0315 92.5842H28.7129V118.392H38.0315V92.5842Z" fill="#585661"/>
    <path d="M38.0321 104.505H28.7051V106.471H38.0321V104.505Z" fill="#262536"/>
    <path d="M38.0308 86.1726H26.7285V90.8296H38.0308V86.1726Z" fill="#F3D0B2"/>
    <path d="M38.0321 118.392H24.0879V120.07H38.0321V118.392Z" fill="#F3D0B2"/>
    <path d="M38.0316 118.392H36.4785V120.07H38.0316V118.392Z" fill="#262536"/>
    <path d="M66.1636 90.8296H54.8613V118.392H66.1636V90.8296Z" fill="#262536"/>
    <path d="M66.1722 92.5842H56.8535V118.392H66.1722V92.5842Z" fill="#585661"/>
    <path d="M66.165 104.505H56.8379V106.471H66.165V104.505Z" fill="#262536"/>
    <path d="M66.1636 86.1726H54.8613V90.8296H66.1636V86.1726Z" fill="#F3D0B2"/>
    <path d="M66.165 118.392H52.2207V120.07H66.165V118.392Z" fill="#F3D0B2"/>
    <path d="M66.1645 118.392H64.6113V120.07H66.1645V118.392Z" fill="#262536"/>
    <path d="M94.2983 90.8296H82.9961V118.392H94.2983V90.8296Z" fill="#262536"/>
    <path d="M94.307 92.5842H84.9883V118.392H94.307V92.5842Z" fill="#585661"/>
    <path d="M94.3057 104.505H84.9785V106.471H94.3057V104.505Z" fill="#262536"/>
    <path d="M94.2983 86.1726H82.9961V90.8296H94.2983V86.1726Z" fill="#F3D0B2"/>
    <path d="M94.3075 118.392H80.3633V120.07H94.3075V118.392Z" fill="#F3D0B2"/>
    <path d="M94.307 118.392H92.7539V120.07H94.307V118.392Z" fill="#262536"/>
    <path d="M105.195 67.8401H14.2617V73.7963H105.195V67.8401Z" fill="#FBEFE5"/>
    <path d="M105.178 54.6199H14.2617V67.8399H105.178V54.6199Z" fill="#F3D0B2"/>
    <path d="M104.444 58.9648H14.2617V60.205H104.444V58.9648Z" fill="#FBEFE5"/>
    <path d="M24.1886 63.9253H18.3223V67.8399H24.1886V63.9253Z" fill="#FBEFE5"/>
    <path d="M33.4738 63.9253H27.6074V67.8399H33.4738V63.9253Z" fill="#FBEFE5"/>
    <path d="M42.7589 63.9253H36.8926V67.8399H42.7589V63.9253Z" fill="#FBEFE5"/>
    <path d="M52.0519 63.9253H46.1855V67.8399H52.0519V63.9253Z" fill="#FBEFE5"/>
    <path d="M61.3371 63.9253H55.4707V67.8399H61.3371V63.9253Z" fill="#FBEFE5"/>
    <path d="M70.6222 63.9253H64.7559V67.8399H70.6222V63.9253Z" fill="#FBEFE5"/>
    <path d="M79.9073 63.9253H74.041V67.8399H79.9073V63.9253Z" fill="#FBEFE5"/>
    <path d="M89.1906 63.9253H83.3242V67.8399H89.1906V63.9253Z" fill="#FBEFE5"/>
    <path d="M98.4757 63.9253H92.6094V67.8399H98.4757V63.9253Z" fill="#FBEFE5"/>
    <path d="M245.329 51.625H105.178V289.004H245.329V51.625Z" fill="#262536"/>
    <path d="M105.177 51.625H92.7266V54.6115H105.177V51.625Z" fill="#262536"/>
    <path d="M92.7272 51.625H-0.425781V54.6115H92.7272V51.625Z" fill="#FBEFE5"/>
    <path opacity="0.35" d="M105.178 104.463V54.6199H14.2617L105.178 104.463Z" fill="#262536"/>
    <path d="M94.2969 54.6199V59.9518C94.2969 62.0438 95.1283 64.0502 96.6084 65.5295C98.0885 67.0089 100.096 67.8399 102.189 67.8399H105.152V54.6199H94.2969Z" fill="#FBEFE5"/>
    <path d="M97.2852 59.9518C97.2852 62.0439 98.1166 64.0503 99.5967 65.5296C101.077 67.0089 103.084 67.84 105.177 67.84V54.3416H97.2852V59.9518Z" fill="#262536"/>
    <path d="M3.35547 54.6199V59.9518C3.35547 62.0438 4.18694 64.0502 5.66701 65.5295C7.14708 67.0089 9.15449 67.8399 11.2476 67.8399H14.2104V54.6199H3.35547Z" fill="#FBEFE5"/>
    <path d="M6.36914 59.9518C6.36914 62.0438 7.20061 64.0502 8.68068 65.5295C10.1608 67.0089 12.1682 67.8399 14.2613 67.8399V54.6199H6.36914V59.9518Z" fill="#262536"/>
    <path d="M79.889 241.093H18.5664V271.565H79.889V241.093Z" fill="#07202C"/>
    <path d="M79.889 241.093H18.5664V289.004H79.889V241.093Z" fill="#6C797F"/>
    <path d="M20.9467 241.093H18.5664V289.004H20.9467V241.093Z" fill="#262536"/>
    <path d="M79.8883 263.77H20.9375V264.892H79.8883V263.77Z" fill="#7E8D97"/>
    <path d="M79.8883 261.104H20.9375V262.226H79.8883V261.104Z" fill="#7E8D97"/>
    <path d="M79.8883 258.438H20.9375V259.56H79.8883V258.438Z" fill="#7E8D97"/>
    <path d="M79.8883 255.772H20.9375V256.894H79.8883V255.772Z" fill="#7E8D97"/>
    <path d="M79.8883 253.106H20.9375V254.228H79.8883V253.106Z" fill="#7E8D97"/>
    <path d="M79.8883 250.44H20.9375V251.562H79.8883V250.44Z" fill="#7E8D97"/>
    <path d="M79.8883 247.766H20.9375V248.888H79.8883V247.766Z" fill="#7E8D97"/>
    <path d="M79.8883 245.1H20.9375V246.222H79.8883V245.1Z" fill="#7E8D97"/>
    <path d="M79.8883 242.434H20.9375V243.556H79.8883V242.434Z" fill="#7E8D97"/>
    <g style="mix-blend-mode:multiply" opacity="0.35">
      <path d="M79.8974 241.093H18.5664V244.644H79.8974V241.093Z" fill="#60524D"/>
    </g>
    <path d="M98.3733 241.354H82.2598V286.608H98.3733V241.354Z" fill="#262536"/>
    <path d="M98.3737 243.86H85.0879V286.616H98.3737V243.86Z" fill="#815350"/>
    <path d="M98.3747 246.29H87.1738V286.616H98.3747V246.29Z" fill="#694340"/>
    <path d="M98.3733 232.589H82.2598V241.354H98.3733V232.589Z" fill="#262536"/>
    <path d="M92.9368 232.589H79.8789V241.354H92.9368V232.589Z" fill="#C1B9B0"/>
    <path d="M76.2343 232.647H14.2617V241.092H76.2343V232.647Z" fill="#C1B9B0"/>
    <path d="M79.888 232.647H76.2246V241.092H79.888V232.647Z" fill="#262536"/>
    <path d="M38.0308 192.203H26.7285V219.765H38.0308V192.203Z" fill="#262536"/>
    <path d="M38.0295 193.958H28.7109V219.765H38.0295V193.958Z" fill="#FA8946"/>
    <path d="M38.0302 205.878H28.7031V207.844H38.0302V205.878Z" fill="#262536"/>
    <path d="M38.0308 187.546H26.7285V192.203H38.0308V187.546Z" fill="#F3D0B2"/>
    <path d="M38.0321 219.765H24.0879V221.444H38.0321V219.765Z" fill="#F3D0B2"/>
    <path d="M38.0297 219.765H36.4766V221.444H38.0297V219.765Z" fill="#262536"/>
    <path d="M66.1636 192.203H54.8613V219.765H66.1636V192.203Z" fill="#262536"/>
    <path d="M66.1722 193.958H56.8535V219.765H66.1722V193.958Z" fill="#FA8946"/>
    <path d="M66.1631 205.878H56.8359V207.844H66.1631V205.878Z" fill="#262536"/>
    <path d="M66.1636 187.546H54.8613V192.203H66.1636V187.546Z" fill="#F3D0B2"/>
    <path d="M66.163 219.765H52.2188V221.444H66.163V219.765Z" fill="#F3D0B2"/>
    <path d="M66.1626 219.765H64.6094V221.444H66.1626V219.765Z" fill="#262536"/>
    <path d="M94.2964 192.203H82.9941V219.765H94.2964V192.203Z" fill="#262536"/>
    <path d="M94.3031 193.958H84.9844V219.765H94.3031V193.958Z" fill="#585661"/>
    <path d="M94.3057 205.878H84.9785V207.844H94.3057V205.878Z" fill="#262536"/>
    <path d="M94.2964 187.546H82.9941V192.203H94.2964V187.546Z" fill="#F3D0B2"/>
    <path d="M94.3036 219.765H80.3594V221.444H94.3036V219.765Z" fill="#F3D0B2"/>
    <path d="M94.3031 219.765H92.75V221.444H94.3031V219.765Z" fill="#262536"/>
    <path d="M243.082 273.451C257.195 271.161 266.778 257.87 264.487 243.765C262.197 229.659 248.899 220.08 234.786 222.37C220.673 224.659 211.09 237.95 213.38 252.056C215.671 266.162 228.969 275.741 243.082 273.451Z" fill="#204B64"/>
    <path d="M240.517 241.801H237.344V285.351H240.517V241.801Z" fill="#07070A"/>
    <path d="M231.396 250.855L229.158 253.092L237.83 261.76L240.069 259.523L231.396 250.855Z" fill="#07070A"/>
    <path d="M246.497 244.758L237.824 253.426L240.062 255.663L248.735 246.995L246.497 244.758Z" fill="#07070A"/>
    <path d="M201.78 259.727C223.93 254.501 237.648 232.318 232.42 210.18C227.192 188.041 204.998 174.33 182.848 179.555C160.698 184.78 146.98 206.963 152.208 229.102C157.436 251.241 179.63 264.952 201.78 259.727Z" fill="#3678A1"/>
    <path d="M193.914 208.705H190.74V285.342H193.914V208.705Z" fill="#07070A"/>
    <path d="M178.178 225.435L175.939 227.672L191.201 242.926L193.439 240.689L178.178 225.435Z" fill="#07070A"/>
    <path d="M206.478 214.738L191.217 229.992L193.455 232.229L208.717 216.975L206.478 214.738Z" fill="#07070A"/>
    <path d="M170.558 236.269C187.887 218.949 187.887 190.868 170.558 173.548C153.229 156.228 125.133 156.228 107.805 173.548C90.4756 190.868 90.4756 218.949 107.804 236.269C125.133 253.589 153.229 253.589 170.558 236.269Z" fill="#618899"/>
    <path d="M140.771 195.822H137.598V285.342H140.771V195.822Z" fill="#07070A"/>
    <path d="M128.351 208.639L126.113 210.876L138.05 222.807L140.289 220.57L128.351 208.639Z" fill="#07070A"/>
    <path d="M150.009 200.292L138.072 212.223L140.31 214.46L152.248 202.529L150.009 200.292Z" fill="#07070A"/>
    <path d="M149.996 221.124L138.059 233.055L140.297 235.292L152.234 223.361L149.996 221.124Z" fill="#07070A"/>
    <path d="M105.014 263.674C121.457 256.867 129.266 238.025 122.455 221.589C115.644 205.154 96.7918 197.349 80.3481 204.157C63.9044 210.965 56.0958 229.807 62.907 246.242C69.7182 262.677 88.5699 270.482 105.014 263.674Z" fill="#994E42"/>
    <path d="M94.2714 225.409H91.0977V285.342H94.2714V225.409Z" fill="#07070A"/>
    <path d="M81.8788 238.279L79.6406 240.516L91.5778 252.447L93.816 250.21L81.8788 238.279Z" fill="#07070A"/>
    <path d="M103.496 229.864L91.5586 241.795L93.7968 244.032L105.734 232.101L103.496 229.864Z" fill="#07070A"/>
    <path d="M211.843 272.033C221.931 269.642 228.17 259.53 225.778 249.446C223.386 239.363 213.269 233.127 203.181 235.518C193.092 237.909 186.853 248.021 189.245 258.104C191.637 268.188 201.755 274.423 211.843 272.033Z" fill="#994E42"/>
    <path d="M213.387 250.331H210.213V285.351H213.387V250.331Z" fill="#07070A"/>
    <path d="M205.951 257.371L203.713 259.608L210.684 266.576L212.922 264.339L205.951 257.371Z" fill="#07070A"/>
    <path d="M217.667 252.489L210.695 259.457L212.934 261.694L219.905 254.727L217.667 252.489Z" fill="#07070A"/>
    <path d="M135.504 176.958C135.047 176.958 134.6 177.094 134.219 177.348C133.839 177.602 133.542 177.963 133.367 178.385C133.192 178.808 133.147 179.272 133.236 179.721C133.325 180.169 133.545 180.581 133.869 180.904C134.192 181.228 134.604 181.448 135.053 181.537C135.502 181.626 135.967 181.58 136.389 181.405C136.812 181.231 137.173 180.934 137.427 180.554C137.681 180.174 137.817 179.727 137.817 179.27C137.817 178.966 137.757 178.666 137.641 178.385C137.525 178.105 137.354 177.85 137.14 177.635C136.925 177.421 136.67 177.25 136.389 177.134C136.109 177.018 135.808 176.958 135.504 176.958Z" fill="#994E42"/>
    <path d="M125.992 183.893C127.27 183.893 128.305 182.858 128.305 181.581C128.305 180.305 127.27 179.27 125.992 179.27C124.715 179.27 123.68 180.305 123.68 181.581C123.68 182.858 124.715 183.893 125.992 183.893Z" fill="#994E42"/>
    <path d="M80.7489 214.965C80.2908 214.963 79.8425 215.097 79.4608 215.351C79.0792 215.604 78.7815 215.965 78.6054 216.388C78.4293 216.81 78.3828 217.276 78.4718 217.725C78.5607 218.174 78.7812 218.587 79.1051 218.911C79.4291 219.235 79.842 219.455 80.2914 219.544C80.7408 219.633 81.2065 219.586 81.6295 219.41C82.0524 219.234 82.4136 218.937 82.6671 218.555C82.9205 218.174 83.055 217.726 83.0533 217.268C83.0533 216.657 82.8105 216.071 82.3783 215.639C81.9462 215.207 81.3601 214.965 80.7489 214.965Z" fill="#BA7F60"/>
    <path d="M74.4182 219.934C73.9608 219.934 73.5136 220.069 73.1333 220.323C72.753 220.577 72.4565 220.938 72.2815 221.361C72.1064 221.783 72.0607 222.248 72.1499 222.696C72.2392 223.145 72.4594 223.557 72.7829 223.88C73.1063 224.203 73.5183 224.423 73.967 224.513C74.4156 224.602 74.8807 224.556 75.3033 224.381C75.7259 224.206 76.0872 223.91 76.3413 223.53C76.5954 223.15 76.731 222.703 76.731 222.245C76.731 221.632 76.4873 221.044 76.0536 220.611C75.6199 220.177 75.0316 219.934 74.4182 219.934Z" fill="#BA7F60"/>
    <path d="M110.216 239.507C109.758 239.505 109.309 239.639 108.928 239.893C108.546 240.146 108.248 240.507 108.072 240.93C107.896 241.352 107.85 241.818 107.939 242.267C108.028 242.716 108.248 243.129 108.572 243.453C108.896 243.777 109.309 243.997 109.758 244.086C110.207 244.175 110.673 244.128 111.096 243.952C111.519 243.776 111.88 243.479 112.134 243.097C112.387 242.716 112.522 242.268 112.52 241.81C112.52 241.199 112.277 240.613 111.845 240.181C111.413 239.749 110.827 239.507 110.216 239.507Z" fill="#BA7F60"/>
    <path d="M172.881 197.088C172.424 197.088 171.977 197.223 171.596 197.477C171.216 197.731 170.92 198.092 170.744 198.515C170.569 198.937 170.524 199.402 170.613 199.85C170.702 200.299 170.922 200.711 171.246 201.034C171.569 201.357 171.981 201.577 172.43 201.666C172.879 201.756 173.344 201.71 173.766 201.535C174.189 201.36 174.55 201.064 174.804 200.684C175.058 200.303 175.194 199.856 175.194 199.399C175.194 198.786 174.95 198.198 174.517 197.765C174.083 197.331 173.495 197.088 172.881 197.088Z" fill="#994E42"/>
    <path d="M163.461 203.423C163.004 203.423 162.557 203.559 162.176 203.813C161.796 204.067 161.5 204.428 161.324 204.85C161.149 205.273 161.104 205.738 161.193 206.186C161.282 206.634 161.502 207.046 161.826 207.37C162.149 207.693 162.561 207.913 163.01 208.002C163.459 208.091 163.924 208.046 164.346 207.871C164.769 207.696 165.13 207.399 165.384 207.019C165.638 206.639 165.774 206.192 165.774 205.735C165.774 205.122 165.53 204.534 165.097 204.1C164.663 203.667 164.075 203.423 163.461 203.423Z" fill="#994E42"/>
    <path d="M219.39 245.851C220.327 245.851 221.087 245.091 221.087 244.155C221.087 243.218 220.327 242.459 219.39 242.459C218.453 242.459 217.693 243.218 217.693 244.155C217.693 245.091 218.453 245.851 219.39 245.851Z" fill="#BA7F60"/>
    <path d="M215.05 243.328C215.801 243.328 216.409 242.72 216.409 241.97C216.409 241.22 215.801 240.612 215.05 240.612C214.3 240.612 213.691 241.22 213.691 241.97C213.691 242.72 214.3 243.328 215.05 243.328Z" fill="#BA7F60"/>
    <path d="M215.287 201.137C214.83 201.137 214.383 201.273 214.003 201.527C213.622 201.781 213.326 202.142 213.151 202.564C212.976 202.987 212.93 203.451 213.019 203.9C213.108 204.348 213.329 204.76 213.652 205.083C213.976 205.407 214.388 205.627 214.836 205.716C215.285 205.805 215.75 205.759 216.173 205.584C216.595 205.41 216.956 205.113 217.211 204.733C217.465 204.353 217.6 203.906 217.6 203.449C217.6 202.836 217.357 202.248 216.923 201.814C216.489 201.381 215.901 201.137 215.287 201.137Z" fill="#204B64"/>
    <path d="M207.614 202.597C207.156 202.597 206.709 202.732 206.329 202.986C205.948 203.24 205.652 203.601 205.477 204.024C205.302 204.446 205.256 204.911 205.345 205.359C205.434 205.808 205.655 206.22 205.978 206.543C206.302 206.866 206.714 207.086 207.162 207.175C207.611 207.265 208.076 207.219 208.499 207.044C208.921 206.869 209.282 206.573 209.537 206.193C209.791 205.812 209.926 205.365 209.926 204.908C209.927 204.604 209.868 204.303 209.753 204.022C209.637 203.741 209.466 203.486 209.251 203.271C209.036 203.056 208.781 202.886 208.5 202.77C208.219 202.655 207.918 202.596 207.614 202.597Z" fill="#204B64"/>
    <path d="M190.015 191.57C189.557 191.568 189.109 191.703 188.727 191.956C188.346 192.209 188.048 192.569 187.872 192.991C187.696 193.413 187.648 193.879 187.737 194.327C187.825 194.776 188.045 195.189 188.368 195.513C188.691 195.837 189.103 196.058 189.552 196.148C190.001 196.238 190.466 196.193 190.889 196.018C191.312 195.843 191.674 195.547 191.929 195.167C192.183 194.787 192.319 194.339 192.319 193.882C192.319 193.27 192.076 192.683 191.645 192.25C191.213 191.817 190.627 191.572 190.015 191.57Z" fill="#204B64"/>
    <path d="M247.598 230.117C247.141 230.117 246.693 230.252 246.313 230.506C245.933 230.76 245.636 231.121 245.461 231.544C245.286 231.966 245.24 232.431 245.33 232.879C245.419 233.328 245.639 233.74 245.963 234.063C246.286 234.386 246.698 234.606 247.147 234.695C247.595 234.785 248.06 234.739 248.483 234.564C248.906 234.389 249.267 234.093 249.521 233.713C249.775 233.332 249.911 232.885 249.911 232.428C249.911 231.815 249.667 231.227 249.233 230.794C248.8 230.36 248.211 230.117 247.598 230.117Z" fill="#3678A1"/>
    <path d="M253.026 236.478C252.568 236.478 252.121 236.613 251.741 236.867C251.36 237.121 251.064 237.482 250.889 237.905C250.714 238.327 250.668 238.792 250.757 239.24C250.847 239.689 251.067 240.101 251.39 240.424C251.714 240.747 252.126 240.967 252.575 241.057C253.023 241.146 253.488 241.1 253.911 240.925C254.333 240.75 254.695 240.454 254.949 240.074C255.203 239.693 255.339 239.247 255.339 238.789C255.339 238.176 255.095 237.588 254.661 237.155C254.227 236.721 253.639 236.478 253.026 236.478Z" fill="#3678A1"/>
    <path d="M229.189 113.094C230.16 113.169 291.17 117.877 381.496 121.429V120.99C291.179 117.438 230.194 112.731 229.223 112.655L229.189 113.094Z" fill="#07070A"/>
    <path d="M229.189 118.063C230.16 118.139 291.17 122.846 381.496 126.398V125.951C291.179 122.399 230.194 117.691 229.223 117.615L229.189 118.063Z" fill="#07070A"/>
    <path d="M229.189 123.032C230.16 123.108 291.17 127.815 381.496 131.367V130.92C291.179 127.368 230.194 122.66 229.223 122.584L229.189 123.032Z" fill="#07070A" fill-opacity="0.2"/>
    <path d="M229.189 128.001C230.16 128.077 291.17 132.784 381.496 136.336V135.889C291.179 132.346 230.194 127.63 229.223 127.554L229.189 128.001Z" fill="#07070A" fill-opacity="0.2"/>
    <path d="M247.734 159.621H242.863V165.392H247.734V159.621Z" fill="#07070A"/>
    <path d="M255.49 200.462H250.619V206.233H255.49V200.462Z" fill="#07070A"/>
    <path d="M253.051 79.4656H247.725V296.841H253.051V79.4656Z" fill="#6B4847"/>
    <path d="M253.052 79.4656H250.646V296.841H253.052V79.4656Z" fill="#07070A"/>
    <path d="M247.724 131.595H245.107V296.841H247.724V131.595Z" fill="#C1B9B0"/>
    <path d="M247.724 223.081H245.107V296.85H247.724V223.081Z" fill="#91A2AE"/>
    <path d="M237.156 110.023V129.427C237.156 130.132 237.436 130.808 237.935 131.306C238.434 131.804 239.11 132.084 239.815 132.084H247.758V130.346H239.815C239.69 130.353 239.565 130.335 239.447 130.291C239.33 130.248 239.222 130.182 239.132 130.096C239.041 130.009 238.968 129.906 238.919 129.791C238.87 129.676 238.844 129.552 238.844 129.427V110.023C238.844 109.902 238.868 109.783 238.915 109.672C238.961 109.561 239.029 109.46 239.114 109.375C239.2 109.291 239.301 109.224 239.413 109.179C239.525 109.133 239.644 109.11 239.764 109.112H247.707V107.365H239.764C239.068 107.378 238.405 107.664 237.917 108.161C237.429 108.658 237.156 109.327 237.156 110.023Z" fill="#6B4847"/>
    <path d="M247.725 111.778H226.074V112.798H247.725V111.778Z" fill="#07070A"/>
    <path d="M247.725 116.662H226.074V117.683H247.725V116.662Z" fill="#07070A"/>
    <path d="M247.725 121.547H226.074V122.568H247.725V121.547Z" fill="#07070A"/>
    <path d="M247.725 126.44H226.074V127.461H247.725V126.44Z" fill="#07070A"/>
    <path d="M231.248 110.976H227.095C226.748 110.976 226.416 111.114 226.17 111.359C225.925 111.604 225.787 111.937 225.787 112.284C225.787 112.631 225.925 112.963 226.17 113.208C226.416 113.454 226.748 113.591 227.095 113.591H231.248C231.595 113.591 231.928 113.454 232.173 113.208C232.419 112.963 232.557 112.631 232.557 112.284C232.557 111.937 232.419 111.604 232.173 111.359C231.928 111.114 231.595 110.976 231.248 110.976Z" fill="#07070A"/>
    <path d="M231.25 115.869H227.097C226.917 115.855 226.736 115.878 226.565 115.937C226.394 115.996 226.237 116.089 226.105 116.212C225.972 116.334 225.866 116.483 225.793 116.648C225.721 116.813 225.684 116.992 225.684 117.173C225.684 117.353 225.721 117.532 225.793 117.697C225.866 117.863 225.972 118.011 226.105 118.134C226.237 118.256 226.394 118.35 226.565 118.409C226.736 118.468 226.917 118.491 227.097 118.476H231.25C231.43 118.491 231.611 118.468 231.782 118.409C231.953 118.35 232.109 118.256 232.242 118.134C232.375 118.011 232.481 117.863 232.553 117.697C232.626 117.532 232.663 117.353 232.663 117.173C232.663 116.992 232.626 116.813 232.553 116.648C232.481 116.483 232.375 116.334 232.242 116.212C232.109 116.089 231.953 115.996 231.782 115.937C231.611 115.878 231.43 115.855 231.25 115.869Z" fill="#07070A"/>
    <path d="M231.248 120.754H227.095C226.748 120.754 226.416 120.892 226.17 121.137C225.925 121.382 225.787 121.715 225.787 122.062C225.787 122.408 225.925 122.741 226.17 122.986C226.416 123.231 226.748 123.369 227.095 123.369H231.248C231.595 123.369 231.928 123.231 232.173 122.986C232.419 122.741 232.557 122.408 232.557 122.062C232.557 121.715 232.419 121.382 232.173 121.137C231.928 120.892 231.595 120.754 231.248 120.754Z" fill="#07070A"/>
    <path d="M231.25 125.647H227.097C226.917 125.633 226.736 125.655 226.565 125.714C226.394 125.773 226.237 125.867 226.105 125.989C225.972 126.112 225.866 126.261 225.793 126.426C225.721 126.591 225.684 126.77 225.684 126.95C225.684 127.131 225.721 127.31 225.793 127.475C225.866 127.64 225.972 127.789 226.105 127.912C226.237 128.034 226.394 128.128 226.565 128.187C226.736 128.245 226.917 128.268 227.097 128.254H231.25C231.43 128.268 231.611 128.245 231.782 128.187C231.953 128.128 232.109 128.034 232.242 127.912C232.375 127.789 232.481 127.64 232.553 127.475C232.626 127.31 232.663 127.131 232.663 126.95C232.663 126.77 232.626 126.591 232.553 126.426C232.481 126.261 232.375 126.112 232.242 125.989C232.109 125.867 231.953 125.773 231.782 125.714C231.611 125.655 231.43 125.633 231.25 125.647Z" fill="#07070A"/>
    <path d="M253.05 176.393H245.107V178.35H253.05V176.393Z" fill="#4F3844"/>
    <path d="M253.05 171.71H245.107V173.668H253.05V171.71Z" fill="#4F3844"/>
    <path d="M253.05 167.028H245.107V168.986H253.05V167.028Z" fill="#4F3844"/>
    <path d="M131.268 235.162H126.643V249.808H131.268V235.162Z" fill="#07070A"/>
    <path d="M114.849 93.4954H98.4062V95.731H114.849C117.088 95.731 119.235 96.6199 120.818 98.202C122.401 99.7842 123.29 101.93 123.29 104.168V296.841H125.527V104.193C125.522 101.361 124.397 98.6469 122.396 96.6424C120.395 94.6379 117.682 93.5065 114.849 93.4954Z" fill="#DEDEDE"/>
    <path d="M124.582 197.172H124.286C123.739 197.174 123.215 197.393 122.829 197.78C122.443 198.168 122.227 198.692 122.227 199.239V296.841H126.641V199.239C126.641 198.692 126.424 198.168 126.038 197.78C125.652 197.393 125.129 197.174 124.582 197.172Z" fill="#B0997F"/>
    <path d="M104.451 93.4785H89.5365C88.469 93.4785 87.6035 94.3435 87.6035 95.4105V97.6462C87.6035 98.7132 88.469 99.5781 89.5365 99.5781H104.451C105.519 99.5781 106.384 98.7132 106.384 97.6462V95.4105C106.384 94.3435 105.519 93.4785 104.451 93.4785Z" fill="#DEDEDE"/>
    <path d="M115.955 95.7312H114.85C117.088 95.7312 119.235 96.6201 120.818 98.2022C122.401 99.7844 123.29 101.93 123.29 104.168V197.459C122.963 197.63 122.688 197.887 122.494 198.201C122.301 198.516 122.197 198.878 122.193 199.247V296.858H123.29V199.247C123.294 198.877 123.399 198.514 123.594 198.199C123.789 197.884 124.066 197.628 124.396 197.459V104.193C124.4 103.083 124.184 101.983 123.761 100.957C123.338 99.9303 122.717 98.9972 121.933 98.2111C121.149 97.4251 120.217 96.8014 119.191 96.3758C118.166 95.9503 117.066 95.7312 115.955 95.7312Z" fill="#07070A"/>
    <path d="M104.451 93.4617C104.451 93.4617 104.51 93.4617 104.536 93.4617H105.616C105.594 93.4682 105.57 93.4682 105.548 93.4617H104.451Z" fill="#07070A"/>
    <path d="M44.9253 259.349C44.0285 259.349 43.1517 259.615 42.4061 260.113C41.6606 260.611 41.0797 261.319 40.7368 262.148C40.394 262.976 40.3047 263.887 40.4803 264.766C40.6559 265.646 41.0885 266.453 41.7232 267.086C42.358 267.719 43.1664 268.15 44.0462 268.324C44.926 268.498 45.8376 268.407 46.6657 268.063C47.4938 267.718 48.2012 267.136 48.6982 266.39C49.1953 265.644 49.4597 264.767 49.458 263.871C49.458 263.277 49.3407 262.688 49.1128 262.139C48.8849 261.589 48.5509 261.091 48.1299 260.671C47.7089 260.251 47.2091 259.918 46.6592 259.691C46.1093 259.464 45.5202 259.348 44.9253 259.349Z" fill="#7C8894"/>
    <g style="mix-blend-mode:overlay">
      <path d="M89.7726 99.5781L-14.7754 296.841H208.763L104.223 99.5781H89.7726Z" fill="#FBD5A2"/>
    </g>
    <path d="M274.168 28.8542H178.764V331.75H274.168V28.8542Z" fill="#9C6D6B"/>
    <path d="M274.168 28.863H178.764V202.776H274.168V28.863Z" fill="#9C6D6B"/>
    <path d="M274.168 32.0034H178.764V45.9041H274.168V32.0034Z" fill="#928C87"/>
    <path d="M273.397 36.5718H178.764V37.8758H273.397V36.5718Z" fill="#C1B9B0"/>
    <path d="M189.187 41.7969H183.031V45.913H189.187V41.7969Z" fill="#C1B9B0"/>
    <path d="M198.931 41.7969H192.775V45.913H198.931V41.7969Z" fill="#C1B9B0"/>
    <path d="M208.674 41.7969H202.518V45.913H208.674V41.7969Z" fill="#C1B9B0"/>
    <path d="M218.418 41.7969H212.262V45.913H218.418V41.7969Z" fill="#C1B9B0"/>
    <path d="M228.162 41.7969H222.006V45.913H228.162V41.7969Z" fill="#C1B9B0"/>
    <path d="M237.904 41.7969H231.748V45.913H237.904V41.7969Z" fill="#C1B9B0"/>
    <path d="M247.648 41.7969H241.492V45.913H247.648V41.7969Z" fill="#C1B9B0"/>
    <path d="M257.39 41.7969H251.234V45.913H257.39V41.7969Z" fill="#C1B9B0"/>
    <path d="M267.133 41.7969H260.977V45.913H267.133V41.7969Z" fill="#C1B9B0"/>
    <path d="M274.168 250.023H178.764V272.741H274.168V250.023Z" fill="#262536"/>
    <path d="M269.242 246.918H173.838V250.023H269.242V246.918Z" fill="#C1B9B0"/>
    <path d="M421.236 28.8542H274.166V331.75H421.236V28.8542Z" fill="#464564"/>
    <path d="M196.948 148.052C194.546 148.052 192.243 149.007 190.544 150.707C188.845 152.407 187.889 154.713 187.887 157.118H194.14C194.18 156.401 194.493 155.726 195.015 155.232C195.536 154.739 196.226 154.464 196.944 154.464C197.661 154.464 198.351 154.739 198.872 155.232C199.394 155.726 199.707 156.401 199.747 157.118H206C205.998 154.714 205.043 152.41 203.346 150.71C201.649 149.01 199.348 148.054 196.948 148.052Z" fill="#B08279"/>
    <path d="M196.946 151.183C196.167 151.182 195.396 151.335 194.676 151.633C193.956 151.93 193.302 152.367 192.75 152.918C192.199 153.47 191.762 154.124 191.464 154.845C191.165 155.565 191.012 156.338 191.012 157.118V180.182H202.872V157.118C202.873 156.338 202.721 155.566 202.423 154.845C202.126 154.125 201.689 153.47 201.139 152.919C200.588 152.368 199.935 151.931 199.215 151.633C198.496 151.335 197.725 151.182 196.946 151.183Z" fill="#262536"/>
    <path d="M197.984 153.029C196.689 153.031 195.447 153.548 194.532 154.466C193.617 155.384 193.104 156.628 193.104 157.925V180.165H202.847V157.925C202.847 156.631 202.335 155.39 201.424 154.472C200.513 153.555 199.276 153.036 197.984 153.029Z" fill="#585661"/>
    <path d="M202.882 170.522H193.104V180.164H202.882V170.522Z" fill="#414048"/>
    <path d="M202.873 165.563H193.086V167.63H202.873V165.563Z" fill="#262536"/>
    <path d="M202.873 180.165H188.24V181.93H202.873V180.165Z" fill="#C1B9B0"/>
    <path d="M202.872 180.165H201.242V181.93H202.872V180.165Z" fill="#262536"/>
    <path d="M226.469 148.052C224.068 148.052 221.764 149.007 220.065 150.707C218.366 152.407 217.411 154.713 217.408 157.118H223.67C223.67 156.375 223.965 155.662 224.49 155.136C225.015 154.61 225.727 154.315 226.469 154.315C227.212 154.315 227.924 154.61 228.449 155.136C228.974 155.662 229.268 156.375 229.268 157.118H235.531C235.528 154.713 234.573 152.407 232.874 150.707C231.175 149.007 228.871 148.052 226.469 148.052Z" fill="#B08279"/>
    <path d="M226.47 151.183C225.691 151.182 224.919 151.335 224.199 151.633C223.479 151.93 222.825 152.367 222.274 152.918C221.723 153.47 221.285 154.124 220.987 154.845C220.689 155.565 220.535 156.338 220.535 157.118V180.182H232.404V157.118C232.404 156.338 232.251 155.565 231.952 154.845C231.654 154.124 231.217 153.47 230.665 152.918C230.114 152.367 229.46 151.93 228.74 151.633C228.02 151.335 227.249 151.182 226.47 151.183Z" fill="#262536"/>
    <path d="M227.514 153.029C226.218 153.029 224.974 153.544 224.057 154.463C223.14 155.381 222.625 156.627 222.625 157.925V180.165H232.368V157.925C232.368 156.633 231.858 155.393 230.949 154.475C230.039 153.558 228.805 153.038 227.514 153.029Z" fill="#585661"/>
    <path d="M232.404 170.522H222.625V180.164H232.404V170.522Z" fill="#414048"/>
    <path d="M232.403 165.563H222.615V167.63H232.403V165.563Z" fill="#262536"/>
    <path d="M232.404 180.165H217.771V181.93H232.404V180.165Z" fill="#C1B9B0"/>
    <path d="M232.403 180.165H230.773V181.93H232.403V180.165Z" fill="#262536"/>
    <path d="M255.991 148.052C253.589 148.052 251.286 149.007 249.587 150.707C247.888 152.407 246.932 154.713 246.93 157.118H253.192C253.232 156.4 253.545 155.726 254.066 155.232C254.588 154.739 255.278 154.464 255.995 154.464C256.713 154.464 257.403 154.739 257.924 155.232C258.446 155.726 258.758 156.4 258.799 157.118H265.07C265.069 155.925 264.833 154.745 264.376 153.644C263.919 152.542 263.25 151.542 262.407 150.7C261.563 149.858 260.563 149.191 259.462 148.737C258.361 148.282 257.182 148.049 255.991 148.052Z" fill="#B08279"/>
    <path d="M255.99 151.183C255.212 151.182 254.441 151.335 253.721 151.633C253.002 151.931 252.348 152.368 251.797 152.919C251.247 153.47 250.811 154.125 250.513 154.845C250.216 155.566 250.063 156.338 250.064 157.118V180.182H261.925V157.118C261.925 156.338 261.771 155.565 261.473 154.845C261.174 154.124 260.737 153.47 260.186 152.918C259.635 152.367 258.98 151.93 258.261 151.633C257.541 151.335 256.769 151.182 255.99 151.183Z" fill="#262536"/>
    <path d="M257.036 153.029C255.739 153.029 254.495 153.544 253.579 154.463C252.662 155.381 252.146 156.627 252.146 157.925V180.165H261.89V157.925C261.89 156.633 261.38 155.393 260.47 154.475C259.561 153.558 258.326 153.038 257.036 153.029Z" fill="#FFA163"/>
    <path d="M261.925 170.522H252.146V180.164H261.925V170.522Z" fill="#EB7D33"/>
    <path d="M261.926 165.563H252.139V167.63H261.926V165.563Z" fill="#262536"/>
    <path d="M261.926 180.165H247.293V181.93H261.926V180.165Z" fill="#C1B9B0"/>
    <path d="M261.927 180.165H260.297V181.93H261.927V180.165Z" fill="#262536"/>
    <path d="M196.948 201.339C194.545 201.341 192.242 202.298 190.543 204C188.844 205.701 187.889 208.008 187.887 210.414H194.14C194.18 209.697 194.493 209.022 195.015 208.528C195.536 208.035 196.226 207.76 196.944 207.76C197.661 207.76 198.351 208.035 198.872 208.528C199.394 209.022 199.707 209.697 199.747 210.414H206C206 208.009 205.047 205.702 203.349 204C201.652 202.299 199.35 201.341 196.948 201.339Z" fill="#B08279"/>
    <path d="M196.946 204.471C195.372 204.471 193.863 205.097 192.75 206.212C191.637 207.326 191.012 208.838 191.012 210.414V233.478H202.872V210.414C202.873 209.634 202.721 208.861 202.423 208.14C202.126 207.419 201.69 206.764 201.139 206.212C200.589 205.66 199.935 205.222 199.216 204.923C198.496 204.625 197.725 204.471 196.946 204.471Z" fill="#262536"/>
    <path d="M197.984 206.325C196.689 206.327 195.447 206.844 194.532 207.762C193.617 208.68 193.104 209.924 193.104 211.221V233.452H202.847V211.221C202.847 209.927 202.335 208.686 201.424 207.768C200.513 206.851 199.276 206.332 197.984 206.325Z" fill="#FBBE76"/>
    <path d="M202.882 223.818H193.104V233.461H202.882V223.818Z" fill="#FFA163"/>
    <path d="M202.873 218.859H193.086V220.926H202.873V218.859Z" fill="#262536"/>
    <path d="M202.873 233.452H188.24V235.217H202.873V233.452Z" fill="#C1B9B0"/>
    <path d="M202.872 233.452H201.242V235.217H202.872V233.452Z" fill="#262536"/>
    <path d="M226.469 201.339C224.067 201.341 221.764 202.298 220.065 204C218.366 205.701 217.411 208.008 217.408 210.414H223.67C223.67 209.671 223.965 208.958 224.49 208.432C225.015 207.906 225.727 207.611 226.469 207.611C227.212 207.611 227.924 207.906 228.449 208.432C228.974 208.958 229.268 209.671 229.268 210.414H235.531C235.528 208.008 234.573 205.701 232.874 204C231.175 202.298 228.872 201.341 226.469 201.339Z" fill="#B08279"/>
    <path d="M226.47 204.471C224.896 204.471 223.386 205.097 222.273 206.212C221.16 207.326 220.535 208.838 220.535 210.414V233.478H232.404V210.414C232.404 208.838 231.779 207.326 230.666 206.212C229.553 205.097 228.044 204.471 226.47 204.471Z" fill="#262536"/>
    <path d="M227.514 206.325C226.218 206.325 224.974 206.841 224.057 207.759C223.14 208.677 222.625 209.923 222.625 211.221V233.452H232.368V211.221C232.368 209.929 231.858 208.689 230.949 207.771C230.039 206.854 228.805 206.334 227.514 206.325Z" fill="#FBBE76"/>
    <path d="M232.404 223.818H222.625V233.461H232.404V223.818Z" fill="#FFA163"/>
    <path d="M232.403 218.859H222.615V220.926H232.403V218.859Z" fill="#262536"/>
    <path d="M232.404 233.452H217.771V235.217H232.404V233.452Z" fill="#C1B9B0"/>
    <path d="M232.403 233.452H230.773V235.217H232.403V233.452Z" fill="#262536"/>
    <path d="M255.991 201.339C253.588 201.341 251.285 202.298 249.586 204C247.887 205.701 246.932 208.008 246.93 210.414H253.192C253.232 209.697 253.545 209.022 254.066 208.528C254.588 208.035 255.278 207.76 255.995 207.76C256.713 207.76 257.403 208.035 257.924 208.528C258.446 209.022 258.758 209.697 258.799 210.414H265.07C265.069 209.221 264.833 208.04 264.376 206.938C263.919 205.837 263.25 204.836 262.407 203.993C261.564 203.151 260.563 202.483 259.463 202.027C258.362 201.572 257.182 201.338 255.991 201.339Z" fill="#B08279"/>
    <path d="M255.99 204.471C255.211 204.471 254.44 204.625 253.72 204.923C253.001 205.222 252.347 205.66 251.797 206.212C251.247 206.764 250.81 207.419 250.513 208.14C250.216 208.861 250.063 209.634 250.064 210.414V233.478H261.925V210.414C261.925 208.838 261.299 207.326 260.186 206.212C259.074 205.097 257.564 204.471 255.99 204.471Z" fill="#262536"/>
    <path d="M257.036 206.325C255.739 206.325 254.495 206.841 253.579 207.759C252.662 208.677 252.146 209.923 252.146 211.221V233.452H261.89V211.221C261.89 209.929 261.38 208.689 260.47 207.771C259.561 206.854 258.326 206.334 257.036 206.325Z" fill="#585661"/>
    <path d="M261.925 223.818H252.146V233.461H261.925V223.818Z" fill="#414048"/>
    <path d="M261.926 218.859H252.139V220.926H261.926V218.859Z" fill="#262536"/>
    <path d="M261.926 233.452H247.293V235.217H261.926V233.452Z" fill="#C1B9B0"/>
    <path d="M261.927 233.452H260.297V235.217H261.927V233.452Z" fill="#262536"/>
    <path d="M202.872 66.5376H191.012V95.5187H202.872V66.5376Z" fill="#262536"/>
    <path d="M202.882 68.3828H193.104V95.5188H202.882V68.3828Z" fill="#585661"/>
    <path d="M202.882 85.876H193.104V95.5186H202.882V85.876Z" fill="#414048"/>
    <path d="M202.873 80.9172H193.086V82.9841H202.873V80.9172Z" fill="#262536"/>
    <path d="M202.872 61.6409H191.012V66.5376H202.872V61.6409Z" fill="#C1B9B0"/>
    <path d="M202.873 95.5186H188.24V97.2839H202.873V95.5186Z" fill="#C1B9B0"/>
    <path d="M202.872 95.5186H201.242V97.2839H202.872V95.5186Z" fill="#262536"/>
    <path d="M232.395 66.5376H220.535V95.5187H232.395V66.5376Z" fill="#262536"/>
    <path d="M232.404 68.3828H222.625V95.5188H232.404V68.3828Z" fill="#FBBE76"/>
    <path d="M232.404 85.876H222.625V95.5186H232.404V85.876Z" fill="#FFA163"/>
    <path d="M232.403 80.9172H222.615V82.9841H232.403V80.9172Z" fill="#262536"/>
    <path d="M232.395 61.6409H220.535V66.5376H232.395V61.6409Z" fill="#C1B9B0"/>
    <path d="M232.404 95.5186H217.771V97.2839H232.404V95.5186Z" fill="#C1B9B0"/>
    <path d="M232.403 95.5186H230.773V97.2839H232.403V95.5186Z" fill="#262536"/>
    <path d="M261.925 66.5376H250.064V95.5187H261.925V66.5376Z" fill="#262536"/>
    <path d="M261.925 68.3828H252.146V95.5188H261.925V68.3828Z" fill="#59BDEF"/>
    <path d="M261.925 85.876H252.146V95.5186H261.925V85.876Z" fill="#428DB3"/>
    <path d="M261.926 80.9172H252.139V82.9841H261.926V80.9172Z" fill="#262536"/>
    <path d="M261.925 61.6409H250.064V66.5376H261.925V61.6409Z" fill="#C1B9B0"/>
    <path d="M261.926 95.5186H247.293V97.2839H261.926V95.5186Z" fill="#C1B9B0"/>
    <path d="M261.927 95.5186H260.297V97.2839H261.927V95.5186Z" fill="#262536"/>
    <path d="M274.176 28.863H261.111V32.0033H274.176V28.863Z" fill="#464564"/>
    <path d="M261.111 28.863H163.359V32.0033H261.111V28.863Z" fill="#C1B9B0"/>
    <path d="M262.732 32.0034V37.6098C262.731 38.6986 262.944 39.7769 263.36 40.7832C263.775 41.7895 264.384 42.7039 265.152 43.4742C265.921 44.2445 266.833 44.8556 267.837 45.2725C268.842 45.6895 269.918 45.9041 271.005 45.9041H274.123V32.0034H262.732Z" fill="#C1B9B0"/>
    <path d="M265.895 37.6098C265.893 38.6986 266.107 39.7769 266.522 40.7832C266.937 41.7895 267.546 42.7039 268.314 43.4742C269.083 44.2445 269.995 44.8556 270.999 45.2725C272.004 45.6895 273.08 45.9041 274.167 45.9041V32.0034H265.895V37.6098Z" fill="#262536"/>
    <path d="M167.328 32.0034V37.6098C167.327 38.6986 167.54 39.7769 167.955 40.7832C168.371 41.7895 168.98 42.7039 169.748 43.4742C170.516 44.2445 171.429 44.8556 172.433 45.2725C173.437 45.6895 174.514 45.9041 175.601 45.9041H178.719V32.0034H167.328Z" fill="#C1B9B0"/>
    <path d="M170.49 37.6098C170.489 38.6986 170.702 39.7769 171.117 40.7832C171.533 41.7895 172.142 42.7039 172.91 43.4742C173.679 44.2445 174.591 44.8556 175.595 45.2725C176.599 45.6895 177.676 45.9041 178.763 45.9041V32.0034H170.49V37.6098Z" fill="#464564"/>
    <path d="M274.115 45.9038H178.764V52.1667H274.115V45.9038Z" fill="#C1B9B0"/>
    <path d="M274.176 246.918H269.242V250.023H274.176V246.918Z" fill="#464564"/>
    <path d="M269.242 118.388H173.838V121.493H269.242V118.388Z" fill="#C1B9B0"/>
    <path d="M274.176 118.388H269.242V121.493H274.176V118.388Z" fill="#464564"/>
    <path d="M369.527 28.8542H274.123V331.75H369.527V28.8542Z" fill="#FBEFE5"/>
    <path d="M369.527 28.863H274.123V202.776H369.527V28.863Z" fill="#FBEFE5"/>
    <path d="M369.527 32.0032H274.123V45.9038H369.527V32.0032Z" fill="#F3D0B2"/>
    <path d="M368.757 36.5718H274.123V37.8758H368.757V36.5718Z" fill="#FBEFE5"/>
    <path d="M284.549 41.7969H278.393V45.913H284.549V41.7969Z" fill="#FBEFE5"/>
    <path d="M294.291 41.7969H288.135V45.913H294.291V41.7969Z" fill="#FBEFE5"/>
    <path d="M304.035 41.7969H297.879V45.913H304.035V41.7969Z" fill="#FBEFE5"/>
    <path d="M313.777 41.7969H307.621V45.913H313.777V41.7969Z" fill="#FBEFE5"/>
    <path d="M323.521 41.7969H317.365V45.913H323.521V41.7969Z" fill="#FBEFE5"/>
    <path d="M333.265 41.7969H327.109V45.913H333.265V41.7969Z" fill="#FBEFE5"/>
    <path d="M343.008 41.7969H336.852V45.913H343.008V41.7969Z" fill="#FBEFE5"/>
    <path d="M352.752 41.7969H346.596V45.913H352.752V41.7969Z" fill="#FBEFE5"/>
    <path d="M362.494 41.7969H356.338V45.913H362.494V41.7969Z" fill="#FBEFE5"/>
    <path d="M369.527 250.023H274.123V272.741H369.527V250.023Z" fill="#585661"/>
    <g style="mix-blend-mode:multiply" opacity="0.35">
      <path d="M369.457 250.023H178.764V253.74H369.457V250.023Z" fill="#1F1825"/>
    </g>
    <path d="M364.594 246.918H269.189V250.023H364.594V246.918Z" fill="#F3D0B2"/>
    <path d="M516.597 28.8542H369.527V331.75H516.597V28.8542Z" fill="#262536"/>
    <path d="M292.298 148.052C289.896 148.052 287.592 149.007 285.893 150.707C284.194 152.407 283.239 154.713 283.236 157.118H289.499C289.539 156.4 289.852 155.726 290.373 155.232C290.894 154.739 291.585 154.464 292.302 154.464C293.019 154.464 293.71 154.739 294.231 155.232C294.752 155.726 295.065 156.4 295.105 157.118H301.385C301.384 155.925 301.148 154.743 300.691 153.642C300.233 152.54 299.563 151.539 298.719 150.697C297.875 149.855 296.873 149.188 295.771 148.734C294.669 148.28 293.489 148.048 292.298 148.052Z" fill="#F3D0B2"/>
    <path d="M292.299 151.183C291.52 151.182 290.749 151.335 290.03 151.633C289.31 151.931 288.657 152.368 288.106 152.919C287.556 153.47 287.119 154.125 286.822 154.845C286.524 155.566 286.372 156.338 286.373 157.118V180.182H298.233V157.118C298.233 156.338 298.08 155.565 297.781 154.845C297.483 154.124 297.046 153.47 296.495 152.918C295.943 152.367 295.289 151.93 294.569 151.633C293.849 151.335 293.078 151.182 292.299 151.183Z" fill="#262536"/>
    <path d="M293.344 153.029C292.048 153.029 290.804 153.544 289.887 154.463C288.97 155.381 288.455 156.627 288.455 157.925V180.165H298.198V157.925C298.198 156.633 297.688 155.393 296.779 154.475C295.87 153.558 294.635 153.038 293.344 153.029Z" fill="#585661"/>
    <path d="M298.233 165.563H288.445V167.63H298.233V165.563Z" fill="#262536"/>
    <path d="M298.232 180.165H283.6V181.93H298.232V180.165Z" fill="#F3D0B2"/>
    <path d="M298.233 180.165H296.604V181.93H298.233V180.165Z" fill="#262536"/>
    <path d="M321.82 148.052C319.42 148.054 317.119 149.01 315.422 150.71C313.724 152.41 312.77 154.714 312.768 157.118H319.021C319.061 156.401 319.374 155.726 319.895 155.232C320.417 154.739 321.107 154.464 321.824 154.464C322.542 154.464 323.232 154.739 323.753 155.232C324.275 155.726 324.587 156.401 324.628 157.118H330.881C330.879 154.713 329.923 152.407 328.224 150.707C326.525 149.007 324.222 148.052 321.82 148.052Z" fill="#F3D0B2"/>
    <path d="M321.82 151.183C320.249 151.183 318.741 151.809 317.63 152.922C316.519 154.035 315.895 155.544 315.895 157.118V180.182H327.755V157.118C327.755 156.338 327.601 155.565 327.303 154.845C327.004 154.124 326.567 153.47 326.016 152.918C325.465 152.367 324.811 151.93 324.091 151.633C323.371 151.335 322.599 151.182 321.82 151.183Z" fill="#262536"/>
    <path d="M322.866 153.029C321.569 153.029 320.326 153.544 319.409 154.463C318.492 155.381 317.977 156.627 317.977 157.925V180.165H327.72V157.925C327.72 156.633 327.21 155.393 326.3 154.475C325.391 153.558 324.156 153.038 322.866 153.029Z" fill="#FA8946"/>
    <path d="M327.754 165.563H317.967V167.63H327.754V165.563Z" fill="#262536"/>
    <path d="M327.756 180.165H313.123V181.93H327.756V180.165Z" fill="#F3D0B2"/>
    <path d="M327.755 180.165H326.125V181.93H327.755V180.165Z" fill="#262536"/>
    <path d="M351.35 148.052C348.949 148.052 346.645 149.007 344.946 150.707C343.247 152.407 342.291 154.713 342.289 157.118H348.542C348.583 156.401 348.896 155.726 349.417 155.232C349.938 154.739 350.628 154.464 351.346 154.464C352.063 154.464 352.753 154.739 353.275 155.232C353.796 155.726 354.109 156.401 354.149 157.118H360.403C360.4 154.714 359.446 152.41 357.749 150.71C356.052 149.01 353.75 148.054 351.35 148.052Z" fill="#F3D0B2"/>
    <path d="M351.351 151.183C350.572 151.182 349.8 151.335 349.08 151.633C348.36 151.93 347.706 152.367 347.155 152.918C346.604 153.47 346.166 154.124 345.868 154.845C345.57 155.565 345.416 156.338 345.416 157.118V180.182H357.276V157.118C357.276 155.544 356.652 154.035 355.541 152.922C354.429 151.809 352.922 151.183 351.351 151.183Z" fill="#262536"/>
    <path d="M352.387 153.029C351.091 153.029 349.847 153.544 348.93 154.463C348.013 155.381 347.498 156.627 347.498 157.925V180.165H357.241V157.925C357.241 156.633 356.731 155.393 355.822 154.475C354.913 153.558 353.678 153.038 352.387 153.029Z" fill="#585661"/>
    <path d="M357.277 170.522H347.498V180.164H357.277V170.522Z" fill="#414048"/>
    <path d="M357.278 165.563H347.49V167.63H357.278V165.563Z" fill="#262536"/>
    <path d="M357.277 180.165H342.645V181.93H357.277V180.165Z" fill="#F3D0B2"/>
    <path d="M357.276 180.165H355.646V181.93H357.276V180.165Z" fill="#262536"/>
    <path d="M292.298 201.339C289.895 201.341 287.592 202.298 285.893 204C284.194 205.701 283.239 208.008 283.236 210.414H289.499C289.539 209.697 289.852 209.022 290.373 208.528C290.894 208.035 291.585 207.76 292.302 207.76C293.019 207.76 293.71 208.035 294.231 208.528C294.752 209.022 295.065 209.697 295.105 210.414H301.385C301.384 209.22 301.148 208.039 300.691 206.936C300.233 205.834 299.563 204.833 298.719 203.99C297.875 203.147 296.874 202.48 295.772 202.025C294.67 201.57 293.489 201.337 292.298 201.339Z" fill="#F3D0B2"/>
    <path d="M292.299 204.471C291.52 204.471 290.749 204.625 290.029 204.923C289.31 205.222 288.656 205.66 288.106 206.212C287.555 206.764 287.119 207.419 286.822 208.14C286.524 208.861 286.372 209.634 286.373 210.414V233.478H298.233V210.414C298.233 208.838 297.608 207.326 296.495 206.212C295.382 205.097 293.873 204.471 292.299 204.471Z" fill="#262536"/>
    <path d="M293.344 206.325C292.048 206.325 290.804 206.841 289.887 207.759C288.97 208.677 288.455 209.923 288.455 211.221V233.452H298.198V211.221C298.198 209.929 297.688 208.689 296.779 207.771C295.87 206.854 294.635 206.334 293.344 206.325Z" fill="#585661"/>
    <path d="M298.233 218.859H288.445V220.926H298.233V218.859Z" fill="#262536"/>
    <path d="M298.232 233.452H283.6V235.217H298.232V233.452Z" fill="#F3D0B2"/>
    <path d="M298.233 233.452H296.604V235.217H298.233V233.452Z" fill="#262536"/>
    <path d="M321.82 201.339C319.419 201.344 317.118 202.302 315.421 204.003C313.724 205.704 312.77 208.009 312.768 210.414H319.021C319.061 209.697 319.374 209.022 319.895 208.528C320.417 208.035 321.107 207.76 321.824 207.76C322.542 207.76 323.232 208.035 323.753 208.528C324.275 209.022 324.587 209.697 324.628 210.414H330.881C330.879 208.008 329.923 205.701 328.225 204C326.526 202.298 324.222 201.341 321.82 201.339Z" fill="#F3D0B2"/>
    <path d="M321.82 204.471C320.248 204.473 318.741 205.1 317.63 206.215C316.519 207.329 315.895 208.839 315.895 210.414V233.478H327.755V210.414C327.755 208.838 327.129 207.326 326.017 206.212C324.904 205.097 323.394 204.471 321.82 204.471Z" fill="#262536"/>
    <path d="M322.866 206.325C321.569 206.325 320.326 206.841 319.409 207.759C318.492 208.677 317.977 209.923 317.977 211.221V233.452H327.72V211.221C327.72 209.929 327.21 208.689 326.3 207.771C325.391 206.854 324.156 206.334 322.866 206.325Z" fill="#585661"/>
    <path d="M327.754 218.859H317.967V220.926H327.754V218.859Z" fill="#262536"/>
    <path d="M327.756 233.452H313.123V235.217H327.756V233.452Z" fill="#F3D0B2"/>
    <path d="M327.755 233.452H326.125V235.217H327.755V233.452Z" fill="#262536"/>
    <path d="M351.35 201.339C348.948 201.341 346.644 202.298 344.946 204C343.247 205.701 342.291 208.008 342.289 210.414H348.542C348.583 209.697 348.896 209.022 349.417 208.528C349.938 208.035 350.628 207.76 351.346 207.76C352.063 207.76 352.753 208.035 353.275 208.528C353.796 209.022 354.109 209.697 354.149 210.414H360.403C360.403 208.009 359.449 205.702 357.752 204C356.054 202.299 353.752 201.341 351.35 201.339Z" fill="#F3D0B2"/>
    <path d="M351.351 204.471C349.777 204.471 348.267 205.097 347.154 206.212C346.041 207.326 345.416 208.838 345.416 210.414V233.478H357.276V210.414C357.276 208.839 356.652 207.329 355.541 206.215C354.43 205.1 352.923 204.473 351.351 204.471Z" fill="#262536"/>
    <path d="M352.387 206.325C351.091 206.325 349.847 206.841 348.93 207.759C348.013 208.677 347.498 209.923 347.498 211.221V233.452H357.241V211.221C357.241 209.929 356.731 208.689 355.822 207.771C354.913 206.854 353.678 206.334 352.387 206.325Z" fill="#FA8946"/>
    <path d="M357.278 218.859H347.49V220.926H357.278V218.859Z" fill="#262536"/>
    <path d="M357.277 233.452H342.645V235.217H357.277V233.452Z" fill="#F3D0B2"/>
    <path d="M357.276 233.452H355.646V235.217H357.276V233.452Z" fill="#262536"/>
    <path d="M298.233 66.5376H286.373V95.5187H298.233V66.5376Z" fill="#262536"/>
    <path d="M298.234 68.3828H288.455V95.5188H298.234V68.3828Z" fill="#585661"/>
    <path d="M298.234 85.876H288.455V95.5186H298.234V85.876Z" fill="#414048"/>
    <path d="M298.233 80.9172H288.445V82.9841H298.233V80.9172Z" fill="#262536"/>
    <path d="M298.233 61.6409H286.373V66.5376H298.233V61.6409Z" fill="#F3D0B2"/>
    <path d="M298.232 95.5186H283.6V97.2839H298.232V95.5186Z" fill="#F3D0B2"/>
    <path d="M298.233 95.5186H296.604V97.2839H298.233V95.5186Z" fill="#262536"/>
    <path d="M327.755 66.5376H315.895V95.5187H327.755V66.5376Z" fill="#262536"/>
    <path d="M327.755 68.3828H317.977V95.5188H327.755V68.3828Z" fill="#585661"/>
    <path d="M327.755 85.876H317.977V95.5186H327.755V85.876Z" fill="#414048"/>
    <path d="M327.754 80.9172H317.967V82.9841H327.754V80.9172Z" fill="#262536"/>
    <path d="M327.755 61.6409H315.895V66.5376H327.755V61.6409Z" fill="#F3D0B2"/>
    <path d="M327.756 95.5186H313.123V97.2839H327.756V95.5186Z" fill="#F3D0B2"/>
    <path d="M327.755 95.5186H326.125V97.2839H327.755V95.5186Z" fill="#262536"/>
    <path d="M357.276 66.5376H345.416V95.5187H357.276V66.5376Z" fill="#262536"/>
    <path d="M357.277 68.3828H347.498V95.5188H357.277V68.3828Z" fill="#585661"/>
    <path d="M357.277 85.876H347.498V95.5186H357.277V85.876Z" fill="#414048"/>
    <path d="M357.278 80.9172H347.49V82.9841H357.278V80.9172Z" fill="#262536"/>
    <path d="M357.276 61.6409H345.416V66.5376H357.276V61.6409Z" fill="#F3D0B2"/>
    <path d="M357.277 95.5186H342.645V97.2839H357.277V95.5186Z" fill="#F3D0B2"/>
    <path d="M357.276 95.5186H355.646V97.2839H357.276V95.5186Z" fill="#262536"/>
    <path d="M369.528 28.863H356.463V32.0033H369.528V28.863Z" fill="#262536"/>
    <path d="M356.462 28.863H258.711V32.0033H356.462V28.863Z" fill="#C1B9B0"/>
    <path d="M369.474 45.9038H274.123V52.1667H369.474V45.9038Z" fill="#FBEFE5"/>
    <g style="mix-blend-mode:multiply" opacity="0.35">
      <path d="M369.527 141.7V32.0032H170.49L369.527 141.7Z" fill="#1F1825"/>
    </g>
    <path d="M358.074 32.0034V37.6098C358.074 39.8096 358.947 41.9193 360.5 43.4747C362.053 45.0302 364.16 45.9041 366.356 45.9041H369.465V32.0034H358.074Z" fill="#FBEFE5"/>
    <path d="M361.244 37.6095C361.244 39.8093 362.117 41.919 363.67 43.4745C365.223 45.0299 367.329 45.9038 369.526 45.9038V31.0007H361.244V37.6095Z" fill="#262536"/>
    <path d="M361.264 32.0034H167.258V35.7203H361.264V32.0034Z" fill="#262536"/>
    <path d="M369.527 246.918H364.594V250.023H369.527V246.918Z" fill="#585661"/>
    <path d="M364.594 118.388H269.189V121.493H364.594V118.388Z" fill="#C1B9B0"/>
    <path d="M369.527 118.388H364.594V121.493H369.527V118.388Z" fill="#464564"/>
    <path d="M464.932 57.0725H369.527V331.75H464.932V57.0725Z" fill="#618899"/>
    <path d="M464.932 57.0725H369.527V202.776H464.932V57.0725Z" fill="#618899"/>
    <path d="M464.878 74.1223H369.527V80.3851H464.878V74.1223Z" fill="#FBEFE5"/>
    <path d="M464.932 60.2217H369.527V74.1223H464.932V60.2217Z" fill="#928C87"/>
    <path d="M464.161 64.79H369.527V66.094H464.161V64.79Z" fill="#FBEFE5"/>
    <path d="M379.953 70.0059H373.797V74.1219H379.953V70.0059Z" fill="#FBEFE5"/>
    <path d="M389.695 70.0059H383.539V74.1219H389.695V70.0059Z" fill="#FBEFE5"/>
    <path d="M399.439 70.0059H393.283V74.1219H399.439V70.0059Z" fill="#FBEFE5"/>
    <path d="M409.181 70.0059H403.025V74.1219H409.181V70.0059Z" fill="#FBEFE5"/>
    <path d="M418.926 70.0059H412.77V74.1219H418.926V70.0059Z" fill="#FBEFE5"/>
    <path d="M428.668 70.0059H422.512V74.1219H428.668V70.0059Z" fill="#FBEFE5"/>
    <path d="M438.412 70.0059H432.256V74.1219H438.412V70.0059Z" fill="#FBEFE5"/>
    <path d="M448.154 70.0059H441.998V74.1219H448.154V70.0059Z" fill="#FBEFE5"/>
    <path d="M457.898 70.0059H451.742V74.1219H457.898V70.0059Z" fill="#FBEFE5"/>
    <path d="M464.932 186.321H369.527V202.767H464.932V186.321Z" fill="#6A95A8"/>
    <path d="M612.002 57.0725H464.932V331.75H612.002V57.0725Z" fill="#23414F"/>
    <path d="M393.638 151.183H381.777V180.164H393.638V151.183Z" fill="#262536"/>
    <path d="M393.638 153.029H383.859V180.165H393.638V153.029Z" fill="#23414F"/>
    <path d="M393.638 170.522H383.859V180.164H393.638V170.522Z" fill="#23414F"/>
    <path d="M393.637 165.563H383.85V167.63H393.637V165.563Z" fill="#262536"/>
    <path d="M393.638 146.287H381.777V151.183H393.638V146.287Z" fill="#6A95A8"/>
    <path d="M393.637 180.165H379.004V181.93H393.637V180.165Z" fill="#6A95A8"/>
    <path d="M393.638 180.165H392.008V181.93H393.638V180.165Z" fill="#446A7A"/>
    <path d="M423.159 151.183H411.299V180.164H423.159V151.183Z" fill="#262536"/>
    <path d="M423.167 153.029H413.389V180.165H423.167V153.029Z" fill="#FA8946"/>
    <path d="M423.167 170.522H413.389V180.164H423.167V170.522Z" fill="#FA8946"/>
    <path d="M423.159 165.563H413.371V167.63H423.159V165.563Z" fill="#262536"/>
    <path d="M423.159 146.287H411.299V151.183H423.159V146.287Z" fill="#6A95A8"/>
    <path d="M423.158 180.165H408.525V181.93H423.158V180.165Z" fill="#6A95A8"/>
    <path d="M423.159 180.165H421.529V181.93H423.159V180.165Z" fill="#446A7A"/>
    <path d="M452.68 151.183H440.82V180.164H452.68V151.183Z" fill="#262536"/>
    <path d="M452.689 153.029H442.91V180.165H452.689V153.029Z" fill="#FA8946"/>
    <path d="M452.689 170.522H442.91V180.164H452.689V170.522Z" fill="#FA8946"/>
    <path d="M452.69 165.563H442.902V167.63H452.69V165.563Z" fill="#262536"/>
    <path d="M452.68 146.287H440.82V151.183H452.68V146.287Z" fill="#6A95A8"/>
    <path d="M452.689 180.165H438.057V181.93H452.689V180.165Z" fill="#6A95A8"/>
    <path d="M452.69 180.165H451.061V181.93H452.69V180.165Z" fill="#446A7A"/>
    <path d="M393.638 101.019H381.777V130H393.638V101.019Z" fill="#262536"/>
    <path d="M393.638 102.864H383.859V130H393.638V102.864Z" fill="#23414F"/>
    <path d="M393.638 120.357H383.859V130H393.638V120.357Z" fill="#23414F"/>
    <path d="M393.637 115.398H383.85V117.465H393.637V115.398Z" fill="#262536"/>
    <path d="M393.638 96.1221H381.777V101.019H393.638V96.1221Z" fill="#6A95A8"/>
    <path d="M393.637 130H379.004V131.765H393.637V130Z" fill="#6A95A8"/>
    <path d="M393.638 130H392.008V131.765H393.638V130Z" fill="#446A7A"/>
    <path d="M423.159 101.019H411.299V130H423.159V101.019Z" fill="#262536"/>
    <path d="M423.167 102.864H413.389V130H423.167V102.864Z" fill="#FA8946"/>
    <path d="M423.167 120.357H413.389V130H423.167V120.357Z" fill="#FA8946"/>
    <path d="M423.159 115.398H413.371V117.465H423.159V115.398Z" fill="#262536"/>
    <path d="M423.159 96.1221H411.299V101.019H423.159V96.1221Z" fill="#6A95A8"/>
    <path d="M423.158 130H408.525V131.765H423.158V130Z" fill="#6A95A8"/>
    <path d="M423.159 130H421.529V131.765H423.159V130Z" fill="#446A7A"/>
    <path d="M452.68 101.019H440.82V130H452.68V101.019Z" fill="#262536"/>
    <path d="M452.689 102.864H442.91V130H452.689V102.864Z" fill="#23414F"/>
    <path d="M452.689 120.357H442.91V130H452.689V120.357Z" fill="#23414F"/>
    <path d="M452.69 115.398H442.902V117.465H452.69V115.398Z" fill="#262536"/>
    <path d="M452.68 96.1221H440.82V101.019H452.68V96.1221Z" fill="#6A95A8"/>
    <path d="M452.689 130H438.057V131.765H452.689V130Z" fill="#6A95A8"/>
    <path d="M452.69 130H451.061V131.765H452.69V130Z" fill="#446A7A"/>
    <path d="M393.638 223.286H381.777V252.267H393.638V223.286Z" fill="#262536"/>
    <path d="M393.638 225.131H383.859V252.267H393.638V225.131Z" fill="#23414F"/>
    <path d="M393.637 237.666H383.85V239.732H393.637V237.666Z" fill="#262536"/>
    <path d="M393.638 218.389H381.777V223.286H393.638V218.389Z" fill="#6A95A8"/>
    <path d="M393.637 252.267H379.004V254.032H393.637V252.267Z" fill="#6A95A8"/>
    <path d="M393.638 252.267H392.008V254.032H393.638V252.267Z" fill="#446A7A"/>
    <path d="M423.159 223.286H411.299V252.267H423.159V223.286Z" fill="#262536"/>
    <path d="M422.769 225.548H412.99V252.684H422.769V225.548Z" fill="#23414F"/>
    <path d="M423.159 237.666H413.371V239.732H423.159V237.666Z" fill="#262536"/>
    <path d="M423.159 218.389H411.299V223.286H423.159V218.389Z" fill="#6A95A8"/>
    <path d="M423.158 252.267H408.525V254.032H423.158V252.267Z" fill="#6A95A8"/>
    <path d="M423.159 252.267H421.529V254.032H423.159V252.267Z" fill="#446A7A"/>
    <path d="M452.68 223.286H440.82V252.267H452.68V223.286Z" fill="#262536"/>
    <path d="M451.999 225.548H442.221V252.684H451.999V225.548Z" fill="#23414F"/>
    <path d="M451.803 237.666H442.016V239.732H451.803V237.666Z" fill="#262536"/>
    <path d="M452.68 218.389H440.82V223.286H452.68V218.389Z" fill="#6A95A8"/>
    <path d="M452.689 252.267H438.057V254.032H452.689V252.267Z" fill="#6A95A8"/>
    <path d="M452.69 252.267H451.061V254.032H452.69V252.267Z" fill="#446A7A"/>
    <path d="M446.206 263.968C443.965 263.968 441.816 264.859 440.231 266.446C438.646 268.034 437.756 270.186 437.756 272.431V281.647H454.665V272.431C454.665 271.319 454.446 270.217 454.021 269.19C453.596 268.163 452.972 267.229 452.187 266.443C451.401 265.657 450.469 265.034 449.442 264.609C448.416 264.185 447.316 263.967 446.206 263.968Z" fill="#C1B9B0"/>
    <path d="M446.206 263.968C443.965 263.968 441.816 264.859 440.231 266.446C438.646 268.034 437.756 270.186 437.756 272.431V281.647H454.665V272.431C454.665 271.319 454.446 270.217 454.021 269.19C453.596 268.163 452.972 267.229 452.187 266.443C451.401 265.657 450.469 265.034 449.442 264.609C448.416 264.185 447.316 263.967 446.206 263.968Z" fill="#23414F"/>
    <path d="M464.94 57.0725H451.875V60.2128H464.94V57.0725Z" fill="#23414F"/>
    <path d="M451.874 57.0725H354.123V60.2128H451.874V57.0725Z" fill="#FBEFE5"/>
    <g style="mix-blend-mode:multiply" opacity="0.35">
      <path d="M464.887 112.631V60.2217H369.527L464.887 112.631Z" fill="#1F1825"/>
    </g>
    <path d="M453.486 60.2217V65.8724C453.486 68.0722 454.359 70.1819 455.912 71.7374C457.465 73.2928 459.572 74.1667 461.768 74.1667H464.886V60.2217H453.486Z" fill="#FBEFE5"/>
    <path d="M456.648 65.8722C456.648 68.072 457.521 70.1817 459.074 71.7371C460.627 73.2926 462.734 74.1665 464.93 74.1665V59.6626H456.648V65.8722Z" fill="#23414F"/>
    <path d="M358.074 60.2217V65.8724C358.074 68.0722 358.947 70.1819 360.5 71.7374C362.053 73.2928 364.16 74.1667 366.356 74.1667H369.474V60.2217H358.074Z" fill="#FBEFE5"/>
    <path d="M361.244 65.8724C361.244 68.0722 362.117 70.1819 363.67 71.7374C365.223 73.2928 367.329 74.1667 369.526 74.1667V60.2217H361.244V65.8724Z" fill="#23414F"/>
    <path d="M258.392 259.168H171.27V282.153H258.392V259.168Z" fill="#C1B9B0"/>
    <path d="M272.642 259.168H258.391V282.153H272.642V259.168Z" fill="#262536"/>
    <path d="M430.138 13.4189H339.854V28.8631H430.138V13.4189Z" fill="#484650"/>
    <path d="M339.854 13.4189H285.451V28.8631H339.854V13.4189Z" fill="#FBEFE5"/>
    <path d="M215.539 3.02197H206.105V28.8539H215.539V3.02197Z" fill="#9C6D6B"/>
    <path d="M224.99 3.02197H215.557V28.8539H224.99V3.02197Z" fill="#464564"/>
    <path d="M215.539 0.0859375H203.883V3.0222H215.539V0.0859375Z" fill="#C1B9B0"/>
    <path d="M227.196 0.0859375H215.539V3.0222H227.196V0.0859375Z" fill="#928C87"/>
    <path d="M257.904 3.02197H248.471V28.8539H257.904V3.02197Z" fill="#9C6D6B"/>
    <path d="M267.348 3.02197H257.861V28.8539H267.348V3.02197Z" fill="#464564"/>
    <path d="M257.905 0.0859375H246.248V3.0222H257.905V0.0859375Z" fill="#C1B9B0"/>
    <path d="M269.561 0.0859375H257.904V3.0222H269.561V0.0859375Z" fill="#928C87"/>
    <g style="mix-blend-mode:multiply" opacity="0.35">
      <path d="M369.457 52.1758H178.764V55.8927H369.457V52.1758Z" fill="#1F1825"/>
    </g>
    <g style="mix-blend-mode:multiply" opacity="0.35">
      <path d="M369.518 121.492H178.824V125.209H369.518V121.492Z" fill="#1F1825"/>
    </g>
    <g style="mix-blend-mode:multiply" opacity="0.35">
      <path d="M224.953 3.02197H206.113V6.73886H224.953V3.02197Z" fill="#1F1825"/>
    </g>
    <g style="mix-blend-mode:multiply" opacity="0.35">
      <path d="M267.32 3.02197H248.48V6.73886H267.32V3.02197Z" fill="#1F1825"/>
    </g>
    <path d="M228.506 173.183H221.473V178.328H228.506V173.183Z" fill="#C1B9B0"/>
    <g style="mix-blend-mode:multiply" opacity="0.35">
      <path d="M231.455 178.328H224.422V180.093H231.455V178.328Z" fill="#1F1825"/>
    </g>
    <path d="M231.465 173.183H228.516V178.328H231.465V173.183Z" fill="#3B4348"/>
    <path d="M227.727 173.804H222.262V177.468H227.727V173.804Z" fill="#464564"/>
    <path d="M258.162 226.55H251.129V231.695H258.162V226.55Z" fill="#C1B9B0"/>
    <g style="mix-blend-mode:multiply" opacity="0.35">
      <path d="M261.101 231.687H254.068V233.452H261.101V231.687Z" fill="#1F1825"/>
    </g>
    <path d="M261.112 226.55H258.162V231.695H261.112V226.55Z" fill="#3B4348"/>
    <path d="M257.373 227.162H251.908V230.826H257.373V227.162Z" fill="#464564"/>
    <path d="M262.451 272.775C272.711 271.115 279.685 261.442 278.026 251.171C276.368 240.899 266.706 233.918 256.445 235.578C246.185 237.238 239.211 246.911 240.87 257.182C242.528 267.454 252.19 274.435 262.451 272.775Z" fill="#694440"/>
    <path d="M260.432 248.538H258.131V280.164H260.432V248.538Z" fill="#07070A"/>
    <path d="M253.801 255.109L252.174 256.738L258.464 263.035L260.092 261.406L253.801 255.109Z" fill="#07070A"/>
    <path d="M264.759 250.664L258.469 256.961L260.096 258.59L266.387 252.293L264.759 250.664Z" fill="#07070A"/>
    <path d="M230.946 261.813C247.168 258.797 257.877 243.188 254.864 226.948C251.852 210.709 236.259 199.989 220.037 203.004C203.815 206.02 193.106 221.629 196.119 237.869C199.131 254.109 214.724 264.829 230.946 261.813Z" fill="#464564"/>
    <path d="M226.635 224.506H224.334V280.164H226.635V224.506Z" fill="#07070A"/>
    <path d="M215.237 236.665L213.609 238.294L224.676 249.373L226.303 247.743L215.237 236.665Z" fill="#07070A"/>
    <path d="M235.734 228.873L224.668 239.951L226.295 241.58L237.362 230.502L235.734 228.873Z" fill="#07070A"/>
    <path d="M239.612 272.012C247.151 272.012 253.262 265.894 253.262 258.347C253.262 250.801 247.151 244.683 239.612 244.683C232.074 244.683 225.963 250.801 225.963 258.347C225.963 265.894 232.074 272.012 239.612 272.012Z" fill="#994E42"/>
    <path d="M240.762 254.741H238.461V280.173H240.762V254.741Z" fill="#07070A"/>
    <path d="M235.372 259.849L233.744 261.478L238.802 266.541L240.429 264.912L235.372 259.849Z" fill="#07070A"/>
    <path d="M243.852 256.278L238.795 261.341L240.422 262.97L245.48 257.907L243.852 256.278Z" fill="#07070A"/>
    <path d="M245.109 251.48C245.789 251.48 246.34 250.928 246.34 250.248C246.34 249.568 245.789 249.016 245.109 249.016C244.43 249.016 243.879 249.568 243.879 250.248C243.879 250.928 244.43 251.48 245.109 251.48Z" fill="#BA7F60"/>
    <path d="M241.967 247.687C241.773 247.687 241.583 247.745 241.421 247.853C241.259 247.961 241.134 248.114 241.059 248.294C240.985 248.474 240.965 248.672 241.003 248.863C241.041 249.053 241.135 249.229 241.272 249.366C241.41 249.504 241.585 249.597 241.775 249.635C241.966 249.673 242.163 249.654 242.343 249.579C242.522 249.505 242.676 249.379 242.784 249.217C242.892 249.055 242.949 248.865 242.949 248.671C242.949 248.41 242.846 248.16 242.662 247.975C242.477 247.791 242.228 247.687 241.967 247.687Z" fill="#BA7F60"/>
    <path d="M242.135 218.994C241.802 218.994 241.476 219.093 241.2 219.278C240.923 219.464 240.707 219.727 240.58 220.035C240.453 220.343 240.42 220.682 240.486 221.009C240.552 221.336 240.713 221.636 240.949 221.871C241.185 222.106 241.485 222.266 241.812 222.33C242.139 222.394 242.478 222.359 242.785 222.231C243.092 222.102 243.354 221.885 243.538 221.607C243.721 221.328 243.819 221.002 243.817 220.669C243.817 220.448 243.773 220.23 243.689 220.026C243.604 219.822 243.48 219.637 243.324 219.481C243.167 219.326 242.982 219.203 242.778 219.119C242.574 219.035 242.355 218.993 242.135 218.994Z" fill="#A1728A"/>
    <path d="M236.549 220.075C236.218 220.077 235.896 220.176 235.622 220.362C235.348 220.547 235.135 220.809 235.01 221.115C234.884 221.421 234.852 221.758 234.918 222.082C234.984 222.406 235.144 222.704 235.378 222.937C235.612 223.17 235.91 223.329 236.235 223.393C236.559 223.457 236.895 223.423 237.2 223.296C237.505 223.169 237.766 222.955 237.949 222.679C238.133 222.404 238.231 222.081 238.231 221.75C238.231 221.529 238.187 221.311 238.103 221.107C238.018 220.903 237.894 220.718 237.738 220.562C237.581 220.407 237.396 220.284 237.192 220.2C236.988 220.116 236.769 220.074 236.549 220.075Z" fill="#A1728A"/>
    <path d="M223.812 212.064C223.479 212.063 223.153 212.16 222.875 212.344C222.597 212.528 222.38 212.79 222.252 213.098C222.123 213.405 222.088 213.744 222.152 214.071C222.216 214.398 222.376 214.699 222.611 214.936C222.845 215.172 223.145 215.333 223.472 215.399C223.798 215.464 224.137 215.432 224.445 215.305C224.752 215.177 225.016 214.962 225.201 214.684C225.386 214.407 225.485 214.082 225.485 213.748C225.486 213.527 225.444 213.309 225.36 213.105C225.276 212.9 225.153 212.715 224.998 212.558C224.842 212.402 224.658 212.278 224.454 212.193C224.251 212.108 224.032 212.064 223.812 212.064Z" fill="#A1728A"/>
    <path d="M265.611 240.057C265.278 240.056 264.952 240.153 264.674 240.337C264.396 240.521 264.179 240.783 264.051 241.091C263.922 241.398 263.887 241.737 263.951 242.064C264.015 242.391 264.175 242.692 264.409 242.928C264.644 243.165 264.944 243.326 265.27 243.392C265.597 243.457 265.935 243.425 266.243 243.297C266.551 243.17 266.814 242.954 267 242.677C267.185 242.4 267.284 242.074 267.284 241.741C267.284 241.296 267.108 240.869 266.794 240.554C266.481 240.238 266.055 240.06 265.611 240.057Z" fill="#994E42"/>
    <path d="M269.496 244.683C269.166 244.685 268.843 244.785 268.569 244.97C268.295 245.155 268.082 245.417 267.957 245.723C267.832 246.029 267.8 246.366 267.865 246.69C267.931 247.014 268.091 247.312 268.325 247.545C268.559 247.779 268.858 247.937 269.182 248.001C269.506 248.065 269.842 248.031 270.147 247.904C270.452 247.777 270.713 247.563 270.897 247.287C271.08 247.012 271.178 246.689 271.178 246.358C271.178 246.137 271.134 245.919 271.05 245.715C270.965 245.511 270.841 245.326 270.685 245.171C270.529 245.015 270.343 244.892 270.139 244.808C269.935 244.724 269.717 244.682 269.496 244.683Z" fill="#994E42"/>
    <path d="M306.718 98.0188C306.054 98.0986 262.158 103.548 177.977 107.323V107.793C262.202 104.018 306.116 98.5682 306.771 98.4796L306.718 98.0188Z" fill="#07070A"/>
    <path d="M306.718 103.238C306.054 103.327 262.158 108.768 177.977 112.542V113.012C262.202 109.237 306.116 103.787 306.771 103.708L306.718 103.238Z" fill="#07070A"/>
    <path d="M306.718 108.502C306.054 108.59 262.158 114.031 177.977 117.806V118.249C262.202 114.474 306.116 109.025 306.771 108.945L306.718 108.502Z" fill="#EAE8D7"/>
    <path d="M306.718 113.677C306.054 113.765 262.158 119.215 177.977 122.981V123.451C262.202 119.676 306.116 114.226 306.771 114.146L306.718 113.677Z" fill="#EAE8D7"/>
    <path d="M326.555 148.192H321.447V154.253H326.555V148.192Z" fill="#07070A"/>
    <path d="M334.699 191.09H329.592V197.151H334.699V191.09Z" fill="#07070A"/>
    <path d="M332.14 64H326.555V292.322H332.14V64Z" fill="#6B4847"/>
    <path d="M332.14 64H329.617V292.322H332.14V64Z" fill="#07070A"/>
    <path d="M326.545 118.754H323.801V292.322H326.545V118.754Z" fill="#C1B9B0"/>
    <path d="M326.545 214.847H323.801V292.331H326.545V214.847Z" fill="#91A2AE"/>
    <path d="M315.428 96.096V116.477C315.428 116.844 315.5 117.207 315.64 117.545C315.78 117.884 315.985 118.192 316.244 118.451C316.503 118.71 316.811 118.916 317.149 119.056C317.487 119.196 317.85 119.268 318.216 119.268H326.555V117.443H318.216C317.96 117.443 317.715 117.341 317.534 117.16C317.353 116.979 317.251 116.733 317.251 116.477V96.096C317.251 95.9696 317.276 95.8444 317.325 95.7277C317.373 95.611 317.445 95.5051 317.534 95.4161C317.624 95.3271 317.73 95.2569 317.848 95.2093C317.965 95.1617 318.09 95.1378 318.216 95.139H326.555V93.3047H318.216C317.477 93.3047 316.767 93.5988 316.244 94.1222C315.721 94.6457 315.428 95.3557 315.428 96.096Z" fill="#6B4847"/>
    <path d="M326.547 97.939H303.842V99.0112H326.547V97.939Z" fill="#07070A"/>
    <path d="M326.547 103.07H303.842V104.142H326.547V103.07Z" fill="#07070A"/>
    <path d="M326.547 108.2H303.842V109.273H326.547V108.2Z" fill="#07070A"/>
    <path d="M326.547 113.34H303.842V114.412H326.547V113.34Z" fill="#07070A"/>
    <path d="M309.302 97.0972H304.956C304.592 97.0972 304.243 97.2419 303.986 97.4995C303.729 97.757 303.584 98.1064 303.584 98.4707C303.584 98.8349 303.729 99.1843 303.986 99.4419C304.243 99.6995 304.592 99.8442 304.956 99.8442H309.302C309.666 99.8442 310.015 99.6995 310.272 99.4419C310.53 99.1843 310.674 98.8349 310.674 98.4707C310.674 98.1064 310.53 97.757 310.272 97.4995C310.015 97.2419 309.666 97.0972 309.302 97.0972Z" fill="#07070A"/>
    <path d="M309.303 102.237H304.957C304.768 102.222 304.578 102.246 304.399 102.308C304.22 102.37 304.055 102.468 303.916 102.596C303.777 102.725 303.666 102.881 303.59 103.055C303.514 103.229 303.475 103.416 303.475 103.606C303.475 103.796 303.514 103.983 303.59 104.157C303.666 104.331 303.777 104.487 303.916 104.615C304.055 104.744 304.22 104.842 304.399 104.904C304.578 104.966 304.768 104.99 304.957 104.975H309.303C309.492 104.99 309.682 104.966 309.861 104.904C310.04 104.842 310.204 104.744 310.344 104.615C310.483 104.487 310.594 104.331 310.67 104.157C310.746 103.983 310.785 103.796 310.785 103.606C310.785 103.416 310.746 103.229 310.67 103.055C310.594 102.881 310.483 102.725 310.344 102.596C310.204 102.468 310.04 102.37 309.861 102.308C309.682 102.246 309.492 102.222 309.303 102.237Z" fill="#07070A"/>
    <path d="M309.302 107.367H304.956C304.592 107.367 304.243 107.512 303.986 107.77C303.729 108.027 303.584 108.377 303.584 108.741C303.584 109.105 303.729 109.455 303.986 109.712C304.243 109.97 304.592 110.114 304.956 110.114H309.302C309.666 110.114 310.015 109.97 310.272 109.712C310.53 109.455 310.674 109.105 310.674 108.741C310.674 108.377 310.53 108.027 310.272 107.77C310.015 107.512 309.666 107.367 309.302 107.367Z" fill="#07070A"/>
    <path d="M309.303 112.507H304.957C304.768 112.492 304.578 112.516 304.399 112.578C304.22 112.64 304.055 112.738 303.916 112.867C303.777 112.995 303.666 113.151 303.59 113.325C303.514 113.499 303.475 113.686 303.475 113.876C303.475 114.066 303.514 114.253 303.59 114.427C303.666 114.601 303.777 114.757 303.916 114.885C304.055 115.014 304.22 115.112 304.399 115.174C304.578 115.236 304.768 115.26 304.957 115.245H309.303C309.492 115.26 309.682 115.236 309.861 115.174C310.04 115.112 310.204 115.014 310.344 114.885C310.483 114.757 310.594 114.601 310.67 114.427C310.746 114.253 310.785 114.066 310.785 113.876C310.785 113.686 310.746 113.499 310.67 113.325C310.594 113.151 310.483 112.995 310.344 112.867C310.204 112.738 310.04 112.64 309.861 112.578C309.682 112.516 309.492 112.492 309.303 112.507Z" fill="#07070A"/>
    <path d="M332.13 262.353H323.801V264.408H332.13V262.353Z" fill="#4F3844"/>
    <path d="M332.13 165.808H323.801V167.864H332.13V165.808Z" fill="#4F3844"/>
    <path d="M332.13 160.89H323.801V162.946H332.13V160.89Z" fill="#4F3844"/>
    <path d="M332.13 155.972H323.801V158.028H332.13V155.972Z" fill="#4F3844"/>
    <path d="M377.355 227.536H372.504V242.92H377.355V227.536Z" fill="#07070A"/>
    <path d="M378.498 89.9728V292.322H380.844V89.9728C380.844 87.6226 381.776 85.3687 383.436 83.7069C385.096 82.0451 387.348 81.1114 389.696 81.1114H406.939V78.7632H389.722C386.751 78.7678 383.903 79.9495 381.8 82.0499C379.697 84.1504 378.51 86.9988 378.498 89.9728Z" fill="#DEDEDE"/>
    <path d="M379.8 187.634H379.49C378.916 187.636 378.367 187.866 377.962 188.273C377.557 188.68 377.33 189.231 377.33 189.805V292.322H381.96V189.805C381.96 189.231 381.732 188.68 381.328 188.273C380.923 187.866 380.373 187.636 379.8 187.634Z" fill="#B0997F"/>
    <path d="M416.268 78.7188H400.627C399.507 78.7188 398.6 79.6273 398.6 80.748V83.0963C398.6 84.217 399.507 85.1255 400.627 85.1255H416.268C417.387 85.1255 418.295 84.217 418.295 83.0963V80.748C418.295 79.6273 417.387 78.7188 416.268 78.7188Z" fill="#DEDEDE"/>
    <path d="M379.684 89.9727V187.935C380.03 188.113 380.32 188.382 380.525 188.713C380.729 189.044 380.839 189.425 380.843 189.814V292.34H381.994V189.814C381.99 189.426 381.881 189.046 381.678 188.715C381.475 188.384 381.187 188.115 380.843 187.935V89.9727C380.843 87.6226 381.776 85.3686 383.436 83.7068C385.096 82.045 387.347 81.1114 389.695 81.1114H388.562C387.397 81.1079 386.243 81.3345 385.166 81.7783C384.089 82.222 383.11 82.8742 382.286 83.6974C381.461 84.5206 380.806 85.4986 380.36 86.5755C379.913 87.6523 379.684 88.8068 379.684 89.9727Z" fill="#07070A"/>
    <path d="M399.406 78.7363H400.539C400.539 78.7363 400.601 78.7363 400.628 78.7363H399.477C399.454 78.7432 399.429 78.7432 399.406 78.7363Z" fill="#07070A"/>
    <g style="mix-blend-mode:soft-light">
      <path d="M400.627 85.1252L290.988 292.322H525.421L415.782 85.1252H400.627Z" fill="#FBD5A2"/>
    </g>
  </g>
  <defs>
    <clipPath id="clip0">
      <rect width="612" height="280" fill="white"/>
    </clipPath>
  </defs>
</svg>
