<svg width="132" height="89" viewBox="0 0 132 89" fill="none" xmlns="http://www.w3.org/2000/svg">
  <g clip-path="url(#clip0)">
    <path opacity="0.1" d="M0.573952 56.1744C4.76228 73.074 26.6497 87.4538 54.6169 87.4538C82.5842 87.4538 122.644 76.333 129.872 60.1054C137.1 43.8777 124.265 16.5293 115.213 10.2801C106.127 4.03099 50.9353 -8.26573 33.2024 8.19709C15.4696 24.6599 -3.61438 39.2749 0.573952 56.1744Z" fill="#9EC4CF"/>
    <path d="M82.5844 32.1865L96.2641 29.7003C98.1893 29.3307 100.216 29.6667 101.939 30.641L103.864 31.8842H104.1C105.62 31.8842 106.971 32.7913 107.579 34.1688C108.187 35.6135 107.816 37.9653 106.667 39.0404L106.228 39.4436L106.363 40.8547C106.532 42.7362 105.857 43.9457 104.472 45.256L103.729 45.9951L103.796 46.8351C103.999 49.0189 103.256 51.1692 101.77 52.8154L100.587 54.1258C99.5404 55.3017 98.2907 56.276 96.9058 57.0151L94.1023 58.5606L76.0993 33.4296L82.5844 32.1865Z" fill="#E6864B"/>
    <path d="M37.391 47.843C36.3777 55.7384 41.9509 62.9283 49.8884 63.9698C57.1505 64.9106 66.0675 65.4481 73.7349 64.0706C89.9478 61.1141 75.5588 49.0861 75.5588 49.0861L37.5936 46.3983L37.391 47.843Z" fill="#E6864B"/>
    <path d="M79.8823 19.7554C78.3623 28.9947 80.3552 35.0759 82.4156 38.9396C86.0635 45.7599 91.0286 47.4062 94.8454 54.5625C98.2569 60.9796 98.392 67.3632 97.9867 71.6973L72.7216 77.5432C73.1269 73.2091 72.9918 66.792 69.5803 60.4085C65.7636 53.2858 60.8321 51.6059 57.1505 44.7856C55.0901 40.9219 53.131 34.8407 54.6172 25.6014L79.8823 19.7554Z" fill="#9EC4CF"/>
    <path d="M94.8792 64.7761C92.3797 64.8097 90.3869 66.8255 90.3869 69.3454C90.3869 69.6813 90.4207 70.0173 90.4882 70.3533L80.5578 72.6715C80.1525 70.5549 78.2948 68.9758 76.0655 68.9758C75.8966 68.9758 75.7277 68.9758 75.5589 69.0094L75.5251 68.9086C74.9847 65.4145 73.9038 62.1219 72.2825 59.0645C70.1546 55.0664 67.6213 52.5466 65.392 50.3291C63.3654 48.3133 61.4401 46.3982 59.8526 43.4416C58.1975 40.3171 57.2856 36.7557 57.1842 32.7912C57.3193 32.7912 57.4544 32.7912 57.5896 32.7912C60.1228 32.7912 62.1832 30.7418 62.1832 28.2219C62.1832 27.8188 62.1157 27.4492 62.0481 27.0796L71.8772 24.795C72.2487 26.9116 74.1402 28.5243 76.3695 28.5243H76.4371C76.7411 32.8584 77.8557 36.8565 79.781 40.4179C81.8076 44.1808 84.1382 46.499 86.3675 48.7501C88.4616 50.8331 90.4545 52.8154 92.1771 56.0407C93.5957 58.6613 94.5077 61.5843 94.8792 64.7761Z" stroke="black" stroke-width="2" stroke-miterlimit="10"/>
    <path d="M37.5936 46.3982C40.3971 37.8644 46.7472 33.5303 53.9079 33.5303H68.3981C70.087 33.5303 71.8434 34.8742 71.9109 36.5541C71.9447 37.6964 71.0665 38.738 70.087 39.3427C67.7901 40.7874 62.3858 41.9633 61.305 43.7104C59.785 46.1294 59.5486 53.8905 54.7861 54.9656" fill="#E6864B"/>
    <path d="M81.7401 38.6036C81.7401 38.6036 89.4412 37.0582 94.2375 36.0502" stroke="black" stroke-width="2" stroke-miterlimit="10"/>
    <path d="M89.171 43.2736C93.0215 42.4673 97.041 41.661 100.588 40.9218" stroke="black" stroke-width="2" stroke-miterlimit="10"/>
    <path d="M92.3459 50.9675C93.5957 50.6651 95.0481 50.262 96.5005 49.8924" stroke="black" stroke-width="2" stroke-miterlimit="10"/>
    <path d="M64.7503 33.396C64.7503 33.396 65.088 35.0759 66.8444 35.8822C68.6008 36.655 71.7759 35.815 71.7759 35.815" stroke="black" stroke-width="2" stroke-miterlimit="10"/>
    <path d="M71.3367 64.4402C71.1341 64.4738 70.9314 64.5074 70.7287 64.5074C69.8843 62.122 66.9457 58.2582 63.9396 55.8392C61.2037 53.6554 59.5486 52.2107 58.6028 51.3707C59.0082 50.4636 59.3459 49.5229 59.6499 48.5485C62.8587 52.5466 66.5742 54.7641 69.5466 60.3749C70.3234 61.7524 70.8976 63.1299 71.3367 64.4402Z" fill="#4C8389"/>
    <path d="M55.9683 54.7305C55.9683 54.7305 58.738 53.3866 59.8526 48.8845C60.9672 44.3824 61.4063 43.1057 63.8045 42.2322" stroke="black" stroke-width="2" stroke-miterlimit="10"/>
    <path d="M50.0235 23.0816L44.5179 21.0657" stroke="black" stroke-width="2" stroke-miterlimit="10"/>
    <path d="M56.9478 19.1842L52.5568 13.8758" stroke="black" stroke-width="2" stroke-miterlimit="10"/>
    <path d="M64.9191 16.2276L63.5005 11.524" stroke="black" stroke-width="2" stroke-miterlimit="10"/>
    <path d="M72.3501 16.0596L73.8025 8.13062" stroke="black" stroke-width="2" stroke-miterlimit="10"/>
    <path d="M80.8618 15.858L84.1044 11.0536" stroke="black" stroke-width="2" stroke-miterlimit="10"/>
    <path d="M99 74.217L104.674 75.7961" stroke="black" stroke-width="2" stroke-miterlimit="10"/>
    <path d="M92.7175 79.2903L94.5415 83.8932" stroke="black" stroke-width="2" stroke-miterlimit="10"/>
    <path d="M82.7196 80.9702L81.9089 88.9664" stroke="black" stroke-width="2" stroke-miterlimit="10"/>
    <path d="M71.3367 81.8438L68.4995 86.917" stroke="black" stroke-width="2" stroke-miterlimit="10"/>
  </g>
  <defs>
    <clipPath id="clip0">
      <rect width="132" height="89" fill="white"/>
    </clipPath>
  </defs>
</svg>
